<?xml version="1.0" standalone="no"?>
<!DOCTYPE svg PUBLIC "-//W3C//DTD SVG 1.1//EN" "http://www.w3.org/Graphics/SVG/1.1/DTD/svg11.dtd" >
<svg xmlns="http://www.w3.org/2000/svg">
<metadata>
This is a custom SVG webfont generated by Font Squirrel.
Copyright   : Generated in 2011 by FontLab Studio Copyright info pending
</metadata>
<defs>
<font id="webfontRtNZW9gp" horiz-adv-x="1638" >
<font-face units-per-em="2048" ascent="1638" descent="-410" />
<missing-glyph horiz-adv-x="737" />
<glyph unicode="&#xfb00;" horiz-adv-x="1511" d="M1614 1538l-66 -264q-92 16 -188 16q-121 0 -121 -135v-37h240v-250h-240v-1319h-342v1319h-379v-1319h-342v1319h-164v250h166v37q0 426 451 426q227 0 422 -63q102 63 299 63q135 0 264 -43zM903 1268q-113 23 -264 22q-121 0 -121 -135v-37h379v58q0 49 6 92z" />
<glyph unicode="&#xfb01;" horiz-adv-x="1390" d="M1251 1333q-160 -53 -354 -53q-37 0 -116 5t-142.5 5t-92 -27.5t-28.5 -105.5v-39h719v-1116h-342v866h-379v-1319h-340v1319h-164v250h164v39q0 225 131 327.5t336 102.5q49 0 128 -6t116 -6q174 0 311 16z" />
<glyph unicode="&#xfb02;" horiz-adv-x="1390" d="M1237 0h-342v1280q-37 0 -115 5t-141.5 5t-92 -27.5t-28.5 -105.5v-39h238v-250h-240v-1319h-340v1319h-164v250h164v39q0 225 131 327.5t336 102.5q49 0 128 -6t116 -6q145 -2 350 22v-1597z" />
<glyph unicode="&#xfb03;" horiz-adv-x="2111" d="M1972 1333q-160 -53 -352 -53q-41 0 -121 5t-139 5q-63 0 -92 -27.5t-29 -105.5v-39h721v-1116h-342v866h-379v-1319h-342v1319h-379v-1319h-342v1319h-164v250h166v37q0 426 451 426q250 0 436 -70q119 76 299 76q49 0 128 -6t118 -6q172 0 309 16zM907 1266 q-113 25 -268 24q-121 0 -121 -135v-37h381v39q0 66 8 109z" />
<glyph unicode="&#xfb04;" horiz-adv-x="2099" d="M1960 0h-342v1280q-37 0 -116 5t-142.5 5t-92 -27.5t-28.5 -105.5v-39h238v-250h-238v-1319h-342v1319h-379v-1319h-342v1319h-164v250h166v37q0 426 451 426q250 0 436 -70q119 76 299 76q49 0 128 -6t118 -6q145 -2 350 22v-1597zM907 1266q-113 25 -268 24 q-121 0 -121 -135v-37h381v39q0 66 8 109z" />
<glyph unicode="fk" horiz-adv-x="1978" d="M1952 233l-39 -258q-160 8 -268.5 49.5t-206.5 170.5l-201 262v-457h-342v1280q-37 0 -115 5t-141.5 5t-92 -27.5t-28.5 -105.5v-39h238v-250h-240v-1319h-340v1319h-164v250h164v39q0 225 131 327.5t336 102.5q49 0 128 -6t116 -6q150 -2 350 22v-892l311 411h367 l-408 -514l160 -182q68 -76 127.5 -119t157.5 -68z" />
<glyph unicode="fh" horiz-adv-x="2117" d="M1978 0h-340v674q0 113 -30.5 146.5t-118.5 33.5q-125 0 -252 -61v-793h-342v1280q-37 0 -115 5t-141.5 5t-92 -27.5t-28.5 -105.5v-39h238v-250h-240v-1319h-340v1319h-164v250h164v39q0 225 131 327.5t336 102.5q49 0 128 -6t116 -6q145 -2 350 22v-591 q193 145 367 145q102 0 172.5 -23.5t109.5 -59.5t60.5 -99.5t26.5 -119.5t5 -147v-702z" />
<glyph unicode="fj" horiz-adv-x="1390" d="M1251 1333q-160 -53 -354 -53q-37 0 -116 5t-142.5 5t-92 -27.5t-28.5 -105.5v-39h721v-1114q0 -141 -36 -234.5t-104.5 -139.5t-144 -63.5t-182.5 -17.5q-68 0 -221 37l63 273q96 -20 162 -21q68 0 94.5 33t26.5 131v866h-381v-1319h-340v1319h-164v250h164v39 q0 225 131 327.5t336 102.5q49 0 128 -6t116 -6q174 0 311 16z" />
<glyph unicode=" "  horiz-adv-x="737" />
<glyph unicode="&#x09;" horiz-adv-x="737" />
<glyph unicode="&#xa0;" horiz-adv-x="737" />
<glyph unicode="!" horiz-adv-x="663" d="M504 846l-21 -395h-301l-20 395v602h342v-602zM504 0h-344v301h344v-301z" />
<glyph unicode="&#x22;" horiz-adv-x="976" d="M899 1544l-22 -489h-304l-22 489h348zM426 1546l-23 -491h-303l-22 491h348z" />
<glyph unicode="#" horiz-adv-x="1351" d="M1311 291h-226l-18 -291h-326l19 291h-219l-19 -291h-325l18 291h-174v270h192l21 285h-213v272h235l21 330h326l-23 -330h219l21 330h325l-22 -330h168v-272h-187l-22 -285h209v-270zM799 846h-219l-23 -285h221z" />
<glyph unicode="$" horiz-adv-x="1222" d="M1145 418q0 -166 -102.5 -269.5t-270.5 -144.5l6 -209h-305l6 185q-250 8 -422 100l99 250q188 -66 383 -66q254 0 254 142q0 53 -51.5 96t-127 70.5t-166 69.5t-166 89t-127 135t-51.5 203q0 160 104.5 254t268.5 125l-6 190h305l-4 -186q133 -16 305 -90l-100 -242 q-207 59 -342 60q-190 0 -191 -109q0 -45 52.5 -84t130.5 -68.5t168 -73.5t167.5 -95.5t130 -137t52.5 -194.5z" />
<glyph unicode="%" horiz-adv-x="1763" d="M1702 350q0 -174 -114.5 -273.5t-282.5 -99.5q-166 0 -274.5 87.5t-108.5 271.5q0 174 113.5 277.5t275.5 103.5q168 0 279.5 -88.5t111.5 -278.5zM1556 1163l-1191 -1087l-179 184l1192 1088zM842 1096q0 -176 -115 -275.5t-283 -99.5q-166 0 -274.5 88t-108.5 272 q0 174 114 277.5t276 103.5q168 0 279.5 -88t111.5 -278zM1417 350q0 133 -106 133q-104 0 -105 -147q0 -72 24.5 -98.5t74 -26.5t81 33.5t31.5 105.5zM557 1096q0 133 -106 133q-104 0 -105 -148q0 -72 24.5 -99.5t74 -27.5t81 35t31.5 107z" />
<glyph unicode="&#x26;" horiz-adv-x="1484" d="M1468 248l-24 -262q-281 12 -522 139q-156 -145 -359 -145q-485 0 -485 397q0 197 258 391q-63 168 -64 336q0 139 96.5 250.5t301.5 111.5q371 0 370 -317q0 -63 -27.5 -124.5t-83 -121t-104.5 -102.5t-125 -103q127 -176 335 -294.5t433 -155.5zM758 1143 q0 33 -28 53.5t-62 20.5q-39 0 -72 -30t-33 -71q0 -92 25 -176q170 119 170 203zM686 281q-129 109 -213 231q-63 -70 -63 -121q0 -139 155 -139q58 0 121 29z" />
<glyph unicode="'" horiz-adv-x="544" d="M446 1546l-22 -491h-303l-23 491h348z" />
<glyph unicode="(" horiz-adv-x="823" d="M823 1356q-16 -10 -42.5 -30.5t-95.5 -93.5t-122 -155t-96 -216t-43 -277q0 -397 283 -717q63 -70 112 -109l-213 -219q-20 14 -56 42t-126 125t-159.5 209t-126 292t-56.5 375q0 143 28.5 275t75.5 229.5t103.5 181.5t113 139t103.5 95t76 59l28 16z" />
<glyph unicode=")" horiz-adv-x="823" d="M741 582q0 -141 -28.5 -275.5t-74.5 -236t-102.5 -190.5t-112.5 -149.5t-102.5 -105.5t-74.5 -65l-29 -21l-213 219q16 12 43 36t94.5 105t119.5 170t95 229t43 286q0 387 -280 671q-66 66 -119 101l213 221l30 -18q19 -12 74.5 -56.5t104.5 -95.5t110.5 -138 t105.5 -182.5t73.5 -228.5t29.5 -276z" />
<glyph unicode="*" horiz-adv-x="870" d="M834 1274l-199 -72l-78 137l166 136zM573 1559l-30 -203h-174l-27 203h231zM840 1102l-113 -201l-170 139l80 142zM358 1343l-79 -141l-203 80l112 201zM567 825h-231l31 203h174zM352 1047l-166 -136l-110 201l198 72z" />
<glyph unicode="+" horiz-adv-x="1075" d="M997 590h-319v-320h-281v320h-319v272h319v318h281v-318h319v-272z" />
<glyph unicode="," horiz-adv-x="737" d="M559 113q0 -219 -141 -387h-307q72 131 71 301v307h377v-221z" />
<glyph unicode="-" horiz-adv-x="765" d="M686 451h-610v272h610v-272z" />
<glyph unicode="." horiz-adv-x="737" d="M565 0h-379v332h379v-332z" />
<glyph unicode="/" horiz-adv-x="1122" d="M1202 1436l-1028 -1831l-252 139l1026 1831z" />
<glyph unicode="0" horiz-adv-x="1396" d="M1309 580q0 -303 -162 -450.5t-461 -147.5q-307 0 -452.5 136t-145.5 421q0 283 159 438.5t474 155.5q305 0 446.5 -147.5t141.5 -405.5zM963 569q0 283 -254 283q-274 0 -275 -307q0 -283 262 -283q123 0 195 75.5t72 231.5z" />
<glyph unicode="1" horiz-adv-x="833" d="M670 0h-342v850h-291v268l633 19v-1137z" />
<glyph unicode="2" horiz-adv-x="1159" d="M1057 0h-965v281q6 4 189.5 119.5t284 202.5t100.5 149q0 121 -207 120q-145 0 -271 -47l-77 246q53 29 160.5 54.5t205.5 25.5q152 0 260.5 -34t162.5 -94t76.5 -123.5t22.5 -141.5q0 -88 -50 -169t-132 -142.5t-153.5 -101.5t-147.5 -73h541v-272z" />
<glyph unicode="3" horiz-adv-x="1056" d="M969 88q0 -444 -566 -444q-117 0 -215 10t-137 22l-39 11l62 274q121 -31 309 -31q125 0 182.5 38t57.5 124q0 115 -70 154t-293 53v231q178 10 238.5 46t60.5 139q0 61 -40 99t-122 38l-264 -37l-92 238q166 82 373 82q205 0 343 -95.5t138 -277.5q0 -72 -16.5 -125 t-50 -91t-55 -55.5t-64.5 -44.5q260 -104 260 -358z" />
<glyph unicode="4" horiz-adv-x="1269" d="M1192 61h-193v-395h-340v395h-643v220l471 835h512v-784h193v-271zM659 332v532l-297 -532h297z" />
<glyph unicode="5" horiz-adv-x="1148" d="M1085 131q0 -227 -160.5 -357t-412.5 -130q-145 0 -215 8t-203 45l82 272q106 -25 156.5 -31t177.5 -6q111 0 172 49.5t61 129.5q0 104 -49 149t-153 45q-227 0 -396 -16v825h863v-270h-533v-277q37 2 96 2q240 0 377 -113.5t137 -324.5z" />
<glyph unicode="6" horiz-adv-x="1298" d="M1210 489q0 -252 -155.5 -384t-390.5 -132q-289 0 -432.5 151.5t-143.5 504.5q0 418 194.5 625.5t530.5 207.5q88 0 132 -7t136 -34l-75 -266q-80 20 -197 21q-262 0 -342 -246q131 23 217 22q526 0 526 -463zM868 469q0 119 -52 170t-154 51q-94 0 -232 -20v-54 q0 -211 54.5 -289.5t193.5 -78.5q84 0 137 60.5t53 160.5z" />
<glyph unicode="7" horiz-adv-x="1067" d="M1010 891l-645 -1282l-297 129l544 1093h-579v283h977v-223z" />
<glyph unicode="8" horiz-adv-x="1255" d="M1178 391q0 -209 -153 -310t-404 -101q-244 0 -393.5 92t-149.5 293q0 127 68.5 216t183.5 162l24 15q-18 12 -26 18q-199 147 -199 314q0 193 140.5 282.5t371.5 89.5q223 0 359.5 -96t136.5 -254q0 -178 -226 -340l-26 -16q18 -10 26 -17q121 -76 194 -159t73 -189z M788 1067q0 25 -4 42t-16 39.5t-45 35t-82 12.5q-59 0 -97 -12.5t-53.5 -34t-19.5 -38.5t-4 -42q0 -72 102 -145l49 -35q33 20 54 35q116 75 116 143zM836 418q0 74 -154 164l-66 41l-65 -45q-135 -100 -135 -177q0 -152 217 -151q203 0 203 168z" />
<glyph unicode="9" horiz-adv-x="1273" d="M1186 485q0 -207 -38 -356t-101.5 -238.5t-166 -141.5t-209 -69.5t-251.5 -17.5q-139 0 -277 45l76 266q135 -29 215 -28q180 0 266 62.5t113 185.5q-102 -27 -229 -27q-244 0 -370 132t-126 345q0 231 153.5 367.5t395.5 136.5q264 0 406.5 -177.5t142.5 -484.5z M834 510q0 352 -211 352q-88 0 -138.5 -51t-50.5 -147q0 -141 46 -191.5t138 -50.5q117 0 216 29v59z" />
<glyph unicode=":" horiz-adv-x="737" d="M553 786h-379v332h379v-332zM553 0h-379v332h379v-332z" />
<glyph unicode=";" horiz-adv-x="737" d="M561 786h-379v332h379v-332zM559 113q0 -219 -141 -387h-307q72 131 71 301v307h377v-221z" />
<glyph unicode="&#x3c;" horiz-adv-x="1024" d="M946 260l-868 330v268l868 330v-285l-543 -180l543 -178v-285z" />
<glyph unicode="=" horiz-adv-x="1114" d="M995 797h-876v243h876v-243zM995 408h-876v243h876v-243z" />
<glyph unicode="&#x3e;" horiz-adv-x="1024" d="M946 590l-868 -330v285l543 180l-543 178v285l868 -330v-268z" />
<glyph unicode="?" horiz-adv-x="849" d="M772 1022q0 -88 -51 -168t-111.5 -129t-112 -100.5t-51.5 -87.5q0 -66 19 -113l-275 -45q-41 90 -40 182q0 86 41.5 165t91 124t91.5 90t42 72q0 49 -17.5 75.5t-89 51t-211.5 35.5l62 280q137 -10 238.5 -32.5t190.5 -68.5t136 -130t47 -201zM526 0h-342v301h342v-301z " />
<glyph unicode="@" horiz-adv-x="1634" d="M1575 854q0 -262 -143.5 -416.5t-372.5 -154.5q-90 0 -147.5 32.5t-65.5 77.5q-27 -41 -78 -72.5t-94 -31.5q-123 0 -186.5 63.5t-63.5 227.5q0 180 117.5 304t314.5 124q154 0 297 -54l-41 -346q-12 -74 43 -73q45 0 93 89t48 234q0 195 -87 281t-261 86 q-127 0 -237.5 -38t-201.5 -115t-143.5 -209t-52.5 -306q0 -453 463 -453q123 0 350 27l31 -227q-207 -55 -399 -56q-375 0 -551 161t-176 540q0 195 49 351.5t134 261t205 175t255 101t291 30.5q289 0 449.5 -152.5t160.5 -461.5zM872 813h-10q-61 0 -104 -56.5t-43 -150.5 q0 -82 43 -82q25 0 37 2t23 8.5t18 8.5z" />
<glyph unicode="A" horiz-adv-x="1538" d="M1516 0h-361l-137 426h-490l-157 -426h-348l557 1448h448zM936 678l-78 283l-67 272l-80 -272l-90 -283h315z" />
<glyph unicode="B" horiz-adv-x="1388" d="M1311 446q0 -446 -582 -446h-569v1448h508q539 0 538 -399q0 -84 -42 -152t-103 -106v-5q94 -33 172 -120t78 -220zM852 1028q0 82 -48 118t-188 36h-106v-320h125q133 0 175 43t42 123zM956 440q0 96 -65.5 140.5t-228.5 44.5h-152v-353h176q152 0 211 39t59 129z" />
<glyph unicode="C" horiz-adv-x="1404" d="M1337 49q-188 -70 -446 -69q-395 0 -599 188t-204 547q0 750 795 749q264 0 450 -84l-92 -252q-174 47 -354 50h-14q-193 0 -310 -109q-121 -113 -121 -334q0 -223 131.5 -344t354.5 -121q178 0 336 41z" />
<glyph unicode="D" horiz-adv-x="1611" d="M1524 729q0 -369 -216 -549t-618 -180h-530v1448h518q393 0 619.5 -177t226.5 -542zM1176 709q0 236 -123 351.5t-381 115.5h-166v-904h207q244 0 353.5 109t109.5 328z" />
<glyph unicode="E" horiz-adv-x="1255" d="M1157 0h-997v1448h950v-272h-602v-322h557v-254h-557v-328h649v-272z" />
<glyph unicode="F" horiz-adv-x="1249" d="M1171 1176h-663v-359h618v-252h-618v-565h-348v1448h1011v-272z" />
<glyph unicode="G" horiz-adv-x="1503" d="M1360 63q-217 -84 -477 -83q-373 0 -584 184t-211 551q0 387 204 568t607 181q229 0 434 -84l-92 -252q-195 49 -348 50q-207 0 -329 -107.5t-122 -335.5q0 -229 133.5 -347t344.5 -118q16 0 46.5 1t45.5 1v336h348v-545z" />
<glyph unicode="H" horiz-adv-x="1630" d="M1470 0h-348v596h-614v-596h-348v1446h348v-586h614v586h348v-1446z" />
<glyph unicode="I" horiz-adv-x="667" d="M508 0h-348v1446h348v-1446z" />
<glyph unicode="J" horiz-adv-x="667" d="M510 313q0 -100 -8 -172.5t-38 -159.5t-85 -152t-153.5 -127t-237.5 -108l-125 250q182 100 239.5 191.5t57.5 273.5v1137h350v-1133z" />
<glyph unicode="K" horiz-adv-x="1497" d="M1481 0h-445l-528 696v-696h-348v1448h348v-621l496 621h444l-586 -678z" />
<glyph unicode="L" horiz-adv-x="1173" d="M1137 0h-977v1446h348v-1172h629v-274z" />
<glyph unicode="M" horiz-adv-x="2013" d="M1853 0h-348v539l11 319l-345 -858h-389l-297 883l23 -344v-539h-348v1448h424l403 -1137l463 1137h403v-1448z" />
<glyph unicode="N" horiz-adv-x="1630" d="M1470 0h-415l-555 969l8 -193v-776h-348v1448h403l570 -993l-11 161v832h348v-1448z" />
<glyph unicode="O" horiz-adv-x="1726" d="M1638 723q0 -362 -203.5 -555t-588.5 -193q-375 0 -566.5 198t-191.5 554q0 362 210 552.5t587 190.5q383 0 568 -197.5t185 -549.5zM1284 725q0 215 -103.5 343t-314.5 128q-219 0 -322.5 -127t-103.5 -340t101.5 -346t310.5 -133q227 0 329.5 128t102.5 347z" />
<glyph unicode="P" horiz-adv-x="1318" d="M1282 934q0 -223 -177 -373.5t-489 -150.5h-106v-410h-350v1448h563q250 0 404.5 -138t154.5 -376zM924 926q0 250 -246 250h-168v-498h119q154 0 224.5 68.5t70.5 179.5z" />
<glyph unicode="Q" horiz-adv-x="1726" d="M1638 723q0 -362 -203.5 -555t-588.5 -193q-375 0 -566.5 198t-191.5 554q0 362 210 552.5t587 190.5q383 0 568 -197.5t185 -549.5zM1616 -389h-221q-74 0 -132.5 10t-137 31.5t-119.5 30.5q-51 10 -177 10v239q109 0 170.5 -6t152.5 -27.5t140 -29.5q55 -10 103 -10 h221v-248zM1284 725q0 215 -103.5 343t-314.5 128q-219 0 -322.5 -127t-103.5 -340t101.5 -346t310.5 -133q227 0 329.5 128t102.5 347z" />
<glyph unicode="R" horiz-adv-x="1540" d="M1524 240l-78 -267q-193 10 -322 94.5t-266 243.5l-164 191q-25 -2 -78 -2h-106v-500h-350v1448h563q256 0 407.5 -120t151.5 -353q0 -258 -233 -391l147 -160q121 -131 328 -184zM924 967q0 111 -54.5 159t-191.5 48h-168v-431h119q295 1 295 224z" />
<glyph unicode="S" horiz-adv-x="1222" d="M1145 418q0 -115 -51.5 -202t-138.5 -138t-191.5 -76t-220.5 -25q-299 0 -486 103l99 250q188 -66 383 -66q254 0 254 142q0 53 -51.5 96t-127 70.5t-166 69.5t-166 89t-127 135t-51.5 203q0 133 79 224t192.5 129t249.5 38q106 0 197 -16.5t135 -32.5t120 -49l-100 -242 q-207 59 -342 60q-190 0 -191 -109q0 -45 52.5 -84t130.5 -68.5t168 -73.5t167.5 -95.5t130 -137t52.5 -194.5z" />
<glyph unicode="T" horiz-adv-x="1290" d="M1274 1176h-455v-1176h-348v1176h-455v272h1258v-272z" />
<glyph unicode="U" horiz-adv-x="1636" d="M1487 598q0 -147 -39 -259t-101.5 -180.5t-150.5 -111.5t-178 -58.5t-195 -15.5q-674 0 -673 576v899h352v-887q0 -162 75.5 -229.5t245.5 -67.5t246 76t76 264v844h342v-850z" />
<glyph unicode="V" horiz-adv-x="1517" d="M1511 1448l-563 -1448h-448l-494 1448h367l291 -944l67 -258l80 258l346 944h354z" />
<glyph unicode="W" horiz-adv-x="2172" d="M2144 1448l-397 -1448h-438l-181 520l-69 221l-72 -217l-199 -524h-448l-311 1448h338l170 -909l55 -338l117 342l219 553l-123 352h346l287 -916l92 -319l69 340l213 895h332z" />
<glyph unicode="X" horiz-adv-x="1423" d="M1407 0h-401l-289 487l-311 -487h-390l519 741l-461 707h399l262 -444l283 444h389l-487 -700z" />
<glyph unicode="Y" horiz-adv-x="1452" d="M1452 1448l-569 -971v-477h-348v465l-535 983h401l320 -690l340 690h391z" />
<glyph unicode="Z" horiz-adv-x="1251" d="M1194 0h-1137v233l666 926h-612v289h1040v-221l-674 -938h717v-289z" />
<glyph unicode="[" horiz-adv-x="743" d="M676 -451h-547v1995h547v-282h-205v-1430h205v-283z" />
<glyph unicode="\" horiz-adv-x="1312" d="M1296 -256l-252 -139l-1028 1831l252 139z" />
<glyph unicode="]" horiz-adv-x="743" d="M676 -451h-547v283h205v1430h-205v282h547v-1995z" />
<glyph unicode="^" horiz-adv-x="1142" d="M1102 602h-324l-196 586l-217 -586h-318l352 846h373z" />
<glyph unicode="_" horiz-adv-x="1056" d="M1057 -408h-1057v273h1057v-273z" />
<glyph unicode="`" horiz-adv-x="1196" d="M963 1434l-113 -238l-584 248l129 278z" />
<glyph unicode="a" horiz-adv-x="1284" d="M1186 250l-12 -258q-42 -2 -79 -2q-273 0 -311 119q-162 -125 -321 -125q-186 0 -285.5 83t-99.5 248q0 330 479 330h195v96q0 70 -45 92.5t-158 22.5q-125 0 -334 -49l-68 248q240 90 453 90q88 0 143.5 -4t127 -22.5t113.5 -52.5t71.5 -99.5t29.5 -159.5v-510 q0 -27 25 -36t76 -11zM752 285v161l-168 -4q-63 -2 -101.5 -10t-51.5 -27.5t-16 -32t-3 -38.5q0 -84 92 -84q123 0 248 35z" />
<glyph unicode="b" horiz-adv-x="1277" d="M1243 618q0 -174 -51 -301t-142.5 -196.5t-198 -101t-235.5 -31.5q-272 0 -477 63v1495h340v-434q137 39 228 39q264 0 400 -124t136 -409zM895 616q0 158 -56.5 219.5t-193.5 61.5q-37 0 -166 -29v-598q98 -12 144 -12q127 0 199.5 99t72.5 259z" />
<glyph unicode="c" horiz-adv-x="1099" d="M1047 1069l-89 -248q-123 47 -253 47q-276 0 -277 -303q0 -170 64.5 -240.5t257.5 -70.5q51 0 235 25l47 -261q-168 -37 -301 -36q-352 0 -502.5 136t-150.5 451q0 262 165 420t447 158q212 0 357 -78z" />
<glyph unicode="d" horiz-adv-x="1314" d="M1176 0h-342v80q-39 -31 -59.5 -44t-75 -31.5t-119.5 -18.5q-94 0 -175 25.5t-159 87t-123 183t-45 296.5q0 279 172 434t436 155q43 0 148 -12v389h342v-1544zM834 303v580q-82 14 -142 14q-274 0 -274 -326q0 -303 229 -303q99 0 187 35z" />
<glyph unicode="e" horiz-adv-x="1220" d="M1143 455h-725q0 -63 22.5 -104.5t69.5 -60t96 -24.5t127 -6q168 0 320 27l51 -260q-154 -45 -420 -45q-301 0 -453.5 122.5t-152.5 438.5q0 324 151.5 463t425.5 139q487 0 488 -567v-123zM793 688q2 94 -48.5 145.5t-113.5 51.5q-76 0 -137.5 -48.5t-65.5 -148.5h365z " />
<glyph unicode="f" horiz-adv-x="790" d="M893 1538l-66 -264q-92 16 -188 16q-121 0 -121 -135v-37h240v-250h-240v-1319h-342v1319h-164v250h164v58q0 100 25.5 174.5t65.5 117.5t101.5 70t122 35t138.5 8q131 0 264 -43z" />
<glyph unicode="g" horiz-adv-x="1196" d="M1212 848h-170q12 -68 13 -121q0 -166 -135.5 -262t-331.5 -96q-94 0 -199 16l-2 -82h285q106 0 169.5 -4t132 -21.5t103.5 -49t57.5 -90t22.5 -144.5q0 -188 -149.5 -322.5t-429.5 -134.5q-129 0 -216.5 12.5t-159 44t-105.5 94t-34 156.5q0 57 48.5 126t101.5 104 q-80 47 -80 133q2 61 38 123.5t75 101.5q-57 35 -94 115t-37 172q0 174 119.5 285.5t345.5 111.5q164 0 274 -55l358 26v-239zM752 731q0 145 -162 146q-92 0 -133 -37t-41 -117q0 -133 170 -133q80 0 123 37.5t43 103.5zM840 -29q0 53 -31 66.5t-109 13.5h-321 q-45 -104 -45 -141q0 -29 19.5 -46.5t63.5 -24.5t73.5 -8t93.5 -1h28q96 0 162 46t66 95z" />
<glyph unicode="h" horiz-adv-x="1359" d="M1221 0h-340v674q0 113 -31 146.5t-119 33.5q-123 0 -250 -61v-793h-342v1544h342v-538q193 145 365 145q102 0 173 -23.5t109.5 -59.5t60 -99.5t27 -119.5t5.5 -147v-702z" />
<glyph unicode="i" horiz-adv-x="620" d="M543 1466l-236 -237l-235 237l235 236zM481 0h-340v1118h340v-1118z" />
<glyph unicode="j" horiz-adv-x="620" d="M547 1466l-236 -237l-235 237l235 236zM481 4q0 -139 -35.5 -233.5t-103.5 -140.5t-140.5 -63.5t-172.5 -17.5q-133 0 -262 48l63 264q125 -23 188 -23q70 0 96.5 34t26.5 134v1112h340v-1114z" />
<glyph unicode="k" horiz-adv-x="1220" d="M1194 233l-39 -258q-162 8 -269.5 49.5t-205.5 170.5l-199 264v-459h-342v1544h342v-842l310 414h366l-407 -514l159 -182q68 -76 127.5 -119t157.5 -68z" />
<glyph unicode="l" horiz-adv-x="620" d="M481 0h-342v1544h342v-1544z" />
<glyph unicode="m" horiz-adv-x="2039" d="M1901 0h-342v674q0 102 -31 141t-111 39q-109 0 -231 -63q4 -29 4 -86v-705h-340v674q0 111 -28.5 143.5t-110.5 32.5q-121 0 -230 -57v-793h-342v1118h342v-112q63 47 169 96t194 49q240 0 313 -170q76 68 180.5 119t204.5 51q76 0 134.5 -16.5t96 -38t63.5 -64.5 t38 -72.5t18 -87t7.5 -84t1.5 -86.5v-702z" />
<glyph unicode="n" horiz-adv-x="1359" d="M1221 0h-340v674q0 113 -31 146.5t-119 33.5q-123 0 -250 -61v-793h-342v1118h342v-112q193 145 365 145q102 0 173 -23.5t109.5 -59.5t60 -99.5t27 -119.5t5.5 -147v-702z" />
<glyph unicode="o" horiz-adv-x="1316" d="M1239 559q0 -279 -164 -431.5t-430 -152.5q-272 0 -419.5 154t-147.5 420q0 276 158.5 437t427.5 161q291 0 433 -153.5t142 -434.5zM891 559q0 152 -51.5 235t-182.5 83q-236 0 -235 -320q0 -154 54 -231.5t185.5 -77.5t180.5 77.5t49 233.5z" />
<glyph unicode="p" horiz-adv-x="1320" d="M1243 610q0 -168 -51 -294t-141 -195.5t-198 -103t-237 -33.5q-55 0 -137 4v-439h-340v1569h340v-80q43 37 122 73t149 36q242 0 367.5 -126t125.5 -411zM899 600q0 145 -59.5 202.5t-192.5 57.5q-76 0 -168 -31v-577q66 -8 146 -8q129 0 201.5 98t72.5 258z" />
<glyph unicode="q" horiz-adv-x="1314" d="M1176 -451h-342v492q-94 -57 -216 -57q-541 0 -540 589q0 276 170 423t438 147q170 0 267.5 -11.5t222.5 -44.5v-1538zM834 295v567q-57 10 -142 10q-274 0 -274 -305q0 -299 229 -299q89 0 187 27z" />
<glyph unicode="r" horiz-adv-x="903" d="M924 1122l-45 -280q-66 12 -150 12q-72 0 -142.5 -28.5t-105.5 -67.5v-758h-342v1118h342v-149q133 172 289 172q93 -1 154 -19z" />
<glyph unicode="s" horiz-adv-x="1048" d="M977 342q0 -84 -34 -150.5t-86 -105.5t-121.5 -63.5t-132 -33.5t-124.5 -9q-258 0 -407 43l37 258q188 -27 337 -27q193 0 193 74q0 33 -58.5 55.5t-140.5 46t-164.5 59t-141 113.5t-58.5 191q0 172 136 261t335 89q207 0 377 -60l-58 -247q-162 37 -309 36 q-139 0 -139 -63q0 -29 41 -53.5t103.5 -41t135 -46t135 -66.5t103.5 -104.5t41 -155.5z" />
<glyph unicode="t" horiz-adv-x="954" d="M918 16q-137 -39 -271 -39h-16q-61 0 -93 1.5t-87.5 8.5t-87 20t-71.5 40t-60.5 66t-36 98t-15.5 137v518h-164v252h164v230h340v-230h346v-252h-346v-516q0 -57 24.5 -72.5t98.5 -15.5q33 0 93 6l104 11l45 6z" />
<glyph unicode="u" horiz-adv-x="1359" d="M1221 0h-342v115q-193 -145 -365 -146q-102 0 -173 23.5t-109.5 59.5t-60 99.5t-27 120t-5.5 146.5v700h340v-672q0 -113 31 -146.5t119 -33.5q123 0 250 62v790h342v-1118z" />
<glyph unicode="v" horiz-adv-x="1275" d="M1260 1118l-435 -1118h-405l-404 1118h367l188 -606l58 -223l63 223l209 606h359z" />
<glyph unicode="w" horiz-adv-x="1851" d="M1835 1118l-332 -1118h-420l-131 569l-37 187l-43 -187l-145 -569h-424l-287 1118h359l112 -649l31 -197l39 201l166 645h403l144 -649l30 -197l39 197l146 649h350z" />
<glyph unicode="x" horiz-adv-x="1249" d="M1233 0h-408l-202 365l-205 -365h-402l414 571l-383 547h393l183 -340l188 340h387l-383 -547z" />
<glyph unicode="y" horiz-adv-x="1261" d="M1245 1118l-547 -1569h-325l151 451h-123l-385 1118h367l192 -663l48 -183l55 183l223 663h344z" />
<glyph unicode="z" horiz-adv-x="1089" d="M1012 0h-934v223l524 621h-491v274h893v-217l-512 -631h520v-270z" />
<glyph unicode="{" horiz-adv-x="772" d="M748 -457h-121q-240 0 -360 92.5t-97 298.5l41 388q4 41 -31 73.5t-125 32.5v260q88 0 124 34t32 73l-41 387q-23 209 97 300t360 91h121v-285h-103q-70 0 -101.5 -41t-25.5 -94l43 -354q20 -166 -121 -238v-4q141 -72 121 -240l-43 -352q-6 -55 23.5 -95t103.5 -40h103 v-287z" />
<glyph unicode="|" horiz-adv-x="600" d="M471 -451h-342v1995h342v-1995z" />
<glyph unicode="}" horiz-adv-x="772" d="M758 428q-90 0 -125 -33t-31 -73l41 -388q23 -207 -97 -299t-360 -92h-120v287h102q74 0 103.5 40t23.5 95l-43 352q-20 168 121 240v4q-141 72 -121 238l43 354q6 53 -25.5 94t-101.5 41h-102v285h120q240 0 360 -91t97 -300l-41 -387q-4 -39 32 -73t124 -34v-260z" />
<glyph unicode="~" horiz-adv-x="1224" d="M1128 705q-47 -82 -149 -147.5t-188 -65.5q-100 0 -216 61t-159 61q-80 0 -154 -67l-158 209q162 199 322 198q100 0 207.5 -62.5t159.5 -62.5q2 0 21.5 -1t29.5 0t31.5 7.5t45 21.5t52.5 40z" />
<glyph unicode="&#xa1;" horiz-adv-x="663" d="M504 817h-344v301h344v-301zM502 -330h-342v602l20 396h301l21 -396v-602z" />
<glyph unicode="&#xa2;" horiz-adv-x="1079" d="M1026 1276l-88 -248q-74 29 -118 38t-126 9q-266 0 -266 -303q0 -172 60.5 -241.5t250.5 -69.5q41 0 226 24l47 -260q-141 -31 -217 -35l6 -190h-303l4 205q-227 37 -325.5 172t-98.5 399q0 219 110.5 366.5t313.5 192.5l-6 207h305l-6 -194q120 -13 231 -72z" />
<glyph unicode="&#xa3;" horiz-adv-x="1112" d="M1055 0h-938v270q102 55 127 191h-166v270h180q-4 168 -4 281q0 119 39 202.5t95 129t152.5 70t176.5 30.5t198 6l13 -279q-211 -18 -240 -26q-68 -20 -80 -86q-4 -23 -4 -53q0 -150 -6 -275h303v-270h-338q-29 -117 -80 -191h572v-270z" />
<glyph unicode="&#xa4;" horiz-adv-x="1462" d="M1360 49q-188 -70 -426 -69q-610 0 -744 454h-190v213h158q-2 23 -2 68q0 55 2 82h-158v209h190q125 459 736 458q244 0 430 -84l-92 -252q-113 31 -167.5 39.5t-166.5 10.5q-256 4 -359 -172h459v-209h-518q-2 -18 -2 -62q0 -31 4 -88h516v-213h-438q115 -164 379 -164 q158 0 315 41z" />
<glyph unicode="&#xa5;" horiz-adv-x="1484" d="M1468 1448l-426 -725h330v-272h-473v-181h473v-270h-1259v270h438v181h-438v272h297l-394 725h402l319 -690l340 690h391z" />
<glyph unicode="&#xa6;" horiz-adv-x="600" d="M471 803h-342v741h342v-741zM471 -451h-342v740h342v-740z" />
<glyph unicode="&#xa7;" horiz-adv-x="952" d="M911 373q0 -170 -182 -301l17 -39l16.5 -38t10.5 -34.5t3 -40.5q-6 -106 -58 -179t-145.5 -108.5t-184.5 -51t-212 -19.5l-22 243q137 14 207.5 39t70.5 78q0 66 -37 123l-291 447q-63 98 -63 206q0 123 48 194t128 122q-37 88 -37 135q0 150 110.5 235.5t366.5 104.5 l64 -242q-113 -20 -156 -45.5t-43 -64.5q0 -37 19 -66l303 -463q67 -102 67 -235zM604 348q0 72 -29 117l-219 346q-31 -23 -30 -70q0 -6 -1 -19t-1 -19.5t4 -19.5t14 -28l231 -358q31 22 31 51z" />
<glyph unicode="&#xa8;" horiz-adv-x="884" d="M965 1466l-236 -237l-235 237l235 236zM412 1466l-236 -237l-235 237l235 236z" />
<glyph unicode="&#xa9;" horiz-adv-x="1705" d="M1577 723q0 -336 -197.5 -531.5t-543.5 -195.5q-332 0 -519.5 197.5t-187.5 533.5q0 338 204 530.5t541.5 192.5t520 -199.5t182.5 -527.5zM1354 725q0 242 -131 390.5t-367 148.5q-244 0 -375 -147.5t-131 -387.5q0 -238 128 -392.5t366 -154.5q250 0 380 149.5 t130 393.5zM1147 365q-14 -4 -49 -15.5t-48 -14.5l-41 -9q-28 -6 -56.5 -8.5t-67.5 -2.5q-186 0 -298 115t-112 289q0 184 108.5 296.5t297.5 112.5q90 0 137 -11t127 -48l-58 -164q-33 12 -56 18.5t-45.5 9.5t-32 4t-35 0t-33.5 -1q-90 0 -145.5 -51t-55.5 -158 q0 -104 59.5 -157.5t157.5 -53.5q96 0 191 27z" />
<glyph unicode="&#xaa;" horiz-adv-x="888" d="M762 965l-8 -162q-199 -10 -236 57q-92 -63 -180 -63q-229 0 -229 194q0 193 284 193h101v43q0 33 -21.5 43t-85.5 10q-78 0 -197 -29l-45 156q145 53 273 53q49 0 80.5 -2t75.5 -12t69 -30.5t43.5 -58.5t18.5 -93v-283q0 -14 57 -16zM760 580h-635v159h635v-159z M494 981v72l-91 -2q-84 0 -84 -45q0 -41 43 -41q50 0 132 16z" />
<glyph unicode="&#xab;" horiz-adv-x="1064" d="M1028 936l-186 -379l184 -367l-248 -102l-262 469l260 465zM537 936l-187 -379l185 -367l-248 -102l-262 469l260 465z" />
<glyph unicode="&#xac;" horiz-adv-x="1138" d="M1016 270h-281v320h-637v272h918v-592z" />
<glyph unicode="&#xad;" horiz-adv-x="765" d="M686 451h-610v272h610v-272z" />
<glyph unicode="&#xae;" horiz-adv-x="1705" d="M1577 723q0 -334 -198.5 -530.5t-540.5 -196.5q-334 0 -521.5 199.5t-187.5 531.5q0 338 205 530.5t538 192.5q340 0 522.5 -200.5t182.5 -526.5zM1354 725q0 242 -131 390.5t-367 148.5q-244 0 -375 -147.5t-131 -387.5q0 -238 128 -392.5t366 -154.5q250 0 380 149.5 t130 393.5zM1253 508l-43 -164q-90 6 -144 38t-108 97q-8 8 -47 51t-63 76q-10 -2 -39 -2h-31v-250h-205v764h287q143 0 227 -53t84 -193q0 -147 -129 -200q55 -74 94 -105.5t117 -58.5zM956 868q0 49 -28.5 69.5t-87.5 20.5h-62v-196h37q74 0 107.5 23.5t33.5 82.5z" />
<glyph unicode="&#xaf;" horiz-adv-x="1138" d="M899 1274h-672v325h672v-325z" />
<glyph unicode="&#xb0;" horiz-adv-x="710" d="M633 1202q0 -123 -80 -196.5t-201 -73.5q-131 0 -202.5 71.5t-71.5 198.5q0 123 81 195.5t197 72.5q121 0 199 -72.5t78 -195.5zM412 1202q0 70 -57.5 70t-57.5 -70q0 -43 14.5 -58.5t42.5 -15.5q58 0 58 74z" />
<glyph unicode="&#xb1;" horiz-adv-x="1075" d="M997 0h-919v270h319v320h-319v272h319v318h281v-318h319v-272h-319v-320h319v-270z" />
<glyph unicode="&#xb2;" horiz-adv-x="571" d="M530 823h-512v138l50 43q49 41 77 68l72 70q43 42 64.5 73.5t21.5 52.5q0 37 -10 46t-41 9q-55 0 -154 -31l-69 148q66 33 110.5 45t122.5 12q147 0 204.5 -63.5t57.5 -155.5q0 -127 -192 -283h198v-172z" />
<glyph unicode="&#xb3;" horiz-adv-x="571" d="M528 1028q0 -215 -290 -215l-215 29l32 159q82 -18 174 -18q49 0 64.5 16.5t15.5 47.5q0 10 -2 18t-7 14t-10 9.5t-15.5 6.5t-18.5 4t-24 1h-25h-31h-35v133q90 0 114 14.5t24 46.5q0 35 -46 35q-25 0 -62.5 -5t-61.5 -9l-25 -6l-45 145q111 45 205 45q252 0 252 -186 q0 -80 -76 -129q45 -20 76.5 -62.5t31.5 -93.5z" />
<glyph unicode="&#xb4;" horiz-adv-x="1196" d="M963 1444l-586 -248l-111 238l568 288z" />
<glyph unicode="&#xb5;" horiz-adv-x="1359" d="M1221 0h-342v115q-193 -145 -365 -146h-35v-420h-340v1569h340v-702q0 -92 33 -121t117 -29q123 0 250 62v790h342v-1118z" />
<glyph unicode="&#x3bc;" horiz-adv-x="1359" d="M1221 0h-342v115q-193 -145 -365 -146h-35v-420h-340v1569h340v-702q0 -92 33 -121t117 -29q123 0 250 62v790h342v-1118z" />
<glyph unicode="&#xb6;" horiz-adv-x="1308" d="M735 465h-301q-199 0 -296 131t-97 367q0 127 32.5 218t81 141t129.5 79t153.5 37t174.5 10l123 2v-985zM1149 12q0 -244 -128 -353.5t-339 -109.5q-84 0 -250 43l62 277q129 -25 192 -25q70 0 96.5 34t26.5 136v1434h340v-1436z" />
<glyph unicode="&#xb7;" horiz-adv-x="663" d="M504 649h-344v301h344v-301z" />
<glyph unicode="&#xb8;" horiz-adv-x="960" d="M711 -270q0 -59 -30 -109.5t-86 -89.5t-101 -61.5t-107 -49.5l-117 205q8 4 35 18.5t43.5 24.5t37 26.5t30.5 35t10 39.5q0 29 -25 127h265q45 -103 45 -166z" />
<glyph unicode="&#xb9;" horiz-adv-x="473" d="M371 823h-219v492h-134v168l353 10v-670z" />
<glyph unicode="&#xba;" horiz-adv-x="888" d="M793 1124q0 -162 -98.5 -251t-256.5 -89q-164 0 -252 89.5t-88 244.5q0 160 95.5 254t255.5 94q174 0 259 -89t85 -253zM760 580h-635v159h635v-159zM569 1124q0 82 -26.5 125t-98.5 43q-127 0 -127 -170q0 -84 30 -124t99.5 -40t96 40t26.5 126z" />
<glyph unicode="&#xbb;" horiz-adv-x="1064" d="M1028 557l-260 -469l-248 102l182 367l-186 379l252 86zM537 557l-261 -469l-247 102l182 367l-186 379l251 86z" />
<glyph unicode="&#xbc;" horiz-adv-x="1763" d="M1606 143h-90v-143h-197v143h-285v156l183 367h299v-371h90v-152zM1516 1180l-1192 -1088l-144 152l1192 1087zM514 823h-219v492h-133v168l352 10v-670zM1319 295v242l-123 -242h123z" />
<glyph unicode="&#xbd;" horiz-adv-x="1763" d="M1608 0h-512v137l49 43q49 41 78 69l71 69q43 42 64.5 74t21.5 52q0 37 -10 46.5t-41 9.5q-57 0 -153 -31l-70 147q113 57 231 58q264 0 265 -219q0 -127 -193 -283h199v-172zM1516 1180l-1192 -1088l-144 152l1192 1087zM514 823h-219v492h-133v168l352 10v-670z" />
<glyph unicode="&#xbe;" horiz-adv-x="1763" d="M1606 143h-90v-143h-197v143h-285v156l183 367h299v-371h90v-152zM672 1028q0 -215 -291 -215l-215 29l33 159q82 -18 174 -18q49 0 64.5 16.5t15.5 47.5q0 10 -2 18t-7.5 14t-10.5 9.5t-15 6.5t-18.5 4t-23.5 1h-26h-31h-34v133q90 0 113.5 14.5t23.5 46.5q0 35 -45 35 q-25 0 -63 -5t-62 -9l-25 -6l-45 145q111 45 205 45q252 0 252 -186q0 -80 -76 -129q45 -20 77 -62.5t32 -93.5zM1516 1180l-1192 -1088l-144 152l1192 1087zM1319 295v242l-123 -242h123z" />
<glyph unicode="&#xbf;" horiz-adv-x="849" d="M684 817h-342v301h342v-301zM770 -55l-61 -281q-137 10 -238.5 32.5t-191 69t-136.5 130.5t-47 200q0 88 51.5 168t111.5 129t111.5 100.5t51.5 88.5q0 66 -19 112l275 45q41 -90 41 -182q0 -86 -42 -165t-91 -124t-91 -90t-42 -72q0 -49 17 -75.5t89 -51t211 -34.5z" />
<glyph unicode="&#xc0;" horiz-adv-x="1538" d="M1055 1761l-56 -258l-624 111l63 299zM1516 0h-361l-137 426h-490l-157 -426h-348l557 1448h448zM936 678l-78 283l-67 272l-80 -272l-90 -283h315z" />
<glyph unicode="&#xc1;" horiz-adv-x="1538" d="M1167 1614l-626 -111l-54 258l617 152zM1516 0h-361l-137 426h-490l-157 -426h-348l563 1448h436zM936 678l-78 240l-67 241l-80 -241l-90 -240h315z" />
<glyph unicode="&#xc2;" horiz-adv-x="1540" d="M1225 1735l-131 -242l-303 137l-304 -137l-133 242l437 219zM1516 0h-361l-137 426h-490l-157 -426h-348l563 1448h436zM936 678l-78 240l-67 241l-80 -241l-90 -240h315z" />
<glyph unicode="&#xc3;" horiz-adv-x="1538" d="M1270 1698q-170 -182 -338 -182q-68 0 -155 44t-97 44h-23h-28q-8 0 -29.5 -4.5t-37 -10.5t-37 -19.5t-44.5 -31.5l-143 193q158 186 350 186q70 0 150 -44t102 -44q90 0 203 59zM1516 0h-361l-137 426h-490l-157 -426h-348l557 1448h448zM936 678l-78 283l-67 272 l-80 -272l-90 -283h315z" />
<glyph unicode="&#xc4;" horiz-adv-x="1538" d="M1315 1714l-236 -237l-235 237l235 236zM762 1714l-236 -237l-235 237l235 236zM1516 0h-361l-137 426h-490l-157 -426h-348l557 1448h448zM936 678l-78 283l-67 272l-80 -272l-90 -283h315z" />
<glyph unicode="&#xc5;" horiz-adv-x="1538" d="M1516 0h-361l-137 426h-490l-157 -426h-348l540 1407q-76 70 -76 190q0 137 92.5 208t219.5 71q72 0 136 -20.5t119.5 -86t55.5 -167.5q0 -119 -72 -187zM887 1599q0 37 -25.5 60.5t-64.5 23.5q-88 0 -88 -77q0 -88 92 -88q86 -1 86 81zM936 678l-78 283l-67 272 l-80 -272l-90 -283h315z" />
<glyph unicode="&#xc6;" horiz-adv-x="2039" d="M1942 0h-998v500h-344l-264 -500h-381l803 1448h1136v-272h-602v-322h557v-254h-557v-328h650v-272zM944 754v444l-211 -444h211z" />
<glyph unicode="&#xc7;" horiz-adv-x="1404" d="M1337 49q-188 -70 -446 -69q-395 0 -599 188t-204 547q0 750 795 749q264 0 450 -84l-92 -252q-174 47 -354 50q-203 4 -324 -109t-121 -334q0 -223 131.5 -344t354.5 -121q178 0 336 41zM1038 -270q0 -59 -29.5 -109.5t-86 -89.5t-101.5 -61.5t-106 -49.5l-117 205 q8 4 34.5 18.5t43 24.5t37 26.5t31 35t10.5 39.5q0 29 -25 127h264q45 -103 45 -166z" />
<glyph unicode="&#xc8;" horiz-adv-x="1255" d="M993 1761l-55 -258l-625 111l64 299zM1157 0h-997v1448h950v-272h-602v-322h557v-254h-557v-328h649v-272z" />
<glyph unicode="&#xc9;" horiz-adv-x="1255" d="M1006 1614l-627 -111l-53 258l616 152zM1157 0h-997v1448h950v-272h-602v-322h557v-254h-557v-328h649v-272z" />
<glyph unicode="&#xca;" horiz-adv-x="1255" d="M1071 1735l-131 -242l-303 137l-303 -137l-133 242l436 219zM1157 0h-997v1448h950v-272h-602v-322h557v-254h-557v-328h649v-272z" />
<glyph unicode="&#xcb;" horiz-adv-x="1255" d="M1153 1714l-235 -237l-236 237l236 236zM600 1714l-235 -237l-236 237l236 236zM1157 0h-997v1448h950v-272h-602v-322h557v-254h-557v-328h649v-272z" />
<glyph unicode="&#xcc;" horiz-adv-x="667" d="M584 1761l-56 -258l-624 111l63 299zM508 0h-348v1446h348v-1446z" />
<glyph unicode="&#xcd;" horiz-adv-x="667" d="M739 1614l-626 -111l-54 258l617 152zM508 0h-348v1446h348v-1446z" />
<glyph unicode="&#xce;" horiz-adv-x="667" d="M772 1735l-131 -242l-303 137l-303 -137l-133 242l436 219zM508 0h-348v1446h348v-1446z" />
<glyph unicode="&#xcf;" horiz-adv-x="667" d="M848 1714l-236 -237l-235 237l235 236zM295 1714l-236 -237l-235 237l235 236zM508 0h-348v1446h348v-1446z" />
<glyph unicode="&#xd0;" horiz-adv-x="1611" d="M1524 729q0 -369 -216 -549t-618 -180h-530v612h-152v205h152v631h518q393 0 619.5 -177t226.5 -542zM1176 709q0 236 -123 351.5t-381 115.5h-166v-359h268v-205h-268v-340h207q244 0 353.5 109t109.5 328z" />
<glyph unicode="&#xd1;" horiz-adv-x="1542" d="M1270 1698q-170 -182 -338 -182q-68 0 -155 44t-97 44h-23h-28q-8 0 -29.5 -4.5t-37 -10.5t-37 -19.5t-44.5 -31.5l-143 193q158 186 350 186q70 0 150 -44t102 -44q90 0 203 59zM1470 0h-415l-555 969l8 -193v-776h-348v1448h403l570 -993l-11 161v832h348v-1448z" />
<glyph unicode="&#xd2;" horiz-adv-x="1705" d="M1157 1761l-55 -258l-625 111l64 299zM1638 723q0 -362 -203.5 -555t-588.5 -193q-375 0 -566.5 198t-191.5 554q0 362 210 552.5t587 190.5q383 0 568 -197.5t185 -549.5zM1284 725q0 215 -103.5 343t-314.5 128q-219 0 -322.5 -127t-103.5 -340t101.5 -346t310.5 -133 q227 0 329.5 128t102.5 347z" />
<glyph unicode="&#xd3;" horiz-adv-x="1705" d="M1190 1614l-627 -111l-53 258l616 152zM1638 723q0 -362 -203.5 -555t-588.5 -193q-375 0 -566.5 198t-191.5 554q0 362 210 552.5t587 190.5q383 0 568 -197.5t185 -549.5zM1284 725q0 215 -103.5 343t-314.5 128q-219 0 -322.5 -127t-103.5 -340t101.5 -346t310.5 -133 q227 0 329.5 128t102.5 347z" />
<glyph unicode="&#xd4;" horiz-adv-x="1705" d="M1290 1735l-131 -242l-303 137l-303 -137l-133 242l436 219zM1638 723q0 -362 -203.5 -555t-588.5 -193q-375 0 -566.5 198t-191.5 554q0 362 210 552.5t587 190.5q383 0 568 -197.5t185 -549.5zM1284 725q0 215 -103.5 343t-314.5 128q-219 0 -322.5 -127t-103.5 -340 t101.5 -346t310.5 -133q227 0 329.5 128t102.5 347z" />
<glyph unicode="&#xd5;" horiz-adv-x="1705" d="M1311 1698q-170 -182 -338 -182q-68 0 -155 44t-97 44h-23h-28q-8 0 -30 -4.5t-37 -10.5t-36.5 -19.5t-44.5 -31.5l-143 193q158 186 350 186q70 0 149.5 -44t102.5 -44q90 0 203 59zM1638 723q0 -362 -203.5 -555t-588.5 -193q-375 0 -566.5 198t-191.5 554 q0 362 210 552.5t587 190.5q383 0 568 -197.5t185 -549.5zM1284 725q0 215 -103.5 343t-314.5 128q-219 0 -322.5 -127t-103.5 -340t101.5 -346t310.5 -133q227 0 329.5 128t102.5 347z" />
<glyph unicode="&#xd6;" horiz-adv-x="1705" d="M1360 1714l-236 -237l-235 237l235 236zM807 1714l-236 -237l-235 237l235 236zM1638 723q0 -362 -203.5 -555t-588.5 -193q-375 0 -566.5 198t-191.5 554q0 362 210 552.5t587 190.5q383 0 568 -197.5t185 -549.5zM1284 725q0 215 -103.5 343t-314.5 128 q-219 0 -322.5 -127t-103.5 -340t101.5 -346t310.5 -133q227 0 329.5 128t102.5 347z" />
<glyph unicode="&#xd7;" horiz-adv-x="1161" d="M997 952l-227 -227l225 -223l-192 -193l-225 223l-224 -223l-190 189l225 225l-225 225l192 193l226 -226l225 226z" />
<glyph unicode="&#xd8;" horiz-adv-x="1726" d="M1645 1405l-160 -168q154 -186 153 -514q0 -362 -203.5 -555t-588.5 -193q-287 0 -469 119l-180 -186l-144 143l176 182q-141 188 -141 494q0 362 210 552.5t587 190.5q268 0 444 -100l170 176zM1102 1135q-96 61 -236 61q-219 0 -322.5 -127t-103.5 -340q0 -135 39 -237 zM1284 725q0 145 -49 256l-635 -655q102 -76 252 -76q227 0 329.5 128t102.5 347z" />
<glyph unicode="&#xd9;" horiz-adv-x="1636" d="M1116 1761l-55 -258l-625 111l64 299zM1487 598q0 -147 -39 -259t-101.5 -180.5t-150.5 -111.5t-178 -58.5t-195 -15.5q-674 0 -673 576v899h352v-887q0 -162 75.5 -229.5t245.5 -67.5t246 76t76 264v844h342v-850z" />
<glyph unicode="&#xda;" horiz-adv-x="1636" d="M1149 1614l-627 -111l-53 258l616 152zM1487 598q0 -147 -39 -259t-101.5 -180.5t-150.5 -111.5t-178 -58.5t-195 -15.5q-674 0 -673 576v899h352v-887q0 -162 75.5 -229.5t245.5 -67.5t246 76t76 264v844h342v-850z" />
<glyph unicode="&#xdb;" horiz-adv-x="1636" d="M1260 1735l-132 -242l-303 137l-303 -137l-133 242l436 219zM1487 598q0 -147 -39 -259t-101.5 -180.5t-150.5 -111.5t-178 -58.5t-195 -15.5q-674 0 -673 576v899h352v-887q0 -162 75.5 -229.5t245.5 -67.5t246 76t76 264v844h342v-850z" />
<glyph unicode="&#xdc;" horiz-adv-x="1554" d="M1323 1714l-236 -237l-235 237l235 236zM770 1714l-235 -237l-236 237l236 236zM1487 598q0 -147 -39 -259t-101.5 -180.5t-150.5 -111.5t-178 -58.5t-195 -15.5q-674 0 -673 576v899h352v-887q0 -162 75.5 -229.5t245.5 -67.5t246 76t76 264v844h342v-850z" />
<glyph unicode="&#xdd;" horiz-adv-x="1484" d="M1108 1614l-627 -111l-53 258l616 152zM1468 1448l-569 -971v-477h-348v465l-535 983h402l319 -690l340 690h391z" />
<glyph unicode="&#xde;" horiz-adv-x="1339" d="M1282 733q0 -223 -177 -373.5t-489 -150.5h-106v-209h-350v1450h350v-203h213q250 0 404.5 -138t154.5 -376zM924 725q0 250 -246 250h-168v-498h119q154 0 224.5 68.5t70.5 179.5z" />
<glyph unicode="&#xdf;" horiz-adv-x="1413" d="M1356 338q0 -100 -43 -175t-113 -114t-142.5 -57.5t-146.5 -18.5q-258 0 -374 41l41 262q188 -29 260 -28q182 0 182 69q0 27 -33 51.5t-81 42t-104.5 50.5t-104.5 71.5t-80.5 110.5t-32.5 164q0 72 37.5 136.5t82 103t82 85t37.5 85.5q0 47 -51 70.5t-100 23.5 q-92 0 -132 -46t-40 -145v-1571h-340v1573q0 252 134 358.5t382 106.5q68 0 142.5 -14t163.5 -49t146.5 -114t57.5 -189q0 -70 -41 -135.5t-89 -105.5t-89 -87t-41 -86t44 -70.5t107.5 -59.5t127 -65t107.5 -107.5t44 -166.5z" />
<glyph unicode="&#xe0;" horiz-adv-x="1284" d="M963 1434l-113 -238l-584 248l129 278zM1186 250l-12 -258q-346 -18 -390 117q-162 -125 -321 -125q-186 0 -285.5 83t-99.5 248q0 330 479 330h195v96q0 70 -45 92.5t-158 22.5q-125 0 -334 -49l-68 248q240 90 453 90q88 0 143.5 -4t127 -22.5t113.5 -52.5t71.5 -99.5 t29.5 -159.5v-510q0 -27 25 -36t76 -11zM752 285v161l-168 -4q-63 -2 -101.5 -10t-51.5 -27.5t-16 -32t-3 -38.5q0 -84 92 -84q123 0 248 35z" />
<glyph unicode="&#xe1;" horiz-adv-x="1284" d="M1004 1444l-586 -248l-111 238l567 288zM1186 250l-12 -258q-346 -18 -390 117q-162 -125 -321 -125q-186 0 -285.5 83t-99.5 248q0 330 479 330h195v96q0 70 -45 92.5t-158 22.5q-125 0 -334 -49l-68 248q240 90 453 90q88 0 143.5 -4t127 -22.5t113.5 -52.5t71.5 -99.5 t29.5 -159.5v-510q0 -27 25 -36t76 -11zM752 285v161l-168 -4q-63 -2 -101.5 -10t-51.5 -27.5t-16 -32t-3 -38.5q0 -84 92 -84q123 0 248 35z" />
<glyph unicode="&#xe2;" horiz-adv-x="1284" d="M1073 1460l-149 -248l-303 164l-299 -164l-166 246l467 266zM1186 250l-12 -258q-346 -18 -390 117q-162 -125 -321 -125q-186 0 -285.5 83t-99.5 248q0 330 479 330h195v96q0 70 -45 92.5t-158 22.5q-125 0 -334 -49l-68 248q240 90 453 90q88 0 143.5 -4t127 -22.5 t113.5 -52.5t71.5 -99.5t29.5 -159.5v-510q0 -27 25 -36t76 -11zM752 285v161l-168 -4q-63 -2 -101.5 -10t-51.5 -27.5t-16 -32t-3 -38.5q0 -84 92 -84q123 0 248 35z" />
<glyph unicode="&#xe3;" horiz-adv-x="1284" d="M1092 1440q-170 -182 -338 -183q-68 0 -155 44.5t-97 44.5h-23h-28q-8 0 -30 -4.5t-37 -10.5t-36.5 -19.5t-44.5 -31.5l-143 193q158 186 350 186q70 0 149.5 -44t102.5 -44q90 0 203 59zM1186 250l-12 -258q-346 -18 -390 117q-162 -125 -321 -125q-186 0 -285.5 83 t-99.5 248q0 330 479 330h195v96q0 70 -45 92.5t-158 22.5q-125 0 -334 -49l-68 248q240 90 453 90q88 0 143.5 -4t127 -22.5t113.5 -52.5t71.5 -99.5t29.5 -159.5v-510q0 -27 25 -36t76 -11zM752 285v161l-168 -4q-63 -2 -101.5 -10t-51.5 -27.5t-16 -32t-3 -38.5 q0 -84 92 -84q123 0 248 35z" />
<glyph unicode="&#xe4;" horiz-adv-x="1284" d="M1124 1466l-235 -237l-236 237l236 236zM571 1466l-235 -237l-236 237l236 236zM1186 250l-12 -258q-346 -18 -390 117q-162 -125 -321 -125q-186 0 -285.5 83t-99.5 248q0 330 479 330h195v96q0 70 -45 92.5t-158 22.5q-125 0 -334 -49l-68 248q240 90 453 90 q88 0 143.5 -4t127 -22.5t113.5 -52.5t71.5 -99.5t29.5 -159.5v-510q0 -27 25 -36t76 -11zM752 285v161l-168 -4q-63 -2 -101.5 -10t-51.5 -27.5t-16 -32t-3 -38.5q0 -84 92 -84q123 0 248 35z" />
<glyph unicode="&#xe5;" horiz-adv-x="1284" d="M926 1462q0 -131 -86 -196.5t-213 -65.5t-216 59.5t-89 198.5q0 133 89 204t212 71q49 0 98 -13.5t97 -42t78 -84t30 -131.5zM1186 250l-12 -258q-346 -18 -390 117q-162 -125 -321 -125q-186 0 -285.5 83t-99.5 248q0 330 479 330h195v96q0 70 -45 92.5t-158 22.5 q-125 0 -334 -49l-68 248q240 90 453 90q88 0 143.5 -4t127 -22.5t113.5 -52.5t71.5 -99.5t29.5 -159.5v-510q0 -27 25 -36t76 -11zM686 1460q0 27 -17.5 43.5t-45.5 16.5q-61 0 -62 -56q0 -61 64 -61q61 0 61 57zM752 285v161l-168 -4q-63 -2 -101.5 -10t-51.5 -27.5 t-16 -32t-3 -38.5q0 -84 92 -84q123 0 248 35z" />
<glyph unicode="&#xe6;" horiz-adv-x="1894" d="M1817 469l-725 -16q0 -63 21.5 -103.5t69.5 -59t97 -24.5t127 -6q168 0 319 27l52 -260q-154 -45 -420 -45q-362 0 -500 170q-188 -168 -395 -168q-186 0 -285.5 83t-99.5 248q0 84 29.5 145.5t73.5 95.5t112.5 54.5t127 26.5t136.5 8q133 6 195 6v90q0 70 -45 92.5 t-158 22.5q-125 0 -334 -49l-68 248q240 90 453 90q279 0 383 -80q131 80 346 80q487 0 488 -567v-109zM1466 688q2 94 -48 145.5t-113 51.5q-78 0 -140.5 -50.5t-62.5 -160.5zM786 291q-23 70 -30 151l-172 -4q-63 -2 -101.5 -10t-51.5 -26.5t-16 -30t-3 -37.5 q0 -84 92 -84q126 0 282 41z" />
<glyph unicode="&#xe7;" horiz-adv-x="1099" d="M1047 1069l-89 -248q-123 47 -253 47q-276 0 -277 -303q0 -170 64.5 -240.5t257.5 -70.5q51 0 235 25l47 -261q-168 -37 -301 -36q-352 0 -502.5 136t-150.5 451q0 262 165 420t447 158q212 0 357 -78zM834 -270q0 -59 -30 -109.5t-86 -89.5t-101.5 -61.5t-106.5 -49.5 l-117 205q8 4 35 18.5t43 24.5t36.5 26.5t31 35t10.5 39.5q0 29 -25 127h264q46 -103 46 -166z" />
<glyph unicode="&#xe8;" horiz-adv-x="1220" d="M963 1434l-113 -238l-584 248l129 278zM1143 455h-725q0 -63 22.5 -104.5t69.5 -60t96 -24.5t127 -6q168 0 320 27l51 -260q-154 -45 -420 -45q-301 0 -453.5 122.5t-152.5 438.5q0 324 151.5 463t425.5 139q487 0 488 -567v-123zM793 688q2 94 -48.5 145.5t-113.5 51.5 q-76 0 -137.5 -48.5t-65.5 -148.5h365z" />
<glyph unicode="&#xe9;" horiz-adv-x="1220" d="M963 1444l-586 -248l-111 238l568 288zM1143 455h-725q0 -63 22.5 -104.5t69.5 -60t96 -24.5t127 -6q168 0 320 27l51 -260q-154 -45 -420 -45q-301 0 -453.5 122.5t-152.5 438.5q0 324 151.5 463t425.5 139q487 0 488 -567v-123zM793 688q2 94 -48.5 145.5t-113.5 51.5 q-76 0 -137.5 -48.5t-65.5 -148.5h365z" />
<glyph unicode="&#xea;" horiz-adv-x="1220" d="M1071 1460l-149 -248l-304 164l-299 -164l-165 246l467 266zM1143 455h-725q0 -63 22.5 -104.5t69.5 -60t96 -24.5t127 -6q168 0 320 27l51 -260q-154 -45 -420 -45q-301 0 -453.5 122.5t-152.5 438.5q0 324 151.5 463t425.5 139q487 0 488 -567v-123zM793 688 q2 94 -48.5 145.5t-113.5 51.5q-76 0 -137.5 -48.5t-65.5 -148.5h365z" />
<glyph unicode="&#xeb;" horiz-adv-x="1220" d="M1147 1466l-236 -237l-235 237l235 236zM594 1466l-236 -237l-235 237l235 236zM1143 455h-725q0 -63 22.5 -104.5t69.5 -60t96 -24.5t127 -6q168 0 320 27l51 -260q-154 -45 -420 -45q-301 0 -453.5 122.5t-152.5 438.5q0 324 151.5 463t425.5 139q487 0 488 -567v-123z M793 688q2 94 -48.5 145.5t-113.5 51.5q-76 0 -137.5 -48.5t-65.5 -148.5h365z" />
<glyph unicode="&#xec;" horiz-adv-x="620" d="M573 1434l-112 -238l-584 248l129 278zM481 0h-342v1118h342v-1118z" />
<glyph unicode="&#xed;" horiz-adv-x="620" d="M719 1444l-586 -248l-110 238l567 288zM481 0h-342v1118h342v-1118z" />
<glyph unicode="&#xee;" horiz-adv-x="620" d="M762 1460l-150 -248l-303 164l-299 -164l-166 246l467 266zM481 0h-342v1118h342v-1118z" />
<glyph unicode="&#xef;" horiz-adv-x="620" d="M825 1466l-235 -237l-236 237l236 236zM272 1466l-235 -237l-236 237l236 236zM481 0h-342v1118h342v-1118z" />
<glyph unicode="&#xf0;" horiz-adv-x="1314" d="M1317 1243h-141v-1243h-342v80q-39 -31 -59.5 -44t-75 -31.5t-119.5 -18.5q-94 0 -175 25.5t-159 87t-123 183t-45 296.5q0 279 172 434t436 155q43 0 148 -12v88h-281v205h281v96h342v-96h141v-205zM834 303v580q-82 14 -142 14q-274 0 -274 -326q0 -303 229 -303 q99 0 187 35z" />
<glyph unicode="&#xf1;" horiz-adv-x="1318" d="M1137 1440q-170 -182 -338 -183q-68 0 -155 44.5t-97 44.5h-23h-28q-8 0 -30 -4.5t-37 -10.5t-36.5 -19.5t-44.5 -31.5l-143 193q158 186 350 186q70 0 149.5 -44t102.5 -44q90 0 203 59zM1221 0h-340v674q0 113 -31 146.5t-119 33.5q-123 0 -250 -61v-793h-342v1118h342 v-112q193 145 365 145q102 0 173 -23.5t109.5 -59.5t60 -99.5t27 -119.5t5.5 -147v-702z" />
<glyph unicode="&#xf2;" horiz-adv-x="1316" d="M963 1434l-113 -238l-584 248l129 278zM1239 559q0 -279 -164 -431.5t-430 -152.5q-272 0 -419.5 154t-147.5 420q0 276 158.5 437t427.5 161q291 0 433 -153.5t142 -434.5zM891 559q0 152 -51.5 235t-182.5 83q-236 0 -235 -320q0 -154 54 -231.5t185.5 -77.5 t180.5 77.5t49 233.5z" />
<glyph unicode="&#xf3;" horiz-adv-x="1316" d="M983 1444l-586 -248l-110 238l567 288zM1239 559q0 -279 -164 -431.5t-430 -152.5q-272 0 -419.5 154t-147.5 420q0 276 158.5 437t427.5 161q291 0 433 -153.5t142 -434.5zM891 559q0 152 -51.5 235t-182.5 83q-236 0 -235 -320q0 -154 54 -231.5t185.5 -77.5 t180.5 77.5t49 233.5z" />
<glyph unicode="&#xf4;" horiz-adv-x="1316" d="M1133 1460l-150 -248l-303 164l-299 -164l-166 246l467 266zM1239 559q0 -279 -164 -431.5t-430 -152.5q-272 0 -419.5 154t-147.5 420q0 276 158.5 437t427.5 161q291 0 433 -153.5t142 -434.5zM891 559q0 152 -51.5 235t-182.5 83q-236 0 -235 -320q0 -154 54 -231.5 t185.5 -77.5t180.5 77.5t49 233.5z" />
<glyph unicode="&#xf5;" horiz-adv-x="1316" d="M1133 1440q-170 -182 -338 -183q-68 0 -155 44.5t-97 44.5h-23h-28q-8 0 -30 -4.5t-37 -10.5t-36.5 -19.5t-44.5 -31.5l-143 193q158 186 350 186q70 0 149.5 -44t102.5 -44q90 0 203 59zM1239 559q0 -279 -164 -431.5t-430 -152.5q-272 0 -419.5 154t-147.5 420 q0 276 158.5 437t427.5 161q291 0 433 -153.5t142 -434.5zM891 559q0 152 -51.5 235t-182.5 83q-236 0 -235 -320q0 -154 54 -231.5t185.5 -77.5t180.5 77.5t49 233.5z" />
<glyph unicode="&#xf6;" horiz-adv-x="1316" d="M1178 1466l-236 -237l-235 237l235 236zM625 1466l-236 -237l-235 237l235 236zM1239 559q0 -279 -164 -431.5t-430 -152.5q-272 0 -419.5 154t-147.5 420q0 276 158.5 437t427.5 161q291 0 433 -153.5t142 -434.5zM891 559q0 152 -51.5 235t-182.5 83q-236 0 -235 -320 q0 -154 54 -231.5t185.5 -77.5t180.5 77.5t49 233.5z" />
<glyph unicode="&#xf7;" horiz-adv-x="991" d="M637 956h-283v263h283v-263zM956 590h-919v272h919v-272zM637 227h-283v262h283v-262z" />
<glyph unicode="&#xf8;" horiz-adv-x="1316" d="M1255 1067l-118 -121q102 -145 102 -387q0 -279 -164 -431.5t-430 -152.5q-221 0 -364 105l-125 -125l-103 100l127 127q-102 145 -102 367q0 276 158.5 437t427.5 161q233 0 370 -100l121 120zM813 823q-53 53 -156 54q-236 0 -235 -320q0 -76 10 -119zM891 559 q0 80 -10 129l-383 -387q59 -53 164 -53q131 0 180 77.5t49 233.5z" />
<glyph unicode="&#xf9;" horiz-adv-x="1359" d="M983 1434l-113 -238l-583 248l129 278zM1221 0h-342v115q-193 -145 -365 -146q-102 0 -173 23.5t-109.5 59.5t-60 99.5t-27 120t-5.5 146.5v700h340v-672q0 -113 31 -146.5t119 -33.5q123 0 250 62v790h342v-1118z" />
<glyph unicode="&#xfa;" horiz-adv-x="1359" d="M1085 1444l-585 -248l-111 238l567 288zM1221 0h-342v115q-193 -145 -365 -146q-102 0 -173 23.5t-109.5 59.5t-60 99.5t-27 120t-5.5 146.5v700h340v-672q0 -113 31 -146.5t119 -33.5q123 0 250 62v790h342v-1118z" />
<glyph unicode="&#xfb;" horiz-adv-x="1359" d="M1143 1460l-150 -248l-303 164l-299 -164l-166 246l467 266zM1221 0h-342v115q-193 -145 -365 -146q-102 0 -173 23.5t-109.5 59.5t-60 99.5t-27 120t-5.5 146.5v700h340v-672q0 -113 31 -146.5t119 -33.5q123 0 250 62v790h342v-1118z" />
<glyph unicode="&#xfc;" horiz-adv-x="1359" d="M1196 1466l-235 -237l-236 237l236 236zM643 1466l-235 -237l-236 237l236 236zM1221 0h-342v115q-193 -145 -365 -146q-102 0 -173 23.5t-109.5 59.5t-60 99.5t-27 120t-5.5 146.5v700h340v-672q0 -113 31 -146.5t119 -33.5q123 0 250 62v790h342v-1118z" />
<glyph unicode="&#xfd;" horiz-adv-x="1261" d="M1049 1444l-586 -248l-111 238l568 288zM1245 1118l-547 -1569h-325l151 451h-123l-385 1118h367l192 -663l48 -183l55 183l223 663h344z" />
<glyph unicode="&#xfe;" horiz-adv-x="1320" d="M1243 610q0 -168 -51 -294t-141 -195.5t-198 -103t-237 -33.5q-55 0 -137 4v-439h-340v1997h340v-508q43 37 122 73t149 36q242 0 367.5 -126t125.5 -411zM899 600q0 145 -59.5 202.5t-192.5 57.5q-76 0 -168 -31v-577q66 -8 146 -8q129 0 201.5 98t72.5 258z" />
<glyph unicode="&#xff;" horiz-adv-x="1261" d="M1149 1466l-236 -237l-235 237l235 236zM596 1466l-236 -237l-235 237l235 236zM1245 1118l-547 -1569h-325l151 451h-123l-385 1118h367l192 -663l48 -183l55 183l223 663h344z" />
<glyph unicode="&#x131;" horiz-adv-x="620" d="M481 0h-342v1118h342v-1118z" />
<glyph unicode="&#x141;" horiz-adv-x="1173" d="M1137 0h-977v526l-144 -84v234l144 82v690h348v-490l221 127v-229l-221 -129v-453h629v-274z" />
<glyph unicode="&#x142;" horiz-adv-x="620" d="M668 918l-187 -109v-809h-342v612l-184 -108l-2 233l186 107v700h342v-504l187 107v-229z" />
<glyph unicode="&#x152;" horiz-adv-x="2291" d="M2193 0h-997v43q-127 -68 -350 -68q-375 0 -566.5 198t-191.5 554q0 362 210 552.5t587 190.5q197 0 311 -55v33h950v-272h-602v-322h557v-254h-557v-328h649v-272zM1196 397v652q-109 147 -330 147q-219 0 -322.5 -127t-103.5 -340t101.5 -346t310.5 -133q235 0 344 147 z" />
<glyph unicode="&#x153;" horiz-adv-x="2033" d="M1956 455h-725q0 -111 71.5 -153t243.5 -42q168 0 320 27l51 -260q-154 -45 -420 -45q-307 0 -450 120q-158 -127 -402 -127q-272 0 -419.5 154t-147.5 420q0 276 158.5 437t427.5 161q258 0 399 -123q143 121 405 121q487 0 488 -567v-123zM1606 688q2 94 -48.5 145.5 t-113.5 51.5q-76 0 -137.5 -48.5t-65.5 -148.5h365zM891 559q0 152 -51.5 235t-182.5 83q-236 0 -235 -320q0 -154 54 -231.5t185.5 -77.5t180.5 77.5t49 233.5z" />
<glyph unicode="&#x160;" horiz-adv-x="1222" d="M1018 1712l-436 -219l-435 219l132 242l303 -137l303 137zM1145 418q0 -115 -51.5 -202t-138.5 -138t-191.5 -76t-220.5 -25q-299 0 -486 103l99 250q188 -66 383 -66q254 0 254 142q0 53 -51.5 96t-127 70.5t-166 69.5t-166 89t-127 135t-51.5 203q0 133 79 224 t192.5 129t249.5 38q106 0 197 -16.5t135 -32.5t120 -49l-100 -242q-207 59 -342 60q-190 0 -191 -109q0 -45 52.5 -84t130.5 -68.5t168 -73.5t167.5 -95.5t130 -137t52.5 -194.5z" />
<glyph unicode="&#x161;" horiz-adv-x="1019" d="M967 1450l-467 -266l-453 264l152 246l303 -164l299 164zM963 342q0 -84 -34 -150.5t-86 -105.5t-122 -63.5t-132.5 -33.5t-123.5 -9q-256 0 -408 43l37 258q188 -27 338 -27q193 0 193 74q0 33 -58.5 55.5t-140.5 46t-165 59t-141.5 113.5t-58.5 191q0 172 136.5 261 t334.5 89q207 0 377 -60l-57 -247q-164 37 -309 36q-139 0 -140 -63q0 -29 41 -53.5t103.5 -41t135.5 -46t135.5 -66.5t103.5 -104.5t41 -155.5z" />
<glyph unicode="&#x178;" horiz-adv-x="1452" d="M1229 1714l-236 -237l-235 237l235 236zM676 1714l-236 -237l-235 237l235 236zM1452 1448l-569 -971v-477h-348v465l-535 983h401l320 -690l340 690h391z" />
<glyph unicode="&#x17d;" horiz-adv-x="1251" d="M1049 1712l-437 -219l-434 219l131 242l303 -137l303 137zM1194 -2l-1137 2v233l666 926h-612v289h1040v-221l-674 -938h717v-291z" />
<glyph unicode="&#x17e;" horiz-adv-x="1089" d="M1008 1450l-467 -266l-453 264l152 246l303 -164l299 164zM1012 0h-934v223l524 621h-491v274h893v-217l-512 -631h520v-270z" />
<glyph unicode="&#x192;" horiz-adv-x="1110" d="M1069 1163q-18 -2 -67.5 -4t-73 -5t-64.5 -9t-63.5 -17.5t-48 -29t-38 -44t-14.5 -61.5l-16 -268h221v-274h-237l-25 -457q-12 -233 -160.5 -346t-509.5 -113l-10 283q14 2 59.5 4t66 4t59 8t58 18.5t44 31t36 47t13.5 67.5l25 453h-205v274h223l16 274q6 117 48.5 201 t102.5 133t152.5 77t180.5 36t205 8z" />
<glyph unicode="&#x2c6;" horiz-adv-x="1138" d="M1028 1460l-149 -248l-304 164l-299 -164l-165 246l467 266z" />
<glyph unicode="&#x2c7;" horiz-adv-x="1138" d="M1028 1450l-467 -266l-452 264l151 246l303 -164l299 164z" />
<glyph unicode="&#x2d8;" horiz-adv-x="1056" d="M999 1446q-63 -94 -159.5 -151.5t-274.5 -57.5t-273 61.5t-157 159.5l195 199q59 -57 112.5 -82t130.5 -25q76 0 127.5 24.5t106.5 82.5z" />
<glyph unicode="&#x2d9;" horiz-adv-x="600" d="M537 1466l-238 -237l-236 237l236 236z" />
<glyph unicode="&#x2da;" horiz-adv-x="1130" d="M868 1462q0 -131 -86 -196.5t-213 -65.5t-217 59.5t-90 198.5q0 133 89 204t212 71q49 0 98.5 -13.5t98.5 -42t78.5 -84t29.5 -131.5zM627 1460h2q0 27 -17.5 43.5t-46.5 16.5q-63 0 -63 -56q0 -61 63 -61q62 0 62 57z" />
<glyph unicode="&#x2db;" horiz-adv-x="1189" d="M1092 -479q-121 -53 -254 -53q-309 0 -310 292q0 211 420 437l123 -164q-100 -55 -176 -128t-76 -138q0 -45 68 -46q86 0 147 19z" />
<glyph unicode="&#x2dc;" horiz-adv-x="1138" d="M1030 1440q-170 -182 -338 -183q-68 0 -154.5 44.5t-97.5 44.5h-22h-29q-8 0 -29.5 -4.5t-37 -10.5t-37 -19.5t-43.5 -31.5l-144 193q158 186 351 186q70 0 149.5 -44t101.5 -44q90 0 203 59z" />
<glyph unicode="&#x2dd;" horiz-adv-x="1335" d="M1296 1436l-585 -248l-111 237l567 289zM707 1597l-488 -409l-176 196l459 441z" />
<glyph unicode="&#x394;" horiz-adv-x="1546" d="M1526 0h-1506l564 1448h448zM1073 270l-205 648l-67 241l-80 -241l-244 -648h596z" />
<glyph unicode="&#x2206;" horiz-adv-x="1546" d="M1526 0h-1506l564 1448h448zM1073 270l-205 648l-67 241l-80 -241l-244 -648h596z" />
<glyph unicode="&#x3a9;" horiz-adv-x="1705" d="M1700 0h-678v272q102 18 180 130t78 343q0 211 -105.5 333t-318.5 122q-201 0 -310.5 -122t-109.5 -328q0 -367 248 -478v-272h-670v272h246q-176 166 -176 459q0 346 210 542.5t580 196.5q383 0 571.5 -191.5t188.5 -535.5q0 -133 -54 -257t-146 -214h266v-272z" />
<glyph unicode="&#x2126;" horiz-adv-x="1705" d="M1700 0h-678v272q102 18 180 130t78 343q0 211 -105.5 333t-318.5 122q-201 0 -310.5 -122t-109.5 -328q0 -367 248 -478v-272h-670v272h246q-176 166 -176 459q0 346 210 542.5t580 196.5q383 0 571.5 -191.5t188.5 -535.5q0 -133 -54 -257t-146 -214h266v-272z" />
<glyph unicode="&#x3b1;" horiz-adv-x="1314" d="M1264 238l-13 -258h-10q-299 -18 -373 83q-154 -90 -264 -90q-541 0 -541 590q0 262 154 407.5t401 159.5q14 2 46 3q90 0 146 -4.5t131 -23t117 -52t72.5 -99t30.5 -159.5v-510q0 -27 25 -36t78 -11zM633 258q88 0 186 27v344v4v96q0 68 -39 98.5t-127 34.5 q-250 -14 -250 -305q1 -299 230 -299z" />
<glyph unicode="&#x3b2;" horiz-adv-x="1413" d="M1356 338q0 -100 -43 -175t-113 -114t-142.5 -57.5t-146.5 -18.5q-258 0 -374 41l41 262q188 -29 260 -28q182 0 182 69q0 27 -33 51.5t-81 42t-104.5 50.5t-104.5 71.5t-80.5 110.5t-32.5 164q0 72 37.5 136.5t82 103t82 85t37.5 85.5q0 47 -51 70.5t-100 23.5 q-92 0 -132 -46t-40 -145v-1571h-340v1573q0 252 134 358.5t382 106.5q68 0 142.5 -14t163.5 -49t146.5 -114t57.5 -189q0 -70 -41 -135.5t-89 -105.5t-89 -87t-41 -86t44 -70.5t107.5 -59.5t127 -65t107.5 -107.5t44 -166.5z" />
<glyph unicode="&#x3c0;" horiz-adv-x="1599" d="M1538 8q-90 -35 -197 -35q-131 0 -221 28t-132 74t-64.5 105.5t-18.5 122t6 125.5l31 373q-86 6 -293 33l-78 -834h-344l76 799q-23 -10 -82 -56l-160 220q63 68 122 107.5t122.5 55t102 18.5t116.5 3h31q76 0 243 -26.5t240 -26.5q215 0 465 80v-297q-119 -43 -217 -62 l-39 -409q-8 -88 20.5 -121t102.5 -33q61 0 115 14z" />
<glyph unicode="&#x2000;" horiz-adv-x="976" />
<glyph unicode="&#x2001;" horiz-adv-x="1953" />
<glyph unicode="&#x2002;" horiz-adv-x="976" />
<glyph unicode="&#x2003;" horiz-adv-x="1953" />
<glyph unicode="&#x2004;" horiz-adv-x="651" />
<glyph unicode="&#x2005;" horiz-adv-x="487" />
<glyph unicode="&#x2006;" horiz-adv-x="325" />
<glyph unicode="&#x2007;" horiz-adv-x="325" />
<glyph unicode="&#x2008;" horiz-adv-x="243" />
<glyph unicode="&#x2009;" horiz-adv-x="389" />
<glyph unicode="&#x200a;" horiz-adv-x="108" />
<glyph unicode="&#x2010;" horiz-adv-x="765" d="M686 451h-610v272h610v-272z" />
<glyph unicode="&#x2011;" horiz-adv-x="765" d="M686 451h-610v272h610v-272z" />
<glyph unicode="&#x2012;" horiz-adv-x="765" d="M686 451h-610v272h610v-272z" />
<glyph unicode="&#x2013;" horiz-adv-x="1026" d="M1026 451h-1026v272h1026v-272z" />
<glyph unicode="&#x2014;" horiz-adv-x="2045" d="M2046 451h-2046v272h2046v-272z" />
<glyph unicode="&#x2018;" horiz-adv-x="563" d="M485 993h-278q-129 156 -129 353v200h342v-278q-1 -154 65 -275z" />
<glyph unicode="&#x2019;" horiz-adv-x="563" d="M475 1346q0 -197 -129 -353h-278q66 121 65 275v278h342v-200z" />
<glyph unicode="&#x201a;" horiz-adv-x="663" d="M535 102q0 -197 -129 -352h-279q66 121 66 275v278h342v-201z" />
<glyph unicode="&#x201c;" horiz-adv-x="1013" d="M936 993h-279q-129 156 -129 353v200h342v-278q0 -154 66 -275zM485 993h-278q-129 156 -129 353v200h342v-278q-1 -154 65 -275z" />
<glyph unicode="&#x201d;" horiz-adv-x="1013" d="M956 1346q0 -197 -129 -353h-278q66 121 65 275v278h342v-200zM485 1346q0 -197 -129 -353h-278q66 121 65 275v278h342v-200z" />
<glyph unicode="&#x201e;" horiz-adv-x="1013" d="M893 102q0 -197 -129 -352h-279q66 121 66 275v278h342v-201zM446 102q0 -197 -129 -352h-278q66 121 65 275v278h342v-201z" />
<glyph unicode="&#x2020;" horiz-adv-x="1089" d="M1049 928l-349 18l21 -946h-352l20 946l-348 -18v307l344 -18l-20 327h360l-20 -327l344 18v-307z" />
<glyph unicode="&#x2021;" horiz-adv-x="1089" d="M1049 309l-347 19l21 -328h-354l20 328l-348 -19v307l348 -16v346l-348 -18v307l344 -18l-20 327h360l-20 -327l344 18v-307l-347 18v-346l347 16v-307z" />
<glyph unicode="&#x2022;" horiz-adv-x="1056" d="M825 721q0 -123 -87 -209t-209.5 -86t-210 86t-87.5 209t87.5 210t210 87t209.5 -87t87 -210z" />
<glyph unicode="&#x2026;" horiz-adv-x="2080" d="M1985 0h-345v301h345v-301zM1245 0h-344v301h344v-301zM504 0h-344v301h344v-301z" />
<glyph unicode="&#x202f;" horiz-adv-x="389" />
<glyph unicode="&#x2030;" horiz-adv-x="2603" d="M2542 350q0 -174 -115 -273.5t-283 -99.5q-166 0 -274.5 87.5t-108.5 271.5q0 174 114 277.5t275 103.5q168 0 280 -88.5t112 -278.5zM1702 350q0 -174 -114.5 -273.5t-282.5 -99.5q-166 0 -274.5 87.5t-108.5 271.5q0 174 113.5 277.5t275.5 103.5q168 0 279.5 -88.5 t111.5 -278.5zM1556 1163l-1191 -1087l-179 184l1192 1088zM842 1096q0 -176 -115 -275.5t-283 -99.5q-166 0 -274.5 88t-108.5 272q0 174 114 277.5t276 103.5q168 0 279.5 -88t111.5 -278zM2257 350q0 133 -107 133q-104 0 -104 -147q0 -72 24.5 -98.5t73.5 -26.5t81 33.5 t32 105.5zM1417 350q0 133 -106 133q-104 0 -105 -147q0 -72 24.5 -98.5t74 -26.5t81 33.5t31.5 105.5zM557 1096q0 133 -106 133q-104 0 -105 -148q0 -72 24.5 -99.5t74 -27.5t81 35t31.5 107z" />
<glyph unicode="&#x2039;" horiz-adv-x="559" d="M537 936l-187 -379l185 -367l-248 -102l-262 469l260 465z" />
<glyph unicode="&#x203a;" horiz-adv-x="559" d="M537 557l-261 -469l-247 102l182 367l-186 379l251 86z" />
<glyph unicode="&#x2044;" horiz-adv-x="755" d="M1063 1163l-1192 -1087l-178 184l1192 1088z" />
<glyph unicode="&#x205f;" horiz-adv-x="487" />
<glyph unicode="&#x20ac;" horiz-adv-x="1462" d="M1360 49q-188 -70 -426 -69q-610 0 -744 454h-190v213h158q-2 23 -2 68q0 55 2 82h-158v209h190q125 459 736 458q244 0 430 -84l-92 -252q-113 31 -167.5 39.5t-166.5 10.5q-256 4 -359 -172h459v-209h-518q-2 -18 -2 -62q0 -31 4 -88h516v-213h-438q115 -164 379 -164 q158 0 315 41z" />
<glyph unicode="&#x2122;" horiz-adv-x="1712" d="M1655 723h-223l8 307l-123 -307h-219l-111 297l4 -297h-223v727h248l201 -479l200 479h238v-727zM723 1253h-221v-530h-223v530h-222v197h666v-197z" />
<glyph unicode="&#x2202;" horiz-adv-x="1298" d="M1210 672q0 -698 -575 -699q-88 0 -161 10.5t-147.5 42t-124.5 84t-82 140.5t-32 207q0 190 144.5 343.5t381.5 153.5q90 0 183 -10q-113 193 -461 266l106 281q111 -25 202 -56.5t201.5 -96t186.5 -148.5t127 -218t51 -300zM860 662v24q-109 16 -178 16 q-115 0 -183.5 -63.5t-68.5 -181.5q0 -92 49 -146.5t142 -54.5q57 0 101 17.5t68.5 53t40 68.5t21.5 87.5t7 83t1 79.5v17z" />
<glyph unicode="&#x220f;" horiz-adv-x="1687" d="M1647 1176h-207v-1176h-348v1176h-498v-1176h-348v1176h-205v272h1606v-272z" />
<glyph unicode="&#x2211;" horiz-adv-x="1179" d="M1118 0h-1055v233l361 490l-363 491v234h1055v-272h-641l285 -455l-277 -449h635v-272z" />
<glyph unicode="&#x2212;" horiz-adv-x="1075" d="M997 590h-919v272h919v-272z" />
<glyph unicode="&#x221a;" horiz-adv-x="1572" d="M1593 1714l-598 -1714h-454l-248 844h-293v274h578l151 -586l55 -253l70 251l391 1184h348z" />
<glyph unicode="&#x221e;" horiz-adv-x="2011" d="M1868 729q0 -180 -103.5 -275.5t-289.5 -95.5q-43 0 -83 8.5t-89.5 33t-72 37t-88.5 56.5l-83 54l-62 39l-69 -47l-50 -34l-54 -36q-9 -6 -46 -28.5t-50 -28.5l-45 -21q-32 -14 -53 -18l-49 -9q-28 -5 -57 -6q-379 0 -379 357q0 176 104.5 271t282.5 95q70 0 143 -26.5 t122 -56t137 -91.5l74 -51l77 51q8 6 41 27.5t42.5 27t38 24t39.5 23.5t37 19t40 20l38 13q24 8 41 11t39.5 6t43.5 3q186 0 284.5 -90t98.5 -262zM1614 721q0 53 -36 84t-101 31q-90 0 -236 -93l-33 -20l39 -23q158 -92 236 -92q63 0 97 31t34 82zM797 719l-31 20 q-145 96 -238 97q-61 0 -96 -32t-35 -81q0 -115 138 -115q90 0 227 88z" />
<glyph unicode="&#x222b;" horiz-adv-x="919" d="M899 1184l-78 -5q-47 -3 -68.5 -4t-55 -5.5t-48 -7.5t-37 -9t-30.5 -14l-20 -20q-11 -11 -15 -26.5t-7 -35t-3 -43.5v-1028q0 -145 -53.5 -241.5t-156 -141.5t-207 -60.5t-251.5 -15.5l-25 280l101 11q59 6 83.5 9t61.5 10t49.5 16.5t28.5 28t20.5 44t4.5 62.5v1024 q0 119 39.5 205t100 134t156 76.5t183.5 37t205 8.5z" />
<glyph unicode="&#x2248;" horiz-adv-x="1187" d="M1106 932q-47 -82 -149.5 -147.5t-188.5 -65.5q-100 0 -216 61.5t-159 61.5q-80 0 -153 -68l-158 209q162 199 321 199q100 0 208 -62.5t159 -62.5q2 0 21.5 -1t29.5 0t31.5 7t45.5 21.5t52 39.5zM1106 477q-47 -82 -149.5 -147.5t-188.5 -65.5q-100 0 -216 61.5 t-159 61.5q-80 0 -153 -68l-158 209q162 199 321 199q100 0 208 -62.5t159 -62.5q2 0 21.5 -1t29.5 0t31.5 7t45.5 21.5t52 40.5z" />
<glyph unicode="&#x2260;" horiz-adv-x="1114" d="M995 408h-534l-123 -197h-211l123 197h-131v243h282l93 146h-375v243h526l123 195h211l-123 -195h139v-243h-290l-93 -146h383v-243z" />
<glyph unicode="&#x2264;" horiz-adv-x="1124" d="M1028 0h-928v272h836l-836 297v310l928 329v-284l-563 -201l563 -199v-524z" />
<glyph unicode="&#x2265;" horiz-adv-x="1124" d="M1028 0h-928v524l564 199l-564 201v284l928 -329v-310l-835 -297h835v-272z" />
<glyph unicode="&#x25ca;" horiz-adv-x="1339" d="M1298 723l-426 -723h-421l-410 727l426 721h424zM907 721l-231 455l-244 -447l232 -455z" />
<glyph unicode="&#xe000;" horiz-adv-x="1120" d="M0 1120h1120v-1120h-1120v1120z" />
<glyph d="M1581 252h-1524v334h1524v-334zM1540 293v252h-1442v-252h1442zM1501 395h-16v31q0 6 -2 6t-2 -2v-2v-33h-17v33q0 4 -2 4t-2 -2v-35h-16v51h16v-8q2 8 10.5 8t8.5 -6q6 6 12 6q10 0 10 -16v-35zM1423 419.5q0 -26.5 -26 -26.5q-29 0 -29 26.5t29 26.5q26 0 26 -26.5z M1341 397q-6 -4 -18 -4q-29 0 -29 26.5t29 26.5q12 0 18 -2l-6 -14q-6 2 -12 2q-8 0 -8 -12q0 -10 10 -10q6 0 10 2zM1253 403q0 -10 -12 -10q-10 0 -10 10q0 12 10 13q12 -1 12 -13zM1190 399q-12 -6 -25 -6q-27 0 -26.5 26.5t26.5 26.5q25 0 25 -22l-2 -6l-29 -4 q4 -4 8 -4q12 0 19 2zM1114 395h-20v4q-12 -6 -17 -6q-14 0 -14 17v36h20v-32q0 -4 2 -4h5l4 2v34h20v-51zM1038 369h-18v30q-6 -6 -12 -6q-25 0 -25 26.5t31 26.5q18 0 24 -4v-73zM961 399q-12 -6 -27 -6q-25 0 -25 26.5t25 26.5q23 0 27 -22l-5 -6l-26 -4q0 -4 6 -4 q12 0 20 2zM883 395h-21v33q0 4 -2 4l-4 -2h-4v-35h-21v74h21v-27q8 4 18 4q12 0 13 -16v-35zM807 397q-16 -4 -27 -4q-20 0 -20 17v20h-6v10l26 21v-15h25v-16h-25v-14q0 -4 4 -4q10 0 19 2zM731 419.5q0 -26.5 -26 -26.5q-29 0 -29 26.5t29 26.5q26 0 26 -26.5zM653 424 q0 -31 -26 -31l-6 2v-26h-21v77h21v-4q8 4 12 4q20 1 20 -22zM580 444l-19 -53q-8 -23 -37 -26l-4 18l19 8l-19 53l25 2l6 -34l4 34zM500 397q-20 -4 -29 -4q-18 0 -18 17v20h-7v10l27 21v-15h23v-16h-23v-14q0 -4 4 -4q10 0 19 2zM408 403q0 -10 -13 -10q-10 0 -10 10 q0 12 10 13q13 -1 13 -13zM348 446l-6 -51h-16l-7 29l-8 -29h-16l-4 51h16v-34l4 34h15l6 -34l2 34h14zM270 446l-4 -51h-18l-6 29l-9 -29h-16l-4 51h16v-34l7 34h14l4 -34l2 34h14zM195 446l-7 -51h-16l-8 29l-6 -29h-17l-4 51h17v-34l4 34h14l6 -34v34h17zM1403 420 q0 12 -8 12q-6 0 -6 -8q0 -16 8 -16q6 0 6 12zM1171 426q0 8 -6 8t-6 -10zM1020 412v20h-6q-10 0 -10 -10q0 -12 8 -12q6 0 8 2zM940 426q0 8 -6 8t-6 -10zM711 420q0 12 -9 12q-6 0 -6 -8q0 -16 9 -16q6 0 6 12zM633 422q0 10 -4 10q-2 0 -6 -2h-2v-22h6q6 0 6 14z" />
<glyph horiz-adv-x="1396" d="M1309 580q0 -303 -162 -450.5t-461 -147.5q-307 0 -452.5 136t-145.5 421q0 283 159 438.5t474 155.5q305 0 446.5 -147.5t141.5 -405.5zM963 569q0 283 -254 283q-274 0 -275 -307q0 -283 262 -283q123 0 195 75.5t72 231.5z" />
<glyph horiz-adv-x="833" d="M670 0h-342v850h-291v268l633 19v-1137z" />
<glyph horiz-adv-x="1159" d="M1057 0h-965v281q6 4 189.5 119.5t284 202.5t100.5 149q0 121 -207 120q-145 0 -271 -47l-77 246q53 29 160.5 54.5t205.5 25.5q152 0 260.5 -34t162.5 -94t76.5 -123.5t22.5 -141.5q0 -88 -50 -169t-132 -142.5t-153.5 -101.5t-147.5 -73h541v-272z" />
<glyph horiz-adv-x="1056" d="M969 88q0 -444 -566 -444q-117 0 -215 10t-137 22l-39 11l62 274q121 -31 309 -31q125 0 182.5 38t57.5 124q0 115 -70 154t-293 53v231q178 10 238.5 46t60.5 139q0 61 -40 99t-122 38l-264 -37l-92 238q166 82 373 82q205 0 343 -95.5t138 -277.5q0 -72 -16.5 -125 t-50 -91t-55 -55.5t-64.5 -44.5q260 -104 260 -358z" />
<glyph horiz-adv-x="1269" d="M1192 61h-193v-395h-340v395h-643v220l471 835h512v-784h193v-271zM659 332v532l-297 -532h297z" />
<glyph horiz-adv-x="1148" d="M1085 131q0 -227 -160.5 -357t-412.5 -130q-145 0 -215 8t-203 45l82 272q106 -25 156.5 -31t177.5 -6q111 0 172 49.5t61 129.5q0 104 -49 149t-153 45q-227 0 -396 -16v825h863v-270h-533v-277q37 2 96 2q240 0 377 -113.5t137 -324.5z" />
<glyph horiz-adv-x="1298" d="M1210 489q0 -252 -155.5 -384t-390.5 -132q-289 0 -432.5 151.5t-143.5 504.5q0 418 194.5 625.5t530.5 207.5q88 0 132 -7t136 -34l-75 -266q-80 20 -197 21q-262 0 -342 -246q131 23 217 22q526 0 526 -463zM868 469q0 119 -52 170t-154 51q-94 0 -232 -20v-54 q0 -211 54.5 -289.5t193.5 -78.5q84 0 137 60.5t53 160.5z" />
<glyph horiz-adv-x="1067" d="M1010 891l-645 -1282l-297 129l544 1093h-579v283h977v-223z" />
<glyph horiz-adv-x="1255" d="M1178 391q0 -209 -153 -310t-404 -101q-244 0 -393.5 92t-149.5 293q0 127 68.5 216t183.5 162l24 15q-18 12 -26 18q-199 147 -199 314q0 193 140.5 282.5t371.5 89.5q223 0 359.5 -96t136.5 -254q0 -178 -226 -340l-26 -16q18 -10 26 -17q121 -76 194 -159t73 -189z M788 1067q0 25 -4 42t-16 39.5t-45 35t-82 12.5q-59 0 -97 -12.5t-53.5 -34t-19.5 -38.5t-4 -42q0 -72 102 -145l49 -35q33 20 54 35q116 75 116 143zM836 418q0 74 -154 164l-66 41l-65 -45q-135 -100 -135 -177q0 -152 217 -151q203 0 203 168z" />
<glyph horiz-adv-x="1273" d="M1186 485q0 -207 -38 -356t-101.5 -238.5t-166 -141.5t-209 -69.5t-251.5 -17.5q-139 0 -277 45l76 266q135 -29 215 -28q180 0 266 62.5t113 185.5q-102 -27 -229 -27q-244 0 -370 132t-126 345q0 231 153.5 367.5t395.5 136.5q264 0 406.5 -177.5t142.5 -484.5z M834 510q0 352 -211 352q-88 0 -138.5 -51t-50.5 -147q0 -141 46 -191.5t138 -50.5q117 0 216 29v59z" />
<glyph horiz-adv-x="1179" d="M1200 0h-330l-88 258h-383l-98 -258h-321l426 1118h421zM705 489l-70 259l-31 141l-37 -141l-80 -259h218z" />
<glyph horiz-adv-x="1263" d="M1182 352q0 -352 -473 -352h-545v1118h498q438 0 438 -321q0 -106 -96 -187q178 -90 178 -258zM778 774q0 51 -28.5 77t-126.5 26h-142v-211h156q63 0 96 17t39 36.5t6 54.5zM860 356q0 59 -42 90t-161 31h-176v-235h195q109 0 146.5 29.5t37.5 84.5z" />
<glyph horiz-adv-x="1118" d="M1098 45q-170 -61 -373 -61q-313 0 -478 145t-165 422q0 578 637 577q211 0 377 -73l-86 -228q-147 39 -289 41q-147 2 -232.5 -74.5t-85.5 -228.5q0 -154 93.5 -236.5t257.5 -82.5q135 0 274 35z" />
<glyph horiz-adv-x="1345" d="M1264 561q0 -283 -175.5 -422t-492.5 -139h-432v1118h424q309 0 492.5 -138t183.5 -419zM946 547q0 164 -87 243.5t-275 79.5h-105v-622h135q178 0 255 73.5t77 225.5z" />
<glyph horiz-adv-x="1144" d="M1042 0h-878v1118h842v-248h-525v-192h490v-236h-490v-194h561v-248z" />
<glyph horiz-adv-x="1052" d="M991 870h-510v-280h475v-234h-475v-356h-317v1118h827v-248z" />
<glyph horiz-adv-x="1232" d="M1110 53q-190 -70 -391 -69q-295 0 -466 142t-171 425q0 578 649 577q184 0 365 -73l-86 -228q-170 41 -283 41q-324 0 -324 -303q0 -158 95.5 -238.5t249.5 -80.5q31 0 45 2v248h317v-443z" />
<glyph horiz-adv-x="1386" d="M1223 0h-318v440h-424v-440h-317v1118h317v-436h424v436h318v-1118z" />
<glyph horiz-adv-x="645" d="M481 0h-317v1118h317v-1118z" />
<glyph horiz-adv-x="647" d="M483 246q0 -78 -7 -133.5t-32.5 -123t-70.5 -118.5t-129 -101.5t-201 -86.5l-115 225q147 78 191.5 142.5t44.5 193.5v874h319v-872z" />
<glyph horiz-adv-x="1257" d="M1257 0h-405l-371 483v-483h-317v1118h317v-416l344 416h410l-473 -526z" />
<glyph horiz-adv-x="985" d="M965 0h-801v1118h317v-868h484v-250z" />
<glyph horiz-adv-x="1773" d="M1610 0h-297v463l14 172l-289 -635h-323l-277 635l23 -172v-463h-297v1118h368l351 -819l374 819h353v-1118z" />
<glyph horiz-adv-x="1447" d="M1284 0h-358l-461 668l16 -140v-528h-317v1118h350l461 -686l-8 119v567h317v-1118z" />
<glyph horiz-adv-x="1406" d="M1325 557q0 -279 -164 -427t-471 -148q-299 0 -453.5 152.5t-154.5 424.5q0 279 170 426.5t469 147.5q305 0 454.5 -153t149.5 -423zM1004 559q0 150 -74 237t-223 87q-158 0 -232 -86t-74 -235.5t73 -240t220 -90.5q310 0 310 328z" />
<glyph horiz-adv-x="1124" d="M1083 702q0 -203 -142 -314.5t-400 -115.5h-58v-272h-319v1118h459q199 0 329.5 -115t130.5 -301zM758 696q0 170 -170 170h-105v-348h66q109 0 159 52t50 126z" />
<glyph horiz-adv-x="1406" d="M1325 553q0 -281 -164 -431.5t-471 -150.5q-299 0 -453.5 155t-154.5 429q0 281 170 429.5t469 148.5q305 0 454.5 -154t149.5 -426zM1309 -354h-195q-51 0 -98 8t-114 24l-93 23q-35 6 -156 6v227q133 0 219 -14q25 -4 75 -16.5t90 -18.5t77 -6h195v-233zM1004 553 q0 152 -74 240t-223 88q-158 0 -232 -87t-74 -237q0 -152 73 -243t220 -91q310 0 310 330z" />
<glyph horiz-adv-x="1290" d="M1255 219l-59 -239q-262 10 -442 206l-164 183h-49h-58v-369h-319v1118h459q203 0 328.5 -95t125.5 -282q0 -188 -166 -292l97 -101q49 -51 98 -77.5t149 -51.5zM752 735q0 72 -34 100.5t-130 28.5h-105v-268h66q203 0 203 139z" />
<glyph horiz-adv-x="1134" d="M1073 332q0 -121 -86 -203t-204.5 -113.5t-262.5 -31.5q-162 0 -257 14t-183 55l88 242q178 -53 348 -53q195 0 195 80q0 33 -44 59.5t-112 42.5t-144.5 47t-144 69t-111.5 108.5t-44 164.5q0 156 143 233.5t338 77.5q141 0 216 -11t189 -54l-71 -232q-176 43 -326 43 q-137 0 -137 -57q0 -37 62.5 -68.5t152.5 -61.5t180 -70t152.5 -112.5t62.5 -168.5z" />
<glyph horiz-adv-x="1058" d="M1038 870h-350v-870h-317v870h-351v248h1018v-248z" />
<glyph horiz-adv-x="1366" d="M1223 465q0 -141 -46.5 -240.5t-128 -150.5t-169.5 -72.5t-193 -21.5q-543 0 -543 448v690h320v-682q0 -109 51 -151.5t172 -42.5t172 49t51 178v649h314v-653z" />
<glyph horiz-adv-x="1228" d="M1229 1118l-432 -1118h-432l-365 1118h334l229 -762l31 -120l37 120l272 762h326z" />
<glyph horiz-adv-x="1753" d="M1733 1118l-320 -1118h-373l-145 399l-31 107l-33 -105l-157 -401h-383l-250 1118h311l135 -692l27 -174l59 180l164 402l-102 284h319l226 -696l43 -160l34 174l168 682h308z" />
<glyph horiz-adv-x="1206" d="M1186 1118l-393 -545l391 -573h-369l-209 338l-225 -338h-361l416 571l-370 547h368l189 -309l202 309h361z" />
<glyph horiz-adv-x="1202" d="M1202 1118l-457 -749v-369h-317v360l-428 758h367l231 -481l246 481h358z" />
<glyph horiz-adv-x="1069" d="M1008 926l-592 -666h590v-260h-945v248l545 610h-545v260h947v-192z" />
<glyph horiz-adv-x="1320" d="M1260 578l-426 -428l-205 204l65 66h-612v319h625l-78 76l196 197z" />
<glyph horiz-adv-x="1320" d="M1090 995v-606h-289v94l-432 -434l-226 227l441 443l-109 -2v278h615z" />
<glyph horiz-adv-x="1320" d="M1044 764l-202 -205l-66 66v-613h-321v625l-76 -78l-197 197l436 436z" />
<glyph horiz-adv-x="1320" d="M1145 301l-225 -227l-443 442l2 -110h-278v616h604v-289h-92z" />
<glyph horiz-adv-x="1320" d="M1182 707v-320h-625l78 -76l-197 -196l-436 434l428 428l205 -205l-66 -65h613z" />
<glyph horiz-adv-x="1320" d="M1120 850l-440 -442l108 2v-279h-614v606h289v-94l432 432z" />
<glyph horiz-adv-x="1320" d="M1081 369l-436 -435l-426 428l203 205l65 -67v612h322v-625l76 80z" />
<glyph horiz-adv-x="1320" d="M1063 721v-617h-604v289h92l-432 432l225 228l442 -443l-2 111h279z" />
<glyph horiz-adv-x="1525" d="M1458 578l-579 -580l-205 205l219 217h-811v319h823l-233 232l196 196z" />
<glyph horiz-adv-x="1525" d="M1260 1065v-819h-289v307l-572 -571l-227 225l582 581l-328 -2v279h834z" />
<glyph horiz-adv-x="1525" d="M1296 711l-202 -203l-220 217v-811h-319v823l-231 -233l-197 196l590 590z" />
<glyph horiz-adv-x="1525" d="M1315 231l-228 -225l-581 582l2 -330h-279v836h820v-289h-308z" />
<glyph horiz-adv-x="1525" d="M1380 709v-320h-823l234 -231l-197 -197l-590 590l580 579l204 -204l-219 -217h811z" />
<glyph horiz-adv-x="1525" d="M1288 922l-579 -582h327v-277h-835v820h288v-308l574 572z" />
<glyph horiz-adv-x="1525" d="M1335 428l-592 -592l-579 580l205 205l217 -218v809h321v-821l232 234z" />
<glyph horiz-adv-x="1525" d="M1233 868v-833h-819v289h307l-574 573l228 225l581 -581l-2 327h279z" />
<glyph d="M1481 725q0 -274 -193.5 -468t-468 -194t-468 194t-193.5 468t193.5 467.5t468 193.5t468 -193.5t193.5 -467.5zM1130 762q0 330 -301 330q-92 0 -158.5 -31t-100 -84t-48 -110.5t-14.5 -123.5q0 -332 305 -331q168 0 242.5 98t74.5 252zM909 756v-23v-24q0 -6 -1 -24.5 t-4 -26t-6 -21.5t-10 -21.5t-16.5 -15.5t-22.5 -11t-30 -3q-33 0 -53.5 12t-27.5 42t-8 47.5t-1 57.5v25v27q0 6 1 24.5t4 25.5t7 21.5t12 20.5l16 14q9 8 23.5 11.5t30.5 3.5q41 0 61.5 -27t22.5 -52.5t2 -70.5v-12z" />
<glyph d="M1481 725q0 -274 -193.5 -468t-468 -194t-468 194t-193.5 468t193.5 467.5t468 193.5t468 -193.5t193.5 -467.5zM942 399v670l-352 -10v-168h133v-492h219z" />
<glyph d="M1481 725q0 -274 -193.5 -468t-468 -194t-468 194t-193.5 468t193.5 467.5t468 193.5t468 -193.5t193.5 -467.5zM1075 420v172h-198q193 156 192 282q0 92 -57.5 156t-204.5 64q-78 0 -123 -12.5t-111 -45.5l70 -147q98 31 156 31q31 0 41 -9.5t10 -46.5q0 -20 -22.5 -52 t-63.5 -73l-73 -70q-32 -30 -78 -69t-50 -43v-137h512z" />
<glyph d="M1481 725q0 -274 -193.5 -468t-468 -194t-468 194t-193.5 468t193.5 467.5t468 193.5t468 -193.5t193.5 -467.5zM1073 625q0 51 -32.5 93t-77.5 62q76 47 75 129q0 186 -252 187q-88 0 -204 -43l47 -148q90 20 149 21q45 0 45 -35q0 -23 -6 -34t-37.5 -19.5t-93.5 -8.5 v-133h35h31h25q15 0 23.5 -1t18.5 -4t14.5 -6t9.5 -9t7 -14.5t2 -18.5q0 -31 -15.5 -47t-64.5 -16q-100 0 -174 18l-33 -160q88 -29 217 -28q291 0 291 215z" />
<glyph d="M1481 725q0 -274 -193.5 -468t-468 -194t-468 194t-193.5 468t193.5 467.5t468 193.5t468 -193.5t193.5 -467.5zM1096 545v170h-88v370h-299l-183 -366v-174h265v-125h217v125h88zM791 715h-82l82 200v-200z" />
<glyph d="M1481 725q0 -274 -193.5 -468t-468 -194t-468 194t-193.5 468t193.5 467.5t468 193.5t468 -193.5t193.5 -467.5zM1073 643q0 117 -69.5 163t-198.5 46h-12v63h239v170h-432v-389q43 4 191 4q63 0 63 -65q0 -47 -78 -47q-106 0 -176 14l-35 -170l57 -13q22 -5 44 -7t30 -2 h38h44q127 0 211 61t84 172z" />
<glyph d="M1481 725q0 -274 -193.5 -468t-468 -194t-468 194t-193.5 468t193.5 467.5t468 193.5t468 -193.5t193.5 -467.5zM1108 653q0 115 -69.5 158t-202.5 43q-37 0 -62 -4q33 66 119 65q45 0 111 -14l53 166q-88 25 -162 25q-168 0 -266.5 -96.5t-98.5 -282.5q0 -170 73 -237.5 t222 -67.5q125 0 204 58t79 187zM889 645q0 -66 -58 -65q-43 0 -61 16t-20 76v28q27 2 81 2q33 0 45.5 -9t12.5 -48z" />
<glyph d="M1481 725q0 -274 -193.5 -468t-468 -194t-468 194t-193.5 468t193.5 467.5t468 193.5t468 -193.5t193.5 -467.5zM1085 887v170h-493v-176h248l-250 -461l209 -43z" />
<glyph d="M1481 725q0 -274 -193.5 -468t-468 -194t-468 194t-193.5 468t193.5 467.5t468 193.5t468 -193.5t193.5 -467.5zM1104 612q0 92 -119 156q41 23 69.5 63.5t28.5 86.5q0 80 -73.5 128t-184.5 48q-115 0 -190.5 -45t-75.5 -142q0 -82 92 -139q-47 -23 -81.5 -67t-34.5 -101 q0 -190 280 -190q289 -1 289 202zM864 901q0 -33 -47 -70q-2 2 -12 10.5t-16.5 14.5t-12.5 18.5t-6 26.5q0 41 53 41q41 0 41 -41zM885 623q0 -47 -64 -48q-70 0 -69 48q0 33 63 73q70 -38 70 -73z" />
<glyph d="M1481 725q0 -274 -193.5 -468t-468 -194t-468 194t-193.5 468t193.5 467.5t468 193.5t468 -193.5t193.5 -467.5zM1102 784q0 139 -74 223.5t-209 84.5q-123 0 -202.5 -64.5t-79.5 -175.5q0 -219 260 -219q25 0 61 4q-31 -51 -133 -51q-43 0 -119 16l-51 -164 q94 -29 164 -28q90 0 153.5 14t119 53t83 115.5t27.5 191.5zM879 795v-13q-18 -2 -60 -2q-31 0 -49 14.5t-18 63.5q0 57 61 57q66 1 66 -120z" />
<glyph d="M1563 725q0 -309 -218.5 -526t-525.5 -217t-525 217t-218 526q0 307 218 525t525 218t525.5 -218t218.5 -525zM1399 725q0 240 -170 410t-409.5 170t-409.5 -170t-170 -410t170 -410t409.5 -170t409.5 170t170 410zM1130 762q0 -154 -74.5 -252t-242.5 -98 q-305 0 -305 331q0 66 14.5 123.5t48 110.5t100 84t158.5 31q301 0 301 -330zM909 756q0 106 -22 135q-23 27 -64 27q-16 0 -30.5 -3.5t-23.5 -11.5l-16 -14q-7 -6 -11.5 -20.5t-7.5 -21.5t-4 -25.5t-1 -24.5v-27v-25q0 -41 1 -58t8 -47t27.5 -42t53.5 -12q16 0 29.5 3 t23 11t16.5 15.5t10 21.5t6 21.5t4 25.5t1 25v24v23z" />
<glyph d="M1563 725q0 -309 -218.5 -526t-525.5 -217t-525 217t-218 526q0 307 218 525t525 218t525.5 -218t218.5 -525zM1399 725q0 240 -170 410t-409.5 170t-409.5 -170t-170 -410t170 -410t409.5 -170t409.5 170t170 410zM950 399h-219v492h-135v168l354 10v-670z" />
<glyph d="M1563 725q0 -309 -218.5 -526t-525.5 -217t-525 217t-218 526q0 307 218 525t525 218t525.5 -218t218.5 -525zM1399 725q0 240 -170 410t-409.5 170t-409.5 -170t-170 -410t170 -410t409.5 -170t409.5 170t170 410zM1085 420h-510v137l50 41q49 43 77 71l72 69 q43 42 64.5 74t21.5 52q0 37 -10 46.5t-41 9.5q-57 0 -154 -31l-69 147q113 57 231 58q147 0 205.5 -64.5t58.5 -155.5q0 -127 -192 -282h196v-172z" />
<glyph d="M1563 725q0 -309 -218.5 -526t-525.5 -217t-525 217t-218 526q0 307 218 525t525 218t525.5 -218t218.5 -525zM1399 725q0 240 -170 410t-409.5 170t-409.5 -170t-170 -410t170 -410t409.5 -170t409.5 170t170 410zM1081 625q0 -215 -290 -215l-216 28l33 160 q82 -18 174 -18q47 0 62.5 16t15.5 47q0 10 -2 18.5t-7 14.5t-9 9t-14.5 6t-18.5 4t-24 1h-25h-31h-35v133q90 0 113.5 14.5t23.5 47.5q0 35 -45 35q-25 0 -62.5 -5.5t-61.5 -11.5l-25 -4l-45 146q111 45 205 45q252 0 252 -187q0 -82 -78 -129q45 -20 77.5 -62t32.5 -93z " />
<glyph d="M1563 725q0 -309 -218.5 -526t-525.5 -217t-525 217t-218 526q0 307 218 525t525 218t525.5 -218t218.5 -525zM1399 725q0 240 -170 410t-409.5 170t-409.5 -170t-170 -410t170 -410t409.5 -170t409.5 170t170 410zM1114 545h-88v-125h-219v125h-264v174l182 366h301 v-370h88v-170zM807 715v200l-82 -200h82z" />
<glyph d="M1563 725q0 -309 -218.5 -526t-525.5 -217t-525 217t-218 526q0 307 218 525t525 218t525.5 -218t218.5 -525zM1399 725q0 240 -170 410t-409.5 170t-409.5 -170t-170 -410t170 -410t409.5 -170t409.5 170t170 410zM1063 643q0 -111 -84 -172t-211 -61h-38h-32 q-8 0 -25.5 1t-30.5 3t-34.5 6t-50.5 12l35 170q68 -14 176 -14q76 0 76 47q0 66 -62 65q-150 0 -192 -4v389h434v-170h-242v-63h15q129 0 197.5 -45t68.5 -164z" />
<glyph d="M1563 725q0 -309 -218.5 -526t-525.5 -217t-525 217t-218 526q0 307 218 525t525 218t525.5 -218t218.5 -525zM1399 725q0 240 -170 410t-409.5 170t-409.5 -170t-170 -410t170 -410t409.5 -170t409.5 170t170 410zM1108 653q0 -129 -80 -187t-203 -58 q-150 0 -223.5 67.5t-73.5 237.5q0 186 98.5 282.5t266.5 96.5q78 0 162 -25l-51 -166q-70 14 -113 14q-84 0 -117 -65q23 4 60 4q133 0 203.5 -43t70.5 -158zM889 645q0 39 -13.5 48t-46.5 9q-53 0 -81 -2q0 -18 2 -28q2 -59 19 -75.5t62 -16.5q58 -1 58 65z" />
<glyph d="M1563 725q0 -309 -218.5 -526t-525.5 -217t-525 217t-218 526q0 307 218 525t525 218t525.5 -218t218.5 -525zM1399 725q0 240 -170 410t-409.5 170t-409.5 -170t-170 -410t170 -410t409.5 -170t409.5 170t170 410zM1087 887l-284 -510l-209 43l250 461h-248v176h491 v-170z" />
<glyph d="M1563 725q0 -309 -218.5 -526t-525.5 -217t-525 217t-218 526q0 307 218 525t525 218t525.5 -218t218.5 -525zM1399 725q0 240 -170 410t-409.5 170t-409.5 -170t-170 -410t170 -410t409.5 -170t409.5 170t170 410zM1104 612q0 -203 -287 -202q-281 0 -280 190 q0 109 114 168q-92 59 -92 139q0 96 77 141.5t189 45.5q111 0 185.5 -48.5t74.5 -127.5q0 -45 -28.5 -85t-69.5 -65q117 -60 117 -156zM866 901q0 41 -41 41q-55 0 -55 -41q0 -14 6 -26.5t12 -17.5l18 -14q11 -9 13 -12q47 41 47 70zM885 623q0 35 -70 73q-63 -45 -63 -73 q0 -47 71 -48q62 1 62 48z" />
<glyph d="M1563 725q0 -309 -218.5 -526t-525.5 -217t-525 217t-218 526q0 307 218 525t525 218t525.5 -218t218.5 -525zM1399 725q0 240 -170 410t-409.5 170t-409.5 -170t-170 -410t170 -410t409.5 -170t409.5 170t170 410zM1102 784q0 -219 -98.5 -296.5t-284.5 -77.5 q-72 0 -166 28l51 164q76 -16 121 -16q100 0 131 51q-33 -4 -61 -4q-260 0 -260 219q0 111 79.5 175.5t202.5 64.5q137 0 211 -84.5t74 -223.5zM879 795q0 121 -68 120q-61 0 -61 -57q0 -33 11 -51.5t24.5 -22.5t31.5 -4q43 0 62 2v13z" />
<glyph horiz-adv-x="1318" d="M1155 -2h-991v1339h633l358 -358v-981zM1032 989l-223 225v-225h223zM1075 78v831h-348v348h-483v-1179h831zM633 1083h-295v80h295v-80zM633 909h-295v80h295v-80zM981 737h-643v78h643v-78zM981 563h-643v80h643v-80zM981 389h-643v80h643v-80zM981 215h-643v80h643 v-80z" />
<glyph horiz-adv-x="1497" d="M1497 344h-172v-172h-174v-174h-987v1333h172v174h174v172h987v-1333zM1417 424v1175h-827v-94h735v-1081h92zM1245 250v1175h-829v-94h735v-1081h94zM1071 78v1173h-827v-1173h827zM979 1079h-643v80h643v-80zM979 905h-643v80h643v-80zM979 733h-643v80h643v-80z M979 561h-643v78h643v-78zM979 387h-643v80h643v-80zM979 215h-643v78h643v-78z" />
<glyph d="M1563 1309q49 -121 49 -224.5t-32 -168t-85 -105.5q-63 -49 -172 -49q-115 0 -338 63l-86 23q-72 -248 -92 -615q219 0 237 119q2 37 -26.5 93.5t-73.5 103.5l186 166q20 -18 46 -50t60 -94.5t46 -126.5q20 -72 6 -135t-33.5 -106t-56.5 -79t-58.5 -52.5t-39.5 -26.5 q-119 -72 -299 -72v-290h-244q-4 55 0 350q-117 49 -244 163.5t-192 254.5q-94 195 -37 376q106 336 504 336q25 -2 141 -16q182 455 471 455q113 0 208.5 -77t154.5 -216zM1204 1339q-117 0 -229 -245q106 -37 155 -43q158 -39 201 -25q68 20 19 150q-58 161 -146 163z M317 629q33 -166 248 -310q10 240 60 447q18 92 30 133q-162 14 -263.5 -49t-74.5 -221z" />
<glyph horiz-adv-x="1363" d="M1262 682q0 -236 -167 -402.5t-402.5 -166.5t-402.5 166.5t-167 402.5t167 402.5t402 166.5q238 0 404 -166.5t166 -402.5zM1020 788l-232 37l-106 209l-107 -209l-229 -37l164 -163l-35 -232l207 107l209 -107l-37 232z" />
<glyph horiz-adv-x="1179" d="M983 1444l-586 -248l-110 238l567 288zM1200 0h-330l-88 258h-383l-98 -258h-321l426 1118h421zM705 489l-70 259l-31 141l-37 -141l-80 -259h218z" />
<glyph horiz-adv-x="1179" d="M942 1434l-113 -238l-583 248l129 278zM1200 0h-330l-88 258h-383l-98 -258h-321l426 1118h421zM705 489l-70 259l-31 141l-37 -141l-80 -259h218z" />
<glyph horiz-adv-x="1179" d="M1073 1460l-149 -248l-303 164l-299 -164l-166 246l467 266zM1200 0h-330l-88 258h-383l-98 -258h-321l426 1118h421zM705 489l-70 259l-31 141l-37 -141l-80 -259h218z" />
<glyph horiz-adv-x="1179" d="M1122 1466l-235 -237l-236 237l236 236zM569 1466l-235 -237l-236 237l236 236zM1200 0h-330l-88 258h-383l-98 -258h-321l426 1118h421zM705 489l-70 259l-31 141l-37 -141l-80 -259h218z" />
<glyph horiz-adv-x="1179" d="M1077 1440q-170 -182 -338 -183q-68 0 -154.5 44.5t-97.5 44.5h-22h-29q-8 0 -29.5 -4.5t-37 -10.5t-37 -19.5t-43.5 -31.5l-144 193q158 186 351 186q70 0 149.5 -44t102.5 -44q90 0 202 59zM1200 0h-330l-88 258h-383l-98 -258h-321l426 1118h421zM705 489l-70 259 l-31 141l-37 -141l-80 -259h218z" />
<glyph horiz-adv-x="1179" d="M924 1462q0 -131 -86 -196.5t-213 -65.5t-217.5 59.5t-90.5 198.5q0 133 89.5 204t211.5 71q49 0 98.5 -13.5t98.5 -42t79 -84t30 -131.5zM1200 0h-330l-88 258h-383l-98 -258h-321l426 1118h421zM682 1460h2q0 27 -17.5 43.5t-45.5 16.5q-63 0 -64 -56q0 -61 64 -61 q61 0 61 57zM705 489l-70 259l-31 141l-37 -141l-80 -259h218z" />
<glyph horiz-adv-x="1107" d="M1098 45q-170 -61 -373 -61q-313 0 -478 145t-165 422q0 578 637 577q211 0 377 -73l-86 -228q-147 39 -289 41q-147 2 -232.5 -74.5t-85.5 -228.5q0 -154 93.5 -236.5t257.5 -82.5q135 0 274 35zM895 -270q0 -59 -29.5 -109.5t-86 -89.5t-101.5 -61.5t-107 -49.5 l-116 205q8 4 34.5 18.5t43 24.5t37 26.5t30.5 35t10 39.5q0 29 -24 127h264q45 -103 45 -166z" />
<glyph horiz-adv-x="1144" d="M983 1444l-586 -248l-110 238l567 288zM1042 0h-878v1118h842v-248h-525v-192h490v-236h-490v-194h561v-248z" />
<glyph horiz-adv-x="1144" d="M819 1434l-112 -238l-584 248l129 278zM1042 0h-878v1118h842v-248h-525v-192h490v-236h-490v-194h561v-248z" />
<glyph horiz-adv-x="1144" d="M1036 1460l-149 -248l-303 164l-299 -164l-166 246l467 266zM1042 0h-878v1118h842v-248h-525v-192h490v-236h-490v-194h561v-248z" />
<glyph horiz-adv-x="1144" d="M1128 1466l-235 -237l-236 237l236 236zM575 1466l-235 -237l-236 237l236 236zM1042 0h-878v1118h842v-248h-525v-192h490v-236h-490v-194h561v-248z" />
<glyph horiz-adv-x="645" d="M725 1444l-586 -248l-110 238l567 288zM481 0h-342v1118h342v-1118z" />
<glyph horiz-adv-x="645" d="M573 1434l-112 -238l-584 248l129 278zM481 0h-342v1118h342v-1118z" />
<glyph horiz-adv-x="645" d="M764 1460l-150 -248l-303 164l-299 -164l-166 246l467 266zM481 0h-342v1118h342v-1118z" />
<glyph horiz-adv-x="645" d="M831 1466l-235 -237l-236 237l236 236zM279 1466l-236 -237l-236 237l236 236zM481 0h-342v1118h342v-1118z" />
<glyph horiz-adv-x="1413" d="M1202 1440q-170 -182 -338 -183q-68 0 -154.5 44.5t-97.5 44.5h-22h-29q-8 0 -29.5 -4.5t-37 -10.5t-37 -19.5t-43.5 -31.5l-144 193q158 186 351 186q70 0 149.5 -44t101.5 -44q90 0 203 59zM1284 0h-358l-461 668l16 -140v-528h-317v1118h350l461 -686l-8 119v567h317 v-1118z" />
<glyph horiz-adv-x="1406" d="M1024 1444l-586 -248l-110 238l567 288zM1325 557q0 -279 -164 -427t-471 -148q-299 0 -453.5 152.5t-154.5 424.5q0 279 170 426.5t469 147.5q305 0 454.5 -153t149.5 -423zM1004 559q0 150 -74 237t-223 87q-158 0 -232 -86t-74 -235.5t73 -240t220 -90.5 q310 0 310 328z" />
<glyph horiz-adv-x="1406" d="M983 1434l-113 -238l-583 248l129 278zM1325 557q0 -279 -164 -427t-471 -148q-299 0 -453.5 152.5t-154.5 424.5q0 279 170 426.5t469 147.5q305 0 454.5 -153t149.5 -423zM1004 559q0 150 -74 237t-223 87q-158 0 -232 -86t-74 -235.5t73 -240t220 -90.5q310 0 310 328 z" />
<glyph horiz-adv-x="1406" d="M1151 1460l-150 -248l-303 164l-299 -164l-166 246l467 266zM1325 557q0 -279 -164 -427t-471 -148q-299 0 -453.5 152.5t-154.5 424.5q0 279 170 426.5t469 147.5q305 0 454.5 -153t149.5 -423zM1004 559q0 150 -74 237t-223 87q-158 0 -232 -86t-74 -235.5t73 -240 t220 -90.5q310 0 310 328z" />
<glyph horiz-adv-x="1406" d="M1219 1466l-236 -237l-235 237l235 236zM666 1466l-236 -237l-235 237l235 236zM1325 557q0 -279 -164 -427t-471 -148q-299 0 -453.5 152.5t-154.5 424.5q0 279 170 426.5t469 147.5q305 0 454.5 -153t149.5 -423zM1004 559q0 150 -74 237t-223 87q-158 0 -232 -86 t-74 -235.5t73 -240t220 -90.5q310 0 310 328z" />
<glyph horiz-adv-x="1406" d="M1194 1440q-170 -182 -338 -183q-68 0 -155 44.5t-97 44.5h-22h-29q-8 0 -29.5 -4.5t-37 -10.5t-37 -19.5t-43.5 -31.5l-144 193q158 186 350 186q70 0 150 -44t102 -44q90 0 203 59zM1325 557q0 -279 -164 -427t-471 -148q-299 0 -453.5 152.5t-154.5 424.5 q0 279 170 426.5t469 147.5q305 0 454.5 -153t149.5 -423zM1004 559q0 150 -74 237t-223 87q-158 0 -232 -86t-74 -235.5t73 -240t220 -90.5q310 0 310 328z" />
<glyph horiz-adv-x="1366" d="M1126 1444l-585 -248l-111 238l567 288zM1223 465q0 -141 -46.5 -240.5t-128 -150.5t-169.5 -72.5t-193 -21.5q-543 0 -543 448v690h320v-682q0 -109 51 -151.5t172 -42.5t172 49t51 178v649h314v-653z" />
<glyph horiz-adv-x="1366" d="M1004 1434l-113 -238l-584 248l129 278zM1223 465q0 -141 -46.5 -240.5t-128 -150.5t-169.5 -72.5t-193 -21.5q-543 0 -543 448v690h320v-682q0 -109 51 -151.5t172 -42.5t172 49t51 178v649h314v-653z" />
<glyph horiz-adv-x="1366" d="M1139 1460l-150 -248l-303 164l-299 -164l-166 246l467 266zM1223 465q0 -141 -46.5 -240.5t-128 -150.5t-169.5 -72.5t-193 -21.5q-543 0 -543 448v690h320v-682q0 -109 51 -151.5t172 -42.5t172 49t51 178v649h314v-653z" />
<glyph horiz-adv-x="1366" d="M1178 1466l-236 -237l-235 237l235 236zM625 1466l-236 -237l-235 237l235 236zM1223 465q0 -141 -46.5 -240.5t-128 -150.5t-169.5 -72.5t-193 -21.5q-543 0 -543 448v690h320v-682q0 -109 51 -151.5t172 -42.5t172 49t51 178v649h314v-653z" />
<glyph horiz-adv-x="1314" d="M1176 -10q0 -117 -51.5 -206t-136.5 -139.5t-178 -74t-192 -23.5q-213 0 -462 68l53 268q236 -49 364 -49q139 0 201 35t62 147v23q-82 -57 -183 -57q-92 0 -164.5 10t-153.5 45t-134.5 94t-88 167t-34.5 255q0 276 178 434t442 158q160 0 478 -47v-1108zM834 260v594 q-8 0 -56.5 5t-81.5 5q-279 0 -278 -311q0 -172 65.5 -241.5t188.5 -69.5q101 0 162 18z" />
<glyph horiz-adv-x="1189" d="M1108 45q-174 -61 -375 -61q-254 0 -410.5 96t-207.5 280h-115v144h92q0 6 -1 22.5t-1 24.5q0 12 1 33.5t1 31.5h-92v144h117q104 369 610 368q209 0 379 -73l-88 -228q-147 39 -289 41q-184 4 -262 -108h387v-144h-438q-2 -16 -2 -51q0 -43 4 -61h436v-144h-379 q90 -115 287 -114q137 0 276 35z" />
<glyph horiz-adv-x="1433" d="M1520 625q-43 -80 -105.5 -114t-185.5 -36h-39q-25 -240 -188.5 -370t-407.5 -130q-270 0 -422 154t-152 420q0 274 164 436t428 162q109 0 159 -10.5t161 -53.5l-98 -223q-90 31 -227.5 31t-200 -91t-62.5 -243q0 -324 266 -324q221 0 252 242h-338v250h678 q109 0 156 63z" />
<glyph horiz-adv-x="1961" d="M1860 0h-879v45q-121 -63 -291 -63q-299 0 -453.5 152.5t-154.5 424.5q0 279 170 426.5t469 147.5q186 0 260 -33v18h842v-248h-525v-192h490v-236h-490v-194h562v-248zM981 406v299q-63 178 -274 178q-158 0 -232 -86t-74 -235.5t73 -240t220 -90.5q228 1 287 175z" />
<glyph horiz-adv-x="1742" d="M1640 0h-878v258h-340l-121 -258h-321l559 1118h1065v-248h-525v-192h490v-236h-490v-194h561v-248zM762 489v482l-230 -482h230z" />
<glyph horiz-adv-x="2260" d="M2200 332q0 -121 -86 -203t-205 -113.5t-262 -31.5q-162 0 -257.5 14t-183.5 55l88 242q178 -53 348 -53q195 0 195 80q0 33 -44 59.5t-111.5 42.5t-144.5 47t-144.5 69t-111.5 108.5t-44 164.5q0 156 143.5 233.5t337.5 77.5q141 0 216 -11t190 -54l-72 -232 q-176 43 -326 43q-137 0 -137 -57q0 -37 62.5 -68.5t152.5 -61.5t180.5 -70t153 -112.5t62.5 -168.5zM1073 332q0 -121 -86 -203t-204.5 -113.5t-262.5 -31.5q-162 0 -257 14t-183 55l88 242q178 -53 348 -53q195 0 195 80q0 33 -44 59.5t-112 42.5t-144.5 47t-144 69 t-111.5 108.5t-44 164.5q0 156 143 233.5t338 77.5q141 0 216 -11t189 -54l-71 -232q-176 43 -326 43q-137 0 -137 -57q0 -37 62.5 -68.5t152.5 -61.5t180 -70t152.5 -112.5t62.5 -168.5z" />
</font>
</defs>
</svg>
