<?xml version="1.0" standalone="no"?>
<!DOCTYPE svg PUBLIC "-//W3C//DTD SVG 1.1//EN" "http://www.w3.org/Graphics/SVG/1.1/DTD/svg11.dtd" >
<svg xmlns="http://www.w3.org/2000/svg">
<metadata>
This is a custom SVG webfont generated by Font Squirrel.
Copyright   : Copyright c 2011 by  All rights reserved
</metadata>
<defs>
<font id="webfontCakqAvIG" horiz-adv-x="1130" >
<font-face units-per-em="2048" ascent="1638" descent="-410" />
<missing-glyph horiz-adv-x="368" />
<glyph unicode="&#xfb00;" horiz-adv-x="1286" d="M1573 1513q0 -41 -19.5 -101t-44.5 -87q-51 41 -136 81t-134 40q-96 0 -138 -62.5t-54 -195.5l-9 -70h238v-121h-252l-125 -1192v-256h-194l153 1448h-448l-123 -1185v-263h-197l154 1448h-164v121h176l6 62q16 180 133 284.5t314 104.5q193 0 344 -74q113 74 270 74 q63 0 140 -14.5t110 -41.5zM922 1341q-66 39 -155 72t-142 33q-92 0 -137.5 -64.5t-57.5 -193.5l-8 -70h448l7 62q10 93 45 161z" />
<glyph unicode="&#xfb01;" horiz-adv-x="1202" d="M1122 121q-145 -145 -262 -146q-88 0 -88 82q0 12 14 142l72 884l170 70l-82 -989h176v-43zM1026 1509h2q0 -41 -22.5 -104.5t-47.5 -87.5q-45 35 -163.5 82t-169.5 47q-92 0 -137.5 -64.5t-57.5 -193.5l-8 -70h240v-121h-252l-123 -1185v-263h-197l154 1448h-164v121 h176l6 62q16 180 133 284.5t314 104.5q86 0 181 -17.5t136 -42.5z" />
<glyph unicode="&#xfb02;" horiz-adv-x="1165" d="M1110 121q-143 -143 -262 -144q-88 0 -88 82q0 6 14 142l119 1155q-180 90 -268 90q-94 0 -138.5 -63.5t-56.5 -194.5l-8 -70h240v-121h-252l-123 -1185v-263h-197l154 1448h-164v121h176l6 62q16 180 133 284.5t314 104.5q100 0 204.5 -25.5t157.5 -50.5l-131 -1329h170 v-43z" />
<glyph unicode="&#xfb03;" horiz-adv-x="1802" d="M1716 121q-145 -145 -262 -146q-88 0 -88 82q0 12 14 142l72 884l170 70l-82 -989h176v-43zM1573 1513q0 -41 -19.5 -101t-44.5 -87q-51 41 -136 81t-134 40q-96 0 -138 -62.5t-54 -195.5l-9 -70h238v-121h-252l-125 -1192v-256h-194l153 1448h-448l-123 -1185v-263h-197 l154 1448h-164v121h176l6 62q16 180 133 284.5t314 104.5q205 0 344 -74q113 74 270 74q63 0 140 -14.5t110 -41.5zM922 1341q-184 104 -297 105q-92 0 -137.5 -64.5t-57.5 -193.5l-8 -70h448l7 62q10 89 45 161z" />
<glyph unicode="&#xfb04;" horiz-adv-x="1802" d="M1724 121q-143 -143 -262 -144q-88 0 -88 82q0 6 15 142l118 1155q-180 90 -268 90q-94 0 -138 -63.5t-57 -194.5l-8 -70h240v-121h-252l-123 -1185v-263h-196l153 1448h-448l-123 -1185v-263h-197l154 1448h-164v121h176l6 62q16 180 133 284.5t314 104.5q203 0 342 -74 q113 74 272 74q100 0 204.5 -25.5t158.5 -50.5l-132 -1329h170v-43zM920 1341q-63 37 -155.5 71t-139.5 34q-94 0 -138.5 -63.5t-56.5 -194.5l-8 -70h448l7 62q10 91 43 161z" />
<glyph unicode="ffj" horiz-adv-x="1802" d="M1620 1149l-94 -1184q-14 -158 -154.5 -291t-279.5 -133q-92 0 -172 31q10 102 45 162q92 -31 151 -31q129 0 180.5 55.5t63.5 208.5l86 1110zM1573 1513q0 -41 -19.5 -101t-44.5 -87q-51 41 -136 81t-134 40q-96 0 -138 -62.5t-54 -195.5l-9 -70h238v-121h-252l-78 -741 v-256h-194l106 997h-448l-76 -735v-262h-197l107 997h-164v121h176l6 62q16 180 133 284.5t314 104.5q205 0 344 -74q113 74 270 74q63 0 140 -14.5t110 -41.5zM922 1341q-184 104 -297 105q-92 0 -137.5 -64.5t-57.5 -193.5l-8 -70h448l7 62q10 89 45 161z" />
<glyph unicode="fj" horiz-adv-x="1202" d="M1028 1509q0 -41 -22.5 -104.5t-47.5 -87.5q-45 35 -163.5 82t-169.5 47q-92 0 -137.5 -64.5t-57.5 -193.5l-8 -70h240v-121h-252l-74 -737v-260h-199l107 997h-164v121h176l6 62q16 180 133 284.5t314 104.5q86 0 181 -17.5t138 -42.5zM1018 1149l-94 -1184 q-14 -158 -154.5 -291t-280.5 -133q-92 0 -172 31q10 102 45 162q92 -31 152 -31q129 0 180 55.5t64 208.5l86 1110z" />
<glyph unicode="fk" horiz-adv-x="1630" d="M1606 1067l-414 -481q156 -266 385 -500q-37 -82 -119 -141q-55 47 -101 98l-76 87t-69 100l-55 94l-60 114l-61 119l281 369q57 74 -70 135l8 57h328zM1071 1489l-115 -1178v-311h-204l141 1356q-180 90 -268 90q-92 0 -137.5 -64.5t-57.5 -193.5l-8 -70h248v-121h-260 l-123 -1185v-263h-197l154 1448h-164v121h176l6 62q16 180 133 284.5t314 104.5q188 0 362 -80z" />
<glyph unicode="fb" horiz-adv-x="1675" d="M1618 825q0 -139 -32 -280.5t-95.5 -273.5t-180 -215t-268.5 -83q-147 0 -286 90l141 1291q-176 92 -272 92q-92 0 -137.5 -64.5t-57.5 -193.5l-8 -70h250v-121h-262l-123 -1185v-263h-197l154 1448h-164v121h176l6 62q16 180 133 284.5t314 104.5q201 0 364 -82 l-67 -602q227 248 383 248q78 0 125 -19.5t69.5 -64.5t28.5 -93.5t6 -130.5zM1438 963q-37 10 -70 10q-63 0 -140 -40t-116 -72l-115 -97l-61 -604q94 -49 162 -49q92 0 158.5 69.5t100.5 163.5t53.5 226t23.5 216.5t4 176.5z" />
<glyph unicode="fh" horiz-adv-x="1759" d="M1671 125q-150 -150 -262 -150q-88 0 -88 82q0 39 12 125l101 746q-25 8 -45 8q-86 0 -210 -65.5t-180 -116.5l-47 -424v-330h-198l141 1356q-176 90 -270 90q-92 0 -137.5 -64.5t-57.5 -193.5l-8 -70h250v-121h-262l-123 -1185v-263h-197l154 1448h-164v121h176l6 62 q16 180 133 284.5t314 104.5q156 0 364 -84l-65 -613q98 104 230 182.5t228 78.5q92 0 119 -45.5t10 -163.5l-100 -756h176v-43z" />
<glyph unicode="tt" horiz-adv-x="1523" d="M1487 997h-320l-84 -829q49 -18 86 -18q61 0 248 69l41 -84q-111 -82 -188.5 -118.5t-167.5 -36.5q-53 0 -86 6t-63.5 27.5t-41 68.5t-0.5 123l95 792h-600l-84 -829q49 -18 86 -18q61 0 247 69l41 -84q-111 -82 -188.5 -118.5t-167.5 -36.5q-111 0 -159 40.5t-31 184.5 l90 792h-162v121h182l25 225l168 84l-31 -309h598l27 225l167 84l-30 -309h303v-121z" />
<glyph unicode="ft" horiz-adv-x="1437" d="M1401 997h-320l-84 -829q49 -18 86 -18q61 0 248 69l41 -84q-111 -82 -188.5 -118.5t-167.5 -36.5q-53 0 -86 6t-63.5 27.5t-41 68.5t-0.5 123l95 792h-510l-125 -1192v-256h-195l152 1448h-162v121h176l6 62q18 178 135 283.5t312 105.5q100 0 222 -33t202 -76l-35 -342 h303v-121zM956 1319q-66 47 -162 87t-171 40q-94 0 -136.5 -62.5t-54.5 -195.5l-8 -70h510z" />
<glyph unicode="tf" horiz-adv-x="1431" d="M1718 1513q0 -41 -19.5 -101t-43.5 -87q-51 41 -136 81t-137 40q-94 0 -136 -62.5t-54 -195.5l-8 -70h237v-121h-252l-125 -1192v-256h-194l154 1448h-598l-84 -829q49 -18 86 -18q61 0 247 69l41 -84q-111 -82 -188.5 -118.5t-167.5 -36.5q-111 0 -159 40.5t-31 184.5 l90 792h-162v121h182l25 225l168 84l-31 -309h594l6 62q18 178 135 283.5t311 105.5q63 0 140 -14.5t110 -41.5z" />
<glyph unicode="f&#xef;" horiz-adv-x="1196" d="M1370 1468q-2 -16 -61.5 -71.5t-80 -55.5t-68.5 54.5t-44 72.5q2 20 61.5 73.5t78 53.5t67.5 -53.5t47 -73.5zM1122 121q-145 -145 -262 -146q-88 0 -88 82q0 12 14 142l72 884l170 70l-82 -989h176v-43zM883 1468q-2 -16 -61.5 -71.5t-80.5 -55.5q-16 0 -51 37t-53 68 h-14q-94 2 -136.5 -61.5t-54.5 -196.5l-8 -70h238v-121h-252l-125 -1192v-256h-195l152 1448h-162v121h176l6 62q18 178 135 284.5t312 104.5h12q33 27 47 26q18 0 67.5 -53.5t47.5 -73.5z" />
<glyph unicode=" "  horiz-adv-x="368" />
<glyph unicode="&#x09;" horiz-adv-x="368" />
<glyph unicode="&#xa0;" horiz-adv-x="368" />
<glyph unicode="!" horiz-adv-x="671" d="M535 1448l-156 -1079h-158l74 1079l125 61zM430 72q0 -18 -77 -89t-99.5 -71t-80.5 67.5t-58 92.5q0 20 75.5 87.5t98 67.5t82 -65t59.5 -90z" />
<glyph unicode="&#x22;" horiz-adv-x="894" d="M778 1546l-104 -491h-146l52 491h198zM389 1546l-104 -491h-146l51 491h199z" />
<glyph unicode="#" horiz-adv-x="1257" d="M1163 860l-14 -131h-197l-47 -303h213l-14 -133h-221l-52 -340h-133l52 340h-336l-54 -340h-133l54 340h-187l15 133h192l49 303h-209l13 131h215l51 316h133l-47 -316h334l51 316h133l-51 -316h190zM817 729h-334l-45 -303h332z" />
<glyph unicode="$" horiz-adv-x="993" d="M866 1026q0 -20 -3 -36.5t-7 -27t-13 -22.5t-15 -16l-18 -16q-13 -11 -17 -15q-84 70 -149.5 100.5t-156.5 30.5q-35 0 -63.5 -24.5t-28.5 -53.5q0 -63 41 -133t100 -132l117 -126q59 -63 100.5 -134t41.5 -134q0 -129 -86 -208t-217 -102l-33 -321h-121l31 313 q-86 4 -163 40t-77 97q0 14 1 25.5t5 25t6 19.5t10.5 20.5t10.5 17.5l12 18l12 18q141 -88 193 -105q66 -23 170 -22q33 0 62.5 18.5t29.5 48.5q0 57 -61.5 139.5t-135 156t-135 175t-61.5 191.5q0 231 241 281l35 305h121l-33 -295q254 -4 254 -117z" />
<glyph unicode="%" horiz-adv-x="1568" d="M780 1194q0 -160 -96 -267.5t-254 -107.5q-127 0 -198.5 63.5t-71.5 190.5q0 158 94 269.5t248 111.5q131 0 204.5 -64.5t73.5 -195.5zM1401 1202l-1200 -1085l-78 96l1198 1083zM1411 365q0 -160 -96 -267.5t-254 -107.5q-127 0 -198.5 63.5t-71.5 190.5q0 158 94 269.5 t248 111.5q131 0 204.5 -64.5t73.5 -195.5zM641 1180q0 78 -41 123t-117 45q-96 0 -140 -79t-44 -186q0 -74 39 -114.5t113 -40.5q96 0 143 75t47 177zM1272 350q0 78 -41 123t-117 45q-96 0 -140 -79t-44 -185q0 -74 39 -115t112 -41q96 0 143.5 75t47.5 177z" />
<glyph unicode="&#x26;" horiz-adv-x="1269" d="M1364 702q-31 -68 -96.5 -128t-153.5 -60h-129q-47 -227 -208 -384t-384 -157q-176 0 -248.5 94.5t-72.5 317.5q0 350 154.5 556t379.5 206q125 0 193.5 -34t68.5 -122q0 -113 -59 -199.5t-150 -134.5v-4q104 14 146 15h282q59 0 114.5 27.5t82.5 70.5zM819 514h-373 l-14 102q49 31 83 54.5t78 61.5t66.5 79t22.5 84q0 51 -6 92q-78 43 -156 43q-102 0 -184 -173t-82 -368q0 -74 2 -117.5t3 -60t7 -59.5l10 -74q86 -55 170 -55q139 0 237.5 102.5t135.5 288.5z" />
<glyph unicode="'" horiz-adv-x="505" d="M389 1546l-106 -491h-144l51 491h199z" />
<glyph unicode="(" horiz-adv-x="722" d="M737 1470q-227 -170 -351 -453.5t-124 -584.5q0 -215 73 -427t212 -355l-86 -86q-164 150 -248 376t-84 463q0 336 141.5 658.5t399.5 494.5z" />
<glyph unicode=")" horiz-adv-x="722" d="M598 729q0 -334 -144.5 -650.5t-400.5 -514.5l-69 86q225 190 354 486t129 599q0 209 -74 408.5t-217 326.5l86 86q166 -129 251 -359t85 -468z" />
<glyph unicode="*" horiz-adv-x="874" d="M846 1372l-268 -139l20 -5q12 -3 47 -13.5t61.5 -23.5t53 -37t35.5 -50q4 -12 5 -27l2 -28q1 -14 1 -19l-25 -33l-229 146q4 -20 10 -54t1 -106t-36 -104q-10 -12 -63 -48h-35l39 287l-42 -41q-26 -25 -90.5 -63.5t-111.5 -30.5q-29 4 -69 25l-13 28l264 135l-20 6 q-12 3 -47 14t-62.5 25.5t-53 38t-34.5 50.5q-6 23 -6 75l23 31l231 -154q-6 23 -12 58t-2 108.5t37 106.5q6 6 65 43h33l-35 -287q16 20 44 48t95.5 69t116.5 27q14 -4 33.5 -15.5t26.5 -13.5z" />
<glyph unicode="+" horiz-adv-x="972" d="M973 791l-15 -134h-405l-43 -409h-148l44 409h-406l14 134h406l43 409h147l-43 -409h406z" />
<glyph unicode="," horiz-adv-x="573" d="M408 53q0 -84 -64.5 -203.5t-181.5 -218.5l-66 56q78 109 113 233q-72 111 -72 186q0 39 79 63t136 24q14 -16 35 -65.5t21 -74.5z" />
<glyph unicode="-" horiz-adv-x="780" d="M688 690l-18 -170l-576 2l15 135z" />
<glyph unicode="." horiz-adv-x="573" d="M438 72q0 -18 -76.5 -89t-99 -71t-81 67.5t-58.5 92.5q0 20 75.5 87.5t98 67.5t82 -65t59.5 -90z" />
<glyph unicode="/" horiz-adv-x="1081" d="M1114 1458l-1110 -1823l-104 58l1110 1823z" />
<glyph unicode="0" horiz-adv-x="999" d="M930 723q0 -92 -15.5 -189.5t-52.5 -200t-90 -181t-138 -129t-188 -50.5q-199 0 -281.5 104.5t-82.5 309.5q0 117 20.5 236.5t67.5 240.5t139 198t217 77q404 0 404 -416zM748 700q0 152 -25 230q-78 66 -227 65q-231 0 -232 -546q0 -156 19 -269q66 -55 223 -55 q78 0 131 64.5t74.5 169t29 183t7.5 158.5z" />
<glyph unicode="1" horiz-adv-x="671" d="M508 1155l-84 -825v-330h-215l104 979h-252l13 117z" />
<glyph unicode="2" horiz-adv-x="897" d="M770 879q0 -291 -532 -729l526 38l-16 -188h-699l-20 100q225 195 394 425.5t169 385.5q-43 49 -90 67.5t-123 18.5q-68 0 -195 -34l17 127q127 53 250 53q145 0 232 -72.5t87 -191.5z" />
<glyph unicode="3" horiz-adv-x="772" d="M688 911q0 -100 -98 -219t-209 -190q117 -25 203 -111t86 -198q0 -209 -172 -372t-381 -163q-162 0 -293 59q12 68 74 177q61 -37 148 -62t155 -25q123 0 207 95.5t84 220.5q0 211 -261 260l-32 82q98 63 207.5 211.5t111.5 249.5q-59 72 -178 71q-117 0 -238 -49l19 133 q125 61 287 62q117 0 198.5 -59.5t81.5 -172.5z" />
<glyph unicode="4" horiz-adv-x="1019" d="M950 219l-18 -168h-232l-28 -381h-195l47 381h-526l-31 82l539 985h115l-465 -899h387l94 899h176l-94 -899h231z" />
<glyph unicode="5" horiz-adv-x="905" d="M848 1118l-35 -190l-469 30l-53 -258q106 -29 212.5 -95t186.5 -172.5t80 -219.5q0 -221 -162 -389t-399 -168q-135 0 -291 61q25 90 78 174q168 -86 299 -86q287 0 287 316q0 94 -38 169t-108.5 127t-138.5 85t-162 65l115 551h598z" />
<glyph unicode="6" horiz-adv-x="1050" d="M969 1444q-14 -84 -58 -160q-96 31 -157 31q-410 0 -469 -817q-10 -113 -11 -273q92 -109 215 -108q246 0 246 585q-41 35 -72.5 47.5t-101.5 12.5q-80 0 -106 -4l4 114q92 25 176 25q178 0 234.5 -69.5t56.5 -206.5q0 -154 -58.5 -300.5t-176.5 -247t-267 -100.5 q-168 0 -252 89.5t-84 285.5q0 184 46 379t129 362.5t215 276.5t286 109q123 0 205 -31z" />
<glyph unicode="7" horiz-adv-x="868" d="M879 1024l-748 -1417l-131 59l678 1264l-590 -12q2 137 33 200h715z" />
<glyph unicode="8" horiz-adv-x="1079" d="M956 1223q0 -201 -288 -430q88 -76 133 -120t88 -114t43 -133q0 -197 -137.5 -326t-337.5 -129q-180 0 -277.5 64.5t-97.5 230.5q0 76 28.5 147.5t90 141.5t102.5 108.5t117 102.5q-188 176 -189 324q0 158 117 269t289 111q147 0 233 -64t86 -183zM786 1266 q-74 88 -202 88q-82 0 -132.5 -51.5t-50.5 -141.5q0 -82 53.5 -155.5t153.5 -161.5q74 96 126 213t52 209zM739 377q0 18 -4 37.5t-15 40l-18.5 35t-29 38t-31.5 35.5t-38 38l-38 35l-44 39q-34 30 -42 38q-84 -104 -152.5 -255t-68.5 -261q100 -106 270 -107q94 0 152.5 80 t58.5 207z" />
<glyph unicode="9" horiz-adv-x="1050" d="M942 768q0 -184 -46 -378.5t-129 -362.5t-215 -276.5t-288 -108.5q-121 0 -203 30q14 84 58 160q111 -31 157 -31q410 0 469 817q10 113 11 273q-94 111 -215 110q-246 0 -246 -587q41 -35 72.5 -47.5t101.5 -12.5q63 0 106 6l-4 -116q-84 -23 -176 -23 q-178 0 -234.5 69.5t-56.5 205.5q0 156 58.5 301t176.5 245.5t265 100.5q170 0 254 -89t84 -286z" />
<glyph unicode=":" horiz-adv-x="573" d="M485 993q0 -18 -76.5 -88.5t-99 -70.5t-81 67.5t-58.5 91.5q0 20 76 88t98.5 68t81.5 -65.5t59 -90.5zM391 72q0 -18 -76.5 -89t-99 -71t-81 67.5t-58.5 92.5q0 20 75.5 87.5t98 67.5t82 -65t59.5 -90z" />
<glyph unicode=";" horiz-adv-x="573" d="M475 991q0 -18 -78 -89t-98 -71q-23 0 -81 68t-58 92q0 20 74.5 88t97 68t83 -65.5t60.5 -90.5zM358 53q0 -84 -65.5 -202.5t-181.5 -219.5l-64 56q78 109 113 233q-72 111 -72 186q0 39 79 63t136 24q14 -16 34.5 -65.5t20.5 -74.5z" />
<glyph unicode="&#x3c;" horiz-adv-x="897" d="M870 999l-688 -276l631 -274l-61 -121l-727 319l16 154l795 319z" />
<glyph unicode="=" horiz-adv-x="1083" d="M969 981l-15 -135h-798l14 135h799zM928 598l-15 -135h-796l14 135h797z" />
<glyph unicode="&#x3e;" horiz-adv-x="897" d="M934 801l-16 -154l-795 -319l-35 121l688 274l-631 276l62 121z" />
<glyph unicode="?" horiz-adv-x="888" d="M868 1186q0 -63 -46 -136t-114 -141l-140 -131q-71 -63 -128 -124.5t-73 -106.5q4 -12 67 -123l-143 -86q-6 6 -20 22l-18 23q-5 6 -14.5 19.5t-12.5 23.5t-6 24.5t-3 30.5q0 66 62.5 162t140.5 177l169 178q91 97 128 149q-14 63 -113.5 103t-185.5 40q-139 0 -238 -26 q-35 51 -35 139q141 57 336 57q88 0 172 -25.5t149.5 -90t65.5 -158.5zM520 72q0 -18 -76.5 -89t-99 -71t-81 67.5t-58.5 92.5q0 20 75.5 87.5t98 67.5t82 -65t59.5 -90z" />
<glyph unicode="@" horiz-adv-x="1515" d="M1475 858q0 -123 -29 -239.5t-86 -219t-157.5 -165t-231.5 -62.5q-68 0 -107 41t-30 109q-158 -133 -261 -134q-94 0 -124.5 33t-30.5 123q0 139 46 262t146.5 207t235.5 84t219 -45l-78 -459q-6 -49 -6 -51q0 -41 29 -41q94 0 164.5 54.5t107.5 141.5t54.5 175t17.5 174 q0 375 -371 375q-156 0 -285 -49.5t-219 -135.5t-151.5 -203.5t-90 -253t-28.5 -284.5q0 -231 109.5 -344t338.5 -113q158 0 306 37l14 -102q-129 -53 -352 -54q-264 0 -403.5 148.5t-139.5 417.5q0 287 102.5 520t314.5 379.5t500 146.5q233 0 354.5 -120t121.5 -353z M897 772q-29 10 -68 10q-92 0 -154.5 -73.5t-84 -163.5t-21.5 -189q20 -14 41 -14q68 0 232 84z" />
<glyph unicode="A" horiz-adv-x="1341" d="M1280 82q-6 -61 -14 -82h-535q-1 22 -1 42t1 40l123 41q70 23 70 135q0 20 -9 78l-36 254h-469l-170 -324q-10 -20 -11 -47q0 -33 27 -61.5t74 -44.5l100 -31q0 -6 -1 -24.5t-2 -34t-5 -23.5h-504q-2 23 -2 43t2 39q135 102 170 166l643 1186l172 51l207 -1213 q4 -27 14.5 -48t18.5 -34.5t29.5 -32t29.5 -24.5t39 -25.5t39 -25.5zM862 715l-61 432l-13 141h-22l-64 -137l-227 -436h387z" />
<glyph unicode="B" horiz-adv-x="1286" d="M1180 465q0 -203 -165 -334t-390 -131h-609q-1 6 0 18q0 24 2 72q6 2 32 7t40 9q72 16 112 47t44 99l73 985q1 9 2 17q0 53 -49 69l-133 53q0 41 15 72h512q88 0 163.5 -13.5t144 -46t108.5 -95t40 -150.5q0 -104 -59 -196.5t-162 -153.5v-5q127 -31 203 -118.5 t76 -204.5zM920 1108q0 113 -82 164t-197 57l-137 6l-33 -528l162 6q287 8 287 295zM999 416q0 117 -85 193.5t-220 78.5l-229 6l-37 -569h188q174 0 278.5 73t104.5 218z" />
<glyph unicode="C" horiz-adv-x="1261" d="M1237 1386l-23 -307h-73q-20 129 -97 195.5t-190 66.5q-266 0 -407.5 -179t-141.5 -457q0 -283 110.5 -430.5t385.5 -147.5q154 0 303 63l41 -124q-178 -92 -402 -93q-338 0 -492.5 174.5t-154.5 511.5q0 352 213 583t555 231q207 -1 373 -87z" />
<glyph unicode="D" horiz-adv-x="1470" d="M1397 803q0 -397 -209 -600t-598 -203h-570q-3 22 -3 44.5t3 45.5q12 4 62.5 16.5t77.5 20.5q84 23 92 145l74 973q4 61 -50 78l-143 49q0 47 12 76l533 10h24q315 0 501 -158q194 -163 194 -497zM1182 782q0 539 -518 539h-162l-70 -1196l150 4q309 8 454.5 173 t145.5 480z" />
<glyph unicode="E" horiz-adv-x="1210" d="M1143 332l-60 -332h-1063q-3 25 -3 48t3 44l140 37q37 8 61.5 43t28.5 80l74 985q4 27 -8.5 52.5t-36.5 33.5l-148 53q0 37 14 72h971l-22 -322q-17 -3 -41.5 -3t-55.5 3q-12 96 -45.5 140.5t-109.5 46.5l-336 12l-37 -534l516 10l-10 -148l-514 11l-27 -539l348 8 q102 2 174 64.5t107 146.5z" />
<glyph unicode="F" horiz-adv-x="1116" d="M1137 1448l-25 -346q-13 -1 -25 -1q-29 0 -47 7q-35 180 -192 192l-344 25l-39 -575l536 10l-10 -156l-534 19l-21 -398q-4 -66 43 -73l226 -48q-6 -78 -15 -104h-649q-4 23 -4 48q0 17 2 34l119 37q37 10 62.5 49t29.5 84l74 985q4 27 -8.5 52.5t-36.5 33.5l-148 53 q0 37 14 72h992z" />
<glyph unicode="G" horiz-adv-x="1361" d="M1247 1386l-20 -307h-74q-29 127 -106.5 194.5t-192.5 67.5q-266 0 -407.5 -179t-141.5 -457q0 -283 110.5 -429.5t385.5 -146.5q88 0 213 29l30 465h177l-33 -539q-78 -41 -199 -72.5t-225 -31.5q-344 0 -506 167.5t-162 511.5q0 352 213 583t555 231q244 -1 383 -87z " />
<glyph unicode="H" horiz-adv-x="1599" d="M1567 1448q-6 -68 -11 -84l-106 -25q-35 -8 -49.5 -24.5t-16.5 -59.5l-65 -1030q-1 -9 -1 -18q0 -59 38 -68l166 -39q-6 -72 -15 -100h-579q-3 25 -3 47.5t3 42.5l84 23q61 18 92 77.5t37 120.5l26 353h-727l-22 -437q-2 -70 45 -82l188 -51q-6 -66 -14 -94h-621 q-4 23 -3 48q0 17 1 34l121 43q43 16 70.5 67.5t32.5 102.5l65 897q1 14 1 27q0 95 -66 114l-134 39q6 53 15 76h547q4 -25 3 -50q0 -17 -1 -34l-113 -27q-43 -10 -56.5 -27.5t-17.5 -60.5l-30 -458h727l24 380q1 8 1 16q0 38 -16 82q-19 52 -61 68l-94 35q6 70 8 76h527z " />
<glyph unicode="I" horiz-adv-x="688" d="M653 1448q2 -15 2 -36t-2 -48l-82 -16q-49 -12 -74.5 -60.5t-29.5 -105.5l-61 -975q-4 -39 6 -55.5t43 -24.5l157 -33q-6 -61 -14 -94h-573q-4 23 -4 48q0 17 2 34l110 43q78 29 90 147l66 904q1 13 1 25q0 106 -95 142l-76 29q-1 11 -1 21q0 30 9 55h526z" />
<glyph unicode="J" horiz-adv-x="692" d="M680 1366l-98 -23q-49 -12 -66.5 -31.5t-19.5 -64.5l-76 -1071q-8 -109 -42 -194.5t-96.5 -150t-133 -113t-175.5 -99.5l-57 113q170 100 246 225t90 340l61 887q1 7 1 13q0 40 -21 82q-25 48 -72 64l-84 29q6 55 15 76h528q2 -23 2 -43.5t-2 -38.5z" />
<glyph unicode="K" horiz-adv-x="1378" d="M1374 63l-28 -108q-39 0 -88.5 6t-131.5 38t-125 87l-469 614l7 84l403 420q47 49 49 78q0 41 -37 55l-92 29q0 37 12 82h472l-7 -84l-626 -567l401 -527q106 -141 260 -207zM676 1368l-105 -39q-39 -14 -60.5 -56t-25.5 -89l-61 -963q-2 -37 6 -52t31 -22l129 -43 q0 -66 -15 -104h-567q-5 32 -4 57q0 19 2 33l139 47q78 27 86 137l70 920v14q0 92 -53 113l-119 43q-2 14 -2 27q0 31 10 57h537q3 -44 3 -65q0 -10 -1 -15z" />
<glyph unicode="L" horiz-adv-x="1071" d="M1044 332l-61 -332h-969q-2 25 -2 47.5t2 42.5l131 37q37 8 60.5 43t27.5 80l72 946q1 13 1 24q0 89 -56 109l-123 43q6 55 12 76h529q3 -38 2 -62v-20l-99 -23q-45 -10 -64.5 -28.5t-21.5 -57.5l-67 -1126l280 10q190 27 267 203z" />
<glyph unicode="M" horiz-adv-x="1974" d="M1860 1376l-99 -33q-90 -31 -88 -167l17 -938q0 -70 67 -109l86 -43q0 -41 -12 -86h-520q-2 29 -2 49.5t2 32.5l88 27q41 12 62.5 53t24.5 76.5t5 89.5v12l2 713l2 114h-20l-551 -1167l-119 -41l-223 1204h-23l-10 -106l-273 -836q-7 -20 -6 -34q0 -31 29 -40l184 -59 q-6 -68 -14 -88h-516q-4 23 -4 48q0 17 2 34l74 37q82 39 122 164l302 925q5 15 4 30q0 22 -11 44q-18 37 -49 47l-123 43q6 55 15 76h411l170 -807l56 -311h14l143 301l400 817h379q3 -37 2 -56q1 -11 0 -16z" />
<glyph unicode="N" horiz-adv-x="1642" d="M1630 1376l-119 -33q-39 -12 -66.5 -55t-31.5 -92l-84 -1194l-149 -45l-719 1257h-23l8 -170l-53 -817q-2 -39 6.5 -54t40.5 -28l166 -59q0 -41 -12 -86h-569q-4 23 -4 48q0 17 2 34l118 37q47 14 78 67.5t35 108.5l61 924q2 37 -13 68.5t-42 41.5l-110 43q6 61 10 76 h405l654 -1120h22l-6 223l45 641q2 43 -18.5 84t-53.5 53l-121 43q6 55 13 76h528q3 -30 3 -52q0 -11 -1 -20z" />
<glyph unicode="O" horiz-adv-x="1486" d="M1413 817q0 -223 -80 -410.5t-247.5 -308.5t-393.5 -121q-289 0 -444.5 180.5t-155.5 479.5q0 221 87 410.5t259 308.5t393 119q276 0 429 -184.5t153 -473.5zM1208 764q0 152 -39 274.5t-138 208.5t-247 86q-154 0 -267.5 -101.5t-164.5 -243.5t-51 -298 q0 -113 22.5 -210t69.5 -180t134 -131t204 -48q145 0 258 102.5t166 246.5t53 294z" />
<glyph unicode="P" horiz-adv-x="1159" d="M1159 1058.5q0 -198.5 -132 -325.5t-339 -127q-45 0 -94 6l12 115h49q293 0 293 291q0 70 -16.5 123t-53 84.5t-70.5 51t-98.5 30t-103.5 13.5t-114 5l-70 -1114q-4 -51 45 -66l201 -53q-4 -55 -15 -92h-626q-3 35 -3 60q0 12 1 22q100 31 118 37q41 12 64.5 50t28.5 81 l73 987q1 9 1 18q0 54 -46 68l-145 53q-2 31 12 72h598q203 0 316.5 -95.5t113.5 -294z" />
<glyph unicode="Q" horiz-adv-x="1484" d="M1413 817q0 -223 -80 -410.5t-247.5 -308.5t-393.5 -121q-289 0 -444 181q-154 178 -154 471q0 229 87 418.5t258 308.5t392 119q276 0 429 -184.5t153 -473.5zM1446 -293l-62 -168q-113 0 -249 43t-291.5 110.5t-222.5 88.5l30 135q70 -12 366 -103.5t429 -105.5z M1208 764q0 152 -39 274.5t-138 208.5t-247 86q-154 0 -267.5 -101.5t-164.5 -243.5t-51 -298q0 -113 22.5 -210t69.5 -180t134 -131t204 -48q145 0 258 102.5t166 246.5t53 294z" />
<glyph unicode="R" horiz-adv-x="1337" d="M1372 51l-14 -98q-10 0 -27.5 1t-25.5 1q-184 12 -293 107.5t-211 283.5l-133 260h-219l-27 -395q-4 -51 45 -66l201 -53q-4 -55 -15 -92h-626q-3 35 -3 60q0 12 1 22l118 37q41 12 64.5 50t28.5 81l73 987q1 9 1 18q0 54 -46 68l-145 53q-2 31 12 72h598 q203 0 316.5 -95.5t113.5 -293.5q0 -150 -76.5 -260.5t-212.5 -161.5q113 -199 119 -209q197 -324 383 -377zM948 1018q0 70 -16.5 123t-53 84.5t-70.5 51t-98.5 30t-103.5 13.5t-114 5l-37 -596h200q135 0 214 63.5t79 225.5z" />
<glyph unicode="S" horiz-adv-x="1015" d="M954 1382q-14 -143 -39 -258h-65q-27 96 -103.5 151.5t-177.5 55.5q-88 0 -154.5 -45t-66.5 -129q0 -70 42 -138.5t106 -122.5l137 -120l137 -125q63 -59 105.5 -140t42.5 -167q0 -182 -145.5 -276.5t-334.5 -94.5q-262 0 -438 121q14 55 84 285h51q31 -133 113 -208 t213 -75q102 0 185 57.5t83 159.5q0 57 -41 116.5t-101 110.5l-131 112q-71 62 -131.5 124t-101.5 148t-41 178q0 150 129 254t283 104q231 0 360 -78z" />
<glyph unicode="T" horiz-adv-x="1294" d="M1290 1448l-22 -332q-22 -5 -52 -5q-15 0 -32 1q-27 207 -183 207h-225l-69 -1112q-2 -39 6 -55.5t37 -24.5l188 -35q-6 -70 -14 -92h-652q-2 25 -2 48t2 44l152 39q37 8 64.5 54t31.5 91l80 1043h-246q-133 0 -190 -207q-16 -1 -30 -1q-29 0 -52 5l22 332h1186z" />
<glyph unicode="U" horiz-adv-x="1572" d="M1561 1450q1 -10 0 -23q0 -25 -2 -59l-121 -33q-61 -16 -66 -86l-49 -702q-20 -305 -189 -439.5t-429 -134.5q-113 0 -198 23.5t-155.5 78t-102.5 159.5q-24 80 -24 185q0 34 2 70l49 730q1 7 1 14q0 27 -12 53q-15 33 -44 43l-121 43q0 45 13 78h569q1 -10 0 -21 q0 -32 -4 -67l-135 -23q-57 -10 -62 -69l-53 -766q-2 -34 -2 -64q0 -174 79 -247q93 -86 271 -87q180 0 272.5 97.5t108.5 349.5l41 649q4 113 -102 146l-82 24q0 4 6 78h541z" />
<glyph unicode="V" horiz-adv-x="1359" d="M1380 1450q1 -9 1 -18q0 -27 -5 -56l-39 -33q-80 -63 -125 -161l-540 -1182l-137 -39l-318 1229q-27 111 -63 131l-107 59q0 37 12 70h527q2 -25 2 -47.5t-2 -42.5l-103 -21q-71 -15 -71 -74q0 -13 4 -28l225 -993l406 903q12 23 12 60q0 19 -3 41q-9 67 -46 83l-90 45 q6 49 14 74h446z" />
<glyph unicode="W" horiz-adv-x="2033" d="M2058 1374l-35 -33q-78 -70 -106 -145l-467 -1200l-141 -37l-283 950l-448 -909l-132 -35l-266 1262q-6 25 -20.5 49t-24.5 34.5t-39.5 36l-36.5 31.5q0 39 13 70h463q2 -25 2 -43.5t-2 -30.5l-103 -35q-39 -12 -52 -57q-8 -25 -8 -53q0 -21 5 -43l184 -942l414 841 l-45 181q-18 66 -78 112q-1 12 -1 24q0 24 3 46h391q2 -25 2 -43.5t-2 -30.5l-45 -33q-37 -25 -54 -65q-10 -24 -10 -50q0 -18 5 -36l270 -957l348 949q12 29 12 64q0 8 -1 16q-3 45 -31 59l-111 55q0 41 12 72h418q2 -25 2 -43.5t-2 -30.5z" />
<glyph unicode="X" horiz-adv-x="1427" d="M1464 1448q2 -18 -8 -82q-63 -16 -137 -62.5t-117 -97.5l-366 -426l290 -510q29 -49 61 -81.5t60.5 -51t93.5 -55.5q-6 -61 -12 -82h-514q-2 29 -2 49.5t2 32.5l86 47q35 19 35 52q0 26 -21 61l-215 383l-313 -367q-26 -30 -26 -67q0 -41 28 -54l113 -55q-6 -61 -13 -82 h-512q-2 29 -2 49.5t2 32.5l76 37q74 33 191 162l397 450l-258 461q-10 18 -25.5 36.5t-28 31t-37 31t-33.5 24.5l-40 25q-31 19 -35 24q-4 10 -2 39t6 45h492q2 -30 2 -51t-2 -33l-84 -37q-28 -12 -28 -48q0 -27 18 -58l190 -336l289 323q25 27 26 64t-24 49l-84 45 q6 74 8 82h473z" />
<glyph unicode="Y" horiz-adv-x="1275" d="M1321 1376q-113 -45 -170 -125l-440 -620l-23 -383q-1 -8 -1 -16q0 -30 12 -58q15 -35 44 -43l166 -45q-6 -53 -14 -86h-625q-2 33 -2 56.5t2 37.5l144 37q78 18 88 121l33 379l-340 592q-35 57 -80 98q-12 12 -37 31.5t-31 25.5q0 49 8 70h486q1 -19 1 -37.5t-1 -36.5 l-103 -39q-38 -13 -38 -68q0 -41 22 -79l231 -432l308 442q16 24 15 52q0 9 -1 18q-6 39 -35 53l-106 55q0 45 8 72h477q2 -25 2 -72z" />
<glyph unicode="Z" horiz-adv-x="1177" d="M1122 1362l-868 -1225l481 19q102 4 172 64.5t105 141.5l80 -12l-62 -350h-989l-27 113l852 1214l-442 -20q-139 -20 -186 -205l-29 -2q-28 0 -55 6l22 342h920z" />
<glyph unicode="[" horiz-adv-x="710" d="M664 1544l-13 -121h-184l-184 -1753h184l-12 -121h-324l209 1995h324z" />
<glyph unicode="\" horiz-adv-x="1089" d="M1006 -299l-129 -70l-768 1842l129 69z" />
<glyph unicode="]" horiz-adv-x="710" d="M580 1544l-209 -1995h-324l12 121h185l184 1753h-184l12 121h324z" />
<glyph unicode="^" horiz-adv-x="1110" d="M924 602h-152l-174 709l-371 -709h-141l446 846h160z" />
<glyph unicode="_" horiz-adv-x="1024" d="M1024 -334h-1024v135h1024v-135z" />
<glyph unicode="`" horiz-adv-x="1163" d="M920 1405q-16 -70 -46 -105l-193 62q-126 39 -217 70.5t-183 70.5q35 117 84 185q213 -123 555 -283z" />
<glyph unicode="a" horiz-adv-x="1081" d="M991 119q-143 -143 -262 -144q-88 0 -88 80q0 20 16 168q-111 -117 -209 -183.5t-210 -66.5q-92 0 -126 45t-34 144q0 154 28.5 308.5t92 310t187.5 252.5t290 97q123 0 242 -55l-99 -909l172 2v-49zM741 948q-59 37 -161 37q-90 0 -159 -100.5t-102.5 -245.5t-50 -273 t-16.5 -219q23 -8 49 -8q35 0 76 15.5t86 44.5l77 50q32 22 76 57l56 44z" />
<glyph unicode="b" horiz-adv-x="1015" d="M958 825q0 -109 -18 -221t-62 -227t-108.5 -204t-165 -144.5t-221.5 -55.5q-147 0 -287 90l148 1348h-193v92q195 53 285 53q37 0 59.5 -14t18.5 -47l-68 -610q227 248 383 248q145 0 187 -72t42 -236zM778 963q-37 10 -69 10q-63 0 -139 -39t-119 -74l-113 -96l-62 -604 q94 -49 162 -49q92 0 159 69.5t100.5 163.5t53 226t23.5 216.5t4 176.5z" />
<glyph unicode="c" horiz-adv-x="856" d="M836 1081q-4 -111 -52 -172q-131 82 -280 82q-244 0 -244 -795v-14v-22q39 -20 96 -21q104 0 371 133l45 -88q-94 -82 -238.5 -146.5t-261.5 -64.5q-197 0 -196 187q0 977 518 977q150 -1 242 -56z" />
<glyph unicode="d" horiz-adv-x="1048" d="M991 121q-141 -145 -262 -146q-88 0 -88 82q0 16 16 164q-113 -117 -210 -182.5t-209 -65.5q-92 0 -126 44t-34 145q0 154 28.5 308.5t92 309t187.5 251.5t290 97q53 0 84 -4l31 287h-201v105q168 41 307 40q41 0 56.5 -14t11.5 -49l-148 -1327h174v-45zM739 958l2 -2 q-59 31 -161 31q-88 0 -157 -100.5t-103.5 -246.5t-51 -274t-16.5 -219q21 -9 46 -8q70 0 177 66q18 10 197 141z" />
<glyph unicode="e" horiz-adv-x="888" d="M872 965q0 -199 -143 -311.5t-457 -168.5q-8 -109 -8 -311q61 -29 109 -29q109 0 346 109l43 -90q-92 -82 -215 -136.5t-240 -54.5q-127 0 -175 73t-48 280q0 145 23.5 275t80 259t169 206t270.5 77q115 0 180 -47t65 -131zM674 911q0 100 -144 101q-193 0 -247 -418 q166 33 250.5 76t112.5 96t28 145z" />
<glyph unicode="f" horiz-adv-x="671" d="M958 1513q0 -41 -19 -101t-44 -87q-51 41 -136 81t-136 40q-94 0 -136.5 -62.5t-54.5 -195.5l-8 -70h238v-121h-252l-125 -1192v-256h-195l152 1448h-162v121h176l6 62q18 178 135 283.5t312 105.5q63 0 139.5 -14.5t109.5 -41.5z" />
<glyph unicode="g" horiz-adv-x="1003" d="M913 1075l-122 -1147q-12 -121 -106.5 -214t-208.5 -135t-216 -42q-174 0 -311 39q2 74 39 172q178 -41 241 -41q76 0 124 3t101.5 17.5t84 41t53 74.5t31.5 118l28 264q-74 -76 -127 -122t-134 -87t-159 -41q-92 0 -125.5 44t-33.5 145q0 98 12 199.5t37.5 213t74 208 t112 175t157.5 123.5t207 45q120 0 241 -53zM737 952q-55 33 -162 33q-90 0 -159.5 -101.5t-103 -249t-50 -273t-16.5 -211.5q18 -8 45 -9q43 0 101.5 27t90 48.5t105.5 76.5t78 57z" />
<glyph unicode="h" horiz-adv-x="1114" d="M1026 125q-145 -150 -262 -150q-86 0 -86 82q0 53 10 125l103 746q-29 8 -48 8q-86 0 -209.5 -65.5t-179.5 -116.5l-47 -424v-330h-198l147 1411h-203v105q168 41 307 40q70 0 70 -49v-14l-68 -621q98 102 231.5 181.5t227.5 79.5q74 0 104.5 -29t30.5 -96q0 -35 -6 -84 l-100 -756h176v-43z" />
<glyph unicode="i" horiz-adv-x="530" d="M455 1473q0 -18 -69 -81t-89.5 -63t-72.5 59.5t-52 81.5q0 20 67.5 81t88 61t74 -58t53.5 -81zM449 121q-145 -145 -263 -146q-88 0 -88 82q0 12 15 142l88 884l170 70l-99 -989h177v-43z" />
<glyph unicode="j" horiz-adv-x="520" d="M463 1473q0 -18 -68.5 -81t-89 -63t-73 59.5t-52.5 81.5q0 20 67.5 81t88 61t74 -58t53.5 -81zM385 1149l-94 -1184q-12 -158 -152.5 -291t-281.5 -133q-86 0 -172 31q10 96 45 162q92 -31 151 -31q131 0 181.5 54.5t62.5 209.5l86 1110z" />
<glyph unicode="k" horiz-adv-x="983" d="M958 1067l-413 -481q80 -137 165 -250t222 -250q-37 -80 -121 -141q-55 47 -101 98l-76 87t-69 100l-55 94l-60 114l-61 119l281 369q19 24 18 46q0 48 -88 89l8 57h328zM426 1493l-123 -1169v-324h-201l150 1411h-201v105q168 41 307 40q41 0 57 -14q12 -11 12 -35 q0 -7 -1 -14z" />
<glyph unicode="l" horiz-adv-x="579" d="M461 121q-143 -143 -262 -144q-88 0 -88 82q0 6 14 142l143 1210h-200v105q168 41 307 40q41 0 56 -14t11 -49l-151 -1329h170v-43z" />
<glyph unicode="m" horiz-adv-x="1677" d="M1589 129q-156 -156 -266 -156q-88 0 -88 82q0 47 18 154l121 723q-18 8 -49 8q-86 0 -207 -65.5t-180 -118.5l-70 -482v-274h-202l125 932q-23 8 -50 8q-86 0 -207.5 -66.5t-179.5 -119.5l-47 -424v-330h-198l112 1079l174 72l-28 -274q98 104 227 180t227 76 q92 0 121 -44q19 -29 19 -89q0 -29 -5 -66l-8 -57q98 102 228.5 179t228.5 77q94 0 121 -47q16 -27 15 -79q0 -36 -7 -83l-123 -752h178v-43z" />
<glyph unicode="n" horiz-adv-x="1114" d="M1018 125q-145 -150 -262 -150q-86 0 -86 82q0 53 10 125l102 746q-29 8 -45 8q-86 0 -210 -65.5t-179 -116.5l-49 -424v-330h-199l113 1079l174 72l-27 -274q96 102 226.5 179t226.5 77q92 0 119 -46q16 -28 16 -84q0 -35 -6 -79l-100 -756h176v-43z" />
<glyph unicode="o" horiz-adv-x="983" d="M901 780q0 -123 -26.5 -255t-81 -259t-151.5 -209t-220 -82q-176 0 -258 81t-82 255q0 98 12 202.5t45 218.5t80 202t126 145.5t175 57.5q381 -1 381 -357zM723 743q0 102 -14 179q-82 74 -220 73q-68 0 -115.5 -58t-71 -155.5t-33 -193.5t-9.5 -203q0 -113 8 -195 q68 -66 230 -65q111 0 168 195.5t57 422.5z" />
<glyph unicode="p" horiz-adv-x="1019" d="M954 819q0 -221 -63.5 -409.5t-194.5 -309t-307 -120.5q-61 0 -131 18l-25 -234v-215h-198l168 1528l170 70l-29 -268q231 246 395 245q127 0 171 -60.5t44 -244.5zM780 961q-35 10 -63 10q-164 0 -385 -230l-60 -577q106 -47 160 -47q61 0 113.5 28.5t86.5 82 t61.5 112.5t43 138t24.5 142.5t13 140.5t5 115t1 85z" />
<glyph unicode="q" horiz-adv-x="1003" d="M918 1075l-134 -1263v-263h-206l69 666q-106 -111 -203.5 -174.5t-205.5 -63.5q-92 0 -126 44.5t-34 144.5q0 98 12 199.5t38 213t73 208t110.5 175t157.5 123.5t207 45q119 0 242 -55zM741 954q-53 31 -161 31q-88 0 -158 -100.5t-104.5 -244.5t-52 -272t-17.5 -216 q18 -8 47 -9q35 0 76 14.5t88 43t77.5 49t78.5 57.5l57 43z" />
<glyph unicode="r" horiz-adv-x="698" d="M729 1135l-29 -183q-12 2 -45 2q-137 0 -303 -108l-53 -516v-330h-201l113 1083l176 68l-25 -209q55 57 94.5 92t106 69t129.5 34q19 0 37 -2z" />
<glyph unicode="s" horiz-adv-x="788" d="M754 1087q0 -104 -58 -182q-86 59 -152.5 86t-156.5 27q-35 0 -63.5 -24.5t-28.5 -53.5q0 -63 41 -131t99 -128l118 -121q59 -60 100 -129t41 -132q0 -156 -121.5 -237.5t-283.5 -81.5q-156 0 -283 53q18 98 60 178q205 -76 383 -76q33 0 62.5 18.5t29.5 49.5 q0 57 -63.5 139t-138.5 155.5t-138.5 175t-63.5 189.5q0 143 98.5 209t264.5 66q137 -1 254 -50z" />
<glyph unicode="t" horiz-adv-x="761" d="M725 997h-319l-84 -829q49 -18 86 -18q61 0 247 69l41 -84q-111 -82 -188.5 -118.5t-167.5 -36.5q-111 0 -159 40q-36 31 -36 119q0 30 5 66l90 792h-162v121h182l25 225l168 84l-31 -309h303v-121z" />
<glyph unicode="u" horiz-adv-x="1087" d="M1022 125q-141 -145 -262 -145q-86 0 -86 81q0 29 2 50l14 161q-106 -141 -208.5 -220t-241.5 -79q-137 0 -138 169q0 20 2 42l82 895l172 68l-84 -1004q20 -10 41 -10q63 0 194.5 96.5t188.5 155.5l76 694l174 68l-110 -981h184v-41z" />
<glyph unicode="v" horiz-adv-x="940" d="M926 1065q0 -160 -84 -342l-328 -717l-233 -59l-140 870l-100 252q106 68 240 68l133 -1049l276 649q12 27 19 68v313h215q2 -14 2 -53z" />
<glyph unicode="w" horiz-adv-x="1562" d="M1559 1059q0 -119 -107 -336l-352 -717l-226 -59l-83 651l-332 -594l-217 -70l-82 883l-97 258q86 59 256 62l58 -1031l385 715l-37 273l178 47l115 -1028l282 624q29 57 35 90v291h224v-59z" />
<glyph unicode="x" horiz-adv-x="954" d="M944 82q-123 -102 -209 -102q-82 0 -119 83l-170 386l-206 -281v-168h-228l-22 66l413 483l-131 291l-172 188q86 104 213 105l209 -445l191 219v211h209q0 -4 1 -19.5t1 -21.5q0 -109 -103 -215l-254 -270l207 -442h158z" />
<glyph unicode="y" horiz-adv-x="937" d="M924 1059q0 -59 -16.5 -127t-29 -99.5t-47.5 -111.5l-505 -1172h-187l221 451h-106l-96 799l-117 260q147 78 252 78l129 -1055l276 655q12 27 19 68v313h205q2 -14 2 -59z" />
<glyph unicode="z" horiz-adv-x="856" d="M856 1040l-649 -878l8 -12q324 39 582 55q2 -10 2 -39q0 -104 -21 -166h-731l-43 90l664 887l-11 10q-313 -68 -536 -67q0 135 43 210q164 -18 340 -18q31 0 319 6z" />
<glyph unicode="{" horiz-adv-x="739" d="M748 1561l-17 -113h-53q-141 0 -206.5 -48t-65.5 -165l2 -391q0 -219 -166 -283q66 -25 95.5 -100.5t6.5 -177.5l-84 -394q-25 -119 28.5 -172t203.5 -53h51l-11 -115l-47 -2q-186 -8 -289.5 72t-64.5 272l86 406q20 94 -13.5 150.5t-127.5 56.5l12 110q180 0 184 209 v420q2 326 402 318h74z" />
<glyph unicode="|" horiz-adv-x="536" d="M442 1544l-211 -1995h-137l211 1995h137z" />
<glyph unicode="}" horiz-adv-x="739" d="M664 614l-13 -110q-92 0 -137 -56.5t-45 -150.5v-406q0 -193 -120 -272.5t-306 -71.5l-49 2l14 115h53q150 0 214.5 53.5t64.5 171.5l-2 394q0 104 45 179t117 99q-154 61 -107 283l84 391q25 117 -30.5 165t-196.5 48h-53l8 113h71q86 2 152 -13.5t117 -51.5t65.5 -98.5 t-0.5 -154.5l-86 -420q-40 -209 140 -209z" />
<glyph unicode="~" horiz-adv-x="770" d="M770 745q-53 -57 -150.5 -110t-142.5 -53q-25 0 -122 46t-105 46q-39 0 -71 -10.5t-76 -38t-54 -31.5l-49 84q47 43 141.5 97t139.5 54q47 0 125.5 -43t91.5 -43q104 0 217 78z" />
<glyph unicode="&#xa1;" horiz-adv-x="671" d="M551 1030q0 -20 -76 -88t-98.5 -68t-81.5 66t-59 88q0 20 76.5 90t99 70t81 -66.5t58.5 -91.5zM444 733l-73 -1079l-125 -62l-115 62l156 1079h157z" />
<glyph unicode="&#xa2;" horiz-adv-x="882" d="M836 1081q-4 -111 -52 -172q-131 82 -280 82q-246 0 -244 -809v-22q39 -20 96 -21q104 0 371 133l45 -88q-111 -94 -258 -153l-37 -373h-123l35 332q-66 -16 -117 -17q-197 0 -196 187q0 891 434 968l33 320h121l-33 -313h16q109 -7 189 -54z" />
<glyph unicode="&#xa3;" horiz-adv-x="1138" d="M1024 1509q0 -47 -20.5 -100t-45.5 -82q-61 45 -140 82t-132 37q-100 0 -140 -74t-54 -215l-31 -305h368v-113h-380l-60 -587l381 22q82 4 158 78l90 -82q-45 -80 -101.5 -125t-154.5 -45h-727q-8 37 -8 100l123 35q41 12 57 41t22 92l50 471h-136v113h148l33 313 q18 170 131.5 291t281.5 121q201 0 287 -68z" />
<glyph unicode="&#xa4;" horiz-adv-x="1265" d="M1139 1016q0 -74 -76 -150q-160 137 -266 138q-250 0 -328 -250h418l-13 -109h-432q-14 -96 -16 -174h430l-12 -109h-412q41 -248 332 -247q20 0 66.5 23.5t108.5 62.5t67 41q55 -68 51 -172q-61 -39 -166 -63.5t-189 -24.5q-209 0 -327.5 88t-134.5 292h-172l12 109h160 q4 109 18 174h-160l11 109h184q70 176 216 284.5t329 108.5q96 0 198.5 -31.5t102.5 -99.5z" />
<glyph unicode="&#xa5;" horiz-adv-x="1355" d="M1311 1069l-35 -74q-76 -12 -102 -45l-201 -237h231l-12 -109h-305l-148 -190l-2 -25h432l-10 -108h-434l-6 -68l-2 -213h-236l43 217l6 64h-403l12 108h404l2 29q-41 104 -80 186h-303l10 109h238q-57 115 -119 213q-39 61 -117 84l2 71q166 49 242 49q37 -51 127 -275 t125 -341q293 436 426 600q129 -6 215 -45z" />
<glyph unicode="&#xa6;" horiz-adv-x="567" d="M514 1542l-78 -739h-137l78 739h137zM383 291l-78 -742h-137l78 742h137z" />
<glyph unicode="&#xa7;" horiz-adv-x="903" d="M971 1532q-2 -41 -26.5 -96.5t-53.5 -89.5q-33 27 -100.5 64.5t-96.5 37.5q-115 0 -114 -188q0 -35 8 -113l90 -797q12 -109 12 -215q0 -270 -138 -436t-402 -166q-154 0 -242 74q6 43 35.5 90t64.5 65q23 -18 90.5 -57t85.5 -39q37 0 60.5 23.5t32 72t9.5 73t1 71.5 q0 61 -13 184l-86 762q-6 66 -6 129q0 281 143.5 444.5t419.5 163.5q132 0 226 -57zM551 27q6 82 -8 213l-88 821q-14 115 -9 207q8 102 43 151l-4 6q-139 -82 -155 -315q-6 -90 4 -188l90 -859q10 -98 4 -184q-8 -119 -49 -170l4 -4q152 86 168 322z" />
<glyph unicode="&#xa8;" horiz-adv-x="835" d="M791 1468q-2 -16 -61.5 -71.5t-80 -55.5t-69 54.5t-43.5 72.5q2 20 61 73.5t77.5 53.5t68 -53.5t47.5 -73.5zM303 1468q-2 -16 -61.5 -71.5t-80 -55.5t-68.5 54.5t-44 72.5q2 20 61.5 73.5t78 53.5t67.5 -53.5t47 -73.5z" />
<glyph unicode="&#xa9;" horiz-adv-x="1558" d="M1395 551q0 -276 -172 -434t-439 -158q-111 0 -214 30.5t-197 96.5t-151.5 185.5t-57.5 279.5q0 279 175 440.5t441 161.5q117 0 222.5 -34t195.5 -102.5t143.5 -188t53.5 -277.5zM1288 551q0 250 -147.5 380t-356.5 130q-223 0 -366.5 -124t-143.5 -376q0 -125 39 -221 t95.5 -149.5t132 -87t136 -44t120.5 -10.5q217 0 354 132t137 370zM1020 238q-94 -31 -213 -31q-369 0 -369 358q0 164 97.5 268.5t267.5 104.5q100 0 205 -41v-166q-31 -6 -70 -2q-20 59 -51 88t-88 29q-109 0 -173.5 -65.5t-64.5 -205.5q0 -137 70.5 -201.5t191.5 -64.5 q92 0 168 19z" />
<glyph unicode="&#xaa;" horiz-adv-x="856" d="M686 868q-88 -88 -160 -88q-59 0 -59 58q0 8 4 34.5t4 38.5q-127 -131 -225 -131q-57 0 -78.5 29t-21.5 88q0 86 16 175t52 179t108.5 146.5t171.5 56.5q72 0 147 -35l-55 -510h96v-41zM680 698l-12 -106h-570l13 106h569zM522 1339q-20 12 -80 13q-47 0 -83.5 -53.5 t-54 -132.5t-27 -146.5t-9.5 -122.5q4 -2 17 -2q57 0 198 104z" />
<glyph unicode="&#xab;" horiz-adv-x="1050" d="M971 952q-115 -262 -223 -395q94 -227 122 -405q-80 -14 -129 -27q-39 158 -188 432q211 250 299 422zM553 981q-119 -281 -236 -424q100 -246 132 -428q-80 -14 -130 -27q-41 172 -196 455q211 250 313 451q68 -15 117 -27z" />
<glyph unicode="&#xac;" horiz-adv-x="960" d="M899 809l-45 -438h-156l31 305h-639l14 133h795z" />
<glyph unicode="&#xad;" horiz-adv-x="780" d="M688 690l-18 -170l-576 2l15 135z" />
<glyph unicode="&#xae;" horiz-adv-x="1880" d="M1716 721q0 -348 -217 -547t-553 -199q-139 0 -270 39t-250 122t-190.5 233.5t-71.5 351.5q0 352 220 555t558 203q147 0 280.5 -42t246 -129t180 -237.5t67.5 -349.5zM1606 721q0 168 -55.5 299t-150.5 210t-210 119t-244 40q-139 0 -256 -38t-210 -115t-146 -206 t-53 -297q0 -164 51 -290t124.5 -194.5t172 -112.5t177.5 -57t157 -13q283 0 463 173t180 482zM1378 383l-16 -74q-59 4 -131 31t-113 76q-133 158 -188 250q-18 -2 -45 -2h-103l6 -332h-131l7 340v532l284 2q133 0 210 -67.5t77 -200.5q0 -180 -168 -246q45 -72 156 -190 q73 -76 155 -119zM1102 932q0 98 -43 142t-144 44h-133v-366h109q106 0 158.5 41t52.5 139z" />
<glyph unicode="&#xaf;" horiz-adv-x="1105" d="M860 1503l-16 -141h-611l17 141h610z" />
<glyph unicode="&#xb0;" horiz-adv-x="677" d="M670 1260q0 -137 -89 -230.5t-225 -93.5q-115 0 -180 52t-65 155q0 139 86 227t223 88q115 0 182.5 -50t67.5 -148zM532 1208q0 63 -32.5 108.5t-91.5 45.5q-82 0 -123 -49t-41 -129q0 -66 32.5 -106t96.5 -40q159 0 159 170z" />
<glyph unicode="&#xb1;" horiz-adv-x="958" d="M901 795l-14 -142h-316l-34 -323h-158l35 323h-322l14 142h322l35 323h158l-35 -323h315zM834 139l-15 -141h-796l14 141h797z" />
<glyph unicode="&#xb2;" horiz-adv-x="532" d="M594 1305q0 -57 -23.5 -111.5t-72.5 -107t-83 -81t-96 -75.5h261l-13 -107h-450l10 90q20 18 91 73.5t117 95.5t88 97.5t42 106.5q0 72 -78 72q-82 0 -147 -41l-43 88q100 63 204 63q193 1 193 -163z" />
<glyph unicode="&#xb3;" horiz-adv-x="520" d="M571 1026q0 -109 -73.5 -161t-184.5 -52q-119 0 -194 33l41 100q80 -27 155 -26q127 0 127 94q0 41 -24.5 61.5t-53 25.5t-69.5 7h-14l8 88q158 8 157 117q0 47 -77 47q-61 0 -123 -23l-37 88q80 43 178 43q80 0 132 -34.5t52 -108.5q0 -98 -94 -160q94 -49 94 -139z" />
<glyph unicode="&#xb4;" horiz-adv-x="1163" d="M922 1620q-252 -219 -496 -391q-33 25 -68 80q211 193 443 440q70 -53 121 -129z" />
<glyph unicode="&#xb5;" horiz-adv-x="1134" d="M1040 125q-141 -145 -262 -145q-86 0 -86 81q0 31 2 50l17 174q-55 -74 -91 -115t-94.5 -92t-124 -74.5t-143.5 -23.5q-31 0 -53 6q-4 -166 178 -379l-178 -90q-145 129 -146 305q0 49 9 96l71 453l66 708l172 68l-84 -997q29 -10 49 -11q123 0 375 252l76 688l174 68 l-111 -981h184v-41z" />
<glyph unicode="&#x3bc;" horiz-adv-x="1134" d="M1040 125q-141 -145 -262 -145q-86 0 -86 81q0 31 2 50l17 174q-55 -74 -91 -115t-94.5 -92t-124 -74.5t-143.5 -23.5q-31 0 -53 6q-4 -166 178 -379l-178 -90q-145 129 -146 305q0 49 9 96l71 453l66 708l172 68l-84 -997q29 -10 49 -11q123 0 375 252l76 688l174 68 l-111 -981h184v-41z" />
<glyph unicode="&#xb6;" horiz-adv-x="1345" d="M657 1448l-94 -895h-20q-195 0 -303.5 92t-108.5 285q0 258 134 388t392 130zM1262 1448l-152 -1434q-20 -203 -222 -340t-417 -137q-145 0 -262 84q39 147 102 189q27 -25 112 -75t109 -50q113 0 142 264l164 1499h153l-153 -1454q-8 -72 -12.5 -98.5t-23 -73.5 t-52.5 -82l4 -6q178 39 200 264l154 1450h154z" />
<glyph unicode="&#xb7;" horiz-adv-x="567" d="M414 733q0 -20 -77 -90t-99.5 -70t-81 68t-58.5 92q0 20 76 88t98.5 68t82 -65.5t59.5 -90.5z" />
<glyph unicode="&#xb8;" horiz-adv-x="927" d="M721 82q-31 -18 -125 -106.5t-94 -106.5q0 -14 48 -40t96 -65.5t48 -93.5q0 -86 -108.5 -151.5t-200.5 -65.5q-70 0 -131 31l31 94q61 -12 123 -12q125 0 124 53q0 39 -74.5 88t-74.5 84q0 18 5 37.5t11.5 35t21.5 35l23.5 31t30.5 31.5l32 29l36 30q27 23 32 29z" />
<glyph unicode="&#xb9;" horiz-adv-x="407" d="M459 1460l-68 -637h-127l55 531h-126l12 100z" />
<glyph unicode="&#xba;" horiz-adv-x="856" d="M692 1233q0 -94 -27.5 -192.5t-98 -179.5t-167.5 -81q-119 0 -160.5 47t-41.5 164q0 96 23.5 196.5t88 184.5t158.5 84q115 0 170 -59.5t55 -163.5zM680 698l-12 -106h-570l13 106h569zM563 1331q-37 31 -114 31q-61 0 -95.5 -95.5t-32 -195.5t2.5 -162q41 -35 118 -35 q72 0 106.5 176.5t14.5 280.5z" />
<glyph unicode="&#xbb;" horiz-adv-x="1050" d="M928 557q-215 -285 -291 -455l-123 27q68 186 219 428q-90 150 -145 424l121 27q59 -199 219 -451zM498 557q-209 -279 -279 -432l-123 27q66 178 207 405q-84 139 -139 395l123 27q51 -168 211 -422z" />
<glyph unicode="&#xbc;" horiz-adv-x="1423" d="M479 1460l-67 -637h-127l55 531h-127l12 100zM1411 264l-12 -106h-113l-16 -158h-125l16 158h-264l12 116l248 363h180l-39 -373h113zM1389 1202l-1201 -1085l-77 96l1198 1083zM1200 535l-178 -271h152z" />
<glyph unicode="&#xbd;" horiz-adv-x="1474" d="M1430 481q0 -57 -24 -111.5t-73 -105.5t-84 -80.5l-96 -77.5h260l-10 -106h-451l11 90l118 93q109 85 164 150.5t55 129.5q0 72 -79 72q-78 0 -148 -41l-41 88q96 63 205 63q193 0 193 -164zM479 1460l-67 -637h-127l55 531h-127l12 100zM1389 1202l-1201 -1085l-77 96 l1198 1083z" />
<glyph unicode="&#xbe;" horiz-adv-x="1423" d="M571 1026q0 -109 -73.5 -161t-184.5 -52q-119 0 -194 33l41 100q80 -27 155 -26q127 0 127 94q0 41 -24.5 61.5t-53 25.5t-69.5 7h-14l8 88q158 8 157 117q0 47 -77 47q-61 0 -123 -23l-37 88q80 43 178 43q80 0 132 -34.5t52 -108.5q0 -98 -94 -160q94 -49 94 -139z M1409 1202l-1200 -1085l-78 96l1198 1083zM1411 264l-12 -106h-113l-16 -158h-125l16 158h-264l12 116l248 363h180l-39 -373h113zM1200 535l-178 -271h152z" />
<glyph unicode="&#xbf;" horiz-adv-x="888" d="M700 1030q0 -20 -75.5 -88t-98 -68t-82 66t-59.5 90q0 18 77 88t99.5 70t80.5 -66.5t58 -91.5zM760 -301q-141 -57 -336 -57q-88 0 -172 25.5t-149.5 90t-65.5 158.5q0 63 46 136t115 141l139 131q71 63 128 124.5t74 106.5q-4 12 -68 123l143 86q6 -6 20 -23l18 -22 q5 -6 14.5 -19.5t12.5 -23.5t6 -24.5t3 -30.5q0 -66 -62.5 -162.5t-140.5 -176.5l-169 -179q-91 -97 -128 -148q14 -63 113.5 -103t185.5 -40q139 0 238 26q35 -51 35 -139z" />
<glyph unicode="&#xc0;" horiz-adv-x="1341" d="M1020 1612q-6 -45 -35 -103q-334 74 -508 164q35 102 82 162q205 -127 461 -223zM1280 82q-6 -61 -14 -82h-535q-2 43 0 82l123 41q70 23 70 135q0 20 -9 78l-36 254h-469l-170 -324q-10 -20 -11 -47q0 -33 27 -61.5t74 -44.5l100 -31q0 -6 -1 -24.5t-2 -34t-5 -23.5 h-504q-4 45 0 82q135 102 170 166l643 1186l172 51l207 -1213q4 -27 14.5 -48t18.5 -34.5t29.5 -32t29.5 -24.5t39 -25.5t39 -25.5zM862 715l-61 432l-13 141h-22l-64 -137l-227 -436h387z" />
<glyph unicode="&#xc1;" horiz-adv-x="1341" d="M1149 1673q-174 -90 -508 -164q-27 45 -35 103q256 96 461 223q59 -88 82 -162zM1280 82q-6 -61 -14 -82h-535q-2 43 0 82l123 41q70 23 70 135q0 20 -9 78l-36 254h-469l-170 -324q-10 -20 -11 -47q0 -33 27 -61.5t74 -44.5l100 -31q0 -6 -1 -24.5t-2 -34t-5 -23.5h-504 q-4 45 0 82q135 102 170 166l643 1186l172 51l207 -1213q4 -27 14.5 -48t18.5 -34.5t29.5 -32t29.5 -24.5t39 -25.5t39 -25.5zM862 715l-61 432l-13 141h-22l-64 -137l-227 -436h387z" />
<glyph unicode="&#xc2;" horiz-adv-x="1341" d="M1217 1606q-23 -63 -89 -125q-139 41 -323 190q-131 -111 -330 -182q-35 31 -59 90q131 59 251.5 143t176.5 138q172 -178 373 -254zM1280 82q-6 -61 -14 -82h-535q-2 43 0 82l123 41q70 23 70 135q0 20 -9 78l-36 254h-469l-170 -324q-10 -20 -11 -47q0 -33 27 -61.5 t74 -44.5l100 -31q0 -6 -1 -24.5t-2 -34t-5 -23.5h-504q-4 45 0 82q135 102 170 166l643 1186l172 51l207 -1213q4 -27 14.5 -48t18.5 -34.5t29.5 -32t29.5 -24.5t39 -25.5t39 -25.5zM862 715l-61 432l-13 141h-22l-64 -137l-227 -436h387z" />
<glyph unicode="&#xc3;" horiz-adv-x="1341" d="M1233 1665q-10 -14 -27.5 -33.5t-74 -53.5t-113.5 -34q-51 0 -203.5 44t-191.5 44q-102 0 -168 -55l-56 76q10 14 31 35.5t81 57.5t120 36q57 0 207.5 -44t187.5 -44q90 0 160 49zM1280 82q-6 -61 -14 -82h-535q-2 43 0 82l123 41q70 23 70 135q0 20 -9 78l-36 254h-469 l-170 -324q-10 -20 -11 -47q0 -33 27 -61.5t74 -44.5l100 -31q0 -6 -1 -24.5t-2 -34t-5 -23.5h-504q-4 45 0 82q135 102 170 166l643 1186l172 51l207 -1213q4 -27 14.5 -48t18.5 -34.5t29.5 -32t29.5 -24.5t39 -25.5t39 -25.5zM862 715l-61 432l-13 141h-22l-64 -137 l-227 -436h387z" />
<glyph unicode="&#xc4;" horiz-adv-x="1341" d="M1206 1645q0 -16 -53 -71.5t-76 -55.5q-20 0 -73.5 54t-53.5 73q0 20 54.5 73.5t72.5 53.5q20 0 74.5 -53.5t54.5 -73.5zM678 1645q0 -16 -53.5 -71.5t-75.5 -55.5q-20 0 -73.5 54t-53.5 73q0 20 54 73.5t73 53.5q20 0 74.5 -53.5t54.5 -73.5zM1280 82q-6 -61 -14 -82 h-535q-2 43 0 82l123 41q70 23 70 135q0 20 -9 78l-36 254h-469l-170 -324q-10 -20 -11 -47q0 -33 27 -61.5t74 -44.5l100 -31q0 -6 -1 -24.5t-2 -34t-5 -23.5h-504q-4 45 0 82q135 102 170 166l643 1186l172 51l207 -1213q4 -27 14.5 -48t18.5 -34.5t29.5 -32t29.5 -24.5 t39 -25.5t39 -25.5zM862 715l-61 432l-13 141h-22l-64 -137l-227 -436h387z" />
<glyph unicode="&#xc5;" horiz-adv-x="1341" d="M1278 82q-6 -61 -12 -82h-535q-6 39 -2 82l125 41q68 23 68 135q0 18 -2 27l-41 305h-471l-168 -324q-12 -25 -13 -47q0 -33 28 -62.5t73 -43.5l100 -31q0 -2 -1 -36t-5 -46h-504q-2 29 -2 82q139 106 170 166l621 1143q-129 18 -129 139t78.5 210t191.5 89 q221 0 221 -174q0 -80 -43 -147.5t-113 -98.5l197 -1137q16 -104 168 -190zM948 1642q0 23 -4 56q-53 35 -133 35q-43 0 -70.5 -41t-35.5 -101q-2 -12 -3 -73q80 -37 144 -37q49 0 75.5 44.5t26.5 116.5zM860 715l-59 432l-15 141h-22l-62 -137l-229 -436h387z" />
<glyph unicode="&#xc6;" horiz-adv-x="1679" d="M1679 338l-61 -338h-1010q-6 47 -2 100l144 37q37 8 60.5 42t27.5 77l30 406h-381l-278 -396q-20 -27 -21 -49q0 -63 80 -94l86 -33q0 -59 -14 -90h-496q0 63 9 90q109 82 167 164l883 1194h748l-23 -328q-6 -2 -104 -2q-12 96 -45 139t-107 46l-268 12l-37 -520l453 10 l-11 -156l-452 10l-27 -524l283 6q102 2 172.5 64.5t103.5 146.5zM915 1280l-84 -133l-249 -352h297l26 352z" />
<glyph unicode="&#xc7;" horiz-adv-x="1261" d="M1233 1386l-19 -307h-73q-29 106 -107 184t-180 78q-266 0 -405.5 -179t-139.5 -457q0 -270 110.5 -420t381.5 -150q137 0 303 55l41 -124q-135 -68 -316 -89q-96 -92 -96 -108q0 -14 48 -40t96.5 -65.5t48.5 -93.5q0 -86 -108.5 -151.5t-201.5 -65.5q-70 0 -131 31 l31 94q61 -12 123 -12q125 0 125 53q0 39 -75 88t-75 84q0 86 105 182q-326 6 -474.5 180.5t-148.5 505.5q0 352 213 583t555 231q203 -1 369 -87z" />
<glyph unicode="&#xc8;" horiz-adv-x="1210" d="M897 1612q-6 -45 -35 -103q-334 74 -508 164q35 102 82 162q205 -127 461 -223zM1143 332l-60 -332h-1063q-6 49 0 92l140 37q37 8 61.5 43t28.5 80l74 985q4 27 -8.5 52.5t-36.5 33.5l-148 53q0 37 14 72h971l-22 -322q-35 -6 -97 0q-12 96 -45.5 140.5t-109.5 46.5 l-336 12l-37 -534l516 10l-10 -148l-514 11l-27 -539l348 8q102 2 174 64.5t107 146.5z" />
<glyph unicode="&#xc9;" horiz-adv-x="1210" d="M1047 1673q-174 -90 -508 -164q-27 45 -35 103q256 96 461 223q59 -88 82 -162zM1143 332l-60 -332h-1063q-6 49 0 92l140 37q37 8 61.5 43t28.5 80l74 985q4 27 -8.5 52.5t-36.5 33.5l-148 53q0 37 14 72h971l-22 -322q-35 -6 -97 0q-12 96 -45.5 140.5t-109.5 46.5 l-336 12l-37 -534l516 10l-10 -148l-514 11l-27 -539l348 8q102 2 174 64.5t107 146.5z" />
<glyph unicode="&#xca;" horiz-adv-x="1210" d="M1104 1606q-23 -63 -88 -125q-139 41 -324 190q-131 -111 -330 -182q-35 31 -59 90q131 59 252 143t176 138q172 -178 373 -254zM1143 332l-60 -332h-1063q-6 49 0 92l140 37q37 8 61.5 43t28.5 80l74 985q4 27 -8.5 52.5t-36.5 33.5l-148 53q0 37 14 72h971l-22 -322 q-35 -6 -97 0q-12 96 -45.5 140.5t-109.5 46.5l-336 12l-37 -534l516 10l-10 -148l-514 11l-27 -539l348 8q102 2 174 64.5t107 146.5z" />
<glyph unicode="&#xcb;" horiz-adv-x="1210" d="M1087 1645q0 -16 -53 -71.5t-76 -55.5q-20 0 -73.5 54t-53.5 73q0 20 54.5 73.5t72.5 53.5q20 0 74.5 -53.5t54.5 -73.5zM559 1645q0 -16 -53 -71.5t-76 -55.5q-20 0 -73.5 54t-53.5 73q0 20 54.5 73.5t72.5 53.5q20 0 74.5 -53.5t54.5 -73.5zM1143 332l-60 -332h-1063 q-6 49 0 92l140 37q37 8 61.5 43t28.5 80l74 985q4 27 -8.5 52.5t-36.5 33.5l-148 53q0 37 14 72h971l-22 -322q-35 -6 -97 0q-12 96 -45.5 140.5t-109.5 46.5l-336 12l-37 -534l516 10l-10 -148l-514 11l-27 -539l348 8q102 2 174 64.5t107 146.5z" />
<glyph unicode="&#xcc;" horiz-adv-x="688" d="M590 1612q-6 -45 -35 -103q-334 74 -508 164q35 102 82 162q205 -127 461 -223zM653 1448q4 -31 0 -84l-82 -16q-49 -12 -74.5 -60.5t-29.5 -105.5l-61 -975q-4 -39 6 -55.5t43 -24.5l157 -33q-6 -61 -14 -94h-573q-6 39 -2 82l110 43q78 29 90 147l66 904 q12 127 -94 167l-76 29q-4 43 8 76h526z" />
<glyph unicode="&#xcd;" horiz-adv-x="688" d="M739 1673q-174 -90 -508 -164q-27 45 -34 103q256 96 460 223q59 -88 82 -162zM653 1448q4 -31 0 -84l-82 -16q-49 -12 -74.5 -60.5t-29.5 -105.5l-61 -975q-4 -39 6 -55.5t43 -24.5l157 -33q-6 -61 -14 -94h-573q-6 39 -2 82l110 43q78 29 90 147l66 904q12 127 -94 167 l-76 29q-4 43 8 76h526z" />
<glyph unicode="&#xce;" horiz-adv-x="688" d="M829 1606q-23 -63 -88 -125q-139 41 -323 190q-131 -111 -330 -182q-35 31 -59 90q131 59 251.5 143t176.5 138q171 -178 372 -254zM653 1448q4 -31 0 -84l-82 -16q-49 -12 -74.5 -60.5t-29.5 -105.5l-61 -975q-4 -39 6 -55.5t43 -24.5l157 -33q-6 -61 -14 -94h-573 q-6 39 -2 82l110 43q78 29 90 147l66 904q12 127 -94 167l-76 29q-4 43 8 76h526z" />
<glyph unicode="&#xcf;" horiz-adv-x="688" d="M799 1645q0 -16 -53.5 -71.5t-75.5 -55.5q-20 0 -73.5 54t-53.5 73q0 20 54 73.5t73 53.5q20 0 74.5 -53.5t54.5 -73.5zM270 1645q0 -16 -53 -71.5t-76 -55.5q-20 0 -73.5 54t-53.5 73q0 20 54.5 73.5t72.5 53.5q20 0 74.5 -53.5t54.5 -73.5zM653 1448q4 -31 0 -84 l-82 -16q-49 -12 -74.5 -60.5t-29.5 -105.5l-61 -975q-4 -39 6 -55.5t43 -24.5l157 -33q-6 -61 -14 -94h-573q-6 39 -2 82l110 43q78 29 90 147l66 904q12 127 -94 167l-76 29q-4 43 8 76h526z" />
<glyph unicode="&#xd0;" horiz-adv-x="1470" d="M1403 803q0 -397 -210 -600t-603 -203h-570l-6 98l144 37q80 20 88 139l33 418h-181v121h189l32 428q4 57 -43 74l-147 49q0 43 14 84l535 10q332 6 528.5 -157.5t196.5 -497.5zM1176 782q0 528 -512 529h-156l-31 -498h230v-121h-236l-35 -557l146 4q307 8 450.5 170 t143.5 473z" />
<glyph unicode="&#xd1;" horiz-adv-x="1642" d="M1315 1665q-10 -14 -27.5 -33.5t-74 -53.5t-113.5 -34q-51 0 -204 44t-191 44q-102 0 -168 -55l-56 76q10 14 30.5 35.5t81 57.5t120.5 36q57 0 207.5 -44t187.5 -44q90 0 160 49zM1630 1376l-119 -33q-39 -12 -66.5 -55t-31.5 -92l-84 -1194l-149 -45l-719 1257h-23 l8 -170l-53 -817q-2 -39 6.5 -54t40.5 -28l166 -59q0 -41 -12 -86h-569q-6 39 -2 82l118 37q47 14 78 67.5t35 108.5l61 924q2 37 -13 68.5t-42 41.5l-110 43q6 61 10 76h405l654 -1120h22l-6 223l45 641q2 43 -18.5 84t-53.5 53l-121 43q6 55 13 76h528q4 -45 2 -72z" />
<glyph unicode="&#xd2;" horiz-adv-x="1486" d="M1081 1612q-6 -45 -34 -103q-334 74 -508 164q35 102 82 162q204 -127 460 -223zM1413 817q0 -223 -80 -410.5t-247.5 -308.5t-393.5 -121q-289 0 -444.5 180.5t-155.5 479.5q0 221 87 410.5t259 308.5t393 119q276 0 429 -184.5t153 -473.5zM1208 764q0 152 -39 274.5 t-138 208.5t-247 86q-154 0 -267.5 -101.5t-164.5 -243.5t-51 -298q0 -113 22.5 -210t69.5 -180t134 -131t204 -48q145 0 258 102.5t166 246.5t53 294z" />
<glyph unicode="&#xd3;" horiz-adv-x="1486" d="M1149 1673q-174 -90 -508 -164q-27 45 -35 103q256 96 461 223q59 -88 82 -162zM1413 817q0 -223 -80 -410.5t-247.5 -308.5t-393.5 -121q-289 0 -444.5 180.5t-155.5 479.5q0 221 87 410.5t259 308.5t393 119q276 0 429 -184.5t153 -473.5zM1208 764q0 152 -39 274.5 t-138 208.5t-247 86q-154 0 -267.5 -101.5t-164.5 -243.5t-51 -298q0 -113 22.5 -210t69.5 -180t134 -131t204 -48q145 0 258 102.5t166 246.5t53 294z" />
<glyph unicode="&#xd4;" horiz-adv-x="1486" d="M1237 1606q-23 -63 -88 -125q-139 41 -324 190q-131 -111 -329 -182q-35 31 -60 90q131 59 252 143t176 138q172 -178 373 -254zM1413 817q0 -223 -80 -410.5t-247.5 -308.5t-393.5 -121q-289 0 -444.5 180.5t-155.5 479.5q0 221 87 410.5t259 308.5t393 119 q276 0 429 -184.5t153 -473.5zM1208 764q0 152 -39 274.5t-138 208.5t-247 86q-154 0 -267.5 -101.5t-164.5 -243.5t-51 -298q0 -113 22.5 -210t69.5 -180t134 -131t204 -48q145 0 258 102.5t166 246.5t53 294z" />
<glyph unicode="&#xd5;" horiz-adv-x="1675" d="M1251 1665q-10 -14 -27.5 -33.5t-73.5 -53.5t-114 -34q-51 0 -203.5 44t-191.5 44q-102 0 -168 -55l-55 76q10 14 30.5 35.5t81 57.5t119.5 36q57 0 208 -44t187 -44q90 0 160 49zM1413 817q0 -223 -80 -410.5t-247.5 -308.5t-393.5 -121q-289 0 -444.5 180.5 t-155.5 479.5q0 221 87 410.5t259 308.5t393 119q276 0 429 -184.5t153 -473.5zM1208 764q0 152 -39 274.5t-138 208.5t-247 86q-154 0 -267.5 -101.5t-164.5 -243.5t-51 -298q0 -113 22.5 -210t69.5 -180t134 -131t204 -48q145 0 258 102.5t166 246.5t53 294z" />
<glyph unicode="&#xd6;" horiz-adv-x="1486" d="M1208 1645q0 -16 -53 -71.5t-76 -55.5q-20 0 -73.5 54t-53.5 73q0 20 54.5 73.5t72.5 53.5q20 0 74.5 -53.5t54.5 -73.5zM680 1645q0 -16 -53.5 -71.5t-75.5 -55.5q-20 0 -73.5 54t-53.5 73q0 20 54 73.5t73 53.5q20 0 74.5 -53.5t54.5 -73.5zM1413 817 q0 -223 -80 -410.5t-247.5 -308.5t-393.5 -121q-289 0 -444.5 180.5t-155.5 479.5q0 221 87 410.5t259 308.5t393 119q276 0 429 -184.5t153 -473.5zM1208 764q0 152 -39 274.5t-138 208.5t-247 86q-154 0 -267.5 -101.5t-164.5 -243.5t-51 -298q0 -113 22.5 -210t69.5 -180 t134 -131t204 -48q145 0 258 102.5t166 246.5t53 294z" />
<glyph unicode="&#xd7;" d="M1085 1042l-346 -315l291 -324l-110 -98l-289 324l-355 -322l-90 99l355 321l-279 313l109 99l278 -314l346 316z" />
<glyph unicode="&#xd8;" horiz-adv-x="1486" d="M1477 1452l-183 -205q119 -174 119 -430q0 -223 -80 -410.5t-247.5 -308.5t-393.5 -121q-289 0 -448 187l-215 -209l-74 70l229 223q-92 160 -92 389q0 221 87 410.5t259 308.5t393 119q244 0 398 -150l174 195zM1096 1182q-111 152 -312 151q-154 0 -267.5 -101.5 t-164.5 -243.5t-51 -298q0 -154 43 -282zM1208 764q0 188 -61 326l-758 -783q111 -186 342 -186q145 0 258 102.5t166 246.5t53 294z" />
<glyph unicode="&#xd9;" horiz-adv-x="1572" d="M1040 1612q-6 -45 -34 -103q-334 74 -508 164q35 102 82 162q204 -127 460 -223zM1561 1448v2q2 -31 -2 -82l-121 -33q-61 -16 -66 -86l-49 -702q-20 -305 -189 -439.5t-429 -134.5q-113 0 -198 23.5t-155.5 78t-102.5 160t-22 254.5l49 730q4 35 -11 67.5t-44 42.5 l-121 43q0 45 13 78h569q2 -41 -4 -88l-135 -23q-57 -10 -62 -69l-53 -766q-16 -225 77 -311.5t271 -86.5q180 0 272.5 97.5t108.5 349.5l41 649q4 113 -102 146l-82 24q0 8 6 76h541z" />
<glyph unicode="&#xda;" horiz-adv-x="1572" d="M1210 1673q-174 -90 -508 -164q-27 45 -34 103q256 96 460 223q59 -88 82 -162zM1561 1448v2q2 -31 -2 -82l-121 -33q-61 -16 -66 -86l-49 -702q-20 -305 -189 -439.5t-429 -134.5q-113 0 -198 23.5t-155.5 78t-102.5 160t-22 254.5l49 730q4 35 -11 67.5t-44 42.5 l-121 43q0 45 13 78h569q2 -41 -4 -88l-135 -23q-57 -10 -62 -69l-53 -766q-16 -225 77 -311.5t271 -86.5q180 0 272.5 97.5t108.5 349.5l41 649q4 113 -102 146l-82 24q0 8 6 76h541z" />
<glyph unicode="&#xdb;" horiz-adv-x="1572" d="M1276 1606q-23 -63 -88 -125q-139 41 -324 190q-131 -111 -329 -182q-35 31 -60 90q131 59 252 143t176 138q172 -178 373 -254zM1561 1448v2q2 -31 -2 -82l-121 -33q-61 -16 -66 -86l-49 -702q-20 -305 -189 -439.5t-429 -134.5q-113 0 -198 23.5t-155.5 78t-102.5 160 t-22 254.5l49 730q4 35 -11 67.5t-44 42.5l-121 43q0 45 13 78h569q2 -41 -4 -88l-135 -23q-57 -10 -62 -69l-53 -766q-16 -225 77 -311.5t271 -86.5q180 0 272.5 97.5t108.5 349.5l41 649q4 113 -102 146l-82 24q0 8 6 76h541z" />
<glyph unicode="&#xdc;" horiz-adv-x="1572" d="M1239 1645q0 -16 -53 -71.5t-76 -55.5q-20 0 -73.5 54t-53.5 73q0 20 54.5 73.5t72.5 53.5q20 0 74.5 -53.5t54.5 -73.5zM711 1645q0 -16 -53.5 -71.5t-75.5 -55.5q-20 0 -73.5 54t-53.5 73q0 20 54 73.5t73 53.5q20 0 74.5 -53.5t54.5 -73.5zM1561 1448v2q2 -31 -2 -82 l-121 -33q-61 -16 -66 -86l-49 -702q-20 -305 -189 -439.5t-429 -134.5q-113 0 -198 23.5t-155.5 78t-102.5 160t-22 254.5l49 730q4 35 -11 67.5t-44 42.5l-121 43q0 45 13 78h569q2 -41 -4 -88l-135 -23q-57 -10 -62 -69l-53 -766q-16 -225 77 -311.5t271 -86.5 q180 0 272.5 97.5t108.5 349.5l41 649q4 113 -102 146l-82 24q0 8 6 76h541z" />
<glyph unicode="&#xdd;" horiz-adv-x="1275" d="M1128 1673q-174 -90 -507 -164q-27 45 -35 103q256 96 461 223q58 -88 81 -162zM1321 1376q-113 -45 -170 -125l-440 -620l-23 -383q-4 -39 11.5 -74t43.5 -43l166 -45q-6 -53 -14 -86h-625q-4 66 0 94l144 37q78 18 88 121l33 379l-340 592q-35 57 -80 98 q-12 12 -37 31.5t-31 25.5q0 49 8 70h486q2 -39 0 -74l-103 -39q-35 -12 -38 -58t22 -89l231 -432l308 442q23 31 15.5 70t-36.5 53l-106 55q0 45 8 72h477q2 -25 2 -72z" />
<glyph unicode="&#xde;" horiz-adv-x="1159" d="M1124 791q0 -199 -132 -326t-339 -127q-47 0 -92 6l10 115h52q293 0 292 291q0 82 -26.5 139t-62 88t-102.5 49t-117 22.5t-132 6.5l-53 -848q-4 -39 6 -55.5t45 -24.5l156 -33q-6 -74 -15 -94h-573q-4 57 0 82l109 43q82 31 90 147l67 904q8 129 -94 167l-78 29 q0 49 8 76h529q4 -51 -2 -84l-82 -16q-49 -10 -75 -60.5t-30 -107.5h213q428 0 428 -389z" />
<glyph unicode="&#xdf;" horiz-adv-x="1118" d="M1073 299q0 -154 -122 -236.5t-283 -82.5q-115 0 -242 53q18 98 59 178l72 -25q47 -16 66.5 -22t55.5 -14.5t69.5 -11.5t78.5 -3q33 0 63 18.5t30 49.5q0 57 -52.5 139t-115 154.5t-114.5 174t-52 191.5q0 39 28.5 81t69.5 84l82 88q41 46 69.5 108.5t28.5 132.5 q-66 94 -264 94q-94 0 -137 -70.5t-55 -203.5l-125 -1364v-263h-195l133 1448h-162l13 121h161l5 49q16 178 139 292t309 114q70 0 140.5 -17.5t133 -70.5t62.5 -131q0 -88 -42 -167t-93 -123t-93 -84t-42 -60q0 -63 32.5 -129t80.5 -123l96 -115q47 -57 79.5 -124 t32.5 -130z" />
<glyph unicode="&#xe0;" horiz-adv-x="1081" d="M901 1405q-16 -68 -43 -105q-68 23 -195.5 62t-218 70.5t-182.5 70.5q39 119 84 185q197 -113 555 -283zM991 119q-143 -143 -262 -144q-88 0 -88 80q0 20 16 168q-111 -117 -209 -183.5t-210 -66.5q-92 0 -126 45t-34 144q0 154 28.5 308.5t92 310t187.5 252.5t290 97 q123 0 242 -55l-99 -909l172 2v-49zM741 948q-59 37 -161 37q-90 0 -159 -100.5t-102.5 -245.5t-50 -273t-16.5 -219q23 -8 49 -8q35 0 76 15.5t86 44.5l77 50q32 22 76 57l56 44z" />
<glyph unicode="&#xe1;" horiz-adv-x="1081" d="M1108 1620q-270 -231 -496 -391q-37 25 -67 80q211 193 442 440q70 -53 121 -129zM991 119q-143 -143 -262 -144q-88 0 -88 80q0 20 16 168q-111 -117 -209 -183.5t-210 -66.5q-92 0 -126 45t-34 144q0 154 28.5 308.5t92 310t187.5 252.5t290 97q123 0 242 -55l-99 -909 l172 2v-49zM741 948q-59 37 -161 37q-90 0 -159 -100.5t-102.5 -245.5t-50 -273t-16.5 -219q23 -8 49 -8q35 0 76 15.5t86 44.5l77 50q32 22 76 57l56 44z" />
<glyph unicode="&#xe2;" horiz-adv-x="1081" d="M1079 1368q-33 -61 -116 -111q-160 129 -248 277q-129 -137 -350 -252q-31 33 -52 80q279 195 439 385q114 -193 327 -379zM991 119q-143 -143 -262 -144q-88 0 -88 80q0 20 16 168q-111 -117 -209 -183.5t-210 -66.5q-92 0 -126 45t-34 144q0 154 28.5 308.5t92 310 t187.5 252.5t290 97q123 0 242 -55l-99 -909l172 2v-49zM741 948q-59 37 -161 37q-90 0 -159 -100.5t-102.5 -245.5t-50 -273t-16.5 -219q23 -8 49 -8q35 0 76 15.5t86 44.5l77 50q32 22 76 57l56 44z" />
<glyph unicode="&#xe3;" horiz-adv-x="1081" d="M1112 1473q-10 -14 -27.5 -35t-74 -54.5t-113.5 -33.5q-51 0 -203.5 44t-191.5 44q-106 0 -170 -56l-53 76q10 14 30.5 36t81 57.5t119.5 35.5q57 0 207.5 -44t187.5 -44q41 0 80 12.5t59 24.5l19 14zM991 119q-143 -143 -262 -144q-88 0 -88 80q0 20 16 168 q-111 -117 -209 -183.5t-210 -66.5q-92 0 -126 45t-34 144q0 154 28.5 308.5t92 310t187.5 252.5t290 97q123 0 242 -55l-99 -909l172 2v-49zM741 948q-59 37 -161 37q-90 0 -159 -100.5t-102.5 -245.5t-50 -273t-16.5 -219q23 -8 49 -8q35 0 76 15.5t86 44.5l77 50 q32 22 76 57l56 44z" />
<glyph unicode="&#xe4;" horiz-adv-x="1081" d="M1051 1468q-2 -16 -61.5 -71.5t-80 -55.5t-68.5 54.5t-44 72.5q2 20 61.5 73.5t77.5 53.5t67.5 -53.5t47.5 -73.5zM563 1468q-2 -16 -61.5 -71.5t-80 -55.5t-68.5 54.5t-44 72.5q2 20 61.5 73.5t78 53.5t67.5 -53.5t47 -73.5zM991 119q-143 -143 -262 -144q-88 0 -88 80 q0 20 16 168q-111 -117 -209 -183.5t-210 -66.5q-92 0 -126 45t-34 144q0 154 28.5 308.5t92 310t187.5 252.5t290 97q123 0 242 -55l-99 -909l172 2v-49zM741 948q-59 37 -161 37q-90 0 -159 -100.5t-102.5 -245.5t-50 -273t-16.5 -219q23 -8 49 -8q35 0 76 15.5t86 44.5 l77 50q32 22 76 57l56 44z" />
<glyph unicode="&#xe5;" horiz-adv-x="1081" d="M952 1536q0 -104 -71.5 -180t-173.5 -76q-238 0 -238 162q0 113 71.5 197.5t182.5 84.5q229 0 229 -188zM991 119q-143 -143 -262 -144q-88 0 -88 80q0 20 16 168q-111 -117 -209 -183.5t-210 -66.5q-92 0 -126 45t-34 144q0 154 28.5 308.5t92 310t187.5 252.5t290 97 q123 0 242 -55l-99 -909l172 2v-49zM831 1550v41q-57 37 -139 37q-39 0 -63.5 -37t-30.5 -74.5t-6 -78.5l2 -25q45 -35 154 -35q27 0 46 18.5t26 48.5t9 55t2 50zM741 948q-59 37 -161 37q-90 0 -159 -100.5t-102.5 -245.5t-50 -273t-16.5 -219q23 -8 49 -8q35 0 76 15.5 t86 44.5l77 50q32 22 76 57l56 44z" />
<glyph unicode="&#xe6;" horiz-adv-x="1406" d="M1378 965q0 -199 -143 -311.5t-457 -168.5q-8 -109 -8 -311q61 -29 109 -29q109 0 346 109l43 -90q-92 -82 -215 -136.5t-240 -54.5q-98 0 -146.5 39t-66.5 142q-188 -180 -356 -181q-94 0 -126 46.5t-32 148.5q0 119 16.5 241.5t60.5 257t110.5 237t175 169t245.5 66.5 q94 0 205 -52q100 55 234 56q115 0 180 -47t65 -131zM1180 911q0 100 -144 101q-193 0 -248 -418q166 33 251 76t113 96t28 145zM752 956q-72 37 -156 37q-86 0 -156.5 -102.5t-108.5 -247.5t-57.5 -277.5t-19.5 -218.5q18 -8 49 -8q94 0 287 152v35q0 403 162 630z" />
<glyph unicode="&#xe7;" horiz-adv-x="856" d="M836 1081q-4 -111 -52 -172q-131 82 -280 82q-246 0 -244 -809v-22q39 -20 96 -21q104 0 371 133l45 -88l-88 -65q-72 -51 -177.5 -142.5t-105.5 -107.5q0 -14 48.5 -40t96.5 -65.5t48 -93.5q0 -86 -108.5 -151.5t-200.5 -65.5q-70 0 -131 31l30 94q57 -12 123 -12 q125 0 125 53q0 39 -80 94.5t-80 87.5q0 88 136 193q-78 -20 -136 -21q-197 0 -196 187q0 977 518 977q150 -1 242 -56z" />
<glyph unicode="&#xe8;" horiz-adv-x="888" d="M844 1405q-16 -70 -45 -105l-194 62q-126 39 -217 70.5t-183 70.5q35 117 84 185q213 -123 555 -283zM872 965q0 -199 -143 -311.5t-457 -168.5q-8 -109 -8 -311q61 -29 109 -29q109 0 346 109l43 -90q-92 -82 -215 -136.5t-240 -54.5q-127 0 -175 73t-48 280 q0 145 23.5 275t80 259t169 206t270.5 77q115 0 180 -47t65 -131zM674 911q0 100 -144 101q-193 0 -247 -418q166 33 250.5 76t112.5 96t28 145z" />
<glyph unicode="&#xe9;" horiz-adv-x="888" d="M1024 1620q-260 -223 -498 -391q-35 25 -67 80q186 168 444 440q72 -59 121 -129zM872 965q0 -199 -143 -311.5t-457 -168.5q-8 -109 -8 -311q61 -29 109 -29q109 0 346 109l43 -90q-92 -82 -215 -136.5t-240 -54.5q-127 0 -175 73t-48 280q0 145 23.5 275t80 259 t169 206t270.5 77q115 0 180 -47t65 -131zM674 911q0 100 -144 101q-193 0 -247 -418q166 33 250.5 76t112.5 96t28 145z" />
<glyph unicode="&#xea;" horiz-adv-x="888" d="M1016 1362q-31 -57 -117 -113q-156 127 -248 279q-129 -137 -350 -252q-31 35 -51 80q279 195 438 385q115 -193 328 -379zM872 965q0 -199 -143 -311.5t-457 -168.5q-8 -109 -8 -311q61 -29 109 -29q109 0 346 109l43 -90q-92 -82 -215 -136.5t-240 -54.5 q-127 0 -175 73t-48 280q0 145 23.5 275t80 259t169 206t270.5 77q115 0 180 -47t65 -131zM674 911q0 100 -144 101q-193 0 -247 -418q166 33 250.5 76t112.5 96t28 145z" />
<glyph unicode="&#xeb;" horiz-adv-x="888" d="M993 1468q-2 -16 -61.5 -71.5t-80 -55.5t-68.5 54.5t-44 72.5q2 20 61.5 73.5t78 53.5t67.5 -53.5t47 -73.5zM506 1468q-2 -16 -61.5 -71.5t-80 -55.5t-68.5 54.5t-44 72.5q2 20 61.5 73.5t78 53.5t67.5 -53.5t47 -73.5zM872 965q0 -199 -143 -311.5t-457 -168.5 q-8 -109 -8 -311q61 -29 109 -29q109 0 346 109l43 -90q-92 -82 -215 -136.5t-240 -54.5q-127 0 -175 73t-48 280q0 145 23.5 275t80 259t169 206t270.5 77q115 0 180 -47t65 -131zM674 911q0 100 -144 101q-193 0 -247 -418q166 33 250.5 76t112.5 96t28 145z" />
<glyph unicode="&#xec;" horiz-adv-x="530" d="M514 1405q-16 -68 -43 -105l-195 62q-125 39 -217 70.5t-182 70.5q35 117 84 185q207 -119 553 -283zM449 121q-145 -145 -263 -146q-88 0 -88 82q0 12 15 142l88 884l170 70l-99 -989h177v-43z" />
<glyph unicode="&#xed;" horiz-adv-x="530" d="M717 1620q-252 -219 -496 -391q-33 25 -67 80q211 193 442 440q70 -53 121 -129zM449 121q-145 -145 -263 -146q-88 0 -88 82q0 12 15 142l88 884l170 70l-99 -989h177v-43z" />
<glyph unicode="&#xee;" horiz-adv-x="530" d="M709 1362q-31 -57 -117 -113q-156 127 -248 279q-129 -137 -350 -252q-31 35 -51 80q279 195 438 385q115 -193 328 -379zM449 121q-145 -145 -263 -146q-88 0 -88 82q0 12 15 142l88 884l170 70l-99 -989h177v-43z" />
<glyph unicode="&#xef;" horiz-adv-x="530" d="M702 1468q-2 -16 -61 -71.5t-79.5 -55.5t-69 54.5t-43.5 72.5q2 20 61 73.5t77.5 53.5t67.5 -53.5t47 -73.5zM215 1468q-2 -16 -61.5 -71.5t-80 -55.5t-68.5 54.5t-44 72.5q2 20 61.5 73.5t78 53.5t67.5 -53.5t47 -73.5zM449 121q-145 -145 -263 -146q-88 0 -88 82 q0 12 15 142l88 884l170 70l-99 -989h177v-43z" />
<glyph unicode="&#xf0;" horiz-adv-x="999" d="M922 760q0 -121 -31 -252t-88.5 -253t-157.5 -201t-223 -79q-203 0 -271.5 77t-68.5 280q0 123 25.5 255t75.5 259t144.5 209t213.5 82q76 0 141 -17q-29 88 -72 185l-170 -74l-39 100l160 68q-51 80 -96 129l88 86q86 -72 143 -158l168 74l41 -96l-153 -68 q80 -139 125 -304t45 -302zM741 774q0 92 -12 148q-31 29 -101.5 51t-117.5 22q-74 0 -125 -66.5t-75.5 -176t-35 -212t-10.5 -210.5q0 -78 4 -140q68 -66 230 -65q59 0 108 65.5t78 166t43 209t14 208.5z" />
<glyph unicode="&#xf1;" horiz-adv-x="1114" d="M1073 1473q-10 -14 -27.5 -35t-74 -54.5t-113.5 -33.5q-51 0 -203.5 44t-191.5 44q-106 0 -170 -56l-53 76q10 14 30.5 36t81 57.5t119.5 35.5q57 0 207.5 -44t187.5 -44q41 0 80 12.5t58 24.5l20 14zM1018 125q-145 -150 -262 -150q-86 0 -86 82q0 53 10 125l102 746 q-29 8 -45 8q-86 0 -210 -65.5t-179 -116.5l-49 -424v-330h-199l113 1079l174 72l-27 -274q96 102 226.5 179t226.5 77q92 0 118.5 -45.5t10.5 -163.5l-100 -756h176v-43z" />
<glyph unicode="&#xf2;" horiz-adv-x="983" d="M825 1405q-16 -68 -43 -105l-194 62q-125 39 -217 70.5t-185 70.5q39 119 84 185q197 -113 555 -283zM901 780q0 -123 -26.5 -255t-81 -259t-151.5 -209t-220 -82q-176 0 -258 81t-82 255q0 98 12 202.5t45 218.5t80 202t126 145.5t175 57.5q381 -1 381 -357zM723 743 q0 102 -14 179q-82 74 -220 73q-68 0 -115.5 -58t-71 -155.5t-33 -193.5t-9.5 -203q0 -113 8 -195q68 -66 230 -65q111 0 168 195.5t57 422.5z" />
<glyph unicode="&#xf3;" horiz-adv-x="983" d="M989 1620q-252 -219 -495 -391q-35 25 -68 80q186 168 444 440q74 -61 119 -129zM901 780q0 -123 -26.5 -255t-81 -259t-151.5 -209t-220 -82q-176 0 -258 81t-82 255q0 98 12 202.5t45 218.5t80 202t126 145.5t175 57.5q381 -1 381 -357zM723 743q0 102 -14 179 q-82 74 -220 73q-68 0 -115.5 -58t-71 -155.5t-33 -193.5t-9.5 -203q0 -113 8 -195q68 -66 230 -65q111 0 168 195.5t57 422.5z" />
<glyph unicode="&#xf4;" horiz-adv-x="983" d="M981 1362q-31 -57 -117 -113q-156 127 -248 279q-129 -137 -350 -252q-31 35 -51 80q279 195 438 385q115 -193 328 -379zM901 780q0 -123 -26.5 -255t-81 -259t-151.5 -209t-220 -82q-176 0 -258 81t-82 255q0 98 12 202.5t45 218.5t80 202t126 145.5t175 57.5 q381 -1 381 -357zM723 743q0 102 -14 179q-82 74 -220 73q-68 0 -115.5 -58t-71 -155.5t-33 -193.5t-9.5 -203q0 -113 8 -195q68 -66 230 -65q111 0 168 195.5t57 422.5z" />
<glyph unicode="&#xf5;" horiz-adv-x="983" d="M1022 1473q-10 -14 -27.5 -35t-74 -54.5t-113.5 -33.5q-51 0 -203.5 44t-191.5 44q-106 0 -170 -56l-54 76q10 14 31 36t81 57.5t120 35.5q57 0 207.5 -44t187.5 -44q41 0 80 12.5t59 24.5l19 14zM901 780q0 -123 -26.5 -255t-81 -259t-151.5 -209t-220 -82 q-176 0 -258 81t-82 255q0 98 12 202.5t45 218.5t80 202t126 145.5t175 57.5q381 -1 381 -357zM723 743q0 102 -14 179q-82 74 -220 73q-68 0 -115.5 -58t-71 -155.5t-33 -193.5t-9.5 -203q0 -113 8 -195q68 -66 230 -65q111 0 168 195.5t57 422.5z" />
<glyph unicode="&#xf6;" horiz-adv-x="983" d="M971 1468q-2 -16 -61.5 -71.5t-80 -55.5t-68.5 54.5t-46 72.5q2 20 62.5 73.5t78.5 53.5t67.5 -53.5t47.5 -73.5zM483 1468q-2 -16 -61.5 -71.5t-79.5 -55.5t-68.5 54.5t-46.5 72.5q2 20 62.5 73.5t79 53.5t67.5 -53.5t47 -73.5zM901 780q0 -123 -26.5 -255t-81 -259 t-151.5 -209t-220 -82q-176 0 -258 81t-82 255q0 98 12 202.5t45 218.5t80 202t126 145.5t175 57.5q381 -1 381 -357zM723 743q0 102 -14 179q-82 74 -220 73q-68 0 -115.5 -58t-71 -155.5t-33 -193.5t-9.5 -203q0 -113 8 -195q68 -66 230 -65q111 0 168 195.5t57 422.5z " />
<glyph unicode="&#xf7;" horiz-adv-x="958" d="M641 1044q0 -16 -68.5 -79.5t-89 -63.5t-73 59.5t-52.5 81.5q0 20 68 81t88.5 61t73.5 -58.5t53 -81.5zM870 653h-794v142h794v-142zM580 401q0 -18 -69 -80.5t-89.5 -62.5t-72.5 59.5t-52 81.5q0 20 67.5 81t88 61t74 -58.5t53.5 -81.5z" />
<glyph unicode="&#xf8;" horiz-adv-x="999" d="M1032 1133l-145 -183q35 -82 35 -190q0 -121 -31 -252t-88.5 -253t-157.5 -201t-223 -79q-223 0 -291 105l-145 -154l-78 66l184 198q-10 51 -10 142q0 123 25.5 255t75.5 259t144.5 209t213.5 82q193 0 286 -99l129 160zM729 920v2q-31 29 -101.5 51t-117.5 22 q-68 0 -118 -58t-75.5 -155.5t-38 -193.5t-14.5 -203zM741 774l-475 -547q0 -8 1 -20t1 -17q68 -66 230 -65q59 0 108 65.5t78 167t43 210t14 206.5z" />
<glyph unicode="&#xf9;" horiz-adv-x="1087" d="M840 1405q-18 -74 -43 -105l-194 62q-126 39 -217 70.5t-183 70.5q35 117 84 185q207 -119 553 -283zM1022 125q-141 -145 -262 -145q-86 0 -86 81q0 29 2 50l14 161q-106 -141 -208.5 -220t-241.5 -79q-154 0 -136 211l82 895l172 68l-84 -1004q20 -10 41 -10 q63 0 194.5 96.5t188.5 155.5l76 694l174 68l-110 -981h184v-41z" />
<glyph unicode="&#xfa;" horiz-adv-x="1087" d="M1026 1620q-272 -233 -498 -391q-33 25 -67 80q209 188 444 440q72 -59 121 -129zM1022 125q-141 -145 -262 -145q-86 0 -86 81q0 29 2 50l14 161q-106 -141 -208.5 -220t-241.5 -79q-154 0 -136 211l82 895l172 68l-84 -1004q20 -10 41 -10q63 0 194.5 96.5t188.5 155.5 l76 694l174 68l-110 -981h184v-41z" />
<glyph unicode="&#xfb;" horiz-adv-x="1087" d="M997 1362q-31 -59 -118 -113q-154 123 -246 279q-129 -137 -350 -252q-31 35 -52 80q279 195 439 385q114 -193 327 -379zM1022 125q-141 -145 -262 -145q-86 0 -86 81q0 29 2 50l14 161q-106 -141 -208.5 -220t-241.5 -79q-154 0 -136 211l82 895l172 68l-84 -1004 q20 -10 41 -10q63 0 194.5 96.5t188.5 155.5l76 694l174 68l-110 -981h184v-41z" />
<glyph unicode="&#xfc;" horiz-adv-x="1087" d="M979 1468q-2 -16 -61.5 -71.5t-81.5 -55.5q-20 0 -67.5 54.5t-45.5 72.5q2 20 61.5 73.5t77.5 53.5q20 0 69.5 -53.5t47.5 -73.5zM492 1468q-2 -16 -61.5 -71.5t-82.5 -55.5q-20 0 -67.5 54.5t-44.5 72.5q2 20 61 73.5t78 53.5q20 0 69.5 -53.5t47.5 -73.5zM1022 125 q-141 -145 -262 -145q-86 0 -86 81q0 29 2 50l14 161q-106 -141 -208.5 -220t-241.5 -79q-154 0 -136 211l82 895l172 68l-84 -1004q20 -10 41 -10q63 0 194.5 96.5t188.5 155.5l76 694l174 68l-110 -981h184v-41z" />
<glyph unicode="&#xfd;" horiz-adv-x="937" d="M963 1620q-252 -219 -496 -391q-33 25 -68 80q211 193 443 440q70 -53 121 -129zM924 1059q0 -59 -16.5 -127t-29 -99.5t-47.5 -111.5l-505 -1172h-187l221 451h-106l-96 799l-117 260q147 78 252 78l129 -1055l276 655q12 27 19 68v313h205q2 -14 2 -59z" />
<glyph unicode="&#xfe;" horiz-adv-x="1019" d="M954 819q0 -221 -63.5 -409.5t-194.5 -309t-307 -120.5q-61 0 -131 18l-25 -234v-215h-198l203 1862h-201v105q168 41 307 40q41 0 56.5 -14t11.5 -49l-66 -610q227 242 393 241q127 0 171 -60.5t44 -244.5zM780 961q-35 10 -63 10q-166 0 -385 -230l-60 -577 q106 -47 160 -47q61 0 113.5 28.5t86.5 82t61.5 112.5t43 138t24.5 142.5t13 140.5t5 115t1 85z" />
<glyph unicode="&#xff;" horiz-adv-x="937" d="M934 1468q-2 -16 -61.5 -71.5t-80 -55.5t-68.5 54.5t-44 72.5q2 20 61.5 73.5t78 53.5t67.5 -53.5t47 -73.5zM446 1468q-2 -16 -61 -71.5t-79.5 -55.5t-69 54.5t-43.5 72.5q2 20 61 73.5t77.5 53.5t67.5 -53.5t47 -73.5zM924 1059q0 -59 -16.5 -127t-29 -99.5 t-47.5 -111.5l-505 -1172h-187l221 451h-106l-96 799l-117 260q147 78 252 78l129 -1055l276 655q12 27 19 68v313h205q2 -14 2 -59z" />
<glyph unicode="&#x111;" horiz-adv-x="1048" d="M1145 1286h-203l-125 -1120h174v-45q-141 -145 -262 -146q-88 0 -88 82q0 16 16 164q-113 -117 -210 -182.5t-209 -65.5q-92 0 -126 44t-34 145q0 154 28.5 308.5t92 309t187.5 251.5t290 97q53 0 84 -4l18 162h-243v121h256l12 121l172 53l-19 -174h189v-121zM739 956h2 q-59 31 -161 31q-88 0 -157 -100.5t-103.5 -246.5t-51 -274t-16.5 -219q78 -33 223 58q18 10 197 141z" />
<glyph unicode="&#x131;" horiz-adv-x="530" d="M449 121q-145 -145 -263 -146q-88 0 -88 82q0 12 15 142l88 884l170 70l-99 -989h177v-43z" />
<glyph unicode="&#x141;" horiz-adv-x="1071" d="M1055 338l-62 -338h-977q-6 53 0 98l134 37q35 8 57 42t26 77l31 393l-180 -98v129l188 96l33 420q4 41 -10 79t-43 48l-125 43q0 45 14 84h537q6 -43 2 -90l-102 -25q-45 -10 -62.5 -23.5t-19.5 -56.5l-23 -370l229 131v-129l-237 -129l-37 -615l277 9q98 14 164.5 70 t97.5 132z" />
<glyph unicode="&#x142;" horiz-adv-x="528" d="M543 872l-195 -104l-63 -604h176v-43q-143 -143 -262 -144q-88 0 -88 82q0 6 14 142l49 473l-149 -80v121l163 88l64 608h-201v105q168 41 307 40q41 0 56.5 -14t11.5 -49l-64 -596l181 96v-121z" />
<glyph unicode="&#x152;" horiz-adv-x="1921" d="M1855 332l-59 -332h-928q-84 -23 -176 -23q-289 0 -444.5 180.5t-155.5 479.5q0 221 87 410.5t259 308.5t393 119q113 0 195 -27h803l-23 -322q-35 -6 -96 0q-12 96 -46 140.5t-110 46.5l-335 12l-37 -534l516 10l-10 -148l-514 11l-27 -539l348 8q102 2 174 64.5 t107 146.5zM1036 1237q-102 86 -252 86q-154 0 -267.5 -98.5t-164.5 -238.5t-51 -296q0 -113 22.5 -208t69.5 -177t134 -128t204 -46q119 0 219 68q12 33 13 53l73 969v16z" />
<glyph unicode="&#x153;" horiz-adv-x="1406" d="M1391 965q0 -199 -143.5 -311.5t-456.5 -168.5q-8 -109 -9 -311q61 -29 109 -29q109 0 346 109l43 -90q-92 -82 -215 -136.5t-240 -54.5q-82 0 -128 27t-68 94q-109 -117 -285 -117q-121 0 -191.5 80t-70.5 283q0 123 25.5 254t77 258t145.5 209t217 82q182 0 280 -115 q125 115 318 115q115 0 180.5 -47t65.5 -131zM1192 911q0 100 -143 101q-193 0 -248 -418q166 33 251 76t112.5 96t27.5 145zM743 930q-88 59 -227 59q-70 0 -121 -65.5t-73.5 -162.5t-36 -209t-9 -204t4.5 -147q63 -61 223 -62q37 0 104 45q-6 57 -6 142q0 383 141 604z " />
<glyph unicode="&#x160;" horiz-adv-x="1015" d="M1040 1810q-217 -109 -430 -301q-61 74 -156.5 155t-195.5 122q35 82 80 112q186 -57 309 -184q143 109 344 182q39 -39 49 -86zM954 1382q-14 -143 -39 -258h-65q-27 96 -103.5 151.5t-177.5 55.5q-88 0 -154.5 -45t-66.5 -129q0 -70 42 -138.5t106 -122.5l137 -120 l137 -125q63 -59 105.5 -140t42.5 -167q0 -182 -145.5 -276.5t-334.5 -94.5q-262 0 -438 121q14 55 84 285h51q31 -133 113 -208t213 -75q102 0 185 57.5t83 159.5q0 57 -41 116.5t-101 110.5l-131 112q-71 62 -131.5 124t-101.5 148t-41 178q0 150 129 254t283 104 q231 0 360 -78z" />
<glyph unicode="&#x161;" horiz-adv-x="788" d="M922 1649q-279 -195 -439 -385q-115 193 -327 378q63 70 110 99q152 -123 248 -283q158 166 356 271q38 -37 52 -80zM754 1087q0 -104 -58 -182q-86 59 -152.5 86t-156.5 27q-35 0 -63.5 -24.5t-28.5 -53.5q0 -63 41 -131t99 -128l118 -121q59 -60 100 -129t41 -132 q0 -154 -121.5 -236.5t-283.5 -82.5q-156 0 -283 53q18 98 60 178q205 -76 383 -76q33 0 62.5 18.5t29.5 49.5q0 57 -63.5 139t-138.5 155.5t-138.5 175t-63.5 189.5q0 143 98.5 209t264.5 66q137 -1 254 -50z" />
<glyph unicode="&#x178;" horiz-adv-x="1275" d="M1100 1645q0 -16 -53.5 -71.5t-75.5 -55.5q-20 0 -73.5 54t-53.5 73q0 20 54 73.5t73 53.5q20 0 74.5 -53.5t54.5 -73.5zM571 1645q0 -16 -53 -71.5t-76 -55.5q-20 0 -73.5 54t-53.5 73q0 20 54.5 73.5t72.5 53.5q20 0 74.5 -53.5t54.5 -73.5zM1321 1376 q-113 -45 -170 -125l-440 -620l-23 -383q-4 -39 11.5 -74t43.5 -43l166 -45q-6 -53 -14 -86h-625q-4 66 0 94l144 37q78 18 88 121l33 379l-340 592q-35 57 -80 98q-12 12 -37 31.5t-31 25.5q0 49 8 70h486q2 -39 0 -74l-103 -39q-35 -12 -38 -58t22 -89l231 -432l308 442 q23 31 15.5 70t-36.5 53l-106 55q0 45 8 72h477q2 -25 2 -72z" />
<glyph unicode="&#x17d;" horiz-adv-x="1177" d="M1130 1810q-219 -113 -430 -301q-61 74 -156 155t-196 122q33 78 80 112q186 -57 309 -184q145 111 346 182q37 -39 47 -86zM1122 1362l-868 -1225l481 19q102 4 172 64.5t105 141.5l80 -12l-62 -350h-989l-27 113l852 1214l-442 -20q-139 -20 -186 -205q-43 -4 -84 4 l22 342h920z" />
<glyph unicode="&#x17e;" horiz-adv-x="856" d="M979 1649q-279 -195 -438 -385q-115 193 -328 378q63 70 111 99q152 -123 247 -283q158 166 357 271q37 -37 51 -80zM856 1040l-649 -878l8 -12q324 39 582 55q2 -10 2 -39q0 -104 -21 -166h-731l-43 90l664 887l-11 10q-313 -68 -536 -67q0 135 43 210q164 -18 340 -18 q31 0 319 6z" />
<glyph unicode="&#x192;" horiz-adv-x="843" d="M1020 1513q0 -39 -20.5 -100t-43.5 -88q-135 121 -225 121q-94 0 -139 -63.5t-60 -194.5l-49 -473h265v-115h-277l-72 -670q-16 -172 -130.5 -280.5t-274.5 -108.5q-139 0 -209 56q2 37 23.5 94t41.5 86q150 -113 211 -113q66 0 111 67.5t59 190.5l72 678h-209v115h221 l50 465q16 178 133.5 283.5t312.5 105.5q139 -1 209 -56z" />
<glyph unicode="&#x2c6;" horiz-adv-x="1105" d="M924 1362q-31 -57 -117 -113q-156 127 -248 279q-129 -137 -350 -252q-31 35 -51 80q279 195 438 385q115 -193 328 -379z" />
<glyph unicode="&#x2c7;" horiz-adv-x="1105" d="M985 1649q-279 -195 -438 -385q-115 193 -328 378q63 70 111 99q152 -123 248 -283q158 166 356 271q37 -37 51 -80z" />
<glyph unicode="&#x2d8;" horiz-adv-x="1024" d="M893 1491q-10 -18 -30.5 -42t-62.5 -60.5t-108.5 -61t-142.5 -24.5q-102 0 -189.5 40.5t-120 73.5t-46.5 58l110 104q104 -127 254 -127q158 0 256 121z" />
<glyph unicode="&#x2d9;" horiz-adv-x="712" d="M492 1466q0 -18 -56.5 -76.5t-79.5 -58.5q-20 0 -76.5 57.5t-56.5 78t56.5 76.5t77 56t78 -56.5t57.5 -76.5z" />
<glyph unicode="&#x2da;" horiz-adv-x="909" d="M676 1536q0 -104 -72 -180t-174 -76q-238 0 -237 162q0 113 71.5 197.5t181.5 84.5q230 0 230 -188zM555 1550v41q-57 37 -139 37q-39 0 -63.5 -37t-31 -75.5t-4.5 -77.5v-25q45 -35 154 -35q90 0 84 172z" />
<glyph unicode="&#x2db;" horiz-adv-x="1157" d="M1008 51q-96 -63 -185.5 -159.5t-91.5 -176.5q49 -57 129 -57q41 0 96 12l27 -96q-68 -33 -174 -33q-250 0 -250 158q0 207 404 418z" />
<glyph unicode="&#x2dc;" horiz-adv-x="1105" d="M973 1473q-10 -14 -27.5 -35t-74 -54.5t-113.5 -33.5q-51 0 -204 44t-192 44q-104 0 -167 -56l-56 76q10 14 30.5 36t81 57.5t120.5 35.5q57 0 207.5 -44t187.5 -44q41 0 80 12.5t59 24.5l19 14z" />
<glyph unicode="&#x2dd;" horiz-adv-x="1163" d="M1053 1622l-61 -87l-70 -93l-65 -81l-76 -90l-68 -81q-47 20 -99 76q193 276 281 460q86 -36 158 -104zM590 1612q-94 -143 -371 -410q-37 20 -78 78q201 260 308 442q90 -47 141 -110z" />
<glyph unicode="&#x394;" horiz-adv-x="1286" d="M1153 82q-6 -66 -12 -82h-1180q-4 57 -2 82l735 1350l174 53zM938 152l-166 991l-18 172h-15l-75 -168l-519 -1008z" />
<glyph unicode="&#x2206;" horiz-adv-x="1286" d="M1153 82q-6 -66 -12 -82h-1180q-4 57 -2 82l735 1350l174 53zM938 152l-166 991l-18 172h-15l-75 -168l-519 -1008z" />
<glyph unicode="&#x3a9;" horiz-adv-x="1458" d="M1386 844q0 -213 -111.5 -417t-293.5 -294l2 -4l385 47l-18 -176h-525l11 141q346 252 346 684q0 219 -96.5 363.5t-297.5 144.5q-127 0 -222 -58t-146 -154.5t-74.5 -199t-23.5 -210.5q0 -174 66.5 -297t207.5 -256l-10 -158h-539l16 176l371 -47l2 4 q-150 63 -234.5 224t-84.5 335q0 203 81 379t242.5 290t372.5 114q285 0 429 -170t144 -461z" />
<glyph unicode="&#x2126;" horiz-adv-x="1458" d="M1386 844q0 -213 -111.5 -417t-293.5 -294l2 -4l385 47l-18 -176h-525l11 141q346 252 346 684q0 219 -96.5 363.5t-297.5 144.5q-127 0 -222 -58t-146 -154.5t-74.5 -199t-23.5 -210.5q0 -174 66.5 -297t207.5 -256l-10 -158h-539l16 176l371 -47l2 4 q-150 63 -234.5 224t-84.5 335q0 203 81 379t242.5 290t372.5 114q285 0 429 -170t144 -461z" />
<glyph unicode="&#x3b1;" horiz-adv-x="1003" d="M807 182l172 2v-49q-143 -143 -262 -143q-88 0 -88 80q0 20 16 168q-111 -117 -209 -183.5t-211 -66.5q-92 0 -125.5 45t-33.5 143q0 154 28.5 308.5t92 310t187.5 253t290 97.5q96 0 166.5 -55.5t58.5 -149.5zM659 367l62 532q4 45 -41 75t-113 27q-90 0 -158.5 -100 t-102.5 -245.5t-50 -273.5t-16 -218q23 -8 49 -8q35 0 76 15t86 44l76 50q32 22 77 58z" />
<glyph unicode="&#x3b2;" horiz-adv-x="1118" d="M1073 299q0 -154 -122 -236.5t-283 -82.5q-115 0 -242 53q18 98 59 178l72 -25q47 -16 66.5 -22t55.5 -14.5t69.5 -11.5t78.5 -3q33 0 63 18.5t30 49.5q0 57 -52.5 139t-115 154.5t-114.5 174t-52 191.5q0 39 28.5 81t69.5 84l82 88q41 46 69.5 108.5t28.5 132.5 q-66 94 -264 94q-94 0 -137 -70.5t-55 -203.5l-125 -1364v-263h-195l133 1448h-162l13 121h161l5 49q16 178 139 292t309 114q70 0 140.5 -17.5t133 -70.5t62.5 -131q0 -88 -42 -167t-93 -123t-93 -84t-42 -60q0 -63 32.5 -129t80.5 -123l96 -115q47 -57 79.5 -124 t32.5 -130z" />
<glyph unicode="&#x3c0;" horiz-adv-x="1134" d="M1114 987l-182 -10l-82 -813h176v-43q-139 -143 -262 -144q-88 0 -88 80q0 27 6 78t8 64l78 768l-369 -23l-65 -618v-326h-199l105 936l-166 -10q0 127 14 192h1002q16 -29 24 -131z" />
<glyph unicode="&#x2000;" horiz-adv-x="980" />
<glyph unicode="&#x2001;" horiz-adv-x="1964" />
<glyph unicode="&#x2002;" horiz-adv-x="980" />
<glyph unicode="&#x2003;" horiz-adv-x="1964" />
<glyph unicode="&#x2004;" horiz-adv-x="653" />
<glyph unicode="&#x2005;" horiz-adv-x="489" />
<glyph unicode="&#x2006;" horiz-adv-x="325" />
<glyph unicode="&#x2007;" horiz-adv-x="325" />
<glyph unicode="&#x2008;" horiz-adv-x="243" />
<glyph unicode="&#x2009;" horiz-adv-x="391" />
<glyph unicode="&#x200a;" horiz-adv-x="108" />
<glyph unicode="&#x2010;" horiz-adv-x="780" d="M688 690l-18 -170l-576 2l15 135z" />
<glyph unicode="&#x2011;" horiz-adv-x="780" d="M688 690l-18 -170l-576 2l15 135z" />
<glyph unicode="&#x2012;" horiz-adv-x="780" d="M688 690l-18 -170l-576 2l15 135z" />
<glyph unicode="&#x2013;" horiz-adv-x="1024" d="M1030 670l-14 -125h-1024l14 125h1024z" />
<glyph unicode="&#x2014;" horiz-adv-x="2048" d="M2056 670l-14 -125h-2050l14 125h2050z" />
<glyph unicode="&#x2018;" horiz-adv-x="464" d="M455 1518q-78 -113 -113 -234q61 -94 61 -186q0 -39 -73.5 -62.5t-130.5 -23.5q-12 14 -23.5 62t-11.5 77q0 88 56 207t171 215z" />
<glyph unicode="&#x2019;" horiz-adv-x="462" d="M449 1423q0 -88 -56.5 -206.5t-169.5 -215.5l-65 56q84 121 112 233q-61 94 -61 187q0 39 65.5 62.5t118.5 23.5q14 -16 35 -66.5t21 -73.5z" />
<glyph unicode="&#x201a;" horiz-adv-x="462" d="M324 49q0 -82 -65.5 -202.5t-182.5 -219.5l-64 56q78 113 113 233q-72 111 -72 186q0 39 78 62.5t137 23.5q14 -16 35 -65t21 -74z" />
<glyph unicode="&#x201c;" horiz-adv-x="903" d="M856 1520q-84 -121 -113 -234q61 -94 62 -186q0 -39 -74 -62.5t-131 -23.5q-12 14 -23.5 62t-11.5 77q0 88 56.5 207t169.5 215zM467 1520q-84 -121 -113 -234q61 -94 62 -186q0 -39 -74 -62.5t-131 -23.5q-12 14 -23.5 62t-11.5 77q0 88 56.5 207t168.5 215z" />
<glyph unicode="&#x201d;" horiz-adv-x="903" d="M874 1423q0 -88 -56 -206.5t-169 -215.5l-65 56q84 121 112 233q-59 90 -59 187q0 39 72.5 62.5t130.5 23.5q12 -14 23 -62.5t11 -77.5zM485 1423q0 -88 -56 -206.5t-169 -215.5l-65 56q84 121 112 233q-59 90 -59 187q0 39 72.5 62.5t130.5 23.5q12 -14 23 -62.5 t11 -77.5z" />
<glyph unicode="&#x201e;" horiz-adv-x="903" d="M739 47q0 -90 -56 -208t-171 -214l-63 56q78 109 112 233q-59 90 -59 186q0 39 72.5 62.5t130.5 23.5q12 -14 23 -63t11 -76zM350 47q0 -90 -56 -208t-171 -214l-64 56q78 109 113 233q-59 90 -59 186q0 39 72.5 62.5t129.5 23.5q12 -14 23.5 -63t11.5 -76z" />
<glyph unicode="&#x2020;" horiz-adv-x="884" d="M915 1118l-28 -84l-357 31l-81 -1065l-93 -20l-92 20l144 1065l-365 -31l-12 84l30 84l357 -31l8 373l94 21l90 -21l-69 -373l364 31z" />
<glyph unicode="&#x2021;" horiz-adv-x="987" d="M981 1108l-29 -74l-356 31l-61 -586l364 31l10 -94l-28 -74l-357 31l-10 -373l-94 -20l-90 18l71 375l-364 -31l-12 74l30 94l357 -31l61 586l-364 -31l-13 74l31 94l356 -31l11 373l94 21l90 -21l-72 -373l365 31z" />
<glyph unicode="&#x2022;" horiz-adv-x="1024" d="M809 721q0 -123 -87 -209t-210 -86t-210 86t-87 209t87 210t210 87t210 -87t87 -210z" />
<glyph unicode="&#x2026;" horiz-adv-x="1470" d="M1401 72q0 -18 -77 -89t-99.5 -71t-81 67.5t-58.5 92.5q0 20 76 87.5t98.5 67.5t82 -65t59.5 -90zM883 72q0 -18 -77 -89t-99.5 -71t-81 67.5t-58.5 92.5q0 20 76 87.5t98.5 67.5t82 -65t59.5 -90zM356 72q0 -18 -76.5 -89t-99 -71t-81 67.5t-58.5 92.5q0 20 76 87.5 t98.5 67.5t81.5 -65t59 -90z" />
<glyph unicode="&#x202f;" horiz-adv-x="391" />
<glyph unicode="&#x2030;" horiz-adv-x="2168" d="M2107 365q0 -160 -96 -267.5t-254 -107.5q-127 0 -198.5 63.5t-71.5 190.5q0 158 94 269.5t248 111.5q131 0 204.5 -64.5t73.5 -195.5zM780 1194q0 -160 -96 -267.5t-254 -107.5q-127 0 -198.5 63.5t-71.5 190.5q0 158 94 269.5t248 111.5q131 0 204.5 -64.5t73.5 -195.5 zM1401 1202l-1200 -1085l-78 96l1198 1083zM1411 365q0 -160 -96 -267.5t-254 -107.5q-127 0 -198.5 63.5t-71.5 190.5q0 158 94 269.5t248 111.5q131 0 204.5 -64.5t73.5 -195.5zM1968 350q0 78 -41 123t-117 45q-96 0 -140 -79t-44 -185q0 -74 39 -115t113 -41 q96 0 143 75t47 177zM641 1180q0 78 -41 123t-117 45q-96 0 -140 -79t-44 -186q0 -74 39 -114.5t113 -40.5q96 0 143 75t47 177zM1272 350q0 78 -41 123t-117 45q-96 0 -140 -79t-44 -185q0 -74 39 -115t112 -41q96 0 143.5 75t47.5 177z" />
<glyph unicode="&#x2039;" horiz-adv-x="630" d="M553 981q-119 -281 -236 -424q100 -246 132 -428q-80 -14 -130 -27q-41 172 -196 455q211 250 313 451q68 -15 117 -27z" />
<glyph unicode="&#x203a;" horiz-adv-x="630" d="M510 557q-213 -283 -293 -455l-123 27q78 205 221 428q-84 137 -147 424l123 27q57 -197 219 -451z" />
<glyph unicode="&#x2044;" horiz-adv-x="817" d="M1049 1202l-1201 -1085l-79 96l1200 1083z" />
<glyph unicode="&#x205f;" horiz-adv-x="489" />
<glyph unicode="&#x20ac;" horiz-adv-x="1265" d="M1139 1016q0 -74 -76 -150q-160 137 -266 138q-250 0 -328 -250h418l-13 -109h-432q-14 -96 -16 -174h430l-12 -109h-412q41 -248 332 -247q20 0 66.5 23.5t108.5 62.5t67 41q55 -68 51 -172q-61 -39 -166 -63.5t-189 -24.5q-209 0 -327.5 88t-134.5 292h-172l12 109h160 q4 109 18 174h-160l11 109h184q70 176 216 284.5t329 108.5q96 0 198.5 -31.5t102.5 -99.5z" />
<glyph unicode="&#x2122;" horiz-adv-x="1802" d="M1604 713h-125l-29 512l2 94l-256 -606h-141l-86 598l-15 -76l-155 -522h-111l232 735h129l73 -477l23 -176l72 182l204 471h131zM795 1448l-13 -113l-270 25l-37 -363l-22 -284h-119l35 284l39 363l-275 -25l12 113h650z" />
<glyph unicode="&#x2202;" horiz-adv-x="1077" d="M971 848q0 -397 -127 -636t-379 -239q-170 0 -246 74t-76 182q0 123 22.5 238t70 219.5t134.5 168t201 63.5q117 0 215 -64q-37 395 -239 610l125 86q299 -282 299 -702zM784 717q-84 39 -137 52t-131 13q-199 0 -199 -581q2 -2 14.5 -17.5t17.5 -20.5t19.5 -17.5 t28 -17.5l34 -12t48 -10.5t60.5 -3.5q45 0 81.5 30t61.5 90.5t42 113.5t30.5 139t18.5 127t11 115z" />
<glyph unicode="&#x220f;" horiz-adv-x="1552" d="M1516 1448q-4 -66 -11 -84l-108 -25q-33 -8 -48.5 -26.5t-17.5 -61.5l-65 -1022q-6 -80 34 -90l168 -39q-8 -80 -16 -100h-578q-4 63 0 90l89 25q59 16 89.5 78.5t34.5 121.5l72 1000l-672 -8l-69 -1084q-6 -63 41 -76l192 -53q-8 -72 -16 -94h-619q-4 66 -2 82l125 45 q41 14 67.5 67.5t31.5 104.5l65 881q8 121 -53 139l-146 43q8 68 15 86h1397z" />
<glyph unicode="&#x2211;" horiz-adv-x="1191" d="M1137 1448l-27 -342q-41 -10 -84 -4q-25 199 -158 205l-485 18l317 -520l-491 -633l549 8q53 0 94 20.5t68.5 60.5t41 66.5t33.5 75.5q43 0 82 -14l-71 -389h-965l-27 109l490 641l-373 606l29 92h977z" />
<glyph unicode="&#x2212;" horiz-adv-x="958" d="M961 795l-15 -142h-794l14 142h795z" />
<glyph unicode="&#x221a;" horiz-adv-x="1275" d="M1372 1669l-754 -1849l-192 -39l-172 1202h-217v104q168 41 332 41q41 0 52 -14t17 -59l113 -776l18 -261h9l90 263l585 1417z" />
<glyph unicode="&#x221e;" horiz-adv-x="1964" d="M1855 752q0 -156 -120.5 -255.5t-280.5 -99.5q-35 0 -71.5 7.5t-65.5 15.5t-67 29l-58 30q-20 10 -63 41l-55 41l-58 46l-53 42q-35 -20 -118 -76.5t-136.5 -88t-134 -61.5t-154.5 -30q-137 0 -227.5 74t-90.5 209q0 160 117 264t279 104q47 0 97 -12t84 -25.5t86 -47 t73.5 -49t79 -60.5t71.5 -55q14 8 95 62t114 72.5t100.5 53.5t124 48t113.5 13q135 0 227 -78.5t92 -213.5zM1712 750q0 86 -55 133t-144 47q-66 0 -157.5 -42t-135.5 -71l-139 -94q4 -2 36 -28.5t41 -33l40 -30t46.5 -31.5t44 -26.5t47.5 -25.5l45 -18q26 -10 49.5 -14 t46.5 -4q102 0 168.5 68t66.5 170zM872 719l-45 35q-45 37 -55 44l-51 37q-41 30 -62 39l-55 27q-35 16 -64.5 22.5t-58.5 6.5q-100 0 -167.5 -67.5t-67.5 -168.5q0 -88 54 -135t144 -47q29 0 60 6t67 23l64 28q27 12 67 38l60 37q18 11 61 41z" />
<glyph unicode="&#x222b;" horiz-adv-x="563" d="M778 1532q0 -84 -61 -158q-90 72 -178 72q-133 0 -152 -258l-88 -1223q-12 -174 -142 -294t-290 -120q-80 0 -133 21q6 55 43 152q57 -16 114 -17q119 0 173.5 41t62.5 152l92 1280q12 178 112.5 283.5t272.5 105.5q115 0 174 -37z" />
<glyph unicode="&#x2248;" horiz-adv-x="892" d="M850 940q-53 -57 -150.5 -110.5t-142.5 -53.5q-25 0 -122 46t-105 46q-39 0 -71 -10t-76 -37.5t-54 -32.5l-49 84q47 43 141 97.5t139 54.5q47 0 126 -43t92 -43q106 0 217 76zM813 551q-53 -57 -150.5 -110.5t-142.5 -53.5q-25 0 -122 46t-105 46q-39 0 -71 -10t-76 -38 t-54 -32l-49 84q47 43 141.5 97.5t139.5 54.5q47 0 125.5 -43t91.5 -43q106 0 217 76z" />
<glyph unicode="&#x2260;" horiz-adv-x="1083" d="M991 1214l-176 -233h156l-15 -135h-241l-187 -248h402l-15 -135h-489l-205 -273h-127l205 273h-180l14 135h268l187 248h-430l14 135h516l176 233h127z" />
<glyph unicode="&#x2264;" horiz-adv-x="958" d="M928 1151l-17 -147l-698 -281l641 -279l-16 -147l-742 326l23 202zM831 139l-14 -141h-797l17 141h794z" />
<glyph unicode="&#x2265;" horiz-adv-x="958" d="M889 817l-21 -205l-805 -315l15 147l698 279l-639 281l17 147zM831 139l-14 -141h-797l17 141h794z" />
<glyph unicode="&#x25ca;" horiz-adv-x="1079" d="M1055 723q-61 -61 -227 -309t-246 -414h-232q-29 133 -125 354t-180 373q385 520 473 721h232q23 -125 123 -353.5t182 -371.5zM870 698q-190 358 -266 641q-72 -164 -187.5 -336t-187.5 -251q156 -283 269 -639q68 147 178 315t194 270z" />
<glyph unicode="&#xe000;" horiz-adv-x="1135" d="M0 1135h1135v-1135h-1135v1135z" />
<glyph unicode="&#xfb06;" horiz-adv-x="1523" d="M1485 997h-318l-84 -829q49 -18 86 -18q61 0 248 69l41 -84q-111 -82 -188.5 -118.5t-167.5 -36.5q-111 0 -159 40.5t-32 184.5l88 792h-125v121h148l33 301q-98 16 -158 17q-172 0 -172 -113l29 -248q-4 -96 -58 -170q-86 59 -152.5 86t-156.5 27q-35 0 -63.5 -24.5 t-28.5 -53.5q0 -63 41 -131t99 -128l118 -121q59 -60 100 -129t41 -132q0 -154 -121.5 -236.5t-283.5 -82.5q-156 0 -283 53q18 98 60 178q205 -76 383 -76q33 0 62.5 18.5t29.5 49.5q0 57 -63.5 139t-138.5 155.5t-138.5 175t-63.5 189.5q0 143 98.5 209t264.5 66 q70 0 116 -9q-10 123 -10 136q0 164 137.5 231.5t485.5 67.5l-45 -445h301v-121z" />
<glyph horiz-adv-x="1638" d="M1581 252h-1524v334h1524v-334zM1540 293v252h-1442v-252h1442zM1501 395h-16v31q0 6 -2 6t-2 -2v-2v-33h-17v33q0 4 -2 4t-2 -2v-35h-16v51h16v-8q2 8 10.5 8t8.5 -6q6 6 12 6q10 0 10 -16v-35zM1423 419.5q0 -26.5 -26 -26.5q-29 0 -29 26.5t29 26.5q26 0 26 -26.5z M1341 397q-6 -4 -18 -4q-29 0 -29 26.5t29 26.5q12 0 18 -2l-6 -14q-6 2 -12 2q-8 0 -8 -12q0 -10 10 -10q6 0 10 2zM1253 403q0 -10 -12 -10q-10 0 -10 10q0 12 10 13q12 -1 12 -13zM1190 399q-12 -6 -25 -6q-27 0 -26.5 26.5t26.5 26.5q25 0 25 -22l-2 -6l-29 -4 q4 -4 8 -4q12 0 19 2zM1114 395h-20v4q-12 -6 -17 -6q-14 0 -14 17v36h20v-32q0 -4 2 -4h5l4 2v34h20v-51zM1038 369h-18v30q-6 -6 -12 -6q-25 0 -25 26.5t31 26.5q18 0 24 -4v-73zM961 399q-12 -6 -27 -6q-25 0 -25 26.5t25 26.5q23 0 27 -22l-5 -6l-26 -4q0 -4 6 -4 q12 0 20 2zM883 395h-21v33q0 4 -2 4l-4 -2h-4v-35h-21v74h21v-27q8 4 18 4q12 0 13 -16v-35zM807 397q-16 -4 -27 -4q-20 0 -20 17v20h-6v10l26 21v-15h25v-16h-25v-14q0 -4 4 -4q10 0 19 2zM731 419.5q0 -26.5 -26 -26.5q-29 0 -29 26.5t29 26.5q26 0 26 -26.5zM653 424 q0 -31 -26 -31l-6 2v-26h-21v77h21v-4q8 4 12 4q20 1 20 -22zM580 444l-19 -53q-8 -23 -37 -26l-4 18l19 8l-19 53l25 2l6 -34l4 34zM500 397q-20 -4 -29 -4q-18 0 -18 17v20h-7v10l27 21v-15h23v-16h-23v-14q0 -4 4 -4q10 0 19 2zM408 403q0 -10 -13 -10q-10 0 -10 10 q0 12 10 13q13 -1 13 -13zM348 446l-6 -51h-16l-7 29l-8 -29h-16l-4 51h16v-34l4 34h15l6 -34l2 34h14zM270 446l-4 -51h-18l-6 29l-9 -29h-16l-4 51h16v-34l7 34h14l4 -34l2 34h14zM195 446l-7 -51h-16l-8 29l-6 -29h-17l-4 51h17v-34l4 34h14l6 -34v34h17zM1403 420 q0 12 -8 12q-6 0 -6 -8q0 -16 8 -16q6 0 6 12zM1171 426q0 8 -6 8t-6 -10zM1020 412v20h-6q-10 0 -10 -10q0 -12 8 -12q6 0 8 2zM940 426q0 8 -6 8t-6 -10zM711 420q0 12 -9 12q-6 0 -6 -8q0 -16 9 -16q6 0 6 12zM633 422q0 10 -4 10q-2 0 -6 -2h-2v-22h6q6 0 6 14z" />
<glyph horiz-adv-x="1654" d="M1257 1606q-23 -63 -88 -125q-139 41 -323 190q-131 -111 -330 -182q-35 31 -59 90q131 59 251.5 143t176.5 138q171 -178 372 -254z" />
<glyph horiz-adv-x="1662" d="M1251 1665q-10 -14 -27.5 -33.5t-73.5 -53.5t-114 -34q-51 0 -203.5 44t-191.5 44q-102 0 -168 -55l-55 76q10 14 30.5 35.5t81 57.5t119.5 36q57 0 208 -44t187 -44q90 0 160 49z" />
<glyph horiz-adv-x="1105" d="M1122 1708l-8 -141h-610l8 141h610z" />
<glyph horiz-adv-x="1669" d="M1200 1733q-10 -18 -30.5 -42t-62.5 -61t-108.5 -61.5t-142.5 -24.5q-102 0 -189 41t-120 74t-47 57l110 105q104 -127 254 -127q158 0 256 121z" />
<glyph horiz-adv-x="1654" d="M989 1686q0 -18 -56 -77t-79 -59q-20 0 -76.5 57.5t-56.5 78.5q0 23 57.5 78t75.5 55q20 0 77.5 -56.5t57.5 -76.5z" />
<glyph horiz-adv-x="909" d="M1087 1776q0 -104 -71.5 -180t-173.5 -76q-238 0 -238 161q0 113 72 198t182 85q229 0 229 -188zM967 1790v41q-57 37 -140 37q-39 0 -63.5 -37t-30.5 -76t-4 -78v-24q45 -35 154 -35q90 0 84 172z" />
<glyph horiz-adv-x="1652" d="M1452 1671q-168 -106 -514 -143q-18 33 -33 106q178 47 245 75t226 114q47 -72 76 -152zM938 1761q-102 -100 -206.5 -158.5t-262.5 -121.5q-31 35 -55 98q236 129 407 309q72 -53 117 -127z" />
<glyph horiz-adv-x="1654" d="M1245 1810q-219 -113 -430 -301q-61 74 -156.5 155t-195.5 122q33 78 80 112q186 -57 309 -184q145 111 346 182q37 -39 47 -86z" />
<glyph horiz-adv-x="835" d="M1237 1645q0 -16 -53.5 -71.5t-75.5 -55.5q-20 0 -73.5 54t-53.5 73q0 20 54.5 73.5t72.5 53.5q20 0 74.5 -53.5t54.5 -73.5zM709 1645q0 -16 -53.5 -71.5t-75.5 -55.5q-20 0 -73.5 54t-53.5 73q0 20 54 73.5t73 53.5q20 0 74.5 -53.5t54.5 -73.5z" />
<glyph horiz-adv-x="1163" d="M1149 1673q-174 -90 -508 -164q-27 45 -35 103q256 96 461 223q59 -88 82 -162z" />
<glyph horiz-adv-x="1642" d="M1143 1612q-6 -45 -35 -103q-334 74 -508 164q35 102 82 162q205 -127 461 -223z" />
<glyph horiz-adv-x="2117" d="M2030 125q-150 -150 -263 -150q-88 0 -88 82q0 29 11 125l102 746q-29 8 -47 8q-86 0 -209 -65.5t-178 -116.5l-49 -424v-330h-197l137 1319h-473l-69 -1112q-2 -39 6 -55.5t37 -24.5l188 -35q-6 -70 -14 -92h-652q-4 49 0 92l152 39q37 8 64.5 54t31.5 91l80 1043h-246 q-133 0 -190 -207q-47 -4 -82 4l22 332h981q205 47 273 47q41 0 55 -14.5t12 -48.5l-59 -560q98 104 230.5 182.5t228.5 78.5q92 0 118.5 -45.5t10.5 -163.5l-103 -756h179v-43z" />
<glyph horiz-adv-x="2091" d="M2023 332l-61 -332h-1063q-4 49 0 92l139 37q39 8 63.5 43t28.5 80l31 412h-721l-22 -437q-2 -70 45 -82l188 -51q-6 -66 -14 -94h-621q-6 39 -2 82l121 43q43 16 70.5 67.5t32.5 102.5l65 897q6 74 -18.5 106.5t-79.5 47.5l-101 26q6 53 15 76h547q6 -41 2 -84l-113 -27 q-43 -10 -56.5 -27.5t-17.5 -60.5l-30 -458h720l33 446q4 70 -47 86l-145 53q0 37 14 72h969l-23 -322q-33 -6 -94 0q-12 96 -46 140.5t-110 46.5l-336 12l-36 -534l514 10l-11 -148l-512 11l-26 -539l348 8q102 2 174 64.5t107 146.5z" />
<glyph horiz-adv-x="1083" d="M1032 922q0 -127 -13 -246t-52 -249t-100.5 -225.5t-165 -157.5t-236.5 -62q-233 0 -308 111.5t-75 414.5q0 100 10 200.5t34 212t67 205t102 170t149.5 120.5t200.5 44q221 0 304 -125.5t83 -412.5zM825 922q0 188 -47 340q-78 55 -178 55q-84 0 -146.5 -61.5 t-96 -148.5t-54 -205t-27 -206t-6.5 -176q0 -125 39 -319q84 -76 199 -76q317 0 317 797z" />
<glyph horiz-adv-x="669" d="M526 1495l-125 -1165v-330h-213l140 1313h-277l10 117z" />
<glyph horiz-adv-x="937" d="M868 1174q0 -131 -60 -272.5t-170 -279t-214.5 -245t-235.5 -223.5l633 18l-18 -172h-787l-8 133l92 95l97 102l89 97q65 71 91 105l79 102q52 67 74 109l58 108q35 65 49 117t26.5 114.5t12.5 123.5q-59 96 -227 97q-143 0 -285 -54l18 135q131 76 322 76q158 0 261 -66 t103 -220z" />
<glyph horiz-adv-x="921" d="M834 1227q0 -100 -98.5 -220t-207.5 -190q115 -25 202 -110.5t87 -198.5q0 -209 -173 -372t-382 -163q-158 0 -293 60q14 72 76 176q59 -35 146.5 -60.5t154.5 -25.5q123 0 208 95t85 220q0 209 -262 260l-31 82q96 66 207 214.5t111 246.5q-59 72 -179 72 q-115 0 -235 -49l18 133q125 61 287 61q117 0 198 -59t81 -172z" />
<glyph horiz-adv-x="931" d="M958 549l-18 -168h-231l-29 -381h-195l47 381h-526l-31 82l539 985h115l-465 -899h387l94 899h176l-94 -899h231z" />
<glyph horiz-adv-x="864" d="M868 1448l-34 -191l-469 31l-54 -258q106 -29 213 -95.5t187 -173t80 -218.5q0 -221 -162 -389t-400 -168q-135 0 -290 61q25 90 77 174q168 -86 299 -86q287 0 287 316q0 94 -38 168.5t-108.5 127t-138 85t-161.5 65.5l114 551h598z" />
<glyph horiz-adv-x="1032" d="M952 1444q-14 -84 -57 -160q-96 31 -158 31q-408 0 -469 -801q-10 -121 -10 -289q92 -109 215 -108q246 0 246 585q-41 35 -73 47.5t-101 12.5q-80 0 -107 -4l4 114q92 25 176 25q178 0 234.5 -69.5t56.5 -206.5q0 -154 -58 -300.5t-176 -247t-267 -100.5 q-168 0 -252 89.5t-84 285.5q0 184 46 379t129 362.5t215 276.5t286 109q122 0 204 -31z" />
<glyph horiz-adv-x="843" d="M879 1354l-748 -1417l-131 59l678 1264l-590 -13q2 137 33 201h715z" />
<glyph horiz-adv-x="993" d="M901 1223q0 -199 -289 -430q68 -59 99.5 -90t79 -82.5t67 -98.5t19.5 -96q0 -197 -137.5 -326t-338.5 -129q-180 0 -277 64.5t-97 230.5q0 61 23.5 125t52 109t84 102t85.5 85l90 79q-186 178 -186 324q0 158 117 269t287 111q147 0 234 -64t87 -183zM731 1266 q-74 88 -205 88q-80 0 -131 -52.5t-51 -140.5q0 -80 54.5 -153.5t154.5 -163.5q74 96 126 213t52 209zM684 377q0 18 -4 37.5t-14 39.5l-20 35q-9 16 -29 38l-31 36q-12 14 -39 38t-39 36t-43 39l-43 37q-84 -106 -151.5 -256t-67.5 -260q100 -106 270 -107q94 0 152.5 80 t58.5 207z" />
<glyph horiz-adv-x="1032" d="M942 1100q0 -184 -46 -379t-129 -363t-215 -276.5t-288 -108.5q-121 0 -203 31q14 84 58 160q111 -31 157 -31q410 0 469 817q10 113 11 273q-94 111 -215 110q-246 0 -246 -588q41 -35 72.5 -47t101.5 -12q63 0 106 6l-4 -117q-84 -23 -176 -22q-178 0 -234.5 69.5 t-56.5 204.5q0 156 58.5 301.5t176.5 246t265 100.5q170 0 254 -89t84 -286z" />
<glyph horiz-adv-x="1253" d="M1237 1286q0 -39 -25.5 -88t-54.5 -72l-36 35q-28 27 -42 39l-40 35q-26 23 -43 34l-39 24q-22 13 -41 19.5t-35 6.5q-305 0 -402 -361h484l-11 -108h-493q-20 -119 -17 -256h484l-13 -109h-462q25 -172 116.5 -269t239.5 -97q43 0 132 50t142 93q63 -66 64 -194 q-145 -92 -385 -92.5t-375 128.5t-156 381h-223l10 109h209q4 137 33 256h-215l12 108h234q80 227 238.5 366.5t361.5 139.5q39 0 90 -8t112.5 -25.5t103.5 -55.5t42 -89z" />
<glyph horiz-adv-x="1355" d="M1331 1397l-35 -74q-74 -12 -100 -45q-297 -336 -440 -533l-2 -32h438l-12 -109h-439l-6 -63l-10 -152h432l-10 -108h-430l-19 -281h-225l41 281h-399l12 108h401l23 156l6 59h-407l12 109h407l2 32q-92 240 -258 508q-39 61 -116 84l2 72q166 49 241 49 q35 -51 126 -277.5t126 -338.5q293 436 426 600q131 -6 213 -45z" />
<glyph horiz-adv-x="1880" d="M1716 721q0 -348 -217 -547t-553 -199q-139 0 -270 39t-250 122t-190.5 233.5t-71.5 351.5q0 352 220 555t558 203q147 0 280.5 -42t246 -129t180 -237.5t67.5 -349.5zM1606 721q0 168 -55.5 299t-150.5 210t-210 119t-244 40q-139 0 -256 -38t-210 -115t-146 -206 t-53 -297q0 -164 51 -290t124.5 -194.5t172 -112.5t177.5 -57t157 -13q283 0 463 173t180 482zM1231 328q-106 -35 -256 -35q-459 0 -459 446q0 205 121 335t332 130q135 0 250 -49v-192q-16 -4 -66 0q-27 74 -69 111.5t-119 37.5q-145 0 -231.5 -88t-86.5 -270.5 t95.5 -269.5t254.5 -87q113 0 205 23z" />
<glyph horiz-adv-x="921" d="M891 997h-115q23 -49 23 -102q0 -125 -70 -269.5t-182 -199.5l-197 -162l387 -235q59 -35 87 -73t28 -103q0 -111 -188.5 -216.5t-423.5 -105.5q-117 0 -227.5 47t-110.5 111q0 88 115.5 209.5t250.5 212.5l-92 61l14 90l187 141q-106 10 -155.5 65.5t-49.5 166.5 q0 98 34 210.5t114.5 205t185.5 92.5q78 0 139 -25h246v-121zM614 995q-47 35 -122 35q-63 0 -99.5 -103.5t-41.5 -204.5t1 -175q39 -29 127 -29q78 0 116.5 184t18.5 293zM680 -193q0 23 -20.5 40.5t-67.5 50.5l-244 159q-242 -213 -266 -301q37 -33 93 -47t177 -14 q119 0 223.5 26.5t104.5 85.5z" />
<glyph horiz-adv-x="1601" d="M1567 997h-320l-86 -829q49 -18 86 -18q61 0 248 69l41 -84q-111 -82 -188.5 -118.5t-167.5 -36.5q-111 0 -159 40.5t-32 184.5l90 792h-125v119h146l33 303q-102 16 -160 17q-170 0 -170 -113q0 -66 33 -246q-4 -104 -52 -168q-131 82 -280 82q-246 0 -244 -809v-22 q39 -20 96 -21q104 0 371 133l45 -88q-94 -82 -238.5 -146.5t-261.5 -64.5q-197 0 -196 187q0 977 518 977q43 0 100 -9q-10 86 -10 136q0 164 137 231.5t486 67.5l-45 -445h305v-121z" />
<glyph horiz-adv-x="1945" d="M1858 125q-150 -150 -263 -150q-88 0 -88 82q0 29 11 125l102 746q-29 8 -45 8q-84 0 -209 -65.5t-180 -116.5l-49 -424v-330h-197l147 1425q-76 10 -114 11q-170 0 -170 -113q0 -63 33 -246q-4 -104 -52 -168q-131 82 -280 82q-246 0 -244 -809v-22q39 -20 96 -21 q104 0 371 133l45 -88q-94 -82 -238.5 -146.5t-261.5 -64.5q-197 0 -196 187q0 977 518 977q43 0 100 -9q-10 86 -10 142q0 158 130 225.5t382 67.5q33 0 49.5 -33t11.5 -66l-63 -592q98 104 230 182.5t229 78.5q92 0 118.5 -45.5t10.5 -163.5l-103 -756h179v-43z" />
<glyph horiz-adv-x="1830" d="M1806 1067l-413 -481q156 -266 385 -500q-25 -55 -50.5 -83t-70.5 -58q-55 47 -101.5 98t-76 87t-67.5 100l-54 94l-61 114l-60 119l281 369q27 29 13.5 58.5t-34 46t-51.5 30.5l10 57h328zM1270 1475l-121 -1151v-324h-199l150 1423q-72 12 -123 13q-174 0 -174 -113 q0 -76 33 -246q-4 -104 -52 -168q-131 82 -280 82q-246 0 -244 -809v-22q39 -20 96 -21q104 0 371 133l45 -88q-94 -82 -238.5 -146.5t-261.5 -64.5q-197 0 -196 187q0 977 518 977q43 0 100 -9q-10 86 -10 136q0 299 502 299q35 0 61.5 -25.5t22.5 -62.5z" />
<glyph horiz-adv-x="1878" d="M1878 377q-20 -188 -135 -281.5t-299 -95.5l-690 -6q-84 0 -84 86q0 31 14 131l98 717q-29 8 -47 8q-84 0 -208 -65.5t-179 -116.5l-49 -424v-330h-199l113 1079l174 72l-27 -274q96 102 226.5 179t226.5 77q92 0 118.5 -45.5t10.5 -163.5l-100 -783h628q133 0 199 35 t76 129q6 49 -24.5 138t-65.5 145q29 20 91 34.5t101 10.5q47 -72 31 -256z" />
<glyph horiz-adv-x="1423" d="M1423 1356q-39 -358 -434 -359h-583l-84 -829q49 -18 86 -18q61 0 247 69l41 -84q-111 -82 -188.5 -118.5t-167.5 -36.5q-111 0 -159 40.5t-31 184.5l90 792h-162l16 121h166l25 225l168 84l-31 -309h594q133 0 199.5 35t76.5 129q4 49 -27.5 138t-64.5 145 q29 20 91.5 34.5t101.5 10.5q46 -72 30 -254z" />
<glyph horiz-adv-x="1552" d="M1552 1337q-43 -395 -454 -395q-88 0 -228.5 6t-214.5 6q-137 0 -303 -108l-53 -516v-330h-201l113 1083l176 68l-25 -209q55 57 94.5 92t106 69t129.5 34q88 0 219 -17.5t234 -17.5q133 0 199.5 34.5t74.5 129.5q6 49 -24.5 138t-65.5 144q29 20 91.5 34.5t101.5 10.5 q46 -72 30 -256z" />
<glyph horiz-adv-x="1308" d="M455 1473q0 -18 -69 -81t-89.5 -63t-72.5 59.5t-52 81.5q0 20 67.5 81t88 61t74 -58t53.5 -81zM1274 1094q0 -59 -31 -129q-14 -29 -250 -289l58 -60l60 -63q19 -20 51 -58t46.5 -65t26.5 -62.5t12 -68.5q0 -156 -121.5 -237.5t-283.5 -81.5q-125 0 -234 38q18 98 58 175 q184 -57 335 -58q33 0 63 18.5t30 49.5q0 27 -12.5 56.5t-40 66t-50.5 62.5l-66 73l-65 71q-518 -557 -674 -557q-88 0 -88 82q0 12 15 142l88 884l170 70q-84 -905 -99 -989q113 0 529 440q-111 139 -111 258q0 143 98.5 209t264.5 66q119 0 221 -43zM1133 969 q-84 49 -193 49q-35 0 -63.5 -24.5t-28.5 -53.5q0 -88 86 -195z" />
<glyph horiz-adv-x="1882" d="M1847 1094q0 -59 -30 -129q-14 -29 -250 -289l57 -60l60 -63q19 -20 51 -58t46.5 -65t27 -62.5t12.5 -68.5q0 -154 -122 -236.5t-284 -82.5q-117 0 -213 34q18 98 58 174q76 -23 105.5 -30.5t83.5 -15t126 -7.5q33 0 62.5 18.5t29.5 49.5q0 27 -12.5 56.5t-40 66 t-49.5 62.5l-67 73q-44 47 -64 71q-518 -557 -674 -557q-88 0 -88 82q0 12 14 142l6 69q-231 -295 -452 -295q-154 0 -136 211l82 895l172 68l-84 -1004q20 -10 41 -10q59 0 184.5 90t205.5 164l71 692l172 68l-108 -983q119 0 534 440q-111 139 -110 258q0 143 98 209 t264 66q119 0 221 -43zM1706 969q-84 49 -193 49q-35 0 -63.5 -24.5t-28.5 -53.5q0 -88 86 -195z" />
<glyph horiz-adv-x="1613" d="M1681 641q-29 -63 -105.5 -125.5t-164.5 -62.5h-283q-383 -479 -725 -480q-168 0 -244.5 92.5t-76.5 319.5q0 350 154.5 556t379.5 206q147 0 206 -40t59 -144q0 -115 -86 -217.5t-189 -149.5q74 10 148 10h317q82 123 125 228v284h207v-76q0 -82 -43 -201.5t-119 -234.5 h164q59 0 114.5 28t82.5 71zM956 453h-561l-16 122q113 37 214 126.5t101 193.5q0 43 -6 90q-66 43 -135 43q-104 0 -196.5 -156.5t-92.5 -382.5q0 -213 29 -311q66 -57 156 -57q231 0 507 332z" />
<glyph horiz-adv-x="0" d="M113 -451h-197v17h74v434h-74v16h74v1086h-74v16h74v441h-74v16h197v-16h-101v-441h101v-16h-101v-1086h101v-16h-101v-434h101v-17z" />
<glyph d="M1024 922q0 -127 -13.5 -246t-52 -249t-100 -225.5t-165 -157.5t-236.5 -62q-233 0 -308 111.5t-75 414.5q0 100 10 200.5t33.5 212t66.5 205t102.5 170t149.5 120.5t201 44q221 0 304 -125.5t83 -412.5zM817 922q0 188 -47 340q-78 55 -178 55q-102 0 -173 -87 t-101.5 -226.5t-42 -254t-11.5 -229.5q0 -135 37 -319q84 -76 199 -76q317 0 317 797z" />
<glyph d="M864 94q-6 -61 -14 -94h-666q-6 39 -2 82l172 43q76 18 88 127l113 1063h-276l10 115l465 65l-138 -1288q-4 -39 5.5 -56.5t44.5 -23.5z" />
<glyph d="M946 1174q0 -418 -680 -1020l633 18l-18 -172h-787l-8 133l92 95l96 102l90 97q65 71 91 105l79 102q52 67 74 109l58 108q35 65 49 117t26.5 114.5t12.5 123.5q-59 96 -228 97q-143 0 -284 -54l18 135q131 76 322 76q158 0 261 -66t103 -220z" />
<glyph d="M924 1227q0 -100 -98.5 -220t-207.5 -190q115 -25 202 -110.5t87 -198.5q0 -209 -173 -372t-382 -163q-158 0 -293 60q14 72 76 176q59 -35 146.5 -60.5t154.5 -25.5q123 0 208 95t85 220q0 209 -262 260l-33 82q98 66 209 213.5t111 247.5q-59 72 -179 72 q-117 0 -235 -49l16 133q129 61 289 61q117 0 198 -59t81 -172z" />
<glyph d="M1032 549l-18 -168h-232l-28 -381h-195l47 381h-526l-31 82l539 985h114l-464 -899h387l94 899h176l-94 -899h231z" />
<glyph d="M973 1448l-35 -191l-471 31l-51 -258q106 -29 212.5 -95.5t186.5 -173t80 -218.5q0 -221 -162 -389t-399 -168q-135 0 -291 61q25 90 78 174q168 -86 299 -86q287 0 287 316q0 94 -38 168.5t-109 127t-138.5 85t-161.5 65.5l115 551h598z" />
<glyph d="M981 1444q-14 -84 -57 -160q-96 31 -158 31q-412 0 -471 -821q-8 -117 -8 -269q92 -109 215 -108q246 0 246 585q-41 35 -73 47.5t-102 12.5q-80 0 -106 -4l4 114q92 25 176 25q178 0 234.5 -69.5t56.5 -206.5q0 -154 -58.5 -300.5t-176 -247t-267.5 -100.5 q-168 0 -252 89.5t-84 285.5q0 184 46.5 379t129 362.5t215 276.5t287.5 109q121 0 203 -31z" />
<glyph d="M995 1354l-747 -1417l-129 59l676 1264l-590 -13q2 137 33 201h714z" />
<glyph d="M987 1223q0 -199 -289 -430q68 -59 99.5 -90t79 -82.5t67 -98.5t19.5 -96q0 -197 -138.5 -326t-339.5 -129q-180 0 -277 64.5t-97 230.5q0 61 24.5 125t50 106t86 104.5t84 84t93.5 80.5q-186 178 -187 324q0 158 116 269t288 111q147 0 234 -64t87 -183zM817 1266 q-74 88 -205 88q-80 0 -131 -52.5t-51 -140.5q0 -82 54.5 -155.5t154.5 -161.5q74 98 126 214t52 208zM770 377q0 18 -4 37.5t-14 39.5l-20 35q-9 16 -29 38l-31 36q-12 14 -39 38t-39 36t-43 39l-43 37q-84 -106 -151.5 -256t-67.5 -260q100 -106 270 -107q94 0 152.5 80 t58.5 207z" />
<glyph d="M981 1100q0 -184 -46 -379t-129 -363t-215 -276.5t-288 -108.5q-121 0 -203 31q14 84 58 160q111 -31 157 -31q410 0 469 817q10 113 11 273q-94 111 -215 110q-246 0 -246 -588q41 -35 72.5 -47t101.5 -12q66 0 106 6l-4 -117q-84 -23 -176 -22q-178 0 -234.5 69.5 t-56.5 204.5q0 244 140.5 446t361.5 202q168 0 252 -89t84 -286z" />
</font>
</defs>
</svg>
