<?xml version="1.0" standalone="no"?>
<!DOCTYPE svg PUBLIC "-//W3C//DTD SVG 1.1//EN" "http://www.w3.org/Graphics/SVG/1.1/DTD/svg11.dtd" >
<svg xmlns="http://www.w3.org/2000/svg">
<metadata>
This is a custom SVG webfont generated by Font Squirrel.
Copyright   : Copyright c 2011 by  All rights reserved
</metadata>
<defs>
<font id="webfont1FdNLAxd" horiz-adv-x="1716" >
<font-face units-per-em="2048" ascent="1638" descent="-410" />
<missing-glyph horiz-adv-x="573" />
<glyph unicode="&#xfb01;" horiz-adv-x="1650" d="M1610 129q0 -80 -13 -129h-649q-10 45 -10 129l102 35q27 8 37 25.5t13 54.5l6 317v393h-178v154q205 43 413 43q55 0 81 -20.5t26 -77.5v-492l4 -301q0 -84 33 -92zM1309 1448q0 -57 -32 -122.5t-79 -88.5q-8 8 -40 34l-48 39l-45 36q-29 23 -47 35l-40 28 q-22 14 -36 20.5t-24 6.5q-197 0 -283 -51.5t-86 -170.5v-96h223v-164h-223v-372l8 -316q0 -70 92 -98q109 -35 123 -39q0 -86 -18 -129h-701q-6 35 -8 48t-2 18.5t1 20.5t1 38l98 27q53 16 58 122l4 308v372h-164v127l164 37v31q0 113 66.5 206t168 146t208 82t196.5 29 q193 0 329 -38t136 -126z" />
<glyph unicode="&#xfb02;" horiz-adv-x="1650" d="M1610 129q0 -80 -13 -129h-669q-8 33 -8 121l120 33q29 8 38 24.5t12 54.5l6 328v760q-147 115 -178 115q-197 0 -283 -51.5t-86 -170.5v-96h223v-164h-223v-372l8 -316q0 -70 92 -98q109 -35 123 -39q0 -86 -18 -129h-701q-6 35 -8 48t-2 18.5t1 20.5t1 38l98 27 q53 16 58 122l4 308v372h-164v127l164 37v31q0 113 66.5 206t168 146t208 82t196.5 29q238 0 366 -51q90 4 121 4q55 0 81 -20.5t26 -78.5v-905l4 -301q0 -84 33 -92z" />
<glyph unicode="&#xfb03;" horiz-adv-x="2529" d="M2488 129q0 -80 -12 -129h-649q-10 45 -10 129l102 35q27 8 37 25.5t12 54.5l6 317v393h-178v154q207 43 414 43q55 0 80.5 -20.5t25.5 -77.5v-492l4 -301q0 -84 33 -92zM2187 1448q0 -57 -31.5 -122.5t-78.5 -88.5q-8 8 -40 34l-48 39l-45 36q-29 23 -48 35l-39 28 q-22 14 -36.5 20.5t-24.5 6.5q-197 0 -283 -51.5t-86 -170.5v-96h224v-164h-224v-372l9 -316q0 -70 92 -98q109 -35 123 -39q0 -86 -19 -129h-700q-6 35 -8 48t-2 18.5t1 20.5t1 38l98 27q53 16 57 122l4 308v372h-534v-372l8 -316q0 -70 92 -98q109 -35 123 -39 q0 -86 -18 -129h-701q-6 35 -8 48t-2 18.5t1 20.5t1 38l98 27q53 16 58 122l4 308v372h-164v127l164 37v31q0 113 66.5 206t168 146t208 82t196.5 29q393 0 454 -123q199 123 424 123q193 0 329 -38t136 -126zM1118 1303q-168 133 -200 133q-197 0 -283 -51.5t-86 -170.5 v-96h534v31q0 80 35 154z" />
<glyph unicode="&#xfb04;" horiz-adv-x="2529" d="M2490 129q0 -80 -12 -129h-670q-8 33 -8 121l121 33q29 8 38 24.5t11 54.5l6 328v760q-147 115 -178 115q-197 0 -282.5 -51.5t-85.5 -170.5v-96h223v-164h-223v-372l8 -316q0 -70 92 -98q109 -35 123 -39q0 -86 -19 -129h-700q-6 35 -8 48t-2 18.5t1 20.5t1 38l98 27 q53 16 57 122l4 308v372h-536v-372l8 -316q0 -70 92 -98q109 -35 123 -39q0 -86 -18 -129h-701q-6 35 -8 48t-2 18.5t1 20.5t1 38l98 27q53 16 58 122l4 308v372h-164v127l164 37v31q0 113 66.5 206t168 146t208 82t196.5 29q395 0 454 -125q201 125 426 125q238 0 367 -51 q90 4 121 4q55 0 80.5 -20.5t25.5 -78.5v-905l4 -301q0 -84 33 -92zM1120 1300q-164 135 -202 136q-197 0 -283 -51.5t-86 -170.5v-96h536v31q0 81 35 151z" />
<glyph unicode="fj" horiz-adv-x="1650" d="M1309 1448q0 -57 -32 -122.5t-79 -88.5q-8 8 -40 34l-48 39l-45 36q-29 23 -47 35l-40 28q-22 14 -36 20.5t-24 6.5q-197 0 -283 -51.5t-86 -170.5v-96h223v-164h-223v-372l8 -316q0 -70 92 -98q109 -35 123 -39q0 -86 -18 -129h-701q-6 35 -8 48t-2 18.5t1 20.5t1 38 l98 27q53 16 58 122l4 308v372h-164v127l164 37v31q0 113 66.5 206t168 146t208 82t196.5 29q193 0 329 -38t136 -126zM1446 2q2 -72 -3 -125t-26.5 -118.5t-60.5 -106.5t-114 -69.5t-179 -28.5q-174 0 -287 36l35 201q66 -10 145 -10q76 0 108 31.5t32 138.5v1003h-172v154 q207 43 407 43q55 0 81 -20.5t26 -77.5v-492z" />
<glyph unicode="ffj" horiz-adv-x="2529" d="M2324 2q2 -72 -3 -125t-26.5 -118.5t-60.5 -106.5t-114.5 -69.5t-180.5 -28.5q-172 0 -286 36l35 201q66 -10 145 -10q76 0 107.5 31.5t31.5 138.5v1003h-170v154q203 43 406 43q55 0 80.5 -20.5t25.5 -77.5v-492zM2187 1448q0 -57 -31.5 -122.5t-78.5 -88.5q-8 8 -40 34 l-48 39l-45 36q-29 23 -48 35l-39 28q-22 14 -36.5 20.5t-24.5 6.5q-197 0 -283 -51.5t-86 -170.5v-96h224v-164h-224v-372l9 -316q0 -70 92 -98q109 -35 123 -39q0 -86 -19 -129h-700q-6 35 -8 48t-2 18.5t1 20.5t1 38l98 27q53 16 57 122l4 308v372h-534v-372l8 -316 q0 -70 92 -98q109 -35 123 -39q0 -86 -18 -129h-701q-6 35 -8 48t-2 18.5t1 20.5t1 38l98 27q53 16 58 122l4 308v372h-164v127l164 37v31q0 113 66.5 206t168 146t208 82t196.5 29q393 0 454 -123q199 123 424 123q193 0 329 -38t136 -126zM1118 1303q-168 133 -200 133 q-197 0 -283 -51.5t-86 -170.5v-96h534v31q0 80 35 154z" />
<glyph unicode=" "  horiz-adv-x="573" />
<glyph unicode="&#x09;" horiz-adv-x="573" />
<glyph unicode="&#xa0;" horiz-adv-x="573" />
<glyph unicode="!" horiz-adv-x="567" d="M477 1421l-76 -989h-235l-76 989l193 99zM471 71.5q0 -32.5 -83 -113.5t-113.5 -81t-111.5 81t-81 114q0 35 81 113.5t111 78.5q33 0 115 -80t82 -112.5z" />
<glyph unicode="&#x22;" horiz-adv-x="1183" d="M1020 1546l-76 -532h-248v532h324zM485 1546l-73 -532h-248v532h321z" />
<glyph unicode="#" horiz-adv-x="1257" d="M1163 262h-221l-18 -340h-195l16 340h-274l-16 -340h-195l16 340h-184v195h195l14 241h-209v193h217l19 315h194l-16 -315h272l19 315h194l-16 -315h188v-193h-198l-13 -241h211v-195zM768 698h-272l-13 -241h273z" />
<glyph unicode="$" horiz-adv-x="1159" d="M1036 379q0 -156 -119.5 -264.5t-289.5 -137.5v-319h-121v311q-168 4 -274.5 58.5t-106.5 146.5q0 90 80 170q236 -190 342 -190t152 28.5t46 96.5q0 31 -61 53t-148 49t-174.5 67.5t-148.5 129t-61 213.5q0 123 105 227t249 137v287h121v-275q158 -4 264 -52t106 -130 q0 -68 -19.5 -96.5t-78.5 -69.5q-4 2 -42 27l-54 35q-16 10 -52 30.5t-59.5 29.5t-53.5 17.5t-52 8.5q-168 0 -168 -86q0 -39 63.5 -63.5t154.5 -49.5t182 -61.5t154.5 -120.5t63.5 -207z" />
<glyph unicode="%" horiz-adv-x="1599" d="M758 1135q0 -168 -111.5 -263.5t-261.5 -95.5q-317 0 -317 338q0 160 111.5 265.5t252.5 105.5q326 0 326 -350zM1411 1202l-1114 -1116l-119 127l1114 1112zM1534 315q0 -168 -111.5 -263t-261.5 -95q-317 0 -317 338q0 160 111.5 265.5t252.5 105.5q326 -1 326 -351z M547 1135q0 98 -32 147t-107 49q-127 0 -127 -213q0 -96 32.5 -142t106.5 -46q70 0 98.5 51.5t28.5 153.5zM1323 315q0 98 -31.5 147.5t-107.5 49.5q-127 0 -127 -213q0 -96 32.5 -142t106.5 -46q70 0 98.5 51t28.5 153z" />
<glyph unicode="&#x26;" horiz-adv-x="1605" d="M1626 94q-100 -123 -276 -123q-213 0 -467 158q-70 -68 -178.5 -107.5t-212.5 -39.5q-172 0 -299 86t-127 249q0 113 85 214.5t197 148.5q-94 127 -94 336q0 176 144.5 315t306.5 139q397 0 397 -292q0 -147 -124 -255t-282 -155q145 -211 340 -360q18 43 19 81 q0 123 -109 207q0 55 12 92h410v-59q-31 -100 -110.5 -202.5t-155.5 -166.5q233 -160 420 -159q35 0 67 6zM813 1155q0 70 -38 112t-105 42q-63 0 -104.5 -48.5t-41.5 -115.5q0 -63 36 -154.5t85 -148.5q168 123 168 313zM762 221q-141 102 -342 352q-57 -49 -58 -124 q0 -117 105.5 -178.5t220.5 -61.5q25 0 74 12z" />
<glyph unicode="'" horiz-adv-x="651" d="M487 1546l-75 -532h-248v532h323z" />
<glyph unicode="(" horiz-adv-x="722" d="M668 1509q-104 -96 -190.5 -347t-86.5 -578.5t88 -602t180 -374.5l-65 -74q-520 403 -520 1049q0 174 42 330.5t98 259t137 193.5t134.5 135t112.5 83z" />
<glyph unicode=")" horiz-adv-x="722" d="M668 582q0 -645 -521 -1049l-65 74q92 100 180 374.5t88 602t-86 578.5t-190 347l69 74q59 -39 112.5 -83t134.5 -135t137.5 -193.5t98.5 -259t42 -330.5z" />
<glyph unicode="*" horiz-adv-x="874" d="M786 1079l-14 -69l-57 -56l-168 64l-41 -182l-70 -21l-71 21l-23 186l-186 -68l-50 50l-18 73l145 115l-145 125l14 74l56 49l188 -72l21 193l69 20l72 -20l45 -185l164 64l57 -47l12 -74l-155 -119z" />
<glyph unicode="+" horiz-adv-x="1185" d="M1024 639h-336v-342h-188v342h-336v176h336v342h188v-342h336v-176z" />
<glyph unicode="," horiz-adv-x="841" d="M653 45q0 -104 -117.5 -253.5t-250.5 -240.5l-97 89q129 139 170 245q-49 43 -99 102.5t-50 82.5q0 41 93 129t128 88q41 0 132 -91.5t91 -150.5z" />
<glyph unicode="-" horiz-adv-x="780" d="M678 520h-576v260l576 33v-293z" />
<glyph unicode="." horiz-adv-x="759" d="M596 72q0 -35 -91 -126t-126 -91t-125 90t-90 127t90 126t125 89t126 -89t91 -126z" />
<glyph unicode="/" horiz-adv-x="1081" d="M1063 1473l-946 -1879l-166 87l946 1875z" />
<glyph unicode="0" horiz-adv-x="1378" d="M1317 569q0 -176 -96.5 -313t-248 -206.5t-327.5 -69.5q-272 0 -428 134t-156 414q0 266 199 440.5t467 174.5q272 0 431 -144.5t159 -429.5zM930 547q0 176 -62.5 281.5t-187.5 105.5q-117 0 -178.5 -92t-61.5 -262q0 -166 69 -275.5t193 -109.5q228 0 228 352z" />
<glyph unicode="1" horiz-adv-x="999" d="M958 150q0 -100 -14 -150h-870q-18 59 -13 143l187 62q27 8 50.5 38.5t25.5 75.5l12 261v329h-270v178l620 97v-606l4 -310q0 -27 25.5 -50t62.5 -32z" />
<glyph unicode="2" horiz-adv-x="1079" d="M997 0h-931l-50 166q47 29 123 84l188 143q112 88 188.5 184.5t76.5 163.5q0 133 -191 133q-160 0 -307 -47l-59 199q258 129 463 129q260 0 369.5 -86t109.5 -270q0 -240 -479 -508l499 45v-336z" />
<glyph unicode="3" horiz-adv-x="1044" d="M973 137q0 -147 -93.5 -260t-227.5 -166t-279 -53q-186 0 -383 70l63 227q152 -57 328 -57q219 0 219 194q0 125 -79 174t-228 70l-25 143q113 29 191 95.5t78 170.5q0 156 -191 156q-113 0 -268 -53l-62 190q188 111 455 111q186 0 308 -81t122 -257q0 -88 -84 -179 t-176 -128q131 -20 231.5 -129t100.5 -238z" />
<glyph unicode="4" horiz-adv-x="1198" d="M1126 49h-188l10 -379h-364l8 379h-496l-106 176l403 893h176l-317 -762h342v762h342v-762h190v-307z" />
<glyph unicode="5" horiz-adv-x="1134" d="M1057 154q0 -186 -185.5 -346t-422.5 -160q-223 0 -418 65l59 226q215 -61 367 -62q113 0 164 39t51 125q0 76 -48.5 128t-134.5 78.5t-159.5 40t-165.5 23.5q-29 2 -43 4l84 803h807l-21 -317l-598 57l-16 -205q111 -10 192.5 -24.5t180 -50t160 -86t104.5 -137 t43 -201.5z" />
<glyph unicode="6" horiz-adv-x="1239" d="M1178 526q0 -213 -165 -377.5t-376 -164.5q-311 0 -443.5 153.5t-132.5 474.5q0 354 234.5 612.5t585.5 258.5q119 0 206 -27l-61 -229q-109 31 -209 30.5t-174 -40t-114 -98t-63.5 -146.5t-29.5 -164t-6 -170q0 -66 8 -131.5t28.5 -144t68 -127t116.5 -48.5q98 0 138 80 t40 189q0 100 -56 192t-150 92q-49 0 -78 -6l-29 183q100 37 225 36q437 0 437 -428z" />
<glyph unicode="7" horiz-adv-x="1046" d="M1047 999l-775 -1435l-249 121l663 1146l-663 -34l-3 321h969z" />
<glyph unicode="8" horiz-adv-x="1228" d="M1167 440q0 -201 -166.5 -329.5t-402.5 -128.5q-233 0 -385 102t-152 295q0 188 222 332q-182 143 -183 336q0 147 146.5 285t353.5 138q225 0 373.5 -96t148.5 -264q0 -199 -233 -324q278 -158 278 -346zM823 1083q0 68 -60.5 137.5t-160.5 69.5q-88 0 -140 -46 t-52 -120q0 -47 49 -94t106.5 -78.5t159.5 -81.5q27 -12 39 -18q59 77 59 231zM829 328q0 33 -20.5 63.5t-65.5 60t-86 51.5l-111 56l-114 57q-61 -96 -61 -219q0 -82 70.5 -155.5t174.5 -73.5q213 0 213 160z" />
<glyph unicode="9" horiz-adv-x="1239" d="M1178 520q0 -356 -234.5 -613t-585.5 -257q-127 0 -206 24l61 230q100 -29 209 -29q100 0 174 40t114 97.5t63.5 146.5t29.5 163.5t6 171.5q0 66 -8 131t-28.5 143t-68 127t-116.5 49q-98 0 -138 -80t-40 -188q0 -100 56 -193.5t150 -93.5q35 0 78 6l29 -182 q-94 -35 -225 -35q-436 0 -437 426q0 213 165 378t376 165q311 0 443.5 -152.5t132.5 -474.5z" />
<glyph unicode=":" horiz-adv-x="841" d="M596 993q0 -35 -91 -126t-126 -91t-125 90t-90 127t90 126t125 89t126 -89t91 -126zM596 72q0 -35 -91 -126t-126 -91t-125 90t-90 127t90 126t125 89t126 -89t91 -126z" />
<glyph unicode=";" horiz-adv-x="841" d="M580 991q0 -35 -91.5 -126t-126 -91t-125 90t-90.5 127t90.5 126t125 89t126 -89t91.5 -126zM612 45q0 -104 -117.5 -253.5t-250.5 -240.5l-97 89q129 139 170 245q-49 43 -99 102.5t-50 82.5q0 41 93 129t128 88q41 0 132 -91.5t91 -150.5z" />
<glyph unicode="&#x3c;" horiz-adv-x="1167" d="M999 985l-622 -262l622 -260l-67 -172l-766 321v226l764 317z" />
<glyph unicode="=" horiz-adv-x="1185" d="M1024 819h-860v176h860v-176zM1024 457h-860v176h860v-176z" />
<glyph unicode="&#x3e;" horiz-adv-x="1167" d="M1001 612l-763 -321l-70 172l623 260l-623 262l70 170l763 -317v-226z" />
<glyph unicode="?" horiz-adv-x="946" d="M903 1073q0 -109 -44 -194.5t-107.5 -136t-126 -90.5t-106.5 -80t-44 -83q0 -23 12 -61l-194 -47q-86 178 -86 227q0 80 66.5 159t145.5 131t145.5 113.5t66.5 112.5q0 39 -43 86t-131 47q-47 0 -94.5 -12t-104.5 -34.5t-90 -30.5q-49 72 -49 127q0 92 84 130t203 38 q197 0 347 -129.5t150 -272.5zM594 71.5q0 -32.5 -83 -113.5t-113.5 -81t-111.5 81t-81 114q0 35 81 113.5t111 78.5q33 0 115 -80t82 -112.5z" />
<glyph unicode="@" horiz-adv-x="1589" d="M1507 752q0 -303 -128 -452.5t-330 -149.5q-76 0 -128.5 46t-39.5 128q-41 -59 -114 -113.5t-134 -54.5q-53 0 -89 8t-74 34.5t-57.5 84t-19.5 147.5q0 190 149.5 340t329.5 150q135 0 283 -54l-55 -475q-12 -92 24 -92q82 0 152 103.5t70 345.5q0 471 -414 471 q-139 0 -256 -40t-215.5 -128t-154.5 -248t-56 -379q0 -311 124 -440t374 -129q199 0 303 24l30 -106q-129 -53 -350 -54q-649 0 -649 682q0 240 70.5 424.5t193.5 292t271.5 160.5t320.5 53q569 1 569 -579zM926 760l-45 6q-131 18 -183.5 -67t-52.5 -226q0 -92 92 -92 q74 0 148 39z" />
<glyph unicode="A" horiz-adv-x="1591" d="M1528 121q0 -74 -15 -121h-647q-18 49 -18 133l108 39q68 23 68 88q0 31 -16 76l-70 213h-457l-73 -195q-14 -43 -15 -78q0 -76 76 -100l147 -43q0 -92 -12 -133h-559q-10 35 -10 123q68 63 88 104l10 21l504 1165l321 68l478 -1237q18 -45 92 -123zM883 719l-101 305 l-49 176h-12l-57 -170l-117 -311h336z" />
<glyph unicode="B" horiz-adv-x="1495" d="M1419 465q0 -209 -155.5 -337t-456.5 -128h-746q-14 45 -14 129l74 23q102 31 102 106l4 320v624q0 78 -118 113l-60 16q0 74 10 117h686q569 0 570 -373q0 -66 -24.5 -117t-70.5 -83.5t-79 -48t-80 -31.5q-2 0 0 -4v-5q49 -6 101 -23.5t114.5 -51t102.5 -98t40 -148.5z M940 1053q0 100 -49 153.5t-191 53.5h-122v-424h141q131 0 176 59.5t45 157.5zM1044 418q0 111 -77.5 172t-276.5 61h-112v-78l6 -387h186q274 1 274 232z" />
<glyph unicode="C" horiz-adv-x="1447" d="M1386 78q-127 -51 -232 -71.5t-253 -20.5q-399 0 -614 180t-215 549q0 315 239.5 536.5t581.5 221.5q158 0 243 -18.5t242 -78.5v-356q-23 -3 -50 -3q-37 0 -83 5q-94 240 -360 240q-449 0 -449 -527q0 -227 135.5 -356t360.5 -129q162 0 389 49z" />
<glyph unicode="D" horiz-adv-x="1656" d="M1585 750q0 -367 -237.5 -558.5t-636.5 -191.5h-645q-14 68 -15 131l92 27q39 10 57.5 26.5t20.5 55.5l8 340v544q0 117 -104 166l-72 35q0 92 8 123h637q158 0 284 -19.5t241.5 -67.5t193.5 -126t123 -200.5t45 -284.5zM1217 702q0 254 -136.5 406t-388.5 152h-110v-685 l12 -389h139q240 0 362 140t122 376z" />
<glyph unicode="E" horiz-adv-x="1376" d="M1315 358l-58 -358h-1202q-11 51 -11 103q0 15 1 30l86 21q92 20 92 69l6 357v569q0 43 -10 67.5t-20.5 31.5t-32.5 18l-113 51q0 109 8 131h1180v-342q-49 -12 -143 -12q-20 94 -61.5 126.5t-110.5 32.5l-346 9v-441l555 10v-208l-555 10v-58l8 -391l264 11 q123 6 199.5 45t117.5 151z" />
<glyph unicode="F" horiz-adv-x="1282" d="M1241 1110q-61 -14 -143 -14q-31 158 -180 157l-338 9v-486l555 10v-208l-555 10v-17l6 -295q2 -29 4 -45t12 -29.5t29 -17.5l227 -45q0 -86 -16 -139h-787q-10 45 -10 129l109 31q29 8 48 35.5t19 64.5l8 320v581q0 80 -65 109l-107 41q0 98 6 137h1178v-338z" />
<glyph unicode="G" horiz-adv-x="1546" d="M1386 78q-129 -51 -233 -71.5t-252 -20.5q-399 0 -614 180t-215 549q0 315 239.5 536.5t581.5 221.5q158 0 243 -18.5t242 -78.5v-356q-22 -3 -49 -3q-36 0 -82 5q-96 246 -362 246q-205 0 -327 -136.5t-122 -416.5q0 -252 156 -371t409 -127h35v391h350v-530z" />
<glyph unicode="H" horiz-adv-x="1806" d="M1741 115q0 -78 -15 -115h-698q-10 47 -10 115l131 51q57 25 57 86l4 326v55h-635v-58l7 -339q0 -45 18 -62.5t74 -30.5l114 -26q0 -70 -14 -117h-698q-10 55 -10 117l92 37q45 18 56 33.5t11 68.5l2 322v641q0 41 -15 57t-54 33q-39 20 -80 30q0 74 10 109h641 q10 -37 10 -107l-96 -32q-68 -23 -68 -117v-373h635v398q0 47 -16 65t-53 29l-94 28q-4 27 -4 52q0 31 6 57h651q6 -31 6 -107l-88 -34q-59 -25 -59 -90v-642l6 -307q0 -92 47 -108z" />
<glyph unicode="I" horiz-adv-x="806" d="M756 139q0 -86 -15 -139h-684q-6 25 -6 125l74 20q96 33 98 115l6 315v596q0 76 -104 119l-74 33q0 98 6 125h693q2 -27 2 -51q0 -49 -9 -88l-90 -23q-74 -20 -73 -110v-601l4 -346q2 -29 10 -40t37 -21z" />
<glyph unicode="J" horiz-adv-x="815" d="M754 1317l-97 -25q-49 -12 -63 -28.5t-14 -61.5v-1001q0 -88 -35 -166t-86 -134.5t-127 -109.5t-140.5 -85t-144.5 -66l-102 186q102 63 147 96t82 87t45 115.5t8 174.5v842q0 45 -26.5 90t-71.5 61l-90 31q0 94 8 125h701q8 -40 8 -85q0 -22 -2 -46z" />
<glyph unicode="K" horiz-adv-x="1572" d="M1573 139l-35 -164q-68 0 -143.5 9.5t-191.5 56.5t-187 127l-436 494v-87l4 -346q2 -31 10 -43t37 -18l125 -29q0 -86 -15 -139h-684q-6 33 -6 125l74 20q96 33 98 115l6 315v596q0 76 -104 119l-74 33q0 88 8 125h691q2 -27 2 -51q0 -49 -9 -88l-90 -23 q-74 -18 -73 -110v-426l405 387q31 27 31 65q0 66 -41 86l-57 31q0 86 10 129h579v-100l-630 -549l297 -303q235 -244 399 -357z" />
<glyph unicode="L" horiz-adv-x="1316" d="M1294 451l-82 -451h-1157q-6 37 -6 125l74 20q96 33 98 115l6 315v596q0 76 -104 119l-74 33q0 84 8 125h691q0 -100 -9 -139l-88 -23q-74 -20 -73 -110v-601l6 -391l299 25q78 6 148.5 93t107.5 179z" />
<glyph unicode="M" horiz-adv-x="2240" d="M2220 115q0 -84 -8 -115h-701q-8 61 -8 111l51 18q57 20 79 92q16 52 16 103q0 19 -2 38l-82 527l-31 215h-10l-326 -1067l-301 -84l-340 1159h-12l-27 -205l-104 -663q-2 -14 -3 -25q0 -35 25 -41l172 -61q0 -94 -8 -117h-571q-9 45 -10 84q0 13 1 27l74 36 q86 43 109 160l176 879q2 12 2 22q0 51 -57 70l-134 41q0 98 9 129h635l202 -711l64 -248h18l74 254l221 705h604q9 -49 9 -96q0 -16 -1 -31l-100 -23q-41 -8 -63 -46q-15 -25 -15 -59q0 -19 4 -42l191 -920q12 -53 65 -71z" />
<glyph unicode="N" horiz-adv-x="1753" d="M1702 1343l-100 -55q-35 -18 -59.5 -58t-24.5 -83v-1127l-269 -81l-786 1065h-14l8 -164v-281l6 -309q0 -39 8 -54.5t41 -23.5l174 -49q0 -94 -10 -123h-617q-9 48 -9 92q0 15 1 29l99 26q43 12 69.5 68.5t28.5 114.5l4 229v612q0 72 -59 105l-125 63q0 94 4 109h475 l764 -1008h14l-12 215v490q0 39 -22.5 77t-53.5 54l-129 63q0 86 8 109h578q8 -62 8 -105z" />
<glyph unicode="O" d="M1645 784q0 -340 -225.5 -574.5t-598.5 -234.5q-371 0 -560 174.5t-189 503.5q0 346 233.5 581.5t595.5 235.5q377 0 560.5 -180t183.5 -506zM1255 725q0 236 -95 383t-298 147q-213 0 -307 -144t-94 -382q0 -236 91 -385t296 -149q407 0 407 530z" />
<glyph unicode="P" horiz-adv-x="1492" d="M1456 1026q0 -223 -165 -368.5t-429 -145.5h-164v160l72 2q299 8 299 303q0 129 -77 206t-240 81l-172 4v-709l8 -309q0 -66 43 -72l209 -43q0 -113 -9 -135h-778q-7 54 -7 96q0 17 1 31l98 23q35 8 56.5 45.5t23.5 80.5l6 283v627q0 59 -49 82l-133 53q-2 16 1 62.5 t9 64.5h885q231 0 371.5 -103.5t140.5 -318.5z" />
<glyph unicode="Q" d="M1645 784q0 -340 -225.5 -574.5t-598.5 -234.5q-371 0 -560 174.5t-189 503.5q0 346 233.5 581.5t595.5 235.5q377 0 560.5 -180t183.5 -506zM1788 -399q-155 -167 -316 -167q-28 0 -57 5q-45 8 -143 45l-316 121q-82 31 -129 37q-66 11 -125 10q-65 0 -122 -12l-48 129 q143 152 306 152q28 0 57 -5q53 -8 139 -41l328 -127q70 -27 121 -35q72 -10 114 -10q10 0 19 1q43 3 102 28zM1255 725q0 236 -95 383t-298 147q-213 0 -307 -144t-94 -382q0 -236 91 -385t296 -149q407 0 407 530z" />
<glyph unicode="R" horiz-adv-x="1617" d="M1642 113l-10 -162q-50 -5 -97 -5q-98 0 -185 20q-129 30 -248 130q-160 133 -314 479l-43 -2h-161l6 -323q0 -59 43 -72l127 -43q0 -113 -8 -135h-697q-7 54 -7 96q0 17 1 31l98 23q35 8 56.5 45.5t23.5 80.5l6 283v627q0 59 -49 82l-133 53q-2 16 1 62.5t9 64.5h803 q154 0 273.5 -39t199.5 -135t80 -242q0 -111 -65.5 -215t-186.5 -168q96 -201 191 -323q141 -184 286 -213zM1028 997h2q0 270 -358 271h-90v-527l149 2q162 2 229.5 60.5t67.5 193.5z" />
<glyph unicode="S" horiz-adv-x="1306" d="M1235 444q0 -158 -101.5 -267t-239.5 -154.5t-292 -45.5q-330 0 -530 123l39 371h147q12 -145 118.5 -226t256.5 -81q47 0 98 11t96 44t45 82q0 39 -42 77t-85 59.5t-139 64.5l-133 61q-47 23 -122 70t-113.5 91t-70.5 111.5t-32 145.5q0 193 171 337t368 144 q279 0 493 -104v-318h-133q-29 115 -127 171.5t-227 56.5q-219 0 -219 -164q0 -53 69.5 -97t208.5 -104l45 -18l130 -60q52 -25 119 -67.5t107 -84.5t67.5 -101.5t27.5 -127.5z" />
<glyph unicode="T" horiz-adv-x="1458" d="M1450 1448v-406q-23 -4 -72 -7t-61 1q-39 201 -193 211l-221 15v-703l10 -311q0 -39 7.5 -53.5t35.5 -20.5l174 -37q0 -106 -8 -137h-782q-10 47 -10 96q0 21 2 41l131 39q33 10 57.5 54t26.5 87l6 242v703l-240 -15q-131 -8 -170 -211q-12 -4 -63 -2t-72 8v406h1442z " />
<glyph unicode="U" d="M1675 1319l-102 -33q-18 -6 -27.5 -12t-18.5 -23.5t-9 -46.5v-649q0 -133 -43 -236.5t-110 -166t-156 -102.5t-171 -54t-166 -14q-102 0 -178 7t-174 36.5t-160.5 82t-106.5 152.5t-44 240v674q0 35 -16.5 65.5t-42.5 40.5l-109 43q0 94 8 125h711q4 -20 5 -69v-28 q0 -25 -1 -38l-137 -25q-53 -10 -54 -65v-668q0 -369 381 -369q307 0 308 418v553q0 106 -115 139l-88 27q0 117 2 125h606q9 -49 9 -97q0 -16 -1 -32z" />
<glyph unicode="V" horiz-adv-x="1599" d="M1589 1325l-51 -33q-53 -37 -78 -92l-538 -1180l-260 -75l-504 1259q-27 63 -70 94l-41 29q0 72 12 121h668q18 -57 18 -133l-108 -31q-71 -20 -71 -90q0 -35 18 -82l282 -721l318 703q20 42 20 76q0 68 -80 102l-106 43q0 96 12 133h549q10 -35 10 -123z" />
<glyph unicode="W" horiz-adv-x="2234" d="M2281 1325l-36 -25q-47 -33 -78 -100l-490 -1184l-256 -71l-303 827l-354 -754l-254 -73l-371 1259q-14 49 -65 82l-62 41q0 86 11 121h659q4 -29 4 -72q0 -28 -2 -61l-92 -31q-53 -18 -63 -65q-3 -15 -2 -31q0 -35 14 -76l192 -719l293 631l-45 129l-23 51 q-27 76 -57 123q0 94 4 121h582q6 -16 9 -29.5t3 -24t-1 -35t-1 -44.5l-57 -31q-65 -35 -65 -105q0 -30 11 -67l246 -719l273 701q15 51 15 87q0 27 -8 47q-19 46 -61 60l-71 27q0 96 12 133h479q10 -35 10 -123z" />
<glyph unicode="X" horiz-adv-x="1513" d="M1493 111q0 -82 -10 -111h-654q-7 50 -7 85q0 14 1 26l70 47q29 18 29 47q0 26 -23 59l-188 268l-219 -253q-27 -29 -27 -64t24 -49l107 -55q0 -82 -10 -111h-557q-9 45 -10 84q0 13 1 27l48 36q78 59 165 160l349 398l-367 456q-66 82 -154 174q-5 30 -5 70q0 20 1 43 h609q7 -50 7 -86q0 -14 -1 -27l-70 -37q-23 -14 -23 -40q0 -24 23 -58l186 -256l213 244q22 25 22 56q0 35 -24 48l-77 45q0 94 6 111h522q1 -5 0 -15q0 -28 -4 -96q-20 -10 -40 -22t-31 -20.5t-28.5 -27t-23.5 -25.5l-27 -31l-26 -31l-348 -402l391 -481q43 -53 64.5 -76.5 t55 -53t60.5 -56.5z" />
<glyph unicode="Y" horiz-adv-x="1480" d="M1470 1325q-72 -47 -129 -125l-430 -627l7 -344q0 -31 9 -43t38 -18l122 -29q0 -92 -14 -139h-682q-8 33 -8 125l74 20q98 33 98 115l6 289l-440 655q-53 76 -111 123q-3 29 -3 54q0 38 7 67h656q8 -33 8 -133l-78 -31q-57 -23 -73 -72q-5 -15 -4 -30q0 -35 24 -70 l268 -397l250 379q27 40 27 74q0 61 -86 104l-86 43q-2 22 -2 44q0 44 8 89h534q10 -35 10 -123z" />
<glyph unicode="Z" horiz-adv-x="1331" d="M1311 449l-56 -449h-1142l-58 168l740 1079l-430 -10q-61 -8 -105 -223q-41 -6 -79 -6q-45 0 -87 8v432h1143l41 -123l-768 -1124l438 26q121 14 207 254z" />
<glyph unicode="[" horiz-adv-x="710" d="M559 -451h-397v1995h397v-182h-184v-1630h184v-183z" />
<glyph unicode="\" horiz-adv-x="1089" d="M1139 -311l-174 -101l-990 1897l175 100z" />
<glyph unicode="]" horiz-adv-x="710" d="M549 -451h-397v183h184v1630h-184v182h397v-1995z" />
<glyph unicode="^" horiz-adv-x="1110" d="M1018 602h-215l-236 639l-260 -639h-207l353 846h231z" />
<glyph unicode="_" horiz-adv-x="1024" d="M1024 -336h-1024v176h1024v-176z" />
<glyph unicode="`" horiz-adv-x="1163" d="M932 1378l-84 -151q-330 119 -596 327l201 228q246 -267 479 -404z" />
<glyph unicode="a" horiz-adv-x="1232" d="M1192 113q-141 -131 -272 -131q-119 0 -169.5 37.5t-58.5 142.5q-166 -180 -336 -180q-145 0 -225 64.5t-80 193.5q0 94 37 162.5t105.5 108.5t141.5 62.5t167 34.5q33 4 184 21v129q0 66 -35 89t-166 23q-123 0 -305 -43l-59 246q190 70 420 70h17q468 0 468 -332v-250 l14 -354h140zM686 266v207q-10 -2 -49 -5t-62 -7q-184 -27 -184 -135q0 -43 27.5 -68t79.5 -25q100 0 188 33z" />
<glyph unicode="b" horiz-adv-x="1359" d="M1298 602q0 -266 -180 -441t-454 -175q-270 0 -480 59l13 537v786h-177v141q264 55 400 56q72 0 94.5 -23.5t22.5 -97.5v-864l8 -367q72 -10 125 -10q127 0 195.5 108.5t68.5 276.5q0 344 -225 344q-47 0 -91 -6l-28 168q104 45 188 45q270 0 395 -115t125 -422z" />
<glyph unicode="c" horiz-adv-x="1112" d="M1079 948q0 -90 -28.5 -132t-104.5 -75q-70 80 -149.5 146.5t-126.5 66.5q-125 0 -191.5 -87t-66.5 -302q0 -141 87 -229t224 -88q141 0 278 24l56 -176q-117 -63 -213 -88.5t-217 -25.5q-303 0 -434.5 136t-131.5 453q0 223 167 399.5t440 176.5q170 0 290.5 -51.5 t120.5 -147.5z" />
<glyph unicode="d" horiz-adv-x="1370" d="M1329 90q-74 -39 -110.5 -56.5t-107.5 -33.5t-155 -16q-74 0 -110.5 50t-36.5 118q-43 -49 -75 -77t-93 -58.5t-125 -30.5q-94 0 -168 21.5t-142.5 75.5t-106.5 163.5t-38 271.5q0 274 173.5 441t435.5 167q106 0 145 -2v244h-178v156q225 41 397 41q72 0 97.5 -23.5 t25.5 -97.5v-864l6 -373h140zM815 582v358q-78 16 -151 16q-133 0 -188.5 -109.5t-55.5 -314.5q0 -125 65.5 -204.5t155.5 -79.5q74 0 166 24z" />
<glyph unicode="e" horiz-adv-x="1204" d="M1151 543h-733q8 -147 93 -220t224 -73q197 0 338 31l57 -181q-215 -117 -446 -116q-154 0 -260.5 22.5t-192.5 79.5t-128 166.5t-42 275.5q0 236 164 423.5t422 187.5q504 0 504 -496v-100zM795 692v11q0 119 -42 186q-44 70 -122 69q-115 0 -169 -73.5t-54 -192.5h387z " />
<glyph unicode="f" horiz-adv-x="882" d="M1071 1409q0 -129 -153 -201q-129 186 -185 187q-78 0 -131 -49.5t-53 -128.5v-99h244v-164h-244v-372l8 -316q0 -80 92 -98q190 -35 205 -39q0 -86 -18 -129h-783q-6 35 -8 48t-2 18.5t1 20.5t1 38l98 27q53 16 58 122l4 308v372h-164v127l164 37v31q0 166 158.5 295 t336.5 129q371 0 371 -164z" />
<glyph unicode="g" horiz-adv-x="1255" d="M1245 911h-205q18 -51 19 -118q0 -180 -136.5 -280.5t-359.5 -100.5q-131 0 -231 28v-172h373q276 0 374.5 -63.5t98.5 -229.5q0 -135 -96.5 -234t-248 -148.5t-331.5 -49.5q-461 0 -461 248q0 74 53 138.5t119 86.5q-51 0 -89 34t-38 106q0 121 143 327 q-154 86 -153 265q0 180 128 292.5t353 112.5q240 0 371 -94l317 80v-228zM715 782q0 92 -40 146.5t-120 54.5q-162 0 -162 -221q0 -190 162 -191q160 0 160 211zM848 -98q0 98 -123 98h-385q-43 -47 -43 -98q0 -70 82 -116t250 -46q219 0 219 162z" />
<glyph unicode="h" horiz-adv-x="1478" d="M1438 125q0 -82 -17 -125h-583q-9 51 -10 96q0 15 1 29l72 33q39 18 39 73l4 330v109q0 47 -1 72.5t-9 62.5t-22.5 56.5t-44 33.5t-72.5 14q-158 0 -252 -35v-313l4 -301q0 -74 33 -92l73 -39q0 -80 -12 -129h-588q-8 33 -8 121l100 33q29 10 39.5 25.5t10.5 53.5l6 328 v813h-160v152q203 43 414 43q80 0 80 -72v-487q180 137 368 137q80 0 140.5 -10.5t101.5 -24.5t68.5 -44t42 -54.5t21.5 -69.5t8 -75.5t1 -88.5v-219l6 -338q4 -59 29 -65z" />
<glyph unicode="i" horiz-adv-x="772" d="M594 1466q0 -51 -80 -134t-137 -83q-55 0 -135 82t-80 135q0 55 81 135t134 80t135 -80t82 -135zM731 129q0 -80 -12 -129h-670q-8 35 -8 129l121 35q49 12 49 80l6 317v393h-176v154q203 43 412 43q55 0 81.5 -20.5t26.5 -77.5v-492l2 -301q2 -84 33 -92z" />
<glyph unicode="j" horiz-adv-x="759" d="M596 1466q0 -51 -80 -134t-137 -83q-55 0 -135 82t-80 135q0 55 81 135t134 80t135 -80t82 -135zM571 2q0 -74 -4 -126t-25.5 -117.5t-61.5 -106.5t-114.5 -69.5t-179.5 -28.5q-172 0 -286 36l34 201q66 -10 146 -10q76 0 107.5 31.5t31.5 138.5v1003h-170v154 q203 43 406 43q55 0 80.5 -20.5t25.5 -77.5v-492z" />
<glyph unicode="k" horiz-adv-x="1351" d="M1350 131l-45 -174q-211 16 -335 87t-231 222l-178 254l2 -260q4 -66 33 -92l51 -47q0 -72 -12 -121h-586q-8 33 -8 121l121 33q31 8 40 24.5t9 54.5l6 328v807h-170v154q203 43 406 43q55 0 81.5 -20.5t26.5 -78.5v-841l297 252q29 23 29 53q0 35 -33 49l-68 35 q0 70 11 104h473v-110l-428 -340l200 -248q78 -94 114 -134t90.5 -88.5t103.5 -66.5z" />
<glyph unicode="l" horiz-adv-x="782" d="M750 129q0 -80 -13 -129h-669q-8 33 -9 121l121 33q29 8 39 24.5t10 54.5l7 328v807h-170v154q172 43 405 43q55 0 82 -20.5t27 -78.5v-905l2 -301q4 -84 32 -92z" />
<glyph unicode="m" horiz-adv-x="2217" d="M2177 125q0 -82 -16 -125h-584q-9 51 -9 96q0 15 1 29l71 33q39 18 39 73l7 330v109q0 57 -3.5 91t-16.5 72.5t-46 57t-84 18.5q-160 0 -254 -32q0 -14 1 -47t1 -50v-219l4 -338q4 -59 29 -65l117 -33q0 -82 -17 -125h-583q-9 51 -10 96q0 15 1 29l72 33q39 18 39 73 l6 330v109q0 57 -3 91t-16.5 72.5t-46 57t-83.5 18.5q-160 0 -252 -35v-313l2 -301q4 -82 32 -92l107 -39q0 -80 -12 -129h-621q-8 33 -8 121l100 33q29 10 39 25.5t10 53.5l7 328v393h-154v152q203 43 408 43q80 0 79 -72v-67q180 137 369 137q299 0 358 -148 q199 147 385 148q92 0 160 -11.5t109 -38t65.5 -53t35.5 -76.5t13.5 -86t2.5 -102v-219l4 -338q4 -59 28 -65z" />
<glyph unicode="n" horiz-adv-x="1478" d="M1438 125q0 -82 -17 -125h-583q-9 51 -10 96q0 15 1 29l72 33q39 18 39 73l4 330v109q0 47 -1 72.5t-9 62.5t-22.5 56.5t-44 33.5t-72.5 14q-158 0 -252 -35v-313l4 -301q0 -78 33 -92l94 -39q0 -80 -12 -129h-609q-6 45 -6 121l98 33q29 10 39.5 25.5t10.5 53.5l6 328 v393h-160v152q203 43 414 43q80 0 80 -72v-67q180 137 368 137q80 0 140.5 -10.5t101.5 -24.5t68.5 -44t42 -54.5t21.5 -69.5t8 -75.5t1 -88.5v-219l6 -338q4 -59 29 -65z" />
<glyph unicode="o" horiz-adv-x="1296" d="M1235 573q0 -229 -174 -409t-426 -180q-274 0 -424 139t-150 420q0 229 174.5 415.5t417.5 186.5q582 -1 582 -572zM870 553q0 393 -239 393q-70 0 -115 -34.5t-63.5 -99t-24.5 -117t-6 -124.5q0 -389 246 -389q202 0 202 371z" />
<glyph unicode="p" horiz-adv-x="1380" d="M1319 573q0 -135 -36 -240.5t-95.5 -170t-143 -106.5t-171 -57t-187.5 -15q-80 0 -108 2l4 -185q0 -25 4 -39t21.5 -23t21.5 -10l37 -10l143 -32q0 -92 -12 -138h-746q-10 37 -10 129l78 25q92 27 92 123l8 723v405h-172v148q201 49 414 49q90 0 90 -90v-35 q117 121 272 121q115 0 200 -24.5t154.5 -85t105.5 -177.5t36 -287zM956 537q0 184 -57 290.5t-164 106.5q-84 0 -172 -27v-362l8 -383q68 -14 125 -15q127 0 193.5 111t66.5 279z" />
<glyph unicode="q" horiz-adv-x="1355" d="M1315 -317q0 -84 -10 -134h-689q-6 35 -6 129l105 25q78 16 82 123l8 324l-78 -76q-29 -27 -89 -56.5t-122 -29.5q-98 0 -174 24.5t-142.5 82t-102.5 170t-36 274.5q0 274 173.5 441t435.5 167q279 0 487 -70v-694l12 -608q4 -31 20.5 -45.5t51.5 -26.5zM815 561v379 q-78 20 -151 21q-133 0 -188.5 -112t-55.5 -317q0 -295 221 -294q74 0 166 34z" />
<glyph unicode="r" horiz-adv-x="1077" d="M1069 1081l-111 -282q-100 59 -210 59q-119 0 -189 -37v-258l6 -307q2 -43 27 -49l266 -62q0 -106 -16 -145h-791q-10 55 -10 127l88 25q61 18 71.5 35.5t12.5 56.5l4 319v391h-170v152q223 43 402 43q102 0 102 -82v-78q121 156 280 156q138 -1 238 -64z" />
<glyph unicode="s" horiz-adv-x="1081" d="M1010 358q0 -104 -48.5 -182t-126 -120t-161.5 -62.5t-170 -20.5q-221 0 -443 99l21 293h121q39 -205 297 -205q90 0 124.5 18.5t34.5 73.5q0 43 -56 78t-135 66.5t-159 72.5t-136 120t-56 187q0 176 133 271.5t323 95.5q205 0 418 -92l-39 -293l-118 12 q-12 43 -25.5 69.5t-43.5 57.5t-82 45t-128 14q-74 0 -101.5 -23.5t-27.5 -70.5q0 -37 60.5 -70.5t145.5 -67.5t171 -77t146.5 -118t60.5 -171z" />
<glyph unicode="t" horiz-adv-x="1011" d="M971 74q-66 -33 -192 -65t-189 -32q-106 0 -169 10.5t-119 46.5t-81 111q-23 70 -23 180q0 9 1 19l6 569h-164v129l432 306h80v-230h375v-205h-375v-344l6 -252q2 -43 28.5 -57t100.5 -14q154 0 254 10z" />
<glyph unicode="u" horiz-adv-x="1478" d="M1438 66q-160 -80 -318 -80q-92 0 -138 40t-48 128q-186 -174 -352 -174q-102 0 -174 20t-111 50t-59.5 83t-24.5 96t-4 113v612h-168v138q266 57 350 57q160 0 160 -137v-453v-168q0 -86 23.5 -125t80.5 -39q119 0 263 49l8 283v395h-146v138l91 20q56 12 86 19.5 t71 12.5t78 5q74 0 118 -35t44 -102v-455l12 -350h135z" />
<glyph unicode="v" horiz-adv-x="1206" d="M1192 1118l-2 -133q-49 -55 -107 -182l-360 -791l-254 -75l-334 921q-16 45 -31.5 64.5t-52.5 48.5q0 86 12 147h529v-164h-125l201 -610l217 506q10 25 1 51.5t-24 36.5q-14 12 -82 29q-3 38 -3 68q0 53 9 83h406z" />
<glyph unicode="w" horiz-adv-x="1779" d="M1745 1118l-2 -133q-61 -72 -98 -182l-281 -803l-252 -51l-252 657l-229 -600l-269 -57l-253 909q-8 31 -19.5 50.5t-22 29.5t-36.5 33q0 86 12 147h522v-164h-125l129 -620l240 745l231 58l267 -803l139 516q6 27 -6.5 55.5t-40.5 40.5l-58 21q-3 38 -3 68q0 53 10 83 h397z" />
<glyph unicode="x" horiz-adv-x="1196" d="M1176 145q0 -92 -19 -145h-510q-14 51 -14 127l18 8q20 8 27 35q1 6 1 12q0 23 -17 51l-134 166l-145 -209q-14 -23 10 -28l107 -31q0 -82 -21 -131h-444q-14 47 -15 129q63 37 99 74l303 321l-246 301q-90 109 -151 146q-3 39 -4 70q0 47 8 77h544v-164h-98l201 -245 l133 161q20 24 20 46q0 24 -26 45l-35 24q0 100 8 133h391q0 -94 -8 -119q-59 -49 -94 -86l-301 -315l334 -375q37 -43 78 -78z" />
<glyph unicode="y" horiz-adv-x="1206" d="M1196 1118l-10 -133q-53 -37 -115 -182l-459 -1057q-68 -156 -284 -233l-191 284q137 47 193 72q92 41 125 86l-305 903q-4 12 -9.5 21.5t-10.5 16.5t-15 15l-16 13q-5 4 -19 12t-20.5 11l-25 11.5t-24.5 12.5q0 86 13 147h583v-164h-125l191 -661l200 557q8 25 0 51.5 t-22 36.5q-14 12 -82 29q-3 38 -3 68q0 53 9 83h422z" />
<glyph unicode="z" horiz-adv-x="1134" d="M1106 371l-76 -371h-942l-59 147l676 721h-422q-16 0 -33 -7t-32 -25.5l-24.5 -30.5t-28 -40t-24.5 -36q-70 25 -92 43l92 346h873v-207l-617 -657h391q57 0 122 50t89 99q31 -6 57.5 -14t37.5 -12z" />
<glyph unicode="{" horiz-adv-x="843" d="M723 1565l-2 -166h-74q-117 0 -178 -49.5t-51 -141.5l39 -362q23 -215 -117 -283q135 -68 113 -282l-41 -373q-10 -84 53 -131t180 -47h72l2 -181h-68q-88 0 -162.5 16.5t-142 53.5t-101.5 112.5t-22 180.5l41 387q6 61 -41 112.5t-141 51.5v192q94 0 141 51.5t41 114.5 l-39 391q-10 106 23 180t100.5 109t139 49.5t165.5 14.5h70z" />
<glyph unicode="|" horiz-adv-x="628" d="M424 -451h-219v1995h219v-1995z" />
<glyph unicode="}" horiz-adv-x="843" d="M762 463q-94 0 -141.5 -51.5t-40.5 -112.5l41 -387q10 -86 -11.5 -151.5t-62.5 -104.5t-102.5 -63.5t-122 -34t-129.5 -9.5h-68v181h74q117 0 180 47t53 131l-41 373q-23 215 113 280q-139 70 -117 285l39 362q8 92 -52.5 141.5t-176.5 49.5h-74v166h67q94 0 166 -14.5 t139.5 -49.5t100.5 -108.5t22 -180.5l-38 -391q-6 -63 41 -114.5t141 -51.5v-192z" />
<glyph unicode="~" horiz-adv-x="1099" d="M1034 764q-43 -80 -119.5 -145.5t-148.5 -65.5q-111 0 -243 54.5t-204 54.5q-102 0 -184 -54l-84 76q35 68 120 141.5t161 73.5q106 0 228 -55.5t206 -55.5q104 0 180 60z" />
<glyph unicode="&#xa1;" horiz-adv-x="567" d="M485 1047q0 -35 -80.5 -115t-111.5 -80q-33 0 -115 81t-82 114q0 31 83 112.5t114 81.5t111.5 -80.5t80.5 -113.5zM477 -305l-192 -98l-195 98l76 991h235z" />
<glyph unicode="&#xa2;" horiz-adv-x="1112" d="M1079 946q0 -90 -28.5 -133t-104.5 -76q-68 80 -148.5 147.5t-127.5 67.5q-125 0 -191.5 -87t-66.5 -302q0 -141 87 -229t224 -88q141 0 278 24l56 -176q-176 -96 -330 -110v-326h-125v322q-289 4 -415 141t-126 446q0 209 147.5 380t393.5 194v301h125v-299 q150 -8 251 -59.5t101 -137.5z" />
<glyph unicode="&#xa3;" horiz-adv-x="1191" d="M1126 1409q0 -51 -36.5 -97t-90.5 -71q-10 10 -51 57.5t-69.5 72t-49.5 24.5q-76 0 -130 -49.5t-62 -128.5l-37 -365h289v-143h-303l-49 -478l395 25q47 2 76 31l112 -115q-20 -66 -79.5 -119t-137.5 -53h-866q-6 35 -6 123l78 27q53 18 69.5 47.5t22.5 91.5l45 420h-162 v143h178l31 297q18 168 179 296t335 128q162 0 240.5 -36t78.5 -128z" />
<glyph unicode="&#xa4;" horiz-adv-x="1302" d="M1180 96q-164 -115 -451 -114q-250 0 -380 90t-169 290h-139v109h127q-4 66 -4 100q0 37 6 74h-129v109h156q59 170 209.5 281.5t363.5 111.5q397 0 397 -180q0 -115 -129 -181q-57 68 -136 118t-130 50q-190 0 -240 -200h326v-109h-342q-2 -25 -2 -80q0 -43 10 -94h334 v-109h-293q92 -162 260 -161q59 0 111.5 25.5t128.5 84.5q115 -94 115 -215z" />
<glyph unicode="&#xa5;" horiz-adv-x="1355" d="M1321 1083l-55 -139q-80 -10 -95 -29q-63 -76 -159 -202h237v-129h-329q-59 -80 -91 -129v-45h420v-129h-420v-23l23 -258h-393l22 262v19h-387v129h387v28q-47 80 -90 146h-297v129h209q-35 49 -125 166q-33 43 -131 69l-12 139q205 57 375 58q47 -53 147 -226.5 t170 -310.5l99 166l132 219q59 96 105 156q106 -7 258 -66z" />
<glyph unicode="&#xa6;" horiz-adv-x="628" d="M410 803h-232v741h232v-741zM410 -451h-232v740h232v-740z" />
<glyph unicode="&#xa7;" horiz-adv-x="1060" d="M1061 1450q0 -84 -70 -154q-106 102 -196 102.5t-90 -104.5q0 -47 22 -166l137 -663q43 -215 43 -365q0 -250 -173 -408.5t-458 -158.5q-96 0 -162.5 40t-66.5 126q0 82 64 131q131 -98 157 -98q70 0 70 147q0 68 -27 223l-139 727q-20 109 -20 199q0 254 185 407.5 t472 153.5q252 0 252 -139zM670 23q0 78 -23 198l-147 811q-14 86 -15 170q0 76 19 156l-4 4q-113 -88 -113 -295q-2 -76 14 -156l150 -819q14 -96 14 -149q0 -98 -24 -195l4 -4q57 47 91 134.5t34 144.5z" />
<glyph unicode="&#xa8;" horiz-adv-x="1011" d="M946 1468q0 -18 -75.5 -95t-98.5 -77q-25 0 -97.5 75t-72.5 97q0 27 73 99.5t97.5 72.5t99 -74.5t74.5 -97.5zM414 1468q0 -18 -76 -95t-98 -77q-25 0 -97.5 75t-72.5 97q0 27 72.5 99.5t97 72.5t99.5 -74.5t75 -97.5z" />
<glyph unicode="&#xa9;" horiz-adv-x="1542" d="M1403 551q0 -283 -178 -445.5t-449 -162.5q-113 0 -218 31.5t-202.5 98t-157 190.5t-59.5 288q0 287 180.5 452.5t452.5 165.5q119 0 227.5 -34.5t200.5 -105.5t147.5 -193.5t55.5 -284.5zM1264 551q0 242 -142.5 367.5t-345.5 125.5q-217 0 -355 -119.5t-138 -363.5 q0 -121 36.5 -214t91 -145t128 -84t132 -42t117.5 -10q211 0 343.5 128t132.5 357zM1032 250q-111 -39 -211 -39q-199 0 -289 82t-90 270q0 158 103.5 260.5t259.5 102.5q76 0 116 -10.5t107 -38.5v-166q-33 -4 -88 0q-47 106 -139 106q-72 0 -102.5 -55t-30.5 -189 q0 -94 41 -152.5t122 -58.5q92 0 170 17z" />
<glyph unicode="&#xaa;" horiz-adv-x="856" d="M815 854q-84 -78 -164 -78q-76 0 -113.5 22.5t-43.5 86.5q-94 -109 -201 -109q-184 0 -184 154q0 106 73.5 155.5t196.5 65.5q33 6 110 14v58q0 39 -20 52t-98 13q-72 0 -185 -24l-34 168q113 41 251 41q311 6 312 -199v-150l8 -213h84zM778 555h-659v137h659v-137z M492 946v125l-78 -8q-100 -20 -101 -76q0 -25 17.5 -42t46.5 -17q62 0 115 18z" />
<glyph unicode="&#xab;" horiz-adv-x="1050" d="M954 967q-86 -270 -182 -412q109 -211 166 -418q-98 -20 -164 -37q-59 174 -246 457q199 272 269 444q83 -16 157 -34zM535 995q-92 -291 -193 -440q121 -238 176 -442q-98 -18 -166 -35q-61 184 -254 479q195 268 279 473q84 -17 158 -35z" />
<glyph unicode="&#xac;" horiz-adv-x="1185" d="M1024 297h-188v342h-672v176h860v-518z" />
<glyph unicode="&#xad;" horiz-adv-x="780" d="M678 520h-576v260l576 33v-293z" />
<glyph unicode="&#xae;" horiz-adv-x="1880" d="M1741 721q0 -346 -225.5 -546t-569.5 -200q-143 0 -277 39t-257 122t-198 233.5t-75 351.5q0 352 228.5 555t574.5 203q119 0 230.5 -26t216 -83t181.5 -143t124 -216t47 -290zM1581 721q0 207 -93 351.5t-233.5 207.5t-308.5 63q-283 0 -462 -151.5t-179 -458.5 q0 -154 48 -270.5t119 -181t166 -105.5t172 -53t153 -12q274 0 446 160.5t172 449.5zM1397 416l-31 -127q-205 10 -299 90q-23 18 -47.5 47t-40.5 51l-49 71l-51 75h-13h-39l7 -314h-256l6 355v522l346 2q156 0 252 -74t96 -215q0 -156 -139 -237l23 -36q15 -24 22 -32 q96 -137 213 -178zM1028 897q0 72 -25.5 105.5t-95.5 33.5h-82v-288h68q135 -1 135 149z" />
<glyph unicode="&#xaf;" horiz-adv-x="1105" d="M852 1341h-610v203h610v-203z" />
<glyph unicode="&#xb0;" horiz-adv-x="841" d="M754 1229q0 -125 -101.5 -211t-236.5 -86q-328 0 -328 244q0 123 100.5 208.5t233.5 85.5q143 0 237.5 -60t94.5 -181zM537 1202q0 55 -37 87t-92 32q-47 0 -76 -34t-29 -85q0 -123 127 -123q107 0 107 123z" />
<glyph unicode="&#xb1;" horiz-adv-x="1183" d="M1024 645h-336v-342h-188v342h-336v176h336v342h188v-342h336v-176zM1024 0h-860v176h860v-176z" />
<glyph unicode="&#xb2;" horiz-adv-x="555" d="M530 823h-512v138l50 43q49 41 77 68l72 70q43 42 64.5 73.5t21.5 52.5q0 37 -10 46t-41 9q-55 0 -154 -31l-69 148q66 33 110.5 45t122.5 12q147 0 204.5 -63.5t57.5 -155.5q0 -127 -192 -283h198v-172z" />
<glyph unicode="&#xb3;" horiz-adv-x="552" d="M528 1028q0 -215 -290 -215l-215 29l32 159q82 -18 174 -18q49 0 64.5 16.5t15.5 47.5q0 10 -2 18t-7 14t-10 9.5t-15.5 6.5t-18.5 4t-24 1h-25h-31h-35v133q90 0 114 14.5t24 46.5q0 35 -46 35q-25 0 -62.5 -5t-61.5 -9l-25 -6l-45 145q111 45 205 45q252 0 252 -186 q0 -80 -76 -129q45 -20 76.5 -62.5t31.5 -93.5z" />
<glyph unicode="&#xb4;" horiz-adv-x="1163" d="M997 1538q-272 -209 -600 -321l-84 159q119 72 254 184.5t238 225.5z" />
<glyph unicode="&#xb5;" horiz-adv-x="1433" d="M1393 66q-160 -80 -318 -80q-92 0 -138 40t-48 128q-182 -170 -320 -170q-86 0 -114 2q41 -49 51 -82t14 -103l10 -252h-387l21 963v606h342v-559v-168q0 -86 23.5 -125t80.5 -39q119 0 262 49l9 283v559h342v-561l12 -350h135z" />
<glyph unicode="&#x3bc;" horiz-adv-x="1433" d="M1393 66q-160 -80 -318 -80q-92 0 -138 40t-48 128q-182 -170 -320 -170q-86 0 -114 2q41 -49 51 -82t14 -103l10 -252h-387l21 963v606h342v-559v-168q0 -86 23.5 -125t80.5 -39q119 0 262 49l9 283v559h342v-561l12 -350h135z" />
<glyph unicode="&#xb6;" horiz-adv-x="1482" d="M575 553h-20q-217 0 -336 112.5t-119 342.5q0 440 455 440h20v-895zM1278 31q0 -98 -51 -183.5t-129 -140.5t-172.5 -95t-180.5 -57.5t-153 -17.5q-256 0 -256 168q0 53 31.5 98t64.5 66q10 -8 47 -49l70 -75q33 -34 45 -34q39 0 62.5 18.5t32.5 63.5t11 77t2 99v31v1448 h222v-1454q0 -178 -76 -264l2 -9q90 20 147.5 107.5t57.5 189.5v1430h223v-1417z" />
<glyph unicode="&#xb7;" horiz-adv-x="636" d="M535 733q0 -35 -91.5 -126t-126 -91t-125 90t-90.5 127t90.5 126t125 89t126 -89t91.5 -126z" />
<glyph unicode="&#xb8;" horiz-adv-x="927" d="M727 -356q0 -117 -61.5 -173.5t-210.5 -103.5l-66 129q47 37 65.5 63.5t18.5 73.5q0 16 -11 35t-29.5 41.5l-29.5 36.5q-23 37 -22 70q0 59 70 145l112 -45q-8 -14 -8 -27q0 -20 26.5 -46.5t59.5 -50t59.5 -63.5t26.5 -85z" />
<glyph unicode="&#xb9;" horiz-adv-x="436" d="M371 823h-219v492h-134v168l353 10v-670z" />
<glyph unicode="&#xba;" horiz-adv-x="856" d="M801 1124q0 -139 -104.5 -247.5t-256.5 -108.5q-346 0 -346 338q0 139 104.5 250.5t252.5 111.5q350 0 350 -344zM778 555h-659v137h659v-137zM571 1112q0 238 -133 238q-35 0 -58.5 -16.5t-34.5 -35t-17 -58.5t-6 -57v-59q0 -236 137 -235q68 0 90 57t22 166z" />
<glyph unicode="&#xbb;" horiz-adv-x="1050" d="M952 557q-193 -295 -254 -479l-166 35q57 209 177 442q-100 150 -193 440l158 35q83 -205 278 -473zM522 557q-186 -285 -243 -457l-166 37q59 211 166 418q-88 131 -183 412l160 34q67 -170 266 -444z" />
<glyph unicode="&#xbc;" horiz-adv-x="1454" d="M1413 143h-90v-143h-197v143h-284v156l182 367h299v-371h90v-152zM1303 1202l-1115 -1116l-118 127l1114 1112zM371 823h-219v492h-134v168l353 10v-670zM1126 295v242l-122 -242h122z" />
<glyph unicode="&#xbd;" horiz-adv-x="1435" d="M1391 0h-512v137l49 43q49 41 78 69l71 69q43 42 64.5 74t21.5 52q0 37 -10 46.5t-41 9.5q-55 0 -154 -31l-69 147q66 33 110.5 45.5t122.5 12.5q147 0 204.5 -63.5t57.5 -155.5q0 -127 -192 -283h199v-172zM1303 1202l-1115 -1116l-118 127l1114 1112zM371 823h-219v492 h-134v168l353 10v-670z" />
<glyph unicode="&#xbe;" horiz-adv-x="1452" d="M1413 143h-90v-143h-197v143h-284v156l182 367h299v-371h90v-152zM528 1028q0 -215 -290 -215l-215 29l32 159q82 -18 174 -18q49 0 64.5 16.5t15.5 47.5q0 10 -2 18t-7 14t-10 9.5t-15.5 6.5t-18.5 4t-24 1h-25h-31h-35v133q90 0 114 14.5t24 46.5q0 35 -46 35 q-25 0 -62.5 -5t-61.5 -9l-25 -6l-45 145q111 45 205 45q252 0 252 -186q0 -80 -76 -129q45 -20 76.5 -62.5t31.5 -93.5zM1303 1202l-1115 -1116l-118 127l1114 1112zM1126 295v242l-122 -242h122z" />
<glyph unicode="&#xbf;" horiz-adv-x="841" d="M743 1044q0 -35 -80.5 -114.5t-111.5 -79.5t-114 81t-83 113q0 31 83 113t114 82t111.5 -81t80.5 -114zM829 -190q0 -92 -83.5 -130t-202.5 -38q-197 0 -347.5 129t-150.5 272q0 92 32 168t79 123t103 89t103.5 69.5t79 62.5t31.5 72q0 23 -12 61l194 45q86 -176 86 -225 q0 -80 -65.5 -159t-145 -131t-145.5 -114.5t-66 -113.5q0 -37 43.5 -85t129.5 -48q47 0 93 12t105.5 35.5t89.5 32.5q49 -74 49 -127z" />
<glyph unicode="&#xc0;" horiz-adv-x="1591" d="M1073 1696l-43 -174q-152 12 -330 60t-309 106l125 254q264 -178 557 -246zM1528 119v2q0 -74 -15 -121h-647q-18 49 -18 133l108 39q68 23 68 88q0 31 -16 76l-70 213h-457l-73 -195q-14 -43 -15 -78q0 -76 76 -100l147 -43q0 -92 -12 -133h-559q-10 35 -10 123 q68 63 88 104l10 21l504 1165l321 68l478 -1237q16 -41 92 -125zM883 719l-101 305l-49 176h-12l-57 -170l-117 -311h336z" />
<glyph unicode="&#xc1;" horiz-adv-x="1591" d="M1221 1688q-131 -57 -309.5 -105.5t-329.5 -60.5l-43 174q293 68 557 246zM1528 119v2q0 -74 -15 -121h-647q-18 49 -18 133l108 39q68 23 68 88q0 31 -16 76l-70 213h-457l-73 -195q-14 -43 -15 -78q0 -76 76 -100l147 -43q0 -92 -12 -133h-559q-10 35 -10 123 q68 63 88 104l10 21l504 1165l321 68l478 -1237q16 -41 92 -125zM883 719l-101 305l-49 176h-12l-57 -170l-117 -311h336z" />
<glyph unicode="&#xc2;" horiz-adv-x="1591" d="M1268 1659l-54 -164q-240 31 -405 111q-154 -82 -383 -115l-64 141q270 123 455 279q230 -199 451 -252zM1528 119v2q0 -74 -15 -121h-647q-18 49 -18 133l108 39q68 23 68 88q0 31 -16 76l-70 213h-457l-73 -195q-14 -43 -15 -78q0 -76 76 -100l147 -43q0 -92 -12 -133 h-559q-10 35 -10 123q68 63 88 104l10 21l504 1165l321 68l478 -1237q16 -41 92 -125zM883 719l-101 305l-49 176h-12l-57 -170l-117 -311h336z" />
<glyph unicode="&#xc3;" horiz-adv-x="1591" d="M1253 1694l-48 -76t-77.5 -70t-121.5 -41q-68 0 -194 34t-181 34q-119 0 -180 -33q-55 84 -74 109q45 47 69.5 70.5t84 60.5t108.5 37q70 0 196 -34t179 -34l174 33zM1528 119v2q0 -74 -15 -121h-647q-18 49 -18 133l108 39q68 23 68 88q0 31 -16 76l-70 213h-457 l-73 -195q-14 -43 -15 -78q0 -76 76 -100l147 -43q0 -92 -12 -133h-559q-10 35 -10 123q68 63 88 104l10 21l504 1165l321 68l478 -1237q16 -41 92 -125zM883 719l-101 305l-49 176h-12l-57 -170l-117 -311h336z" />
<glyph unicode="&#xc4;" horiz-adv-x="1591" d="M1266 1714q0 -18 -76 -95t-98 -77q-25 0 -97.5 75t-72.5 97q0 27 72.5 99.5t97 72.5t99.5 -74.5t75 -97.5zM692 1714q0 -18 -75.5 -95t-98.5 -77q-25 0 -97.5 75t-72.5 97q0 27 73 99.5t97.5 72.5t99 -74.5t74.5 -97.5zM1528 119v2q0 -74 -15 -121h-647q-18 49 -18 133 l108 39q68 23 68 88q0 31 -16 76l-70 213h-457l-73 -195q-14 -43 -15 -78q0 -76 76 -100l147 -43q0 -92 -12 -133h-559q-10 35 -10 123q68 63 88 104l10 21l504 1165l321 68l478 -1237q16 -41 92 -125zM883 719l-101 305l-49 176h-12l-57 -170l-117 -311h336z" />
<glyph unicode="&#xc5;" horiz-adv-x="1591" d="M1528 121q0 -74 -15 -121h-647q-18 49 -18 133l108 39q68 23 68 88q0 31 -16 76l-70 213h-457l-73 -195q-14 -43 -15 -78q0 -76 76 -100l147 -43q0 -92 -12 -133h-559q-10 35 -10 123q68 63 88 104l10 21l483 1114q-170 49 -170 223q0 123 100.5 209t233.5 86 q143 0 237.5 -60.5t94.5 -181.5q0 -139 -125 -231l449 -1163q18 -45 92 -123zM895 1612q0 57 -36 88t-93 31q-47 0 -75.5 -34t-28.5 -85q0 -123 126 -123q107 0 107 123zM883 719l-101 305l-49 176h-12l-57 -170l-117 -311h336z" />
<glyph unicode="&#xc6;" horiz-adv-x="2299" d="M2208 358l-56 -358h-1222q-14 66 -10 133l86 21q90 20 92 69l6 357v32h-414l-147 -258q-31 -51 -21 -90t33 -59.5t49 -28.5l148 -43q0 -90 -15 -133h-610q-8 27 -8 123l35 24q55 39 92 101l725 1200h1145v-342q-68 -18 -146 -12q-18 94 -59 126.5t-111 32.5l-348 9v-461 l598 10v-209l-598 10v-37l10 -391l285 11q123 6 199.5 45t117.5 151zM1106 1335l-307 -534h305v461z" />
<glyph unicode="&#xc7;" horiz-adv-x="1447" d="M1386 78q-127 -51 -232 -71.5t-253 -20.5q-399 0 -614 180t-215 549q0 315 239.5 536.5t581.5 221.5q158 0 243 -18.5t242 -78.5v-356q-53 -6 -133 2q-94 240 -360 240q-449 0 -449 -527q0 -227 135.5 -356t360.5 -129q162 0 389 49zM1034 -356q0 -117 -61.5 -173.5 t-210.5 -103.5l-66 129q47 37 65.5 63.5t18.5 73.5q0 16 -11 35t-29.5 41.5t-28.5 36.5q-23 37 -23 70q0 59 70 145l112 -45q-8 -14 -8 -27q0 -20 26.5 -46.5t59.5 -50t59.5 -63.5t26.5 -85z" />
<glyph unicode="&#xc8;" horiz-adv-x="1376" d="M971 1696l-43 -174q-152 12 -330 60t-309 106l125 254q264 -178 557 -246zM1315 358l-58 -358h-1202q-14 66 -10 133l86 21q92 20 92 69l6 357v569q0 43 -10 67.5t-20.5 31.5t-32.5 18l-113 51q0 109 8 131h1180v-342q-49 -12 -143 -12q-20 94 -61.5 126.5t-110.5 32.5 l-346 9v-441l555 10v-208l-555 10v-58l8 -391l264 11q123 6 199.5 45t117.5 151z" />
<glyph unicode="&#xc9;" horiz-adv-x="1376" d="M1122 1688q-131 -57 -309 -105.5t-330 -60.5l-43 174q293 68 557 246zM1315 358l-58 -358h-1202q-14 66 -10 133l86 21q92 20 92 69l6 357v569q0 43 -10 67.5t-20.5 31.5t-32.5 18l-113 51q0 109 8 131h1180v-342q-49 -12 -143 -12q-20 94 -61.5 126.5t-110.5 32.5 l-346 9v-441l555 10v-208l-555 10v-58l8 -391l264 11q123 6 199.5 45t117.5 151z" />
<glyph unicode="&#xca;" horiz-adv-x="1376" d="M1163 1659l-53 -164q-240 31 -405 111q-154 -82 -383 -115l-64 141q270 123 455 279q229 -199 450 -252zM1315 358l-58 -358h-1202q-14 66 -10 133l86 21q92 20 92 69l6 357v569q0 43 -10 67.5t-20.5 31.5t-32.5 18l-113 51q0 109 8 131h1180v-342q-49 -12 -143 -12 q-20 94 -61.5 126.5t-110.5 32.5l-346 9v-441l555 10v-208l-555 10v-58l8 -391l264 11q123 6 199.5 45t117.5 151z" />
<glyph unicode="&#xcb;" horiz-adv-x="1376" d="M1153 1714q0 -18 -76 -95t-98 -77q-25 0 -97.5 75t-72.5 97q0 27 72.5 99.5t97.5 72.5t99.5 -74.5t74.5 -97.5zM580 1714q0 -18 -76 -95t-98 -77q-25 0 -97.5 75t-72.5 97q0 27 72.5 99.5t97 72.5t99.5 -74.5t75 -97.5zM1315 358l-58 -358h-1202q-14 66 -10 133l86 21 q92 20 92 69l6 357v569q0 43 -10 67.5t-20.5 31.5t-32.5 18l-113 51q0 109 8 131h1180v-342q-49 -12 -143 -12q-20 94 -61.5 126.5t-110.5 32.5l-346 9v-441l555 10v-208l-555 10v-58l8 -391l264 11q123 6 199.5 45t117.5 151z" />
<glyph unicode="&#xcc;" horiz-adv-x="806" d="M647 1696l-43 -174q-152 12 -330 60t-309 106l125 254q264 -178 557 -246zM756 139q0 -86 -15 -139h-684q-6 25 -6 125l74 20q96 33 98 115l6 315v596q0 76 -104 119l-74 33q0 98 6 125h693q6 -80 -7 -139l-90 -23q-74 -20 -73 -110v-601l4 -346q2 -29 10 -40t37 -21z " />
<glyph unicode="&#xcd;" horiz-adv-x="806" d="M831 1688q-131 -57 -309 -105.5t-329 -60.5l-43 174q293 68 557 246zM756 139q0 -86 -15 -139h-684q-6 25 -6 125l74 20q96 33 98 115l6 315v596q0 76 -104 119l-74 33q0 98 6 125h693q6 -80 -7 -139l-90 -23q-74 -20 -73 -110v-601l4 -346q2 -29 10 -40t37 -21z" />
<glyph unicode="&#xce;" horiz-adv-x="806" d="M856 1659l-53 -164q-240 31 -406 111q-154 -82 -383 -115l-63 141q270 123 455 279q229 -199 450 -252zM756 139q0 -86 -15 -139h-684q-6 25 -6 125l74 20q96 33 98 115l6 315v596q0 76 -104 119l-74 33q0 98 6 125h693q6 -80 -7 -139l-90 -23q-74 -20 -73 -110v-601 l4 -346q2 -29 10 -40t37 -21z" />
<glyph unicode="&#xcf;" horiz-adv-x="806" d="M868 1714q0 -18 -75.5 -95t-98.5 -77q-25 0 -97.5 75t-72.5 97q0 27 73 99.5t97.5 72.5t99 -74.5t74.5 -97.5zM295 1714q0 -18 -76 -95t-98 -77q-25 0 -97.5 75t-72.5 97q0 27 72.5 99.5t97 72.5t99.5 -74.5t75 -97.5zM756 139q0 -86 -15 -139h-684q-6 25 -6 125l74 20 q96 33 98 115l6 315v596q0 76 -104 119l-74 33q0 98 6 125h693q6 -80 -7 -139l-90 -23q-74 -20 -73 -110v-601l4 -346q2 -29 10 -40t37 -21z" />
<glyph unicode="&#xd0;" horiz-adv-x="1656" d="M1585 750q0 -367 -237.5 -558.5t-636.5 -191.5h-645q-14 68 -15 131l92 27q39 10 57.5 26.5t20.5 55.5l8 340v79h-153v136h153v329q0 117 -104 166l-72 35q0 92 8 123h637q158 0 284 -19.5t241.5 -67.5t193.5 -126t123 -200.5t45 -284.5zM1217 702q0 254 -136.5 406 t-388.5 152h-110v-465h292v-136h-292v-84l12 -389h139q240 0 362 140t122 376z" />
<glyph unicode="&#xd1;" horiz-adv-x="1753" d="M1370 1694l-48 -76t-77.5 -70t-122.5 -41q-68 0 -193.5 34t-180.5 34q-119 0 -181 -33q-55 84 -73 109q45 47 69.5 70.5t84 60.5t108.5 37q70 0 195.5 -34t178.5 -34l175 33zM1702 1343l-100 -55q-35 -18 -59.5 -58t-24.5 -83v-1127l-269 -81l-786 1065h-14l8 -164v-281 l6 -309q0 -39 8 -54.5t41 -23.5l174 -49q0 -94 -10 -123h-617q-12 63 -8 121l99 26q43 12 69.5 68.5t28.5 114.5l4 229v612q0 72 -59 105l-125 63q0 94 4 109h475l764 -1008h14l-12 215v490q0 39 -22.5 77t-53.5 54l-129 63q0 86 8 109h578q8 -62 8 -105z" />
<glyph unicode="&#xd2;" d="M1165 1696l-43 -174q-152 12 -330 60t-309 106l125 254q264 -178 557 -246zM1645 784q0 -340 -225.5 -574.5t-598.5 -234.5q-371 0 -560 174.5t-189 503.5q0 346 233.5 581.5t595.5 235.5q377 0 560.5 -180t183.5 -506zM1255 725q0 236 -95 383t-298 147 q-213 0 -307 -144t-94 -382q0 -236 91 -385t296 -149q407 0 407 530z" />
<glyph unicode="&#xd3;" d="M1311 1688q-131 -57 -309.5 -105.5t-329.5 -60.5l-43 174q293 68 557 246zM1645 784q0 -340 -225.5 -574.5t-598.5 -234.5q-371 0 -560 174.5t-189 503.5q0 346 233.5 581.5t595.5 235.5q377 0 560.5 -180t183.5 -506zM1255 725q0 236 -95 383t-298 147q-213 0 -307 -144 t-94 -382q0 -236 91 -385t296 -149q407 0 407 530z" />
<glyph unicode="&#xd4;" d="M1352 1659l-54 -164q-240 31 -405 111q-154 -82 -383 -115l-64 141q270 123 455 279q230 -199 451 -252zM1645 784q0 -340 -225.5 -574.5t-598.5 -234.5q-371 0 -560 174.5t-189 503.5q0 346 233.5 581.5t595.5 235.5q377 0 560.5 -180t183.5 -506zM1255 725 q0 236 -95 383t-298 147q-213 0 -307 -144t-94 -382q0 -236 91 -385t296 -149q407 0 407 530z" />
<glyph unicode="&#xd5;" d="M1319 1694q-29 -47 -48.5 -76t-77.5 -70t-122 -41q-68 0 -193.5 34t-181.5 34q-119 0 -180 -33q-55 84 -74 109q45 47 70 70.5t84 60.5t109 37q70 0 195.5 -34t178.5 -34l174 33zM1645 784q0 -340 -225.5 -574.5t-598.5 -234.5q-371 0 -560 174.5t-189 503.5 q0 346 233.5 581.5t595.5 235.5q377 0 560.5 -180t183.5 -506zM1255 725q0 236 -95 383t-298 147q-213 0 -307 -144t-94 -382q0 -236 91 -385t296 -149q407 0 407 530z" />
<glyph unicode="&#xd6;" d="M1333 1714q0 -18 -75.5 -95t-98.5 -77q-25 0 -97.5 75t-72.5 97q0 27 73 99.5t97.5 72.5t99 -74.5t74.5 -97.5zM760 1714q0 -18 -76 -95t-98 -77q-25 0 -97.5 75t-72.5 97q0 27 72.5 99.5t97 72.5t99.5 -74.5t75 -97.5zM1645 784q0 -340 -225.5 -574.5t-598.5 -234.5 q-371 0 -560 174.5t-189 503.5q0 346 233.5 581.5t595.5 235.5q377 0 560.5 -180t183.5 -506zM1255 725q0 236 -95 383t-298 147q-213 0 -307 -144t-94 -382q0 -236 91 -385t296 -149q407 0 407 530z" />
<glyph unicode="&#xd7;" horiz-adv-x="1036" d="M901 469l-127 -125l-256 256l-258 -258l-125 123l258 260l-254 256l125 125l256 -256l252 254l127 -123l-256 -256z" />
<glyph unicode="&#xd8;" d="M1645 784q0 -340 -225.5 -574.5t-598.5 -234.5q-295 0 -479 113l-180 -168l-107 107l170 159q-154 172 -153 467q0 346 233.5 581.5t595.5 235.5q285 0 463 -106l139 158l107 -105l-129 -147q164 -173 164 -486zM1145 1128q-100 127 -283 127q-213 0 -307 -144t-94 -382 q0 -160 37 -272zM1255 725q0 152 -36 260l-646 -670q98 -121 275 -120q407 0 407 530z" />
<glyph unicode="&#xd9;" d="M1169 1696l-43 -174q-152 12 -330 60t-309 106l125 254q264 -178 557 -246zM1675 1319l-102 -33q-18 -6 -27.5 -12t-18.5 -23.5t-9 -46.5v-649q0 -133 -43 -236.5t-110 -166t-156 -102.5t-171 -54t-166 -14q-102 0 -178 7t-174 36.5t-160.5 82t-106.5 152.5t-44 240v674 q0 35 -16.5 65.5t-42.5 40.5l-109 43q0 94 8 125h711q4 -20 5 -68.5t-1 -66.5l-137 -25q-53 -10 -54 -65v-668q0 -369 381 -369q307 0 308 418v553q0 106 -115 139l-88 27q0 117 2 125h606q12 -66 8 -129z" />
<glyph unicode="&#xda;" d="M1360 1688q-131 -57 -309.5 -105.5t-329.5 -60.5l-43 174q293 68 557 246zM1675 1319l-102 -33q-18 -6 -27.5 -12t-18.5 -23.5t-9 -46.5v-649q0 -133 -43 -236.5t-110 -166t-156 -102.5t-171 -54t-166 -14q-102 0 -178 7t-174 36.5t-160.5 82t-106.5 152.5t-44 240v674 q0 35 -16.5 65.5t-42.5 40.5l-109 43q0 94 8 125h711q4 -20 5 -68.5t-1 -66.5l-137 -25q-53 -10 -54 -65v-668q0 -369 381 -369q307 0 308 418v553q0 106 -115 139l-88 27q0 117 2 125h606q12 -66 8 -129z" />
<glyph unicode="&#xdb;" d="M1386 1659l-53 -164q-240 31 -405 111q-154 -82 -383 -115l-64 141q270 123 455 279q229 -199 450 -252zM1675 1319l-102 -33q-18 -6 -27.5 -12t-18.5 -23.5t-9 -46.5v-649q0 -133 -43 -236.5t-110 -166t-156 -102.5t-171 -54t-166 -14q-102 0 -178 7t-174 36.5 t-160.5 82t-106.5 152.5t-44 240v674q0 35 -16.5 65.5t-42.5 40.5l-109 43q0 94 8 125h711q4 -20 5 -68.5t-1 -66.5l-137 -25q-53 -10 -54 -65v-668q0 -369 381 -369q307 0 308 418v553q0 106 -115 139l-88 27q0 117 2 125h606q12 -66 8 -129z" />
<glyph unicode="&#xdc;" d="M1366 1714q0 -18 -76 -95t-98 -77q-25 0 -97.5 75t-72.5 97q0 27 72.5 99.5t97.5 72.5t99.5 -74.5t74.5 -97.5zM793 1714q0 -18 -76 -95t-99 -77q-25 0 -97 75t-72 97q0 27 72.5 99.5t97 72.5t99.5 -74.5t75 -97.5zM1675 1319l-102 -33q-18 -6 -27.5 -12t-18.5 -23.5 t-9 -46.5v-649q0 -133 -43 -236.5t-110 -166t-156 -102.5t-171 -54t-166 -14q-102 0 -178 7t-174 36.5t-160.5 82t-106.5 152.5t-44 240v674q0 35 -16.5 65.5t-42.5 40.5l-109 43q0 94 8 125h711q4 -20 5 -68.5t-1 -66.5l-137 -25q-53 -10 -54 -65v-668q0 -369 381 -369 q307 0 308 418v553q0 106 -115 139l-88 27q0 117 2 125h606q12 -66 8 -129z" />
<glyph unicode="&#xdd;" horiz-adv-x="1480" d="M1247 1688q-131 -57 -309 -105.5t-330 -60.5l-43 174q293 68 557 246zM1470 1325q-72 -47 -129 -125l-430 -627l7 -344q0 -31 9 -43t38 -18l122 -29q0 -92 -14 -139h-682q-8 33 -8 125l74 20q98 33 98 115l6 289l-440 655q-53 76 -111 123q-8 72 4 121h656q8 -33 8 -133 l-78 -31q-57 -23 -72.5 -72t19.5 -100l268 -397l250 379q76 111 -59 178l-86 43q-6 66 6 133h534q10 -35 10 -123z" />
<glyph unicode="&#xde;" horiz-adv-x="1492" d="M1456 778q0 -223 -165 -368.5t-429 -145.5h-164v160l72 2q299 8 299 303q0 129 -77 206t-240 81l-172 4v-461l8 -309q0 -66 43 -72l209 -43q0 -113 -9 -135h-778q-10 76 -6 127l98 23q35 8 56.5 45.5t23.5 80.5l4 283v612q0 76 -104 119l-74 33q0 98 6 125h693 q6 -80 -7 -139l-90 -23q-53 -12 -69 -76q0 -2 -1 -5t-1 -5h362q231 0 371.5 -103.5t140.5 -318.5z" />
<glyph unicode="&#xdf;" horiz-adv-x="1665" d="M1567 338q0 -104 -38 -179t-104.5 -114t-140.5 -55.5t-162 -16.5q-84 0 -152.5 14.5t-101 28l-131.5 56.5l21 293l108 -3q20 -113 82 -165t170 -52q57 0 88 30t31 77q0 43 -45 86t-109.5 83t-130 88t-110.5 123t-45 165q0 74 53 146l106 140q53 68 54 125 q0 90 -63.5 136.5t-166.5 46.5q-82 0 -143.5 -50.5t-61.5 -128.5v-630l15 -580l-508 -2q-10 49 -10 125l98 27q57 16 57 122l4 308v372h-163v127l163 37v47q0 166 171 287t366 121q547 0 547 -340q0 -70 -23.5 -123t-56.5 -82t-65.5 -52.5t-56 -51t-23.5 -62.5 q0 -45 74.5 -95t163.5 -95t164 -133t75 -201z" />
<glyph unicode="&#xe0;" horiz-adv-x="1232" d="M872 1378l-84 -151q-330 119 -595 327l200 228q246 -267 479 -404zM1192 113q-141 -131 -272 -131q-119 0 -169.5 37.5t-58.5 142.5q-166 -180 -336 -180q-145 0 -225 64.5t-80 193.5q0 94 37 162.5t105.5 108.5t141.5 62.5t167 34.5q33 4 184 21v129q0 66 -35 89 t-166 23q-123 0 -305 -43l-59 246q190 70 420 70q485 6 485 -332v-250l14 -354h140zM686 266v207q-10 -2 -49 -5t-62 -7q-184 -27 -184 -135q0 -43 27.5 -68t79.5 -25q100 0 188 33z" />
<glyph unicode="&#xe1;" horiz-adv-x="1232" d="M1020 1538q-272 -209 -600 -321l-84 159q119 72 254 184.5t237 225.5zM1192 113q-141 -131 -272 -131q-119 0 -169.5 37.5t-58.5 142.5q-166 -180 -336 -180q-145 0 -225 64.5t-80 193.5q0 94 37 162.5t105.5 108.5t141.5 62.5t167 34.5q33 4 184 21v129q0 66 -35 89 t-166 23q-123 0 -305 -43l-59 246q190 70 420 70q485 6 485 -332v-250l14 -354h140zM686 266v207q-10 -2 -49 -5t-62 -7q-184 -27 -184 -135q0 -43 27.5 -68t79.5 -25q100 0 188 33z" />
<glyph unicode="&#xe2;" horiz-adv-x="1232" d="M1008 1372l-99 -131q-90 31 -200.5 88t-173.5 103q-98 -90 -338 -189l-95 115q109 80 200 160.5t132 125.5l117 130q252 -277 457 -402zM1192 113q-141 -131 -272 -131q-119 0 -169.5 37.5t-58.5 142.5q-166 -180 -336 -180q-145 0 -225 64.5t-80 193.5q0 94 37 162.5 t105.5 108.5t141.5 62.5t167 34.5q33 4 184 21v129q0 66 -35 89t-166 23q-123 0 -305 -43l-59 246q190 70 420 70q485 6 485 -332v-250l14 -354h140zM686 266v207q-10 -2 -49 -5t-62 -7q-184 -27 -184 -135q0 -43 27.5 -68t79.5 -25q100 0 188 33z" />
<glyph unicode="&#xe3;" horiz-adv-x="1232" d="M1004 1489q-29 -47 -48.5 -76t-78 -69.5t-121.5 -40.5q-68 0 -194 33.5t-181 33.5q-119 0 -180 -33q-55 84 -74 109q45 47 69.5 70.5t84 60.5t108.5 37q70 0 196 -34t179 -34l174 33zM1192 113q-141 -131 -272 -131q-119 0 -169.5 37.5t-58.5 142.5q-166 -180 -336 -180 q-145 0 -225 64.5t-80 193.5q0 94 37 162.5t105.5 108.5t141.5 62.5t167 34.5q33 4 184 21v129q0 66 -35 89t-166 23q-123 0 -305 -43l-59 246q190 70 420 70q485 6 485 -332v-250l14 -354h140zM686 266v207q-10 -2 -49 -5t-62 -7q-184 -27 -184 -135q0 -43 27.5 -68 t79.5 -25q100 0 188 33z" />
<glyph unicode="&#xe4;" horiz-adv-x="1232" d="M1018 1468q0 -18 -76 -95t-96 -77q-27 0 -99.5 75t-72.5 97q0 27 73.5 99.5t98.5 72.5q23 0 97.5 -74.5t74.5 -97.5zM485 1468q0 -18 -75.5 -95t-96.5 -77q-27 0 -99.5 75t-72.5 97q0 27 74 99.5t98 72.5q23 0 97.5 -74.5t74.5 -97.5zM1192 113q-141 -131 -272 -131 q-119 0 -169.5 37.5t-58.5 142.5q-166 -180 -336 -180q-145 0 -225 64.5t-80 193.5q0 94 37 162.5t105.5 108.5t141.5 62.5t167 34.5q33 4 184 21v129q0 66 -35 89t-166 23q-123 0 -305 -43l-59 246q190 70 420 70q485 6 485 -332v-250l14 -354h140zM686 266v207 q-10 -2 -49 -5t-62 -7q-184 -27 -184 -135q0 -43 27.5 -68t79.5 -25q100 0 188 33z" />
<glyph unicode="&#xe5;" horiz-adv-x="1232" d="M903 1540q0 -125 -101.5 -211t-236.5 -86q-328 0 -327 244q0 123 100 209t233 86q143 0 237.5 -60.5t94.5 -181.5zM1192 113q-141 -131 -272 -131q-119 0 -169.5 37.5t-58.5 142.5q-166 -180 -336 -180q-145 0 -225 64.5t-80 193.5q0 94 37 162.5t105.5 108.5t141.5 62.5 t167 34.5q33 4 184 21v129q0 66 -35 89t-166 23q-123 0 -305 -43l-59 246q190 70 420 70q485 6 485 -332v-250l14 -354h140zM680 1513q0 57 -34 88t-89 31q-47 0 -72.5 -32.5t-25.5 -86.5q0 -123 121 -122q100 -1 100 122zM686 266v207q-10 -2 -49 -5t-62 -7 q-184 -27 -184 -135q0 -43 27.5 -68t79.5 -25q100 0 188 33z" />
<glyph unicode="&#xe6;" horiz-adv-x="1898" d="M1792 524l-733 -32q6 -141 87 -191.5t230 -50.5q199 0 338 31l58 -181q-215 -117 -447 -116q-190 0 -315 36.5t-197 131.5q-195 -168 -399 -168q-332 0 -332 256q0 96 38 164.5t108.5 108.5t146.5 61.5t172 31.5q84 8 170 12v140q0 68 -36 92t-165 24q-135 0 -305 -47 l-59 246q178 70 419 70q299 0 392 -117q127 113 325 113q260 0 382 -150.5t122 -388.5v-76zM1438 676q0 104 -47.5 193t-118.5 89q-117 0 -170 -86t-53 -227zM743 283h2q-27 88 -30 198q-150 -18 -152 -18q-94 -20 -128 -55t-34 -89q0 -35 31 -64.5t70 -29.5q108 1 241 58z " />
<glyph unicode="&#xe7;" horiz-adv-x="1112" d="M1079 948q0 -90 -28.5 -132t-104.5 -75q-70 80 -149.5 146.5t-126.5 66.5q-125 0 -191.5 -87t-66.5 -302q0 -141 87 -229t224 -88q141 0 278 24l56 -176q-117 -63 -213 -88.5t-217 -25.5q-303 0 -434.5 136t-131.5 453q0 223 167 399.5t440 176.5q170 0 290.5 -51.5 t120.5 -147.5zM788 -356q0 -117 -61 -173.5t-211 -103.5l-65 129q47 37 65.5 63.5t18.5 73.5q0 16 -11.5 35t-30 41.5t-28.5 36.5q-23 37 -23 70q0 59 70 145l113 -45q-8 -14 -9 -27q0 -20 27 -46.5t59.5 -50t59 -63.5t26.5 -85z" />
<glyph unicode="&#xe8;" horiz-adv-x="1204" d="M932 1378l-84 -151q-330 119 -596 327l201 228q246 -267 479 -404zM1151 543h-733q8 -147 93 -220t224 -73q197 0 338 31l57 -181q-215 -117 -446 -116q-154 0 -260.5 22.5t-192.5 79.5t-128 166.5t-42 275.5q0 236 164 423.5t422 187.5q504 0 504 -496v-100zM795 692 q2 127 -42 196.5t-122 69.5q-115 0 -169 -73.5t-54 -192.5h387z" />
<glyph unicode="&#xe9;" horiz-adv-x="1204" d="M1038 1538q-272 -209 -600 -321l-84 159q119 72 254 184.5t238 225.5zM1151 543h-733q8 -147 93 -220t224 -73q197 0 338 31l57 -181q-215 -117 -446 -116q-154 0 -260.5 22.5t-192.5 79.5t-128 166.5t-42 275.5q0 236 164 423.5t422 187.5q504 0 504 -496v-100zM795 692 q2 127 -42 196.5t-122 69.5q-115 0 -169 -73.5t-54 -192.5h387z" />
<glyph unicode="&#xea;" horiz-adv-x="1204" d="M1094 1366l-97 -131q-90 29 -200.5 86t-175.5 104q-98 -90 -338 -188l-95 115q109 80 199 158.5t135 127.5l115 129q252 -276 457 -401zM1151 543h-733q8 -147 93 -220t224 -73q197 0 338 31l57 -181q-215 -117 -446 -116q-154 0 -260.5 22.5t-192.5 79.5t-128 166.5 t-42 275.5q0 236 164 423.5t422 187.5q504 0 504 -496v-100zM795 692q2 127 -42 196.5t-122 69.5q-115 0 -169 -73.5t-54 -192.5h387z" />
<glyph unicode="&#xeb;" horiz-adv-x="1204" d="M1108 1468q0 -18 -76 -95t-96 -77q-27 0 -99.5 75t-72.5 97q0 27 73.5 99.5t98.5 72.5q23 0 97.5 -74.5t74.5 -97.5zM575 1468q0 -18 -75.5 -95t-96.5 -77q-27 0 -99.5 75t-72.5 97q0 27 74 99.5t98 72.5q23 0 97.5 -74.5t74.5 -97.5zM1151 543h-733q8 -147 93 -220 t224 -73q197 0 338 31l57 -181q-215 -117 -446 -116q-154 0 -260.5 22.5t-192.5 79.5t-128 166.5t-42 275.5q0 236 164 423.5t422 187.5q504 0 504 -496v-100zM795 692q2 127 -42 196.5t-122 69.5q-115 0 -169 -73.5t-54 -192.5h387z" />
<glyph unicode="&#xec;" horiz-adv-x="772" d="M590 1378l-86 -151q-328 119 -596 327l203 228q246 -267 479 -404zM731 129q0 -80 -12 -129h-670q-8 35 -8 129l121 35q49 12 49 80l6 317v393h-176v154q203 43 412 43q55 0 81.5 -20.5t26.5 -77.5v-492l2 -301q2 -84 33 -92z" />
<glyph unicode="&#xed;" horiz-adv-x="772" d="M813 1538q-272 -209 -600 -321l-84 159q119 72 254 184.5t238 225.5zM731 129q0 -80 -12 -129h-670q-8 35 -8 129l121 35q49 12 49 80l6 317v393h-176v154q203 43 412 43q55 0 81.5 -20.5t26.5 -77.5v-492l2 -301q2 -84 33 -92z" />
<glyph unicode="&#xee;" horiz-adv-x="772" d="M817 1366l-96 -131q-90 29 -200.5 86t-174.5 104q-104 -94 -340 -188l-94 115q109 80 199 158.5t135 127.5l114 129q252 -276 457 -401zM731 129q0 -80 -12 -129h-670q-8 35 -8 129l121 35q49 12 49 80l6 317v393h-176v154q203 43 412 43q55 0 81.5 -20.5t26.5 -77.5 v-492l2 -301q2 -84 33 -92z" />
<glyph unicode="&#xef;" horiz-adv-x="772" d="M817 1468q0 -18 -75.5 -95t-96.5 -77q-27 0 -99.5 75t-72.5 97q0 27 74 99.5t98 72.5q23 0 97.5 -74.5t74.5 -97.5zM285 1468q0 -18 -76 -95t-96 -77q-27 0 -99.5 75t-72.5 97q0 27 73.5 99.5t98.5 72.5q23 0 97.5 -74.5t74.5 -97.5zM731 129q0 -80 -12 -129h-670 q-8 35 -8 129l121 35q49 12 49 80l6 317v393h-176v154q203 43 412 43q55 0 81.5 -20.5t26.5 -77.5v-492l2 -301q2 -84 33 -92z" />
<glyph unicode="&#xf0;" horiz-adv-x="1296" d="M1235 573q0 -229 -174 -409t-426 -180q-274 0 -424 139t-150 420q0 229 174.5 415.5t417.5 186.5q98 0 197 -39q-41 106 -109 192l-229 -88l-39 129l176 68q-47 47 -108 98l157 162q125 -74 211 -160l250 97l43 -127l-196 -76q229 -302 229 -828zM870 553q0 393 -239 393 q-70 0 -115 -34.5t-63.5 -99t-24.5 -117t-6 -124.5q0 -389 246 -389q202 0 202 371z" />
<glyph unicode="&#xf1;" horiz-adv-x="1478" d="M1200 1489l-48 -76t-77.5 -69.5t-122.5 -40.5q-68 0 -193.5 33.5t-180.5 33.5q-119 0 -183 -33q-53 84 -71 109q45 47 69.5 70.5t84 60.5t108.5 37q70 0 195.5 -34t179.5 -34l174 33zM1438 125q0 -82 -17 -125h-583q-12 68 -9 125l72 33q39 18 39 73l4 330v109 q0 47 -1 72.5t-9 62.5t-22.5 56.5t-44 33.5t-72.5 14q-158 0 -252 -35v-313l4 -301q0 -78 33 -92l94 -39q0 -80 -12 -129h-609q-6 45 -6 121l98 33q29 10 39.5 25.5t10.5 53.5l6 328v393h-160v152q203 43 414 43q80 0 80 -72v-67q180 137 368 137q80 0 140.5 -10.5 t101.5 -24.5t68.5 -44t42 -54.5t21.5 -69.5t8 -75.5t1 -88.5v-219l6 -338q4 -59 29 -65z" />
<glyph unicode="&#xf2;" horiz-adv-x="1296" d="M932 1378l-84 -151q-330 119 -596 327l201 228q246 -267 479 -404zM1235 573q0 -229 -174 -409t-426 -180q-274 0 -424 139t-150 420q0 229 174.5 415.5t417.5 186.5q582 -1 582 -572zM870 553q0 393 -239 393q-70 0 -115 -34.5t-63.5 -99t-24.5 -117t-6 -124.5 q0 -389 246 -389q202 0 202 371z" />
<glyph unicode="&#xf3;" horiz-adv-x="1296" d="M997 1538q-272 -209 -600 -321l-84 159q119 72 254 184.5t238 225.5zM1235 573q0 -229 -174 -409t-426 -180q-274 0 -424 139t-150 420q0 229 174.5 415.5t417.5 186.5q582 -1 582 -572zM870 553q0 393 -239 393q-70 0 -115 -34.5t-63.5 -99t-24.5 -117t-6 -124.5 q0 -389 246 -389q202 0 202 371z" />
<glyph unicode="&#xf4;" horiz-adv-x="1296" d="M1073 1366l-96 -131q-90 29 -200.5 86t-174.5 104q-104 -94 -338 -188l-94 115q109 80 199 159.5t133 125.5t114 130q248 -274 457 -401zM1235 573q0 -229 -174 -409t-426 -180q-274 0 -424 139t-150 420q0 229 174.5 415.5t417.5 186.5q582 -1 582 -572zM870 553 q0 393 -239 393q-70 0 -115 -34.5t-63.5 -99t-24.5 -117t-6 -124.5q0 -389 246 -389q202 0 202 371z" />
<glyph unicode="&#xf5;" horiz-adv-x="1296" d="M1083 1489l-48 -76t-77.5 -69.5t-121.5 -40.5q-68 0 -194 33.5t-181 33.5q-119 0 -182 -33q-53 84 -72 109q45 47 69.5 70.5t84 60.5t108.5 37q70 0 196 -34t179 -34l174 33zM1235 573q0 -229 -174 -409t-426 -180q-274 0 -424 139t-150 420q0 229 174.5 415.5 t417.5 186.5q582 -1 582 -572zM870 553q0 393 -239 393q-70 0 -115 -34.5t-63.5 -99t-24.5 -117t-6 -124.5q0 -389 246 -389q202 0 202 371z" />
<glyph unicode="&#xf6;" horiz-adv-x="1296" d="M1106 1468q0 -18 -76 -95t-98 -77q-25 0 -97.5 75t-72.5 97q0 27 72.5 99.5t97 72.5t99.5 -74.5t75 -97.5zM573 1468q0 -18 -75.5 -95t-98.5 -77q-25 0 -97.5 75t-72.5 97q0 27 73 99.5t97.5 72.5t99 -74.5t74.5 -97.5zM1235 573q0 -229 -174 -409t-426 -180 q-274 0 -424 139t-150 420q0 229 174.5 415.5t417.5 186.5q582 -1 582 -572zM870 553q0 393 -239 393q-70 0 -115 -34.5t-63.5 -99t-24.5 -117t-6 -124.5q0 -389 246 -389q202 0 202 371z" />
<glyph unicode="&#xf7;" horiz-adv-x="1165" d="M770 1106q0 -33 -82 -115t-113 -82q-33 0 -113.5 82t-80.5 115q0 35 82 113.5t112.5 78.5t112.5 -79.5t82 -112.5zM981 625h-817v196h817v-196zM770 340q0 -33 -82 -115t-113 -82q-33 0 -113.5 82t-80.5 115q0 35 82 113.5t112.5 78.5t112.5 -79.5t82 -112.5z" />
<glyph unicode="&#xf8;" horiz-adv-x="1296" d="M1235 573q0 -229 -174 -409t-426 -180q-211 0 -342 77l-141 -147l-103 90l135 146q-123 141 -123 393q0 229 174.5 415.5t417.5 186.5q205 0 340 -74l109 135l96 -86l-102 -127q139 -146 139 -420zM807 850q-61 96 -176 96q-70 0 -115 -34.5t-63.5 -99t-24.5 -117 t-6 -124.5q0 -76 12 -145zM870 553q0 78 -12 154l-371 -428q59 -96 181 -97q202 0 202 371z" />
<glyph unicode="&#xf9;" horiz-adv-x="1478" d="M932 1378l-84 -151q-330 119 -596 327l201 228q246 -267 479 -404zM1438 66q-160 -80 -318 -80q-92 0 -138 40t-48 128q-186 -174 -352 -174q-102 0 -174 20t-111 50t-59.5 83t-24.5 96t-4 113v612h-168v138q266 57 350 57q160 0 160 -137v-453v-168q0 -86 23.5 -125 t80.5 -39q119 0 263 49l8 283v395h-146v138l91 20q56 12 86 19.5t71 12.5t78 5q74 0 118 -35t44 -102v-455l12 -350h135z" />
<glyph unicode="&#xfa;" horiz-adv-x="1478" d="M1161 1538q-272 -209 -600 -321l-86 159q119 72 255 184.5t239 225.5zM1438 66q-160 -80 -318 -80q-92 0 -138 40t-48 128q-186 -174 -352 -174q-102 0 -174 20t-111 50t-59.5 83t-24.5 96t-4 113v612h-168v138q266 57 350 57q160 0 160 -137v-453v-168q0 -86 23.5 -125 t80.5 -39q119 0 263 49l8 283v395h-146v138l91 20q56 12 86 19.5t71 12.5t78 5q74 0 118 -35t44 -102v-455l12 -350h135z" />
<glyph unicode="&#xfb;" horiz-adv-x="1478" d="M1143 1366l-96 -131q-90 29 -201 86t-174 104q-104 -94 -338 -188l-94 115q109 80 198.5 159.5t132.5 125.5t115 130q248 -274 457 -401zM1438 66q-160 -80 -318 -80q-92 0 -138 40t-48 128q-186 -174 -352 -174q-102 0 -174 20t-111 50t-59.5 83t-24.5 96t-4 113v612 h-168v138q266 57 350 57q160 0 160 -137v-453v-168q0 -86 23.5 -125t80.5 -39q119 0 263 49l8 283v395h-146v138l91 20q56 12 86 19.5t71 12.5t78 5q74 0 118 -35t44 -102v-455l12 -350h135z" />
<glyph unicode="&#xfc;" horiz-adv-x="1478" d="M1153 1468q0 -18 -74.5 -95t-97.5 -77q-25 0 -97.5 75t-72.5 97q0 27 72.5 99.5t97.5 72.5t98.5 -74.5t73.5 -97.5zM621 1468q0 -18 -75 -95t-97 -77q-25 0 -97.5 75t-72.5 97q0 27 72.5 99.5t97 72.5t98.5 -74.5t74 -97.5zM1438 66q-160 -80 -318 -80q-92 0 -138 40 t-48 128q-186 -174 -352 -174q-102 0 -174 20t-111 50t-59.5 83t-24.5 96t-4 113v612h-168v138q266 57 350 57q160 0 160 -137v-453v-168q0 -86 23.5 -125t80.5 -39q119 0 263 49l8 283v395h-146v138l91 20q56 12 86 19.5t71 12.5t78 5q74 0 118 -35t44 -102v-455l12 -350 h135z" />
<glyph unicode="&#xfd;" horiz-adv-x="1206" d="M1139 1538q-272 -209 -600 -321l-84 159q119 72 254 184.5t237 225.5zM1196 1118l-10 -133q-53 -37 -115 -182l-459 -1057q-68 -156 -284 -233l-191 284q137 47 193 72q92 41 125 86l-305 903q-4 12 -9.5 21.5t-10.5 16.5t-15 15l-16 13q-5 4 -19 12t-20.5 11l-25 11.5 t-24.5 12.5q0 86 13 147h583v-164h-125l191 -661l200 557q8 25 0 51.5t-22 36.5q-14 12 -82 29q-8 104 6 151h422z" />
<glyph unicode="&#xfe;" horiz-adv-x="1380" d="M1319 573q0 -135 -36 -240.5t-95.5 -170t-143 -106.5t-171 -57t-187.5 -15q-80 0 -108 2l4 -185q0 -25 4 -39t21.5 -23t21.5 -10l37 -10l143 -32q0 -92 -12 -138h-746q-10 37 -10 129l78 25q92 27 92 123l8 723v821h-172v148q201 49 414 49q90 0 90 -90v-451 q117 121 272 121q115 0 200 -24.5t154.5 -85t105.5 -177.5t36 -287zM956 537q0 184 -57 290.5t-164 106.5q-102 0 -172 -16v-373l8 -393q53 -4 125 -5q127 0 193.5 111t66.5 279z" />
<glyph unicode="&#xff;" horiz-adv-x="1206" d="M1118 1468q0 -18 -75.5 -95t-98.5 -77q-25 0 -97.5 75t-72.5 97q0 27 73 99.5t97.5 72.5t99 -74.5t74.5 -97.5zM586 1468q0 -18 -76 -95t-98 -77q-25 0 -97.5 75t-72.5 97q0 27 72.5 99.5t97 72.5t99.5 -74.5t75 -97.5zM1196 1118l-10 -133q-53 -37 -115 -182l-459 -1057 q-68 -156 -284 -233l-191 284q137 47 193 72q92 41 125 86l-305 903q-4 12 -9.5 21.5t-10.5 16.5t-15 15l-16 13q-5 4 -19 12t-20.5 11l-25 11.5t-24.5 12.5q0 86 13 147h583v-164h-125l191 -661l200 557q8 25 0 51.5t-22 36.5q-14 12 -82 29q-8 104 6 151h422z" />
<glyph unicode="&#x131;" horiz-adv-x="772" d="M731 129q0 -80 -12 -129h-670q-8 35 -8 129l121 35q49 12 49 80l6 317v393h-176v154q203 43 412 43q55 0 81.5 -20.5t26.5 -77.5v-492l2 -301q2 -84 33 -92z" />
<glyph unicode="&#x133;" horiz-adv-x="1556" d="M1393 1466q0 -51 -80 -134t-137 -83q-55 0 -135 82t-80 135q0 55 80.5 135t134 80t135.5 -80t82 -135zM596 1466q0 -51 -80 -134t-137 -83q-55 0 -135 82t-80 135q0 55 81 135t134 80t135 -80t82 -135zM1370 2q0 -74 -4 -126t-25.5 -117.5t-61.5 -106.5t-114.5 -69.5 t-179.5 -28.5q-172 0 -287 36l35 201q66 -10 146 -10q76 0 107.5 31.5t31.5 138.5v1003h-170v154q203 43 405 43q55 0 81 -20.5t26 -77.5v-492zM731 129q0 -80 -12 -129h-670q-8 35 -8 129l121 35q49 12 49 80l6 317v393h-176v154q203 43 412 43q55 0 81.5 -20.5t26.5 -77.5 v-492l2 -301q2 -84 33 -92z" />
<glyph unicode="&#x141;" horiz-adv-x="1316" d="M1296 451l-82 -451h-1157q-6 37 -6 125l74 20q96 33 98 115l6 315v29l-176 -94v152l176 94v415q0 76 -104 119l-74 33q0 84 8 125h691q0 -100 -9 -139l-88 -23q-74 -20 -73 -110v-234l297 158v-152l-297 -157v-216l6 -391l299 25q78 6 148.5 93t107.5 179z" />
<glyph unicode="&#x142;" horiz-adv-x="782" d="M782 899l-202 -108v-230l2 -301q4 -84 32 -92l136 -39q0 -80 -13 -129h-669q-8 33 -9 121l121 33q29 8 39 24.5t10 54.5l7 328v47l-183 -98v152l183 98v608h-170v154q172 43 405 43q55 0 82 -20.5t27 -78.5v-524l202 109v-152z" />
<glyph unicode="&#x152;" horiz-adv-x="2254" d="M2193 358l-55 -358h-1065q-106 -25 -231 -25q-367 0 -568.5 203t-201.5 537q0 342 221 548.5t588 206.5q117 0 223 -22h995v-342q-68 -18 -143 -12q-20 94 -61.5 126.5t-110.5 32.5l-346 9v-441l596 10v-208l-596 10v-58l8 -391l285 11q123 6 199.5 45t117.5 151z M1087 580v569q0 8 -1 21.5t-1 17.5q-90 68 -223 67q-213 0 -307 -144t-94 -382q0 -236 91 -385t296 -149q145 0 233 63z" />
<glyph unicode="&#x153;" horiz-adv-x="2015" d="M1962 500h-733q6 -143 87 -196.5t230 -53.5q197 0 338 31l58 -181q-215 -117 -447 -116q-352 0 -483 137q-160 -137 -377 -137q-274 0 -424 143t-150 426q0 227 174.5 409.5t417.5 182.5q289 0 430 -154q152 147 375 148q260 0 382 -150.5t122 -388.5v-100zM1606 649 q2 131 -43 220t-121 89q-117 0 -170 -85t-53 -224h387zM870 573q0 373 -239 373q-209 0 -209 -395q0 -369 246 -369q202 0 202 391z" />
<glyph unicode="&#x160;" horiz-adv-x="1306" d="M1124 1769q-270 -123 -454 -278q-229 199 -451 252l53 164q240 -31 406 -111q154 82 383 115zM1235 444q0 -158 -101.5 -267t-239.5 -154.5t-292 -45.5q-330 0 -530 123l39 371h147q12 -145 118.5 -226t256.5 -81q47 0 98 11t96 44t45 82q0 39 -42 77t-85 59.5t-139 64.5 l-133 61q-47 23 -122 70t-113.5 91t-70.5 111.5t-32 145.5q0 193 171 337t368 144q279 0 493 -104v-318h-133q-29 115 -127 171.5t-227 56.5q-219 0 -219 -164q0 -53 69.5 -97t208.5 -104l45 -18l130 -60q52 -25 119 -67.5t107 -84.5t67.5 -101.5t27.5 -127.5z" />
<glyph unicode="&#x161;" horiz-adv-x="1081" d="M1036 1696q-109 -80 -198.5 -161t-130.5 -125l-117 -130q-248 274 -457 401l96 131q92 -31 203 -88t172 -102q104 94 338 188zM1010 358q0 -104 -48.5 -182t-126 -120t-161.5 -62.5t-170 -20.5q-221 0 -443 99l21 293h121q39 -205 297 -205q90 0 124.5 18.5t34.5 73.5 q0 43 -56 78t-135 66.5t-159 72.5t-136 120t-56 187q0 176 133 271.5t323 95.5q205 0 418 -92l-39 -293l-118 12q-12 43 -25.5 69.5t-43.5 57.5t-82 45t-128 14q-74 0 -101.5 -23.5t-27.5 -70.5q0 -37 60.5 -70.5t145.5 -67.5t171 -77t146.5 -118t60.5 -171z" />
<glyph unicode="&#x178;" horiz-adv-x="1480" d="M1255 1714q0 -18 -75.5 -95t-98.5 -77q-25 0 -97.5 75t-72.5 97q0 27 73 99.5t97.5 72.5t99 -74.5t74.5 -97.5zM682 1714q0 -18 -76 -95t-98 -77q-25 0 -97.5 75t-72.5 97q0 27 72.5 99.5t97 72.5t99.5 -74.5t75 -97.5zM1470 1325q-72 -47 -129 -125l-430 -627l7 -344 q0 -31 9 -43t38 -18l122 -29q0 -92 -14 -139h-682q-8 33 -8 125l74 20q98 33 98 115l6 289l-440 655q-53 76 -111 123q-8 72 4 121h656q8 -33 8 -133l-78 -31q-57 -23 -72.5 -72t19.5 -100l268 -397l250 379q76 111 -59 178l-86 43q-6 66 6 133h534q10 -35 10 -123z" />
<glyph unicode="&#x17d;" horiz-adv-x="1331" d="M1112 1769q-270 -123 -455 -278q-229 199 -450 252l53 164q240 -31 406 -111q154 82 383 115zM1311 449l-56 -449h-1142l-58 168l740 1079l-430 -10q-61 -8 -105 -223q-88 -12 -166 2v432h1143l41 -123l-768 -1124l438 26q121 14 207 254z" />
<glyph unicode="&#x17e;" horiz-adv-x="1134" d="M1024 1696q-109 -80 -199 -161t-131 -125l-116 -130q-248 274 -457 401l96 131q92 -31 202.5 -88t172.5 -102q104 94 338 188zM1106 371l-76 -371h-942l-59 147l676 721h-422q-16 0 -33 -7t-32 -25.5l-24.5 -30.5t-28 -40t-24.5 -36q-70 25 -92 43l92 346h873v-207 l-617 -657h391q57 0 122 50t89 99q31 -6 57.5 -14t37.5 -12z" />
<glyph unicode="&#x192;" horiz-adv-x="1091" d="M1133 1393q0 -86 -117 -154l-168 150q-193 -16 -205 -279l-16 -350h239v-164h-248l-20 -553q-8 -176 -165 -341t-341 -165q-236 0 -235 164q0 45 34 102h308q2 2 9 14.5t8 16.5t6 15.5t7 20.5t6.5 24.5t5.5 34t3 40.5l28 627h-198v164h205l12 248q8 209 190.5 385 t374.5 176q152 0 214.5 -45t62.5 -131z" />
<glyph unicode="&#x2b0;" horiz-adv-x="888" d="M864 854q0 -51 -10 -76h-354q-8 49 -4 76l41 20q23 8 22 41l2 201v60q0 35 -2 53t-8 42.5t-24.5 36t-49.5 11.5q-96 0 -145 -16v-189l2 -176q0 -45 18 -57l39 -23q0 -45 -8 -80h-354q-6 23 -6 74l61 20q18 4 23.5 12.5t5.5 30.5l4 201v483h-94v95q125 27 256 26 q47 0 47 -43v-293q104 82 219 82q84 0 133 -14t69.5 -50t24.5 -64.5t4 -90.5v-133l4 -199q0 -35 17 -41z" />
<glyph unicode="&#x2b2;" horiz-adv-x="458" d="M360 1659q0 -33 -48 -84t-85 -51q-35 0 -84 50t-49 85t49.5 83t84 48t83.5 -48t49 -83zM348 778q0 -57 -4 -93t-24.5 -82t-71.5 -69.5t-131 -23.5q-111 0 -183 22l23 125q39 -6 88 -6q23 0 35 2t24.5 11.5t17.5 30t5 53.5v602h-100v94q125 27 249 26q33 0 49.5 -12 t16.5 -49v-295z" />
<glyph unicode="&#x2b7;" horiz-adv-x="1062" d="M1040 1362q-41 -45 -65 -117l-137 -467l-187 -33l-157 437l-95 -396l-196 -41l-144 549q-10 37 -49 72l17 84h325v-111h-92l88 -366l137 459l150 30l158 -510l67 310q12 47 -20 67l-45 25l8 96h237v-88z" />
<glyph unicode="&#x2b8;" horiz-adv-x="724" d="M717 1450l-2 -82q-31 -25 -70 -113l-276 -634q-39 -90 -174 -136l-119 181q14 4 39.5 9t43 10t31.5 13q57 16 78 50l-178 542q-4 12 -9 19.5t-14.5 14.5t-15.5 11t-21 12l-24 11q0 59 6 92h359v-102h-72l107 -390l112 314q10 25 -8 49q-14 27 -49 33q-6 63 4 96h252z" />
<glyph unicode="&#x2c6;" horiz-adv-x="1105" d="M1001 1366l-98 -131q-90 29 -199.5 86t-175.5 104q-98 -90 -338 -188l-94 115q109 80 200 160.5t131 123.5l118 131q241 -270 456 -401z" />
<glyph unicode="&#x2c7;" horiz-adv-x="1105" d="M981 1696q-109 -80 -199 -161t-131 -125l-116 -130q-248 274 -457 401l96 131q92 -31 202.5 -88t172.5 -102q104 94 338 188z" />
<glyph unicode="&#x2d8;" horiz-adv-x="1024" d="M893 1491q-12 -23 -30.5 -45.5t-61.5 -66.5t-109.5 -70.5t-142.5 -26.5q-78 0 -147.5 25.5t-112.5 63.5t-64.5 62.5t-31.5 41.5l110 104q29 -31 101.5 -52.5t152.5 -21.5q170 0 256 68z" />
<glyph unicode="&#x2d9;" horiz-adv-x="772" d="M594 1466q0 -51 -80 -134t-137 -83q-55 0 -135 82t-80 135q0 55 81 135t134 80t135 -80t82 -135z" />
<glyph unicode="&#x2da;" horiz-adv-x="909" d="M788 1540q0 -125 -101 -211t-236 -86q-330 0 -330 244q0 123 100.5 209t233.5 86q143 0 238 -60.5t95 -181.5zM565 1513q0 57 -33.5 88t-91.5 31q-47 0 -72.5 -32.5t-25.5 -86.5q0 -123 121 -122q102 -1 102 122z" />
<glyph unicode="&#x2db;" horiz-adv-x="1157" d="M920 -412q-115 -59 -230 -59q-117 0 -175 44t-58 142q0 119 102.5 218.5t288.5 211.5l65 -82q-70 -49 -127 -135t-57 -161q0 -39 22.5 -60.5t57.5 -21.5q37 0 76 16z" />
<glyph unicode="&#x2dc;" horiz-adv-x="1105" d="M1006 1489q-29 -47 -48.5 -76t-78 -69.5t-121.5 -40.5q-68 0 -194 33.5t-181 33.5q-119 0 -180 -33q-55 84 -74 109q45 47 69.5 70.5t84 60.5t108.5 37q70 0 196 -34t179 -34l174 33z" />
<glyph unicode="&#x2dd;" horiz-adv-x="1163" d="M1257 1499q-281 -193 -616 -289l-76 164q121 66 262.5 171.5t249.5 211.5zM727 1708q-188 -287 -463 -500l-131 123q193 227 332 547z" />
<glyph unicode="&#x2e3;" horiz-adv-x="716" d="M705 868q0 -61 -11 -90h-309q-10 31 -10 80l12 4q10 4 15.5 20.5t-9.5 37.5l-80 96l-82 -123q-8 -12 7 -14l63 -21q0 -49 -12 -80h-266q-10 29 -11 80q37 23 56 43l180 191l-146 174q-55 68 -90 90q-4 61 2 94h332v-102h-55l119 -142l75 92q27 31 -4 54l-18 14q0 68 4 84 h235q0 -47 -4 -76l-53 -47l-182 -188l203 -226q29 -31 39 -45z" />
<glyph unicode="&#x394;" horiz-adv-x="1591" d="M1497 156l-82 -156h-1302l-52 141l578 1272l319 68zM1071 223l-283 801l-55 186h-12l-64 -180l-331 -829z" />
<glyph unicode="&#x2206;" horiz-adv-x="1591" d="M1497 156l-82 -156h-1302l-52 141l578 1272l319 68zM1071 223l-283 801l-55 186h-12l-64 -180l-331 -829z" />
<glyph unicode="&#x3a9;" horiz-adv-x="1685" d="M1624 0h-637v221q96 70 168 218.5t72 285.5q0 236 -95.5 383t-297.5 147q-213 0 -307.5 -144t-94.5 -382q0 -287 238 -477v-252h-609v285l347 -109l6 19q-174 72 -254 190.5t-80 308.5q0 145 56.5 283.5t155.5 248t250.5 177t329.5 67.5q377 0 560.5 -180t183.5 -506 q0 -391 -463 -608l6 -14l465 123v-285z" />
<glyph unicode="&#x2126;" horiz-adv-x="1685" d="M1624 0h-637v221q96 70 168 218.5t72 285.5q0 236 -95.5 383t-297.5 147q-213 0 -307.5 -144t-94.5 -382q0 -287 238 -477v-252h-609v285l347 -109l6 19q-174 72 -254 190.5t-80 308.5q0 145 56.5 283.5t155.5 248t250.5 177t329.5 67.5q377 0 560.5 -180t183.5 -506 q0 -391 -463 -608l6 -14l465 123v-285z" />
<glyph unicode="&#x3b1;" horiz-adv-x="1355" d="M1311 217l12 -94q-141 -131 -272 -131q-117 0 -166 35.5t-60 134.5l-86.5 -82t-89 -55.5t-123.5 -30.5q-98 0 -174 24.5t-142.5 82t-102 170t-35.5 274.5q0 258 168 433t432 175q485 6 485 -332v-250l14 -354h140zM651 244q74 0 166 35v489q0 74 -44 115t-132 39 q-135 0 -178 -119q-33 -100 -33 -264q0 -295 221 -295z" />
<glyph unicode="&#x3b2;" horiz-adv-x="1665" d="M1567 338q0 -104 -38 -179t-104.5 -114t-140.5 -55.5t-162 -16.5q-84 0 -152.5 14.5t-101 28l-131.5 56.5l21 293l108 -3q20 -113 82 -165t170 -52q57 0 88 30t31 77q0 43 -45 86t-109.5 83t-130 88t-110.5 123t-45 165q0 74 53 146l106 140q53 68 54 125 q0 90 -63.5 136.5t-166.5 46.5q-82 0 -143.5 -50.5t-61.5 -128.5v-630l15 -580l-508 -2q-10 49 -10 125l98 27q57 16 57 122l4 308v372h-163v127l163 37v47q0 166 171 287t366 121q547 0 547 -340q0 -70 -23.5 -123t-56.5 -82t-65.5 -52.5t-56 -51t-23.5 -62.5 q0 -45 74.5 -95t163.5 -95t164 -133t75 -201z" />
<glyph unicode="&#x3c0;" horiz-adv-x="1443" d="M1386 68q-25 -23 -157.5 -59t-188.5 -36q-49 0 -80.5 16.5t-45 48.5t-17.5 57.5t-4 64.5l8 708h-315v-307l6 -561h-359l11 561v307h-224l76 301q57 -12 258 -24t334 -15l674 -12v-250h-121v-688h145v-112z" />
<glyph unicode="&#x434;" horiz-adv-x="1951" d="M1898 543h-733q8 -147 93 -220t225 -73q197 0 338 31l57 -181q-215 -117 -446 -116q-360 0 -494 143q-172 -141 -422 -141q-94 0 -168 21.5t-142.5 75.5t-106.5 163.5t-38 271.5q0 274 173.5 441t435.5 167q106 0 145 -2v244h-178v156q225 41 397 41q72 0 97.5 -23.5 t25.5 -97.5v-367q111 61 238 62q504 0 503 -496v-100zM1542 692q2 127 -42 196.5t-122 69.5q-119 0 -171 -66.5t-52 -199.5h387zM848 285q-33 98 -33 245v414q-78 12 -151 12q-133 0 -188.5 -109.5t-55.5 -314.5q0 -125 65.5 -204.5t155.5 -79.5q115 0 207 37z" />
<glyph unicode="&#x5d4;" horiz-adv-x="2074" d="M2021 543h-733q8 -147 93 -220t225 -73q197 0 338 31l57 -181q-215 -117 -447 -116q-154 0 -258 22.5t-188 80.5t-124 166.5t-40 274.5v142q0 47 -1 72.5t-9 62.5t-22.5 56.5t-44 33.5t-72.5 14q-158 0 -252 -35v-313l4 -301q0 -74 33 -92l73 -39q0 -80 -12 -129h-588 q-8 33 -8 121l100 33q29 10 39.5 25.5t10.5 53.5l6 328v813h-160v152q203 43 414 43q80 0 80 -72v-487q180 137 368 137q242 0 322 -90q131 82 293 82q504 0 503 -496v-100zM1665 692q2 127 -42 196.5t-122 69.5q-119 0 -171 -66.5t-52 -199.5h387z" />
<glyph unicode="&#x2000;" horiz-adv-x="1040" />
<glyph unicode="&#x2001;" horiz-adv-x="2082" />
<glyph unicode="&#x2002;" horiz-adv-x="1040" />
<glyph unicode="&#x2003;" horiz-adv-x="2082" />
<glyph unicode="&#x2004;" horiz-adv-x="694" />
<glyph unicode="&#x2005;" horiz-adv-x="520" />
<glyph unicode="&#x2006;" horiz-adv-x="346" />
<glyph unicode="&#x2007;" horiz-adv-x="346" />
<glyph unicode="&#x2008;" horiz-adv-x="260" />
<glyph unicode="&#x2009;" horiz-adv-x="415" />
<glyph unicode="&#x200a;" horiz-adv-x="114" />
<glyph unicode="&#x2010;" horiz-adv-x="780" d="M678 520h-576v260l576 33v-293z" />
<glyph unicode="&#x2011;" horiz-adv-x="780" d="M678 520h-576v260l576 33v-293z" />
<glyph unicode="&#x2012;" horiz-adv-x="780" d="M678 520h-576v260l576 33v-293z" />
<glyph unicode="&#x2013;" horiz-adv-x="1024" d="M1024 475h-1024v176h1024v-176z" />
<glyph unicode="&#x2014;" horiz-adv-x="2048" d="M2048 475h-2048v176h2048v-176z" />
<glyph unicode="&#x2018;" horiz-adv-x="669" d="M555 1552q-127 -133 -152 -227q45 -37 91.5 -96.5t46.5 -79.5q0 -47 -83 -129t-126 -82q-55 0 -135 86t-80 145q0 125 103.5 254t244.5 213z" />
<glyph unicode="&#x2019;" horiz-adv-x="669" d="M557 1366q0 -125 -103.5 -254t-244.5 -213l-90 84q127 133 151 227q-45 37 -91 96.5t-46 79.5q0 47 83 129t126 82q55 0 135 -86t80 -145z" />
<glyph unicode="&#x201a;" horiz-adv-x="669" d="M557 49q0 -125 -103.5 -255t-244.5 -212l-90 82q129 139 151 227q-45 37 -91 96.5t-46 82.5q0 45 83 127t126 82q55 0 135 -85.5t80 -144.5z" />
<glyph unicode="&#x201c;" horiz-adv-x="1216" d="M1114 1550q-127 -133 -151 -227q45 -37 91 -96.5t46 -79.5q0 -47 -83 -129t-126 -82q-55 0 -135 86t-80 145q0 125 103.5 254t244.5 213zM582 1550q-127 -133 -152 -227q45 -37 91 -96.5t46 -79.5q0 -47 -83 -129t-126 -82q-55 0 -135 86t-80 145q0 125 103.5 254 t245.5 213z" />
<glyph unicode="&#x201d;" horiz-adv-x="1216" d="M1114 1366q0 -125 -103.5 -254t-244.5 -213l-90 84q127 133 151 227q-45 37 -91 96.5t-46 79.5q0 47 83 129t126 82q55 0 135 -86t80 -145zM582 1366q0 -125 -103.5 -254t-245.5 -213l-90 84q127 133 152 227q-45 37 -91 96.5t-46 79.5q0 47 83 129t126 82q55 0 135 -86 t80 -145z" />
<glyph unicode="&#x201e;" horiz-adv-x="1216" d="M1114 49q0 -125 -103.5 -254t-244.5 -213l-90 84q127 133 151 225q-45 39 -91 98.5t-46 80.5q0 47 83 128t126 81q55 0 135 -85.5t80 -144.5zM582 49q0 -125 -103.5 -254t-245.5 -213l-90 84q127 133 152 225q-45 39 -91 98.5t-46 80.5q0 47 83 128t126 81 q55 0 135 -85.5t80 -144.5z" />
<glyph unicode="&#x2020;" horiz-adv-x="1171" d="M1110 1063l-61 -131l-361 72l72 -1004l-174 -61l-174 61l71 1004l-360 -72l-62 131l62 139l360 -72l-71 373l174 62l174 -62l-72 -373l361 72z" />
<glyph unicode="&#x2021;" horiz-adv-x="1171" d="M1110 440l-61 -139l-361 72l72 -373l-174 -61l-174 61l71 373l-360 -72l-62 139l62 131l360 -71v504l-360 -72l-62 131l62 139l360 -72l-71 373l174 62l174 -62l-72 -373l361 72l61 -139l-61 -131l-359 74l-2 -506l361 71z" />
<glyph unicode="&#x2022;" horiz-adv-x="1003" d="M799 721q0 -123 -87 -209t-210 -86t-210 86t-87 209t87 210t210 87t210 -87t87 -210z" />
<glyph unicode="&#x2026;" horiz-adv-x="2048" d="M1886 72q0 -35 -91 -126t-126 -91t-125 90t-90 127t90 126t125 89t126 -89t91 -126zM1204 72q0 -35 -91 -126t-126 -91t-125 90t-90 127t90 126t125 89t126 -89t91 -126zM514 72q0 -35 -91 -126t-126 -91t-125 90t-90 127t90 126t125 89t126 -89t91 -126z" />
<glyph unicode="&#x202f;" horiz-adv-x="415" />
<glyph unicode="&#x2030;" horiz-adv-x="2342" d="M2271 315q0 -168 -111.5 -263t-261.5 -95q-317 0 -317 338q0 160 111.5 265.5t253.5 105.5q325 -1 325 -351zM758 1135q0 -168 -111.5 -263.5t-261.5 -95.5q-317 0 -317 338q0 160 111.5 265.5t252.5 105.5q326 0 326 -350zM1411 1202l-1114 -1116l-119 127l1114 1112z M1534 315q0 -168 -111.5 -263t-261.5 -95q-317 0 -317 338q0 160 111.5 265.5t252.5 105.5q326 -1 326 -351zM2060 315q0 98 -31.5 147.5t-107.5 49.5q-127 0 -127 -213q0 -96 33 -142t106 -46q70 0 98.5 51t28.5 153zM547 1135q0 98 -32 147t-107 49q-127 0 -127 -213 q0 -96 32.5 -142t106.5 -46q70 0 98.5 51.5t28.5 153.5zM1323 315q0 98 -31.5 147.5t-107.5 49.5q-127 0 -127 -213q0 -96 32.5 -142t106.5 -46q70 0 98.5 51t28.5 153z" />
<glyph unicode="&#x2039;" horiz-adv-x="651" d="M547 995q-94 -293 -195 -440q121 -229 178 -442q-98 -18 -165 -35q-68 195 -254 479q195 268 278 473q84 -17 158 -35z" />
<glyph unicode="&#x203a;" horiz-adv-x="651" d="M547 557q-190 -291 -256 -479l-164 35q55 205 176 442q-100 150 -192 440l157 35q84 -205 279 -473z" />
<glyph unicode="&#x2044;" horiz-adv-x="290" d="M760 1202l-1114 -1116l-117 127l1112 1112z" />
<glyph unicode="&#x205f;" horiz-adv-x="520" />
<glyph unicode="&#x2070;" horiz-adv-x="704" d="M664 1165q0 -154 -75 -252t-243 -98q-305 0 -305 332q0 66 14.5 123t48 110.5t100 84t158.5 30.5q302 0 302 -330zM442 1159q0 106 -22 135q-23 27 -64 27q-16 0 -30.5 -3t-23.5 -11l-16 -15q-7 -6 -11.5 -20.5t-7.5 -21.5t-4 -25.5t-1 -24.5v-26v-25q0 -41 1 -58.5 t8.5 -47t27.5 -42t53 -12.5q16 0 29.5 3t23 11.5t16.5 15.5t10 21.5t6 21.5t4 25.5t1 24.5v25v22z" />
<glyph unicode="&#x2074;" horiz-adv-x="616" d="M594 967h-90v-144h-197v144h-284v155l182 367h299v-371h90v-151zM307 1118v242l-123 -242h123z" />
<glyph unicode="&#x2075;" horiz-adv-x="610" d="M565 1047q0 -111 -84 -172.5t-209 -61.5h-38h-31q-8 0 -25.5 1t-32 3t-36 6t-50.5 13l35 170q68 -14 176 -15q78 0 78 47q0 66 -63 66q-150 0 -193 -4v389h434v-170h-241v-64h14q129 0 197.5 -44.5t68.5 -163.5z" />
<glyph unicode="&#x2076;" horiz-adv-x="665" d="M621 1057q0 -129 -79 -187.5t-204 -58.5q-150 0 -222.5 67.5t-72.5 237.5q0 186 98.5 282.5t266.5 96.5q74 0 161 -25l-51 -165q-70 14 -112 14q-82 0 -119 -66q25 4 61 4q133 0 203 -42.5t70 -157.5zM401 1049q0 39 -12 48t-45 9q-55 0 -82 -2v-29q2 -59 20.5 -75.5 t61.5 -16.5q57 0 57 66z" />
<glyph unicode="&#x2077;" horiz-adv-x="509" d="M504 1319l-285 -510l-209 43l250 461h-248v176h492v-170z" />
<glyph unicode="&#x2078;" horiz-adv-x="645" d="M606 1016q0 -203 -287 -203q-281 0 -280 191q0 109 115 167q-90 59 -91 140q0 96 76 141t191 45q111 0 184.5 -48t73.5 -128q0 -45 -29 -85t-70 -65q49 -25 83 -65.5t34 -89.5zM369 1305q0 41 -41 41q-55 0 -56 -41q0 -14 6.5 -26.5t12.5 -17.5l17 -15q11 -9 14 -11 q47 41 47 70zM387 1026q0 35 -70 74q-63 -45 -63 -74q0 -47 72 -47q61 0 61 47z" />
<glyph unicode="&#x2079;" horiz-adv-x="653" d="M610 1188q0 -219 -98 -297t-285 -78q-72 0 -166 29l52 164q76 -16 120 -17q100 0 132 51q-37 -4 -62 -4q-260 0 -260 219q0 111 80 175.5t203 64.5q137 0 210.5 -84t73.5 -223zM385 1186v12q0 121 -66 121q-61 0 -61 -57q0 -33 11.5 -51.5t24.5 -22.5t32 -4q41 0 59 2z " />
<glyph unicode="&#x207f;" horiz-adv-x="888" d="M866 854q0 -41 -10 -76h-356q-8 37 -6 76l45 20q18 8 22 41l2 201v60q0 45 -3 70.5t-23.5 49t-59.5 23.5q-96 0 -145 -16v-189l2 -176q0 -49 20 -57l52 -23q0 -45 -9 -80h-368q-4 37 -4 74l59 20q29 8 29 46l4 198v234h-94v92q125 27 256 26q47 0 47 -43v-41 q104 82 219 82q84 0 134 -14t70.5 -50t24.5 -64.5t4 -90.5v-133l2 -199q4 -37 19 -41z" />
<glyph unicode="&#x2080;" horiz-adv-x="704" d="M664 342q0 -154 -75 -252t-243 -98q-305 0 -305 332q0 66 14.5 123t48 110t100 84t158.5 31q302 0 302 -330zM442 336q0 106 -22 135q-23 27 -64 27q-16 0 -30.5 -3t-23.5 -12l-16 -14q-7 -6 -11.5 -20.5t-7.5 -21.5t-4 -25.5t-1 -24.5v-27v-24q0 -41 1 -58.5t8.5 -47.5 t27.5 -42t53 -12q16 0 29.5 3t23 11t16.5 15.5t10 21.5t6 21.5t4 26t1 24.5v24v23z" />
<glyph unicode="&#x2081;" horiz-adv-x="516" d="M414 0h-219v492h-134v167l353 11v-670z" />
<glyph unicode="&#x2082;" horiz-adv-x="571" d="M530 0h-512v137l50 43q49 41 77 69l72 69q43 42 64.5 74t21.5 52q0 37 -10 46.5t-41 9.5q-55 0 -154 -31l-69 147q66 33 110.5 45.5t122.5 12.5q147 0 204.5 -63.5t57.5 -155.5q0 -127 -192 -283h198v-172z" />
<glyph unicode="&#x2083;" horiz-adv-x="571" d="M528 205q0 -215 -290 -215l-215 28l32 160q82 -18 174 -18q49 0 64.5 16.5t15.5 46.5q0 10 -2 18.5t-7 14.5t-10 9t-15.5 6t-18.5 4t-24 1h-25h-31h-35v134q90 0 114 14t24 47q0 35 -46 35q-25 0 -62.5 -5t-61.5 -9l-25 -7l-45 146q111 45 205 45q252 0 252 -187 q0 -80 -76 -129q45 -20 76.5 -62t31.5 -93z" />
<glyph unicode="&#x2084;" horiz-adv-x="616" d="M594 143h-90v-143h-197v143h-284v156l182 367h299v-371h90v-152zM307 295v242l-123 -242h123z" />
<glyph unicode="&#x2085;" horiz-adv-x="610" d="M565 223q0 -111 -84 -172t-209 -61h-38h-31q-8 0 -25.5 1t-32 3t-36 6t-50.5 12l35 170q68 -14 176 -14q78 0 78 47q0 66 -63 66q-150 0 -193 -5v390h434v-170h-241v-64h14q129 0 197.5 -45t68.5 -164z" />
<glyph unicode="&#x2086;" horiz-adv-x="665" d="M621 233q0 -129 -79 -187t-204 -58q-150 0 -222.5 67.5t-72.5 237.5q0 186 98.5 282.5t266.5 96.5q74 0 161 -25l-51 -166q-70 14 -112 15q-82 0 -119 -66q25 4 61 4q133 0 203 -43t70 -158zM401 225q0 39 -12 48.5t-45 9.5q-55 0 -82 -2v-29q2 -59 20.5 -75.5 t61.5 -16.5q57 -1 57 65z" />
<glyph unicode="&#x2087;" horiz-adv-x="509" d="M504 496l-285 -510l-209 43l250 460h-248v177h492v-170z" />
<glyph unicode="&#x2088;" horiz-adv-x="645" d="M606 193q0 -203 -287 -203q-281 0 -280 190q0 109 115 168q-90 59 -91 139q0 96 76 141.5t191 45.5q111 0 184.5 -48t73.5 -128q0 -45 -29 -85t-70 -65q49 -25 83 -65.5t34 -89.5zM369 481q0 41 -41 41q-55 0 -56 -41q0 -14 6.5 -26.5t12.5 -17.5l17 -14q11 -9 14 -11 q47 40 47 69zM387 203q0 35 -70 73q-63 -45 -63 -73q0 -47 72 -47q61 0 61 47z" />
<glyph unicode="&#x2089;" horiz-adv-x="653" d="M610 365q0 -219 -98 -297t-285 -78q-72 0 -166 28l52 164q76 -16 120 -16q100 0 132 51q-37 -4 -62 -4q-260 0 -260 219q0 111 80 175.5t203 64.5q137 0 210.5 -84t73.5 -223zM385 362v13q0 121 -66 121q-61 0 -61 -58q0 -33 11.5 -51t24.5 -22.5t32 -4.5q41 0 59 2z" />
<glyph unicode="&#x20ac;" horiz-adv-x="1265" d="M1180 96q-164 -115 -451 -114q-250 0 -380 90t-169 290h-139v109h127q-4 66 -4 100q0 37 6 74h-129v109h156q59 170 209.5 281.5t363.5 111.5q397 0 397 -180q0 -115 -129 -181q-57 68 -136 118t-130 50q-190 0 -240 -200h326v-109h-342q-2 -25 -2 -80q0 -43 10 -94h334 v-109h-293q92 -162 260 -161q59 0 111.5 25.5t128.5 84.5q115 -94 115 -215z" />
<glyph unicode="&#x2122;" horiz-adv-x="1802" d="M1778 713h-211l-56 319l-26 178l-43 -163l-101 -334h-235l-68 295l-34 176l-33 -174l-64 -297h-194l180 735h225l90 -385l35 -168l43 172l113 381h229zM776 1448v-180l-231 20v-278l10 -297h-221l8 299v276l-231 -20v180h665z" />
<glyph unicode="&#x2202;" horiz-adv-x="1226" d="M1171 762q0 -393 -159.5 -593t-438.5 -200q-221 0 -360 109.5t-139 312.5q0 233 136 390t335 157q143 0 241 -23q-41 145 -131 217t-252 125l125 271q281 -61 462 -255t181 -511zM821 604q0 57 -2 86q-84 37 -231 37q-166 0 -166 -244q0 -127 46 -207.5t132 -80.5 q221 -1 221 409z" />
<glyph unicode="&#x220f;" horiz-adv-x="1777" d="M1712 115q0 -78 -14 -115h-699q-10 37 -10 115l131 51q57 25 58 86l4 326v669h-607v-672l7 -339q2 -45 19 -62.5t73 -30.5l114 -26q0 -70 -14 -117h-698q-10 41 -10 117l92 37q45 18 56 33.5t11 68.5l2 322v641q0 41 -15 57t-54 33q-39 20 -80 30q0 74 10 109h1583 q6 -31 6 -107l-88 -34q-59 -25 -59 -90v-642l6 -307q2 -92 47 -108z" />
<glyph unicode="&#x2211;" horiz-adv-x="1292" d="M1251 449l-55 -449h-1057l-71 178l329 514l-319 555l61 201h1080v-432q-80 -14 -164 -2q-47 215 -107 223l-499 31l292 -506l-385 -524l533 28q76 8 124 62.5t85 152.5z" />
<glyph unicode="&#x2212;" horiz-adv-x="1286" d="M1024 639h-860v176h860v-176z" />
<glyph unicode="&#x221a;" horiz-adv-x="1306" d="M1331 1636l-592 -1804l-258 -74l-385 1196h-149v154q203 43 411 43q90 0 105 -64l158 -616l61 -238h8l68 248l372 1211z" />
<glyph unicode="&#x221e;" horiz-adv-x="1964" d="M1880 729q0 -143 -107.5 -250.5t-283.5 -107.5q-88 0 -182.5 37.5t-155.5 78.5t-154 109l-26 20q-4 -2 -55.5 -39.5l-62.5 -45.5l-58 -38q-47 -32 -68 -42l-62 -32q-42 -22 -71 -30t-67 -15t-72 -7q-178 0 -277.5 103t-99.5 243q0 154 107.5 256t277.5 102q43 0 83 -6 t83 -24l71 -29q29 -12 77 -43l67 -43q18 -12 72.5 -51t64.5 -48q10 8 57 42t63 44l59 39q44 29 65.5 40.5t62.5 30.5t71 26.5t67.5 14.5t74.5 7q176 0 277.5 -100.5t101.5 -241.5zM1683 721q0 86 -52 134t-140 48q-55 0 -132 -34.5t-119 -63.5l-116 -82q74 -55 118 -84 t122 -64.5t135 -35.5q86 0 135 51t49 131zM827 719l-117 84q-38 27 -117 63.5t-134 36.5q-84 0 -134.5 -51t-50.5 -129q0 -86 50.5 -135t142.5 -49q114 0 360 180z" />
<glyph unicode="&#x222b;" horiz-adv-x="677" d="M788 1556l-57 -239q-135 16 -176 16q-84 0 -111.5 -38t-27.5 -134v-1120q0 -244 -161 -379t-398 -135l-29 242q2 0 52 -1t66.5 0t51.5 7t61 16q84 33 84 170v1102q0 221 136.5 364.5t345.5 143.5q65 -1 163 -15z" />
<glyph unicode="&#x2248;" horiz-adv-x="1327" d="M1163 920q-123 -147 -278 -148q-100 0 -239.5 54.5t-207.5 54.5q-98 0 -190 -62l-84 125q117 133 287 133q94 0 226 -55t208 -55q96 0 182 65zM1163 530q-123 -147 -278 -147q-100 0 -239.5 54.5t-207.5 54.5q-98 0 -190 -62l-84 125q117 133 287 133q94 0 226 -55 t208 -55q96 0 182 65z" />
<glyph unicode="&#x2260;" horiz-adv-x="1212" d="M1034 1214l-145 -219h135v-176h-254l-123 -186h377v-176h-494l-178 -267h-188l178 267h-178v176h295l123 186h-418v176h536l146 219h188z" />
<glyph unicode="&#x2264;" horiz-adv-x="1183" d="M1008 268l-832 359v192l832 361v-205l-592 -252l592 -250v-205zM1024 0h-860v176h860v-176z" />
<glyph unicode="&#x2265;" horiz-adv-x="1183" d="M1008 627l-832 -359v205l592 250l-592 252v205l832 -361v-192zM1024 0h-860v176h860v-176z" />
<glyph unicode="&#x25ca;" horiz-adv-x="1110" d="M1106 719q-68 -72 -209 -308.5t-211 -410.5h-291q-47 141 -166.5 353t-232.5 374l98 148.5t181.5 299t138.5 273.5h291q41 -135 168 -356t233 -373zM813 684q-121 186 -272 516q-92 -215 -254 -432q84 -127 272 -522q111 243 254 438z" />
<glyph unicode="&#xe000;" horiz-adv-x="1120" d="M0 1120h1120v-1120h-1120v1120z" />
<glyph unicode="&#xfb00;" horiz-adv-x="1769" d="M1958 1409q0 -129 -152 -201q-129 186 -184 187q-78 0 -131 -49.5t-53 -128.5v-99h243v-164h-243v-372l6 -316q2 -80 92 -98q190 -35 205 -39q0 -86 -17 -129h-782q-10 57 -10 125l100 27q55 16 55 122l7 308v372h-545v-372l8 -316q0 -70 92 -98q109 -35 123 -39 q0 -86 -18 -129h-701q-6 35 -8 48t-2 18.5t1 20.5t1 38l98 27q53 16 58 122l4 308v372h-164v127l164 37v31q0 113 66.5 206t168 146t208 82t196.5 29q408 0 459 -131q139 92 286 92q369 0 369 -164zM1128 1294q-172 141 -210 142q-197 0 -283 -51.5t-86 -170.5v-96h545v31 q-1 71 34 145z" />
<glyph unicode="&#xfb06;" horiz-adv-x="2107" d="M2066 74q-66 -33 -191.5 -65t-188.5 -32q-106 0 -169 10.5t-119.5 46.5t-81 111.5t-22.5 198.5l4 569h-161v129q254 139 254 342q0 131 -64.5 215t-185.5 84q-129 0 -205 -91t-76 -228q0 -66 17.5 -122t34 -84t45 -63.5t34.5 -43.5l-39 -293l-118 12q-12 43 -25.5 69.5 t-43.5 57.5t-82 45t-128 14q-74 0 -101.5 -23.5t-27.5 -70.5q0 -37 60.5 -70.5t145.5 -67.5t171 -77t146.5 -117.5t60.5 -171.5q0 -104 -48.5 -182t-126 -120t-161.5 -62.5t-170 -20.5q-221 0 -443 99l21 293h121q39 -205 297 -205q90 0 124.5 18.5t34.5 73.5q0 43 -56 78 t-135 66.5t-159 72.5t-136 120t-56 187q0 176 133 271.5t323 95.5q119 0 236 -31q-74 111 -74 252q0 182 139.5 313t327.5 131q203 0 325 -118.5t122 -325.5q0 -135 -86 -246h460v-205h-374v-344l6 -252q2 -43 28.5 -57t100.5 -14q154 0 254 10z" />
<glyph horiz-adv-x="1638" d="M1581 252h-1524v334h1524v-334zM1540 293v252h-1442v-252h1442zM1501 395h-16v31q0 6 -2 6t-2 -2v-2v-33h-17v33q0 4 -2 4t-2 -2v-35h-16v51h16v-8q2 8 10.5 8t8.5 -6q6 6 12 6q10 0 10 -16v-35zM1423 419.5q0 -26.5 -26 -26.5q-29 0 -29 26.5t29 26.5q26 0 26 -26.5z M1341 397q-6 -4 -18 -4q-29 0 -29 26.5t29 26.5q12 0 18 -2l-6 -14q-6 2 -12 2q-8 0 -8 -12q0 -10 10 -10q6 0 10 2zM1253 403q0 -10 -12 -10q-10 0 -10 10q0 12 10 13q12 -1 12 -13zM1190 399q-12 -6 -25 -6q-27 0 -26.5 26.5t26.5 26.5q25 0 25 -22l-2 -6l-29 -4 q4 -4 8 -4q12 0 19 2zM1114 395h-20v4q-12 -6 -17 -6q-14 0 -14 17v36h20v-32q0 -4 2 -4h5l4 2v34h20v-51zM1038 369h-18v30q-6 -6 -12 -6q-25 0 -25 26.5t31 26.5q18 0 24 -4v-73zM961 399q-12 -6 -27 -6q-25 0 -25 26.5t25 26.5q23 0 27 -22l-5 -6l-26 -4q0 -4 6 -4 q12 0 20 2zM883 395h-21v33q0 4 -2 4l-4 -2h-4v-35h-21v74h21v-27q8 4 18 4q12 0 13 -16v-35zM807 397q-16 -4 -27 -4q-20 0 -20 17v20h-6v10l26 21v-15h25v-16h-25v-14q0 -4 4 -4q10 0 19 2zM731 419.5q0 -26.5 -26 -26.5q-29 0 -29 26.5t29 26.5q26 0 26 -26.5zM653 424 q0 -31 -26 -31l-6 2v-26h-21v77h21v-4q8 4 12 4q20 1 20 -22zM580 444l-19 -53q-8 -23 -37 -26l-4 18l19 8l-19 53l25 2l6 -34l4 34zM500 397q-20 -4 -29 -4q-18 0 -18 17v20h-7v10l27 21v-15h23v-16h-23v-14q0 -4 4 -4q10 0 19 2zM408 403q0 -10 -13 -10q-10 0 -10 10 q0 12 10 13q13 -1 13 -13zM348 446l-6 -51h-16l-7 29l-8 -29h-16l-4 51h16v-34l4 34h15l6 -34l2 34h14zM270 446l-4 -51h-18l-6 29l-9 -29h-16l-4 51h16v-34l7 34h14l4 -34l2 34h14zM195 446l-7 -51h-16l-8 29l-6 -29h-17l-4 51h17v-34l4 34h14l6 -34v34h17zM1403 420 q0 12 -8 12q-6 0 -6 -8q0 -16 8 -16q6 0 6 12zM1171 426q0 8 -6 8t-6 -10zM1020 412v20h-6q-10 0 -10 -10q0 -12 8 -12q6 0 8 2zM940 426q0 8 -6 8t-6 -10zM711 420q0 12 -9 12q-6 0 -6 -8q0 -16 9 -16q6 0 6 12zM633 422q0 10 -4 10q-2 0 -6 -2h-2v-22h6q6 0 6 14z" />
<glyph horiz-adv-x="1712" d="M1348 1659l-54 -164q-240 31 -405 111q-154 -82 -383 -115l-64 141q270 123 455 279q230 -199 451 -252z" />
<glyph horiz-adv-x="1718" d="M1354 1694q-29 -47 -48.5 -76t-78 -70t-121.5 -41q-68 0 -194 34t-181 34q-119 0 -180 -33q-55 84 -74 109q45 47 69.5 70.5t84 60.5t108.5 37q70 0 196 -34t179 -34l174 33z" />
<glyph horiz-adv-x="1261" d="M936 1546h-610v203h610v-203z" />
<glyph horiz-adv-x="1669" d="M1186 1737q-12 -23 -30.5 -45.5t-61.5 -66.5t-109.5 -70.5t-142.5 -26.5q-78 0 -147.5 25.5t-112.5 63.5t-64.5 62.5t-32.5 40.5l111 105q29 -31 101.5 -52.5t152.5 -21.5q170 0 256 68z" />
<glyph horiz-adv-x="1654" d="M1022 1712q0 -47 -71.5 -120.5t-123.5 -73.5q-49 0 -121.5 72.5t-72.5 121.5t72.5 121t121.5 72q47 0 121 -72t74 -121z" />
<glyph horiz-adv-x="909" d="M788 1827q0 -125 -101 -211t-236 -86q-330 0 -330 244q0 123 100.5 208.5t233.5 85.5q143 0 238 -60t95 -181zM565 1800q0 57 -33.5 88t-91.5 31q-47 0 -72.5 -33t-25.5 -86q0 -123 121 -123q102 0 102 123z" />
<glyph horiz-adv-x="1751" d="M1503 1694q-238 -119 -575 -176l-66 168q205 72 502 272zM973 1913q-150 -207 -455 -391l-139 116q94 90 187 213t145 232z" />
<glyph horiz-adv-x="1712" d="M1348 1769q-270 -123 -455 -278q-229 199 -451 252l54 164q240 -31 405 -111q154 82 383 115z" />
<glyph horiz-adv-x="1710" d="M1364 1714q0 -18 -76 -95t-98 -77q-25 0 -97.5 75t-72.5 97q0 27 72.5 99.5t97 72.5t99.5 -74.5t75 -97.5zM791 1714q0 -18 -76 -95t-99 -77q-25 0 -97.5 75t-72.5 97q0 27 73 99.5t97.5 72.5t99.5 -74.5t75 -97.5z" />
<glyph horiz-adv-x="1691" d="M1339 1688q-131 -57 -309 -105.5t-330 -60.5l-43 174q293 68 557 246z" />
<glyph horiz-adv-x="1691" d="M1169 1696l-43 -174q-152 12 -330 60t-309 106l125 254q264 -178 557 -246z" />
<glyph horiz-adv-x="815" d="M838 1688q-131 -57 -309.5 -105.5t-329.5 -60.5l-43 174q293 68 557 246zM754 1317l-97 -25q-49 -12 -63 -28.5t-14 -61.5v-1001q0 -88 -35 -166t-86 -134.5t-127 -109.5t-140.5 -85t-144.5 -66l-102 186q102 63 147 96t82 87t45 115.5t8 174.5v842q0 45 -26.5 90 t-71.5 61l-90 31q0 94 8 125h701q12 -59 6 -131z" />
<glyph horiz-adv-x="759" d="M795 1538q-272 -209 -600 -321l-84 159q119 72 254 184.5t237 225.5zM571 2q0 -74 -4 -126t-25.5 -117.5t-61.5 -106.5t-114.5 -69.5t-179.5 -28.5q-172 0 -286 36l34 201q66 -10 146 -10q76 0 107.5 31.5t31.5 138.5v1003h-170v154q203 43 406 43q55 0 80.5 -20.5 t25.5 -77.5v-492z" />
<glyph horiz-adv-x="1333" d="M1354 123l-47 -160q-203 0 -315.5 58.5t-196.5 179.5l-215 305l2 -246q4 -66 32 -92l52 -47q0 -72 -13 -121h-585q-8 33 -9 121l121 33q31 8 40 24.5t9 54.5l7 328v807h-170v154q203 43 405 43q55 0 82 -20.5t27 -78.5v-483q119 150 288 150q51 0 99.5 -10.5t97.5 -36 t79 -78t30 -125.5q0 -90 -74 -181.5t-176 -148.5l141 -178q103 -125 289 -252zM813 842q0 78 -88 78q-66 0 -145 -48v-301q233 158 233 271z" />
<glyph horiz-adv-x="2813" d="M2753 573q0 -135 -36 -240.5t-95.5 -170t-143.5 -106.5t-171 -57t-187 -15q-4 0 -18.5 -1t-42 -2t-48.5 -1l4 -179q0 -33 13.5 -49t23.5 -20t47 -13l144 -32q0 -92 -13 -138h-745q-10 37 -10 129l77 25q92 27 93 123l2 147q-186 -2 -310.5 21.5t-214.5 101.5 q-195 162 -334 477h-47h-157l6 -323q0 -59 43 -72l127 -43q0 -113 -8 -135h-697q-10 76 -6 127l98 23q35 8 56.5 45.5t23.5 80.5l6 283v627q0 59 -49 82l-133 53q-2 16 1 62.5t9 64.5h803q240 0 396.5 -101.5t156.5 -314.5q0 -111 -65.5 -215t-186.5 -168q37 -76 122 -204 t153 -187q100 -90 209 -106l4 397v405h-133v148q201 49 374 49q90 0 91 -90v-35q117 121 272 121q115 0 200 -24.5t154.5 -85t105.5 -177.5t36 -287zM2390 537q0 184 -57.5 290.5t-163.5 106.5q-102 0 -172 -16v-373l10 -398h123q127 0 193.5 111t66.5 279zM1028 997h2 q0 270 -358 271h-90v-527l149 2q160 2 228.5 60.5t68.5 193.5z" />
<glyph horiz-adv-x="1880" d="M1741 721q0 -346 -225.5 -546t-569.5 -200q-143 0 -277 39t-257 122t-198 233.5t-75 351.5q0 352 228.5 555t574.5 203q119 0 230.5 -26t216 -83t181.5 -143t124 -216t47 -290zM1581 721q0 207 -93 351.5t-233.5 207.5t-308.5 63q-283 0 -462 -151.5t-179 -458.5 q0 -154 48 -270.5t119 -181t166 -105.5t172 -53t153 -12q274 0 446 160.5t172 449.5zM1354 889q0 -135 -98.5 -211t-251.5 -76h-101l6 -293h-256l6 355v522l347 2q156 0 252 -78t96 -221zM1104 887q0 72 -25.5 110.5t-95.5 38.5h-82v-309h68q135 0 135 160z" />
<glyph horiz-adv-x="1880" d="M1741 721q0 -346 -225.5 -546t-569.5 -200q-143 0 -277 39t-257 122t-198 233.5t-75 351.5q0 352 228.5 555t574.5 203q119 0 230.5 -26t216 -83t181.5 -143t124 -216t47 -290zM1581 721q0 207 -93 351.5t-233.5 207.5t-308.5 63q-283 0 -462 -151.5t-179 -458.5 q0 -154 48 -270.5t119 -181t166 -105.5t172 -53t153 -12q274 0 446 160.5t172 449.5zM1327 600q0 -100 -36 -173t-96 -108.5t-121.5 -51t-131.5 -15.5q-74 0 -135.5 14.5t-118.5 47t-91 98t-34 157.5v578h264v-547q0 -166 115 -166q70 0 97.5 38t27.5 136v539h260v-547z" />
<glyph horiz-adv-x="1650" d="M1694 1427q0 -18 -76 -95t-96 -77q-27 0 -99.5 75t-72.5 97q0 27 73.5 99.5t98.5 72.5q23 0 97.5 -74.5t74.5 -97.5zM1610 129q0 -80 -13 -129h-649q-10 45 -10 129l102 35q27 8 37 25.5t13 54.5l6 317v393h-178v154q205 43 413 43q55 0 81 -20.5t26 -77.5v-492l4 -301 q0 -84 33 -92zM1161 1427q0 -18 -75.5 -95t-96.5 -77q-18 0 -64 42t-79 85q-35 47 -76 48q-78 0 -149.5 -60.5t-71.5 -138.5v-113h244v-164h-244v-372l8 -316q0 -80 92 -98q190 -35 205 -39q0 -86 -18 -129h-783q-6 35 -8 48t-2 18.5t1 20.5t1 38l98 27q53 16 58 122l4 308 v372h-164v127l164 37v45q0 176 192.5 315.5t376.5 139.5q106 0 215 -19q25 -10 98.5 -81t73.5 -91z" />
<glyph horiz-adv-x="1773" d="M1610 1466q0 -51 -80 -134t-137 -83q-55 0 -135 82t-80 135q0 55 80.5 135t134 80t135.5 -80t82 -135zM1585 2q2 -72 -3 -125t-26.5 -118.5t-60.5 -106.5t-114.5 -69.5t-180.5 -28.5q-172 0 -287 36l37 201q61 -10 144 -10q78 0 109.5 31.5t31.5 138.5v962h-682v-344 l6 -252q2 -43 28.5 -57t100.5 -14q154 0 254 10l29 -182q-66 -33 -192 -65t-189 -32q-106 0 -169 10.5t-119 46.5t-80.5 111.5t-22.5 198.5l6 569h-164v129l432 306h80v-230h915q55 0 82 -19.5t27 -76.5v-461z" />
<glyph horiz-adv-x="1775" d="M1735 94q-164 -117 -381 -117q-164 0 -250 34t-121 147q-217 -178 -422 -178q-510 0 -510 401q0 92 78 194.5t188 147.5q-137 86 -137 281q0 133 85 242.5t210 168t254 58.5q266 0 401.5 -101.5t159.5 -253.5h402v-205h-375v-344l6 -252q2 -43 28.5 -57t100.5 -14 q154 0 254 10zM969 913h-144v129l131 64q-16 88 -82.5 141t-166.5 53q-92 0 -155 -46t-63 -150q0 -117 42 -182.5t137 -102.5l-29 -112q-98 -10 -155.5 -80t-57.5 -176q0 -82 55.5 -143.5t163.5 -61.5q158 0 320 43q-2 16 -2 55z" />
<glyph horiz-adv-x="882" d="M1071 1409q0 -129 -153 -201q-129 186 -185 187q-78 0 -131 -49.5t-53 -128.5v-635l8 -316q0 -80 92 -98q190 -35 205 -39q0 -86 -18 -129h-783q-6 35 -8 48t-2 18.5t1 20.5t1 38l98 27q53 16 58 122l4 308v372h-164v127l164 37v31q0 166 158.5 295t336.5 129 q371 0 371 -164z" />
<glyph horiz-adv-x="1652" d="M1612 129q0 -80 -13 -129h-669q-8 35 -8 129l120 35q49 12 50 80l6 317v393h-176v154q203 43 411 43q55 0 82 -20.5t27 -77.5v-492l2 -301q2 -84 33 -92zM1071 1409q0 -129 -153 -201q-129 186 -185 187q-78 0 -131 -49.5t-53 -128.5v-635l8 -316q0 -43 18.5 -64.5 t59.5 -33.5q109 -35 123 -39q0 -86 -19 -129h-686q-6 35 -8 48t-2 18.5t1 20.5t1 38l98 27q53 16 58 122l4 308v372h-164v127l164 37v31q0 166 158.5 295t336.5 129q371 0 371 -164z" />
<glyph horiz-adv-x="1753" d="M1747 1253q0 -217 -147.5 -376.5t-362.5 -159.5q-90 0 -246.5 70.5t-242.5 70.5q-123 0 -189 -37v-258l6 -307q0 -43 27 -49l266 -62q0 -100 -16 -145h-791q-12 61 -12 92l2 35q10 4 56 14.5t61.5 16.5t35 28.5t19.5 57.5q4 213 4 319v391h-170v152q229 43 402 43 q102 0 102 -100v-60q123 156 280 156q84 0 156 -29t113 -63.5t94 -63t104 -28.5q80 0 145.5 51t65.5 129q0 18 -5 34.5t-11 29t-20.5 26.5t-23.5 21.5t-29.5 19.5t-28.5 16l-34 18l-30 15q25 199 207 199q106 0 159.5 -78t53.5 -189z" />
<glyph horiz-adv-x="1556" d="M1571 1538q-272 -209 -600 -321l-84 159q119 72 254 184.5t237 225.5zM854 1538q-272 -209 -600 -321l-84 159q119 72 254 184.5t238 225.5zM1370 2q0 -74 -4 -126t-25.5 -117.5t-61.5 -106.5t-114.5 -69.5t-179.5 -28.5q-172 0 -287 36l35 201q66 -10 146 -10 q76 0 107.5 31.5t31.5 138.5v1003h-170v154q203 43 405 43q55 0 81 -20.5t26 -77.5v-492zM731 129q0 -80 -12 -129h-670q-8 35 -8 129l121 35q49 12 49 80l6 317v393h-176v154q203 43 412 43q55 0 81.5 -20.5t26.5 -77.5v-492l2 -301q2 -84 33 -92z" />
<glyph horiz-adv-x="2357" d="M2296 358l-55 -358h-1203q-14 66 -10 133l86 21q90 20 92 69l4 357v53h-635v-58l7 -339q0 -45 18 -62.5t74 -30.5l114 -26q0 -70 -14 -117h-698q-10 55 -10 117l92 37q45 18 56 33.5t11 68.5l2 322v641q0 41 -15 57t-54 33q-39 20 -80 30q0 74 10 109h641q10 -37 10 -107 l-96 -32q-68 -23 -68 -117v-373h635v330q0 43 -10 67.5t-20.5 31.5t-30.5 18l-113 51q0 109 8 131h1178v-342q-47 -12 -143 -12q-18 94 -60.5 126.5t-111.5 32.5l-346 9v-441l555 10v-208l-555 10v-58l8 -391l266 11q123 6 198.5 45t118.5 151z" />
<glyph horiz-adv-x="1634" d="M1634 1077q-49 -92 -173 -152.5t-222 -60.5q-82 0 -203 24.5t-205 24.5h-278v-344l6 -252q2 -43 28.5 -57t100.5 -14q154 0 254 10l29 -182q-66 -33 -192 -65t-189 -32q-106 0 -169 10.5t-119 46.5t-80.5 111.5t-22.5 198.5l6 569h-164v129l432 306h80v-230h6h6h8h7h6h6 h6h8h6h6h7h6h8h6h6h6h7h8h6h6h6h8h7h6h6h6h8h6h6h7h8h6h6h6h8h7h6h6h8h6h6h8h7h6h6h8h14q82 0 201 -14t199 -14q158 0 295 88z" />
<glyph horiz-adv-x="1662" d="M1663 1411q0 -213 -145.5 -355.5t-364.5 -142.5h-600v-344l6 -252q2 -43 28.5 -57t100.5 -14q154 0 254 10l29 -182q-66 -33 -192 -65t-189 -32q-106 0 -169 10.5t-119 46.5t-80.5 111.5t-22.5 198.5l6 569h-164v129l432 306h80v-230h661q80 0 145.5 51.5t65.5 128.5 q0 18 -5 35t-11 29t-20.5 26.5t-23.5 21.5t-29.5 19.5t-28.5 16.5l-34 17l-30 16q25 199 207 198q106 0 159.5 -77.5t53.5 -188.5z" />
<glyph horiz-adv-x="2744" d="M2703 125q0 -72 -16 -125h-584q-12 68 -8 125l72 33q35 18 39 73l4 330v109q0 57 -3 91t-16.5 72.5t-46.5 57t-84 18.5q-160 0 -252 -35v-313l4 -301q0 -76 33 -92l74 -39q0 -80 -12 -129h-588q-10 41 -10 121l102 33q29 10 38 25.5t11 53.5l6 328v674l-563 27v-703 l10 -311q0 -39 7.5 -53.5t35.5 -20.5l174 -37q0 -106 -8 -137h-782q-14 68 -8 137l131 39q33 10 57.5 54t26.5 87l6 242v703l-240 -15q-131 -8 -170 -211q-12 -4 -63 -2t-72 8v406h1301q281 55 409 55q82 0 82 -71v-422q180 137 369 137q80 0 140.5 -10.5t100 -24.5 t67.5 -44t42 -54.5t22.5 -69.5t9.5 -75.5t1 -88.5v-219l6 -338q0 -59 29 -65z" />
<glyph horiz-adv-x="1673" d="M1645 784q0 -340 -225.5 -574.5t-598.5 -234.5q-371 0 -560 174.5t-189 503.5q0 346 233.5 581.5t595.5 235.5q377 0 560.5 -180t183.5 -506zM2732 -469q-176 -172 -369 -172q-172 0 -379.5 46t-370.5 101.5t-369 101.5t-372 46q-104 0 -206 -51l-70 102q197 182 381 182 q164 0 370.5 -47t372.5 -103t379 -103.5t389 -47.5q98 0 187 47zM1255 725q0 236 -95 383t-298 147q-213 0 -307 -144t-94 -382q0 -236 91 -385t296 -149q407 0 407 530z" />
<glyph horiz-adv-x="2258" d="M2198 602q0 -266 -180.5 -441t-454.5 -175q-272 0 -478 59l11 537v739q-147 115 -178 115q-197 0 -283 -51.5t-86 -170.5v-96h223v-164h-223v-372l8 -316q0 -70 92 -98q109 -35 123 -39q0 -86 -18 -129h-701q-6 35 -8 48t-2 18.5t1 20.5t1 38l98 27q53 16 58 122l4 308 v372h-164v127l164 37v31q0 113 66.5 206t168 146t208 82t196.5 29q238 0 366 -51q90 4 121 4q55 0 81 -20.5t26 -78.5v-905l6 -352q47 -6 125 -6q129 0 196.5 108.5t67.5 276.5q0 344 -225 344q-47 0 -90 -6l-27 168q104 45 186 45q270 0 395.5 -115t125.5 -422z" />
<glyph horiz-adv-x="2371" d="M2331 125q0 -82 -17 -125h-583q-12 68 -9 125l72 33q39 18 39 73l4 330v109q0 57 -3 91t-16.5 72.5t-46 57t-83.5 18.5q-160 0 -252 -35v-288l4 -326q0 -74 33 -92l73 -39q0 -80 -12 -129h-588q-8 33 -8 121l100 33q29 10 39 25.5t10 53.5l7 328v760q-139 115 -176 115 q-197 0 -283 -51.5t-86 -170.5v-96h223v-164h-223v-372l8 -316q0 -70 92 -98q109 -35 123 -39q0 -86 -18 -129h-701q-6 35 -8 48t-2 18.5t1 20.5t1 38l98 27q53 16 58 122l4 308v372h-164v127l164 37v31q0 113 66.5 206t168 146t208 82t196.5 29q238 0 366 -51q90 4 121 4 q53 0 74.5 -19.5t21.5 -79.5v-456q180 137 369 137q80 0 140.5 -10.5t101.5 -24.5t68.5 -44t42 -54.5t21.5 -69.5t8 -75.5t1 -88.5v-219l6 -338q0 -57 29 -65z" />
<glyph horiz-adv-x="2228" d="M2226 131l-43 -174q-211 16 -335 87t-230 222l-178 254l2 -260q0 -61 33 -92l51 -47q0 -72 -13 -121h-585q-8 33 -8 121l120 33q29 8 39.5 24.5t10.5 54.5l6 328v758q-145 117 -178 117q-197 0 -283 -51.5t-86 -170.5v-96h223v-164h-223v-372l8 -316q0 -70 92 -98 q109 -35 123 -39q0 -86 -18 -129h-701q-6 35 -8 48t-2 18.5t1 20.5t1 38l98 27q53 16 58 122l4 308v372h-164v127l164 37v31q0 113 66.5 206t168 146t208 82t196.5 29q238 0 366 -51q90 4 121 4q55 0 81 -20.5t26 -78.5v-841l299 252q29 23 28 53q0 35 -32 49l-68 35 q0 70 10 104h473v-110l-428 -340l201 -248l111 -133q39 -45 93 -91.5t101 -64.5z" />
<glyph horiz-adv-x="841" d="M780 1004q0 -86 -33.5 -159t-83 -120t-97.5 -83t-81.5 -64.5t-33.5 -47.5q0 -10 2 -17t6 -14t15 -32l24 -55l-174 -68q-76 145 -76 213q0 92 40 163t79 120t39 94q0 104 -76 208.5t-76 205.5q0 53 39 106t102 90l105 -74q-23 -37 -33 -55q-4 -10 -6 -12q123 -76 221 -180 t98 -219zM598 72q0 -47 -72.5 -121t-124.5 -74q-49 0 -120.5 74t-71.5 121q0 49 72.5 120.5t119.5 71.5q49 0 123 -71.5t74 -120.5z" />
<glyph horiz-adv-x="1447" d="M1354 90q-123 -59 -215 -81.5t-238 -22.5q-580 0 -688 471h-180v141h160q-4 78 -5 117q0 55 11 131h-166v141h200q72 211 238 348.5t422 137.5q180 0 315 -51.5t135 -139.5q0 -156 -147 -221q-190 162 -235 186q-41 23 -76 23q-154 0 -225.5 -72t-92.5 -211h428v-141 h-440q-2 -41 -2 -131q0 -39 4 -117h438v-141h-413q76 -248 356 -248q25 0 71 27.5t106 69.5l79 54q109 -112 160 -270z" />
<glyph horiz-adv-x="1171" d="M967 1169l-52 -137l-245 72l71 -260l-155 -49l-156 45l72 264l-246 -72l-51 137l49 158l248 -72l-72 261l156 49l155 -49l-71 -261l248 72zM967 309l-52 -137l-245 72l71 -260l-155 -50l-156 46l72 264l-246 -72l-51 137l49 158l248 -72l-72 260l156 50l155 -50l-71 -260 l248 72z" />
<glyph horiz-adv-x="1486" d="M1409 895q0 -117 -112.5 -226.5t-258 -170t-262.5 -60.5q-10 0 -66.5 1t-86 0t-84 -4t-87 -15t-68.5 -30.5t-52.5 -50.5t-16.5 -75q0 -94 62 -143q-68 -76 -141 -76q-160 0 -160 170q0 117 111.5 228.5t259 174t264.5 62.5q10 0 65 -1t86 0t85 4t87 15.5t68 29.5t52 49 t17 75q0 59 -79 141q74 80 159 80q158 0 158 -178z" />
<glyph horiz-adv-x="1419" d="M1419 74q0 -274 -329 -424l-68 90q76 47 110.5 92t34.5 121q0 49 -56 109.5t-165 144.5q-201 -223 -434 -223q-203 0 -327 91t-124 290q0 240 277 383q-96 135 -96 262q0 186 134 324.5t322 138.5q152 0 254.5 -71t102.5 -214q0 -121 -91.5 -206t-252.5 -153 q61 -53 222 -177t238 -193l50 -42l49 -43q10 -9 39.5 -38t39.5 -43l27 -43q18 -29 24.5 -52.5t12.5 -56t6 -67.5zM772 1188q0 47 -40 79.5t-87 32.5q-78 0 -119 -46t-41 -124q0 -88 144 -227q143 111 143 285zM840 289q-297 221 -422 358q-43 -74 -43 -151q0 -270 229 -271 q109 1 236 64z" />
<glyph horiz-adv-x="1388" d="M1278 559q0 -242 -171 -413t-412.5 -171t-412.5 171t-171 413t171 413t412.5 171t412.5 -171t171 -413zM1012 559q0 133 -92.5 225.5t-225.5 92.5t-225 -92.5t-92 -225.5t92 -225t225 -92t225.5 92t92.5 225z" />
<glyph horiz-adv-x="1306" d="M1235 444q0 -199 -146.5 -314.5t-359.5 -143.5v-191h-121v182h-6q-330 0 -530 123l39 371h147q12 -139 110.5 -220t239.5 -87v336l-133 61q-47 23 -121.5 71t-114.5 92t-72 111.5t-32 145.5q0 174 145.5 312.5t327.5 164.5v178h121v-176q244 -10 438 -102v-318h-133 q-27 104 -109.5 159.5t-195.5 66.5v-359l99 -43q30 -12 96.5 -45t99.5 -54.5t81 -60t70.5 -74.5t41 -84.5t18.5 -101.5zM608 963v299q-147 -23 -147 -158q0 -67 147 -141zM872 301q0 70 -143 143v-270q143 37 143 127z" />
<glyph horiz-adv-x="1480" d="M1470 1325q-72 -47 -129 -125l-333 -487h329v-109h-403l-23 -31l4 -184h422v-108h-422l3 -52q0 -31 9 -43t38 -18l122 -29q0 -92 -14 -139h-682q-8 33 -8 125l74 20q98 33 98 115v21h-412v108h414l4 160l-39 55h-379v109h308l-330 491q-53 76 -111 123q-8 72 4 121h656 q8 -33 8 -133l-78 -31q-57 -23 -72.5 -72t19.5 -100l268 -397l250 379q76 111 -59 178l-86 43q-6 66 6 133h534q10 -35 10 -123z" />
<glyph horiz-adv-x="1118" d="M1079 1153q0 -90 -28.5 -132t-104.5 -75q-55 66 -125.5 127.5t-120.5 79.5v-702q152 0 301 26l56 -176q-188 -102 -357 -113v-229h-125v227q-276 10 -395 148.5t-119 441.5q0 201 140.5 370t373.5 200v200h125v-194q160 -4 269.5 -55.5t109.5 -143.5zM575 483v662 q-164 -57 -163 -375q0 -98 43.5 -174t119.5 -113z" />
<glyph horiz-adv-x="2162" d="M2091 1024q0 -88 -67.5 -177t-165 -150.5t-207 -100.5t-193.5 -39q-61 0 -133 18q14 139 68 224q94 -14 196.5 -17.5t183 46t80.5 145.5q0 94 -61 145q68 76 141 76q158 0 158 -170zM1235 678q0 -23 -71.5 -98.5t-100.5 -75.5q-27 0 -99.5 73.5t-72.5 100.5t73.5 98.5 t98 71.5t98.5 -71.5t74 -98.5zM827 848q0 -49 -22.5 -121t-44.5 -102q-72 14 -146.5 15t-148.5 -12.5t-120 -59.5t-46 -119q0 -92 61 -144q-68 -76 -141 -76q-88 0 -123 44t-35 126q0 117 112 228.5t259.5 175t261.5 63.5q49 0 133 -18z" />
<glyph horiz-adv-x="1636" d="M1905 1059q-10 -55 -47 -136t-72 -110q-100 20 -168 21q-59 0 -141 -15q2 -6 2 -20q0 -344 -259 -593t-614 -249q-313 0 -428 186l-86 -49q-53 -29 -82.5 -51.5t-56.5 -63t-27 -90.5q0 -76 32 -119.5t105 -93.5q-37 -133 -172 -133q-86 0 -134 49.5t-48 131.5 q0 154 74 272.5t178 181.5l168 103q-4 41 -4 65q0 199 211 354q-133 121 -133 246q0 188 143 357.5t338 169.5q158 0 271.5 -70t113.5 -217q0 -94 -110.5 -168t-217.5 -74q-27 0 -67 8q35 59 50 99.5t17 58.5t2 55q0 53 -30.5 94t-73.5 41q-96 0 -141 -52t-45 -138 q0 -51 13 -94t48 -83t57.5 -61.5t75.5 -66.5q-131 -131 -158 -303l353 215l102 63l104 64l92 54q69 40 98 54l88 43q58 29 95 39t87.5 25.5t95.5 20.5t92 5q148 1 209 -26zM1120 676q-61 -33 -187 -108l-188 -109l-245 -137q23 -74 74 -122t122 -48q119 0 203 42t129 119.5 t66.5 163.5t25.5 199z" />
<glyph horiz-adv-x="1751" d="M1968 1272q0 -37 -22.5 -63.5t-47 -39t-65.5 -26.5l-26 26l-25 27l-24 24q-15 15 -23.5 21t-21.5 17.5t-23 16.5l-23 11q-12 6 -22.5 8t-22.5 2q-137 0 -168 -94t-29 -373v-81q0 -51 -10 -117q291 18 389 231q72 -2 121 -20q-43 -207 -197.5 -343.5t-427.5 -144.5 q-117 -176 -309 -283.5t-411 -107.5q-100 0 -185.5 18.5t-158 59.5t-113.5 114.5t-41 176.5q0 119 58.5 219t146.5 164q-61 104 -62 231q0 188 137.5 357.5t331.5 169.5q154 0 259.5 -70t105.5 -217q0 -96 -101.5 -169t-203.5 -73q-27 0 -70 8q35 59 50.5 99.5t17.5 58.5 t2 55q0 53 -31 94t-74 41q-94 0 -139 -52t-45 -138q0 -109 52 -194t143.5 -138t194.5 -84.5t226 -48.5q12 117 13 252q0 213 175 396.5t353 183.5q174 0 260 -45t86 -160zM1008 369q-358 43 -559 178q-8 -66 -9 -111q0 -119 66.5 -186.5t171.5 -67.5q232 1 330 187z" />
<glyph horiz-adv-x="1720" d="M1997 1292q0 -63 -36 -98t-101 -61q-45 61 -68 86.5t-67 52t-93 26.5q-35 0 -62.5 -10t-47 -32.5t-33.5 -47t-21.5 -66.5t-12.5 -75t-6 -88t-1 -91t1 -100.5t1 -99.5q0 -197 -123 -366.5t-325.5 -267t-428.5 -97.5q-211 0 -351 95t-140 294q0 109 61.5 208t147.5 167 q-121 111 -121 225q0 186 142.5 356.5t336.5 170.5q182 0 273.5 -67t91.5 -220q0 -96 -93.5 -169t-193.5 -73q-55 0 -82 17q66 104 66 204q0 63 -34 99t-83 36q-174 0 -174 -190q0 -51 13 -94t48 -83t57.5 -61.5t75.5 -66.5q-164 -164 -163 -385q0 -100 69.5 -184t167.5 -84 q125 0 210 49t130 146t63.5 216t18.5 287q0 141 83 289.5t206 243t233 94.5q180 0 272.5 -41.5t92.5 -143.5z" />
<glyph horiz-adv-x="1730" d="M1747 1155q0 -119 -100.5 -214t-249.5 -150q12 -43 12 -103q0 -303 -241.5 -517t-583.5 -214q-213 0 -357.5 96.5t-144.5 292.5q0 115 56.5 211t150.5 154q-119 104 -119 235q0 186 147.5 356.5t341.5 170.5q162 0 253.5 -52.5t91.5 -197.5q0 -61 -45.5 -128t-108.5 -96 q131 -70 379 -69q104 0 181 49t77 154q0 63 -62 139q72 68 144 67q90 0 134 -51t44 -133zM1047 733q-252 27 -408 207q35 31 59.5 97.5t24.5 127.5q0 57 -33 96t-86 39q-88 0 -131 -52t-43 -138q0 -205 182 -358q-84 -84 -117.5 -152t-33.5 -180q0 -100 69.5 -184t167.5 -84 q176 0 256.5 150t92.5 431z" />
<glyph horiz-adv-x="1730" d="M1858 901q-147 -86 -236 -174q-68 27 -217 45q4 -53 4 -84q0 -303 -241.5 -517t-583.5 -214q-213 0 -357.5 96.5t-144.5 292.5q0 227 207 365q-119 96 -119 235q0 186 147.5 356.5t341.5 170.5q152 0 248.5 -69t96.5 -218q0 -96 -87.5 -159.5t-189.5 -63.5q-51 0 -72 10 q66 96 66 192q0 61 -35 98t-88 37q-86 0 -127 -52t-41 -138q0 -205 182 -358q-84 -84 -117.5 -152t-33.5 -180q0 -100 69.5 -184t167.5 -84q342 0 379 630q-184 -27 -184 -176q0 -33 51 -123q-57 -53 -131 -53q-66 0 -103.5 43t-37.5 119q0 96 65.5 177t162.5 128 t198.5 73.5t185.5 26.5q443 0 574 -96z" />
<glyph horiz-adv-x="2048" d="M2048 526h-2048v68h2048v-68z" />
<glyph horiz-adv-x="2048" d="M2048 541l-2048 -25v88l2048 -26v-37z" />
<glyph horiz-adv-x="294" d="M217 555q0 -8 -29.5 -39t-40 -31t-40 30t-29.5 40q0 12 29.5 41t40 29t40 -30t29.5 -40z" />
<glyph horiz-adv-x="2048" d="M2048 516l-2048 25v37l2048 26v-88z" />
<glyph horiz-adv-x="294" d="M205 559.5q0 -22.5 -17.5 -40t-40 -17.5t-40 17.5t-17.5 40t17.5 39.5t40 17t40 -17t17.5 -39.5z" />
<glyph d="M4745 -739q-608 -258 -1192 -258q-268 0 -568 65.5t-561 160.5l-509 189q-248 94 -490.5 160t-429.5 66q-240 0 -475 -95l-51 109q199 129 365.5 189.5t439.5 60.5q221 0 484 -67.5t513 -163.5l506 -191q256 -96 546 -163.5t552 -67.5q137 0 380.5 49t438.5 108z M1645 784q0 -340 -225.5 -574.5t-598.5 -234.5q-371 0 -560 174.5t-189 503.5q0 346 233.5 581.5t595.5 235.5q377 0 560.5 -180t183.5 -506zM1255 725q0 236 -95 383t-298 147q-213 0 -307 -144t-94 -382q0 -236 91 -385t296 -149q407 0 407 530z" />
<glyph horiz-adv-x="1185" d="M1094 678l-346 -100l-35 79l305 191l-19 -111zM813 1014l-141 -332l-84 23l45 356l74 -84zM1077 416l-98 -56l14 -110l-295 207l39 78zM539 698l-70 -51l-250 260l113 4l39 105zM633 565.5q0 -18.5 -12.5 -31t-31 -12.5t-30.5 12.5t-12 31t12 30.5t30.5 12t31 -12 t12.5 -30.5zM780 96l-104 41l-76 -80l-27 359l86 18zM449 526l-357 -49l64 94l-64 93l357 -50v-88zM537 428l-185 -307l-35 106l-110 11l262 245z" />
<glyph horiz-adv-x="1177" d="M1014 672q0 -16 -27 -21l-305 -59q-18 -2 -27.5 13.5t2.5 25.5l220 239q14 16 26 0q10 -12 -6 -30l-78 -88q-14 -16 -5 -26.5t28 -0.5l114 63q14 10 19 -6q8 -16 -6 -22l-109 -66q-18 -10 -13 -22.5t23 -7.5l125 20q15 4 19 -12zM711 952l-101 -295q-6 -18 -24.5 -18 t-22.5 16l-96 312q-6 16 11.5 21t25.5 -19l37 -113q8 -20 20 -16t14 22l3 131q0 14 14 15q16 0 16 -17l2 -127q0 -20 13.5 -23t19.5 15l45 119q4 12 19 10q16 -2 4 -33zM1014 446q-4 -18 -31 -12l-115 25q-23 4 -26.5 -9.5t14.5 -23.5l113 -68q12 -6 4 -20q-12 -12 -23 -6 l-110 63q-18 10 -26.5 0t3.5 -24l80 -99q10 -14 -2 -23t-31 13l-202 236q-12 14 -4 29.5t24 11.5l317 -72q19 -5 15 -21zM621 563q0 -29 -29 -28.5t-29 28.5q0 31 29 31t29 -31zM518 629q12 -14 4 -29.5t-26 -11.5l-318 71q-18 4 -13 21.5t30 11.5l116 -24q23 -4 26 9 t-13 23l-113 68q-14 6 -4 20q8 12 22 7l111 -64q18 -10 26.5 0t-4.5 25l-79 98q-14 14 2 23q10 8 28 -15zM711 160q6 -14 -11 -23q-16 -4 -24 21l-39 112q-6 20 -19.5 16.5t-13.5 -22.5l-2 -131q0 -14 -16.5 -14t-16.5 16l-2 127q0 20 -12 23.5t-18 -15.5l-45 -118 q-6 -14 -20.5 -10.5t-4.5 32.5l100 295q8 18 25.5 18t21.5 -16zM522 494l-221 -238q-14 -16 -27 0q-10 12 7 31l77 88q16 16 7 26.5t-27 -0.5l-115 -63q-14 -8 -20 6q-6 12 6 23l110 65q18 10 12.5 22.5t-24.5 8.5l-123 -21q-16 -2 -19 12.5t28 20.5l303 60q20 2 29 -13.5 t-3 -27.5z" />
<glyph horiz-adv-x="1193" d="M1016 877q12 -6 10 -14.5t-14 -6.5q-51 0 -82 -28.5t-37 -73.5q-12 -96 -69.5 -138.5t-127.5 -19.5q-23 6 -16 27q12 27 31 120q16 121 129 152q96 27 176 -18zM612 662q-18 -18 -32 0q-29 37 -91 86q-96 78 -65 188q23 92 104 143q10 6 16.5 1t0.5 -15q-55 -92 28 -154 q78 -59 85 -132.5t-46 -116.5zM1085 352q0 -12 -8 -14t-12 8q-25 45 -67 57.5t-80 -6.5q-96 -35 -158 -7t-78 99q-6 25 16 27q35 6 119 35q115 45 197 -37q67 -68 71 -162zM512 621q6 -25 -16 -27q-35 -6 -119 -35q-115 -45 -197 37q-68 68 -71 162q0 12 8 14t12 -8 q25 -45 67 -57.5t80 6.5q96 35 158 7.5t78 -99.5zM770 174q-23 -92 -104 -143q-10 -6 -16.5 -1t-0.5 15q55 92 -28 154q-78 59 -85.5 133t46.5 117q18 18 32 0q29 -37 91 -87q96 -77 65 -188zM514 487q-12 -27 -31 -120q-16 -121 -129 -152q-96 -27 -176 18q-12 6 -10 14.5 t14 6.5q51 0 82 28.5t37 73.5q12 96 69.5 138.5t127.5 19.5q22 -7 16 -27z" />
<glyph horiz-adv-x="1183" d="M1061 670q-156 -113 -240 -113q-39 0 -65.5 35t-26.5 74q0 94 266 151l-16 -96zM793 981q-2 -37 -6.5 -77t-15.5 -92t-36.5 -85t-60.5 -33q-113 0 -113 97q0 84 76 231l63 -74zM1044 414l-86 -49l13 -97q-256 70 -256 162q0 39 26.5 74t63.5 35q85 0 239 -125zM541 748 q0 -31 -35 -63t-68 -32q-92 0 -190 232l98 2l33 92q162 -149 162 -231zM633 559q0 -16 -13.5 -29.5t-30 -13.5t-29.5 13.5t-13 29.5t13 29.5t29.5 13.5t30 -13.5t13.5 -29.5zM764 117l-92 37l-68 -72q-63 145 -63 227q0 100 116 101q107 0 107 -293zM436 565.5 q0 -61.5 -38 -82t-105 -20.5q-78 0 -170 20l53 82l-53 80q102 23 169.5 23t105.5 -20.5t38 -82zM537 371q0 -86 -177 -226l-28 95l-96 8q113 219 198 219q33 0 68 -31.5t35 -64.5z" />
<glyph horiz-adv-x="1212" d="M862 870q0 -45 -41 -45q-16 0 -29.5 13.5t-13.5 29.5q0 47 41 47q16 0 29.5 -14.5t13.5 -30.5zM997 567.5q0 -18.5 -11 -32t-29.5 -13.5t-31 13.5t-12.5 32t12.5 32.5t31 14t29.5 -14t11 -32.5zM559 948q0 -18 -13.5 -31.5t-31.5 -13.5q-16 0 -29.5 13.5t-13.5 29.5 q0 18 13.5 31.5t31.5 13.5q16 0 29.5 -13.5t13.5 -29.5zM657 563.5q0 -28.5 -19.5 -49t-48 -20.5t-47 20.5t-18.5 48.5q0 27 19.5 48.5t46 21.5t47 -20.5t20.5 -49zM848 256q0 -18 -12.5 -32.5t-31 -14.5t-30.5 13.5t-12 31.5t13 31.5t31.5 13.5t30 -12.5t11.5 -30.5z M309 745q0 -18 -13 -32.5t-32 -14.5q-16 0 -28.5 14.5t-12.5 30.5q0 18 12.5 31.5t31 13.5t30.5 -13.5t12 -29.5zM539 193q0 -16 -12.5 -29.5t-28.5 -13.5q-20 0 -32.5 13t-12.5 32q0 16 12 29.5t30.5 13.5t31 -13.5t12.5 -31.5zM301 409.5q0 -18.5 -12.5 -31.5t-30.5 -13 t-30.5 14t-12.5 33q0 16 12.5 29.5t28.5 13.5q20 0 32.5 -13.5t12.5 -32z" />
<glyph horiz-adv-x="2701" d="M2367 494q0 -12 -14 -28.5t-26 -16.5q-10 0 -35 12q0 4 -2 15t-2 18q0 29 32 28h11q36 1 36 -28zM2589 266q0 -29 -13 -37q-2 0 -28.5 -14t-55 -27.5t-34.5 -13.5q-23 0 -23 29q0 33 45 58.5t80 25.5q29 -1 29 -21zM1309 995q0 -29 -41 -28q-2 0 -64 12q-43 -6 -47 -6 q-33 0 -33 26q0 18 33 31q10 0 31.5 -7t25.5 -7q41 16 50 16q45 0 45 -37zM2626 -549q0 -8 -15.5 -19.5t-25.5 -11.5q-4 0 -5 5q-35 14 -34 28q0 12 13 20.5t28 8.5q12 0 25.5 -9.5t13.5 -21.5zM1417 483q0 -37 -31 -37q-10 0 -30.5 27t-26.5 41q0 20 29 21q23 0 41 -16 t18 -36zM1126 1325q0 -20 -25.5 -47t-45.5 -31q0 -8 -2 -23.5t-3 -27.5t-1 -22q0 -29 19 -79.5t19 -82.5q0 -197 -36 -252q-10 -14 -45 -30.5t-35 -31.5q0 -18 28.5 -35.5t28.5 -44.5q0 -35 -15.5 -47t-49.5 -12q-4 0 -34 16.5t-50.5 16.5t-37 -15.5t-48 -30t-88.5 -14.5 q-45 -23 -64 -22q-8 0 -44 14.5t-60 14.5q-12 0 -38 -4.5t-38 -4.5q-18 0 -31.5 7.5t-27 20.5t-23.5 20l-76 47q-8 18 -22 18q-2 0 -8.5 -2t-8.5 -2q-6 -4 -15 -16l-18 -23q-8 -10 -10 -10q-8 0 -8 20q0 6 3 11.5t8 8.5t9.5 5t12.5 5t10 3q-4 14 -21.5 19.5t-21.5 9.5 t-30.5 76.5t-57.5 70.5q-6 0 -16.5 -1t-16.5 -1q-20 0 -20 23q0 14 45 51l6 147q27 39 27 72q0 10 -3.5 29.5t-3.5 29.5q0 53 56 127q14 20 49 33.5t57.5 32t22.5 57.5q0 27 -12.5 53.5t-24.5 44t-12 19.5q0 20 20 20q16 0 31.5 -24.5t15.5 -42.5l41 -45q66 31 115 39 q10 2 34.5 3t36.5 3q14 4 31 61q8 12 23 13q23 0 35 -15q0 -4 -1.5 -10t-1.5 -8q0 -6 1.5 -17.5t1.5 -17.5q82 -6 94 -10t84 -60q8 -6 31.5 -11t31.5 -11l62 12q20 12 32 12q16 0 17 -10q0 -12 -20.5 -34.5t-20.5 -30.5q0 -27 41 -68q2 2 23 16l41 27q19 12 23.5 12t14.5 -6 t10 -8zM2490 -440q0 -18 -6 -25q0 -2 -22 -8l-47 -13q-25 -7 -31 -10q-53 -29 -111.5 -112.5t-68.5 -147.5v-4q0 -10 71.5 -56t71.5 -69q0 -27 -68 -26q-10 0 -14 4l-14 35q-4 2 -30 19l-48 32q-23 14 -27 14q-10 0 -80.5 -49t-87.5 -55q-156 -68 -280 -68q-23 0 -69 2 t-70 2q-27 0 -119 41t-105 41q-10 0 -16 -5t-12.5 -15.5t-8.5 -12.5q-2 -16 -104 -157q0 -31 -13.5 -86.5t-33.5 -55.5q-14 0 -24.5 15.5t-10.5 29.5q0 18 7 41t14.5 39.5l20.5 43t17 36.5q20 8 84 117q25 10 21 51v10q-109 57 -211 189q-23 27 -33 60.5t-15 77.5t-11 69 q-2 6 -8 27l-9 40q-4 18 -12 39t-19.5 32t-23.5 11t-34.5 -7t-33.5 -7q-14 0 -33.5 12t-19.5 25q0 37 37 36q12 0 40 -9t42 -9q31 0 44 35t13 69q0 29 -21.5 56.5t-44 45t-22.5 19.5q0 14 7 22.5t21.5 11.5t27 3t30 -2t23.5 -2q96 217 207 317q33 29 117.5 75t123.5 55 l203 32q6 0 36 -6l62 -13q33 -7 41 -9q104 29 109 28q25 0 24 -37l45 31q2 0 18.5 4t18.5 4q27 0 27 -26q0 -14 -27 -27v-2q0 -33 41 -69.5t76 -36.5q12 0 19.5 1t12.5 7t6 9t5 16.5t6 17.5q27 20 43 20h8q18 -18 19 -33q0 -18 -18.5 -37.5t-37.5 -23.5q25 -143 164 -156 q8 23 25 23q25 0 24 -23l-12 -20q-12 -20 -24.5 -52t-12.5 -59q0 -55 24.5 -88t50.5 -54.5t26 -47.5q0 -23 -16.5 -69t-16.5 -77q0 -61 63 -98v-18zM2367 -1085q0 -25 -28 -25q-37 0 -37 37q0 41 18 41h27q20 -47 20 -53zM825 408q0 -16 -11 -28.5t-28 -12.5q-31 0 -30 39 q0 12 12 20t25 8q32 1 32 -26zM604 453q0 -12 -14.5 -28.5t-26.5 -16.5q-10 0 -35 12q0 4 -2 15t-2 18q0 29 33 28h10q37 1 37 -28zM1851 -1032q0 -31 -30 -31q-14 0 -24.5 11.5t-10.5 25.5q0 25 22 29q43 -19 43 -35zM1909 -1272q0 -49 -35 -49q-8 0 -13.5 2t-8.5 3t-6 7 l-4 9q-1 2 -3 10t-2 10q-25 94 -25 119q0 39 33 39t33 -39q0 -31 -10 -49q41 -19 41 -62zM721 -61q0 -12 -8 -18.5t-21.5 -10.5t-17.5 -8q-6 -4 -10.5 -29t-26.5 -45q-4 -14 -8 -21.5t-7.5 -8.5t-12.5 -5t-17 -8q-14 -8 -33.5 -31.5t-40 -39t-47.5 -15.5q-20 0 -47 21.5 t-39 21.5t-31 -18l-12 2q-8 8 -2 28l-45 49q-4 23 -23.5 39.5t-19.5 22.5q4 8 16.5 16t14.5 10l6 13q-41 27 -41 63q0 8 6 19q6 6 9 35.5t11 39.5q20 27 21 31q0 6 -10 23l4 12q2 2 8 4l6 2q4 -8 19 -16q27 25 45 30t63 5q123 0 176 -54q66 -59 68 -90v-4q0 -6 -4 -17.5 t-4 -17.5q0 -8 5 -9t14 1t11 2q8 0 16.5 -8t8.5 -16zM1032 -662q0 -10 -17.5 -23t-19.5 -17q-6 -2 -22.5 -10.5t-26.5 -8.5q-16 0 -16 19q0 16 12 26t33.5 19.5t28.5 13.5q18 0 24 -8q4 -9 4 -11zM922 -756q0 -6 -23 -28q0 -20 -15.5 -36t-35.5 -16q-27 0 -27 37 q0 23 31 41.5t53 18.5q17 -1 17 -17zM524 -463q0 -74 -45 -74q-27 0 -43 20.5t-16 47.5q0 59 55 59q49 0 49 -53z" />
<glyph horiz-adv-x="1173" d="M1071 686l-16 12q-121 -16 -146 -34q-6 -6 -15 -24.5t-13 -23.5q-31 -25 -76 -24v-14l-6 12h-6q-23 -18 -13 -39q-4 6 -16 14q-20 -57 -10 -71q4 -4 4 -13v-8q12 4 20 12q18 14 25 37l90 -2l-4 -8l12 -2l27 4l2 -6l-6 -4l53 -10l-12 -13l22 -8l-14 -16l-8 16l-4 2l-3 -6 l-4 2l-4 12h-2v-8l-28 23l2 -9l-101 13q-16 -47 -86 -56q-6 -18 -23.5 -82.5t-30.5 -107.5t-36.5 -91t-50.5 -69q-31 -25 -59 -4q6 -6 18 -6t20 4q12 10 47 116.5t27 117.5l-6 2q70 131 90 204q-2 0 -5 3.5t-7 -3.5l-33 -51l-72 -107q-39 -56 -55 -71q10 -37 -6 -47 q6 33 0 41q-4 4 -6 4q-12 -16 -25.5 -45t-19.5 -49l-6 -21q4 59 8 88l-53 -20l-56 -121v-25v-18l11 -8l-50 6l25 35l-23 -12l17 18l-8 -2l12 29l-10 -2l32 53l-20 -10l43 69l-14 8l88 29l12 45l-25 -14l-45 -8l-12 -23l6 23l-4 -2l-12 -11l8 11l-72 -21l11 18h-48l5 17 l-19 -2l8 4l-4 16l-24 -12l18 78h-22l36 26h-16l23 29h-9l13 6v11l-9 -3l5 5q2 2 9 7t12 11t9 13t2 14q16 -4 35 5t41.5 29.5t30.5 24.5h-90q-6 -6 -20.5 -19.5t-20.5 -19.5l-2 -10q2 0 8 -3l10 -5q-27 4 -37 -2l-53 -88l2 26q-4 0 -11 2t-12.5 3t-11.5 -1t-12 -6l-8 -8 q2 6 4 10l-64 -8l9 10l-27 -8l4 8l-23 -6l5 8l-29 -10l-4 -4l2 45l37 -16l6 6q94 -4 115 -10l2 6l-7 2q8 0 22.5 3t20.5 3v4l-6 6l-4 2q12 20 29 35q-127 20 -162 68q-29 35 12 69q47 37 188.5 40t201.5 -11q18 37 20 33l55 49l6 90l17 -4l-2 12l-17 10l-2 2l11 -4l4 6l-9 7 l-4 4l11 -4v26l-11 6l23 4l10 -4l4 4l-18 -43l-6 -2l12 -6v-4l-4 -2v-4l8 -4l2 4l-10 -37l6 -4l4 6l-18 -72l-43 -36q-18 -14 -27 -23q16 -10 57 -10t54 12q-4 4 -25 4h27v-2q6 -2 8 0q4 2 8 10q-6 0 -10 7l-6 6h26q0 2 -2 4q-2 4 2 13t10.5 19.5t6.5 14.5q8 -2 16 2 q0 2 2 4l4 4q-4 -4 -4 -10q4 4 12 8l7 12v-12q14 0 30 12q6 6 19 21q-2 -2 -2 -12q12 0 22 8l8 49q8 49 23 65q0 2 -3 8.5t-1 8.5q25 0 31 -8q-6 -29 -23.5 -78t-19.5 -60q2 -2 4 -2t2 2q-25 -10 -33 -16l-6 -6q43 -29 73 -2h3q-4 -2 -13 -14q16 -4 35 0q2 -4 2 -16.5 t2 -16.5q14 0 19 2q-25 -18 -23 -72l166 31zM659 381l-24 -55l-4 4l22 55zM629 317l-68 -106l-4 6l66 105zM569 176l-2 -74h-8l2 72zM512 129l-6 -2l-10 45l4 4zM885 743l-4 7l-17 -7l2 -6zM893 778q-8 0 -41 9l-52 15q-19 5 -34 -1q-10 -6 -12 -15l28 -36q10 -14 25 -5 q4 2 10 10.5t10 10.5q-4 -2 -12 -10q-8 -4 -10 -4q-10 10 -21 10q0 2 2 4l6 5q3 3 3 5q-4 -6 -7 -8q-2 -6 -10 2q-14 23 0 31q39 -10 45 -17q16 2 23.5 1t23 -4t23.5 -3zM590 672q-2 2 -11.5 -2t-11.5 -6q-16 -25 -14 -33q4 4 17.5 18.5t19.5 22.5zM741 522l-6 2l-30 -147 l6 -4zM557 709q-25 2 -84 6t-92 5t-81 0t-89 -9q53 6 152.5 -6.5t146.5 -10.5l-31 11q25 0 78 4zM395 684l-22 2v-6l22 -4v8zM600 698q-147 -12 -217 -30l133 12q-12 -12 -6 -21q2 0 12 3.5t17 5.5q-2 -2 -13.5 -8.5t-13.5 -10.5l-10 21q-20 4 -50 0t-72 -13.5t-52 -11.5 l2 2q6 4 23.5 9.5t21.5 7.5q4 4 6 8t4 6q-156 12 -248 0q-2 -4 -4 -11.5t-3 -9.5t-2 -7t0 -9t4 -9t7 -11q23 -31 88.5 -51.5t96.5 -2.5q0 -4 -9 -12l23 16l-14 4q-2 8 10 17q-86 23 -109 20v14q0 9 -2 13q-2 2 -35.5 10t-40.5 13q10 4 40 -3.5t38 -15.5q4 -4 5 -13t3 -14 q25 12 50 19q0 -2 -1 -5t-3 -7v-5q2 -4 18 -12q29 -14 76 10.5t73 14.5q-4 -2 -24.5 -6t-30.5 -11q29 -14 92 -4q-6 12 6 19q6 6 23.5 14t24.5 12l-11 -20q2 -2 7.5 1t5.5 5l22 23q-4 -8 -10 -5l20 29l21 2zM428 688q-238 35 -276 0l-5 -4q158 6 281 4zM700 436 q-25 -57 -60.5 -173t-55.5 -169l24 19q27 23 62 133t26 147q0 -2 -12 -84q-4 33 -4 41t9 44t11 42zM459 705v-7l-80 11l2 6zM322 643l-31 -12l-2 6l28 10zM674 330l-51 -185l-7 2l52 185z" />
<glyph horiz-adv-x="1662" d="M1663 852q0 -98 -124 -207.5t-298 -171.5q-43 -229 -216 -361t-392 -132q-246 0 -398.5 138t-152.5 388q0 279 188.5 460t421.5 181q397 0 398 -201q0 -43 -15.5 -76.5t-45.5 -58.5t-43 -32l-40 -21q-8 8 -50 57t-64.5 69.5t-62.5 43t-77 22.5q-80 0 -132 -29.5 t-75.5 -89t-32 -121t-8.5 -153.5q0 -168 63.5 -271.5t162.5 -103.5q104 0 153 60.5t70 187.5q-174 20 -305 131q90 98 117 131q203 -31 364 -30q170 2 253 47t83 141q0 27 -68 119q57 70 158 69q168 0 168 -186z" />
<glyph horiz-adv-x="1624" d="M1696 1012q0 -117 -84 -205t-188.5 -126t-217.5 -50q-20 -131 -67 -209t-133 -162q139 -82 233 -82q35 0 88 17l70 -119q-111 -119 -256 -119q-156 0 -350 111q-156 -98 -318 -99q-66 0 -119 6.5t-110.5 27t-95 54t-62.5 92t-25 136.5q0 90 62.5 171t150.5 136 q-51 98 -51 184q0 158 111.5 267.5t269.5 109.5q70 0 130.5 -13.5t113.5 -58.5t53 -120.5t-59 -124.5q137 -20 250 -21q317 0 317 174q0 59 -72 127q70 76 189 76q74 0 122 -51t48 -129zM920 639q-219 31 -363 96q92 98 92 185q0 33 -24.5 53t-65.5 20q-39 0 -58.5 -32.5 t-19.5 -77.5q0 -113 113 -255.5t248 -252.5q62 125 78 264zM631 174q-147 117 -254 254q-8 -35 -8 -80q0 -82 49 -135t129 -53q37 0 84 14z" />
<glyph horiz-adv-x="1851" d="M2232 -203q-70 -74 -141.5 -108.5t-175.5 -34.5q-170 0 -429 118.5t-519 307.5q-199 -127 -406 -127q-219 0 -359.5 94t-140.5 303q0 113 76 213.5t191 167.5q-80 143 -80 262q0 190 135 335t348 145q348 0 348 -244q0 -100 -121 -193q260 -76 367 -75q315 2 315 200 q0 43 -45 109q57 61 144 61q76 0 122 -46t46 -132q0 -104 -127 -220t-312 -167q-61 -242 -237 -453q240 -172 470 -285.5t343 -113.5q53 0 108 20zM1169 739q-248 23 -458 209q43 45 67.5 118t24.5 130q0 123 -127 123q-53 0 -86 -40t-33 -110q0 -156 139.5 -347t360.5 -376 q75 125 112 293zM803 207q-223 180 -367 364q-27 -68 -26 -137q0 -115 67.5 -186.5t177.5 -71.5q78 0 148 31z" />
<glyph horiz-adv-x="866" d="M659 573l-34 -28l24 28h10zM705 262l-60 -6l-8 -6l-12 -6l-88 4l-7 4l-8 -4l-4 10l-2 -4l-12 6l-19 -4q-39 41 -59 59q-4 0 -10 -1t-13.5 -3t-11.5 -2v-4q0 -6 -6 -6q-4 0 -4 2t-2 2q0 -2 -1 -4t-1 -6l18 -94l43 -105v-28h-10l-16 61l2 20l-19 9q-4 10 -9 25.5t-12 55 t-5 68.5q-2 2 -7 2q-10 0 -4 -6q-4 2 -16 2q-6 0 -14.5 -21.5t-12.5 -23.5t-4 -10q-2 0 -6 -3t-8 -3q-2 0 -4 1t-4 1q-20 0 -37 -11q8 8 -6 9q-12 0 -13 -6q-2 0 -4 4t-6 4q-2 0 -4 -1t-4 -1q-4 0 -15.5 8t-15.5 10q-18 -10 -6 -35q-12 -8 -43 -69q0 4 -6 12t-6 10 q10 6 18.5 19.5t13.5 24.5t12 34t11 31q0 4 -6 20.5t-6 20.5q0 8 7 30.5t7 28.5v29q-4 4 -14 4q-18 0 -45 41q6 -2 12 -6l10 -6.5l12 -7.5l14 -10q7 -5 9 -5q-2 8 -5 26.5t-3 20.5q0 14 13.5 38t25.5 21v-8q0 -2 -6 -9t-11.5 -19.5t-5.5 -28.5q0 -47 9 -47q2 0 10 2t12 2 t16.5 -8t16.5 -8q49 0 68.5 -20.5t27.5 -20.5q23 0 23 129l8 -4l35 83l2 -10l-19 -61l-18 -58q8 -14 8 -20q0 -2 -6 -20.5t-8 -26.5l8 -8h14l29 14q102 86 108 86q4 -2 5 -6q29 37 79 74l-16 -19v-10q-72 -63 -96 -80q-12 0 -23 -10q-6 2 -15 -7.5l-18 -19.5l-6 -8l-6 2 l2 -6l-14 -12v-7l8 -2l16 9l13 -7q12 16 20 18.5t30 12.5l38 18q16 7 22 7q29 0 48.5 -18.5t19.5 -43.5q0 -2 -4 -10t-10.5 -17.5t-8.5 -15.5l-4 2h-8q-6 0 -6 -6q-4 0 -8 3t-6 3v-12q-4 2 -7 4q-12 -8 -24 -8q-2 0 -7 5t-5 9l-13 -2q0 -4 6 -4q-2 -2 -12 4q-4 -8 -2 -10 q-8 4 -10 4l-6 -6q-14 6 -37 29l-14 -15v-8l6 2l61 -43l17 -4l61 -2l10 6l12 -6l21 8zM301 375q-12 8 -55 14q35 -20 33 -35q8 7 22 21zM250 393q-6 6 -10 8q-16 -4 -23 -4q2 0 14.5 -1t18.5 -3zM213 395q0 4 -20 4v-16q20 0 20 12zM309 287l-6 8l-20 10q-4 0 -7 -4h-2v8 h-10q0 -27 -10 -26h-21q-4 0 -10 6t-8 6q-29 0 -29 -19v-10h2q4 2 9 2q2 0 5 -5t7 -5q10 0 17 3t16 3q4 0 16 -4t14 -4q8 0 15.5 6t13.5 14.5t8 10.5z" />
<glyph horiz-adv-x="1746" d="M1765 856q-182 -109 -360 -129v-39q0 -303 -241.5 -517t-583.5 -214q-213 0 -357.5 96.5t-144.5 292.5q0 227 207 365q-119 96 -119 235q0 186 147.5 356.5t341.5 170.5q152 0 248 -69t96 -218q-55 -27 -146 -31t-136 10q0 61 -33 98t-86 37q-172 0 -172 -190 q0 -205 182 -358q-84 -84 -117.5 -152t-33.5 -180q0 -100 69.5 -184t167.5 -84q326 0 377 585q-229 41 -350 137l125 101q166 -47 340 -47q225 0 409 102q59 -84 170 -174z" />
<glyph horiz-adv-x="1171" d="M967 1169l-52 -137l-245 72l71 -1120l-155 -50l-156 46l72 1124l-246 -72l-51 137l49 158l248 -72l-72 261l156 49l155 -49l-71 -261l248 72z" />
<glyph horiz-adv-x="1871" d="M2173 1362q0 -125 -171 -256t-400 -158q-57 -156 -193.5 -327.5t-310.5 -315t-383 -238t-391 -94.5q-168 0 -215.5 76t-47.5 285q0 119 35 251t104.5 261t196.5 213t289 84q184 0 256 -53.5t72 -174.5q0 -195 -146.5 -306t-466.5 -175q-4 -86 2 -172q10 -2 84 -2 q240 0 459 191.5t354 523.5q-174 49 -327 184q90 100 117 133q111 -43 269.5 -83t231.5 -40q309 2 310 207q0 47 -41 103q76 61 155 61q66 0 112 -50t46 -128zM664 870q0 55 -74 56q-86 0 -132 -104.5t-55 -243.5q141 31 201 93t60 199z" />
<glyph horiz-adv-x="1486" d="M1409 215q0 -82 -35 -126t-123 -44q-76 0 -141 74q61 53 61 145q0 43 -16 75t-52 50.5t-69 30.5t-87 15t-83.5 4t-86 0t-66.5 -1q-117 0 -263.5 60.5t-259 170t-112.5 226.5q0 178 160 178q88 0 157 -80q-78 -80 -78 -141q0 -43 17.5 -75t52.5 -49t67.5 -29.5t87 -15.5 t85 -4t85 0t66.5 1q117 0 263.5 -62.5t258 -174t111.5 -228.5z" />
<glyph horiz-adv-x="1882" d="M2095 965q0 -129 -104 -260q-90 55 -216 96t-235 41q-47 0 -119 -11q-186 -348 -496.5 -603t-605.5 -255q-158 0 -208 84t-50 297q0 123 37 254t110 253t203 201t294 79q289 0 288 -150q0 -63 -43 -123q104 41 234 86q80 207 80 426l309 -32q0 -131 -55 -301 q92 16 159 16q170 0 256 -23.5t162 -74.5zM684 854q0 76 -96 76q-123 0 -166 -301l209 100q53 72 53 125zM1081 739q-190 -63 -673 -270q-4 -92 -5 -217q37 -8 48 -8q160 0 339.5 156.5t290.5 338.5z" />
<glyph horiz-adv-x="1927" d="M1886 293q-268 -313 -530 -313q-119 0 -178.5 41.5t-59.5 166.5l51 387q-88 -162 -242.5 -301t-316 -218t-284.5 -79q-82 0 -137.5 29t-82 86.5t-36 117.5t-9.5 144q0 104 16.5 206t61.5 210.5t114 190t182.5 134t258.5 52.5q307 0 307 -203q0 -98 -37.5 -178t-95 -130 t-142.5 -89t-159.5 -58.5t-165.5 -35.5q-8 -135 -8 -213q23 -8 47 -9q88 0 215 60q178 84 319.5 261t215.5 378h-129l22 188h154l29 223l333 86l-36 -309h301l-21 -188h-307l-76 -705q18 0 27 2q131 10 303 166zM668 852q0 25 -20.5 50.5t-69.5 25.5q-57 0 -97.5 -62.5 t-55.5 -130t-22 -141.5q51 10 82 19.5t70 27.5t60.5 44t37 68t15.5 99z" />
<glyph horiz-adv-x="2158" d="M2118 74q-66 -33 -192 -65t-189 -32q-106 0 -169 10.5t-119 46.5t-81 111.5t-22 198.5l6 569h-164v129q254 143 254 342q0 131 -64.5 215t-185.5 84q-129 0 -205 -91t-76 -228q0 -96 42 -178t84 -139.5t42 -98.5q0 -90 -28.5 -132t-104.5 -75q-70 80 -149.5 146.5 t-126.5 66.5q-125 0 -191.5 -87t-66.5 -302q0 -141 87 -229t224 -88q141 0 278 24l56 -176q-117 -63 -213 -88.5t-217 -25.5q-303 0 -434.5 136t-131.5 453q0 223 167 399.5t440 176.5q90 0 182 -17q-63 100 -64 234q0 182 139.5 313t327.5 131q203 0 325 -118.5t122 -325.5 q0 -121 -80 -246h455v-205h-375v-344l6 -252q2 -43 28.5 -57t100.5 -14q154 0 254 10z" />
<glyph horiz-adv-x="1884" d="M1847 125q0 -82 -16 -125h-993q-12 68 -9 125l72 33q39 18 39 73l4 330v109q0 47 -1 72.5t-9 62.5t-22.5 56.5t-44 33.5t-72.5 14q-158 0 -252 -35v-313l4 -301q0 -78 33 -92l94 -39q0 -80 -12 -129h-609q-6 45 -6 121l98 33q29 10 39.5 25.5t10.5 53.5l6 328v393h-160 v152q203 43 414 43q80 0 80 -72v-67q180 137 368 137q80 0 140.5 -10.5t101.5 -24.5t68.5 -44t42 -54.5t21.5 -69.5t8 -75.5t1 -88.5v-219l6 -338q4 -63 29 -65z" />
<glyph horiz-adv-x="2613" d="M2572 125q0 -82 -16 -125h-584q-12 68 -8 125l72 33q39 18 39 73l4 330v109q0 57 -3 91t-16.5 72.5t-46.5 57t-84 18.5q-160 0 -252 -35v-313l4 -301q0 -74 33 -92l74 -39q0 -80 -12 -129h-588q-8 33 -8 121l100 33q29 8 38 24.5t11 54.5l6 328l2 823q0 248 -186 248 q-119 0 -179.5 -70.5t-60.5 -197.5q0 -106 42 -186t84 -133.5t42 -96.5q0 -90 -28.5 -132t-104.5 -75q-70 80 -149.5 146.5t-126.5 66.5q-125 0 -191.5 -87t-66.5 -302q0 -141 87 -229t224 -88q141 0 278 24l56 -176q-117 -63 -213 -88.5t-217 -25.5q-303 0 -434.5 136 t-131.5 453q0 223 167 399.5t440 176.5q90 0 182 -17q-63 100 -64 234q0 182 139.5 313t327.5 131q199 0 307.5 -116.5t108.5 -327.5v-354q180 137 369 137q80 0 140 -10.5t101 -24.5t69 -44t42 -54.5t21.5 -69.5t8.5 -75.5t1 -88.5v-219l6 -338q0 -57 29 -65z" />
<glyph horiz-adv-x="0" d="M113 -451h-197v17h74v434h-74v16h74v1086h-74v16h74v441h-74v16h197v-16h-101v-441h101v-16h-101v-1086h101v-16h-101v-434h101v-17z" />
<glyph horiz-adv-x="2463" d="M2462 131l-45 -174q-209 16 -333 87t-231 222l-180 254v-260q0 -59 37 -92l51 -47q0 -72 -12 -121h-586q-8 33 -8 121l121 33q31 8 40 24.5t9 54.5l6 328v766q0 156 -41 230.5t-139 74.5q-104 0 -172 -60.5t-68 -185.5q0 -92 27 -167.5t57.5 -114.5t57 -81t26.5 -75 q0 -90 -28.5 -132t-104.5 -75q-70 80 -149.5 146.5t-126.5 66.5q-125 0 -191.5 -87t-66.5 -302q0 -141 87 -229t224 -88q141 0 278 24l56 -176q-117 -63 -213 -88.5t-217 -25.5q-303 0 -434.5 136t-131.5 453q0 223 167 399.5t440 176.5q96 0 182 -19q-61 113 -62 244 q0 182 134.5 309t322.5 127q207 0 317.5 -115.5t110.5 -344.5v-723l299 252q27 25 27 53q0 33 -31 49l-67 35q0 70 10 104h471v-110l-426 -340l201 -248l110 -133q39 -45 93.5 -91.5t101.5 -64.5z" />
<glyph horiz-adv-x="1355" d="M1321 1393l-55 -140q-80 -10 -95 -28q-53 -66 -167.5 -239t-174.5 -273h385v-129h-385v-119l2 -55h383v-129h-376l14 -281h-393l12 281h-330v129h336l4 59v115h-340v129h340q-240 393 -303 475q-33 43 -131 69l-12 140q205 57 375 57q68 -76 317 -575q27 43 153 272 t183 307q106 -6 258 -65z" />
<glyph horiz-adv-x="1802" d="M1778 713h-211l-62 350l-20 127l-144 -477h-235l-102 450l-19 -86l-78 -364h-194l180 735h225l94 -399l31 -134l39 136l117 397h229zM651 940q0 -121 -100 -181.5t-227 -60.5q-168 0 -275 64l62 162q129 -96 229 -97q123 0 123 60q0 20 -59.5 45.5l-131 53.5t-131 88.5 t-59.5 142.5q0 100 89 174.5t189 74.5q180 0 289 -61l-67 -150q-109 82 -217 82q-113 0 -113 -61q0 -20 62.5 -49t137 -57.5t137 -90t62.5 -139.5z" />
<glyph horiz-adv-x="1024" d="M1024 412h-1024v299h1024v-299z" />
<glyph horiz-adv-x="1024" d="M1024 616h-1024v97h1024v-97zM1024 412h-1024v96h1024v-96z" />
<glyph horiz-adv-x="1024" d="M1024 575h-1024v138h1024v-138zM1024 412h-1024v137h1024v-137z" />
<glyph horiz-adv-x="1024" d="M971 483h-152v152h152v-152zM766 483h-152v152h152v-152zM561 483h-151v152h151v-152zM356 483h-151v152h151v-152zM152 483h-152v152h152v-152z" />
<glyph horiz-adv-x="1024" d="M989 483h-67v152h67v-152zM887 483h-68v152h68v-152zM784 483h-67v152h67v-152zM682 483h-68v152h68v-152zM580 483h-68v152h68v-152zM477 483h-67v152h67v-152zM375 483h-68v152h68v-152zM272 483h-67v152h67v-152zM170 483h-68v152h68v-152zM68 483h-68v152h68v-152z " />
<glyph horiz-adv-x="1024" d="M1096 635l-107 -152h-67l106 152h68zM993 635l-106 -152h-68l107 152h67zM891 635l-107 -152h-67l106 152h68zM788 635l-106 -152h-68l107 152h67zM686 635l-106 -152h-68l106 152h68zM584 635l-107 -152h-67l106 152h68zM481 635l-106 -152h-68l107 152h67zM379 635 l-107 -152h-67l106 152h68zM276 635l-106 -152h-68l107 152h67zM174 635l-106 -152h-68l106 152h68z" />
<glyph horiz-adv-x="1024" d="M1073 635l-102 -152h-152l103 152h151zM868 635l-102 -152h-152l103 152h151zM664 635l-103 -152h-151l102 152h152zM459 635l-103 -152h-151l102 152h152zM254 635l-102 -152h-152l102 152h152z" />
<glyph horiz-adv-x="1024" d="M1024 655h-1024v56h1024v-56zM1024 575h-1024v54h1024v-54zM1024 494h-1024v53h1024v-53zM1024 412h-1024v53h1024v-53z" />
<glyph horiz-adv-x="1024" d="M1024 686h-1024v25h1024v-25zM1024 647h-1024v25h1024v-25zM1024 608h-1024v25h1024v-25zM1024 567h-1024v27h1024v-27zM1024 528h-1024v25h1024v-25zM1024 489h-1024v25h1024v-25zM1024 451h-1024v24h1024v-24zM1024 412h-1024v24h1024v-24z" />
<glyph horiz-adv-x="1024" d="M989 412h-67v299h67v-299zM887 412h-68v299h68v-299zM784 412h-67v299h67v-299zM682 412h-68v299h68v-299zM580 412h-68v299h68v-299zM477 412h-67v299h67v-299zM375 412h-68v299h68v-299zM272 412h-67v299h67v-299zM170 412h-68v299h68v-299zM68 412h-68v299h68v-299z " />
<glyph horiz-adv-x="1189" d="M1065 285h-952l477 825z" />
<glyph horiz-adv-x="1189" d="M1155 559l-352 -213l-213 -352l-213 352l-354 213l354 215l213 352l213 -352z" />
<glyph horiz-adv-x="1189" d="M1116 731l-246 -254l45 -364l-325 161l-326 -161l45 364l-246 254l353 76l174 307l172 -307z" />
<glyph horiz-adv-x="1189" d="M1094 268l-351 23l-153 -314l-156 314l-350 -23l195 291l-195 293l350 -23l156 314l153 -314l351 23l-195 -293z" />
<glyph horiz-adv-x="1605" d="M1440 385h-1288l643 1114z" />
<glyph horiz-adv-x="1605" d="M1561 756l-478 -287l-288 -477l-287 477l-477 287l477 288l287 478l288 -478z" />
<glyph horiz-adv-x="1605" d="M1507 987l-333 -344l61 -491l-440 217l-439 -217l62 491l-334 344l477 103l234 413l235 -413z" />
<glyph horiz-adv-x="1605" d="M1477 362l-471 31l-211 -424l-209 424l-473 -31l264 394l-264 393l473 -31l209 426l211 -426l471 31l-263 -393z" />
<glyph horiz-adv-x="1486" d="M1303 539l-371 53l-53 24l24 -53l53 -370h-426l54 370l24 53l-53 -24l-371 -53v426l371 -54l53 -24l-24 51l-54 373h426l-53 -371l-24 -53l53 24l371 54v-426z" />
<glyph horiz-adv-x="741" d="M717 848q-88 -82 -164 -82q-74 0 -104.5 21.5t-36.5 86.5q-96 -106 -199 -106q-184 0 -184 154q0 186 274 223q18 2 53 5t52 5v76q0 37 -18.5 49t-96.5 12q-82 0 -184 -24l-39 153q117 43 256 43q297 0 297 -200v-150l8 -209h78zM410 938v121q-53 -4 -60 -6 q-109 -14 -108 -76q0 -53 61 -53q70 0 107 14z" />
<glyph horiz-adv-x="823" d="M786 1141q0 -162 -108.5 -266.5t-276.5 -104.5q-154 0 -292 35l8 323v467h-105v88q154 33 246 33q45 0 58.5 -14t13.5 -60v-514l6 -219q49 -6 70 -6q74 0 113.5 64.5t39.5 162.5q0 203 -131 203q-33 0 -49 -2l-17 107q66 25 109 24q164 0 239.5 -68.5t75.5 -252.5z" />
<glyph horiz-adv-x="673" d="M655 1343q0 -57 -17 -82.5t-65 -43.5q-113 131 -167 131q-72 0 -111 -51.5t-39 -178.5q0 -82 52 -133t130 -51q94 0 168 14l35 -110q-129 -70 -264 -70q-182 0 -262 82t-80 270q0 133 101.5 239.5t266.5 106.5q104 0 178 -32t74 -91z" />
<glyph horiz-adv-x="827" d="M803 834q-49 -27 -68.5 -36.5t-63.5 -19.5t-98 -10q-45 0 -67.5 30.5t-22.5 69.5q-88 -98 -176 -98q-123 0 -197.5 67.5t-74.5 252.5q0 166 105.5 265t265.5 99h81v141h-104v99q131 23 244 22q45 0 60 -14t15 -60v-516l5 -221h79zM487 1128v213q-45 8 -86 9 q-141 0 -141 -250q0 -72 39 -120t90 -48q45 0 94 12z" />
<glyph horiz-adv-x="729" d="M698 1104h-440q4 -82 55.5 -126t130.5 -44q113 0 207 18l35 -112q-137 -72 -272 -72q-190 0 -284.5 68.5t-94.5 259.5q0 139 99 251.5t257 112.5q307 0 307 -293v-63zM477 1194q0 74 -26.5 115t-69.5 41q-129 0 -129 -156h225z" />
<glyph horiz-adv-x="530" d="M647 1622q0 -82 -96 -125q-78 115 -109 115q-41 0 -73.5 -28t-32.5 -73v-61h145v-100h-145v-222l4 -186q0 -51 59 -61q111 -20 119 -25v-2v-6v-7q0 -3 -1 -9.5t-1 -11.5t-1 -11t-2 -11l-2 -11q-1 -5 -3 -9h-477q-6 35 -6 78l59 14q33 8 33 74l2 184v222h-99v75l99 25v16 q0 100 98 178t205 78q225 0 225 -100z" />
<glyph horiz-adv-x="753" d="M750 1321h-121q10 -37 10 -66q0 -111 -83 -170t-220 -59q-78 0 -137 14v-98h223q168 0 227.5 -38t59.5 -140q0 -121 -119 -190.5t-289 -69.5q-279 0 -278 147q0 43 31.5 81t70.5 52q-31 0 -54.5 20.5t-23.5 63.5q0 72 86 199q-92 51 -92 158q0 111 78 178t215 67 q143 0 227 -59l189 51v-141zM424 1249q0 115 -92 115t-92 -131q0 -109 92 -109t92 125zM502 717q0 57 -62 57h-237q-23 -27 -23 -55q0 -39 49.5 -65.5t147.5 -26.5q125 0 125 90z" />
<glyph horiz-adv-x="464" d="M360 1659q0 -33 -49 -84t-86 -51q-35 0 -83 50t-48 85t49.5 84t81.5 49q35 0 85 -49t50 -84zM442 858q0 -45 -8 -80h-407q-4 16 -4 80l71 21q29 8 29 45l4 192v234h-104v94q121 27 253 26q33 0 49.5 -12t16.5 -49v-295l2 -176q0 -51 18 -57z" />
<glyph horiz-adv-x="815" d="M815 860l-29 -108q-133 10 -206.5 54t-141.5 140l-96 137l2 -149q0 -35 18 -53l29 -29q0 -47 -6 -74h-358q-4 16 -4 74l73 20q27 4 27 43l4 201v479h-100v97q129 25 249 24q35 0 50.5 -12t15.5 -47v-500l176 146q16 16 17 30q0 20 -19 31l-39 20q0 43 6 66h287v-70 l-256 -198l117 -142q6 -8 22.5 -27.5t22.5 -27.5t19.5 -24.5t20.5 -23.5l19 -19q12 -12 21 -20l18 -15q10 -8 20.5 -13.5t20.5 -9.5z" />
<glyph horiz-adv-x="473" d="M455 858q0 -53 -9 -80h-407q-4 20 -4 74l74 20q16 4 21 13.5t5 32.5l4 198v479h-100v97q98 25 250 24q35 0 50 -12t15 -47v-543l2 -174q0 -53 21 -59z" />
<glyph horiz-adv-x="1337" d="M1313 854q0 -51 -10 -76h-355q-8 37 -6 76l43 20q23 8 23 41l2 201v60q0 37 -2 54t-8.5 41.5t-25 36t-48.5 11.5q-100 0 -150 -16q2 -18 2 -56v-133l2 -199q0 -35 17 -41l67 -20q0 -41 -10 -76h-354q-8 37 -6 76l43 20q23 8 22 44l4 198v60q0 47 -3 71.5t-23.5 48 t-59.5 23.5q-98 0 -147 -16v-189l2 -176q0 -51 18 -57l62 -25q0 -43 -9 -78h-376q-6 23 -7 74l62 20q18 4 23.5 13.5t5.5 32.5l4 198v234h-90v92q125 27 251 26q47 0 48 -43v-41q104 82 219 82q182 0 219 -88q113 88 229 88q84 0 134.5 -14t71 -50t24.5 -64.5t4 -90.5v-133 l4 -199q0 -35 16 -41z" />
<glyph horiz-adv-x="784" d="M750 1122q0 -137 -106.5 -245.5t-258.5 -108.5q-168 0 -259 84t-91 252q0 137 105.5 249.5t254.5 112.5q355 0 355 -344zM520 1110q0 233 -137 233q-41 0 -67.5 -20t-37 -60t-13.5 -69t-3 -72q0 -233 141 -233q117 0 117 221z" />
<glyph horiz-adv-x="833" d="M799 1122q0 -195 -108.5 -274.5t-274.5 -79.5q-45 0 -62 2l2 -106q0 -8 1 -15.5t4.5 -12.5l5.5 -8t9 -5t9 -3.5t12.5 -4.5t12.5 -3l86 -20q0 -49 -9 -84h-460q-6 23 -7 80l48 14q53 14 57 74l4 430v244h-100v90q119 31 254 30q55 0 55 -55v-20q68 72 162 71 q145 0 222 -72.5t77 -271.5zM571 1100q0 111 -32.5 173t-94.5 62q-49 0 -98 -12v-219l4 -227q33 -8 70 -9q74 0 112.5 66t38.5 166z" />
<glyph horiz-adv-x="819" d="M793 590q0 -51 -7 -82h-419q-4 29 -5 80l64 14q45 8 49 70l4 198q-31 -33 -47 -48t-53 -33.5t-74 -18.5q-272 0 -272 332q0 166 105.5 266t264.5 100q158 0 297 -43v-428l9 -354q0 -18 10 -25.5t35 -15.5zM485 1114v227q-37 10 -86 11q-141 0 -141 -254q0 -172 129 -172 q37 0 94 20z" />
<glyph horiz-adv-x="655" d="M651 1425l-71 -176q-66 39 -131.5 39t-106.5 -20v-152l4 -180q0 -27 16 -29l162 -39q0 -61 -10 -90h-487q-6 33 -7 78l54 14q4 2 12 4.5t11 2.5t8.5 3t7.5 4t5 5t4 8t2 10t1 15l2 194v234h-100v94q147 25 247 24q61 0 62 -51v-45q74 92 168 92q86 0 147 -39z" />
<glyph horiz-adv-x="655" d="M614 997q0 -121 -95 -178t-214 -57q-133 0 -270 59l12 174h74q23 -117 180 -116q55 0 73.5 9t18.5 40q0 25 -33.5 45t-81 38.5t-94.5 44t-80.5 73t-33.5 112.5q0 106 80.5 164.5t195.5 58.5q125 0 256 -57l-24 -176l-72 8q-10 35 -21.5 54.5t-48.5 38t-98 18.5 q-74 0 -74 -54q0 -25 54.5 -51t121 -50t120.5 -76t54 -122z" />
<glyph horiz-adv-x="616" d="M590 825q-41 -20 -121 -40.5t-119 -20.5q-125 0 -180 41t-53 182l4 336h-98v80l266 184h51v-137h225v-127h-225v-203l4 -151q0 -20 15.5 -27.5t56.5 -7.5q106 0 157 4z" />
<glyph horiz-adv-x="892" d="M868 817q-90 -47 -194 -47q-111 0 -113 100q-113 -104 -211 -104q-78 0 -126 16.5t-68.5 52t-25.5 66.5t-5 84v365h-100v84q158 35 213 34q102 0 102 -86v-268l-2 -100q0 -92 59 -92q82 0 154 22l4 170v236h-84v84q162 35 197 34q102 0 102 -86v-270l8 -207h76z" />
<glyph horiz-adv-x="727" d="M721 1362q-37 -37 -74 -115l-215 -479l-160 -35l-200 576q-10 35 -47 55l16 86h319v-109h-59l119 -395l104 311q8 16 6 37t-10 29l-53 33l6 94h248v-88z" />
<glyph horiz-adv-x="686" d="M649 1004l-47 -226h-528l-37 92l385 424h-234q-10 0 -19 -4t-18.5 -15t-14.5 -18.5l-15 -23.5l-15 -23q-41 14 -57 27l57 213h508l-2 -133l-366 -379h213q35 0 72.5 28.5t52.5 55.5q42 -6 65 -18z" />
<glyph horiz-adv-x="1234" d="M1214 106q0 -53 -16 -106h-528q-20 49 -21 123l96 33q35 12 39 41.5t-10 56.5l-51 154h-324l-61 -191q-12 -41 45 -57l127 -37q0 -76 -14 -123h-463q-12 43 -13 109l31 28q29 29 47 66l394 887l274 57l377 -948q10 -29 37 -58zM672 575l-70 222l-22 110h-7l-32 -106 l-76 -226h207z" />
<glyph horiz-adv-x="1304" d="M1202 365q0 -164 -127 -264.5t-366 -100.5h-594q-12 78 -13 121l72 20q63 18 66 62l2 246v477q0 43 -78 63l-60 19q0 74 13 110h545q461 0 460 -299q0 -70 -52 -115t-122 -69q92 -27 173 -96.5t81 -173.5zM791 803q0 68 -32 101.5t-132 33.5h-74v-276h88q92 0 121 37.5 t29 103.5zM872 330q0 74 -53 114.5t-201 40.5h-65v-39l4 -268h123q192 0 192 152z" />
<glyph horiz-adv-x="1220" d="M1157 86q-213 -96 -393 -96q-322 0 -492 126t-170 414q0 248 192.5 430.5t463.5 182.5q221 0 393 -78v-297q-57 -6 -137 0q-72 184 -264 184q-150 0 -238 -92t-88 -293q0 -156 108.5 -249t253.5 -93q152 0 314 49z" />
<glyph horiz-adv-x="1429" d="M1327 578q0 -283 -189.5 -430.5t-506.5 -147.5h-512q-16 63 -17 123l86 22q27 8 36 15.5t9 27.5l7 263v419q0 76 -64 103l-72 33q0 76 11 112h508q156 0 274.5 -24.5t220 -83t155.5 -167.5t54 -265zM1001 543q0 182 -99 288.5t-286 106.5h-63v-489l8 -271h88 q176 0 264 98.5t88 266.5z" />
<glyph horiz-adv-x="1206" d="M1124 301l-47 -301h-962q-14 66 -13 125l82 18q55 8 56 33l4 275v436q0 31 -6.5 44t-30.5 23l-98 45q0 84 12 119h944v-291q-59 -14 -147 -14q-16 76 -43 98.5t-74 22.5l-246 4v-297l408 16v-194l-408 18v-32l6 -271l182 6q92 4 146.5 34t87.5 116z" />
<glyph horiz-adv-x="1107" d="M1067 829q-70 -14 -149 -14q-20 119 -123 119l-240 4v-330l428 17v-195l-428 16v-8l4 -211q0 -57 49 -67l162 -31q0 -63 -16 -129h-639q-12 53 -13 121l62 12q74 16 76 72l4 246v444q0 49 -37 61l-94 37q0 88 8 125h946v-289z" />
<glyph horiz-adv-x="1261" d="M1159 88q-201 -98 -395 -98q-662 0 -662 540q0 248 192.5 430.5t463.5 182.5q127 0 202.5 -15.5t190.5 -62.5v-297q-57 -6 -135 0q-74 182 -266 182q-326 0 -326 -399q0 -154 107.5 -240t279.5 -98q12 -2 37 -2v283h311v-406z" />
<glyph horiz-adv-x="1538" d="M1436 98q0 -53 -19 -98h-545q-6 61 -6 98l86 43q31 16 31 45l4 265v20h-450v-22l4 -267q4 -39 55 -57l68 -23q-6 -80 -13 -102h-536q-12 53 -13 100l84 31q39 16 39 59l2 259v499q0 35 -41 49l-75 25q0 43 14 96h526q12 -53 13 -92l-89 -31q-39 -10 -38 -67v-277h450v295 q0 18 -6 28.5t-12 13.5t-23 9l-80 25q-4 29 6 96h529q8 -39 8 -92l-80 -31q-33 -12 -33 -49v-497l4 -250q0 -53 23 -62z" />
<glyph horiz-adv-x="790" d="M688 129q0 -80 -18 -129h-557q-12 53 -11 117l62 16q70 18 72 72l4 244v454q0 35 -52 64l-86 34q0 72 11 117h567q8 -70 -4 -129l-84 -20q-41 -10 -41 -64v-456l2 -230q0 -57 39 -67z" />
<glyph horiz-adv-x="790" d="M688 995l-90 -20q-18 -4 -31.5 -24.5t-13.5 -39.5v-749q0 -86 -40 -159t-111.5 -127t-137 -90t-151.5 -71l-97 174q68 41 101 62.5t63.5 49.5t39.5 59.5t15.5 70.5t6.5 105v643q0 72 -58 92l-88 33q0 80 13 114h573q10 -64 6 -123z" />
<glyph horiz-adv-x="1341" d="M668 129q0 -80 -19 -129h-536q-12 53 -11 117l62 16q70 18 72 72l4 244v454q0 35 -52 64l-86 34q0 72 11 117h546q8 -70 -4 -129l-63 -20q-41 -14 -41 -64v-280l278 256q18 16 19 34q0 37 -17 48l-61 38q0 59 12 117h486v-92l-477 -414l213 -211q201 -193 317 -270 l-35 -149q-301 0 -434 149l-301 344v-26l2 -230q0 -55 39 -67z" />
<glyph horiz-adv-x="1148" d="M1108 371l-70 -371h-927q-8 45 -9 117l58 16q74 18 76 72l4 244v454q0 45 -64 68l-74 30q0 70 11 117h563q8 -86 -2 -129l-74 -16q-49 -14 -49 -68v-456l4 -281l209 16q51 4 103.5 72t82.5 145z" />
<glyph horiz-adv-x="1861" d="M1800 109q0 -70 -12 -109h-574q-10 70 -8 106l51 19q76 25 58 151l-62 402l-14 106h-6l-234 -753l-256 -72l-241 829h-6l-11 -96l-84 -483q-8 -47 19 -55l129 -43q0 -72 -12 -111h-467q-10 55 -9 104l68 35q57 27 72 103l145 676q8 33 -29 45l-116 34q0 82 12 121h510 l160 -569l37 -191h6l47 199l174 561h485q10 -72 8 -121l-84 -16q-66 -14 -49 -90l154 -705q6 -27 39 -41z" />
<glyph horiz-adv-x="1507" d="M1415 1020l-100 -57q-41 -23 -41 -76v-869l-234 -69l-596 784h-6l17 -141v-156l6 -241q0 -25 3 -30t19 -9l150 -41q0 -76 -12 -115h-510q-12 57 -9 113l91 24q49 10 53 82l10 215v469q0 49 -53 74l-88 41q0 76 8 100h391l576 -743h6l-21 196v314q0 59 -61 88l-99 45 q0 61 15 100h477q10 -67 8 -98z" />
<glyph horiz-adv-x="1460" d="M1358 608q0 -262 -179.5 -444t-476.5 -182q-295 0 -447.5 137t-152.5 391q0 266 186.5 449.5t475.5 183.5q299 0 446.5 -141.5t147.5 -393.5zM1016 563q0 174 -69.5 279.5t-213.5 105.5q-289 0 -289 -381q0 -172 67 -279.5t212 -107.5q293 0 293 383z" />
<glyph horiz-adv-x="1249" d="M1229 784q0 -176 -133 -289.5t-344 -113.5h-125v158l53 2q115 4 163 57t48 150q0 68 -25.5 109.5t-76 58t-95.5 21.5t-110 7h-29v-508l4 -241q2 -31 19 -33l178 -35q0 -90 -13 -127h-632q-12 57 -9 121l78 16q57 10 60 78l4 221v467q0 33 -25 43l-115 43q-6 80 13 129 h698q184 0 299 -81t115 -253z" />
<glyph horiz-adv-x="1460" d="M1358 608q0 -262 -179.5 -444t-476.5 -182q-295 0 -447.5 137t-152.5 391q0 266 186.5 449.5t475.5 183.5q299 0 446.5 -141.5t147.5 -393.5zM1405 -305q-135 -131 -268 -131q-86 0 -285 75.5t-299 75.5q-61 0 -119 -12l-47 115q125 121 262 121q98 0 284.5 -76 t289.5 -76q39 0 112 25zM1016 563q0 174 -69.5 279.5t-213.5 105.5q-289 0 -289 -381q0 -172 67 -279.5t212 -107.5q293 0 293 383z" />
<glyph horiz-adv-x="1406" d="M1374 119l-10 -156q-135 -12 -240.5 10.5t-201.5 100.5q-127 104 -242 352h-43h-82l4 -231q2 -29 21 -35l112 -37q0 -86 -12 -123h-569q-12 57 -9 119l70 14q66 10 68 82l4 221v467q0 33 -25 43l-115 43q-6 80 13 129h635q190 0 318 -80t128 -250q0 -86 -48 -163.5 t-140 -128.5q86 -162 159 -246q94 -108 205 -131zM858 762q0 182 -256 182h-47v-352h94q117 2 163 41t46 129z" />
<glyph horiz-adv-x="1103" d="M1042 354q0 -168 -167.5 -269t-356.5 -101q-268 0 -450 108l32 297h138q29 -119 120 -182.5t199 -63.5q170 0 170 101q0 41 -62.5 75.5t-152.5 67.5t-180 75t-152.5 117.5t-62.5 178.5q0 154 148.5 268.5t307.5 114.5q240 0 424 -92v-263h-139q-23 88 -102.5 134.5 t-175.5 46.5q-82 0 -126 -30t-44 -81q0 -41 65.5 -76t157.5 -67.5t185 -73.5t158.5 -115t65.5 -170z" />
<glyph horiz-adv-x="1153" d="M1153 780q-92 -23 -141 -4q-16 78 -47 117t-84 41l-150 4v-502l8 -231q0 -31 13 -35q2 -2 6 -2l149 -31q0 -100 -12 -137h-637q-12 84 -6 137l115 33q41 12 45 63l8 203v502l-111 -4q-76 -2 -111.5 -32t-56.5 -126q-86 0 -141 12v330h1153v-338z" />
<glyph horiz-adv-x="1423" d="M1362 987l-90 -29q-29 -10 -29 -43v-483q0 -104 -36 -185t-89 -129t-125.5 -79t-138.5 -42t-131 -11q-80 0 -139.5 5t-139 28.5t-130 64.5t-87.5 120t-37 187v504q0 49 -40 66l-89 30q0 88 13 127h581q8 -57 4 -137l-102 -18q-43 -6 -43 -62v-469q0 -254 272 -254 q96 0 157 60.5t61 230.5v414q0 66 -62 82q-68 18 -94 26q0 106 6 127h502q12 -80 6 -131z" />
<glyph horiz-adv-x="1271" d="M1251 997l-47 -32q-37 -23 -53 -60l-420 -889l-227 -63l-398 956q-16 41 -51 66l-35 24q0 63 15 119h545q20 -55 20 -133l-98 -29q-61 -14 -27 -102l199 -514l227 504q37 78 -37 104l-94 37q0 88 16 133h453q12 -41 12 -121z" />
<glyph horiz-adv-x="1832" d="M1812 1008l-32 -23q-41 -29 -58 -70l-381 -901l-225 -61l-225 590l-256 -527l-225 -63l-291 969q-12 33 -51 57l-48 29q0 70 13 110h542q6 -59 5 -123l-80 -28q-57 -20 -33 -115l135 -502l199 432l-43 121l-17 41q-10 25 -34 70q0 70 6 104h481q12 -39 12 -117l-53 -26 q-59 -31 -33 -121l172 -504l191 457q55 133 -29 164l-70 24q0 78 17 123h399q12 -40 12 -110z" />
<glyph horiz-adv-x="1218" d="M1198 100q0 -61 -12 -100h-539q-10 70 -6 102l61 52q25 16 0 51l-131 180l-153 -172q-39 -45 12 -72l74 -37q0 -47 -12 -104h-463q-12 57 -9 102l48 39q43 35 122 121l256 283l-290 364q-8 10 -105 107q0 4 4 102h500q12 -57 8 -106l-47 -23q-43 -23 -10 -63l129 -170 l147 162q35 37 -14 65l-51 31q0 70 8 104h436v-104q-55 -33 -141 -129l-256 -287l289 -344q51 -59 69 -76q8 -6 30.5 -32t45.5 -46z" />
<glyph horiz-adv-x="1167" d="M1167 997q-68 -45 -102 -96l-330 -461l4 -250q0 -31 29 -36l104 -25q-4 -80 -18 -129h-557q-10 43 -10 117l71 20q61 14 62 68l4 217l-338 483q-39 57 -86 94q-8 63 8 119h535q12 -45 12 -133l-72 -27q-76 -31 -32 -100l190 -291l176 279q39 61 -39 104l-76 37 q-6 63 9 131h444q12 -41 12 -121z" />
<glyph horiz-adv-x="1161" d="M1087 371l-47 -371h-915l-53 147l555 787l-250 -4q-47 -6 -68.5 -45t-38.5 -127q-82 -12 -166 2v358h918l39 -114l-576 -820l297 19q47 2 80 52t70 146z" />
<glyph horiz-adv-x="1234" d="M1079 1538q-272 -209 -600 -321l-84 159q119 72 254 184.5t238 225.5zM1214 106q0 -53 -16 -106h-528q-20 49 -21 123l96 33q35 12 39 41.5t-10 56.5l-51 154h-324l-61 -191q-12 -41 45 -57l127 -37q0 -76 -14 -123h-463q-12 43 -13 109l31 28q29 29 47 66l394 887 l274 57l377 -948q10 -29 37 -58zM672 575l-70 222l-22 110h-7l-32 -106l-76 -226h207z" />
<glyph horiz-adv-x="1234" d="M881 1378l-84 -151q-330 119 -598 327l202 228q247 -267 480 -404zM1214 106q0 -53 -16 -106h-528q-20 49 -21 123l96 33q35 12 39 41.5t-10 56.5l-51 154h-324l-61 -191q-12 -41 45 -57l127 -37q0 -76 -14 -123h-463q-12 43 -13 109l31 28q29 29 47 66l394 887l274 57 l377 -948q10 -29 37 -58zM672 575l-70 222l-22 110h-7l-32 -106l-76 -226h207z" />
<glyph horiz-adv-x="1234" d="M1106 1372l-96 -131q-215 74 -375 191q-104 -94 -338 -189l-94 115q109 80 201 162t128 122l117 132q248 -275 457 -402zM1214 106q0 -53 -16 -106h-528q-20 49 -21 123l96 33q35 12 39 41.5t-10 56.5l-51 154h-324l-61 -191q-12 -41 45 -57l127 -37q0 -76 -14 -123h-463 q-12 43 -13 109l31 28q29 29 47 66l394 887l274 57l377 -948q10 -29 37 -58zM672 575l-70 222l-22 110h-7l-32 -106l-76 -226h207z" />
<glyph horiz-adv-x="1234" d="M1077 1468q0 -18 -75.5 -95t-96.5 -77q-27 0 -98.5 75t-71.5 97q0 27 73 99.5t97 72.5q23 0 97.5 -74.5t74.5 -97.5zM545 1468q0 -18 -76 -95t-96 -77q-27 0 -98.5 75t-71.5 97q0 27 72.5 99.5t97.5 72.5q23 0 97.5 -74.5t74.5 -97.5zM1214 106q0 -53 -16 -106h-528 q-20 49 -21 123l96 33q35 12 39 41.5t-10 56.5l-51 154h-324l-61 -191q-12 -41 45 -57l127 -37q0 -76 -14 -123h-463q-12 43 -13 109l31 28q29 29 47 66l394 887l274 57l377 -948q10 -29 37 -58zM672 575l-70 222l-22 110h-7l-32 -106l-76 -226h207z" />
<glyph horiz-adv-x="1234" d="M1102 1489q-29 -47 -48.5 -76t-77.5 -69.5t-122 -40.5q-68 0 -193.5 33.5t-181.5 33.5q-119 0 -182 -33q-53 84 -72 109q45 47 69.5 70.5t84 60.5t108.5 37q70 0 196 -34t179 -34l174 33zM1214 106q0 -53 -16 -106h-528q-20 49 -21 123l96 33q35 12 39 41.5t-10 56.5 l-51 154h-324l-61 -191q-12 -41 45 -57l127 -37q0 -76 -14 -123h-463q-12 43 -13 109l31 28q29 29 47 66l394 887l274 57l377 -948q10 -29 37 -58zM672 575l-70 222l-22 110h-7l-32 -106l-76 -226h207z" />
<glyph horiz-adv-x="1234" d="M967 1540q0 -125 -100.5 -211t-237.5 -86q-328 0 -328 244q0 123 100.5 209t233.5 86q143 0 237.5 -60.5t94.5 -181.5zM1214 106q0 -53 -16 -106h-528q-20 49 -21 123l96 33q35 12 39 41.5t-10 56.5l-51 154h-324l-61 -191q-12 -41 45 -57l127 -37q0 -76 -14 -123h-463 q-12 43 -13 109l31 28q29 29 47 66l394 887l274 57l377 -948q10 -29 37 -58zM745 1513q0 57 -33.5 88t-90.5 31q-47 0 -73 -32.5t-26 -86.5q0 -123 121 -122q102 -1 102 122zM672 575l-70 222l-22 110h-7l-32 -106l-76 -226h207z" />
<glyph horiz-adv-x="1220" d="M1157 86q-213 -96 -393 -96q-322 0 -492 126t-170 414q0 248 192.5 430.5t463.5 182.5q221 0 393 -78v-297q-57 -6 -137 0q-72 184 -264 184q-150 0 -238 -92t-88 -293q0 -156 108.5 -249t253.5 -93q152 0 314 49zM870 -356q0 -117 -61 -173.5t-211 -103.5l-66 129 q47 37 65.5 63.5t18.5 73.5q0 23 -45 76t-45 107q0 61 68 145l113 -45q-8 -10 -9 -27q0 -23 27 -49t59.5 -48.5t59 -62.5t26.5 -85z" />
<glyph horiz-adv-x="1206" d="M1079 1538q-272 -209 -600 -321l-84 159q119 72 254 184.5t238 225.5zM1124 301l-47 -301h-962q-14 66 -13 125l82 18q55 8 56 33l4 275v436q0 31 -6.5 44t-30.5 23l-98 45q0 84 12 119h944v-291q-59 -14 -147 -14q-16 76 -43 98.5t-74 22.5l-246 4v-297l408 16v-194 l-408 18v-32l6 -271l182 6q92 4 146.5 34t87.5 116z" />
<glyph horiz-adv-x="1206" d="M829 1378l-84 -151q-330 119 -598 327l203 228q246 -267 479 -404zM1124 301l-47 -301h-962q-14 66 -13 125l82 18q55 8 56 33l4 275v436q0 31 -6.5 44t-30.5 23l-98 45q0 84 12 119h944v-291q-59 -14 -147 -14q-16 76 -43 98.5t-74 22.5l-246 4v-297l408 16v-194 l-408 18v-32l6 -271l182 6q92 4 146.5 34t87.5 116z" />
<glyph horiz-adv-x="1206" d="M1067 1366l-96 -131q-90 29 -201 86t-176 104q-98 -90 -338 -188l-94 115q109 80 199 158.5t135 127.5l114 129q252 -276 457 -401zM1124 301l-47 -301h-962q-14 66 -13 125l82 18q55 8 56 33l4 275v436q0 31 -6.5 44t-30.5 23l-98 45q0 84 12 119h944v-291 q-59 -14 -147 -14q-16 76 -43 98.5t-74 22.5l-246 4v-297l408 16v-194l-408 18v-32l6 -271l182 6q92 4 146.5 34t87.5 116z" />
<glyph horiz-adv-x="1206" d="M1051 1468q0 -18 -76 -95t-96 -77q-27 0 -99.5 75t-72.5 97q0 27 73.5 99.5t98.5 72.5q23 0 97.5 -74.5t74.5 -97.5zM518 1468q0 -18 -75.5 -95t-96.5 -77q-27 0 -99.5 75t-72.5 97q0 27 74 99.5t98 72.5q23 0 97.5 -74.5t74.5 -97.5zM1124 301l-47 -301h-962 q-14 66 -13 125l82 18q55 8 56 33l4 275v436q0 31 -6.5 44t-30.5 23l-98 45q0 84 12 119h944v-291q-59 -14 -147 -14q-16 76 -43 98.5t-74 22.5l-246 4v-297l408 16v-194l-408 18v-32l6 -271l182 6q92 4 146.5 34t87.5 116z" />
<glyph horiz-adv-x="790" d="M813 1538q-272 -209 -600 -321l-84 159q119 72 254 184.5t238 225.5zM688 129q0 -74 -18 -129h-557q-10 37 -11 117l62 16q70 18 72 72l4 244v454q0 39 -56 66l-82 32q0 72 11 117h567q8 -70 -4 -129l-84 -20q-41 -10 -41 -64v-456l4 -254q0 -35 20 -41z" />
<glyph horiz-adv-x="790" d="M590 1378l-86 -151q-328 119 -596 327l203 228q246 -267 479 -404zM688 129q0 -74 -18 -129h-557q-10 37 -11 117l62 16q70 18 72 72l4 244v454q0 39 -56 66l-82 32q0 72 11 117h567q8 -70 -4 -129l-84 -20q-41 -10 -41 -64v-456l4 -254q0 -35 20 -41z" />
<glyph horiz-adv-x="790" d="M862 1366l-96 -131q-90 29 -200.5 86t-174.5 104q-104 -94 -340 -188l-94 115q109 80 199 158.5t135 127.5l115 129q251 -276 456 -401zM688 129q0 -74 -18 -129h-557q-10 37 -11 117l62 16q70 18 72 72l4 244v454q0 39 -56 66l-82 32q0 72 11 117h567q8 -70 -4 -129 l-84 -20q-41 -10 -41 -64v-456l4 -254q0 -35 20 -41z" />
<glyph horiz-adv-x="790" d="M827 1468q0 -18 -75.5 -95t-96.5 -77q-27 0 -99.5 75t-72.5 97q0 27 74 99.5t98 72.5q23 0 97.5 -74.5t74.5 -97.5zM295 1468q0 -18 -76 -95t-96 -77q-27 0 -99.5 75t-72.5 97q0 27 73.5 99.5t98.5 72.5q23 0 97.5 -74.5t74.5 -97.5zM688 129q0 -74 -18 -129h-557 q-10 37 -11 117l62 16q70 18 72 72l4 244v454q0 39 -56 66l-82 32q0 72 11 117h567q8 -70 -4 -129l-84 -20q-41 -10 -41 -64v-456l4 -254q0 -35 20 -41z" />
<glyph horiz-adv-x="1499" d="M1200 1489l-48 -76t-77.5 -69.5t-122.5 -40.5q-68 0 -193.5 33.5t-180.5 33.5q-119 0 -183 -33q-53 84 -71 109q45 47 69.5 70.5t84 60.5t108.5 37q70 0 195.5 -34t179.5 -34l174 33zM1415 1020l-100 -57q-41 -23 -41 -76v-869l-234 -69l-596 784h-6l17 -141v-156l6 -241 q0 -25 3 -30t19 -9l150 -41q0 -76 -12 -115h-510q-12 57 -9 113l91 24q49 10 53 82l10 215v469q0 49 -53 74l-88 41q0 76 8 100h391l576 -743h6l-21 196v314q0 59 -61 88l-99 45q0 61 15 100h477q10 -67 8 -98z" />
<glyph horiz-adv-x="1460" d="M1159 1538q-272 -209 -600 -321l-84 159q119 72 254 184.5t238 225.5zM1358 608q0 -262 -179.5 -444t-476.5 -182q-295 0 -447.5 137t-152.5 391q0 266 186.5 449.5t475.5 183.5q299 0 446.5 -141.5t147.5 -393.5zM1016 563q0 174 -69.5 279.5t-213.5 105.5 q-289 0 -289 -381q0 -172 67 -279.5t212 -107.5q293 0 293 383z" />
<glyph horiz-adv-x="1460" d="M952 1378l-84 -151q-330 119 -596 327l201 228q246 -267 479 -404zM1358 608q0 -262 -179.5 -444t-476.5 -182q-295 0 -447.5 137t-152.5 391q0 266 186.5 449.5t475.5 183.5q299 0 446.5 -141.5t147.5 -393.5zM1016 563q0 174 -69.5 279.5t-213.5 105.5 q-289 0 -289 -381q0 -172 67 -279.5t212 -107.5q293 0 293 383z" />
<glyph horiz-adv-x="1460" d="M1198 1366l-96 -131q-90 29 -200.5 86t-174.5 104q-104 -94 -338 -188l-94 115q109 80 199 159.5t133 125.5t114 130q248 -274 457 -401zM1358 608q0 -262 -179.5 -444t-476.5 -182q-295 0 -447.5 137t-152.5 391q0 266 186.5 449.5t475.5 183.5q299 0 446.5 -141.5 t147.5 -393.5zM1016 563q0 174 -69.5 279.5t-213.5 105.5q-289 0 -289 -381q0 -172 67 -279.5t212 -107.5q293 0 293 383z" />
<glyph horiz-adv-x="1460" d="M1169 1468q0 -18 -75.5 -95t-98.5 -77q-25 0 -97.5 75t-72.5 97q0 27 73 99.5t97.5 72.5t99 -74.5t74.5 -97.5zM637 1468q0 -18 -76 -95t-98 -77q-25 0 -97.5 75t-72.5 97q0 27 72.5 99.5t97 72.5t99.5 -74.5t75 -97.5zM1358 608q0 -262 -179.5 -444t-476.5 -182 q-295 0 -447.5 137t-152.5 391q0 266 186.5 449.5t475.5 183.5q299 0 446.5 -141.5t147.5 -393.5zM1016 563q0 174 -69.5 279.5t-213.5 105.5q-289 0 -289 -381q0 -172 67 -279.5t212 -107.5q293 0 293 383z" />
<glyph horiz-adv-x="1460" d="M1171 1489l-48 -76t-77.5 -69.5t-121.5 -40.5q-68 0 -194 33.5t-181 33.5q-119 0 -182 -33q-53 84 -72 109q45 47 69.5 70.5t84 60.5t108.5 37q70 0 196 -34t179 -34l174 33zM1358 608q0 -262 -179.5 -444t-476.5 -182q-295 0 -447.5 137t-152.5 391q0 266 186.5 449.5 t475.5 183.5q299 0 446.5 -141.5t147.5 -393.5zM1016 563q0 174 -69.5 279.5t-213.5 105.5q-289 0 -289 -381q0 -172 67 -279.5t212 -107.5q293 0 293 383z" />
<glyph horiz-adv-x="1423" d="M1198 1538q-272 -209 -600 -321l-86 159q119 72 255 184.5t239 225.5zM1362 987l-90 -29q-29 -10 -29 -43v-483q0 -104 -36 -185t-89 -129t-125.5 -79t-138.5 -42t-131 -11q-80 0 -139.5 5t-139 28.5t-130 64.5t-87.5 120t-37 187v504q0 49 -40 66l-89 30q0 88 13 127 h581q8 -57 4 -137l-102 -18q-43 -6 -43 -62v-469q0 -254 272 -254q96 0 157 60.5t61 230.5v414q0 66 -62 82q-68 18 -94 26q0 106 6 127h502q12 -80 6 -131z" />
<glyph horiz-adv-x="1423" d="M932 1378l-84 -151q-330 119 -596 327l201 228q246 -267 479 -404zM1362 987l-90 -29q-29 -10 -29 -43v-483q0 -104 -36 -185t-89 -129t-125.5 -79t-138.5 -42t-131 -11q-80 0 -139.5 5t-139 28.5t-130 64.5t-87.5 120t-37 187v504q0 49 -40 66l-89 30q0 88 13 127h581 q8 -57 4 -137l-102 -18q-43 -6 -43 -62v-469q0 -254 272 -254q96 0 157 60.5t61 230.5v414q0 66 -62 82q-68 18 -94 26q0 106 6 127h502q12 -80 6 -131z" />
<glyph horiz-adv-x="1423" d="M1196 1366l-96 -131q-90 29 -201 86t-174 104q-104 -94 -338 -188l-94 115q109 80 199 159.5t133 125.5t114 130q248 -274 457 -401zM1362 987l-90 -29q-29 -10 -29 -43v-483q0 -104 -36 -185t-89 -129t-125.5 -79t-138.5 -42t-131 -11q-80 0 -139.5 5t-139 28.5 t-130 64.5t-87.5 120t-37 187v504q0 49 -40 66l-89 30q0 88 13 127h581q8 -57 4 -137l-102 -18q-43 -6 -43 -62v-469q0 -254 272 -254q96 0 157 60.5t61 230.5v414q0 66 -62 82q-68 18 -94 26q0 106 6 127h502q12 -80 6 -131z" />
<glyph horiz-adv-x="1423" d="M1190 1468q0 -18 -75 -95t-97 -77q-25 0 -97.5 75t-72.5 97q0 27 72.5 99.5t97 72.5t98.5 -74.5t74 -97.5zM657 1468q0 -18 -74.5 -95t-97.5 -77q-25 0 -97.5 75t-72.5 97q0 27 73 99.5t97.5 72.5t98 -74.5t73.5 -97.5zM1362 987l-90 -29q-29 -10 -29 -43v-483 q0 -104 -36 -185t-89 -129t-125.5 -79t-138.5 -42t-131 -11q-80 0 -139.5 5t-139 28.5t-130 64.5t-87.5 120t-37 187v504q0 49 -40 66l-89 30q0 88 13 127h581q8 -57 4 -137l-102 -18q-43 -6 -43 -62v-469q0 -254 272 -254q96 0 157 60.5t61 230.5v414q0 66 -62 82 q-68 18 -94 26q0 106 6 127h502q12 -80 6 -131z" />
<glyph horiz-adv-x="1638" d="M1563 1309q49 -121 49 -224.5t-32 -168t-85 -105.5q-63 -49 -172 -49q-115 0 -338 63l-86 23q-72 -248 -92 -615q219 0 237 119q2 37 -26.5 93.5t-73.5 103.5l186 166q20 -18 46 -50t60 -94.5t46 -126.5q20 -72 6 -135t-33.5 -106t-56.5 -79t-58.5 -52.5t-39.5 -26.5 q-119 -72 -299 -72v-290h-244q-4 55 0 350q-117 49 -244 163.5t-192 254.5q-94 195 -37 376q106 336 504 336q25 -2 141 -16q182 455 471 455q113 0 208.5 -77t154.5 -216zM1204 1339q-117 0 -229 -245q106 -37 155 -43q158 -39 201 -25q68 20 19 150q-58 161 -146 163z M317 629q33 -166 248 -310q10 240 60 447q18 92 30 133q-162 14 -263.5 -49t-74.5 -221z" />
<glyph horiz-adv-x="1265" d="M1180 96q-164 -115 -451 -114q-250 0 -380 90t-169 290h-139v109h127q-4 66 -4 100q0 37 6 74h-129v109h156q59 170 209.5 281.5t363.5 111.5q397 0 397 -180q0 -115 -129 -181q-57 68 -136 118t-130 50q-190 0 -240 -200h326v-109h-342q-2 -25 -2 -80q0 -43 10 -94h334 v-109h-293q92 -162 260 -161q59 0 111.5 25.5t128.5 84.5q115 -94 115 -215z" />
<glyph horiz-adv-x="1671" d="M1671 852q0 -123 -132 -226.5t-277 -152.5q-43 -229 -216.5 -361t-392.5 -132q-246 0 -398.5 138t-152.5 388q0 279 188.5 460t422.5 181q397 0 397 -201q0 -43 -15.5 -76.5t-45 -58.5t-42.5 -32l-40 -21l-95 96l-75 76q-41 20 -84 20q-80 0 -132.5 -29.5t-76 -89 t-31.5 -121t-8 -153.5q0 -168 63.5 -271.5t161.5 -103.5q104 0 153.5 60.5t69.5 187.5q-174 20 -305 131q90 98 117 131q203 -31 365 -30q186 0 260.5 43t74.5 145q0 27 -67 119q70 57 158 57q63 0 109 -52t46 -122z" />
</font>
</defs>
</svg>
