<?xml version="1.0" standalone="no"?>
<!DOCTYPE svg PUBLIC "-//W3C//DTD SVG 1.1//EN" "http://www.w3.org/Graphics/SVG/1.1/DTD/svg11.dtd" >
<svg xmlns="http://www.w3.org/2000/svg">
<metadata>
This is a custom SVG webfont generated by Font Squirrel.
Copyright   : Generated in 2011 by FontLab Studio Copyright info pending
</metadata>
<defs>
<font id="webfont7gKFPofl" horiz-adv-x="1189" >
<font-face units-per-em="2048" ascent="1638" descent="-410" />
<missing-glyph horiz-adv-x="512" />
<glyph unicode="&#xfb01;" horiz-adv-x="1587" d="M1546 104q0 -74 -8 -104h-582q-10 55 -8 90l129 45q25 8 45.5 45t20.5 66l6 311v428h-209v102q203 45 305 46q43 0 62.5 -16.5t19.5 -57.5v-502l6 -375q2 -25 9.5 -33t25.5 -12zM1157 1425q0 -76 -125 -135q-16 16 -49 63.5t-64.5 80t-60.5 39.5q-12 0 -54 1t-62 0 l-59 -4q-40 -2 -61.5 -9t-53 -19t-49 -31.5t-36 -46.5t-26.5 -65.5t-8 -88.5v-92h243v-133h-243v-426l10 -340q2 -39 8 -49t35 -16l231 -43q0 -82 -10 -111h-637q-10 55 -8 90l117 49q29 12 48 48t19 75l6 297v426h-164v100l164 33v64q0 135 75 235.5t181.5 145.5t220.5 45 q203 0 307.5 -52.5t104.5 -130.5z" />
<glyph unicode="&#xfb02;" horiz-adv-x="1593" d="M1552 102q0 -74 -10 -102h-573q-8 61 -6 90l110 39q70 27 70 115l10 315v848q-231 51 -410 51q-170 0 -232 -72.5t-62 -207.5v-60h387v-135h-387v-424l14 -364q0 -31 22 -35l250 -54q0 -74 -10 -106h-639q-8 41 -8 90l88 37q96 39 96 135l6 297v424h-164v102l164 33v68 q0 160 143.5 285.5t311.5 125.5q240 0 381 -49q94 16 147 17q80 0 80 -80v-926l10 -383q0 -25 4.5 -30t20.5 -9z" />
<glyph unicode="&#xfb03;" horiz-adv-x="2426" d="M2386 104q0 -74 -8 -104h-582q-10 55 -8 90l129 45q25 8 45 45t20 66l7 311v426h-209v104q203 45 305 46q43 0 62.5 -16.5t19.5 -57.5v-502l6 -375q2 -25 9 -33t26 -12zM1997 1425q0 -76 -125 -135q-16 16 -49 63.5t-65 80t-60 39.5q-12 0 -54 1t-62 0l-59 -4 q-40 -2 -61.5 -9t-53.5 -19t-49.5 -31.5t-35.5 -46.5t-26.5 -65.5t-8.5 -88.5v-92h244v-133h-244v-426l10 -340q2 -39 8.5 -49t34.5 -16l232 -43q0 -82 -10 -111h-637q-10 55 -8 90l116 49q29 12 48.5 48t19.5 75l6 297v424h-659v-424l10 -340q2 -39 8 -49t35 -16l231 -43 q0 -82 -10 -111h-637q-10 55 -8 90l117 49q29 12 48 48t19 75l6 297v424h-164v102l164 33v64q0 135 78 235.5t185.5 145.5t224.5 45q168 0 301 -35t184 -90q139 125 344 125q203 0 307.5 -52.5t104.5 -130.5zM1133 1323q-193 150 -326 150q-51 0 -82 -2.5t-79 -8.5 t-77.5 -23.5t-60.5 -45t-45 -73.5t-14 -110v-92h659v64q0 75 25 141z" />
<glyph unicode="&#xfb04;" horiz-adv-x="2430" d="M2392 102q0 -74 -10 -102h-574q-8 61 -6 90l111 39q70 27 69 115l11 315v848q-231 51 -410 51q-170 0 -232.5 -72.5t-62.5 -207.5v-60h387v-135h-387v-424l15 -364q0 -31 22 -35l250 -54q0 -74 -10 -106h-639q-8 41 -8 90l88 37q96 39 96 135l6 297v424h-659v-424 l10 -340q2 -39 8 -49t35 -16l231 -43q0 -82 -10 -111h-637q-10 55 -8 90l117 49q29 12 48 48t19 75l6 297v424h-164v102l164 33v64q0 135 78 235.5t185.5 145.5t224.5 45q178 0 315 -39t180 -99q141 127 312 127q240 0 381 -49q94 16 147 17q80 0 80 -80v-926l10 -383 q0 -25 4 -30t21 -9zM1137 1319q-193 154 -330 154q-51 0 -82 -2.5t-79 -8.5t-77.5 -23.5t-60.5 -45t-45 -73.5t-14 -110v-92h659v68q0 65 29 133z" />
<glyph unicode="fj" horiz-adv-x="1570" d="M1339 -43q4 -197 -103.5 -294t-277.5 -97q-80 0 -122 16l20 121q47 -6 107 -6q119 0 153.5 60.5t34.5 201.5v1026h-203v102q197 45 305 46q43 0 59.5 -16.5t16.5 -57.5v-502zM1157 1425q0 -76 -125 -135q-16 16 -49 63.5t-64.5 80t-60.5 39.5q-12 0 -54 1t-62 0l-59 -4 q-40 -2 -61.5 -9t-53 -19t-49 -31.5t-36 -46.5t-26.5 -65.5t-8 -88.5v-92h243v-133h-243v-426l10 -340q2 -39 8 -49t35 -16l231 -43q0 -82 -10 -111h-637q-10 55 -8 90l117 49q29 12 48 48t19 75l6 297v426h-164v100l164 33v64q0 135 75 235.5t181.5 145.5t220.5 45 q203 0 307.5 -52.5t104.5 -130.5z" />
<glyph unicode="ffj" horiz-adv-x="2426" d="M2175 18q4 -203 -107.5 -327.5t-273.5 -124.5q-80 0 -123 16l19 133q68 -16 127 -16q102 0 136 61.5t34 198.5v1024h-205v104q203 45 305 46q43 0 60.5 -16.5t17.5 -57.5v-502zM1997 1425q0 -76 -125 -135q-16 16 -49 63.5t-65 80t-60 39.5q-12 0 -54 1t-62 0l-59 -4 q-40 -2 -61.5 -9t-53.5 -19t-49.5 -31.5t-35.5 -46.5t-26.5 -65.5t-8.5 -88.5v-92h244v-133h-244v-426l10 -340q2 -39 8.5 -49t34.5 -16l232 -43q0 -82 -10 -111h-637q-10 55 -8 90l116 49q29 12 48.5 48t19.5 75l6 297v424h-659v-424l10 -340q2 -39 8 -49t35 -16l231 -43 q0 -82 -10 -111h-637q-10 55 -8 90l117 49q29 12 48 48t19 75l6 297v424h-164v102l164 33v64q0 135 78 235.5t185.5 145.5t224.5 45q168 0 301 -35t184 -90q139 125 344 125q203 0 307.5 -52.5t104.5 -130.5zM1133 1323q-193 150 -326 150q-51 0 -82 -2.5t-79 -8.5 t-77.5 -23.5t-60.5 -45t-45 -73.5t-14 -110v-92h659v64q0 75 25 141z" />
<glyph unicode=" "  horiz-adv-x="512" />
<glyph unicode="&#x09;" horiz-adv-x="512" />
<glyph unicode="&#xa0;" horiz-adv-x="512" />
<glyph unicode="!" horiz-adv-x="671" d="M457 1479l-47 -1047h-146l-47 1047l119 61zM508 102q0 -23 -73 -98.5t-101 -75.5q-27 0 -98.5 74t-71.5 100.5t72.5 98t97.5 71.5q27 0 100.5 -71.5t73.5 -98.5z" />
<glyph unicode="&#x22;" horiz-adv-x="894" d="M754 1546l-54 -491h-147v491h201zM362 1546l-51 -491h-147v491h198z" />
<glyph unicode="#" horiz-adv-x="1257" d="M1133 293h-222l-16 -340h-133l16 340h-336l-16 -340h-133l16 340h-186v133h194l15 303h-209v131h215l18 316h133l-16 -316h336l16 316h136l-19 -316h191v-131h-197l-16 -303h213v-133zM801 729h-334l-14 -303h331z" />
<glyph unicode="$" horiz-adv-x="1159" d="M973 303q0 -127 -91 -220t-255 -108v-317h-121v311q-131 4 -226.5 45t-95.5 101q0 100 74 151q70 -57 106.5 -84.5t84 -54.5t75.5 -27q121 0 201 38t80 116q0 66 -60.5 113t-146.5 80.5t-171 74.5t-145.5 119t-60.5 188q0 109 82 195t203 111v307h121v-301 q303 -12 303 -148q0 -29 -6 -51t-11.5 -30.5t-20.5 -23.5l-18 -18l-83 57q-55 38 -78 51t-59 26.5t-66 13.5q-94 0 -151.5 -43t-57.5 -121q0 -55 61.5 -98t148.5 -78t174 -77t148.5 -119t61.5 -179z" />
<glyph unicode="%" horiz-adv-x="1599" d="M764 1141q0 -152 -91 -237t-222 -85q-133 0 -216 73t-83 234q0 154 89 241t216 87q135 0 221 -73.5t86 -239.5zM1382 1202l-1085 -1085l-90 96l1085 1083zM1481 311q0 -152 -91.5 -236.5t-222.5 -84.5q-133 0 -216 72.5t-83 234.5q0 154 89.5 241t216.5 87q135 0 221 -74 t86 -240zM627 1141q0 96 -43 151.5t-127 55.5q-74 0 -121 -55.5t-47 -166.5q0 -199 162 -198q80 0 128 57.5t48 155.5zM1343 311q0 96 -43 151.5t-126 55.5q-74 0 -121 -55t-47 -166q0 -199 161 -199q80 0 128 57.5t48 155.5z" />
<glyph unicode="&#x26;" horiz-adv-x="1474" d="M1565 43q-23 -29 -75 -54.5t-106 -25.5q-229 0 -510 193q-66 -72 -166 -123t-200 -51q-406 0 -406 352q0 123 70 210t195 177q-92 184 -93 311q0 184 118 312.5t282 128.5q289 0 289 -254q0 -72 -36 -139.5t-105.5 -131t-121 -102.5t-133.5 -92q131 -219 379 -412 q63 104 60 168q0 37 -27 65.5t-88 59.5q0 49 6 82h348v-49q-20 -53 -96 -169t-145 -198q139 -100 276 -156q61 -25 138 -37t128 -2zM776 1198q0 68 -41 110t-106 42q-82 0 -131 -53.5t-49 -168.5q0 -150 75 -299q127 94 189.5 181.5t62.5 187.5zM811 203q-252 190 -399 438 q-109 -100 -109 -242q0 -135 68.5 -205.5t169.5 -70.5q127 0 270 80z" />
<glyph unicode="'" horiz-adv-x="505" d="M365 1546l-56 -491h-145v491h201z" />
<glyph unicode="(" horiz-adv-x="722" d="M643 -350l-78 -86q-37 31 -74.5 69.5t-107.5 135t-120 203t-89 270.5t-39 342t39 337.5t90 261t120 189.5t107.5 124t73.5 60l78 -86q-33 -27 -68.5 -62.5t-95 -117.5t-103.5 -174t-77 -233.5t-33 -296.5q0 -193 46 -366t119 -290.5t120 -177t92 -102.5z" />
<glyph unicode=")" horiz-adv-x="722" d="M588 584q0 -178 -39 -342t-89 -270.5t-120 -203t-107.5 -135.5t-74.5 -69l-78 86q45 43 92 102.5t120 177t119 290.5t46 366q0 156 -33 297t-77 233t-103.5 174t-93 117t-68.5 63l76 86q35 -25 73.5 -60.5t107.5 -123.5t120 -189.5t90 -261t39 -337.5z" />
<glyph unicode="*" horiz-adv-x="944" d="M821 1079l-14 -69l-57 -56l-240 174l31 -292l-70 -21l-72 21l33 294l-242 -176l-49 50l-18 73l268 119l-268 121l14 74l56 49l241 -178l-33 299l70 20l72 -20l-29 -295l238 174l57 -47l12 -74l-278 -121z" />
<glyph unicode="+" horiz-adv-x="1245" d="M1102 657h-406v-409h-147v409h-406v134h406v409h147v-409h406v-134z" />
<glyph unicode="," horiz-adv-x="901" d="M629 59q0 -119 -88 -254t-195 -198l-72 63l36 37q34 35 45 49l34 45q23 31 32 58.5t11 56.5q-39 23 -94 84t-55 82q0 27 72.5 98.5t97.5 71.5q35 0 105.5 -76t70.5 -117z" />
<glyph unicode="-" horiz-adv-x="780" d="M678 520l-576 2v135l576 33v-170z" />
<glyph unicode="." horiz-adv-x="901" d="M623 72q0 -23 -73 -98.5t-101 -75.5q-27 0 -98.5 73.5t-71.5 100t72.5 98.5t97.5 72q27 0 100.5 -71.5t73.5 -98.5z" />
<glyph unicode="/" horiz-adv-x="1081" d="M1022 1458l-920 -1823l-110 58l919 1823z" />
<glyph unicode="0" horiz-adv-x="1349" d="M1260 561q0 -264 -176.5 -422.5t-430.5 -158.5q-252 0 -407.5 145t-155.5 410q0 270 176 439t428 169t409 -156t157 -426zM1057 561q0 186 -110.5 313t-280.5 127q-377 0 -377 -440q0 -188 110.5 -311t290.5 -123q367 0 367 434z" />
<glyph unicode="1" horiz-adv-x="899" d="M858 109q0 -78 -8 -109h-741q-12 59 -9 104l187 54q78 20 80 94l6 307v420h-312v117l498 59v-596l6 -311q2 -49 10.5 -61.5t49.5 -22.5z" />
<glyph unicode="2" horiz-adv-x="993" d="M924 0h-822l-41 133q33 29 153 127l204 172q84 74 159.5 175.5t75.5 176.5q0 195 -217 195q-145 0 -297 -74l-61 131q162 106 381 107q172 0 286.5 -81t114.5 -247q0 -49 -11 -97t-39 -94l-50 -82q-23 -36 -72 -81l-76 -71q-27 -26 -89 -68l-84 -59l-88 -59t-77 -50 l650 18v-172z" />
<glyph unicode="3" horiz-adv-x="1009" d="M907 129q0 -197 -150.5 -336t-348.5 -139q-207 0 -355 63l47 170q8 -4 37 -16l44 -18l44 -18q29 -11 51.5 -16t52 -9.5t58.5 -4.5q156 0 233.5 57.5t77.5 190.5q0 139 -101 219t-275 93l-21 106q135 10 234.5 96t99.5 203q0 215 -234 215q-123 0 -237 -49l-47 108 q150 102 317 103q186 0 291.5 -81t105.5 -251q0 -121 -91 -222t-165 -124q39 -6 90.5 -28.5t108.5 -61.5t95 -105.5t38 -144.5z" />
<glyph unicode="4" horiz-adv-x="1142" d="M1102 51h-232l11 -381h-205l8 381h-571l-58 150l477 917h136l-453 -899h469v899h186v-899h232v-168z" />
<glyph unicode="5" horiz-adv-x="1073" d="M952 166q0 -225 -156.5 -371.5t-373.5 -146.5q-193 0 -379 69l57 174q180 -86 340 -86q147 0 223 62.5t76 214.5q0 88 -37.5 151.5t-94 97.5t-142.5 55.5t-157.5 26.5t-166.5 7l62 698h725l-15 -190l-569 30l-33 -368q125 -8 232.5 -34t203 -73t150.5 -129t55 -188z" />
<glyph unicode="6" horiz-adv-x="1183" d="M1071 500q0 -217 -134 -372t-349 -155q-150 0 -249 47.5t-149.5 140.5t-69 198.5t-18.5 255t40 297t117 275.5t205 208t286 80q125 0 206 -31l-41 -162q-84 25 -159 25q-119 0 -205 -43t-134 -108.5t-76 -165t-36 -186.5t-8 -200q0 -86 14.5 -167t48 -160.5t101 -128 t160.5 -48.5q131 0 188 97.5t57 240.5q0 303 -286 303q-68 0 -136 -12l-16 119q150 43 231 43q190 0 301 -101.5t111 -289.5z" />
<glyph unicode="7" horiz-adv-x="983" d="M942 1001l-704 -1402l-164 67l676 1282l-709 -12v182h838z" />
<glyph unicode="8" horiz-adv-x="1138" d="M1053 397q0 -188 -143.5 -307t-362.5 -119q-209 0 -335 101.5t-126 281.5q0 127 79 224.5t208 154.5q-219 150 -219 346q0 139 115.5 265t297.5 126q203 0 316.5 -89t113.5 -242q0 -141 -68.5 -221t-209.5 -146q66 -33 116 -64.5t104 -78.5t84 -105.5t30 -126.5z M807 1114q0 39 -10.5 76t-35 73.5t-73.5 59.5t-119 23q-111 0 -171 -63.5t-60 -166.5q0 -53 28.5 -103t82 -89t95.5 -63.5t99 -51.5q164 125 164 305zM842 367q0 41 -21.5 77.5t-67.5 69.5t-86 56.5t-113 60.5t-112 59q-166 -158 -166 -325q0 -111 80 -191t209 -80 q137 0 207 75t70 198z" />
<glyph unicode="9" horiz-adv-x="1179" d="M1071 481.5q0 -149.5 -40 -294t-116.5 -269.5t-204.5 -201.5t-286 -76.5q-125 0 -207 30l41 162q82 -25 160 -25q119 0 205 43.5t134 109t75.5 164.5t36 186t8.5 200q0 86 -14.5 167t-48.5 161t-101.5 128t-159.5 48q-131 0 -188.5 -97.5t-57.5 -240.5q0 -303 287 -303 q68 0 135 12l16 -119q-150 -43 -231 -43q-188 0 -300 108.5t-112 299.5q0 215 133.5 362.5t350.5 147.5q150 0 249 -50.5t149 -146.5t68.5 -204.5t18.5 -258z" />
<glyph unicode=":" horiz-adv-x="901" d="M623 993q0 -23 -73 -98.5t-101 -75.5q-27 0 -98.5 74t-71.5 100.5t72.5 98t97.5 71.5q27 0 100.5 -71.5t73.5 -98.5zM623 72q0 -23 -73 -98.5t-101 -75.5q-27 0 -98.5 73.5t-71.5 100t72.5 98.5t97.5 72q27 0 100.5 -71.5t73.5 -98.5z" />
<glyph unicode=";" horiz-adv-x="901" d="M623 991q0 -23 -73 -98.5t-101 -75.5q-27 0 -98.5 74t-71.5 100.5t72.5 98t97.5 71.5q27 0 100.5 -71.5t73.5 -98.5zM645 59q0 -119 -88 -254t-195 -198l-71 63l31 32l35 38q11 12 31 37.5t30 44t19 44t9 50.5q-39 25 -93 85t-54 81q0 27 72.5 98.5t97.5 71.5 q35 0 105.5 -76t70.5 -117z" />
<glyph unicode="&#x3c;" horiz-adv-x="1013" d="M911 999l-659 -276l659 -274l-47 -121l-762 319v154l762 319z" />
<glyph unicode="=" horiz-adv-x="1083" d="M940 846h-797v135h797v-135zM940 463h-797v135h797v-135z" />
<glyph unicode="&#x3e;" horiz-adv-x="1013" d="M911 647l-759 -319l-50 121l660 274l-660 276l50 121l759 -319v-154z" />
<glyph unicode="?" horiz-adv-x="946" d="M862 1196q0 -84 -42 -167t-102 -148l-121 -126q-60 -60 -102 -127t-42 -126l18 -99l-152 -34q-49 119 -49 168q0 63 43 134.5t106 135.5l125 126q62 62 105 125.5t43 117.5q0 43 -56 87t-179 44q-39 0 -75 -5.5t-52.5 -9.5t-67.5 -21.5t-74 -23.5q-27 51 -26 88 q0 139 244 140q199 0 327.5 -80t128.5 -199zM596 72q0 -23 -72.5 -98.5t-101.5 -75.5q-27 0 -98.5 73.5t-71.5 100t72.5 98.5t97.5 72q27 0 100.5 -71.5t73.5 -98.5z" />
<glyph unicode="@" horiz-adv-x="1650" d="M1507 754q0 -297 -126 -438.5t-312 -141.5q-72 0 -115 35t-41 98q-45 -47 -112.5 -83t-116.5 -36q-195 0 -195 252q0 209 112 334t292 125q135 0 221 -45l-51 -459q-10 -92 33 -92q31 0 62.5 7t74.5 36t75.5 74t55 131t22.5 199q0 473 -413 473q-139 0 -256 -41 t-215.5 -129t-154.5 -248t-56 -379q0 -313 127 -449.5t375 -136.5q145 0 301 37l26 -102q-129 -53 -348 -54q-297 0 -452.5 183.5t-155.5 498.5q0 242 64.5 424.5t179 291t258 161.5t313.5 53q246 0 387 -141t141 -438zM954 774q-31 10 -67 10q-72 0 -120 -26.5t-71.5 -76.5 t-33 -105.5t-9.5 -129.5q0 -70 28 -97t60 -27q86 0 174 106z" />
<glyph unicode="A" horiz-adv-x="1501" d="M1456 90q0 -59 -8 -90h-561q-8 41 -8 90l145 43q59 16 59 105q0 25 -6 49l-98 299h-508l-127 -320q-6 -16 -6 -33q0 -80 102 -110l113 -33q0 -59 -8 -90h-490q-8 41 -8 90q98 72 137 164l492 1176l190 55l434 -1209q16 -45 61.5 -99t94.5 -87zM936 719l-135 424l-43 160 h-15l-51 -156l-168 -428h412z" />
<glyph unicode="B" horiz-adv-x="1394" d="M1272 412q0 -190 -128 -301t-403 -111h-675q-7 52 -7 84v14l140 37q35 8 56 43t24 78l6 303v674q0 63 -49 82l-154 53q-1 9 -1 18q0 32 11 62h586q489 0 489 -356q0 -236 -223 -318v-6q51 -8 100.5 -26.5t104.5 -56.5t89 -108.5t34 -164.5zM954 1067h2q0 141 -73.5 197.5 t-247.5 56.5h-166v-510h182q170 0 236.5 61.5t66.5 194.5zM1061 406q0 164 -103.5 219t-332.5 55h-156v-125l8 -420h225q174 0 266.5 56.5t92.5 214.5z" />
<glyph unicode="C" horiz-adv-x="1376" d="M1274 41q-166 -55 -414 -55q-748 0 -747 729q0 332 196.5 545t542.5 213q61 0 113.5 -4.5t85 -8.5t70.5 -15t50.5 -15.5t46 -18.5t37.5 -16v-310h-94q-43 121 -113.5 184.5t-203.5 63.5q-242 0 -386.5 -147.5t-144.5 -450.5q0 -301 159 -446.5t425 -145.5q166 0 334 35z " />
<glyph unicode="D" horiz-adv-x="1613" d="M1501 760q0 -369 -217 -564.5t-590 -195.5h-614q-9 43 -9 77q0 11 1 21l139 37q80 20 80 139l4 287l2 680q0 57 -49 74l-152 49q-2 14 -2 27q0 31 10 57h578q150 0 265.5 -16.5t223 -61.5t177 -120.5t111.5 -198.5t42 -291zM1276 723q0 305 -150.5 446.5t-449.5 141.5 h-193v-752l13 -424h221q289 0 424 137.5t135 450.5z" />
<glyph unicode="E" horiz-adv-x="1312" d="M1231 338l-39 -338h-1112q-9 43 -9 78q0 12 1 22l139 37q37 8 58.5 42t21.5 77l6 305v672q0 66 -49 82l-154 53q-1 9 -1 18q0 32 11 62h1041v-328q-6 -2 -107 -2q-18 96 -53 139t-108 46l-394 12v-520l555 10v-156l-555 10v-100l11 -424l383 6q102 2 167.5 64.5 t94.5 146.5z" />
<glyph unicode="F" horiz-adv-x="1165" d="M1124 1106q-32 -6 -55 -6q-27 0 -43 8q-10 43 -21.5 69.5t-31 54.5t-53 43t-80.5 17l-379 23v-561l577 18v-164l-577 10v-61l6 -328v-13q0 -9 1 -12t2 -10.5t2 -10.5t4 -7t8 -7t12.5 -5l15.5 -4l233 -47q0 -84 -10 -113h-655q-9 46 -9 78q0 6 1 12l118 37q37 10 58.5 47 t21.5 82l6 303v674q0 66 -49 82l-153 53q-1 9 -1 18q0 32 11 62h1040v-342z" />
<glyph unicode="G" horiz-adv-x="1497" d="M1337 1071h-94q-92 262 -399 262q-242 0 -386.5 -147.5t-144.5 -450.5q0 -301 159 -446.5t425 -145.5q150 0 252 27v438h186l2 -559q-168 -63 -477 -63q-748 0 -747 729q0 332 196.5 545t542.5 213q258 0 485 -93v-309z" />
<glyph unicode="H" horiz-adv-x="1740" d="M1669 109q0 -80 -10 -109h-586q-9 43 -9 77q0 11 1 21l86 25q59 16 85 73.5t26 116.5l4 246v100h-799v-100l8 -328q2 -66 45 -75l197 -54q0 -74 -10 -102h-627q-9 46 -9 78q0 6 1 12l118 43q41 16 65 65.5t24 98.5l4 262v631q0 113 -62 131l-149 43q0 53 8 84h557 q9 -46 8 -79v-13l-115 -27q-41 -10 -52 -26.5t-11 -57.5v-450h799v374q0 45 -22.5 94.5t-61.5 63.5l-101 37q0 76 2 84h537q0 -74 -4 -92l-107 -25q-35 -10 -47 -25.5t-12 -54.5v-692l8 -330q0 -74 39 -82z" />
<glyph unicode="I" horiz-adv-x="737" d="M670 102q0 -74 -11 -102h-579q-9 46 -9 78q0 6 1 12l108 43q74 29 78 141l4 285v615q0 125 -102 159l-82 31q-4 12 -3 40t5 44h536q7 -34 8 -66q0 -13 -1 -26l-84 -19q-45 -10 -67.5 -56t-22.5 -101v-621l6 -348q0 -39 9 -53.5t42 -20.5z" />
<glyph unicode="J" horiz-adv-x="698" d="M627 1358l-99 -25q-47 -10 -62 -27.5t-15 -62.5v-1065q0 -211 -102.5 -332.5t-313.5 -228.5l-70 121q164 100 230.5 224t66.5 337v883q0 45 -26.5 90t-71.5 61l-90 31q0 55 10 84h537q7 -49 6 -77v-13z" />
<glyph unicode="K" horiz-adv-x="1490" d="M1487 72l-23 -117q-246 10 -360 133l-576 610v88l459 418q41 35 41 74t-35 49l-98 31q0 68 8 90h479v-90l-669 -563l497 -519q156 -163 277 -204zM655 104q0 -76 -10 -104h-565q-9 46 -9 78q0 6 1 12l135 47q74 27 78 137l4 285v635q0 41 -15.5 78t-46.5 49l-123 43 q-4 12 -3 40t5 44h537q10 -51 8 -80l-102 -39q-35 -14 -54.5 -56t-19.5 -89v-609l4 -354q0 -61 43 -74z" />
<glyph unicode="L" horiz-adv-x="1181" d="M1157 338l-41 -338h-1036q-9 43 -9 77q0 11 1 21l131 37q35 8 55.5 42t20.5 77l6 303v637q0 41 -15.5 79t-46.5 48l-129 43q0 53 8 84h537q9 -46 9 -78q0 -6 -1 -12l-98 -25q-47 -10 -62.5 -23.5t-15.5 -56.5v-694l10 -418l336 9q98 14 160.5 70t87.5 132z" />
<glyph unicode="M" horiz-adv-x="2080" d="M2019 94q0 -63 -8 -94h-526q-8 61 -8 90l90 27q77 22 77 160q0 30 -4 65l-81 684l-7 109h-10l-455 -1133l-139 -45l-440 1192h-12l-2 -105l-129 -821q-2 -14 -3 -24q0 -35 25 -41l193 -62q0 -74 -9 -96h-530q-9 46 -9 78q0 6 1 12l73 37q41 20 71 65.5t38 94.5l154 919 q2 9 1 18q0 26 -14 52q-18 35 -47 45l-129 43q0 53 8 84h404l330 -850l104 -307h18l111 317l352 840h385q10 -51 9 -80l-101 -35q-39 -12 -60 -55q-16 -31 -16 -73q0 -16 2 -34l127 -929q4 -33 26 -62.5t48 -40.5z" />
<glyph unicode="N" horiz-adv-x="1693" d="M1640 1368l-120 -35q-37 -10 -60.5 -52t-23.5 -89v-1190l-156 -45l-848 1251h-14l18 -164v-485l6 -328q0 -39 8.5 -52t41.5 -25l174 -60q0 -66 -11 -94h-575q-9 46 -9 78q0 6 1 12l118 37q45 12 71 64.5t28 107.5l4 260v658q0 82 -60 104l-124 43q0 70 4 84h413 l772 -1112h15l-21 215v639q0 39 -22.5 79t-52.5 52l-130 43q0 61 9 84h536q8 -62 8 -80z" />
<glyph unicode="O" horiz-adv-x="1675" d="M1563 778q0 -344 -202 -573.5t-540 -229.5q-336 0 -522 183.5t-186 515.5q0 346 207.5 571t539.5 225q342 0 522.5 -183t180.5 -509zM1337 745q0 270 -120.5 426t-374.5 156q-135 0 -234.5 -48t-157 -135t-85 -195.5t-27.5 -239.5q0 -266 116.5 -426t372.5 -160 q139 0 240.5 48t159 136t84 195.5t26.5 242.5z" />
<glyph unicode="P" horiz-adv-x="1263" d="M1214 1008q0 -205 -144 -330t-429 -125h-39v127l51 2q178 6 268.5 77.5t90.5 237.5q0 307 -318 314l-231 4v-756l6 -332q2 -35 10 -50t35 -21l209 -56q0 -72 -10 -100h-633q-9 46 -9 78q0 6 1 12l118 37q35 10 57.5 47t22.5 80l6 305v674q0 66 -49 82l-153 53q-1 9 -1 18 q0 32 11 62h664q221 0 343.5 -109.5t122.5 -330.5z" />
<glyph unicode="Q" horiz-adv-x="1673" d="M1563 778q0 -344 -202 -573.5t-540 -229.5q-336 0 -522 183.5t-186 515.5q0 346 207.5 571t539.5 225q342 0 522.5 -183t180.5 -509zM1890 -326q-137 -160 -306 -159q-33 0 -66 6q-45 8 -144 45l-315 121q-82 31 -129 37q-21 3 -43 3q-90 0 -185 -57l-12 -6l-59 78 q149 158 312 158q27 0 54 -4q53 -8 140 -41l327 -127q70 -27 121 -35q18 -7 40 -7q11 0 24 2q37 5 51 5t45 14t45 22.5l47 28.5zM1337 745q0 270 -120.5 426t-374.5 156q-135 0 -234.5 -48t-157 -135t-85 -195.5t-27.5 -239.5q0 -266 116.5 -426t372.5 -160q139 0 240.5 48 t159 136t84 195.5t26.5 242.5z" />
<glyph unicode="R" horiz-adv-x="1472" d="M1534 47l-25 -94q-326 20 -479 184q-27 27 -53.5 61.5t-54.5 76.5l-51 76l-50 83l-41 72l-37 67q-25 45 -26 48q-37 -6 -80 -7h-180l8 -413q0 -49 35 -56l166 -39q0 -84 -9 -106h-565q-7 49 -6 77v13l98 37q68 23 82 129l6 303v696q-12 45 -47 60l-153 53q-1 9 -1 18 q0 32 11 62h618q496 0 496 -399q0 -131 -70.5 -239t-195.5 -146q170 -276 278 -388q115 -115 179.5 -163t146.5 -66zM985 1038h2q0 266 -338 273l-192 4v-565h190q338 -1 338 288z" />
<glyph unicode="S" horiz-adv-x="1171" d="M1073 391q0 -106 -47 -188t-127 -130t-175 -72t-202 -24q-240 0 -440 89l16 342h109q18 -139 127.5 -220.5t249.5 -81.5q131 0 210.5 65t79.5 194q0 53 -24.5 94t-73.5 71.5t-99 53t-124 51.5q-25 8 -39 14q-82 31 -139.5 61.5t-116.5 79t-90 117t-31 152.5 q0 182 142.5 295.5t334.5 113.5q274 0 412 -69v-322h-86q-23 113 -115 185.5t-207 72.5q-299 0 -299 -243q0 -121 302 -240l109.5 -45t101 -49t97.5 -64.5t72.5 -77t55 -101.5t16.5 -124z" />
<glyph unicode="T" horiz-adv-x="1294" d="M1286 1448v-338q-22 -7 -59 -7q-15 0 -33 1q-39 205 -193 205h-262v-750l11 -348q0 -39 7 -53.5t36 -20.5l194 -37q0 -70 -8 -100h-660q-9 43 -9 78q0 12 1 22l152 39q33 8 57.5 52.5t26.5 89.5l6 278v750h-281q-131 0 -170 -205q-17 -3 -34 -3l-60 9v338h1278z" />
<glyph unicode="U" horiz-adv-x="1593" d="M1542 1360l-102 -33q-18 -6 -27.5 -12t-19 -23.5t-9.5 -46.5v-698q0 -154 -52 -269.5t-138 -179t-182.5 -94.5t-198.5 -31q-90 0 -168 13.5t-154.5 49.5t-130 92t-87 149.5t-33.5 214.5v722q0 35 -16.5 67t-43.5 40l-129 43q0 53 8 84h551q5 -27 6 -60q0 -16 -2 -34 l-116 -25q-53 -10 -54 -65v-758q0 -203 112 -297t267 -94q377 0 377 440v643q0 106 -115 139l-88 27q0 76 2 84h537q6 -31 6 -88z" />
<glyph unicode="V" horiz-adv-x="1456" d="M1450 1368l-82 -37q-61 -29 -111 -155l-479 -1174l-143 -43l-424 1227q-35 106 -70 125l-114 61q0 45 8 76h534q9 -41 10 -75q0 -11 -1 -21l-105 -23q-63 -13 -63 -61q0 -15 6 -33l313 -991l354 903q9 18 9 45q0 22 -6 51q-13 63 -48 80l-96 45q0 49 8 80h496 q5 -25 5 -52q0 -14 -1 -28z" />
<glyph unicode="W" horiz-adv-x="2244" d="M2224 1368l-80 -37q-70 -31 -106 -141l-406 -1192l-145 -41l-346 936l-424 -891l-133 -39l-391 1258q-20 72 -58 90l-115 61q0 45 9 76h524q10 -53 8 -82l-104 -37q-35 -12 -46 -57q-5 -18 -5 -37q0 -26 10 -51l270 -948l389 827l-59 190q-12 39 -45 58l-115 61v76h537 q9 -44 8 -72v-10l-105 -37q-35 -12 -46 -55q-5 -19 -5 -38q0 -25 8 -50l320 -955l297 949q11 37 11 64q0 51 -38 69l-119 55q0 51 11 80h483q8 -60 6 -80z" />
<glyph unicode="X" horiz-adv-x="1427" d="M1411 90q0 -68 -8 -90h-522q-7 49 -7 77v13l87 47q30 16 29 44q0 26 -25 63l-263 377l-280 -363q-18 -25 -18 -56q0 -45 28 -57l119 -55q0 -68 -8 -90h-520q-7 49 -7 77v13l78 37q72 33 176 160l353 450l-338 449q-57 76 -209 170q-6 10 -7 43t3 49h501q7 -51 7 -79v-13 l-84 -37q-23 -9 -23 -39q0 -25 21 -59l235 -344l256 331q22 25 22 58q0 36 -24 47l-90 45q0 76 4 90h481q2 -9 2 -25q0 -24 -4 -65q-63 -16 -135 -61.5t-108 -96.5l-326 -436l377 -488q53 -70 97 -105.5t130 -80.5z" />
<glyph unicode="Y" horiz-adv-x="1355" d="M1339 1368q-113 -45 -159 -123l-420 -663l6 -332q0 -37 16.5 -68.5t42.5 -40.5l172 -47q0 -63 -8 -94h-633q-9 43 -9 79q0 12 1 23l144 37q76 18 75 117l6 326l-399 635q-20 31 -44 56t-39 38.5t-41 33.5l-36 27q0 61 4 76h494q8 -41 8 -82l-104 -39q-31 -10 -31 -53 t27 -88l276 -469l295 481q12 19 12 41q0 11 -3 24q-9 36 -36 50l-114 55q0 63 6 80h485q6 -39 6 -80z" />
<glyph unicode="Z" horiz-adv-x="1241" d="M1180 348l-39 -348h-1051l-35 117l815 1200l-491 -8q-135 -20 -170 -203q-15 -2 -31 -2q-31 0 -63 8v336h999l25 -90l-828 -1211l518 9q102 2 168 63.5t90 142.5z" />
<glyph unicode="[" horiz-adv-x="710" d="M559 -451h-323v1995h323v-121h-184v-1753h184v-121z" />
<glyph unicode="\" horiz-adv-x="1089" d="M1098 -299l-121 -70l-961 1842l121 69z" />
<glyph unicode="]" horiz-adv-x="710" d="M475 -451h-323v121h184v1753h-184v121h323v-1995z" />
<glyph unicode="^" horiz-adv-x="1110" d="M967 602h-150l-248 709l-297 -709h-143l358 846h162z" />
<glyph unicode="_" horiz-adv-x="1024" d="M1024 -334h-1024v135h1024v-135z" />
<glyph unicode="`" horiz-adv-x="1163" d="M897 1382l-49 -108q-283 119 -555 282l121 162q235 -197 483 -336z" />
<glyph unicode="a" d="M1165 72q-25 -23 -123 -53.5t-153 -30.5q-51 0 -83 14t-45 44t-17.5 53.5t-4.5 62.5q-31 -33 -72.5 -67t-133 -72.5t-181.5 -38.5q-117 0 -193.5 67.5t-76.5 192.5q0 152 112.5 237.5t276.5 112.5l266 35v162q0 121 -63.5 164.5t-218.5 43.5q-127 0 -269 -43l-32 119 q166 68 356 68q63 0 104 -3t103.5 -18.5t100.5 -45t66.5 -88t28.5 -142.5v-287l15 -405h223zM737 258v260q-150 -16 -254 -41q-211 -49 -211 -201q0 -53 36 -87.5t118 -34.5q121 0 311 104z" />
<glyph unicode="b" horiz-adv-x="1247" d="M1157 584q0 -262 -157.5 -430t-395.5 -168q-254 0 -395 43l10 530v862h-209v99q180 45 305 45q43 0 61.5 -16.5t18.5 -57.5v-932l11 -409q106 -20 204 -21q176 0 261 119t85 319q0 199 -64.5 308.5t-234.5 109.5q-106 0 -174 -14l-24 84q37 29 112.5 51t137.5 22 q225 0 336.5 -124.5t111.5 -419.5z" />
<glyph unicode="c" horiz-adv-x="1017" d="M952 1014q0 -111 -96 -170q-133 160 -260 160q-166 0 -243 -102.5t-77 -336.5q0 -211 81 -321.5t298 -110.5q145 0 258 39l35 -106q-43 -29 -132 -56.5t-208 -27.5q-295 0 -406.5 133t-111.5 456q0 231 147.5 403.5t383.5 172.5q331 0 331 -133z" />
<glyph unicode="d" horiz-adv-x="1284" d="M1251 76q-51 -31 -139 -59.5t-164 -28.5q-106 0 -106 168q-49 -49 -77 -74t-94.5 -59.5t-129.5 -34.5q-451 0 -451 526q0 276 151.5 444t374.5 168q125 0 228 -22v317h-209v97q188 47 305 47q43 0 62.5 -16.5t19.5 -57.5v-932l8 -403h207zM844 559v410q-150 29 -234 28 q-98 0 -164.5 -36.5t-100.5 -106.5t-47 -151.5t-13 -194.5q0 -193 76.5 -269.5t228.5 -76.5q41 0 82 10t62.5 20.5t58 30t43.5 23.5z" />
<glyph unicode="e" horiz-adv-x="1105" d="M1016 547h-742q6 -133 37 -218t90.5 -125t122 -52.5t158.5 -12.5q141 0 276 35l33 -111q-53 -35 -155.5 -58t-204.5 -23q-139 0 -232.5 22.5t-167 82.5t-107.5 171t-34 281q0 258 140.5 432t363.5 174q422 0 422 -541v-57zM807 664q0 180 -52.5 270t-176.5 90 q-119 0 -204 -95t-98 -265h531z" />
<glyph unicode="f" horiz-adv-x="843" d="M991 1454q0 -86 -69 -133q-133 117 -220 117q-88 0 -141 -19.5t-76.5 -63.5t-29.5 -85t-6 -113v-39h243v-135h-243v-424l14 -364q0 -31 22 -35l250 -54q0 -74 -10 -106h-639q-8 41 -8 90l88 37q96 39 96 135l6 297v424h-164v102l164 33v47q0 164 125 288t289 124 q41 0 84 -4t99.5 -15.5t91 -38t34.5 -65.5z" />
<glyph unicode="g" horiz-adv-x="1247" d="M1206 969h-231q35 -61 35 -191q0 -145 -120 -254.5t-302 -109.5q-143 0 -252 51v-227h366q252 0 348.5 -69t96.5 -210q0 -172 -182.5 -294t-444.5 -122q-446 0 -446 277q0 141 192 254q-27 0 -68.5 30.5t-41.5 92.5q0 139 127 292q-135 98 -136 281q0 143 110 265 t318.5 122t294.5 -76l336 66v-178zM815 768q0 119 -61.5 197.5t-163.5 78.5q-135 0 -197.5 -72.5t-62.5 -180.5q0 -119 62.5 -190t191.5 -71q104 0 167.5 63.5t63.5 174.5zM948 -72q0 84 -73.5 107.5t-241.5 23.5h-281q-88 -78 -88 -157q0 -119 92.5 -171.5t288.5 -52.5 q125 0 214 73t89 177z" />
<glyph unicode="h" horiz-adv-x="1466" d="M1403 109q0 -80 -10 -109h-508q-7 52 -7 85q0 8 1 15l88 39q25 10 42 50t17 71l6 299v172q0 150 -42 202t-189 52q-88 0 -196.5 -31.5t-153.5 -60.5v-334l8 -356q0 -37 6 -49.5t33 -16.5l192 -33q0 -76 -10 -104h-569q-7 49 -7 77v13l95 41q29 12 48 51t21 86l4 291v862 h-206v97q188 47 305 47q43 0 61.5 -16.5t18.5 -57.5v-498q203 147 421 148q90 0 154 -19.5t99.5 -49.5t55 -82t24.5 -101t5 -125v-205l7 -379q0 -23 8 -31t30 -12z" />
<glyph unicode="i" horiz-adv-x="749" d="M530 1464q0 -20 -64.5 -86.5t-89 -66.5t-88 65.5t-63.5 87.5q0 25 63.5 88.5t88.5 63.5q23 0 88 -64.5t65 -87.5zM688 104q0 -76 -10 -104h-582q-6 45 -6 90l129 45q23 8 43.5 45t22.5 66l6 311v426h-209v104q203 45 305 46q43 0 62.5 -16.5t19.5 -57.5v-502l6 -375 q0 -39 35 -45z" />
<glyph unicode="j" horiz-adv-x="737" d="M530 1466q0 -20 -64.5 -86.5t-88.5 -66.5q-23 0 -87.5 65.5t-64.5 87.5q0 25 64.5 88.5t87 63.5t88 -64.5t65.5 -87.5zM477 18v-14q0 -193 -107 -313q-112 -125 -274 -125q-80 0 -123 16l19 133q70 -16 129 -16q102 0 135 60.5t33 199.5v1024h-205v104q203 45 305 46 q43 0 60.5 -16.5t17.5 -57.5v-502z" />
<glyph unicode="k" horiz-adv-x="1265" d="M1253 53l-6 -96q-102 0 -225 39t-203 145l-334 441l328 319q29 29 29 55q0 45 -33 56l-88 32q-1 13 -1 24q0 33 5 50h405v-74l-436 -411l281 -379q57 -78 140 -131.5t138 -69.5zM600 92q0 -63 -10 -92h-496q-7 49 -6 77v13l109 43q33 12 52 53t19 80l8 293v862h-206v99 q180 45 305 45q80 0 80 -80v-926l6 -305q4 -102 61 -127z" />
<glyph unicode="l" horiz-adv-x="710" d="M672 102q0 -74 -10 -102h-574q-7 49 -6 77v13l108 39q68 25 72 115l10 315v862h-206v99q180 45 305 45q80 0 80 -80v-926l10 -383q0 -25 4 -30t20 -9z" />
<glyph unicode="m" horiz-adv-x="2127" d="M2075 106q0 -84 -9 -106h-503q-9 34 -10 74q0 14 1 28l74 41q55 29 58 111l6 303v174q0 152 -38 203t-186 51q-156 0 -315 -80q6 -66 6 -141v-205l6 -375q0 -41 33 -47l184 -31q0 -84 -8 -106h-514q-8 57 -8 96l74 37q45 23 49 90l6 334v174q0 66 -3 100.5t-14.5 69.5 t-35 50.5t-63.5 24.5t-101 9q-88 0 -176 -30.5t-139 -61.5v-334l8 -360q0 -55 30 -60l162 -30q0 -86 -8 -109h-532q-8 25 -9 90l86 37q33 14 56.5 48t23.5 79l4 305v424h-209v102q193 43 306 43q43 0 60 -16t17 -57v-62l98.5 69.5t115.5 49.5t178 29q242 0 297 -144 q199 143 407 144q111 0 180.5 -25.5t100 -83t40 -115t9.5 -153.5v-205l8 -375q0 -29 7 -36t34 -11z" />
<glyph unicode="n" horiz-adv-x="1443" d="M1395 104q0 -82 -9 -104h-491q-7 52 -7 84q0 8 1 14l57 39q61 41 62 113l6 309v172q0 150 -42 202t-190 52q-88 0 -187 -31.5t-146 -60.5v-334l6 -373q0 -20 1 -27t7 -13.5t18 -8.5l181 -33q0 -82 -9 -104h-547q-7 49 -6 77v13l95 45q31 14 50 51t19 68l6 305v424h-207 v102q168 43 306 43q43 0 59 -16t16 -57v-62q203 147 410 148q90 0 153.5 -19.5t99.5 -49.5t55.5 -82t24.5 -101t5 -125v-205l8 -393q0 -18 4 -22.5t23 -8.5z" />
<glyph unicode="o" d="M1100 559q0 -229 -151.5 -401t-366.5 -172q-492 0 -492 561q0 231 151.5 409.5t358.5 178.5q252 0 376 -140.5t124 -435.5zM899 571q0 88 -12.5 156t-44 133.5t-98 101t-166.5 35.5q-291 0 -291 -452q0 -197 70.5 -302.5t256.5 -105.5q88 0 147.5 35t88.5 101.5t39 135 t10 162.5z" />
<glyph unicode="p" horiz-adv-x="1286" d="M1194 592q0 -168 -46 -291t-126 -189.5t-174 -97t-205 -30.5t-194 12l12 -266q0 -14 1 -20.5t10 -13.5t28 -11l164 -31q2 -20 1 -38q0 -41 -10 -67h-546q-7 41 -8 73q0 13 1 24l74 30q76 33 76 129l6 758v420h-207v100q225 45 305 45q43 0 61.5 -16t18.5 -57v-45 q143 121 289 120q469 1 469 -538zM995 551q0 82 -16 155.5t-49 139t-94.5 105.5t-143.5 40q-137 0 -254 -90v-342l6 -426q102 -16 205 -16q176 0 261 116.5t85 317.5z" />
<glyph unicode="q" horiz-adv-x="1202" d="M1221 -344v-21q0 -50 -9 -86h-569q-4 12 -6 36t-2 42v19l106 39q86 35 86 184l4 217l-24 -12q-25 -14 -29 -16.5t-26.5 -14.5t-31.5 -15t-29.5 -11.5t-34 -11.5l-33 -7t-37 -6t-35.5 -2q-70 0 -124 8t-120.5 41t-110.5 89t-75 159.5t-31 244.5q0 274 151.5 433t376.5 159 q215 0 400 -51v-512l8 -797q0 -47 6 -60t29 -17zM836 559v404q-4 0 -48.5 12t-83 17t-88.5 5q-340 0 -340 -448q0 -215 73 -303t226 -88q143 0 256 41z" />
<glyph unicode="r" horiz-adv-x="909" d="M905 1122l-33 -188q-59 23 -131 22q-215 0 -290 -88v-307l8 -371q0 -49 30 -53l213 -33q0 -82 -8 -104h-585q-9 46 -9 78v12l97 49q68 37 71 154l4 268v424h-206v105q193 43 305 43q43 0 60.5 -16.5t17.5 -57.5v-90q41 70 131 120t190 50q86 -1 135 -17z" />
<glyph unicode="s" horiz-adv-x="989" d="M887 307q0 -92 -36 -158.5t-99.5 -101.5t-134 -51t-154.5 -16q-201 0 -359 73l17 320l96 -2q2 -113 72.5 -193t189.5 -80q104 0 171 44t67 139q0 53 -59.5 94t-144.5 72.5t-170 73.5t-144.5 120t-59.5 188q0 156 109.5 235t283.5 79q184 0 328 -72l-35 -272l-75 8 q-14 90 -86 150.5t-170 60.5q-94 0 -146.5 -42t-52.5 -122q0 -55 61.5 -98t147.5 -78t173 -78t148.5 -118t61.5 -175z" />
<glyph unicode="t" horiz-adv-x="864" d="M838 12q-98 -35 -197 -35q-96 0 -153.5 5.5t-113 24t-83 54t-44 95t-16.5 149.5l7 678h-164v74l319 291h29v-230h375v-135h-375v-426l6 -250q2 -123 40 -152.5t171 -29.5q90 0 174 18z" />
<glyph unicode="u" horiz-adv-x="1392" d="M1352 72q-154 -84 -277 -84q-139 0 -149 155l-52 -40q-43 -34 -65.5 -48t-66.5 -36.5t-90 -33t-99 -10.5q-106 0 -174 24t-100.5 74t-43 103t-10.5 135v672h-184v100q180 45 289 45q43 0 60.5 -16t17.5 -57v-494l6 -192q2 -57 7 -94t22.5 -75t54.5 -56.5t94 -18.5 q74 0 168 52t158 102l8 278v426h-207v98q182 47 305 47q43 0 61.5 -16t18.5 -57v-496l6 -405h227z" />
<glyph unicode="v" horiz-adv-x="1140" d="M1112 1118q0 -63 -6 -84q-4 -2 -16 -13l-20 -17q-7 -6 -20.5 -20.5t-22.5 -29t-21.5 -37t-22.5 -49.5l-346 -868l-141 -45l-346 942q-27 76 -117 127q0 78 6 94h444q0 -80 -10 -106h-145l264 -799l246 647q7 22 7 46q0 21 -6 43q-13 46 -38 55l-58 22q0 82 5 92h364z" />
<glyph unicode="w" horiz-adv-x="1849" d="M1829 1118q0 -55 -4 -69q-10 -2 -26.5 -8.5t-54.5 -49.5t-63 -110l-317 -883l-133 -39l-313 877l-320 -836l-131 -39l-305 913q-39 119 -127 146q0 70 12 98h459l-12 -106h-168l233 -760l307 844l140 45l321 -893l227 682q8 27 -6 51.5t-39 36.5l-67 29q-1 13 -1 24 q0 28 7 47h381z" />
<glyph unicode="x" horiz-adv-x="1210" d="M1169 90q1 -18 2 -33q0 -38 -8 -57h-463q-4 20 -4 82l19 10q16 10 27.5 27.5t14.5 45.5t-20 56l-159 228l-224 -269q-20 -27 -16 -45t24 -20l111 -15q1 -21 1 -38q0 -43 -7 -62h-434q-7 25 -8 50q0 17 4 34q82 23 145 94l330 375l-299 414q-25 35 -135 71q-5 27 -5 47 t5 33h452q0 -82 -14 -108h-121l225 -332l197 229q16 18 20.5 48t-14.5 44q-43 31 -74 45q0 49 11 74h389q0 -68 -11 -82q-86 -14 -169 -114l-275 -340l281 -371q27 -35 55.5 -55.5t52.5 -30.5t94 -35z" />
<glyph unicode="y" horiz-adv-x="1167" d="M1147 1118q0 -72 -8 -96q-57 -20 -82 -51q-27 -31 -51 -97l-410 -1038q-90 -221 -244 -319l-112 145q55 37 121.5 102.5t91.5 122.5l53 119l-350 901q-37 86 -133 119q0 72 8 92h452q0 -74 -8 -106h-158l299 -793l246 643q10 23 10 48q0 20 -7 40q-15 45 -60 62l-43 16 q-1 22 -1 39q0 35 3 51h383z" />
<glyph unicode="z" horiz-adv-x="1038" d="M997 338l-55 -338h-876l-25 72l676 893h-391q-53 0 -113.5 -48.5t-95.5 -91.5l-64 25l70 268h790l31 -82l-659 -884h387q45 0 103.5 48t91 89t53.5 71q40 -6 77 -22z" />
<glyph unicode="{" horiz-adv-x="739" d="M639 -451l-49 -2q-184 -8 -297 73t-92 271l43 406q20 207 -162 207v110q182 0 162 209l-43 420q-16 174 85 249t281 71l72 -2l-2 -113h-53q-141 0 -203 -48t-47 -165l43 -391q25 -223 -137 -283q68 -25 105.5 -100.5t27.5 -177.5l-43 -394q-12 -119 46 -172t208 -53h53z " />
<glyph unicode="|" horiz-adv-x="536" d="M338 -451h-139v1995h139v-1995z" />
<glyph unicode="}" horiz-adv-x="739" d="M657 504q-182 0 -161 -207l43 -406q10 -100 -17.5 -171.5t-85 -108.5t-129 -52.5t-157.5 -11.5l-50 2l2 115h54q147 0 206.5 53.5t47.5 171.5l-43 394q-10 104 26.5 180t106.5 98q-162 61 -138 283l44 391q12 117 -48.5 165t-201.5 48h-54l-4 113h72q182 4 283.5 -70 t85.5 -248l-43 -420q-10 -96 29.5 -152.5t131.5 -56.5v-110z" />
<glyph unicode="~" horiz-adv-x="1099" d="M1020 717q-106 -127 -254 -127q-111 0 -243 54t-204 54q-102 0 -184 -53l-63 94q41 45 111.5 80t148.5 35q106 0 228 -55.5t206 -55.5q104 0 180 60z" />
<glyph unicode="&#xa1;" horiz-adv-x="671" d="M508 1016q0 -29 -73 -100.5t-97 -71.5q-27 0 -100.5 72.5t-73.5 99.5q0 23 72.5 97.5t101.5 74.5q27 0 98.5 -73.5t71.5 -98.5zM457 -360l-121 -62l-119 62l47 1046h146z" />
<glyph unicode="&#xa2;" horiz-adv-x="1107" d="M985 1014q0 -111 -96 -170q-133 160 -260 160q-166 0 -243 -102.5t-77 -336.5q0 -211 81 -321.5t298 -110.5q145 0 258 39l35 -106q-115 -74 -301 -84v-324h-121v326q-246 16 -341 151t-95 436q0 207 118.5 370t317.5 198v303h121v-295q305 -6 305 -133z" />
<glyph unicode="&#xa3;" horiz-adv-x="1171" d="M1118 162q-53 -80 -109.5 -121t-154.5 -41h-788q-8 37 -9 100l123 35q41 12 57.5 41t22.5 92l49 461h-135v123h148l32 313q16 168 135 290t279 122q41 0 83 -4t98.5 -15.5t92 -38t35.5 -65.5q0 -84 -71 -133q-160 117 -218 117q-76 0 -124 -19.5t-71.5 -63.5t-32.5 -84 t-17 -114l-31 -305h369v-123h-381l-58 -567l420 12q51 2 84 20.5t74 57.5z" />
<glyph unicode="&#xa4;" horiz-adv-x="1265" d="M1102 70q-45 -29 -136.5 -58.5t-207.5 -29.5q-238 0 -355.5 92t-148.5 288h-172v109h160q-2 33 -2 100q0 49 4 74h-162v109h184q49 172 183.5 282.5t320.5 110.5q45 0 92 -5t105.5 -18.5t95.5 -44t37 -75.5q0 -39 -9.5 -64t-19.5 -35t-47 -43q-4 2 -22 17l-23 19 q-6 5 -24.5 18.5t-27.5 19.5l-27 17q-17 11 -29.5 16.5l-30 13.5t-31.5 11l-30.5 6.5t-33.5 3.5q-129 0 -202.5 -59.5t-100.5 -190.5h416v-109h-430q-2 -25 -2 -80q0 -63 2 -94h430v-109h-412q63 -240 359 -239q41 0 233 106q64 -63 64 -159z" />
<glyph unicode="&#xa5;" horiz-adv-x="1355" d="M1257 1069l-28 -74q-72 -12 -96 -45l-175 -237h230v-109h-305q-49 -68 -127 -190v-25h432v-108h-432v-68l20 -213h-235l20 217v64h-403v108h403v29q-45 92 -100 186h-303v109h237q-68 109 -141 213q-47 61 -125 84l-6 71q160 49 235 49q41 -51 156 -277t162 -339 q229 412 360 600q129 -6 221 -45z" />
<glyph unicode="&#xa6;" horiz-adv-x="567" d="M352 803h-137v739h137v-739zM352 -451h-137v742h137v-742z" />
<glyph unicode="&#xa7;" horiz-adv-x="1138" d="M1016 1473q0 -78 -62 -134q-39 29 -106.5 69t-93.5 40q-102 0 -103 -154q0 -49 17 -147l147 -797q27 -145 27 -272q0 -254 -123 -399.5t-375 -145.5q-84 0 -152.5 33t-68.5 106q0 70 67 105l43 -33q41 -33 74 -55.5t43 -22.5q106 0 107 182q0 82 -29 242l-137 762 q-18 98 -19 201q0 254 134.5 395t388.5 141q221 1 221 -116zM711 27q0 86 -23 213l-147 821q-23 123 -23 207q0 102 35 151l-6 6q-135 -82 -135 -315q0 -78 18 -188l150 -859q18 -111 18 -184q0 -113 -37 -170l2 -4q148 86 148 322z" />
<glyph unicode="&#xa8;" horiz-adv-x="835" d="M791 1468q0 -16 -53.5 -71.5t-75.5 -55.5q-20 0 -73.5 54.5t-53.5 72.5q0 20 54 73.5t73 53.5q20 0 74.5 -53.5t54.5 -73.5zM303 1468q0 -16 -53 -71.5t-76 -55.5q-20 0 -73.5 54.5t-53.5 72.5q0 20 54.5 73.5t72.5 53.5q20 0 74.5 -53.5t54.5 -73.5z" />
<glyph unicode="&#xa9;" horiz-adv-x="1558" d="M1395 551q0 -276 -172 -434t-439 -158q-111 0 -214 30.5t-197 96.5t-151.5 185.5t-57.5 279.5q0 279 175 440.5t441 161.5q117 0 222.5 -34t195.5 -102.5t143.5 -188t53.5 -277.5zM1288 551q0 250 -147.5 380t-356.5 130q-223 0 -366.5 -124t-143.5 -376q0 -125 39 -221 t95.5 -149.5t132 -87t136 -44t120.5 -10.5q217 0 354 132t137 370zM1020 238q-94 -31 -213 -31q-369 0 -369 358q0 164 97.5 268.5t267.5 104.5q100 0 205 -41v-166q-31 -6 -70 -2q-20 59 -51 88t-88 29q-109 0 -173.5 -65.5t-64.5 -205.5q0 -137 70.5 -201.5t191.5 -64.5 q92 0 168 19z" />
<glyph unicode="&#xaa;" horiz-adv-x="856" d="M780 825q-20 -16 -76.5 -35.5t-89.5 -19.5q-59 0 -77.5 26.5t-20.5 77.5q-98 -106 -227 -106q-74 0 -120 40t-46 116q0 94 68.5 145t173.5 68q125 18 149 18v94q0 66 -35 89.5t-125 23.5q-74 0 -166 -25l-22 86q102 41 221 41q47 0 81 -4t79 -20.5t68.5 -56.5t23.5 -101 v-168l8 -237h125zM737 575h-618v117h618v-117zM514 934v149q-43 0 -135 -20q-123 -29 -123 -113q0 -70 86 -69q18 0 42 5t45 13l40 15q18 7 31 14z" />
<glyph unicode="&#xab;" horiz-adv-x="1050" d="M928 952q-86 -262 -180 -395q117 -223 165 -405q-78 -14 -127 -27q-51 150 -233 432q186 250 256 422zM508 981q-86 -279 -191 -424q119 -227 177 -428q-78 -14 -127 -27q-57 164 -244 455q182 246 266 451z" />
<glyph unicode="&#xac;" horiz-adv-x="960" d="M877 371h-156v305h-639v133h795v-438z" />
<glyph unicode="&#xad;" horiz-adv-x="780" d="M678 520l-576 2v135l576 33v-170z" />
<glyph unicode="&#xae;" horiz-adv-x="1880" d="M1716 721q0 -348 -217 -547t-553 -199q-139 0 -270 39t-250 122t-190.5 233.5t-71.5 351.5q0 352 220 555t558 203q147 0 280.5 -42t246 -129t180 -237.5t67.5 -349.5zM1606 721q0 168 -55.5 299t-150.5 210t-210 119t-244 40q-139 0 -256 -38t-210 -115t-146 -206 t-53 -297q0 -164 51 -290t124.5 -194.5t172 -112.5t177.5 -57t157 -13q283 0 463 173t180 482zM1378 383l-16 -74q-59 4 -131 31t-113 76q-133 158 -188 250q-18 -2 -45 -2h-103l6 -332h-131l7 340v532l284 2q133 0 210 -67.5t77 -200.5q0 -180 -168 -246q45 -72 156 -190 q73 -76 155 -119zM1102 932q0 98 -43 142t-144 44h-133v-366h109q106 0 158.5 41t52.5 139z" />
<glyph unicode="&#xaf;" horiz-adv-x="1105" d="M852 1362h-610v141h610v-141z" />
<glyph unicode="&#xb0;" horiz-adv-x="841" d="M719 1223q0 -123 -90 -207t-213 -84q-293 0 -293 250q0 123 89 205.5t210 82.5q129 0 213 -63t84 -184zM571 1202q0 80 -39.5 125t-111.5 45t-112 -45t-40 -125q0 -174 151.5 -174t151.5 174z" />
<glyph unicode="&#xb1;" horiz-adv-x="958" d="M877 657h-324v-327h-147v327h-324v134h324v327h147v-327h324v-134zM877 0h-795v133h795v-133z" />
<glyph unicode="&#xb2;" horiz-adv-x="532" d="M481 823h-450v90q12 12 106 93t144.5 142.5t50.5 113.5q0 55 -21.5 75.5t-66.5 20.5q-82 0 -144 -41l-51 88q90 63 199 63q211 0 211 -194q0 -66 -42 -134.5t-84 -109.5t-112 -100h260v-107z" />
<glyph unicode="&#xb3;" horiz-adv-x="520" d="M465 1006q0 -193 -238 -193q-119 0 -196 33l28 100q80 -27 160 -26q117 0 117 79q0 61 -37 82t-135 27v88q145 10 145 102q0 61 -84 62l-121 -23l-45 88q74 43 174 43q86 0 142.5 -39.5t56.5 -117.5q0 -90 -78 -146q111 -53 111 -159z" />
<glyph unicode="&#xb4;" horiz-adv-x="1163" d="M926 1593q-203 -184 -498 -352l-68 96q274 211 447 408z" />
<glyph unicode="&#xb5;" horiz-adv-x="1359" d="M1319 72q-154 -84 -277 -84q-139 0 -149 155q-12 -8 -62.5 -49t-79 -59.5t-87 -39t-123.5 -20.5q-98 0 -168 41q2 -8 6 -104l10 -363h-205l9 1014v555h182v-557l4 -192q2 -117 38 -180.5t142 -63.5q74 0 168 52t158 102l8 278v561h178v-559l8 -405h226z" />
<glyph unicode="&#x3bc;" horiz-adv-x="1359" d="M1319 72q-154 -84 -277 -84q-139 0 -149 155q-12 -8 -62.5 -49t-79 -59.5t-87 -39t-123.5 -20.5q-98 0 -168 41q2 -8 6 -104l10 -363h-205l9 1014v555h182v-557l4 -192q2 -117 38 -180.5t142 -63.5q74 0 168 52t158 102l8 278v561h178v-559l8 -405h226z" />
<glyph unicode="&#xb6;" horiz-adv-x="1345" d="M557 553h-20q-217 0 -336 112.5t-119 342.5q0 440 455 440h20v-895zM1161 14q0 -115 -62.5 -211t-155.5 -151t-190.5 -85t-181.5 -30q-242 0 -241 139q0 31 19.5 63t39.5 48l21 16q119 -104 163 -104q164 0 164 326v1423h154v-1454q0 -176 -78 -264l2 -9 q92 20 142.5 97.5t50.5 179.5v1450h153v-1434z" />
<glyph unicode="&#xb7;" horiz-adv-x="567" d="M487 733q0 -23 -71.5 -98.5t-100.5 -75.5q-27 0 -99.5 74t-72.5 100.5t74 98t98.5 71.5t98 -71.5t73.5 -98.5z" />
<glyph unicode="&#xb8;" horiz-adv-x="927" d="M694 -350q0 -98 -52 -152.5t-155 -87.5l-38 84q51 33 67 55.5t16 69.5q0 49 -114 137q-35 27 -35 56q0 51 49 110l78 -18q-8 -18 -8 -34.5t48 -46.5t96 -75t48 -98z" />
<glyph unicode="&#xb9;" horiz-adv-x="407" d="M305 823h-127v531h-127v100l254 6v-637z" />
<glyph unicode="&#xba;" horiz-adv-x="856" d="M741 1116q0 -137 -93 -241.5t-228 -104.5q-305 0 -305 336q0 139 94 246.5t221 107.5q311 0 311 -344zM737 575h-618v117h618v-117zM600 1118q0 250 -182 250q-164 0 -164 -260q0 -115 40 -177.5t146 -62.5q94 0 127 67.5t33 182.5z" />
<glyph unicode="&#xbb;" horiz-adv-x="1050" d="M928 557q-186 -291 -244 -455l-125 27q51 197 174 428q-104 145 -190 424l119 27q84 -205 266 -451zM498 557q-182 -283 -234 -432l-127 27q55 195 166 405q-94 133 -180 395l119 27q70 -172 256 -422z" />
<glyph unicode="&#xbc;" horiz-adv-x="1423" d="M1382 158h-112v-158h-125v158h-264v116l209 363h180v-373h112v-106zM1262 1202l-1086 -1085l-88 96l1086 1083zM326 823h-127v531h-127v100l254 6v-637zM1145 264v271l-152 -271h152z" />
<glyph unicode="&#xbd;" horiz-adv-x="1474" d="M1403 0h-451v90q12 12 106.5 93t144.5 142.5t50 112.5q0 55 -21.5 76t-66.5 21q-82 0 -143 -41l-51 88q90 63 198 63q211 0 211 -194q0 -66 -42 -134.5t-84 -109.5t-111 -101h260v-106zM1262 1202l-1086 -1085l-88 96l1086 1083zM326 823h-127v531h-127v100l254 6v-637z " />
<glyph unicode="&#xbe;" horiz-adv-x="1421" d="M1382 158h-112v-158h-125v158h-264v116l209 363h180v-373h112v-106zM1282 1202l-1085 -1085l-88 96l1085 1083zM465 1006q0 -193 -238 -193q-119 0 -196 33l28 100q80 -27 160 -26q117 0 117 79q0 61 -37 82t-135 27v88q145 10 145 102q0 61 -84 62l-121 -23l-45 88 q74 43 174 43q86 0 142.5 -39.5t56.5 -117.5q0 -90 -78 -146q111 -53 111 -159zM1145 264v271l-152 -271h152z" />
<glyph unicode="&#xbf;" horiz-adv-x="946" d="M709 1038.5q0 -26.5 -74 -98.5t-98.5 -72t-98 72t-73.5 98q0 23 71.5 98.5t100.5 75.5q27 0 99.5 -73.5t72.5 -100zM799 -223q0 -141 -246 -142q-199 0 -328 81t-129 198q0 84 42 167t103 148l120 126q60 60 102.5 127t42.5 126l-19 99l154 34q47 -119 47 -168 q0 -63 -43 -134.5t-105 -135.5l-125 -126q-62 -62 -105.5 -125.5t-43.5 -117.5q0 -25 18.5 -52t75 -53t142.5 -26q33 0 57.5 2t52 8.5t44 11.5t54.5 18.5t60 19.5q29 -51 29 -86z" />
<glyph unicode="&#xc0;" horiz-adv-x="1501" d="M969 1606l-33 -99q-340 72 -530 170l81 162q236 -145 482 -233zM1456 90q0 -59 -8 -90h-561q-8 41 -8 90l145 43q59 16 59 105q0 25 -6 49l-98 299h-508l-127 -320q-6 -16 -6 -33q0 -80 102 -110l113 -33q0 -59 -8 -90h-490q-8 41 -8 90q98 72 137 164l492 1176l190 55 l434 -1209q16 -45 61.5 -99t94.5 -87zM936 719l-135 424l-43 160h-15l-51 -156l-168 -428h412z" />
<glyph unicode="&#xc1;" horiz-adv-x="1501" d="M1161 1677q-190 -98 -530 -170l-33 99q246 88 481 233zM1456 90q0 -59 -8 -90h-561q-8 41 -8 90l145 43q59 16 59 105q0 25 -6 49l-98 299h-508l-127 -320q-6 -16 -6 -33q0 -80 102 -110l113 -33q0 -59 -8 -90h-490q-8 41 -8 90q98 72 137 164l492 1176l190 55l434 -1209 q16 -45 61.5 -99t94.5 -87zM936 719l-135 424l-43 160h-15l-51 -156l-168 -428h412z" />
<glyph unicode="&#xc2;" horiz-adv-x="1501" d="M1178 1583l-68 -94q-174 51 -322 168q-129 -94 -333 -168l-58 84q109 53 230 146t176 157q70 -78 175.5 -164t199.5 -129zM1456 90q0 -59 -8 -90h-561q-8 41 -8 90l145 43q59 16 59 105q0 25 -6 49l-98 299h-508l-127 -320q-6 -16 -6 -33q0 -80 102 -110l113 -33 q0 -59 -8 -90h-490q-8 41 -8 90q98 72 137 164l492 1176l190 55l434 -1209q16 -45 61.5 -99t94.5 -87zM936 719l-135 424l-43 160h-15l-51 -156l-168 -428h412z" />
<glyph unicode="&#xc3;" horiz-adv-x="1501" d="M1212 1665q-10 -14 -27.5 -33.5t-73.5 -53.5t-114 -34q-51 0 -203.5 44t-191.5 44q-102 0 -168 -55l-55 76q10 14 30.5 35.5t81 57.5t119.5 36q57 0 208 -44t188 -44q90 0 159 49zM1456 90q0 -59 -8 -90h-561q-8 41 -8 90l145 43q59 16 59 105q0 25 -6 49l-98 299h-508 l-127 -320q-6 -16 -6 -33q0 -80 102 -110l113 -33q0 -59 -8 -90h-490q-8 41 -8 90q98 72 137 164l492 1176l190 55l434 -1209q16 -45 61.5 -99t94.5 -87zM936 719l-135 424l-43 160h-15l-51 -156l-168 -428h412z" />
<glyph unicode="&#xc4;" horiz-adv-x="1501" d="M1171 1645q0 -16 -53 -71.5t-76 -55.5q-20 0 -73.5 54t-53.5 73q0 20 54.5 73.5t72.5 53.5q20 0 74.5 -53.5t54.5 -73.5zM643 1645q0 -16 -53 -71.5t-76 -55.5q-20 0 -73.5 54t-53.5 73q0 20 54.5 73.5t72.5 53.5q20 0 74.5 -53.5t54.5 -73.5zM1456 90q0 -59 -8 -90h-561 q-8 41 -8 90l145 43q59 16 59 105q0 25 -6 49l-98 299h-508l-127 -320q-6 -16 -6 -33q0 -80 102 -110l113 -33q0 -59 -8 -90h-490q-8 41 -8 90q98 72 137 164l492 1176l190 55l434 -1209q16 -45 61.5 -99t94.5 -87zM936 719l-135 424l-43 160h-15l-51 -156l-168 -428h412z " />
<glyph unicode="&#xc5;" horiz-adv-x="1501" d="M1456 90q0 -61 -10 -90h-561q-6 45 -6 90l145 43q59 16 59 107q0 29 -8 47l-96 299h-508l-127 -320q-8 -16 -8 -39q0 -33 28.5 -61.5t75.5 -42.5l113 -33q0 -61 -10 -90h-488q-8 41 -8 90q98 74 137 164l467 1118q-145 49 -145 201q0 111 74.5 168t181.5 57 q100 0 178 -52t78 -177q0 -119 -117 -180l399 -1113q14 -45 60.5 -98t95.5 -88zM885 1575q0 55 -36 91t-87 36q-123 0 -123 -123q0 -57 35 -93t90 -36q57 0 89 33t32 92zM936 719l-137 424l-41 160h-15l-51 -156l-168 -428h412z" />
<glyph unicode="&#xc6;" horiz-adv-x="2023" d="M1942 338l-39 -338h-1092q-8 66 -6 100l119 37q76 23 80 119l4 305v101h-394l-241 -420q-41 -70 24 -86l199 -50q0 -78 -10 -106h-570q-10 55 -8 90l74 49q74 47 115 115l708 1194h950v-328q-6 -2 -104 -2q-18 96 -54 139t-110 46l-393 12v-520l596 10v-156l-596 10v-100 l10 -424l385 6q102 2 168 64.5t94 146.5zM1012 1348l-320 -553h316v438q0 54 4 115z" />
<glyph unicode="&#xc7;" horiz-adv-x="1376" d="M1274 41q-166 -55 -414 -55q-748 0 -747 729q0 332 196.5 545t542.5 213q61 0 113.5 -4.5t85 -8.5t70.5 -15t50.5 -15.5t46 -18.5t37.5 -16v-310h-94q-43 121 -113.5 184.5t-203.5 63.5q-242 0 -386.5 -147.5t-144.5 -450.5q0 -301 159 -446.5t425 -145.5q166 0 334 35z M1008 -350q0 -98 -52.5 -152.5t-154.5 -87.5l-39 84q51 33 67.5 55.5t16.5 69.5q0 49 -115 137q-35 27 -35 56q0 51 49 110l78 -18q-8 -18 -8 -34.5t48 -46.5t96.5 -75t48.5 -98z" />
<glyph unicode="&#xc8;" horiz-adv-x="1312" d="M907 1606l-33 -99q-340 72 -530 170l82 162q235 -145 481 -233zM1231 338l-39 -338h-1112q-12 57 -8 100l139 37q37 8 58.5 42t21.5 77l6 305v672q0 66 -49 82l-154 53q-4 41 10 80h1041v-328q-6 -2 -107 -2q-18 96 -53 139t-108 46l-394 12v-520l555 10v-156l-555 10 v-100l11 -424l383 6q102 2 167.5 64.5t94.5 146.5z" />
<glyph unicode="&#xc9;" horiz-adv-x="1312" d="M1059 1677q-190 -98 -531 -170l-32 99q246 88 481 233zM1231 338l-39 -338h-1112q-12 57 -8 100l139 37q37 8 58.5 42t21.5 77l6 305v672q0 66 -49 82l-154 53q-4 41 10 80h1041v-328q-6 -2 -107 -2q-18 96 -53 139t-108 46l-394 12v-520l555 10v-156l-555 10v-100 l11 -424l383 6q102 2 167.5 64.5t94.5 146.5z" />
<glyph unicode="&#xca;" horiz-adv-x="1312" d="M1085 1583l-67 -94q-174 51 -322 168q-129 -94 -334 -168l-57 84q109 53 229.5 146t176.5 157q70 -78 175 -164t199 -129zM1231 338l-39 -338h-1112q-12 57 -8 100l139 37q37 8 58.5 42t21.5 77l6 305v672q0 66 -49 82l-154 53q-4 41 10 80h1041v-328q-6 -2 -107 -2 q-18 96 -53 139t-108 46l-394 12v-520l555 10v-156l-555 10v-100l11 -424l383 6q102 2 167.5 64.5t94.5 146.5z" />
<glyph unicode="&#xcb;" horiz-adv-x="1312" d="M1087 1645q0 -16 -53 -71.5t-76 -55.5q-20 0 -73.5 54t-53.5 73q0 20 54.5 73.5t72.5 53.5q20 0 74.5 -53.5t54.5 -73.5zM559 1645q0 -16 -53 -71.5t-76 -55.5q-20 0 -73.5 54t-53.5 73q0 20 54.5 73.5t72.5 53.5q20 0 74.5 -53.5t54.5 -73.5zM1231 338l-39 -338h-1112 q-12 57 -8 100l139 37q37 8 58.5 42t21.5 77l6 305v672q0 66 -49 82l-154 53q-4 41 10 80h1041v-328q-6 -2 -107 -2q-18 96 -53 139t-108 46l-394 12v-520l555 10v-156l-555 10v-100l11 -424l383 6q102 2 167.5 64.5t94.5 146.5z" />
<glyph unicode="&#xcc;" horiz-adv-x="737" d="M580 1606l-33 -99q-340 72 -531 170l82 162q236 -145 482 -233zM670 102q0 -74 -11 -102h-579q-10 55 -8 90l108 43q74 29 78 141l4 285v615q0 125 -102 159l-82 31q-4 12 -3 40t5 44h536q10 -47 7 -92l-84 -19q-45 -10 -67.5 -56t-22.5 -101v-621l6 -348q0 -39 9 -53.5 t42 -20.5z" />
<glyph unicode="&#xcd;" horiz-adv-x="737" d="M752 1677q-190 -98 -531 -170l-33 99q246 88 482 233zM670 102q0 -74 -11 -102h-579q-10 55 -8 90l108 43q74 29 78 141l4 285v615q0 125 -102 159l-82 31q-4 12 -3 40t5 44h536q10 -47 7 -92l-84 -19q-45 -10 -67.5 -56t-22.5 -101v-621l6 -348q0 -39 9 -53.5t42 -20.5z " />
<glyph unicode="&#xce;" horiz-adv-x="737" d="M752 1583l-68 -94q-174 51 -322 168q-129 -94 -333 -168l-58 84q109 53 230 146t176 157q70 -78 175.5 -164t199.5 -129zM670 102q0 -74 -11 -102h-579q-10 55 -8 90l108 43q74 29 78 141l4 285v615q0 125 -102 159l-82 31q-4 12 -3 40t5 44h536q10 -47 7 -92l-84 -19 q-45 -10 -67.5 -56t-22.5 -101v-621l6 -348q0 -39 9 -53.5t42 -20.5z" />
<glyph unicode="&#xcf;" horiz-adv-x="737" d="M739 1645q0 -16 -53 -71.5t-76 -55.5q-20 0 -73.5 54t-53.5 73q0 20 54.5 73.5t72.5 53.5q20 0 74.5 -53.5t54.5 -73.5zM211 1645q0 -16 -53.5 -71.5t-75.5 -55.5q-20 0 -73.5 54t-53.5 73q0 20 54 73.5t73 53.5q20 0 74.5 -53.5t54.5 -73.5zM670 102q0 -74 -11 -102 h-579q-10 55 -8 90l108 43q74 29 78 141l4 285v615q0 125 -102 159l-82 31q-4 12 -3 40t5 44h536q10 -47 7 -92l-84 -19q-45 -10 -67.5 -56t-22.5 -101v-621l6 -348q0 -39 9 -53.5t42 -20.5z" />
<glyph unicode="&#xd0;" horiz-adv-x="1613" d="M1475 729q0 -367 -209 -548t-584 -181h-596q-8 66 -6 98l119 37q76 23 80 139l4 287v98h-207v136h207v446q0 57 -47 74l-152 49q-6 47 8 84h576q242 0 419 -74t282.5 -237.5t105.5 -407.5zM1268 707h2q0 604 -606 604h-195v-516h405v-136h-405v-100l12 -424h221 q566 1 566 572z" />
<glyph unicode="&#xd1;" horiz-adv-x="1693" d="M1243 1665q-10 -14 -27.5 -33.5t-74 -53.5t-113.5 -34q-51 0 -203.5 44t-191.5 44q-102 0 -168 -55l-55 76q10 14 30.5 35.5t81 57.5t119.5 36q57 0 207.5 -44t187.5 -44q90 0 160 49zM1630 1368l-121 -35q-37 -10 -60.5 -52t-23.5 -89v-1190l-155 -45l-848 1251h-14 l18 -164v-485l6 -328q0 -39 8.5 -52t40.5 -25l174 -60q0 -66 -10 -94h-575q-10 55 -9 90l119 37q45 12 70.5 64.5t28.5 107.5l4 260v658q0 82 -60 104l-125 43q0 70 4 84h414l772 -1112h15l-21 215v639q0 39 -22.5 79t-53.5 52l-129 43q0 61 8 84h537q8 -62 8 -80z" />
<glyph unicode="&#xd2;" horiz-adv-x="1675" d="M1092 1606l-33 -99q-340 72 -531 170l82 162q236 -145 482 -233zM1563 778q0 -344 -202 -573.5t-540 -229.5q-336 0 -522 183.5t-186 515.5q0 346 207.5 571t539.5 225q342 0 522.5 -183t180.5 -509zM1337 745q0 270 -120.5 426t-374.5 156q-135 0 -234.5 -48t-157 -135 t-85 -195.5t-27.5 -239.5q0 -266 116.5 -426t372.5 -160q139 0 240.5 48t159 136t84 195.5t26.5 242.5z" />
<glyph unicode="&#xd3;" horiz-adv-x="1675" d="M1161 1677q-190 -98 -530 -170l-33 99q246 88 481 233zM1563 778q0 -344 -202 -573.5t-540 -229.5q-336 0 -522 183.5t-186 515.5q0 346 207.5 571t539.5 225q342 0 522.5 -183t180.5 -509zM1337 745q0 270 -120.5 426t-374.5 156q-135 0 -234.5 -48t-157 -135 t-85 -195.5t-27.5 -239.5q0 -266 116.5 -426t372.5 -160q139 0 240.5 48t159 136t84 195.5t26.5 242.5z" />
<glyph unicode="&#xd4;" horiz-adv-x="1675" d="M1239 1583l-68 -94q-174 51 -321 168q-129 -94 -334 -168l-57 84q109 53 229.5 146t175.5 157q70 -78 175.5 -164t199.5 -129zM1563 778q0 -344 -202 -573.5t-540 -229.5q-336 0 -522 183.5t-186 515.5q0 346 207.5 571t539.5 225q342 0 522.5 -183t180.5 -509zM1337 745 q0 270 -120.5 426t-374.5 156q-135 0 -234.5 -48t-157 -135t-85 -195.5t-27.5 -239.5q0 -266 116.5 -426t372.5 -160q139 0 240.5 48t159 136t84 195.5t26.5 242.5z" />
<glyph unicode="&#xd5;" horiz-adv-x="1675" d="M1251 1665q-10 -14 -27.5 -33.5t-73.5 -53.5t-114 -34q-51 0 -203.5 44t-191.5 44q-102 0 -168 -55l-55 76q10 14 30.5 35.5t81 57.5t119.5 36q57 0 208 -44t187 -44q90 0 160 49zM1563 778q0 -344 -202 -573.5t-540 -229.5q-336 0 -522 183.5t-186 515.5 q0 346 207.5 571t539.5 225q342 0 522.5 -183t180.5 -509zM1337 745q0 270 -120.5 426t-374.5 156q-135 0 -234.5 -48t-157 -135t-85 -195.5t-27.5 -239.5q0 -266 116.5 -426t372.5 -160q139 0 240.5 48t159 136t84 195.5t26.5 242.5z" />
<glyph unicode="&#xd6;" horiz-adv-x="1675" d="M1237 1645q0 -16 -53.5 -71.5t-75.5 -55.5q-20 0 -73.5 54t-53.5 73q0 20 54.5 73.5t72.5 53.5q20 0 74.5 -53.5t54.5 -73.5zM709 1645q0 -16 -53.5 -71.5t-75.5 -55.5q-20 0 -73.5 54t-53.5 73q0 20 54 73.5t73 53.5q20 0 74.5 -53.5t54.5 -73.5zM1563 778 q0 -344 -202 -573.5t-540 -229.5q-336 0 -522 183.5t-186 515.5q0 346 207.5 571t539.5 225q342 0 522.5 -183t180.5 -509zM1337 745q0 270 -120.5 426t-374.5 156q-135 0 -234.5 -48t-157 -135t-85 -195.5t-27.5 -239.5q0 -266 116.5 -426t372.5 -160q139 0 240.5 48 t159 136t84 195.5t26.5 242.5z" />
<glyph unicode="&#xd7;" horiz-adv-x="1130" d="M987 403l-100 -98l-324 324l-319 -322l-101 99l322 321l-313 313l98 99l313 -314l311 316l101 -99l-311 -315z" />
<glyph unicode="&#xd8;" horiz-adv-x="1673" d="M1587 1452l-176 -197q152 -180 152 -477q0 -344 -202 -573.5t-540 -229.5q-313 0 -497 160l-185 -180l-73 70l188 184q-141 178 -141 465q0 346 207.5 571t539.5 225q301 0 479 -143l174 193zM1206 1184q-127 143 -364 143q-135 0 -234.5 -48t-157 -135t-85 -195.5 t-27.5 -239.5q0 -211 70 -351zM1337 745q0 211 -71 353l-803 -826q123 -150 364 -149q139 0 240.5 48t159 136t84 195.5t26.5 242.5z" />
<glyph unicode="&#xd9;" horiz-adv-x="1593" d="M1010 1606l-33 -99q-340 72 -531 170l82 162q236 -145 482 -233zM1542 1360l-102 -33q-18 -6 -27.5 -12t-19 -23.5t-9.5 -46.5v-698q0 -154 -52 -269.5t-138 -179t-182.5 -94.5t-198.5 -31q-90 0 -168 13.5t-154.5 49.5t-130 92t-87 149.5t-33.5 214.5v722q0 35 -16.5 67 t-43.5 40l-129 43q0 53 8 84h551q8 -41 4 -94l-116 -25q-53 -10 -54 -65v-758q0 -203 112 -297t267 -94q377 0 377 440v643q0 106 -115 139l-88 27q0 76 2 84h537q6 -31 6 -88z" />
<glyph unicode="&#xda;" horiz-adv-x="1593" d="M1161 1677q-190 -98 -530 -170l-33 99q246 88 481 233zM1542 1360l-102 -33q-18 -6 -27.5 -12t-19 -23.5t-9.5 -46.5v-698q0 -154 -52 -269.5t-138 -179t-182.5 -94.5t-198.5 -31q-90 0 -168 13.5t-154.5 49.5t-130 92t-87 149.5t-33.5 214.5v722q0 35 -16.5 67t-43.5 40 l-129 43q0 53 8 84h551q8 -41 4 -94l-116 -25q-53 -10 -54 -65v-758q0 -203 112 -297t267 -94q377 0 377 440v643q0 106 -115 139l-88 27q0 76 2 84h537q6 -31 6 -88z" />
<glyph unicode="&#xdb;" horiz-adv-x="1593" d="M1217 1583l-68 -94q-174 51 -322 168q-129 -94 -333 -168l-58 84q109 53 229.5 146t176.5 157q70 -78 175.5 -164t199.5 -129zM1542 1360l-102 -33q-18 -6 -27.5 -12t-19 -23.5t-9.5 -46.5v-698q0 -154 -52 -269.5t-138 -179t-182.5 -94.5t-198.5 -31q-90 0 -168 13.5 t-154.5 49.5t-130 92t-87 149.5t-33.5 214.5v722q0 35 -16.5 67t-43.5 40l-129 43q0 53 8 84h551q8 -41 4 -94l-116 -25q-53 -10 -54 -65v-758q0 -203 112 -297t267 -94q377 0 377 440v643q0 106 -115 139l-88 27q0 76 2 84h537q6 -31 6 -88z" />
<glyph unicode="&#xdc;" horiz-adv-x="1593" d="M1202 1645q0 -16 -53 -71.5t-76 -55.5q-20 0 -73.5 54t-53.5 73q0 20 54.5 73.5t72.5 53.5q20 0 74.5 -53.5t54.5 -73.5zM674 1645q0 -16 -53.5 -71.5t-75.5 -55.5q-20 0 -73.5 54t-53.5 73q0 20 54 73.5t73 53.5q20 0 74.5 -53.5t54.5 -73.5zM1542 1360l-102 -33 q-18 -6 -27.5 -12t-19 -23.5t-9.5 -46.5v-698q0 -154 -52 -269.5t-138 -179t-182.5 -94.5t-198.5 -31q-90 0 -168 13.5t-154.5 49.5t-130 92t-87 149.5t-33.5 214.5v722q0 35 -16.5 67t-43.5 40l-129 43q0 53 8 84h551q8 -41 4 -94l-116 -25q-53 -10 -54 -65v-758 q0 -203 112 -297t267 -94q377 0 377 440v643q0 106 -115 139l-88 27q0 76 2 84h537q6 -31 6 -88z" />
<glyph unicode="&#xdd;" horiz-adv-x="1355" d="M1059 1677q-190 -98 -531 -170l-32 99q246 88 481 233zM1339 1368q-113 -45 -159 -123l-420 -663l6 -332q0 -37 16.5 -68.5t42.5 -40.5l172 -47q0 -63 -8 -94h-633q-12 57 -8 102l144 37q76 18 75 117l6 326l-399 635q-20 31 -44 56t-39 38.5t-41 33.5l-36 27q0 61 4 76 h494q8 -41 8 -82l-104 -39q-31 -10 -31 -53t27 -88l276 -469l295 481q18 29 9 64.5t-36 50.5l-114 55q0 63 6 80h485q6 -39 6 -80z" />
<glyph unicode="&#xde;" horiz-adv-x="1271" d="M1202 784q0 -195 -143.5 -304t-409.5 -109h-41v127l51 2q168 8 254 62t86 212t-74.5 207t-258.5 49h-197v-471l8 -332q0 -61 43 -71l209 -56q0 -78 -8 -100h-615q-8 61 -6 90l99 37q35 12 56 48t24 79l6 305v674q0 63 -49 82l-154 53q-6 45 8 80h543q6 -53 4 -92l-84 -19 q-61 -14 -84 -98v-76h248q236 0 360.5 -83t124.5 -296z" />
<glyph unicode="&#xdf;" horiz-adv-x="1480" d="M1389 307q0 -92 -37 -158.5t-100.5 -101.5t-134 -51t-154.5 -16q-160 0 -318 73l12 279q63 10 105 0q12 -106 59 -170t158 -64q104 0 171 44t67 139q0 57 -55.5 98t-134.5 70.5t-157.5 65.5t-134 104.5t-55.5 166.5q0 57 29.5 110.5t73.5 93.5l87 78q43 38 73 82t30 89 q0 84 -40 131t-91 59.5t-129 12.5q-111 0 -185.5 -59.5t-74.5 -186.5v-637l14 -559h-379q-8 61 -6 90l117 49q29 12 48 48t19 75l6 297v424h-163v100l163 35v39q0 168 130 294t323 126q76 0 141.5 -11.5t141 -42t121 -101t45.5 -173.5q0 -72 -49.5 -138.5t-108 -108 t-107.5 -91t-49 -90.5q0 -53 54.5 -92t132 -68.5t155.5 -66.5t132.5 -111t54.5 -176z" />
<glyph unicode="&#xe0;" d="M838 1382l-50 -108q-283 119 -555 282l121 162q246 -203 484 -336zM1165 72q-25 -23 -123 -53.5t-153 -30.5q-51 0 -83 14t-45 44t-17.5 53.5t-4.5 62.5q-31 -33 -72.5 -67t-133 -72.5t-181.5 -38.5q-117 0 -193.5 67.5t-76.5 192.5q0 152 112.5 237.5t276.5 112.5 l266 35v162q0 121 -63.5 164.5t-218.5 43.5q-127 0 -269 -43l-32 119q166 68 356 68q57 0 99 -2t104.5 -18.5t101.5 -46t68.5 -88t29.5 -142.5v-287l15 -405h223zM737 258v260q-150 -16 -254 -41q-211 -49 -211 -201q0 -53 36 -87.5t118 -34.5q121 0 311 104z" />
<glyph unicode="&#xe1;" d="M885 1593q-203 -184 -498 -352l-68 96q266 201 449 408zM1165 72q-25 -23 -123 -53.5t-153 -30.5q-51 0 -83 14t-45 44t-17.5 53.5t-4.5 62.5q-31 -33 -72.5 -67t-133 -72.5t-181.5 -38.5q-117 0 -193.5 67.5t-76.5 192.5q0 152 112.5 237.5t276.5 112.5l266 35v162 q0 121 -63.5 164.5t-218.5 43.5q-127 0 -269 -43l-32 119q166 68 356 68q57 0 99 -2t104.5 -18.5t101.5 -46t68.5 -88t29.5 -142.5v-287l15 -405h223zM737 258v260q-150 -16 -254 -41q-211 -49 -211 -201q0 -53 36 -87.5t118 -34.5q121 0 311 104z" />
<glyph unicode="&#xe2;" d="M946 1348l-88 -93q-74 37 -169 117t-157 146l-72 -78q-22 -23 -96.5 -80t-160.5 -105l-72 78q211 156 420 412q70 -92 192.5 -220t202.5 -177zM1165 72q-25 -23 -123 -53.5t-153 -30.5q-51 0 -83 14t-45 44t-17.5 53.5t-4.5 62.5q-31 -33 -72.5 -67t-133 -72.5 t-181.5 -38.5q-117 0 -193.5 67.5t-76.5 192.5q0 152 112.5 237.5t276.5 112.5l266 35v162q0 121 -63.5 164.5t-218.5 43.5q-127 0 -269 -43l-32 119q166 68 356 68q57 0 99 -2t104.5 -18.5t101.5 -46t68.5 -88t29.5 -142.5v-287l15 -405h223zM737 258v260 q-150 -16 -254 -41q-211 -49 -211 -201q0 -53 36 -87.5t118 -34.5q121 0 311 104z" />
<glyph unicode="&#xe3;" d="M971 1473l-17 -15q-14 -16 -18 -19t-20.5 -17.5t-25.5 -19.5t-26.5 -16.5t-30.5 -16.5l-33 -12q-19 -7 -39 -9t-40 -2q-45 0 -186.5 46t-174.5 46q-104 0 -167 -56l-58 72q2 2 18 19l21 22l24 23q17 16 28 23l32 20q20 12 37.5 18t41 10t48.5 4q59 0 207.5 -47t171.5 -47 q41 0 78 11.5t55 21.5l16 12zM1165 72q-25 -23 -123 -53.5t-153 -30.5q-51 0 -83 14t-45 44t-17.5 53.5t-4.5 62.5q-31 -33 -72.5 -67t-133 -72.5t-181.5 -38.5q-117 0 -193.5 67.5t-76.5 192.5q0 152 112.5 237.5t276.5 112.5l266 35v162q0 121 -63.5 164.5t-218.5 43.5 q-127 0 -269 -43l-32 119q166 68 356 68q57 0 99 -2t104.5 -18.5t101.5 -46t68.5 -88t29.5 -142.5v-287l15 -405h223zM737 258v260q-150 -16 -254 -41q-211 -49 -211 -201q0 -53 36 -87.5t118 -34.5q121 0 311 104z" />
<glyph unicode="&#xe4;" d="M909 1468q0 -16 -53 -71.5t-73.5 -55.5t-74 54.5t-53.5 72.5q0 20 54.5 73.5t73 53.5t72.5 -53.5t54 -73.5zM422 1468q0 -16 -53.5 -71.5t-74 -55.5t-73.5 54.5t-53 72.5q0 20 54 73.5t72.5 53.5t73 -53.5t54.5 -73.5zM1165 72q-25 -23 -123 -53.5t-153 -30.5 q-51 0 -83 14t-45 44t-17.5 53.5t-4.5 62.5q-31 -33 -72.5 -67t-133 -72.5t-181.5 -38.5q-117 0 -193.5 67.5t-76.5 192.5q0 152 112.5 237.5t276.5 112.5l266 35v162q0 121 -63.5 164.5t-218.5 43.5q-127 0 -269 -43l-32 119q166 68 356 68q57 0 99 -2t104.5 -18.5 t101.5 -46t68.5 -88t29.5 -142.5v-287l15 -405h223zM737 258v260q-150 -16 -254 -41q-211 -49 -211 -201q0 -53 36 -87.5t118 -34.5q121 0 311 104z" />
<glyph unicode="&#xe5;" d="M807 1497q0 -100 -79 -157.5t-171 -57.5q-33 0 -67.5 6t-84 25.5t-80 68t-30.5 117.5q0 111 74.5 168t179.5 57q102 0 180 -52t78 -175zM1165 72q-25 -23 -123 -53.5t-153 -30.5q-51 0 -83 14t-45 44t-17.5 53.5t-4.5 62.5q-31 -33 -72.5 -67t-133 -72.5t-181.5 -38.5 q-117 0 -193.5 67.5t-76.5 192.5q0 152 112.5 237.5t276.5 112.5l266 35v162q0 121 -63.5 164.5t-218.5 43.5q-127 0 -269 -43l-32 119q166 68 356 68q57 0 99 -2t104.5 -18.5t101.5 -46t68.5 -88t29.5 -142.5v-287l15 -405h223zM674 1501q0 55 -36 91t-89 36 q-121 0 -121 -123q0 -57 36 -93t89 -36q57 0 89 33t32 92zM737 258v260q-150 -16 -254 -41q-211 -49 -211 -201q0 -53 36 -87.5t118 -34.5q121 0 311 104z" />
<glyph unicode="&#xe6;" horiz-adv-x="1751" d="M1661 539l-739 -29q6 -215 109.5 -293t295.5 -78q141 0 277 35l32 -111q-53 -35 -155.5 -58t-204.5 -23q-184 0 -300 44t-175 158q-223 -201 -449 -200q-117 0 -193.5 67.5t-76.5 192.5q0 152 112.5 237.5t276.5 112.5q127 18 266 27v170q0 121 -63.5 164.5t-218.5 43.5 q-127 0 -269 -43l-32 119q166 68 356 68q61 0 102 -4t101.5 -17.5t104.5 -48.5t69 -88q139 160 352 160q422 0 422 -541v-65zM1452 664q0 180 -52 270t-177 90q-123 0 -203 -97.5t-94 -295.5zM768 270q-29 92 -33 234q-158 -4 -252 -27q-211 -49 -211 -201q0 -53 36 -87.5 t118 -34.5q102 -1 342 116z" />
<glyph unicode="&#xe7;" horiz-adv-x="1017" d="M952 1014q0 -111 -96 -170q-133 160 -260 160q-166 0 -243 -102.5t-77 -336.5q0 -211 81 -321.5t298 -110.5q145 0 258 39l35 -106q-43 -29 -132 -56.5t-208 -27.5q-295 0 -406.5 133t-111.5 456q0 231 147.5 403.5t383.5 172.5q331 0 331 -133zM774 -350 q0 -98 -53 -152.5t-156 -87.5l-37 84q51 33 67.5 55.5t16.5 69.5q0 10 -5 21.5t-14 23.5l-18 23q-8 10 -22 22t-21.5 19.5t-19.5 17.5l-14 10q-35 27 -35 56q0 51 49 110l76 -18q-6 -18 -6 -34.5t48 -46.5t96 -75t48 -98z" />
<glyph unicode="&#xe8;" horiz-adv-x="1105" d="M897 1382l-49 -108q-283 119 -555 282l121 162q235 -197 483 -336zM1016 547h-742q6 -133 37 -218t90.5 -125t122 -52.5t158.5 -12.5q141 0 276 35l33 -111q-53 -35 -155.5 -58t-204.5 -23q-139 0 -232.5 22.5t-167 82.5t-107.5 171t-34 281q0 258 140.5 432t363.5 174 q422 0 422 -541v-57zM807 664q0 180 -52.5 270t-176.5 90q-119 0 -204 -95t-98 -265h531z" />
<glyph unicode="&#xe9;" horiz-adv-x="1105" d="M926 1593q-203 -184 -498 -352l-68 96q274 211 447 408zM1016 547h-742q6 -133 37 -218t90.5 -125t122 -52.5t158.5 -12.5q141 0 276 35l33 -111q-53 -35 -155.5 -58t-204.5 -23q-139 0 -232.5 22.5t-167 82.5t-107.5 171t-34 281q0 258 140.5 432t363.5 174 q422 0 422 -541v-57zM807 664q0 180 -52.5 270t-176.5 90q-119 0 -204 -95t-98 -265h531z" />
<glyph unicode="&#xea;" horiz-adv-x="1105" d="M991 1341l-88 -92q-74 37 -169 117t-156 145q-2 -4 -19.5 -21t-24 -24.5t-24.5 -26t-31 -29.5l-34 -30q-22 -18 -41 -31l-44 -31l-53 -34.5t-59 -34.5l-72 78q211 156 420 412q70 -92 192.5 -220.5t202.5 -177.5zM1016 547h-742q6 -133 37 -218t90.5 -125t122 -52.5 t158.5 -12.5q141 0 276 35l33 -111q-53 -35 -155.5 -58t-204.5 -23q-139 0 -232.5 22.5t-167 82.5t-107.5 171t-34 281q0 258 140.5 432t363.5 174q422 0 422 -541v-57zM807 664q0 180 -52.5 270t-176.5 90q-119 0 -204 -95t-98 -265h531z" />
<glyph unicode="&#xeb;" horiz-adv-x="1105" d="M952 1468q0 -16 -53 -71.5t-76 -55.5q-20 0 -72.5 54.5t-52.5 72.5q0 20 53.5 73.5t71.5 53.5q20 0 74.5 -53.5t54.5 -73.5zM465 1468q0 -16 -53.5 -71.5t-75.5 -55.5q-20 0 -72.5 54.5t-52.5 72.5q0 20 53 73.5t72 53.5q20 0 74.5 -53.5t54.5 -73.5zM1016 547h-742 q6 -133 37 -218t90.5 -125t122 -52.5t158.5 -12.5q141 0 276 35l33 -111q-53 -35 -155.5 -58t-204.5 -23q-139 0 -232.5 22.5t-167 82.5t-107.5 171t-34 281q0 258 140.5 432t363.5 174q422 0 422 -541v-57zM807 664q0 180 -52.5 270t-176.5 90q-119 0 -204 -95t-98 -265 h531z" />
<glyph unicode="&#xec;" horiz-adv-x="749" d="M555 1382l-51 -108q-276 117 -553 282l121 162q235 -197 483 -336zM688 104q0 -76 -10 -104h-582q-8 61 -6 90l129 45q23 8 43.5 45t22.5 66l6 311v428h-209v102q203 45 305 46q43 0 62.5 -16.5t19.5 -57.5v-502l6 -375q0 -39 35 -45z" />
<glyph unicode="&#xed;" horiz-adv-x="749" d="M741 1593q-203 -184 -497 -352l-68 96q274 211 447 408zM688 104q0 -76 -10 -104h-582q-8 61 -6 90l129 45q23 8 43.5 45t22.5 66l6 311v428h-209v102q203 45 305 46q43 0 62.5 -16.5t19.5 -57.5v-502l6 -375q0 -39 35 -45z" />
<glyph unicode="&#xee;" horiz-adv-x="749" d="M756 1341l-88 -92q-74 37 -169.5 117t-156.5 145q-2 -4 -19.5 -21t-23.5 -24.5t-24.5 -26t-30.5 -29.5l-34 -30q-22 -18 -41 -31l-44 -31q-25 -17 -53.5 -34.5t-59.5 -34.5l-71 78q207 150 419 412q70 -92 193 -220.5t203 -177.5zM688 104q0 -76 -10 -104h-582 q-8 61 -6 90l129 45q23 8 43.5 45t22.5 66l6 311v428h-209v102q203 45 305 46q43 0 62.5 -16.5t19.5 -57.5v-502l6 -375q0 -39 35 -45z" />
<glyph unicode="&#xef;" horiz-adv-x="749" d="M711 1468q0 -16 -53.5 -71.5t-74 -55.5t-73.5 54.5t-53 72.5q0 20 54 73.5t72.5 53.5t73 -53.5t54.5 -73.5zM223 1468q0 -16 -53 -71.5t-73.5 -55.5t-74 54.5t-53.5 72.5q0 20 54.5 73.5t73 53.5t72.5 -53.5t54 -73.5zM688 104q0 -76 -10 -104h-582q-8 61 -6 90l129 45 q23 8 43.5 45t22.5 66l6 311v428h-209v102q203 45 305 46q43 0 62.5 -16.5t19.5 -57.5v-502l6 -375q0 -39 35 -45z" />
<glyph unicode="&#xf0;" horiz-adv-x="1220" d="M1149 1470l-258 -94q111 -137 160 -315t49 -461q0 -262 -149.5 -438t-368.5 -176q-492 0 -492 561q0 231 151.5 409.5t358.5 178.5q170 0 256 -54q-20 121 -129 236l-301 -111l-35 97l254 90q-106 86 -246 157l109 97q197 -86 307 -191l299 109zM907 571q0 426 -329 426 q-299 0 -299 -452q0 -195 74.5 -302.5t260.5 -107.5q293 0 293 436z" />
<glyph unicode="&#xf1;" horiz-adv-x="1443" d="M1167 1473l-16 -15q-14 -16 -18.5 -19t-20.5 -17.5t-25.5 -19.5t-27 -16.5t-30.5 -16.5l-33 -12q-19 -7 -38.5 -9t-39.5 -2q-45 0 -186.5 46t-174.5 46q-106 0 -170 -56l-55 72q2 2 17 19l22 22l23 23q17 16 29 23l32 20q20 12 37.5 18t41 10t48.5 4q59 0 207.5 -47 t171.5 -47q41 0 77.5 11.5t55.5 21.5l16 12zM1395 104q0 -82 -9 -104h-491q-8 66 -6 98l57 39q61 41 62 113l6 309v172q0 150 -42 202t-190 52q-88 0 -187 -31.5t-146 -60.5v-334l6 -373q0 -20 1 -27t7 -13.5t18 -8.5l181 -33q0 -82 -9 -104h-547q-8 61 -6 90l95 45 q31 14 50 51t19 68l6 305v424h-207v102q168 43 306 43q43 0 59 -16t16 -57v-62q203 147 410 148q90 0 153.5 -19.5t99.5 -49.5t55.5 -82t24.5 -101t5 -125v-205l8 -393q0 -18 4 -22.5t23 -8.5z" />
<glyph unicode="&#xf2;" d="M836 1382l-50 -108q-283 119 -555 282l121 162q236 -197 484 -336zM1100 559q0 -229 -151.5 -401t-366.5 -172q-492 0 -492 561q0 231 151.5 409.5t358.5 178.5q252 0 376 -140.5t124 -435.5zM899 571q0 88 -12.5 156t-44 133.5t-98 101t-166.5 35.5q-291 0 -291 -452 q0 -197 70.5 -302.5t256.5 -105.5q88 0 147.5 35t88.5 101.5t39 135t10 162.5z" />
<glyph unicode="&#xf3;" d="M926 1593q-203 -184 -498 -352l-68 96q274 211 447 408zM1100 559q0 -229 -151.5 -401t-366.5 -172q-492 0 -492 561q0 231 151.5 409.5t358.5 178.5q252 0 376 -140.5t124 -435.5zM899 571q0 88 -12.5 156t-44 133.5t-98 101t-166.5 35.5q-291 0 -291 -452 q0 -197 70.5 -302.5t256.5 -105.5q88 0 147.5 35t88.5 101.5t39 135t10 162.5z" />
<glyph unicode="&#xf4;" d="M1014 1341l-88 -92q-76 37 -169 116t-157 146l-73 -77q-22 -23 -96.5 -80.5t-162.5 -104.5l-69 78q211 156 419 412q72 -94 194 -221.5t202 -176.5zM1100 559q0 -229 -151.5 -401t-366.5 -172q-492 0 -492 561q0 231 151.5 409.5t358.5 178.5q252 0 376 -140.5 t124 -435.5zM899 571q0 88 -12.5 156t-44 133.5t-98 101t-166.5 35.5q-291 0 -291 -452q0 -197 70.5 -302.5t256.5 -105.5q88 0 147.5 35t88.5 101.5t39 135t10 162.5z" />
<glyph unicode="&#xf5;" d="M1022 1473l-14 -15q-16 -16 -20.5 -19t-21 -17.5t-25.5 -19.5t-26.5 -16.5t-30.5 -16.5l-33 -12q-19 -7 -38.5 -9t-40.5 -2q-45 0 -186.5 46t-173.5 46q-106 0 -170 -56l-56 72q2 2 18 19l21 22l24 23q17 16 29 23l31 20q20 12 38 18t41.5 10t47.5 4q59 0 208 -47 t171 -47q41 0 78 11.5t53 21.5l19 12zM1100 559q0 -229 -151.5 -401t-366.5 -172q-492 0 -492 561q0 231 151.5 409.5t358.5 178.5q252 0 376 -140.5t124 -435.5zM899 571q0 88 -12.5 156t-44 133.5t-98 101t-166.5 35.5q-291 0 -291 -452q0 -197 70.5 -302.5t256.5 -105.5 q88 0 147.5 35t88.5 101.5t39 135t10 162.5z" />
<glyph unicode="&#xf6;" d="M971 1468q0 -16 -54.5 -71.5t-75 -55.5t-73.5 54.5t-53 72.5q0 20 54 73.5t72.5 53.5t74 -53.5t55.5 -73.5zM483 1468q0 -16 -54 -71.5t-74.5 -55.5t-74 54.5t-53.5 72.5q0 20 54.5 73.5t73 53.5t73.5 -53.5t55 -73.5zM1100 559q0 -229 -151.5 -401t-366.5 -172 q-492 0 -492 561q0 231 151.5 409.5t358.5 178.5q252 0 376 -140.5t124 -435.5zM899 571q0 88 -12.5 156t-44 133.5t-98 101t-166.5 35.5q-291 0 -291 -452q0 -197 70.5 -302.5t256.5 -105.5q88 0 147.5 35t88.5 101.5t39 135t10 162.5z" />
<glyph unicode="&#xf7;" horiz-adv-x="958" d="M643 1044q0 -20 -65.5 -88.5t-90 -68.5t-89 67.5t-64.5 89.5q0 25 65.5 89.5t88 64.5t89 -65.5t66.5 -88.5zM877 653h-795v142h795v-142zM643 401q0 -20 -65.5 -88.5t-90 -68.5t-89 67.5t-64.5 89.5q0 25 65.5 89.5t88 64.5t89 -65.5t66.5 -88.5z" />
<glyph unicode="&#xf8;" d="M1145 1133l-141 -177q96 -139 96 -397q0 -229 -151.5 -401t-366.5 -172q-209 0 -330 102l-154 -162l-78 66l162 176q-92 137 -92 379q0 231 151.5 409.5t358.5 178.5q215 0 336 -103l133 166zM821 895q-82 102 -243 102q-291 0 -291 -452q0 -139 30 -226zM899 571 q0 137 -29 226l-495 -574q80 -86 239 -86q88 0 147.5 35t88.5 101.5t39 135t10 162.5z" />
<glyph unicode="&#xf9;" horiz-adv-x="1392" d="M856 1382l-49 -108q-283 119 -555 282l121 162q235 -197 483 -336zM1352 72q-154 -84 -277 -84q-139 0 -149 155l-52 -40q-43 -34 -65.5 -48t-66.5 -36.5t-90 -33t-99 -10.5q-106 0 -174 24t-100.5 74t-43 103t-10.5 135v672h-184v100q180 45 289 45q43 0 60.5 -16 t17.5 -57v-494l6 -192q2 -57 7 -94t22.5 -75t54.5 -56.5t94 -18.5q74 0 168 52t158 102l8 278v426h-207v98q182 47 305 47q43 0 61.5 -16t18.5 -57v-496l6 -405h227z" />
<glyph unicode="&#xfa;" horiz-adv-x="1392" d="M1028 1593q-205 -186 -500 -352l-65 96q274 211 446 408zM1352 72q-154 -84 -277 -84q-139 0 -149 155l-52 -40q-43 -34 -65.5 -48t-66.5 -36.5t-90 -33t-99 -10.5q-106 0 -174 24t-100.5 74t-43 103t-10.5 135v672h-184v100q180 45 289 45q43 0 60.5 -16t17.5 -57v-494 l6 -192q2 -57 7 -94t22.5 -75t54.5 -56.5t94 -18.5q74 0 168 52t158 102l8 278v426h-207v98q182 47 305 47q43 0 61.5 -16t18.5 -57v-496l6 -405h227z" />
<glyph unicode="&#xfb;" horiz-adv-x="1392" d="M1044 1341l-88 -92q-76 37 -169 116t-156 146l-73 -77q-22 -23 -96.5 -80.5t-162.5 -104.5l-70 78q211 156 420 412q72 -94 193.5 -221.5t201.5 -176.5zM1352 72q-154 -84 -277 -84q-139 0 -149 155l-52 -40q-43 -34 -65.5 -48t-66.5 -36.5t-90 -33t-99 -10.5 q-106 0 -174 24t-100.5 74t-43 103t-10.5 135v672h-184v100q180 45 289 45q43 0 60.5 -16t17.5 -57v-494l6 -192q2 -57 7 -94t22.5 -75t54.5 -56.5t94 -18.5q74 0 168 52t158 102l8 278v426h-207v98q182 47 305 47q43 0 61.5 -16t18.5 -57v-496l6 -405h227z" />
<glyph unicode="&#xfc;" horiz-adv-x="1392" d="M1020 1468q0 -16 -54.5 -71.5t-75 -55.5t-73.5 54.5t-53 72.5q0 20 54 73.5t72.5 53.5t74 -53.5t55.5 -73.5zM532 1468q0 -16 -54 -71.5t-74.5 -55.5t-74 54.5t-53.5 72.5q0 20 54.5 73.5t73 53.5t73.5 -53.5t55 -73.5zM1352 72q-154 -84 -277 -84q-139 0 -149 155 l-52 -40q-43 -34 -65.5 -48t-66.5 -36.5t-90 -33t-99 -10.5q-106 0 -174 24t-100.5 74t-43 103t-10.5 135v672h-184v100q180 45 289 45q43 0 60.5 -16t17.5 -57v-494l6 -192q2 -57 7 -94t22.5 -75t54.5 -56.5t94 -18.5q74 0 168 52t158 102l8 278v426h-207v98q182 47 305 47 q43 0 61.5 -16t18.5 -57v-496l6 -405h227z" />
<glyph unicode="&#xfd;" horiz-adv-x="1167" d="M987 1593q-203 -184 -498 -352l-67 96q274 211 446 408zM1147 1118q0 -72 -8 -96q-57 -20 -82 -51q-27 -31 -51 -97l-410 -1038q-90 -221 -244 -319l-112 145q55 37 121.5 102.5t91.5 122.5l53 119l-350 901q-37 86 -133 119q0 72 8 92h452q0 -74 -8 -106h-158l299 -793 l246 643q18 43 3 88t-60 62l-43 16q-2 66 2 90h383z" />
<glyph unicode="&#xfe;" horiz-adv-x="1286" d="M1190 592q0 -168 -46 -291t-126 -189.5t-174 -97t-205 -30.5t-195 12l13 -266q0 -14 1 -20.5t10 -13.5t28 -11l163 -31q6 -68 -8 -105h-526q-10 57 -6 97l53 30q76 43 76 129l6 758v858h-207v99q180 45 305 45q80 0 80 -80v-455q143 100 289 100q469 1 469 -538zM991 551 q0 82 -16.5 155.5t-49 139t-94 105.5t-143.5 40q-129 0 -254 -69v-363l6 -426q102 -16 205 -16q176 0 261 116.5t85 317.5z" />
<glyph unicode="&#xff;" horiz-adv-x="1167" d="M975 1468q0 -16 -53.5 -71.5t-75.5 -55.5q-20 0 -73.5 54.5t-53.5 72.5q0 20 54 73.5t73 53.5q20 0 74.5 -53.5t54.5 -73.5zM487 1468q0 -16 -53 -71.5t-76 -55.5q-20 0 -73.5 54.5t-53.5 72.5q0 20 54.5 73.5t72.5 53.5q20 0 74.5 -53.5t54.5 -73.5zM1147 1118 q0 -72 -8 -96q-57 -20 -82 -51q-27 -31 -51 -97l-410 -1038q-90 -221 -244 -319l-112 145q55 37 121.5 102.5t91.5 122.5l53 119l-350 901q-37 86 -133 119q0 72 8 92h452q0 -74 -8 -106h-158l299 -793l246 643q18 43 3 88t-60 62l-43 16q-2 66 2 90h383z" />
<glyph unicode="&#x131;" horiz-adv-x="749" d="M688 104q0 -76 -10 -104h-582q-8 61 -6 90l129 45q23 8 43.5 45t22.5 66l6 311v428h-209v102q203 45 305 46q43 0 62.5 -16.5t19.5 -57.5v-502l6 -375q0 -39 35 -45z" />
<glyph unicode="&#x133;" horiz-adv-x="1497" d="M1284 1466q0 -20 -64.5 -86.5t-89.5 -66.5q-23 0 -87 65.5t-64 87.5q0 25 64.5 88.5t87 63.5t88 -64.5t65.5 -87.5zM526 1464q0 -20 -64.5 -86.5t-89 -66.5t-88 65.5t-63.5 87.5q0 25 63.5 88.5t88.5 63.5q23 0 88 -64.5t65 -87.5zM1237 18q4 -203 -107.5 -327.5 t-273.5 -124.5q-80 0 -123 16l19 133q70 -16 129 -16q102 0 135 60.5t33 199.5v1024h-205v104q203 45 305 46q43 0 60.5 -16.5t17.5 -57.5v-502zM688 104q0 -76 -10 -104h-582q-6 45 -6 90l129 45q23 8 43.5 45t22.5 66l6 311v426h-209v104q203 45 305 46q43 0 62.5 -16.5 t19.5 -57.5v-502l6 -375q0 -39 35 -45z" />
<glyph unicode="&#x141;" horiz-adv-x="1181" d="M1145 338l-41 -338h-1018q-8 66 -6 98l110 37q76 27 76 119l6 303v98l-198 -106v129l198 106v410q0 41 -15 79t-46 48l-129 43q0 53 8 84h537q10 -51 8 -80l-98 -35q-37 -12 -57.5 -55t-20.5 -94v-301l438 233v-129l-438 -233v-195l10 -418l336 9q98 14 160.5 70 t87.5 132z" />
<glyph unicode="&#x142;" horiz-adv-x="710" d="M684 895l-238 -123v-213l11 -366q2 -43 12 -48q6 -4 35 -10l149 -33q0 -74 -10 -102h-537q-8 61 -6 90l95 39q59 27 63 115l10 315v121l-225 -115v129l225 115v612h-207v99q180 45 306 45q80 0 79 -80v-584l238 123v-129z" />
<glyph unicode="&#x152;" horiz-adv-x="2078" d="M1997 338l-39 -338h-942q-94 -25 -205 -25q-332 0 -520.5 202t-188.5 538q0 342 206 548.5t542 206.5q104 0 205 -22h856v-328q-6 -2 -105 -2q-18 96 -54 139t-110 46l-393 12v-520l555 10v-156l-555 10v-100l11 -424l385 6q102 2 167.5 64.5t94.5 146.5zM1063 561v672 q0 29 -12 53q-94 41 -220 41q-262 0 -382.5 -161.5t-120.5 -436.5q0 -129 26.5 -234.5t82 -190.5t152.5 -133t228 -48q119 0 179.5 27.5t62.5 105.5z" />
<glyph unicode="&#x153;" horiz-adv-x="1925" d="M1835 547h-739q6 -133 36.5 -218t90 -125t121 -52.5t157.5 -12.5q143 0 279 35l32 -111q-53 -35 -155.5 -58t-204.5 -23q-188 0 -305 46t-176 165q-150 -207 -389 -207q-492 0 -492 561q0 231 151.5 409.5t358.5 178.5q303 0 418 -211q143 221 397 221q420 0 420 -541 v-57zM1626 664q0 180 -51 270t-176 90q-119 0 -204 -95t-99 -265h530zM907 571q0 426 -329 426q-299 0 -299 -452q0 -195 74.5 -302.5t260.5 -107.5q88 0 149.5 36t91.5 101.5t41 136t11 162.5z" />
<glyph unicode="&#x160;" horiz-adv-x="1171" d="M1036 1812q-109 -53 -229.5 -146t-175.5 -157q-70 78 -175.5 164t-199.5 129l68 94q174 -51 321 -167q129 94 334 167zM1073 391q0 -106 -47 -188t-127 -130t-175 -72t-202 -24q-240 0 -440 89l16 342h109q18 -139 127.5 -220.5t249.5 -81.5q131 0 210.5 65t79.5 194 q0 72 -54 127t-136 86.5t-178 74.5t-178 87t-136.5 126t-54.5 193q0 182 142.5 295.5t334.5 113.5q274 0 412 -69v-322h-86q-23 113 -115 185.5t-207 72.5q-141 0 -220 -54t-79 -159q0 -88 78 -150.5t188.5 -107.5t221.5 -96t188.5 -146.5t77.5 -230.5z" />
<glyph unicode="&#x161;" horiz-adv-x="989" d="M946 1647q-211 -156 -420 -412q-70 92 -192.5 220t-202.5 177l88 92q74 -37 169 -116.5t157 -145.5l72 78q22 23 96.5 80t160.5 104zM887 307q0 -92 -36 -158.5t-99.5 -101.5t-134 -51t-154.5 -16q-201 0 -359 73l17 320l96 -2q2 -113 72.5 -193t189.5 -80q104 0 171 44 t67 139q0 53 -59.5 94t-144.5 72.5t-170 73.5t-144.5 120t-59.5 188q0 156 109.5 235t283.5 79q184 0 328 -72l-35 -272l-75 8q-14 90 -86 150.5t-170 60.5q-94 0 -146.5 -42t-52.5 -122q0 -55 61.5 -98t147.5 -78t173 -78t148.5 -118t61.5 -175z" />
<glyph unicode="&#x178;" horiz-adv-x="1355" d="M1079 1645q0 -16 -53 -71.5t-76 -55.5q-20 0 -73.5 54t-53.5 73q0 20 54.5 73.5t72.5 53.5q20 0 74.5 -53.5t54.5 -73.5zM551 1645q0 -16 -53.5 -71.5t-75.5 -55.5q-20 0 -73.5 54t-53.5 73q0 20 54 73.5t73 53.5q20 0 74.5 -53.5t54.5 -73.5zM1339 1368 q-113 -45 -159 -123l-420 -663l6 -332q0 -37 16.5 -68.5t42.5 -40.5l172 -47q0 -63 -8 -94h-633q-12 57 -8 102l144 37q76 18 75 117l6 326l-399 635q-20 31 -44 56t-39 38.5t-41 33.5l-36 27q0 61 4 76h494q8 -41 8 -82l-104 -39q-31 -10 -31 -53t27 -88l276 -469l295 481 q18 29 9 64.5t-36 50.5l-114 55q0 63 6 80h485q6 -39 6 -80z" />
<glyph unicode="&#x17d;" horiz-adv-x="1241" d="M1051 1812q-109 -53 -230 -146t-176 -157q-70 78 -175 164t-200 129l68 94q174 -51 321 -167q129 94 334 167zM1180 348l-39 -348h-1051l-35 117l815 1200l-491 -8q-135 -20 -170 -203q-45 -6 -94 6v336h999l25 -90l-828 -1211l518 9q102 2 168 63.5t90 142.5z" />
<glyph unicode="&#x17e;" horiz-adv-x="1038" d="M967 1647q-211 -156 -420 -412q-70 92 -193 220t-202 177l88 92q74 -37 169 -116.5t156 -145.5l73 78q22 23 96.5 80t160.5 104zM997 338l-55 -338h-876l-25 72l676 893h-391q-53 0 -113.5 -48.5t-95.5 -91.5l-64 25l70 268h790l31 -82l-659 -884h387q45 0 103.5 48 t91 89t53.5 71q40 -6 77 -22z" />
<glyph unicode="&#x192;" horiz-adv-x="1048" d="M1090 1468q0 -61 -72 -133q-80 84 -178 117q-121 -2 -173.5 -65.5t-60.5 -210.5l-26 -461h231v-115h-238l-36 -661q-8 -152 -134.5 -276t-287.5 -124q-137 0 -138 131q0 27 13 54h280q55 86 62 190l37 686h-211v115h217l26 469q8 152 138.5 277.5t281.5 125.5q35 0 74 -4 t87 -15.5t78 -37t30 -62.5z" />
<glyph unicode="&#x2b0;" horiz-adv-x="882" d="M848 846q0 -43 -6 -68h-320q-6 35 -4 66l51 20q31 16 31 66l4 184v92q0 84 -22.5 117t-102.5 33q-102 0 -192 -45v-197l4 -205q0 -39 22 -43l95 -20q0 -43 -7 -68h-344q-6 23 -6 60l60 24q37 14 36 72l5 180v508h-117v68q111 29 203 28q49 0 49 -45v-297q113 88 243 88 q135 0 173 -54t38 -171v-125l2 -219q0 -25 23 -31z" />
<glyph unicode="&#x2b2;" horiz-adv-x="446" d="M330 1659q0 -18 -41 -61.5t-61.5 -43.5t-61.5 42t-41 62.5t41 61.5t61 41q18 0 60.5 -41t42.5 -61zM303 786q2 -119 -58.5 -194.5t-170.5 -75.5q-68 0 -103 12l15 93q2 0 14 -2.5t31.5 -4.5t34.5 -2q55 0 75.5 32t20.5 108v612h-117v70q129 29 201 28q51 0 51 -49v-301z " />
<glyph unicode="&#x2b7;" horiz-adv-x="1097" d="M1081 1450v-53l-10 -8q-10 -6 -20.5 -15.5t-24.5 -31t-25 -50.5l-182 -514l-102 -26l-176 487l-176 -459l-103 -26l-174 546q-20 61 -68 80q0 45 9 70h284l-4 -76h-94l123 -430l172 490l100 28l183 -520l120 379q10 39 -26 55l-39 17q-2 4 -2 23.5t4 33.5h231z" />
<glyph unicode="&#x2b8;" horiz-adv-x="706" d="M696 1450q0 -45 -4 -66q-49 -20 -78 -94l-254 -626q-47 -117 -153 -177l-82 113q31 14 67.5 46t57.5 61q4 4 23.5 33.5t21.5 31.5l-203 541q-16 47 -80 71q0 47 6 66h295q0 -55 -4 -76h-90l162 -450l139 370q8 20 1 45t-29 33q-2 4 -17 8l-16 4q-2 2 -1 27t3 39h235z" />
<glyph unicode="&#x2c6;" horiz-adv-x="1105" d="M940 1341l-88 -92q-74 37 -169 117t-157 145l-72 -77q-22 -23 -96.5 -80.5t-160.5 -104.5l-72 78q211 156 420 412q70 -92 192.5 -220.5t202.5 -177.5z" />
<glyph unicode="&#x2c7;" horiz-adv-x="1105" d="M967 1647q-211 -156 -420 -412q-70 92 -193 220t-202 177l88 92q74 -37 169 -116.5t156 -145.5l73 78q22 23 96.5 80t160.5 104z" />
<glyph unicode="&#x2d8;" horiz-adv-x="1024" d="M862 1491q-10 -18 -30.5 -42t-62.5 -60.5t-108.5 -61t-142.5 -24.5q-102 0 -189 40.5t-120 73.5t-47 58l110 104q104 -127 254 -127q158 0 256 121z" />
<glyph unicode="&#x2d9;" horiz-adv-x="712" d="M492 1466q0 -18 -56.5 -76.5t-79.5 -58.5q-20 0 -76.5 57.5t-56.5 78t56.5 76.5t77 56t78 -56.5t57.5 -76.5z" />
<glyph unicode="&#x2da;" horiz-adv-x="909" d="M690 1497q0 -100 -79 -157.5t-171 -57.5q-31 0 -65.5 6t-83.5 25.5t-80 68t-31 117.5q0 111 74 168t180 57q102 0 179 -52t77 -175zM557 1501q0 55 -35 91t-88 36q-121 0 -121 -123q0 -57 35 -93t88 -36q57 0 89 33t32 92z" />
<glyph unicode="&#x2db;" horiz-adv-x="1157" d="M987 -430q-61 -31 -166 -31q-143 0 -204.5 51.5t-61.5 169.5q0 27 9 54.5t27.5 53.5t37 47.5t50.5 44.5l51 39q19 15 55 35.5t51 27.5l45 24l32 18l66 -81q-70 -37 -159 -113t-89 -143q0 -55 33 -77t96 -22l92 13z" />
<glyph unicode="&#x2dc;" horiz-adv-x="1105" d="M973 1473l-15 -15q-16 -16 -20 -19t-20.5 -17.5t-25.5 -19.5t-26.5 -16.5t-30.5 -16.5l-33 -12q-19 -7 -39 -9t-40 -2q-45 0 -186.5 46t-174.5 46q-104 0 -167 -56l-58 72q2 2 18 19l21 22l24 23q17 16 28 23l32 20q20 12 37.5 18t41 10t48.5 4q59 0 207.5 -47t171.5 -47 q41 0 78 11.5t53 21.5l18 12z" />
<glyph unicode="&#x2dd;" horiz-adv-x="1163" d="M1053 1622l-61 -87l-70 -93l-65 -81l-76 -90l-68 -81l-99 76q193 276 281 460zM590 1612q-94 -143 -371 -410l-78 78q201 260 308 442z" />
<glyph unicode="&#x2e3;" horiz-adv-x="722" d="M702 842q0 -47 -6 -64h-284q-4 16 -6 37v21l12 6q14 8 19 25.5t-9 45.5l-90 125l-121 -151q-6 -6 -7 -13.5t3 -12.5t10 -5l66 -12q0 -47 -6 -66h-263q-4 12 -4 60q45 14 78 51l195 215l-170 229q-25 31 -86 56q0 55 2 61h289q0 -63 -7 -76h-69l131 -182l106 125 q29 35 2 55q-25 16 -38 23q0 35 8 55h233q0 -43 -6 -57q-47 -14 -88 -64l-170 -199l178 -223q20 -27 36.5 -37t61.5 -28z" />
<glyph unicode="&#x394;" horiz-adv-x="1478" d="M1372 125l-86 -125h-1147l-49 109l576 1321l190 55zM1135 158l-340 985l-50 164h-14l-55 -160l-412 -1000z" />
<glyph unicode="&#x2206;" horiz-adv-x="1478" d="M1372 125l-86 -125h-1147l-49 109l576 1321l190 55zM1135 158l-340 985l-50 164h-14l-55 -160l-412 -1000z" />
<glyph unicode="&#x3a9;" horiz-adv-x="1673" d="M1612 0h-592l-45 141q340 233 340 604q0 270 -117 426t-358 156q-483 0 -484 -577q0 -113 25 -201t81 -161t103 -117t133 -113l-47 -158h-581v162l446 -27l2 6q-158 59 -269.5 220t-111.5 387q0 334 204 528t517 194q338 0 512 -197.5t174 -529.5q0 -190 -116.5 -360 t-276.5 -242l2 -6l459 27v-162z" />
<glyph unicode="&#x2126;" horiz-adv-x="1673" d="M1612 0h-592l-45 141q340 233 340 604q0 270 -117 426t-358 156q-483 0 -484 -577q0 -113 25 -201t81 -161t103 -117t133 -113l-47 -158h-581v162l446 -27l2 6q-158 59 -269.5 220t-111.5 387q0 334 204 528t517 194q338 0 512 -197.5t174 -529.5q0 -190 -116.5 -360 t-276.5 -242l2 -6l459 27v-162z" />
<glyph unicode="&#x3b1;" horiz-adv-x="1202" d="M1210 156l15 -82q-25 -23 -123 -53.5t-154 -30.5q-127 0 -145 110q-70 -39 -98.5 -53t-87 -33.5t-111.5 -19.5q-70 0 -124 8t-120.5 41t-111 89t-75 159.5t-30.5 245.5q0 272 151.5 429.5t376.5 161.5q68 0 128.5 -10t128 -36.5t106.5 -87t37 -148.5v-287l14 -403h223z M786 203l5 360v275q-4 68 -76 113.5t-187 47.5q-143 2 -220 -131t-77 -315q0 -215 73 -303t226 -88q143 0 256 41z" />
<glyph unicode="&#x3b2;" horiz-adv-x="1480" d="M1389 307q0 -92 -37 -158.5t-100.5 -101.5t-134 -51t-154.5 -16q-160 0 -318 73l12 279q63 10 105 0q12 -106 59 -170t158 -64q104 0 171 44t67 139q0 57 -55.5 98t-134.5 70.5t-157.5 65.5t-134 104.5t-55.5 166.5q0 57 29.5 110.5t73.5 93.5l87 78q43 38 73 82t30 89 q0 84 -40 131t-91 59.5t-129 12.5q-111 0 -185.5 -59.5t-74.5 -186.5v-637l14 -559h-379q-8 61 -6 90l117 49q29 12 48 48t19 75l6 297v424h-163v100l163 35v39q0 168 130 294t323 126q76 0 141.5 -11.5t141 -42t121 -101t45.5 -173.5q0 -72 -49.5 -138.5t-108 -108 t-107.5 -91t-49 -90.5q0 -53 54.5 -92t132 -68.5t155.5 -66.5t132.5 -111t54.5 -176z" />
<glyph unicode="&#x3c0;" horiz-adv-x="1384" d="M1270 68q-25 -25 -120 -54.5t-149 -29.5q-66 0 -100.5 29.5t-40.5 61t-6 85.5l10 805h-424v-406l9 -559h-197l10 559v406h-184l43 176q190 -20 508 -21l608 -10l-12 -145h-185v-815h230v-82z" />
<glyph unicode="&#x434;" horiz-adv-x="1847" d="M1757 547h-741q6 -133 36.5 -218t90 -125t122 -52.5t158.5 -12.5q141 0 277 35l33 -111q-53 -35 -155.5 -58t-205.5 -23q-170 0 -279.5 37.5t-168.5 132.5q-190 -164 -383 -164q-451 0 -451 526q0 276 151.5 444t374.5 168q125 0 228 -22v317h-209v97q188 47 305 47 q43 0 62.5 -16.5t19.5 -57.5v-471q131 125 313 125q422 0 422 -541v-57zM1548 664q0 180 -52 270t-177 90q-119 0 -204 -95t-97 -265h530zM872 276q-29 111 -28 263v430q-150 29 -234 28q-98 0 -164.5 -36.5t-100.5 -106.5t-47 -151.5t-13 -194.5q0 -193 76.5 -269.5 t228.5 -76.5q25 0 53.5 7t50 14t53 22.5t46.5 23.5l45 27q30 18 34 20z" />
<glyph unicode="&#x5d4;" horiz-adv-x="2048" d="M1888 547h-741q6 -133 36.5 -218t90 -125t121 -52.5t157.5 -12.5q143 0 279 35l33 -111q-53 -35 -155.5 -58t-205.5 -23q-139 0 -232 22.5t-167 82.5t-107.5 171t-33.5 281v192q0 150 -42 202t-190 52q-133 0 -280 -92v-334l8 -356q0 -37 6 -49.5t33 -16.5l192 -33 q0 -76 -10 -104h-569q-8 61 -7 90l95 41q29 12 48 51t21 86l4 291v862h-206v97q188 47 305 47q43 0 59 -16.5t16 -57.5v-498l48 37q37 29 58 42t60 32.5t86 28t105 8.5q252 0 311 -156q143 160 352 160q422 0 422 -541v-57zM1679 664q0 180 -52 270t-177 90q-119 0 -204 -95 t-99 -265h532z" />
<glyph unicode="&#x2000;" horiz-adv-x="980" />
<glyph unicode="&#x2001;" horiz-adv-x="1961" />
<glyph unicode="&#x2002;" horiz-adv-x="980" />
<glyph unicode="&#x2003;" horiz-adv-x="1961" />
<glyph unicode="&#x2004;" horiz-adv-x="653" />
<glyph unicode="&#x2005;" horiz-adv-x="489" />
<glyph unicode="&#x2006;" horiz-adv-x="325" />
<glyph unicode="&#x2007;" horiz-adv-x="325" />
<glyph unicode="&#x2008;" horiz-adv-x="243" />
<glyph unicode="&#x2009;" horiz-adv-x="391" />
<glyph unicode="&#x200a;" horiz-adv-x="108" />
<glyph unicode="&#x2010;" horiz-adv-x="780" d="M678 520l-576 2v135l576 33v-170z" />
<glyph unicode="&#x2011;" horiz-adv-x="780" d="M678 520l-576 2v135l576 33v-170z" />
<glyph unicode="&#x2012;" horiz-adv-x="780" d="M678 520l-576 2v135l576 33v-170z" />
<glyph unicode="&#x2013;" horiz-adv-x="1024" d="M1024 535h-1024v135h1024v-135z" />
<glyph unicode="&#x2014;" horiz-adv-x="2048" d="M2048 535h-2048v135h2048v-135z" />
<glyph unicode="&#x2018;" horiz-adv-x="669" d="M485 1528q0 -2 -31.5 -34t-40.5 -44l-31 -41q-22 -29 -30 -53.5t-8 -50.5q35 -23 85 -77t50 -73q0 -25 -66.5 -90.5t-88.5 -65.5q-31 0 -95.5 69t-64.5 106q0 109 80 231.5t176 179.5z" />
<glyph unicode="&#x2019;" horiz-adv-x="669" d="M506 1411q0 -109 -80 -231.5t-176 -180.5l-66 58l33 34q31 32 41 45l31 41q20 28 28.5 52t10.5 51q-37 23 -87.5 77t-50.5 75q0 25 67 89t89 64q33 0 96.5 -67.5t63.5 -106.5z" />
<glyph unicode="&#x201a;" horiz-adv-x="669" d="M506 92q0 -109 -80 -231.5t-176 -179.5l-66 57l33 34q31 32 41 45l31 41q20 28 28.5 52t10.5 51q-37 23 -87.5 77t-50.5 73q0 25 67 90t89 65q31 0 95.5 -68.5t64.5 -105.5z" />
<glyph unicode="&#x201c;" horiz-adv-x="1120" d="M936 1528q0 -2 -32 -34t-41 -44l-30 -41q-22 -29 -30 -53.5t-8 -50.5q35 -23 85 -77t50 -73q0 -25 -66.5 -90.5t-89.5 -65.5q-31 0 -95.5 69t-64.5 106q0 109 80 231.5t176 179.5zM485 1528q0 -2 -31.5 -34t-40.5 -44l-31 -41q-22 -29 -30 -53.5t-8 -50.5q35 -23 85 -77 t50 -73q0 -25 -66.5 -90.5t-88.5 -65.5q-31 0 -95.5 69t-64.5 106q0 109 80 231.5t176 179.5z" />
<glyph unicode="&#x201d;" horiz-adv-x="1120" d="M956 1411q0 -109 -79.5 -231.5t-176.5 -180.5l-65 58l33 34q31 32 41 45l30 41q20 28 28.5 52t10.5 51q-37 23 -87 77t-50 75q0 25 66.5 89t89.5 64q33 0 96 -67.5t63 -106.5zM506 1411q0 -109 -80 -231.5t-176 -180.5l-66 58l33 34q31 32 41 45l31 41q20 28 28.5 52 t10.5 51q-37 23 -87.5 77t-50.5 75q0 25 67 89t89 64q33 0 96.5 -67.5t63.5 -106.5z" />
<glyph unicode="&#x201e;" horiz-adv-x="1120" d="M956 92q0 -109 -79.5 -231.5t-176.5 -179.5l-65 57l33 34q31 32 40 45t30.5 41.5t29.5 53.5t10 51q-37 20 -87 74.5t-50 75.5q0 25 66.5 90t89.5 65q33 0 96 -68.5t63 -107.5zM506 92q0 -109 -80 -231.5t-176 -179.5l-66 57l33 34q31 32 40 45t30.5 41.5t30 53.5t10.5 51 q-37 20 -87.5 74.5t-50.5 75.5q0 25 67 90t89 65q33 0 96.5 -68.5t63.5 -107.5z" />
<glyph unicode="&#x2020;" horiz-adv-x="987" d="M946 1118l-20 -84l-361 31l31 -1065l-90 -20l-94 20l30 1065l-360 -31l-21 84l21 84l360 -31l-30 373l92 21l92 -21l-31 -373l361 31z" />
<glyph unicode="&#x2021;" horiz-adv-x="987" d="M946 416l-20 -74l-361 31l31 -373l-92 -20l-92 18l30 375l-360 -31l-21 74l21 94l360 -31v586l-360 -31l-21 74l21 94l360 -31l-30 373l92 21l92 -21l-31 -373l361 31l20 -94l-20 -74l-361 31v-586l361 31z" />
<glyph unicode="&#x2022;" horiz-adv-x="1003" d="M799 721q0 -137 -85 -216t-212 -79t-212 80t-85 215t85 216t212 81t212 -81t85 -216z" />
<glyph unicode="&#x2026;" horiz-adv-x="2048" d="M1876 72q0 -23 -72.5 -98.5t-101.5 -75.5q-27 0 -98.5 73.5t-71.5 100t72.5 98.5t97.5 72q27 0 100.5 -71.5t73.5 -98.5zM1194 72q0 -23 -72.5 -98.5t-101.5 -75.5q-27 0 -98.5 73.5t-71.5 100t72.5 98.5t97.5 72q27 0 100.5 -71.5t73.5 -98.5zM504 72q0 -23 -73 -98.5 t-101 -75.5q-27 0 -98.5 73.5t-71.5 100t72.5 98.5t97.5 72q27 0 100.5 -71.5t73.5 -98.5z" />
<glyph unicode="&#x202f;" horiz-adv-x="391" />
<glyph unicode="&#x2030;" horiz-adv-x="2316" d="M2198 311q0 -152 -91.5 -236.5t-222.5 -84.5q-133 0 -216 72.5t-83 234.5q0 154 89 241t216 87q135 0 221.5 -74t86.5 -240zM764 1141q0 -152 -91 -237t-222 -85q-133 0 -216 73t-83 234q0 154 89 241t216 87q135 0 221 -73.5t86 -239.5zM1382 1202l-1085 -1085l-90 96 l1085 1083zM1481 311q0 -152 -91.5 -236.5t-222.5 -84.5q-133 0 -216 72.5t-83 234.5q0 154 89.5 241t216.5 87q135 0 221 -74t86 -240zM2060 311q0 96 -43 151.5t-127 55.5q-74 0 -121 -55t-47 -166q0 -199 162 -199q80 0 128 57.5t48 155.5zM627 1141q0 96 -43 151.5 t-127 55.5q-74 0 -121 -55.5t-47 -166.5q0 -199 162 -198q80 0 128 57.5t48 155.5zM1343 311q0 96 -43 151.5t-126 55.5q-74 0 -121 -55t-47 -166q0 -199 161 -199q80 0 128 57.5t48 155.5z" />
<glyph unicode="&#x2039;" horiz-adv-x="630" d="M508 981q-86 -279 -191 -424q119 -227 177 -428q-78 -14 -127 -27q-57 164 -244 455q182 246 266 451z" />
<glyph unicode="&#x203a;" horiz-adv-x="630" d="M508 557q-182 -285 -242 -455l-127 27q47 180 174 428q-96 135 -190 424l119 27q80 -195 266 -451z" />
<glyph unicode="&#x2044;" horiz-adv-x="284" d="M735 1206l-1089 -1091l-97 96l1092 1089z" />
<glyph unicode="&#x205f;" horiz-adv-x="489" />
<glyph unicode="&#x2070;" horiz-adv-x="616" d="M565 1151q0 -336 -262 -336q-252 0 -252 318q0 145 61.5 239t204.5 94q248 0 248 -315zM436 1145q0 45 -3 73.5t-13 66.5t-37 56.5t-70 18.5q-45 0 -74.5 -19.5t-41 -58.5t-14.5 -68.5t-3 -78.5q0 -213 127 -213q45 0 73 18t39 56t14 68t3 81z" />
<glyph unicode="&#x2074;" horiz-adv-x="573" d="M543 979h-113v-156h-125v156h-264v119l209 362h180v-375h113v-106zM305 1085v271l-151 -271h151z" />
<glyph unicode="&#x2075;" horiz-adv-x="550" d="M489 1024q0 -98 -66.5 -154.5t-172.5 -56.5q-96 0 -189 25q16 66 29 108q92 -23 158 -22q51 0 82.5 25.5t31.5 66.5q0 98 -110 98q-66 0 -166 -10v356h387v-106h-266v-133q10 0 30.5 1t28.5 1q100 0 161.5 -54.5t61.5 -144.5z" />
<glyph unicode="&#x2076;" horiz-adv-x="573" d="M522 1034q0 -104 -66.5 -163.5t-162.5 -59.5q-121 0 -181.5 65.5t-60.5 223.5q0 176 84 271t223 95q59 0 119 -22l-26 -101q-45 14 -95 15q-131 0 -166 -137q68 14 111 14q104 0 162.5 -51.5t58.5 -149.5zM395 1026q0 100 -100 100q-47 0 -117 -10v-22q0 -98 25.5 -137 t95.5 -39q43 0 69.5 30.5t26.5 77.5z" />
<glyph unicode="&#x2077;" horiz-adv-x="468" d="M449 1372l-295 -571l-111 49l260 504h-297v106h443v-88z" />
<glyph unicode="&#x2078;" horiz-adv-x="575" d="M522 991q0 -90 -64.5 -133t-172.5 -43q-104 0 -168 40t-64 124q0 109 125 178q-102 70 -102 152q0 158 217 157q96 0 153.5 -41t57.5 -106q0 -88 -113 -162q131 -78 131 -166zM373 1309q0 55 -80 55q-94 0 -94 -55q0 -8 3 -16.5t9 -16.5t12 -14.5t17 -13.5l16 -11l16 -11 l13 -9q4 2 14 8t14 9t13.5 8t14.5 10l12 13q7 7 10.5 13t6.5 14.5t3 16.5zM393 993q0 8 -4 17.5t-12 18.5t-16.5 16.5t-21.5 15.5t-20.5 13t-20.5 12.5t-15 9.5q-104 -61 -105 -111q0 -66 109 -65q106 -1 106 73z" />
<glyph unicode="&#x2079;" horiz-adv-x="571" d="M520 1178q0 -199 -86 -282t-239 -83q-51 0 -111 21l25 102q55 -16 92 -16q154 0 178 129q-78 -16 -115 -17q-102 0 -157.5 60.5t-55.5 154.5q0 102 64.5 160.5t165.5 58.5q111 0 175 -76.5t64 -211.5zM389 1153v35q0 74 -30.5 123t-84.5 49q-45 0 -69.5 -27.5 t-24.5 -75.5q0 -68 24.5 -92t71.5 -24q56 0 113 12z" />
<glyph unicode="&#x207f;" horiz-adv-x="872" d="M846 844q0 -43 -8 -66h-312q-6 35 -4 64l37 22q33 18 33 60l4 190v92q0 84 -22.5 117t-102.5 33q-100 0 -184 -45v-197l2 -211q0 -35 18 -37l92 -20q0 -51 -6 -68h-338q-6 33 -4 60l58 24q37 14 36 66l5 186v248h-115v72q106 25 201 24q27 0 37 -9t10 -34v-39 q117 88 239 88q135 0 173 -54t38 -171v-125l4 -225q0 -23 17 -25z" />
<glyph unicode="&#x2080;" horiz-adv-x="616" d="M565 328q0 -336 -262 -336q-252 0 -252 317q0 145 61.5 239.5t204.5 94.5q248 0 248 -315zM436 322q0 45 -3 73.5t-13 66.5t-37 56.5t-70 18.5q-45 0 -74.5 -19.5t-41 -58.5t-14.5 -69t-3 -79q0 -213 127 -213q45 0 73 18.5t39 56.5t14 68t3 81z" />
<glyph unicode="&#x2081;" horiz-adv-x="407" d="M305 0h-127v530h-127v101l254 6v-637z" />
<glyph unicode="&#x2082;" horiz-adv-x="532" d="M481 0h-450v90q12 12 106 93t144.5 142.5t50.5 112.5q0 55 -21.5 76t-66.5 21q-82 0 -144 -41l-51 88q90 63 199 63q211 0 211 -194q0 -66 -42 -134.5t-84 -109.5t-112 -101h260v-106z" />
<glyph unicode="&#x2083;" horiz-adv-x="520" d="M465 182q0 -193 -238 -192q-119 0 -196 33l28 100q80 -27 160 -27q117 0 117 80q0 61 -37 82t-135 27v88q145 10 145 102q0 61 -84 62l-121 -23l-45 88q74 43 174 43q86 0 142.5 -40t56.5 -118q0 -90 -78 -145q111 -54 111 -160z" />
<glyph unicode="&#x2084;" horiz-adv-x="573" d="M543 158h-113v-158h-125v158h-264v116l209 363h180v-373h113v-106zM305 264v271l-151 -271h151z" />
<glyph unicode="&#x2085;" horiz-adv-x="550" d="M489 201q0 -98 -66.5 -154.5t-172.5 -56.5q-96 0 -189 24q16 66 29 109q92 -23 158 -23q51 0 82.5 26t31.5 67q0 98 -110 98q-66 0 -166 -10v356h387v-107h-266v-133q10 0 30.5 1t28.5 1q100 0 161.5 -54t61.5 -144z" />
<glyph unicode="&#x2086;" horiz-adv-x="573" d="M522 211q0 -104 -66.5 -163.5t-162.5 -59.5q-121 0 -181.5 65.5t-60.5 222.5q0 176 84 271.5t223 95.5q59 0 119 -22l-26 -101q-45 14 -95 15q-131 0 -166 -138q68 14 111 15q104 0 162.5 -51.5t58.5 -149.5zM395 203q0 100 -100 100q-47 0 -117 -10v-23q0 -98 25.5 -137 t95.5 -39q43 0 69.5 31t26.5 78z" />
<glyph unicode="&#x2087;" horiz-adv-x="468" d="M449 549l-295 -572l-111 50l260 503h-297v107h443v-88z" />
<glyph unicode="&#x2088;" horiz-adv-x="575" d="M522 168q0 -90 -64.5 -133t-172.5 -43q-104 0 -168 40t-64 124q0 109 125 178q-102 70 -102 151q0 158 217 158q96 0 153.5 -41t57.5 -106q0 -88 -113 -162q131 -78 131 -166zM373 485q0 55 -80 56q-94 0 -94 -56q0 -8 3 -16t9 -16.5t12 -14.5t17 -13l16 -11l16 -12 l13 -9q4 2 14 8.5t14 9.5t13.5 8t14.5 10l12 12q7 7 10.5 13.5t6.5 14.5t3 16zM393 170q0 8 -4 17.5t-12 18.5t-16.5 16t-21.5 15.5l-20.5 13.5t-20.5 12t-15 9q-104 -61 -105 -110q0 -66 109 -66q106 0 106 74z" />
<glyph unicode="&#x2089;" horiz-adv-x="571" d="M520 354q0 -199 -86 -281.5t-239 -82.5q-51 0 -111 20l25 103q55 -16 92 -17q154 0 178 129q-78 -16 -115 -16q-102 0 -157.5 60.5t-55.5 154.5q0 102 64.5 160.5t165.5 58.5q111 0 175 -77t64 -212zM389 330v35q0 74 -30.5 123t-84.5 49q-45 0 -69.5 -28t-24.5 -75 q0 -68 24.5 -92.5t71.5 -24.5q56 1 113 13z" />
<glyph unicode="&#x20ac;" horiz-adv-x="1265" d="M1102 70q-45 -29 -136.5 -58.5t-207.5 -29.5q-238 0 -355.5 92t-148.5 288h-172v109h160q-2 33 -2 100q0 49 4 74h-162v109h184q49 172 183.5 282.5t320.5 110.5q45 0 92 -5t105.5 -18.5t95.5 -44t37 -75.5q0 -39 -9.5 -64t-19.5 -35t-47 -43q-4 2 -22 17l-23 19 q-6 5 -24.5 18.5t-27.5 19.5l-27 17q-17 11 -29.5 16.5l-30 13.5t-31.5 11l-30.5 6.5t-33.5 3.5q-129 0 -202.5 -59.5t-100.5 -190.5h416v-109h-430q-2 -25 -2 -80q0 -63 2 -94h430v-109h-412q63 -240 359 -239q41 0 233 106q64 -63 64 -159z" />
<glyph unicode="&#x2122;" horiz-adv-x="1802" d="M1642 713h-124l-82 512l-13 94l-24 -88l-164 -518h-141l-131 526l-17 72l-8 -76l-100 -522h-111l154 735h129l123 -477l43 -176l51 182l155 471h131zM756 1448v-113l-273 25v-363l9 -284h-119l6 284v363l-273 -25v113h650z" />
<glyph unicode="&#x2202;" horiz-adv-x="1169" d="M1065 666q0 -692 -522 -693q-203 0 -320 96.5t-117 329.5q0 193 123 341.5t334 148.5q25 0 46.5 -1t41 -4t35.5 -5t34 -8l29 -8q11 -3 28.5 -10t23.5 -10t24.5 -10.5t22.5 -9.5q-39 195 -169 329t-302 179l49 131q76 -12 158 -47t169 -101.5t155.5 -153.5t112.5 -215.5 t44 -278.5zM864 641q0 10 -1 29.5t-1 27.5q-123 45 -305 45q-141 0 -197.5 -78.5t-56.5 -263.5q0 -125 74 -210t192 -85q80 0 135.5 28t86 71t48 117.5t21.5 144.5t4 174z" />
<glyph unicode="&#x220f;" horiz-adv-x="1695" d="M1624 109q0 -80 -10 -109h-586q-10 76 -8 98l88 25q57 16 84 74.5t27 117.5l2 244v746h-754v-746l8 -328q2 -66 45 -75l197 -54q0 -74 -10 -102h-627q-10 72 -8 90l121 45q41 14 64.5 63.5t23.5 100.5l2 260v631q0 113 -62 131l-149 43q0 61 8 84h1495q0 -76 -4 -92 l-107 -25q-35 -8 -47 -23.5t-12 -56.5v-692l8 -330q2 -74 39 -82z" />
<glyph unicode="&#x2211;" horiz-adv-x="1153" d="M1092 358l-41 -358h-914l-59 143l387 590l-369 570l43 145h905v-330h-104q-18 96 -54 139t-110 46l-469 14l352 -551l-401 -616l479 12q104 2 171 64.5t93 146.5z" />
<glyph unicode="&#x2212;" horiz-adv-x="958" d="M877 653h-795v142h795v-142z" />
<glyph unicode="&#x221a;" horiz-adv-x="1275" d="M1276 1669l-559 -1849l-191 -39l-299 1202h-215v104q164 41 316 41q41 0 53 -14t22 -59l197 -776l43 -261h10l62 263l436 1417z" />
<glyph unicode="&#x221e;" horiz-adv-x="1964" d="M1853 729q0 -133 -99 -232.5t-265 -99.5q-41 0 -81 6.5t-84 25.5l-72 31q-28 11 -78 45l-67 44q-15 10 -72.5 53t-63.5 47l-74 -53l-85 -59l-82 -53q-54 -34 -92 -49t-88 -28.5t-95 -13.5q-168 0 -259.5 95.5t-91.5 224.5q0 143 99.5 237t259.5 94q57 0 111.5 -12 t118 -47t93 -53.5t105.5 -72.5l90 -64q10 6 75.5 54t86 61.5t79 48t93.5 47t87 25.5t99 13q166 0 259 -93t93 -222zM1710 721q0 98 -60.5 153.5t-158.5 55.5q-129 0 -387 -191q-16 -12 -23 -16l43 -32l50 -36q14 -10 50 -33.5l55 -35t53 -28.5t58.5 -25.5t53.5 -14.5t55 -6 q96 0 153.5 59.5t57.5 149.5zM872 719l-49 36l-57 41l-56 38q-40 27 -66 38l-60 29q-35 16 -66 22.5t-59 6.5q-94 0 -152.5 -59.5t-58.5 -147.5q0 -96 59.5 -153.5t159.5 -57.5q23 0 45.5 4t48.5 14l46 18q19 7 50 25l46 28q15 9 49 32l42 29q9 6 42.5 30.5t35.5 26.5z" />
<glyph unicode="&#x222b;" horiz-adv-x="677" d="M737 1563l-37 -170q-98 12 -145 12q-104 0 -142 -54.5t-38 -164.5v-1166q0 -233 -152.5 -363t-390.5 -130l-20 170q131 0 163 4q102 8 155.5 59.5t53.5 178.5v1144q0 227 111 357.5t330 130.5q63 0 112 -8z" />
<glyph unicode="&#x2248;" horiz-adv-x="1099" d="M1020 907q-106 -127 -254 -127q-111 0 -243 54.5t-204 54.5q-102 0 -184 -53l-63 94q41 45 111.5 79.5t148.5 34.5q106 0 228 -55t206 -55q104 0 180 59zM1020 516v2q-106 -127 -254 -127q-111 0 -243 54.5t-204 54.5q-102 0 -184 -54l-63 95q41 45 111.5 79.5 t148.5 34.5q106 0 228 -55t206 -55q104 0 180 59z" />
<glyph unicode="&#x2260;" horiz-adv-x="1083" d="M940 463h-487l-177 -273h-126l176 273h-183v135h269l159 248h-428v135h516l152 233h127l-152 -233h154v-135h-242l-159 -248h401v-135z" />
<glyph unicode="&#x2264;" horiz-adv-x="958" d="M866 311l-774 334v156l774 336v-144l-635 -270l635 -268v-144zM877 0h-795v133h795v-133z" />
<glyph unicode="&#x2265;" horiz-adv-x="958" d="M866 645l-774 -334v144l635 268l-635 270v144l774 -336v-156zM877 0h-795v133h795v-133z" />
<glyph unicode="&#x25ca;" horiz-adv-x="1110" d="M1055 723q-55 -61 -194.5 -309t-203.5 -414h-231q-43 133 -163 355.5t-218 371.5q330 520 397 721h232q35 -125 160 -352.5t221 -372.5zM872 698q-229 358 -333 641q-53 -162 -150.5 -333.5t-161.5 -253.5q193 -297 334 -639q53 147 145 314t166 271z" />
<glyph unicode="&#xe000;" horiz-adv-x="1120" d="M0 1120h1120v-1120h-1120v1120z" />
<glyph unicode="&#xfb00;" horiz-adv-x="1685" d="M1833 1454q0 -84 -72 -133q-133 117 -217 117q-88 0 -142 -19.5t-76.5 -63.5t-29 -84t-6.5 -114v-39h244v-135h-244v-424l13 -364q2 -31 24 -35l250 -54q0 -74 -10 -106h-641q-6 45 -6 90l88 37q94 39 96 135l6 297v424h-661v-424l10 -340q2 -39 8 -49t35 -16l231 -43 q0 -82 -10 -111h-637q-10 55 -8 90l117 49q29 12 48 48t19 75l6 297v424h-164v102l164 33v64q0 135 78 235.5t185.5 145.5t224.5 45q180 0 317 -40t178 -100q119 109 273 109q41 0 83 -4t98 -15.5t92 -38t36 -65.5zM1141 1315q-193 158 -334 158q-51 0 -82 -2.5t-79 -8.5 t-77.5 -23.5t-60.5 -45t-45 -73.5t-14 -110v-92h661v47q0 72 31 150z" />
<glyph unicode="&#xfb06;" horiz-adv-x="1867" d="M1841 12q-98 -35 -196 -35q-96 0 -153.5 5.5t-113 24t-83 54t-44 95t-16.5 149.5l6 678h-141v86q61 27 109 110t48 185q0 133 -82.5 224t-213.5 91q-129 0 -211 -90t-82 -225q0 -94 53 -171t139 -126l-35 -270l-75 10q-14 90 -86 150.5t-170 60.5q-94 0 -146.5 -42 t-52.5 -122q0 -63 61.5 -108.5t147.5 -77t173 -69.5t148.5 -111.5t61.5 -180.5q0 -92 -36 -158.5t-99.5 -101.5t-134 -51t-154.5 -16q-201 0 -359 73l17 320q55 8 96 -2q2 -113 72.5 -193t189.5 -80q104 0 171 44t67 139q0 53 -59.5 94t-144.5 72.5t-170 73.5t-144.5 120 t-59.5 188q0 156 109.5 235t283.5 79q41 0 64 -2q-59 100 -59 223q0 184 130 314t314 130t314 -126t130 -302q0 -168 -92 -262h467v-135h-375v-426l7 -250q2 -123 39.5 -152.5t170.5 -29.5q90 0 175 18z" />
<glyph horiz-adv-x="1673" />
<glyph horiz-adv-x="1638" d="M1581 252h-1524v334h1524v-334zM1540 293v252h-1442v-252h1442zM1501 395h-16v31q0 6 -2 6t-2 -2v-2v-33h-17v33q0 4 -2 4t-2 -2v-35h-16v51h16v-8q2 8 10.5 8t8.5 -6q6 6 12 6q10 0 10 -16v-35zM1423 419.5q0 -26.5 -26 -26.5q-29 0 -29 26.5t29 26.5q26 0 26 -26.5z M1341 397q-6 -4 -18 -4q-29 0 -29 26.5t29 26.5q12 0 18 -2l-6 -14q-6 2 -12 2q-8 0 -8 -12q0 -10 10 -10q6 0 10 2zM1253 403q0 -10 -12 -10q-10 0 -10 10q0 12 10 13q12 -1 12 -13zM1190 399q-12 -6 -25 -6q-27 0 -26.5 26.5t26.5 26.5q25 0 25 -22l-2 -6l-29 -4 q4 -4 8 -4q12 0 19 2zM1114 395h-20v4q-12 -6 -17 -6q-14 0 -14 17v36h20v-32q0 -4 2 -4h5l4 2v34h20v-51zM1038 369h-18v30q-6 -6 -12 -6q-25 0 -25 26.5t31 26.5q18 0 24 -4v-73zM961 399q-12 -6 -27 -6q-25 0 -25 26.5t25 26.5q23 0 27 -22l-5 -6l-26 -4q0 -4 6 -4 q12 0 20 2zM883 395h-21v33q0 4 -2 4l-4 -2h-4v-35h-21v74h21v-27q8 4 18 4q12 0 13 -16v-35zM807 397q-16 -4 -27 -4q-20 0 -20 17v20h-6v10l26 21v-15h25v-16h-25v-14q0 -4 4 -4q10 0 19 2zM731 419.5q0 -26.5 -26 -26.5q-29 0 -29 26.5t29 26.5q26 0 26 -26.5zM653 424 q0 -31 -26 -31l-6 2v-26h-21v77h21v-4q8 4 12 4q20 1 20 -22zM580 444l-19 -53q-8 -23 -37 -26l-4 18l19 8l-19 53l25 2l6 -34l4 34zM500 397q-20 -4 -29 -4q-18 0 -18 17v20h-7v10l27 21v-15h23v-16h-23v-14q0 -4 4 -4q10 0 19 2zM408 403q0 -10 -13 -10q-10 0 -10 10 q0 12 10 13q13 -1 13 -13zM348 446l-6 -51h-16l-7 29l-8 -29h-16l-4 51h16v-34l4 34h15l6 -34l2 34h14zM270 446l-4 -51h-18l-6 29l-9 -29h-16l-4 51h16v-34l7 34h14l4 -34l2 34h14zM195 446l-7 -51h-16l-8 29l-6 -29h-17l-4 51h17v-34l4 34h14l6 -34v34h17zM1403 420 q0 12 -8 12q-6 0 -6 -8q0 -16 8 -16q6 0 6 12zM1171 426q0 8 -6 8t-6 -10zM1020 412v20h-6q-10 0 -10 -10q0 -12 8 -12q6 0 8 2zM940 426q0 8 -6 8t-6 -10zM711 420q0 12 -9 12q-6 0 -6 -8q0 -16 9 -16q6 0 6 12zM633 422q0 10 -4 10q-2 0 -6 -2h-2v-22h6q6 0 6 14z" />
<glyph horiz-adv-x="1654" d="M1239 1583l-68 -94q-174 51 -321 168q-129 -94 -334 -168l-57 84q109 53 229.5 146t175.5 157q70 -78 175.5 -164t199.5 -129z" />
<glyph horiz-adv-x="1662" d="M1251 1665q-10 -14 -27.5 -33.5t-73.5 -53.5t-114 -34q-51 0 -203.5 44t-191.5 44q-102 0 -168 -55l-55 76q10 14 30.5 35.5t81 57.5t119.5 36q57 0 208 -44t187 -44q90 0 160 49z" />
<glyph horiz-adv-x="1261" d="M936 1567h-610v141h610v-141z" />
<glyph horiz-adv-x="1669" d="M1200 1733q-10 -18 -30.5 -42t-62.5 -61t-108.5 -61.5t-142.5 -24.5q-102 0 -189 41t-120 74t-47 57l110 105q104 -127 254 -127q158 0 256 121z" />
<glyph horiz-adv-x="1654" d="M989 1686q0 -18 -56 -77t-79 -59q-20 0 -76.5 57.5t-56.5 78.5q0 23 57.5 78t75.5 55q20 0 77.5 -56.5t57.5 -76.5z" />
<glyph horiz-adv-x="1632" d="M1102 1735q0 -100 -79 -157.5t-171 -57.5q-33 0 -67.5 6t-84 25.5t-80 67.5t-30.5 118q0 111 74.5 168t179.5 57q102 0 180 -52t78 -175zM969 1739q0 55 -36 91t-89 36q-121 0 -121 -123q0 -57 36 -93t89 -36q57 0 89 33t32 92z" />
<glyph horiz-adv-x="1652" d="M1452 1671q-168 -106 -514 -143l-33 106q178 47 245 75t226 114zM938 1761q-102 -100 -206.5 -158.5t-262.5 -121.5l-55 98q236 129 407 309z" />
<glyph horiz-adv-x="1654" d="M1255 1812q-109 -53 -229.5 -146t-175.5 -157q-70 78 -175.5 164t-199.5 129l68 94q174 -51 321 -167q129 94 334 167z" />
<glyph horiz-adv-x="1681" d="M1237 1645q0 -16 -53.5 -71.5t-75.5 -55.5q-20 0 -73.5 54t-53.5 73q0 20 54.5 73.5t72.5 53.5q20 0 74.5 -53.5t54.5 -73.5zM709 1645q0 -16 -53.5 -71.5t-75.5 -55.5q-20 0 -73.5 54t-53.5 73q0 20 54 73.5t73 53.5q20 0 74.5 -53.5t54.5 -73.5z" />
<glyph horiz-adv-x="1728" d="M1161 1677q-190 -98 -530 -170l-33 99q246 88 481 233z" />
<glyph horiz-adv-x="1642" d="M1153 1606l-33 -99q-340 72 -530 170l82 162q235 -145 481 -233z" />
<glyph horiz-adv-x="698" d="M731 1677q-190 -98 -530 -170l-33 99q246 88 481 233zM627 1358l-99 -25q-47 -10 -62 -27.5t-15 -62.5v-1065q0 -211 -102.5 -332.5t-313.5 -228.5l-70 121q164 100 230.5 224t66.5 337v883q0 45 -26.5 90t-71.5 61l-90 31q0 55 10 84h537q8 -61 6 -90z" />
<glyph horiz-adv-x="737" d="M782 1593q-203 -184 -497 -352l-68 96q274 211 447 408zM477 18q4 -203 -107.5 -327.5t-273.5 -124.5q-80 0 -123 16l19 133q70 -16 129 -16q102 0 135 60.5t33 199.5v1024h-205v104q203 45 305 46q43 0 60.5 -16.5t17.5 -57.5v-502z" />
<glyph horiz-adv-x="1265" d="M1253 53l-6 -96q-59 0 -124.5 10t-158 55.5t-145.5 118.5l-297 394q12 6 32.5 18t72 48t91.5 72t72.5 86t32.5 95q0 111 -112 111q-45 0 -122 -75t-134 -183v-148l6 -305q4 -94 61 -127l58 -35q0 -63 -11 -92h-475q-8 61 -6 90l109 43q33 12 52 53t19 80l8 293v862h-206 v99q180 45 305 45q80 0 80 -80v-639q61 133 146 192.5t165 59.5q47 0 88 -10.5t81 -33t62.5 -68.5t22.5 -109q0 -47 -27.5 -96.5t-67.5 -86.5t-81 -65.5t-70 -42.5l-26 -17l227 -315q57 -78 139 -130.5t139 -70.5z" />
<glyph horiz-adv-x="2557" d="M2462 592q0 -135 -31 -240.5t-82 -172t-124 -110.5t-148.5 -62.5t-163.5 -20.5l-197 -6l13 -250q0 -14 1 -20.5t10 -13.5t27 -11l164 -31q6 -68 -8 -105h-526q-10 57 -6 97l53 30q76 43 76 129l2 175q-164 4 -281 36.5t-201 120.5q-86 90 -177 216t-136 206 q-37 -6 -80 -6h-180l8 -352q0 -49 35 -56l166 -39q0 -84 -8 -106h-566q-8 61 -6 90l99 37q68 23 81 129l7 303v696q-12 45 -47 60l-154 53q-4 41 10 80h660q223 0 349 -109.5t126 -330.5q0 -143 -72 -250t-215 -160q94 -154 268 -328q74 -76 146.5 -107.5t167.5 -35.5l4 436 v420h-166v100q12 2 72.5 16.5t105.5 21.5t86 7q43 0 61.5 -16t18.5 -57v-25q143 100 289 100q469 1 469 -538zM2263 551q0 82 -16.5 155.5t-49 139t-94 105.5t-143.5 40q-129 0 -254 -69v-363l6 -440q35 -4 207 -4q176 0 260 117.5t84 318.5zM1016 997h2q0 168 -74 243 t-244 75h-233v-627h190q178 0 268.5 71.5t90.5 237.5z" />
<glyph horiz-adv-x="1880" d="M1716 721q0 -348 -217 -547t-553 -199q-139 0 -270 39t-250 122t-190.5 233.5t-71.5 351.5q0 352 220 555t558 203q147 0 280.5 -42t246 -129t180 -237.5t67.5 -349.5zM1606 721q0 168 -55.5 299t-150.5 210t-210 119t-244 40q-139 0 -256 -38t-210 -115t-146 -206 t-53 -297q0 -164 51 -290t124.5 -194.5t172 -112.5t177.5 -57t157 -13q283 0 463 173t180 482zM1272 913q0 -150 -101.5 -221t-248.5 -71h-103l6 -299h-131l6 340v532l285 2q131 0 209 -74t78 -209zM1139 907q0 100 -44 150.5t-143 50.5h-133v-399h109q211 -1 211 198z" />
<glyph horiz-adv-x="1880" d="M1716 721q0 -348 -217 -547t-553 -199q-139 0 -270 39t-250 122t-190.5 233.5t-71.5 351.5q0 352 220 555t558 203q147 0 280.5 -42t246 -129t180 -237.5t67.5 -349.5zM1606 721q0 168 -55.5 299t-150.5 210t-210 119t-244 40q-139 0 -256 -38t-210 -115t-146 -206 t-53 -297q0 -164 51 -290t124.5 -194.5t172 -112.5t177.5 -57t157 -13q283 0 463 173t180 482zM1296 610q0 -100 -32.5 -172.5t-87 -111.5t-112.5 -56.5t-122 -17.5q-68 0 -126 16.5t-110.5 51t-82 101t-29.5 157.5v569h141v-547q0 -135 53.5 -188.5t153.5 -53.5 q111 0 171.5 61.5t60.5 209.5v518h122v-537z" />
<glyph horiz-adv-x="1587" d="M1589 1468q0 -16 -53 -71.5t-76 -55.5q-20 0 -73.5 54.5t-53.5 72.5q0 20 54.5 73.5t72.5 53.5q20 0 74.5 -53.5t54.5 -73.5zM1546 104q0 -74 -8 -104h-582q-10 55 -8 90l129 45q25 8 45.5 45t20.5 66l6 311v428h-209v102q203 45 305 46q43 0 62.5 -16.5t19.5 -57.5v-502 l6 -375q2 -25 9.5 -33t25.5 -12zM1102 1468.5q0 -16.5 -53.5 -72t-75.5 -55.5q-18 0 -69.5 52.5t-55.5 72.5q-41 8 -109 9q-168 0 -229 -79t-61 -218v-60h243v-135h-243v-424l14 -364q0 -31 22 -35l250 -54q0 -74 -10 -106h-639q-8 41 -8 90l88 37q96 39 96 135l6 297v424 h-164v102l164 33v68q0 180 141.5 303t313.5 123q213 0 278 -41q25 -14 63 -50t38 -52.5z" />
<glyph horiz-adv-x="1509" d="M1337 1466q0 -20 -64.5 -86.5t-88.5 -66.5q-23 0 -87.5 65.5t-64.5 87.5q0 25 64.5 88.5t87 63.5t88 -64.5t65.5 -87.5zM1290 -43q2 -197 -104.5 -294t-276.5 -97q-80 0 -123 16l21 121q45 -6 104 -6q119 0 155 60.5t36 201.5v1026h-680v-428l6 -250q2 -123 40 -152.5 t171 -29.5q90 0 174 18l25 -131q-98 -35 -197 -35q-96 0 -153.5 5.5t-113 24t-83 54t-44 95t-16.5 149.5l7 686h-164v66l319 291h29v-230h780q47 0 62.5 -10t15.5 -49v-502z" />
<glyph horiz-adv-x="1636" d="M1569 12q-98 -35 -197 -35q-178 0 -264 27t-121 115q-236 -139 -446 -139q-88 0 -150.5 7t-126 30.5t-102.5 64.5t-63.5 112.5t-24.5 172.5q0 84 46 159.5t111.5 121.5t125 74t98.5 34q-287 66 -287 323q0 186 144.5 307t330.5 121q129 0 224.5 -21.5t148.5 -56t85 -88 t42 -104.5t10 -119h375v-133h-375v-428l6 -250q2 -123 40 -152.5t171 -29.5q92 0 174 18zM969 1120q0 133 -88 199.5t-205 66.5q-57 0 -107.5 -11t-101.5 -39.5t-82 -88t-31 -143.5q0 -145 87 -219t186 -74l-19 -121q-102 0 -220 -91t-118 -220q0 -248 312 -248 q78 0 149.5 17.5t151.5 49t82 31.5q-4 47 -2 76l6 686h-164v66z" />
<glyph horiz-adv-x="786" d="M874 1477q0 -66 -24.5 -100t-73.5 -60q-6 8 -22.5 32.5t-26.5 37t-26.5 30t-34 24.5t-37.5 7q-104 0 -142 -57.5t-38 -176.5v-655l14 -364q0 -18 4 -24.5t18 -10.5l158 -54q0 -78 -10 -106h-547q-10 55 -8 90l117 49q29 12 48 48t19 75l6 297v424h-164v102l164 33v58 q0 168 106.5 289.5t266.5 121.5q51 0 102.5 -10t91 -36.5t39.5 -63.5z" />
<glyph horiz-adv-x="1490" d="M1450 104q0 -76 -10 -104h-582q-8 61 -6 90l129 45q23 8 43 45t23 66l6 311v428h-209v102q203 45 305 46q43 0 62.5 -16.5t19.5 -57.5v-502l6 -375q0 -39 35 -45zM874 1477q0 -66 -24.5 -100t-73.5 -60q-6 8 -22.5 32.5t-26.5 37t-26.5 30t-34 24.5t-37.5 7 q-104 0 -142 -57.5t-38 -176.5v-655l14 -364q0 -18 4 -24.5t18 -10.5l158 -54q0 -78 -10 -106h-547q-10 55 -8 90l117 49q29 12 48 48t19 75l6 297v424h-164v102l164 33v58q0 168 106.5 289.5t266.5 121.5q51 0 102.5 -10t91 -36.5t39.5 -63.5z" />
<glyph horiz-adv-x="1697" d="M1640 1303q0 -184 -149.5 -318.5t-294.5 -134.5q-131 0 -253 53t-202 53q-215 0 -290 -88v-307l8 -371q0 -49 30 -53l213 -33q0 -82 -8 -104h-585q-10 55 -9 90l97 49q68 37 71 154l4 268v424h-206v105q193 43 305 43q43 0 60.5 -16.5t17.5 -57.5v-90q41 70 131 120 t190 50q88 0 151.5 -24.5t95.5 -54.5t88 -54.5t130 -24.5q233 0 233 283q0 49 -56 99t-122 73q16 150 162 149q102 0 145 -85.5t43 -196.5z" />
<glyph horiz-adv-x="1497" d="M1499 1593q-203 -184 -498 -352l-67 96q274 211 446 408zM782 1593q-203 -184 -497 -352l-68 96q274 211 447 408zM1237 18q4 -203 -107.5 -327.5t-273.5 -124.5q-80 0 -123 16l19 133q70 -16 129 -16q102 0 135 60.5t33 199.5v1024h-205v104q203 45 305 46 q43 0 60.5 -16.5t17.5 -57.5v-502zM688 104q0 -76 -10 -104h-582q-6 45 -6 90l129 45q23 8 43.5 45t22.5 66l6 311v426h-209v104q203 45 305 46q43 0 62.5 -16.5t19.5 -57.5v-502l6 -375q0 -39 35 -45z" />
<glyph horiz-adv-x="2258" d="M2177 338l-37 -338h-1114q-8 66 -6 100l139 37q76 20 80 119l6 305v98h-799v-100l9 -328q2 -66 45 -75l196 -54q0 -74 -10 -102h-627q-10 55 -8 90l119 43q41 16 64.5 65.5t23.5 98.5l4 262v631q0 113 -61 131l-150 43q0 53 8 84h557q10 -55 9 -92l-115 -27 q-41 -10 -52.5 -26.5t-11.5 -57.5v-450h799v438q0 63 -49 82l-154 53q-4 41 11 80h1040v-328q-6 -2 -106 -2q-18 96 -54.5 139t-109.5 46l-393 12v-520l557 10v-156l-557 10v-106l10 -418l385 6q102 2 167.5 64.5t94.5 146.5z" />
<glyph horiz-adv-x="1579" d="M1579 1118q-35 -72 -146.5 -129t-195.5 -57q-82 0 -244 26.5t-245 26.5q-219 0 -328 -6v-424l6 -250q2 -125 41 -153.5t170 -28.5q88 0 174 18l25 -131q-104 -35 -196.5 -35t-145 4.5t-111.5 20.5t-88 50t-47.5 93.5t-18.5 149.5l7 692h-164v70l319 291h29v-230 q123 6 368 6q82 0 242 -17.5t240 -17.5q127 0 278 80z" />
<glyph horiz-adv-x="1579" d="M1579 1440q0 -184 -149.5 -321.5t-294.5 -137.5h-713v-424l6 -250q2 -123 40 -152.5t171 -29.5q90 0 174 18l25 -131q-98 -35 -197 -35q-96 0 -153.5 5.5t-113 24t-83 54t-44 95t-16.5 149.5l7 682h-164v70l319 291h29v-230h752q233 0 233 283q0 49 -56.5 99t-121.5 73 q16 150 162 149q102 0 145 -85.5t43 -196.5z" />
<glyph horiz-adv-x="2504" d="M2441 109q0 -80 -10 -109h-508q-8 66 -6 100l88 39q25 10 42 50t17 71l7 299v172q0 150 -42 202t-190 52q-88 0 -196.5 -31.5t-153.5 -60.5v-334l6 -356q2 -37 9 -49.5t32 -16.5l193 -33q0 -76 -11 -104h-569q-8 61 -6 90l94 41q29 12 48.5 51t21.5 86l4 291v750h-572 v-750l11 -348q0 -39 7 -53.5t36 -20.5l194 -37q0 -70 -8 -100h-660q-12 57 -8 100l152 39q33 8 57.5 52.5t26.5 89.5l6 278v750h-281q-131 0 -170 -205q-47 -8 -94 6v338h1108q203 49 293 49q43 0 61.5 -16.5t18.5 -57.5v-430q203 147 422 148q90 0 153.5 -19.5t99.5 -49.5 t55 -82t24.5 -101t5.5 -125v-205l6 -379q0 -23 8 -31t31 -12z" />
<glyph horiz-adv-x="1673" d="M1563 778q0 -344 -202 -573.5t-540 -229.5q-336 0 -522 183.5t-186 515.5q0 346 207.5 571t539.5 225q342 0 522.5 -183t180.5 -509zM2675 -481q-135 -160 -312 -160q-150 0 -367.5 58.5t-403 127t-390.5 127t-330 58.5q-74 0 -182 -66l-59 78q147 158 295 158 q143 0 342.5 -57.5t371.5 -127t391.5 -127t399.5 -57.5q76 0 188 72zM1337 745q0 270 -120.5 426t-374.5 156q-135 0 -234.5 -48t-157 -135t-85 -195.5t-27.5 -239.5q0 -266 116.5 -426t372.5 -160q139 0 240.5 48t159 136t84 195.5t26.5 242.5z" />
<glyph horiz-adv-x="1486" d="M1405 240q0 -66 -34 -108t-99 -42q-61 0 -111 39q61 66 62 127q0 135 -106.5 182t-405.5 47q-258 0 -443.5 119t-185.5 273q0 66 34 107.5t99 41.5q61 0 111 -39q-63 -68 -64 -133q0 -123 104.5 -171t409.5 -48q248 0 438.5 -112.5t190.5 -282.5z" />
<glyph horiz-adv-x="2156" d="M2066 584q0 -262 -157.5 -430t-395.5 -168q-254 0 -395 43l10 530v834q-152 80 -321 80q-51 0 -82 -2.5t-79 -8.5t-77.5 -23.5t-60.5 -45t-45 -73.5t-14 -110v-92h243v-135h-243v-424l10 -340q2 -39 8 -49t35 -16l231 -43q0 -82 -10 -111h-637q-10 55 -8 90l117 49 q29 12 48 48t19 75l6 297v424h-164v102l164 33v64q0 135 78 235.5t185.5 145.5t224.5 45q213 0 350 -54q72 10 121 11q43 0 61.5 -16.5t18.5 -57.5v-932l8 -409q111 -20 205 -21q176 0 261 119t85 319q0 199 -64.5 308.5t-234.5 109.5q-106 0 -174 -14l-25 84 q37 29 112.5 51t137.5 22q225 0 336.5 -124.5t111.5 -419.5z" />
<glyph horiz-adv-x="2320" d="M2257 109q0 -78 -8 -109h-508q-12 57 -8 100l90 39q23 10 41 51t18 70l6 299v172q0 150 -42 202t-189 52q-88 0 -196.5 -31.5t-153.5 -60.5v-334l6 -356q2 -37 9 -49.5t32 -16.5l190 -33q0 -74 -8 -104h-569q-10 55 -9 90l97 41q29 12 48 51t21 86l4 291v834 q-152 80 -321 80q-51 0 -82 -2.5t-79 -8.5t-77.5 -23.5t-60.5 -45t-45 -73.5t-14 -110v-92h243v-135h-243v-424l10 -340q2 -39 8 -49t35 -16l231 -43q0 -82 -10 -111h-637q-10 55 -8 90l117 49q29 12 48 48t19 75l6 297v424h-164v102l164 33v64q0 135 78 235.5t185.5 145.5 t224.5 45q213 0 352 -54q72 10 119 11q43 0 61.5 -16.5t18.5 -57.5v-498q203 147 422 148q111 0 181 -25.5t103 -82t43 -116t10 -153.5v-205l7 -379q0 -23 8 -31t30 -12z" />
<glyph horiz-adv-x="2117" d="M2105 53l-6 -96q-102 0 -225 39t-203 145l-332 441l328 319q29 29 29 55q0 45 -35 56l-88 32q-2 51 4 74h405v-74l-436 -411l281 -379q57 -78 140 -131.5t138 -69.5zM1452 92q0 -61 -8 -92h-496q-10 55 -8 90l109 43q33 12 52 53t21 80l6 293v834q-152 80 -321 80 q-51 0 -82 -2.5t-79 -8.5t-77.5 -23.5t-60.5 -45t-45 -73.5t-14 -110v-92h243v-135h-243v-424l10 -340q2 -39 8 -49t35 -16l231 -43q0 -82 -10 -111h-637q-10 55 -8 90l117 49q29 12 48 48t19 75l6 297v424h-164v102l164 33v64q0 135 78 235.5t185.5 145.5t224.5 45 q213 0 352 -54q72 10 119 11q80 0 80 -80v-926l8 -305q0 -102 59 -127z" />
<glyph horiz-adv-x="841" d="M711 1040q0 -70 -33 -135t-79 -114.5t-92 -93.5t-79 -90t-33 -89q0 -35 43 -147l-131 -37q-57 121 -57 186q0 72 37 145.5t82 124t81.5 117t36.5 123.5q0 68 -20.5 116t-49 73.5t-58 47t-50 51.5t-20.5 71q0 59 84 143l78 -37q-16 -29 -17 -61q0 -25 25 -39 q104 -61 178 -153.5t74 -201.5zM555 72q0 -23 -72.5 -98.5t-101.5 -75.5q-27 0 -98.5 73.5t-71.5 100t72.5 98.5t97.5 72q27 0 100.5 -71.5t73.5 -98.5z" />
<glyph horiz-adv-x="1325" d="M1223 68q-166 -92 -414 -93q-297 0 -454.5 126t-198.5 384h-199v109h186q-2 33 -2 100q0 74 11 156h-195v108h215q61 236 225 371t404 135q195 0 304 -47t109 -125q0 -25 -20 -59.5t-41 -56.5l-20 -23q-2 2 -46.5 38t-78 58.5t-92 46t-111.5 23.5q-352 0 -434 -361h598 v-108h-617q-6 -61 -6 -135q0 -66 6 -121h617v-109h-602q41 -188 159.5 -274t319.5 -86q55 0 144 49t138 88q31 -25 63 -87t32 -107z" />
<glyph horiz-adv-x="987" d="M844 1208l-21 -73l-258 30l31 -270l-92 -21l-92 19l30 272l-258 -30l-20 73l20 95l258 -31l-30 270l92 21l92 -21l-31 -270l258 31zM844 313l-21 -73l-258 30l31 -270l-92 -20l-92 18l30 272l-258 -30l-20 73l20 95l258 -31l-30 270l92 21l92 -21l-31 -270l258 31z" />
<glyph horiz-adv-x="1486" d="M1405 877q0 -154 -185.5 -273t-443.5 -119q-299 0 -405.5 -47t-106.5 -182q0 -61 62 -127q-49 -39 -111 -39q-66 0 -99.5 42t-33.5 108q0 170 190.5 282.5t438.5 112.5q305 0 409.5 48t104.5 171q0 66 -64 133q49 39 111 39q66 0 99.5 -41.5t33.5 -107.5z" />
<glyph horiz-adv-x="1368" d="M1327 6q0 -76 -4 -117t-22.5 -94t-63.5 -97t-119 -91l-57 82q127 84 127 235q0 109 -234 309q-57 -70 -105 -115.5t-142.5 -90.5t-198.5 -45q-406 0 -406 352q0 131 77 221t218 186q-115 156 -114 291q0 184 113.5 312.5t277.5 128.5q289 0 289 -254q0 -121 -97.5 -226.5 t-251.5 -206.5q55 -59 119 -116.5t173.5 -145.5t129.5 -106q141 -121 216 -218.5t75 -193.5zM776 1198q0 70 -41 118t-106 48q-82 0 -133.5 -55.5t-51.5 -169.5q0 -135 113 -285q219 174 219 344zM899 279l-111 91l-124 102q-43 36 -105.5 94.5t-105.5 107.5 q-72 -53 -111 -114.5t-39 -160.5q0 -135 68.5 -205.5t169.5 -70.5q168 0 358 156z" />
<glyph horiz-adv-x="1388" d="M1280 559q0 -244 -171 -415t-414.5 -171t-414.5 171t-171 415t171 415t414.5 171t414.5 -171t171 -415zM1145 559q0 186 -132 318.5t-318.5 132.5t-318.5 -132.5t-132 -318.5t132 -318t318.5 -132t318.5 132t132 318z" />
<glyph horiz-adv-x="1261" d="M1139 391q0 -195 -125 -293t-326 -116v-187h-121v182q-139 2 -277 35t-167 54l16 346q70 6 109 -4q14 -121 106 -203t213 -88v532q-92 35 -150.5 62.5t-124 76t-98 116t-32.5 155.5q0 172 115.5 276.5t289.5 122.5v178h121v-174q258 -10 363 -63v-285h-86 q-18 92 -93 145.5t-184 63.5v-498q84 -31 132 -51t118 -60t106.5 -80t65.5 -103.5t29 -139.5zM567 872v447q-106 -14 -164.5 -71.5t-58.5 -155.5q0 -76 57 -126.5t166 -93.5zM940 365q0 86 -64.5 139t-187.5 102v-483q252 35 252 242z" />
<glyph horiz-adv-x="1355" d="M1339 1368q-6 -4 -27.5 -14.5t-28.5 -14.5l-22 -13q-15 -9 -23 -15l-19 -17q-12 -10 -21.5 -22t-17.5 -27l-318 -512h305v-108h-370l-37 -64l2 -151h405v-109h-403l2 -51q0 -37 15.5 -68.5t43.5 -40.5l142 -47q0 -63 -9 -94h-581q-12 57 -8 102l123 37q76 23 75 117l2 45 h-434v109h436l2 151l-36 64h-402v108h336l-297 484q-25 39 -49.5 65.5t-66.5 57t-44 32.5q0 61 4 76h494q10 -53 8 -82l-104 -39q-31 -10 -31 -52t27 -89l276 -490l295 502q16 29 8 65.5t-35 49.5l-118 55q0 51 10 80h485q8 -60 6 -80z" />
<glyph horiz-adv-x="1118" d="M995 1214q0 -111 -96 -170q-80 92 -199 146v-856q176 8 256 39l35 -107q-106 -66 -291 -82v-225h-125v223q-279 12 -381 145.5t-102 444.5q0 219 133 387t350 187v200h125v-200q295 -15 295 -132zM575 340v874q-154 -8 -225 -114.5t-71 -333.5q0 -188 62 -294.5 t234 -131.5z" />
<glyph horiz-adv-x="2285" d="M2286 965q0 -174 -177.5 -279.5t-400.5 -105.5q-102 0 -162.5 17t-138.5 54l78 94q205 -45 337 -40.5t197.5 53.5t79.5 151q14 92 -53 164q25 20 60.5 30.5t58.5 6.5q121 -18 121 -145zM1296 678q0 -23 -71.5 -98.5t-100.5 -75.5q-27 0 -99.5 73.5t-72.5 100.5t74 98.5 t98.5 71.5t98 -71.5t73.5 -98.5zM881 737q-51 -59 -78 -94q-311 66 -452.5 28t-164.5 -192q-14 -90 54 -164q-59 -45 -119 -36q-121 18 -121 145q0 119 89 209t218 134t271 44q70 0 128 -11.5t89 -23.5t86 -39z" />
<glyph horiz-adv-x="1503" d="M1778 1010q-23 -88 -86 -152l-54 2q-193 2 -372 -82l2 2v-28q0 -313 -218.5 -544t-529.5 -231q-264 0 -362 177l-119 -68q-217 -127 -217 -244q0 -70 36 -129t99 -84q-16 -37 -58 -65.5t-81 -28.5q-76 0 -116 73t-40 156q0 143 90 251t242 202l121 74q-4 41 -4 63 q0 231 211 408q-127 135 -127 270q0 174 115.5 307.5t285.5 133.5q131 0 209 -63.5t78 -190.5q0 -84 -73 -179.5t-155 -95.5q-20 0 -37 8q92 111 93 230q0 76 -43 129t-117 53q-80 0 -134.5 -70.5t-54.5 -154.5q0 -98 41 -174t121 -158q-72 -74 -108.5 -120t-70.5 -122 t-34 -155l279 165q760 449 1061 449q76 0 127 -14zM1075 686q-231 -119 -426 -233l-299 -179q39 -68 107.5 -106.5t146.5 -38.5q193 0 332 180t139 377z" />
<glyph horiz-adv-x="1689" d="M1792 1374q0 -88 -70 -133q-133 117 -219 117q-254 0 -254 -402q0 -162 -43 -325q86 0 167 14t173 67.5t135 139.5l111 -18q-143 -342 -639 -357q-94 -223 -264 -361.5t-406 -138.5q-418 0 -417 353q0 135 91 249.5t222 176.5q-127 123 -127 276q0 176 113.5 308.5 t287.5 132.5q297 0 297 -254q0 -102 -71.5 -197.5t-153.5 -95.5l-61 6q39 53 66.5 131t27.5 135q0 68 -41 117t-109 49q-96 0 -143 -62.5t-47 -162.5q0 -127 101.5 -235.5t234.5 -168t280 -88.5q35 166 35 357q0 168 137 330.5t297 162.5q41 0 81 -4t92.5 -15.5t84 -38 t31.5 -65.5zM989 487q-319 47 -534 205q-43 -31 -59.5 -45t-53.5 -53t-53.5 -88t-16.5 -111q0 -117 86 -191.5t209 -74.5q289 0 422 358z" />
<glyph horiz-adv-x="1474" d="M1849 1374q0 -88 -69 -133q-133 117 -219 117q-254 0 -254 -402q0 -170 -48.5 -337.5t-139.5 -313t-242.5 -237t-335.5 -91.5q-418 0 -418 353q0 258 199 430q-127 111 -127 272q0 176 113.5 308.5t287.5 132.5q297 0 297 -254q0 -90 -72.5 -189.5t-152.5 -99.5 q-41 0 -62 2q96 150 96 266q0 68 -42 117t-109 49q-96 0 -143.5 -62.5t-47.5 -162.5q0 -72 20.5 -131.5t44.5 -89t54.5 -63.5t38.5 -48l-31 -31q-29 -29 -50 -57.5t-49 -75.5t-43 -110.5t-15 -137.5q0 -117 86 -191.5t209 -74.5q117 0 209 61.5t145 154.5t88 216t47 230.5 t12 212.5q0 168 137.5 330.5t297.5 162.5q41 0 80.5 -4t92 -15.5t84 -38t31.5 -65.5z" />
<glyph horiz-adv-x="1474" d="M1696 1206q0 -104 -67.5 -186t-160 -126t-204.5 -65q2 -23 2 -77q0 -203 -81 -375t-254 -286t-411 -114q-190 0 -304 92.5t-114 280.5q0 117 61.5 225.5t155.5 186.5q-125 135 -124 270q0 176 113.5 308.5t287.5 132.5q297 0 297 -254q0 -113 -121 -234q178 -29 346 -29 q66 0 125.5 8.5t124 30t103 69.5t38.5 118q0 74 -57 135q49 39 111 39q66 0 99.5 -42t33.5 -108zM1085 813q-117 0 -264 37t-219 72q100 154 100 276q0 68 -42 117t-109 49q-96 0 -143.5 -62.5t-47.5 -162.5q0 -76 30 -145.5t57.5 -103.5t74.5 -83l-24 -26l-31 -32l-31 -34 q-23 -25 -33 -41l-27 -43q-17 -27 -27 -49l-20 -51q-11 -28 -15.5 -56.5t-4.5 -58.5q0 -119 87 -203t208 -84q119 0 208 41t140.5 105.5t82 158.5t40.5 182t10 197z" />
<glyph horiz-adv-x="1527" d="M1741 799q-51 -59 -103 -78q-178 35 -372 39l2 -27q4 -328 -208 -542t-540 -214q-193 0 -305.5 93.5t-112.5 279.5q0 115 60.5 223.5t156.5 188.5q-125 135 -124 270q0 176 113.5 308.5t287.5 132.5q127 0 211 -54.5t84 -173.5q0 -111 -73 -213t-177 -102q-23 0 -35 2 q96 145 96 266q0 68 -42 117t-109 49q-96 0 -143.5 -63.5t-47.5 -162t40 -173t122 -158.5q-70 -72 -106.5 -117t-71.5 -120.5t-35 -153.5q0 -119 87 -203t208 -84q469 0 481 627q-203 -23 -202 -187q0 -74 57 -135q-49 -39 -111 -39q-66 0 -99.5 42t-33.5 108 q0 86 56.5 157.5t142.5 113.5t177 64.5t169 22.5q279 0 500 -104z" />
<glyph horiz-adv-x="2048" d="M2048 526h-2048v68h2048v-68z" />
<glyph horiz-adv-x="2048" d="M2048 541l-2048 -25v88l2048 -26v-37z" />
<glyph horiz-adv-x="294" d="M217 555q0 -8 -29.5 -39t-40 -31t-40 30t-29.5 40q0 12 29.5 41t40 29t40 -30t29.5 -40z" />
<glyph horiz-adv-x="2048" d="M2048 516l-2048 25v37l2048 26v-88z" />
<glyph horiz-adv-x="294" d="M205 559.5q0 -22.5 -17.5 -40t-40 -17.5t-40 17.5t-17.5 40t17.5 39.5t40 17t40 -17t17.5 -39.5z" />
<glyph horiz-adv-x="1673" d="M4739 -674q-594 -252 -1163 -252q-254 0 -526.5 67.5t-507.5 163.5l-467 190q-231 95 -480 163t-467 68q-276 0 -608 -134l-37 84q379 229 736 230q209 0 458.5 -68.5t489.5 -166.5l488 -193q249 -96 534.5 -165t548.5 -69q444 0 962 185zM1563 778q0 -344 -202 -573.5 t-540 -229.5q-336 0 -522 183.5t-186 515.5q0 346 207.5 571t539.5 225q342 0 522.5 -183t180.5 -509zM1337 745q0 270 -120.5 426t-374.5 156q-135 0 -234.5 -48t-157 -135t-85 -195.5t-27.5 -239.5q0 -266 116.5 -426t372.5 -160q139 0 240.5 48t159 136t84 195.5 t26.5 242.5z" />
<glyph horiz-adv-x="1185" d="M1094 678l-346 -100l-35 79l305 191l-19 -111zM813 1014l-141 -332l-84 23l45 356l74 -84zM1077 416l-98 -56l14 -110l-295 207l39 78zM539 698l-70 -51l-250 260l113 4l39 105zM633 565.5q0 -18.5 -12.5 -31t-31 -12.5t-30.5 12.5t-12 31t12 30.5t30.5 12t31 -12 t12.5 -30.5zM780 96l-104 41l-76 -80l-27 359l86 18zM449 526l-357 -49l64 94l-64 93l357 -50v-88zM537 428l-185 -307l-35 106l-110 11l262 245z" />
<glyph horiz-adv-x="1177" d="M1014 672q0 -16 -27 -21l-305 -59q-18 -2 -27.5 13.5t2.5 25.5l220 239q14 16 26 0q10 -12 -6 -30l-78 -88q-14 -16 -5 -26.5t28 -0.5l114 63q14 10 19 -6q8 -16 -6 -22l-109 -66q-18 -10 -13 -22.5t23 -7.5l125 20q15 4 19 -12zM711 952l-101 -295q-6 -18 -24.5 -18 t-22.5 16l-96 312q-6 16 11.5 21t25.5 -19l37 -113q8 -20 20 -16t14 22l3 131q0 14 14 15q16 0 16 -17l2 -127q0 -20 13.5 -23t19.5 15l45 119q4 12 19 10q16 -2 4 -33zM1014 446q-4 -18 -31 -12l-115 25q-23 4 -26.5 -9.5t14.5 -23.5l113 -68q12 -6 4 -20q-12 -12 -23 -6 l-110 63q-18 10 -26.5 0t3.5 -24l80 -99q10 -14 -2 -23t-31 13l-202 236q-12 14 -4 29.5t24 11.5l317 -72q19 -5 15 -21zM621 563q0 -29 -29 -28.5t-29 28.5q0 31 29 31t29 -31zM518 629q12 -14 4 -29.5t-26 -11.5l-318 71q-18 4 -13 21.5t30 11.5l116 -24q23 -4 26 9 t-13 23l-113 68q-14 6 -4 20q8 12 22 7l111 -64q18 -10 26.5 0t-4.5 25l-79 98q-14 14 2 23q10 8 28 -15zM711 160q6 -14 -11 -23q-16 -4 -24 21l-39 112q-6 20 -19.5 16.5t-13.5 -22.5l-2 -131q0 -14 -16.5 -14t-16.5 16l-2 127q0 20 -12 23.5t-18 -15.5l-45 -118 q-6 -14 -20.5 -10.5t-4.5 32.5l100 295q8 18 25.5 18t21.5 -16zM522 494l-221 -238q-14 -16 -27 0q-10 12 7 31l77 88q16 16 7 26.5t-27 -0.5l-115 -63q-14 -8 -20 6q-6 12 6 23l110 65q18 10 12.5 22.5t-24.5 8.5l-123 -21q-16 -2 -19 12.5t28 20.5l303 60q20 2 29 -13.5 t-3 -27.5z" />
<glyph horiz-adv-x="1193" d="M1016 877q12 -6 10 -14.5t-14 -6.5q-51 0 -82 -28.5t-37 -73.5q-12 -96 -69.5 -138.5t-127.5 -19.5q-23 6 -16 27q12 27 31 120q16 121 129 152q96 27 176 -18zM612 662q-18 -18 -32 0q-29 37 -91 86q-96 78 -65 188q23 92 104 143q10 6 16.5 1t0.5 -15q-55 -92 28 -154 q78 -59 85 -132.5t-46 -116.5zM1085 352q0 -12 -8 -14t-12 8q-25 45 -67 57.5t-80 -6.5q-96 -35 -158 -7t-78 99q-6 25 16 27q35 6 119 35q115 45 197 -37q67 -68 71 -162zM512 621q6 -25 -16 -27q-35 -6 -119 -35q-115 -45 -197 37q-68 68 -71 162q0 12 8 14t12 -8 q25 -45 67 -57.5t80 6.5q96 35 158 7.5t78 -99.5zM770 174q-23 -92 -104 -143q-10 -6 -16.5 -1t-0.5 15q55 92 -28 154q-78 59 -85.5 133t46.5 117q18 18 32 0q29 -37 91 -87q96 -77 65 -188zM514 487q-12 -27 -31 -120q-16 -121 -129 -152q-96 -27 -176 18q-12 6 -10 14.5 t14 6.5q51 0 82 28.5t37 73.5q12 96 69.5 138.5t127.5 19.5q22 -7 16 -27z" />
<glyph horiz-adv-x="1183" d="M1061 670q-156 -113 -240 -113q-39 0 -65.5 35t-26.5 74q0 94 266 151l-16 -96zM793 981q-2 -37 -6.5 -77t-15.5 -92t-36.5 -85t-60.5 -33q-113 0 -113 97q0 84 76 231l63 -74zM1044 414l-86 -49l13 -97q-256 70 -256 162q0 39 26.5 74t63.5 35q85 0 239 -125zM541 748 q0 -31 -35 -63t-68 -32q-92 0 -190 232l98 2l33 92q162 -149 162 -231zM633 559q0 -16 -13.5 -29.5t-30 -13.5t-29.5 13.5t-13 29.5t13 29.5t29.5 13.5t30 -13.5t13.5 -29.5zM764 117l-92 37l-68 -72q-63 145 -63 227q0 100 116 101q107 0 107 -293zM436 565.5 q0 -61.5 -38 -82t-105 -20.5q-78 0 -170 20l53 82l-53 80q102 23 169.5 23t105.5 -20.5t38 -82zM537 371q0 -86 -177 -226l-28 95l-96 8q113 219 198 219q33 0 68 -31.5t35 -64.5z" />
<glyph horiz-adv-x="1212" d="M862 870q0 -45 -41 -45q-16 0 -29.5 13.5t-13.5 29.5q0 47 41 47q16 0 29.5 -14.5t13.5 -30.5zM997 567.5q0 -18.5 -11 -32t-29.5 -13.5t-31 13.5t-12.5 32t12.5 32.5t31 14t29.5 -14t11 -32.5zM559 948q0 -18 -13.5 -31.5t-31.5 -13.5q-16 0 -29.5 13.5t-13.5 29.5 q0 18 13.5 31.5t31.5 13.5q16 0 29.5 -13.5t13.5 -29.5zM657 563.5q0 -28.5 -19.5 -49t-48 -20.5t-47 20.5t-18.5 48.5q0 27 19.5 48.5t46 21.5t47 -20.5t20.5 -49zM848 256q0 -18 -12.5 -32.5t-31 -14.5t-30.5 13.5t-12 31.5t13 31.5t31.5 13.5t30 -12.5t11.5 -30.5z M309 745q0 -18 -13 -32.5t-32 -14.5q-16 0 -28.5 14.5t-12.5 30.5q0 18 12.5 31.5t31 13.5t30.5 -13.5t12 -29.5zM539 193q0 -16 -12.5 -29.5t-28.5 -13.5q-20 0 -32.5 13t-12.5 32q0 16 12 29.5t30.5 13.5t31 -13.5t12.5 -31.5zM301 409.5q0 -18.5 -12.5 -31.5t-30.5 -13 t-30.5 14t-12.5 33q0 16 12.5 29.5t28.5 13.5q20 0 32.5 -13.5t12.5 -32z" />
<glyph horiz-adv-x="2701" d="M2367 494q0 -12 -14 -28.5t-26 -16.5q-10 0 -35 12q0 4 -2 15t-2 18q0 29 32 28h11q36 1 36 -28zM2589 266q0 -29 -13 -37q-2 0 -28.5 -14t-55 -27.5t-34.5 -13.5q-23 0 -23 29q0 33 45 58.5t80 25.5q29 -1 29 -21zM1309 995q0 -29 -41 -28q-2 0 -64 12q-43 -6 -47 -6 q-33 0 -33 26q0 18 33 31q10 0 31.5 -7t25.5 -7q41 16 50 16q45 0 45 -37zM2626 -549q0 -8 -15.5 -19.5t-25.5 -11.5q-4 0 -5 5q-35 14 -34 28q0 12 13 20.5t28 8.5q12 0 25.5 -9.5t13.5 -21.5zM1417 483q0 -37 -31 -37q-10 0 -30.5 27t-26.5 41q0 20 29 21q23 0 41 -16 t18 -36zM1126 1325q0 -20 -25.5 -47t-45.5 -31q0 -8 -2 -23.5t-3 -27.5t-1 -22q0 -29 19 -79.5t19 -82.5q0 -197 -36 -252q-10 -14 -45 -30.5t-35 -31.5q0 -18 28.5 -35.5t28.5 -44.5q0 -35 -15.5 -47t-49.5 -12q-4 0 -34 16.5t-50.5 16.5t-37 -15.5t-48 -30t-88.5 -14.5 q-45 -23 -64 -22q-8 0 -44 14.5t-60 14.5q-12 0 -38 -4.5t-38 -4.5q-18 0 -31.5 7.5t-27 20.5t-23.5 20l-76 47q-8 18 -22 18q-2 0 -8.5 -2t-8.5 -2q-6 -4 -15 -16l-18 -23q-8 -10 -10 -10q-8 0 -8 20q0 6 3 11.5t8 8.5t9.5 5t12.5 5t10 3q-4 14 -21.5 19.5t-21.5 9.5 t-30.5 76.5t-57.5 70.5q-6 0 -16.5 -1t-16.5 -1q-20 0 -20 23q0 14 45 51l6 147q27 39 27 72q0 10 -3.5 29.5t-3.5 29.5q0 53 56 127q14 20 49 33.5t57.5 32t22.5 57.5q0 27 -12.5 53.5t-24.5 44t-12 19.5q0 20 20 20q16 0 31.5 -24.5t15.5 -42.5l41 -45q66 31 115 39 q10 2 34.5 3t36.5 3q14 4 31 61q8 12 23 13q23 0 35 -15q0 -4 -1.5 -10t-1.5 -8q0 -6 1.5 -17.5t1.5 -17.5q82 -6 94 -10t84 -60q8 -6 31.5 -11t31.5 -11l62 12q20 12 32 12q16 0 17 -10q0 -12 -20.5 -34.5t-20.5 -30.5q0 -27 41 -68q2 2 23 16l41 27q19 12 23.5 12t14.5 -6 t10 -8zM2490 -440q0 -18 -6 -25q0 -2 -22 -8l-47 -13q-25 -7 -31 -10q-53 -29 -111.5 -112.5t-68.5 -147.5v-4q0 -10 71.5 -56t71.5 -69q0 -27 -68 -26q-10 0 -14 4l-14 35q-4 2 -30 19l-48 32q-23 14 -27 14q-10 0 -80.5 -49t-87.5 -55q-156 -68 -280 -68q-23 0 -69 2 t-70 2q-27 0 -119 41t-105 41q-10 0 -16 -5t-12.5 -15.5t-8.5 -12.5q-2 -16 -104 -157q0 -31 -13.5 -86.5t-33.5 -55.5q-14 0 -24.5 15.5t-10.5 29.5q0 18 7 41t14.5 39.5l20.5 43t17 36.5q20 8 84 117q25 10 21 51v10q-109 57 -211 189q-23 27 -33 60.5t-15 77.5t-11 69 q-2 6 -8 27l-9 40q-4 18 -12 39t-19.5 32t-23.5 11t-34.5 -7t-33.5 -7q-14 0 -33.5 12t-19.5 25q0 37 37 36q12 0 40 -9t42 -9q31 0 44 35t13 69q0 29 -21.5 56.5t-44 45t-22.5 19.5q0 14 7 22.5t21.5 11.5t27 3t30 -2t23.5 -2q96 217 207 317q33 29 117.5 75t123.5 55 l203 32q6 0 36 -6l62 -13q33 -7 41 -9q104 29 109 28q25 0 24 -37l45 31q2 0 18.5 4t18.5 4q27 0 27 -26q0 -14 -27 -27v-2q0 -33 41 -69.5t76 -36.5q12 0 19.5 1t12.5 7t6 9t5 16.5t6 17.5q27 20 43 20h8q18 -18 19 -33q0 -18 -18.5 -37.5t-37.5 -23.5q25 -143 164 -156 q8 23 25 23q25 0 24 -23l-12 -20q-12 -20 -24.5 -52t-12.5 -59q0 -55 24.5 -88t50.5 -54.5t26 -47.5q0 -23 -16.5 -69t-16.5 -77q0 -61 63 -98v-18zM2367 -1085q0 -25 -28 -25q-37 0 -37 37q0 41 18 41h27q20 -47 20 -53zM825 408q0 -16 -11 -28.5t-28 -12.5q-31 0 -30 39 q0 12 12 20t25 8q32 1 32 -26zM604 453q0 -12 -14.5 -28.5t-26.5 -16.5q-10 0 -35 12q0 4 -2 15t-2 18q0 29 33 28h10q37 1 37 -28zM1851 -1032q0 -31 -30 -31q-14 0 -24.5 11.5t-10.5 25.5q0 25 22 29q43 -19 43 -35zM1909 -1272q0 -49 -35 -49q-8 0 -13.5 2t-8.5 3t-6 7 l-4 9q-1 2 -3 10t-2 10q-25 94 -25 119q0 39 33 39t33 -39q0 -31 -10 -49q41 -19 41 -62zM721 -61q0 -12 -8 -18.5t-21.5 -10.5t-17.5 -8q-6 -4 -10.5 -29t-26.5 -45q-4 -14 -8 -21.5t-7.5 -8.5t-12.5 -5t-17 -8q-14 -8 -33.5 -31.5t-40 -39t-47.5 -15.5q-20 0 -47 21.5 t-39 21.5t-31 -18l-12 2q-8 8 -2 28l-45 49q-4 23 -23.5 39.5t-19.5 22.5q4 8 16.5 16t14.5 10l6 13q-41 27 -41 63q0 8 6 19q6 6 9 35.5t11 39.5q20 27 21 31q0 6 -10 23l4 12q2 2 8 4l6 2q4 -8 19 -16q27 25 45 30t63 5q123 0 176 -54q66 -59 68 -90v-4q0 -6 -4 -17.5 t-4 -17.5q0 -8 5 -9t14 1t11 2q8 0 16.5 -8t8.5 -16zM1032 -662q0 -10 -17.5 -23t-19.5 -17q-6 -2 -22.5 -10.5t-26.5 -8.5q-16 0 -16 19q0 16 12 26t33.5 19.5t28.5 13.5q18 0 24 -8q4 -9 4 -11zM922 -756q0 -6 -23 -28q0 -20 -15.5 -36t-35.5 -16q-27 0 -27 37 q0 23 31 41.5t53 18.5q17 -1 17 -17zM524 -463q0 -74 -45 -74q-27 0 -43 20.5t-16 47.5q0 59 55 59q49 0 49 -53z" />
<glyph horiz-adv-x="1173" d="M1071 686l-16 12q-121 -16 -146 -34q-6 -6 -15 -24.5t-13 -23.5q-31 -25 -76 -24v-14l-6 12h-6q-23 -18 -13 -39q-4 6 -16 14q-20 -57 -10 -71q4 -4 4 -13v-8q12 4 20 12q18 14 25 37l90 -2l-4 -8l12 -2l27 4l2 -6l-6 -4l53 -10l-12 -13l22 -8l-14 -16l-8 16l-4 2l-3 -6 l-4 2l-4 12h-2v-8l-28 23l2 -9l-101 13q-16 -47 -86 -56q-6 -18 -23.5 -82.5t-30.5 -107.5t-36.5 -91t-50.5 -69q-31 -25 -59 -4q6 -6 18 -6t20 4q12 10 47 116.5t27 117.5l-6 2q70 131 90 204q-2 0 -5 3.5t-7 -3.5l-33 -51l-72 -107q-39 -56 -55 -71q10 -37 -6 -47 q6 33 0 41q-4 4 -6 4q-12 -16 -25.5 -45t-19.5 -49l-6 -21q4 59 8 88l-53 -20l-56 -121v-25v-18l11 -8l-50 6l25 35l-23 -12l17 18l-8 -2l12 29l-10 -2l32 53l-20 -10l43 69l-14 8l88 29l12 45l-25 -14l-45 -8l-12 -23l6 23l-4 -2l-12 -11l8 11l-72 -21l11 18h-48l5 17 l-19 -2l8 4l-4 16l-24 -12l18 78h-22l36 26h-16l23 29h-9l13 6v11l-9 -3l5 5q2 2 9 7t12 11t9 13t2 14q16 -4 35 5t41.5 29.5t30.5 24.5h-90q-6 -6 -20.5 -19.5t-20.5 -19.5l-2 -10q2 0 8 -3l10 -5q-27 4 -37 -2l-53 -88l2 26q-4 0 -11 2t-12.5 3t-11.5 -1t-12 -6l-8 -8 q2 6 4 10l-64 -8l9 10l-27 -8l4 8l-23 -6l5 8l-29 -10l-4 -4l2 45l37 -16l6 6q94 -4 115 -10l2 6l-7 2q8 0 22.5 3t20.5 3v4l-6 6l-4 2q12 20 29 35q-127 20 -162 68q-29 35 12 69q47 37 188.5 40t201.5 -11q18 37 20 33l55 49l6 90l17 -4l-2 12l-17 10l-2 2l11 -4l4 6l-9 7 l-4 4l11 -4v26l-11 6l23 4l10 -4l4 4l-18 -43l-6 -2l12 -6v-4l-4 -2v-4l8 -4l2 4l-10 -37l6 -4l4 6l-18 -72l-43 -36q-18 -14 -27 -23q16 -10 57 -10t54 12q-4 4 -25 4h27v-2q6 -2 8 0q4 2 8 10q-6 0 -10 7l-6 6h26q0 2 -2 4q-2 4 2 13t10.5 19.5t6.5 14.5q8 -2 16 2 q0 2 2 4l4 4q-4 -4 -4 -10q4 4 12 8l7 12v-12q14 0 30 12q6 6 19 21q-2 -2 -2 -12q12 0 22 8l8 49q8 49 23 65q0 2 -3 8.5t-1 8.5q25 0 31 -8q-6 -29 -23.5 -78t-19.5 -60q2 -2 4 -2t2 2q-25 -10 -33 -16l-6 -6q43 -29 73 -2h3q-4 -2 -13 -14q16 -4 35 0q2 -4 2 -16.5 t2 -16.5q14 0 19 2q-25 -18 -23 -72l166 31zM659 381l-24 -55l-4 4l22 55zM629 317l-68 -106l-4 6l66 105zM569 176l-2 -74h-8l2 72zM512 129l-6 -2l-10 45l4 4zM885 743l-4 7l-17 -7l2 -6zM893 778q-8 0 -41 9l-52 15q-19 5 -34 -1q-10 -6 -12 -15l28 -36q10 -14 25 -5 q4 2 10 10.5t10 10.5q-4 -2 -12 -10q-8 -4 -10 -4q-10 10 -21 10q0 2 2 4l6 5q3 3 3 5q-4 -6 -7 -8q-2 -6 -10 2q-14 23 0 31q39 -10 45 -17q16 2 23.5 1t23 -4t23.5 -3zM590 672q-2 2 -11.5 -2t-11.5 -6q-16 -25 -14 -33q4 4 17.5 18.5t19.5 22.5zM741 522l-6 2l-30 -147 l6 -4zM557 709q-25 2 -84 6t-92 5t-81 0t-89 -9q53 6 152.5 -6.5t146.5 -10.5l-31 11q25 0 78 4zM395 684l-22 2v-6l22 -4v8zM600 698q-147 -12 -217 -30l133 12q-12 -12 -6 -21q2 0 12 3.5t17 5.5q-2 -2 -13.5 -8.5t-13.5 -10.5l-10 21q-20 4 -50 0t-72 -13.5t-52 -11.5 l2 2q6 4 23.5 9.5t21.5 7.5q4 4 6 8t4 6q-156 12 -248 0q-2 -4 -4 -11.5t-3 -9.5t-2 -7t0 -9t4 -9t7 -11q23 -31 88.5 -51.5t96.5 -2.5q0 -4 -9 -12l23 16l-14 4q-2 8 10 17q-86 23 -109 20v14q0 9 -2 13q-2 2 -35.5 10t-40.5 13q10 4 40 -3.5t38 -15.5q4 -4 5 -13t3 -14 q25 12 50 19q0 -2 -1 -5t-3 -7v-5q2 -4 18 -12q29 -14 76 10.5t73 14.5q-4 -2 -24.5 -6t-30.5 -11q29 -14 92 -4q-6 12 6 19q6 6 23.5 14t24.5 12l-11 -20q2 -2 7.5 1t5.5 5l22 23q-4 -8 -10 -5l20 29l21 2zM428 688q-238 35 -276 0l-5 -4q158 6 281 4zM700 436 q-25 -57 -60.5 -173t-55.5 -169l24 19q27 23 62 133t26 147q0 -2 -12 -84q-4 33 -4 41t9 44t11 42zM459 705v-7l-80 11l2 6zM322 643l-31 -12l-2 6l28 10zM674 330l-51 -185l-7 2l52 185z" />
<glyph horiz-adv-x="1495" d="M1608 897q0 -100 -72 -184t-168 -128t-197 -57q-10 -246 -161.5 -399.5t-397.5 -153.5q-256 0 -383 136.5t-127 394.5q0 256 159 448.5t411 192.5q381 0 381 -158q0 -82 -99 -149q-100 106 -139 131q-70 47 -170 47q-125 0 -206 -72t-109.5 -169t-28.5 -220 q0 -195 82 -323t266 -128q92 0 155.5 34t97.5 96.5t48.5 130t16.5 157.5q-233 0 -400 80l76 96q225 -49 397 -49q66 0 123.5 8.5t121 30t101 68.5t37.5 114q0 78 -55 134q49 37 119 36q59 0 90 -42t31 -103z" />
<glyph horiz-adv-x="1546" d="M1640 1001q0 -166 -159.5 -269t-370.5 -116q-47 -193 -199 -378q98 -66 211 -113q119 -45 211 -27l19 -61q-20 -27 -63.5 -48.5t-88.5 -21.5q-178 0 -412 146q-158 -131 -325 -131q-326 0 -326 278q0 184 199 320q-59 119 -60 217q0 145 92.5 245.5t223.5 100.5 q236 0 235 -205q0 -33 -24.5 -77t-54.5 -73q193 -33 329 -32q350 0 377 190q12 94 -53 164q59 45 119 37q120 -19 120 -146zM913 627q-209 33 -331 88l12 26q14 25 28.5 54.5t27 66.5t12.5 62q0 49 -30 82.5t-75 33.5q-59 0 -96 -38.5t-37 -122.5q0 -143 106.5 -293 t272.5 -273q79 140 110 314zM694 176q-197 150 -309 320q-72 -78 -72 -185q0 -98 59.5 -153.5t135.5 -55.5q102 0 186 74z" />
<glyph horiz-adv-x="1695" d="M2130 -258q-33 -33 -104.5 -49.5t-133.5 -16.5q-166 0 -423 131.5t-513 335.5q-203 -166 -415 -166q-418 0 -418 353q0 129 75.5 241.5t194.5 188.5q-84 152 -84 272q0 176 114 308.5t288 132.5q297 0 297 -254q0 -109 -111 -224q160 -27 332 -26q66 0 125 8t123.5 29.5 t103.5 69.5t39 118q0 74 -57 135q49 39 110 39q66 0 99.5 -42t33.5 -107q0 -104 -67.5 -186.5t-160.5 -126.5t-206 -64q-41 -285 -266 -553q252 -199 500.5 -329t386.5 -130q51 0 96 12zM1169 829q-106 8 -242 38t-208 65q23 27 59.5 119t36.5 147q0 70 -41 118t-108 48 q-96 0 -143.5 -62.5t-47.5 -162.5q0 -158 143.5 -357.5t376.5 -400.5q135 196 174 448zM858 223q-264 231 -409 445q-119 -119 -119 -273q0 -121 75.5 -197.5t196.5 -76.5q137 0 256 102z" />
<glyph horiz-adv-x="866" d="M659 573l-34 -28l24 28h10zM705 262l-60 -6l-8 -6l-12 -6l-88 4l-7 4l-8 -4l-4 10l-2 -4l-12 6l-19 -4q-39 41 -59 59q-4 0 -10 -1t-13.5 -3t-11.5 -2v-4q0 -6 -6 -6q-4 0 -4 2t-2 2q0 -2 -1 -4t-1 -6l18 -94l43 -105v-28h-10l-16 61l2 20l-19 9q-4 10 -9 25.5t-12 55 t-5 68.5q-2 2 -7 2q-10 0 -4 -6q-4 2 -16 2q-6 0 -14.5 -21.5t-12.5 -23.5t-4 -10q-2 0 -6 -3t-8 -3q-2 0 -4 1t-4 1q-20 0 -37 -11q8 8 -6 9q-12 0 -13 -6q-2 0 -4 4t-6 4q-2 0 -4 -1t-4 -1q-4 0 -15.5 8t-15.5 10q-18 -10 -6 -35q-12 -8 -43 -69q0 4 -6 12t-6 10 q10 6 18.5 19.5t13.5 24.5t12 34t11 31q0 4 -6 20.5t-6 20.5q0 8 7 30.5t7 28.5v29q-4 4 -14 4q-18 0 -45 41q6 -2 12 -6l10 -6.5l12 -7.5l14 -10q7 -5 9 -5q-2 8 -5 26.5t-3 20.5q0 14 13.5 38t25.5 21v-8q0 -2 -6 -9t-11.5 -19.5t-5.5 -28.5q0 -47 9 -47q2 0 10 2t12 2 t16.5 -8t16.5 -8q49 0 68.5 -20.5t27.5 -20.5q23 0 23 129l8 -4l35 83l2 -10l-19 -61l-18 -58q8 -14 8 -20q0 -2 -6 -20.5t-8 -26.5l8 -8h14l29 14q102 86 108 86q4 -2 5 -6q29 37 79 74l-16 -19v-10q-72 -63 -96 -80q-12 0 -23 -10q-6 2 -15 -7.5l-18 -19.5l-6 -8l-6 2 l2 -6l-14 -12v-7l8 -2l16 9l13 -7q12 16 20 18.5t30 12.5l38 18q16 7 22 7q29 0 48.5 -18.5t19.5 -43.5q0 -2 -4 -10t-10.5 -17.5t-8.5 -15.5l-4 2h-8q-6 0 -6 -6q-4 0 -8 3t-6 3v-12q-4 2 -7 4q-12 -8 -24 -8q-2 0 -7 5t-5 9l-13 -2q0 -4 6 -4q-2 -2 -12 4q-4 -8 -2 -10 q-8 4 -10 4l-6 -6q-14 6 -37 29l-14 -15v-8l6 2l61 -43l17 -4l61 -2l10 6l12 -6l21 8zM301 375q-12 8 -55 14q35 -20 33 -35q8 7 22 21zM250 393q-6 6 -10 8q-16 -4 -23 -4q2 0 14.5 -1t18.5 -3zM213 395q0 4 -20 4v-16q20 0 20 12zM309 287l-6 8l-20 10q-4 0 -7 -4h-2v8 h-10q0 -27 -10 -26h-21q-4 0 -10 6t-8 6q-29 0 -29 -19v-10h2q4 2 9 2q2 0 5 -5t7 -5q10 0 17 3t16 3q4 0 16 -4t14 -4q8 0 15.5 6t13.5 14.5t8 10.5z" />
<glyph horiz-adv-x="1474" d="M1638 852q-49 -49 -150.5 -81t-221.5 -40v-33q-8 -141 -60.5 -269t-142.5 -229.5t-230.5 -162t-312.5 -60.5q-190 0 -304 92.5t-114 280.5q0 117 61.5 225.5t155.5 186.5q-53 41 -88.5 116.5t-35.5 153.5q0 176 113.5 308.5t287.5 132.5q131 0 214 -68t83 -186 q-25 -16 -97.5 -23.5t-93.5 2.5q0 68 -42 117t-109 49q-96 0 -143.5 -63.5t-47.5 -161.5q0 -76 30 -145.5t58.5 -104.5t75.5 -82q-117 -119 -157 -189q-57 -100 -58 -202q0 -119 87 -203t208 -84q100 0 182 39t134.5 99.5t89.5 143.5t53 163.5t22 164.5q-227 27 -372 97 q33 33 102 77q186 -41 408 -41q78 0 176 24t147 56z" />
<glyph horiz-adv-x="987" d="M844 1210l-21 -73l-258 30l31 -1167l-92 -20l-92 18l30 1169l-258 -30l-20 73l20 95l258 -31l-30 270l92 21l92 -21l-31 -270l258 31z" />
<glyph horiz-adv-x="1738" d="M1993 1411q0 -125 -95.5 -216t-216 -130t-245.5 -45q-49 -240 -215 -480.5t-408 -403.5t-477 -163q-127 0 -175 73t-48 280q0 145 23.5 275t79.5 259t169 206t270 77q115 0 180.5 -47t65.5 -131q0 -199 -143.5 -311.5t-456.5 -168.5q-8 -109 -8 -311q61 -29 108 -29 q119 0 257.5 65.5t263.5 177.5t219 282t119 360q-217 29 -355 94q53 33 123 103q238 -70 389 -70q66 0 125.5 9.5t123 32t102 70.5t38.5 117q0 74 -57 136q49 39 111 39q66 0 99.5 -42t33.5 -108zM702 911q0 100 -143 101q-193 0 -248 -418q166 33 251 76t112.5 96t27.5 145 z" />
<glyph horiz-adv-x="1705" d="M1985 973q0 -41 -14.5 -86t-28.5 -70l-17 -24q-63 43 -191 84t-243 41q-68 0 -137 -15q-100 -233 -261 -441t-365 -348.5t-392 -140.5q-127 0 -175 73t-48 280q0 145 23.5 275t79.5 259t169 206t270 77q111 0 158 -45t47 -133q0 -59 -43 -117q219 100 400 151 q59 184 59 375l186 -22q0 -143 -55 -308q109 18 219 15q257 -10 359 -86zM702 911q0 100 -143 101q-193 0 -248 -418q39 16 160 80.5t184 95.5q47 94 47 141zM1161 854q-150 -47 -323.5 -121t-346 -156.5l-190.5 -91.5q-8 -109 -8 -311q61 -29 108 -29q184 0 406.5 205 t353.5 504z" />
<glyph horiz-adv-x="1738" d="M1833 317q-266 -338 -496 -337q-104 0 -150 32.5t-46 130.5q0 41 8 116t21.5 177.5t17.5 141.5q-94 -156 -217 -285t-293 -222.5t-342 -93.5q-63 0 -107.5 20.5t-67 47.5t-33.5 81t-13 91t-2 109q0 147 24.5 278t80.5 259t168 204t269 76q100 0 173 -42t73 -136 q0 -98 -37 -176t-92 -126.5t-140 -86t-160 -56t-171 -35.5q-8 -137 -8 -311q61 -29 108 -29q111 0 242 72q215 111 370.5 312.5t219.5 443.5h-162l21 143h165l25 227l168 84l-33 -309h322l-21 -145h-319l-82 -805q33 -12 69 -12q80 0 185.5 77.5t181.5 163.5zM702 911 q0 100 -143 101q-193 0 -248 -418q84 16 122 25.5t101.5 34t92 54t52 81.5t23.5 122z" />
<glyph horiz-adv-x="1949" d="M1923 12q-98 -35 -197 -35q-96 0 -153 5.5t-112.5 24t-83 54t-44 95t-16.5 149.5l6 678h-141v86q66 29 111.5 105.5t45.5 195.5q0 133 -85 223t-216 90q-119 0 -202.5 -88t-83.5 -213q0 -80 37.5 -143t83 -94t83 -66t37.5 -65q0 -111 -96 -170q-43 53 -134 106.5 t-167 53.5q-166 0 -243 -102.5t-77 -336.5q0 -215 83 -323.5t317 -108.5q63 0 152.5 13.5t125.5 25.5l35 -106q-39 -27 -140 -55.5t-220 -28.5q-313 0 -426 132t-113 457q0 231 147.5 403.5t383.5 172.5q39 0 65 -2q-68 90 -68 219q0 184 130.5 314t314.5 130 q197 0 322.5 -132t125.5 -322q0 -141 -71 -236h442v-135h-375v-426l6 -250q2 -123 40 -152.5t171 -29.5q90 0 174 18z" />
<glyph horiz-adv-x="1845" d="M1845 104q0 -82 -8 -104h-942q-8 66 -6 98l57 39q61 41 62 113l6 309v172q0 150 -42 202t-190 52q-88 0 -187 -31.5t-146 -60.5v-334l6 -373q0 -20 1 -27t7 -13.5t18 -8.5l181 -33q0 -82 -9 -104h-547q-8 61 -6 90l95 45q31 14 50 51t19 68l6 305v424h-207v102 q168 43 306 43q43 0 59 -16t16 -57v-62q203 147 410 148q90 0 153.5 -19.5t99.5 -49.5t55.5 -82t24.5 -101t5 -125v-205l8 -393q0 -18 4 -23.5t23 -7.5z" />
<glyph horiz-adv-x="2527" d="M2464 109q0 -80 -10 -109h-508q-8 66 -7 100l89 39q25 10 42 50t19 71l4 299v172q0 150 -42 202t-189 52q-88 0 -197 -31.5t-154 -60.5v-334l9 -356q0 -37 6 -49.5t33 -16.5l192 -33q0 -76 -10 -104h-570q-8 61 -6 90l95 41q29 12 49 51t20 86l4 291v805q0 137 -73.5 228 t-202.5 91q-150 0 -226.5 -82.5t-76.5 -220.5q0 -90 37.5 -154.5t82 -93t82 -59.5t37.5 -59q0 -111 -96 -170q-43 53 -134 106.5t-167 53.5q-166 0 -243 -102.5t-77 -336.5q0 -215 83 -323.5t317 -108.5q63 0 152.5 13.5t125.5 25.5l35 -106q-39 -27 -140 -55.5t-220 -28.5 q-313 0 -426 132t-113 457q0 231 147.5 403.5t383.5 172.5q39 0 65 -2q-68 90 -68 219q0 184 130.5 314t314.5 130q213 0 329.5 -121.5t116.5 -322.5l-2 -363v-8q203 147 428 148q111 0 181.5 -25.5t102.5 -82t42 -115t10 -154.5v-205l6 -379q0 -23 8.5 -31t30.5 -12z" />
<glyph horiz-adv-x="0" d="M113 -451h-197v17h74v434h-74v16h74v1086h-74v16h74v441h-74v16h197v-16h-101v-441h101v-16h-101v-1086h101v-16h-101v-434h101v-17z" />
<glyph horiz-adv-x="2322" d="M2310 53l-6 -96q-102 0 -225 39t-203 145l-332 441l328 319q29 29 29 55q0 45 -33 56l-90 32q0 51 6 74h403v-74l-434 -411l281 -379q57 -78 139 -131.5t137 -69.5zM1657 92q0 -61 -8 -92h-496q-10 55 -8 90l110 43q33 12 52.5 53t19.5 80l6 293v805q0 135 -81 226 t-210 91q-125 0 -207.5 -86t-82.5 -219q0 -68 24.5 -122t60 -85.5t71.5 -57.5t60.5 -49.5t24.5 -47.5q0 -111 -96 -170q-43 53 -134 106.5t-167 53.5q-166 0 -243 -102.5t-77 -336.5q0 -215 83 -323.5t317 -108.5q63 0 152.5 13.5t125.5 25.5l35 -106q-39 -27 -140 -55.5 t-220 -28.5q-313 0 -426 132t-113 457q0 231 147.5 403.5t383.5 172.5q39 0 65 -2q-68 90 -68 219q0 184 130.5 314t314.5 130q213 0 328.5 -120.5t117.5 -323.5l2 -805l9 -305q4 -102 59 -127z" />
<glyph horiz-adv-x="1355" d="M1262 1417l-27 -74q-72 -12 -96 -45q-59 -76 -128 -184l-145 -237l-98 -164h426v-109h-432v-145l2 -70h430v-108h-426l14 -281h-235l12 281h-397v108h401l4 74v141h-405v109h401q-190 389 -305 544q-43 61 -125 84l-6 72q160 49 235 49q41 -49 150 -277.5t166 -367.5 l99 185l152 276q69 121 113 184q132 -6 220 -45z" />
<glyph horiz-adv-x="1802" d="M1663 713h-125l-82 512l-10 94l-191 -606h-141l-149 598l-7 -76l-100 -522h-110l153 735h129l123 -477l43 -176l51 182l156 471h131zM647 1391l-74 -74q-72 74 -151 74q-152 0 -152 -117q0 -43 58.5 -77t129 -57.5t129 -81t58.5 -143.5q0 -102 -88 -160.5t-203 -58.5 q-150 0 -241 123l73 74q86 -115 193 -115q68 0 110.5 31t42.5 92q0 43 -37.5 74t-92 51.5t-108.5 44t-92 71.5t-38 115q0 102 74.5 157.5t179.5 55.5q147 1 229 -79z" />
<glyph horiz-adv-x="1024" d="M1024 412h-1024v299h1024v-299z" />
<glyph horiz-adv-x="1024" d="M1024 616h-1024v97h1024v-97zM1024 412h-1024v96h1024v-96z" />
<glyph horiz-adv-x="1024" d="M1024 575h-1024v138h1024v-138zM1024 412h-1024v137h1024v-137z" />
<glyph horiz-adv-x="1024" d="M971 483h-152v152h152v-152zM766 483h-152v152h152v-152zM561 483h-151v152h151v-152zM356 483h-151v152h151v-152zM152 483h-152v152h152v-152z" />
<glyph horiz-adv-x="1024" d="M989 483h-67v152h67v-152zM887 483h-68v152h68v-152zM784 483h-67v152h67v-152zM682 483h-68v152h68v-152zM580 483h-68v152h68v-152zM477 483h-67v152h67v-152zM375 483h-68v152h68v-152zM272 483h-67v152h67v-152zM170 483h-68v152h68v-152zM68 483h-68v152h68v-152z " />
<glyph horiz-adv-x="1024" d="M1096 635l-107 -152h-67l106 152h68zM993 635l-106 -152h-68l107 152h67zM891 635l-107 -152h-67l106 152h68zM788 635l-106 -152h-68l107 152h67zM686 635l-106 -152h-68l106 152h68zM584 635l-107 -152h-67l106 152h68zM481 635l-106 -152h-68l107 152h67zM379 635 l-107 -152h-67l106 152h68zM276 635l-106 -152h-68l107 152h67zM174 635l-106 -152h-68l106 152h68z" />
<glyph horiz-adv-x="1024" d="M1073 635l-102 -152h-152l103 152h151zM868 635l-102 -152h-152l103 152h151zM664 635l-103 -152h-151l102 152h152zM459 635l-103 -152h-151l102 152h152zM254 635l-102 -152h-152l102 152h152z" />
<glyph horiz-adv-x="1024" d="M1024 655h-1024v56h1024v-56zM1024 575h-1024v54h1024v-54zM1024 494h-1024v53h1024v-53zM1024 412h-1024v53h1024v-53z" />
<glyph horiz-adv-x="1024" d="M1024 686h-1024v25h1024v-25zM1024 647h-1024v25h1024v-25zM1024 608h-1024v25h1024v-25zM1024 567h-1024v27h1024v-27zM1024 528h-1024v25h1024v-25zM1024 489h-1024v25h1024v-25zM1024 451h-1024v24h1024v-24zM1024 412h-1024v24h1024v-24z" />
<glyph horiz-adv-x="1024" d="M989 412h-67v299h67v-299zM887 412h-68v299h68v-299zM784 412h-67v299h67v-299zM682 412h-68v299h68v-299zM580 412h-68v299h68v-299zM477 412h-67v299h67v-299zM375 412h-68v299h68v-299zM272 412h-67v299h67v-299zM170 412h-68v299h68v-299zM68 412h-68v299h68v-299z " />
<glyph d="M1065 285h-952l477 825z" />
<glyph d="M1155 559l-414 -151l-151 -414l-154 414l-413 151l413 154l154 413l151 -413z" />
<glyph d="M1116 731l-328 -235l127 -383l-325 237l-326 -237l125 383l-326 235h402l125 383l123 -383h403z" />
<glyph d="M1094 268l-394 101l-110 -392l-111 392l-395 -101l283 291l-283 293l395 -100l111 391l110 -391l394 100l-283 -293z" />
<glyph horiz-adv-x="1605" d="M1440 385h-1288l643 1114z" />
<glyph horiz-adv-x="1605" d="M1561 756l-560 -205l-206 -559l-205 559l-559 205l559 207l205 559l206 -559z" />
<glyph horiz-adv-x="1605" d="M1507 987l-442 -319l170 -516l-440 319l-439 -319l168 516l-440 319l545 -2l166 518l168 -518z" />
<glyph horiz-adv-x="1605" d="M1477 362l-533 136l-149 -529l-150 529l-532 -136l383 394l-383 393l532 -133l150 528l149 -528l533 133l-381 -393z" />
<glyph horiz-adv-x="1486" d="M1303 539l-429 143h-61v-61l143 -428h-426l144 428v61h-64l-426 -143v426l426 -144h64v64l-144 426h426l-143 -426v-64h61l429 144v-426z" />
<glyph horiz-adv-x="720" d="M705 829q-20 -20 -76 -39.5t-90 -19.5q-59 0 -80 25.5t-25 78.5q-100 -106 -221 -106q-76 0 -123 40t-47 116q0 176 246 213q119 18 143 18v92q0 61 -32.5 84t-120.5 23q-74 0 -168 -25l-25 94q104 41 225 41q47 0 81 -4t80 -20.5t70.5 -56.5t24.5 -103v-166l11 -233h118 zM434 934v147q-2 0 -22.5 -3t-51 -7t-53.5 -10q-123 -27 -123 -109q0 -68 84 -67q43 0 166 49z" />
<glyph horiz-adv-x="768" d="M719 1133q0 -160 -98.5 -261.5t-247.5 -101.5q-156 0 -252 29l6 319v504h-119v66q111 29 201 28q31 0 42 -10t11 -41v-547l6 -239q72 -10 109 -11q96 0 144 70t48 184q0 238 -166 238q-45 0 -90 -8l-14 65q55 41 139 41q143 0 212 -73.5t69 -251.5z" />
<glyph horiz-adv-x="626" d="M594 1374q0 -76 -64 -108q-90 106 -159 106q-92 0 -136.5 -58.5t-44.5 -195.5q0 -240 216 -239q80 0 157 20l25 -76q-90 -55 -219 -55q-178 0 -249 80t-71 272q0 137 92 241.5t240 104.5q80 0 146.5 -20.5t66.5 -71.5z" />
<glyph horiz-adv-x="786" d="M764 825q-113 -59 -193 -59q-70 0 -69 106q-96 -102 -183 -102q-270 0 -270 317q0 166 94.5 266.5t235.5 100.5q66 0 123 -10v178h-121v68q119 27 201 26q33 0 45 -10t10 -41v-547l6 -237h111zM502 1118v236q-82 16 -127 16q-102 0 -141 -74.5t-39 -208.5 q0 -197 167 -196q20 0 43 5t35 10l31 14q18 8 25 10z" />
<glyph horiz-adv-x="679" d="M633 1106h-443q6 -133 62.5 -178t165.5 -45q86 0 178 18l25 -78q-88 -55 -234 -55q-174 0 -256 68.5t-82 263.5q0 152 88 258t230 106q266 0 266 -317v-41zM481 1182q0 199 -125 198q-72 0 -116.5 -53t-51.5 -145h293z" />
<glyph horiz-adv-x="514" d="M608 1642q0 -59 -57 -92q-78 82 -123 82q-84 0 -112.5 -38t-28.5 -111v-33h147v-88h-147v-244l8 -211q0 -27 27 -33q137 -27 141 -28q0 -45 -8 -68h-410q-4 29 -4 60l55 20q49 20 49 80l5 180v244h-99v68l99 20v25q0 98 80.5 173.5t181.5 75.5q196 0 196 -82z" />
<glyph horiz-adv-x="749" d="M731 1350h-135q18 -37 18 -103q0 -94 -74.5 -157.5t-191.5 -63.5q-86 0 -147 27v-127h221q156 0 214 -40t58 -130q0 -109 -112.5 -180.5t-272.5 -71.5q-270 0 -270 162q0 88 113 147q-23 0 -46.5 18.5t-23.5 57.5q0 82 78 182q-84 57 -84 166q0 92 68.5 164t197.5 72 q125 0 190 -50l199 41v-114zM471 1241q0 68 -32.5 111t-90.5 43q-74 0 -106.5 -42t-32.5 -106q0 -143 135 -143q59 0 93 37t34 100zM551 731q0 43 -37 57.5t-119 14.5h-186q-45 -41 -45 -84q0 -123 221 -123q72 0 119 39t47 96z" />
<glyph horiz-adv-x="452" d="M330 1657q0 -18 -42 -60.5t-62.5 -42.5t-61.5 42t-41 61q0 20 42 61t60 41q20 0 62.5 -41t42.5 -61zM420 846q0 -51 -6 -68h-365q-4 37 -4 62l76 24q37 14 37 62l4 188v250h-121v70q129 29 203 28q53 0 53 -49v-299l4 -213q0 -31 21 -35z" />
<glyph horiz-adv-x="774" d="M768 823l-10 -71q-188 8 -281 133l-180 243l199 187q18 16 18 33q0 23 -20 32l-50 19q0 35 5 51h253v-51l-260 -236l156 -202q74 -103 170 -138zM369 840q0 -37 -7 -62h-313q-6 35 -4 60l68 24q39 12 39 70l4 182v508h-119v70q111 25 203 24q51 0 51 -51v-551l4 -182 q4 -55 31 -70z" />
<glyph horiz-adv-x="438" d="M418 844q0 -41 -6 -66h-363q-4 23 -4 60l68 22q39 14 39 64l4 190v508h-117v70q98 25 201 24q53 0 53 -51v-551l4 -215q4 -31 18 -33z" />
<glyph horiz-adv-x="1292" d="M1264 846q0 -43 -7 -68h-317q-6 35 -4 66l43 22q31 14 31 62l4 186v92q0 84 -21.5 117t-99.5 33q-86 0 -178 -39q2 -25 2 -78v-125l4 -219q0 -29 20 -31l99 -18q0 -45 -9 -68h-319q-6 35 -4 64l43 20q27 14 27 51l4 201v92q0 86 -20.5 118t-98.5 32q-88 0 -178 -45v-197 l4 -205q0 -37 20 -43l86 -18q0 -53 -6 -70h-334q-6 20 -6 60l55 22q41 14 41 68l5 186v250h-117v70q119 27 203 26q47 0 47 -45v-39q113 88 229 88q154 0 190 -88q113 88 240 88q72 0 116 -15t63.5 -50t24.5 -68t5 -92v-125l4 -219q0 -16 4 -22.5t19 -8.5z" />
<glyph horiz-adv-x="733" d="M684 1116q0 -137 -95 -241.5t-231 -104.5q-309 0 -309 336q0 137 95.5 245.5t224.5 108.5q315 0 315 -344zM535 1118q0 246 -179 246q-160 0 -159 -254q0 -113 39.5 -176.5t142.5 -63.5q90 0 123 66.5t33 181.5z" />
<glyph horiz-adv-x="788" d="M739 1130q0 -195 -98 -278.5t-248 -83.5q-57 0 -100 6l4 -145q2 -29 33 -33l94 -18q4 -39 -6 -70h-363q-8 31 -4 63l45 19q47 16 47 76l4 448v250h-116v68q127 29 202 28q49 0 50 -47v-27q82 74 170 74q286 0 286 -330zM590 1106q0 109 -41 182.5t-125 73.5 q-66 0 -139 -43v-209l4 -246q45 -10 108 -10q96 0 144.5 68.5t48.5 183.5z" />
<glyph horiz-adv-x="761" d="M764 578q0 -43 -6 -70h-363q-4 14 -4 63l64 21q47 16 51 100l2 150q-102 -70 -170 -70q-55 0 -97 11.5t-86 43t-68 101t-24 172.5q0 164 94.5 260t235.5 96q135 0 256 -33v-340l6 -444q0 -25 5.5 -33t23.5 -12zM512 1114v238q-86 18 -121 18q-186 0 -186 -266 q0 -117 41 -167t125 -50q78 0 137 24z" />
<glyph horiz-adv-x="575" d="M571 1444l-32 -129q-41 20 -93 20q-115 0 -155 -45v-176l4 -209q0 -27 16 -33l140 -24q0 -47 -9 -70h-387q-6 29 -6 62l57 24q43 18 46 82l2 170v248h-117v72q123 25 199 24q51 0 51 -45v-51q27 41 78 69.5t108 28.5q65 0 98 -18z" />
<glyph horiz-adv-x="610" d="M555 973q0 -111 -80 -160t-190 -49q-121 0 -230 49l11 188l61 -2q4 -68 49 -109.5t115 -41.5q129 0 129 94q0 31 -35 53.5t-85 42t-100 44t-85 71.5t-35 113q0 98 69.5 148t178.5 50q111 0 211 -47l-21 -168l-53 6q-10 53 -50 88t-108 35q-106 0 -106 -86q0 -35 55 -66.5 t121.5 -54t122 -73.5t55.5 -125z" />
<glyph horiz-adv-x="544" d="M526 797q-76 -33 -151 -33q-137 0 -190.5 37t-51.5 168l4 387h-98v53l211 178h26v-137h226v-94h-226v-242l5 -149q2 -59 22.5 -75t89.5 -16q41 0 119 11z" />
<glyph horiz-adv-x="849" d="M825 819q-88 -49 -172 -49q-90 0 -96 96q-33 -27 -45 -36t-45 -29.5t-64.5 -28.5t-66.5 -8q-127 0 -165 51t-38 156v391h-108v68q129 29 184 28q61 0 61 -55v-289l2 -110q2 -66 20.5 -99t74.5 -33q57 0 184 72l4 170v248h-113v68q129 29 187 28q63 0 63 -55v-291l4 -231 h119z" />
<glyph horiz-adv-x="696" d="M682 1450q0 -51 -2 -59q-47 -43 -72 -103l-211 -508l-104 -32l-205 563q-18 43 -65 71q0 47 6 68h280q0 -59 -4 -76h-84l148 -444l143 362q8 20 0 47t-20 31q-2 2 -19.5 7t-19.5 5q0 61 2 68h227z" />
<glyph horiz-adv-x="641" d="M618 987l-36 -209h-539l-20 58l405 503h-240q-49 0 -114 -84q-12 2 -43 19l47 176h489l13 -72l-390 -491h234q37 0 80 42t61 72z" />
<glyph horiz-adv-x="1245" d="M1194 76q0 -43 -10 -76h-402q-8 49 -6 94l84 33q29 10 36 19.5t-1 37.5l-90 240h-393l-88 -195q-16 -35 -7 -71.5t37 -46.5l82 -31q0 -47 -10 -80h-367q-6 41 -4 80l39 41q57 61 76 102l412 893l129 35l370 -936q31 -78 82 -115zM762 539l-70 184l-61 219h-6l-78 -217 l-84 -186h299z" />
<glyph horiz-adv-x="1226" d="M1104 324q0 -135 -108.5 -229.5t-313.5 -94.5h-553q-10 49 -6 96l84 19q84 18 84 90l4 229v510q0 39 -29 49l-125 43q-4 45 11 82h481q389 0 389 -282q0 -168 -145 -238q35 -8 67.5 -22.5t71.5 -44t63.5 -83.5t24.5 -124zM836 817q0 102 -53.5 141t-184.5 39h-133v-360 h147q224 0 224 180zM915 317q0 106 -77.5 151.5t-245.5 45.5h-127v-82l6 -305h182q117 0 189.5 48t72.5 142z" />
<glyph horiz-adv-x="1159" d="M1034 49q-137 -59 -321 -59q-590 0 -590 563q0 250 164 417t420 167q164 0 323 -64v-252h-94q-33 94 -90.5 140.5t-165.5 46.5q-377 0 -377 -441q0 -207 121 -317.5t317 -110.5q133 0 265 29z" />
<glyph horiz-adv-x="1392" d="M1270 586q0 -283 -172 -434.5t-463 -151.5h-506q-10 49 -6 96l88 19q80 20 80 106l4 215v514q0 33 -29 43l-123 41q-8 43 9 84h475q147 0 254.5 -21.5t201 -77.5t140.5 -164.5t47 -268.5zM1071 559q0 225 -112.5 327.5t-337.5 102.5h-156v-555l8 -307h180 q217 0 317.5 99.5t100.5 332.5z" />
<glyph horiz-adv-x="1206" d="M1063 279l-33 -279h-901q-10 51 -6 96l86 21q82 18 82 88l4 231v508q0 39 -29 49l-125 43q-4 45 11 82h843v-268q-31 -10 -104 -4q-14 76 -39 106.5t-76 32.5l-311 8v-368l479 8v-144l-479 9v-64l6 -307l305 4q141 2 195 160z" />
<glyph horiz-adv-x="1101" d="M979 829q-55 -8 -86 7q-16 66 -48 101.5t-97 37.5l-302 18v-399l484 14v-149l-484 8v-33l7 -268q0 -18 24 -21l191 -39q0 -74 -11 -106h-528q-8 63 -6 90l80 21q72 20 73 94l5 229v510q0 39 -31 49l-125 43q-4 45 10 82h844v-289z" />
<glyph horiz-adv-x="1255" d="M1092 809h-95q-31 90 -111.5 144.5t-205.5 54.5q-377 0 -377 -441q0 -215 129 -324.5t309 -109.5q100 0 183 29v338h168v-439q-207 -72 -379 -71q-590 0 -590 563q0 248 167 416t417 168q203 0 385 -74v-254z" />
<glyph horiz-adv-x="1523" d="M1401 104q0 -72 -10 -104h-473q-10 49 -7 96l76 21q76 23 76 133l2 184v64h-612v-64l6 -248q0 -39 26 -45l160 -43q0 -66 -10 -98h-504q-10 55 -8 88l100 37q27 8 43.5 42t16.5 71l4 196v477q0 82 -68 99l-96 24q0 51 10 84h449q10 -57 8 -92l-98 -22q-25 -6 -32 -15.5 t-7 -36.5v-327h612v270q0 31 -16.5 65.5t-40.5 43.5l-84 30q0 72 4 84h436q0 -70 -6 -92l-90 -20q-20 -4 -27.5 -13.5t-7.5 -36.5v-522l4 -248q2 -47 23 -51z" />
<glyph horiz-adv-x="731" d="M608 98q0 -66 -10 -98h-469q-8 63 -6 88l67 25q76 27 76 100l2 221v463q0 84 -57 107l-82 30q-8 43 6 84h430q8 -51 6 -92l-73 -16q-59 -12 -60 -107v-469l4 -264q0 -25 5.5 -33t25.5 -10z" />
<glyph horiz-adv-x="731" d="M592 1028l-84 -20q-33 -8 -42 -18.5t-9 -39.5v-809q0 -164 -83 -260t-255 -180l-66 111q131 80 182.5 172t51.5 249v670q0 31 -18.5 62.5t-49.5 42.5l-78 26q0 47 11 84h434q8 -47 6 -90z" />
<glyph horiz-adv-x="1302" d="M1262 74l-21 -109q-31 0 -72 4t-112.5 30t-114.5 71l-455 473v59l367 328q27 27 27 49q0 18 -19 25l-84 24q0 61 10 90h392v-86l-521 -422l383 -381q122 -120 220 -155zM598 98q0 -66 -10 -98h-459q-8 63 -6 88l86 27q76 20 78 104l2 215v479q0 74 -53 93l-86 28 q-10 47 4 84h432q10 -49 8 -82l-86 -30q-49 -18 -49 -101v-459l2 -268q2 -37 24 -43z" />
<glyph horiz-adv-x="1067" d="M1047 279l-33 -279h-885q-10 49 -6 96l70 17q88 18 90 92l4 227v481q0 76 -54 93l-94 28q0 51 11 84h434q8 -47 6 -90q-53 -8 -111 -27q-25 -8 -24 -43v-524l8 -303l307 6q133 2 184 154z" />
<glyph horiz-adv-x="1761" d="M1659 90q0 -63 -10 -90h-424q-8 47 -6 88l77 23q61 20 50 131l-66 544v54h-4l-338 -838l-125 -37l-328 889h-4v-53l-100 -623q-4 -33 10 -37l158 -49q0 -66 -10 -92h-430q-8 63 -7 88l64 31q63 31 78 110l118 697q6 53 -28 65l-119 43q0 47 10 84h328l260 -682l72 -219h8 l76 225l276 676h316q8 -55 6 -82l-88 -30q-57 -18 -45 -107l98 -704q6 -45 43 -64z" />
<glyph horiz-adv-x="1499" d="M1397 1036l-101 -28q-23 -6 -39 -35t-16 -62v-907l-131 -45l-690 938h-8l16 -96v-367l4 -248q2 -18 3 -25t7.5 -12.5t20.5 -9.5l141 -47q0 -66 -10 -92h-465q-8 63 -6 88l100 31q29 8 47.5 44t18.5 75l4 196v496q0 61 -57 78l-84 26q0 68 6 84h334l620 -827h6l-12 137 l-2 483q0 27 -14.5 53.5t-34.5 32.5l-109 37q0 51 10 84h435q8 -55 6 -82z" />
<glyph horiz-adv-x="1390" d="M1247 600q0 -258 -156.5 -438t-420.5 -180q-266 0 -409.5 138t-143.5 400q0 260 161.5 437.5t421.5 177.5q266 0 406.5 -144.5t140.5 -390.5zM1051 575q0 193 -88.5 311t-276.5 118q-193 0 -282 -131.5t-89 -325.5q0 -184 86 -307t273 -123q199 0 288 128.5t89 329.5z " />
<glyph horiz-adv-x="1130" d="M1049 774q0 -162 -115 -259t-340 -97h-37v119l21 2q70 4 112.5 12t88.5 29.5t67.5 67.5t21.5 118q0 47 -11 83t-27.5 59.5t-47 40t-54 24.5t-68 13t-69 6t-74.5 1h-68v-559l6 -252q0 -37 24 -41l170 -45q0 -63 -10 -96h-510q-8 63 -6 90l86 27q66 25 65 80l7 237v510 q0 39 -31 49l-125 43q-4 45 10 82h541q176 0 274.5 -86t98.5 -258z" />
<glyph horiz-adv-x="1388" d="M1235 600q0 -258 -156.5 -438t-421.5 -180q-266 0 -409.5 138t-143.5 400q0 260 162 437.5t422 177.5q266 0 406.5 -144.5t140.5 -390.5zM1503 -250q-115 -125 -254 -125q-90 0 -273 77t-276 77q-49 0 -143 -51l-57 71q123 123 260 123q88 0 268 -75.5t270 -75.5 q53 0 152 55zM1038 575q0 193 -88 311t-276 118q-193 0 -282 -131.5t-89 -325.5q0 -184 86 -307t273 -123q199 0 287.5 128.5t88.5 329.5z" />
<glyph horiz-adv-x="1277" d="M1298 57l-24 -94q-254 18 -375 143l-37 42q-18 22 -40 53l-34 48q-12 17 -36.5 58t-31.5 51.5t-34 58.5t-29 50q-20 -4 -67 -4h-146l5 -299q2 -29 20 -31l137 -31q0 -70 -10 -102h-457q-8 47 -6 88l66 23q63 23 73 94l4 229v524q-6 29 -28 35l-125 43q-4 45 10 82h508 q393 0 393 -313q0 -98 -52 -181t-146 -118q125 -197 204 -277q88 -88 138 -123t120 -49zM848 797q0 190 -248 192l-156 4v-411h156q248 0 248 215z" />
<glyph horiz-adv-x="1036" d="M922 303q0 -166 -132.5 -249t-314.5 -83q-188 0 -360 72l14 285h104q14 -109 98.5 -170.5t192.5 -61.5q98 0 156.5 46t58.5 141q0 63 -60.5 107t-145 75t-169.5 67.5t-145.5 108.5t-60.5 176q0 145 116.5 234.5t272.5 89.5q229 0 336 -54l2 -268h-92q-18 88 -86 139.5 t-156 51.5q-98 0 -160.5 -40t-62.5 -128q0 -51 61.5 -92t148.5 -74t174 -74t148.5 -118t61.5 -181z" />
<glyph horiz-adv-x="1105" d="M1090 842q-43 -10 -95 -8q-16 80 -48 117.5t-91 37.5h-219v-555l6 -264q2 -18 3 -25.5t6 -11.5t16 -6l159 -29q0 -66 -10 -98h-528q-10 49 -6 98l125 31q57 12 57 113l2 192v555h-236q-88 0 -120 -153q-45 -6 -95 6v276h1074v-276z" />
<glyph horiz-adv-x="1380" d="M1286 1030l-88 -29q-35 -8 -35 -49v-528q0 -127 -43 -219t-116.5 -138.5t-148.5 -66.5t-159 -20q-90 0 -168.5 18t-152.5 60t-117 125t-43 200v547q0 59 -53 76l-92 28q0 51 10 84h444q8 -43 4 -94l-100 -20q-31 -4 -31 -37v-574q0 -145 90.5 -213.5t208.5 -68.5 q137 0 219 75.5t82 243.5v488q0 70 -61 86l-94 30q0 72 4 84h434q6 -35 6 -88z" />
<glyph horiz-adv-x="1245" d="M1225 1038l-70 -30q-37 -18 -80 -113l-411 -893l-129 -35l-371 936q-4 8 -10 25l-9 21q-2 5 -7 14.5l-7 13.5t-7 9t-10 8t-14 7l-80 39q0 41 11 78h432q8 -51 6 -94l-88 -18q-29 -6 -37 -18.5t0 -39.5l274 -723l302 658q16 35 7 69.5t-38 48.5l-80 37q0 43 10 80h402 q6 -41 4 -80z" />
<glyph horiz-adv-x="1765" d="M1745 1038l-68 -30q-47 -23 -75 -101l-316 -907l-129 -35l-260 690l-317 -653l-121 -33l-305 961q-18 57 -64 78l-70 32q0 41 11 78h424q10 -51 6 -84l-86 -28q-49 -18 -25 -97l199 -686l285 594l-43 137q-10 27 -31 37l-94 49q0 66 4 78h434q8 -59 6 -84l-88 -28 q-49 -18 -25 -95l234 -686l217 682q25 74 -29 94l-82 37q0 51 9 80h393q10 -49 6 -80z" />
<glyph horiz-adv-x="1265" d="M1206 88q0 -55 -10 -88h-422q-10 57 -6 88l72 39q35 18 0 61l-224 279l-221 -268q-14 -18 -12 -39t14 -27l99 -45q0 -61 -9 -88h-421q-8 63 -7 88l66 31q51 25 131 117l283 327l-271 338q-49 59 -162 127q-4 41 9 90h397q8 -66 6 -90l-61 -20q-47 -20 -8 -68l200 -246 l205 238q16 18 13 38.5t-21 28.5l-66 31q0 68 6 88h383q10 -55 9 -90q-51 -12 -105.5 -46t-85.5 -71l-260 -313l299 -369q66 -80 123 -110z" />
<glyph horiz-adv-x="1212" d="M1171 1038q-88 -37 -127 -92l-362 -518l4 -227q0 -61 37 -72l143 -37q0 -59 -10 -92h-508q-10 59 -8 98l121 31q45 12 49 76l4 223l-348 496q-14 20 -30.5 37.5t-26 25.5l-33.5 28l-35 27q0 55 6 76h402q8 -47 8 -82l-90 -32q-14 -6 -15.5 -31t19.5 -60l243 -356l230 305 q33 45 37 81t-25 50l-94 45q0 57 8 80h393q8 -41 8 -80z" />
<glyph horiz-adv-x="1079" d="M997 285l-32 -285h-850l-33 102l641 893l-377 -6q-94 -14 -123 -153q-47 -4 -94 6v276h815l23 -84l-650 -899l398 6q145 20 190 158z" />
<glyph horiz-adv-x="1816" d="M1694 98q0 -66 -11 -98h-469q-8 63 -6 88l68 25q76 27 76 100l2 221v463q0 84 -58 107l-82 30q-8 43 7 84h430q8 -51 6 -92l-74 -16q-59 -12 -59 -107v-469l4 -264q0 -25 5 -33t26 -10zM979 829q-55 -8 -86 7q-16 66 -48 101.5t-97 37.5l-302 18v-399l484 14v-149l-484 8 v-33l7 -268q0 -18 24 -21l191 -39q0 -74 -11 -106h-528q-8 63 -6 90l80 21q72 20 73 94l5 229v510q0 39 -31 49l-125 43q-4 45 10 82h844v-289z" />
<glyph horiz-adv-x="2131" d="M2111 279l-32 -279h-885q-10 49 -6 96l69 17q88 18 91 92l4 227v481q0 76 -54 93l-94 28q0 51 10 84h435q8 -47 6 -90q-53 -8 -111 -27q-25 -8 -24 -43v-524l8 -303l307 6q133 2 184 154zM979 829q-55 -8 -86 7q-16 66 -48 101.5t-97 37.5l-302 18v-399l484 14v-149 l-484 8v-33l7 -268q0 -18 24 -21l191 -39q0 -74 -11 -106h-528q-8 63 -6 90l80 21q72 20 73 94l5 229v510q0 39 -31 49l-125 43q-4 45 10 82h844v-289z" />
<glyph horiz-adv-x="1370" d="M1241 573q0 -133 -80 -252.5t-194 -185.5l2 -4l262 37v-168h-436v117q250 168 249 456q0 430 -360 431q-84 0 -148.5 -27t-103.5 -68t-62.5 -99t-32.5 -113.5t-9 -118.5q0 -158 59 -252.5t182 -188.5v-137h-428v168l242 -35l2 4q-109 49 -182.5 167t-73.5 271 q0 233 163 396.5t408 163.5q276 0 408.5 -149t132.5 -413z" />
<glyph horiz-adv-x="1718" d="M1575 279l-33 -279h-901q-10 51 -6 96q10 2 52 11.5t59.5 15.5t37 27.5t19.5 54.5l4 231v8h-361l-141 -208q-20 -33 -9 -70t40 -49l80 -37q0 -47 -10 -80h-402q-6 41 -4 80l47 37q63 51 103 106l598 895h759v-268q-31 -10 -104 -4q-14 76 -39 106.5t-76 32.5l-311 8v-368 l479 8v-144l-479 9v-64l6 -307l305 4q141 2 195 160zM807 559v440l-92 -155l-191 -285h283z" />
<glyph horiz-adv-x="1916" d="M1774 279l-33 -279h-733v80q-129 -98 -326 -98q-264 0 -411.5 142t-147.5 396q0 268 164 441.5t426 173.5q188 0 295 -66v49h698v-268q-29 -10 -104 -4q-14 76 -39 106.5t-76 32.5l-311 8v-368l481 8v-144l-481 9v-64l8 -307l303 4q141 2 194 160zM1008 848 q-90 156 -310 156q-197 0 -286.5 -125t-89.5 -332q0 -197 87 -313.5t277 -116.5q227 0 322 168v563z" />
<glyph horiz-adv-x="1525" d="M1608 897q0 -131 -124 -238.5t-313 -130.5q-6 -178 -88 -307t-203.5 -187.5t-267.5 -58.5q-510 0 -510 531q0 281 170 461t400 180q381 0 381 -158q0 -84 -99 -149q-121 129 -190 166q-59 12 -119 12q-98 0 -167.5 -41t-106.5 -110.5t-53.5 -146.5t-16.5 -163 q0 -197 82 -324t266 -127q92 0 156.5 34t97.5 96.5t47.5 131t16.5 156.5q-236 0 -400 80l76 96q233 -49 397 -49q383 0 383 221q0 78 -55 134q49 39 109 38q66 0 98.5 -40.5t32.5 -106.5z" />
<glyph horiz-adv-x="1245" d="M1008 1593q-201 -184 -498 -352l-66 96q274 211 447 408zM1194 76q0 -43 -10 -76h-402q-8 49 -6 94l84 33q29 10 36 19.5t-1 37.5l-90 240h-393l-88 -195q-16 -35 -7 -71.5t37 -46.5l82 -31q0 -47 -10 -80h-367q-6 41 -4 80l39 41q57 61 76 102l412 893l129 35l370 -936 q31 -78 82 -115zM762 539l-70 184l-61 219h-6l-78 -217l-84 -186h299z" />
<glyph horiz-adv-x="1245" d="M846 1382l-51 -108q-276 117 -553 282l120 162q236 -197 484 -336zM1194 76q0 -43 -10 -76h-402q-8 49 -6 94l84 33q29 10 36 19.5t-1 37.5l-90 240h-393l-88 -195q-16 -35 -7 -71.5t37 -46.5l82 -31q0 -47 -10 -80h-367q-6 41 -4 80l39 41q57 61 76 102l412 893l129 35 l370 -936q31 -78 82 -115zM762 539l-70 184l-61 219h-6l-78 -217l-84 -186h299z" />
<glyph horiz-adv-x="1245" d="M1079 1356q-78 -82 -100 -101q-49 25 -131 90.5t-139 118.5l-56 54q-141 -160 -331 -263q-49 49 -78 84q186 135 428 406q292 -317 407 -389zM1194 76q0 -43 -10 -76h-402q-8 49 -6 94l84 33q29 10 36 19.5t-1 37.5l-90 240h-393l-88 -195q-16 -35 -7 -71.5t37 -46.5 l82 -31q0 -47 -10 -80h-367q-6 41 -4 80l39 41q57 61 76 102l412 893l129 35l370 -936q31 -78 82 -115zM762 539l-70 184l-61 219h-6l-78 -217l-84 -186h299z" />
<glyph horiz-adv-x="1245" d="M1020 1468q0 -16 -53.5 -71.5t-74 -55.5t-73.5 54.5t-53 72.5q0 20 54 73.5t72.5 53.5t73 -53.5t54.5 -73.5zM532 1468q0 -16 -53 -71.5t-73.5 -55.5t-73.5 54.5t-53 72.5q0 20 54 73.5t72.5 53.5t72.5 -53.5t54 -73.5zM1194 76q0 -43 -10 -76h-402q-8 49 -6 94l84 33 q29 10 36 19.5t-1 37.5l-90 240h-393l-88 -195q-16 -35 -7 -71.5t37 -46.5l82 -31q0 -47 -10 -80h-367q-6 41 -4 80l39 41q57 61 76 102l412 893l129 35l370 -936q31 -78 82 -115zM762 539l-70 184l-61 219h-6l-78 -217l-84 -186h299z" />
<glyph horiz-adv-x="1245" d="M1069 1473q-10 -14 -27.5 -35t-74 -54.5t-113.5 -33.5q-51 0 -203.5 44t-191.5 44q-106 0 -170 -56l-53 76q10 14 30.5 36t81 57.5t119.5 35.5q57 0 207.5 -44t187.5 -44q41 0 80 12.5t57 24.5l21 14zM1194 76q0 -43 -10 -76h-402q-8 49 -6 94l84 33q29 10 36 19.5 t-1 37.5l-90 240h-393l-88 -195q-16 -35 -7 -71.5t37 -46.5l82 -31q0 -47 -10 -80h-367q-6 41 -4 80l39 41q57 61 76 102l412 893l129 35l370 -936q31 -78 82 -115zM762 539l-70 184l-61 219h-6l-78 -217l-84 -186h299z" />
<glyph horiz-adv-x="1245" d="M891 1497q0 -100 -79 -157.5t-171 -57.5q-31 0 -65.5 6t-84 25.5t-80 68t-30.5 117.5q0 111 73.5 168t180.5 57q100 0 178 -52t78 -175zM1194 76q0 -43 -10 -76h-402q-8 49 -6 94l84 33q29 10 36 19.5t-1 37.5l-90 240h-393l-88 -195q-16 -35 -7 -71.5t37 -46.5l82 -31 q0 -47 -10 -80h-367q-6 41 -4 80l39 41q57 61 76 102l412 893l129 35l370 -936q31 -78 82 -115zM758 1501q0 55 -35 91t-88 36q-121 0 -121 -123q0 -57 35 -93t88 -36q57 0 89 33t32 92zM762 539l-70 184l-61 219h-6l-78 -217l-84 -186h299z" />
<glyph horiz-adv-x="1159" d="M1034 49q-137 -59 -321 -59q-590 0 -590 563q0 250 164 417t420 167q164 0 323 -64v-252h-94q-33 94 -90.5 140.5t-165.5 46.5q-377 0 -377 -441q0 -207 121 -317.5t317 -110.5q133 0 265 29zM838 -350q0 -98 -52.5 -152.5t-154.5 -87.5l-39 84q51 33 67.5 55.5 t16.5 69.5q0 43 -75 102.5t-75 90.5q0 49 52 110l75 -18q-6 -18 -6 -34.5t47 -46.5t95.5 -75t48.5 -98z" />
<glyph horiz-adv-x="1206" d="M1028 1593q-203 -184 -498 -352l-67 96q274 211 446 408zM1063 279l-33 -279h-901q-10 51 -6 96l86 21q82 18 82 88l4 231v508q0 39 -29 49l-125 43q-4 45 11 82h843v-268q-31 -10 -104 -4q-14 76 -39 106.5t-76 32.5l-311 8v-368l479 8v-144l-479 9v-64l6 -307l305 4 q141 2 195 160z" />
<glyph horiz-adv-x="1206" d="M776 1382l-51 -108q-276 117 -553 282l121 162q235 -197 483 -336zM1063 279l-33 -279h-901q-10 51 -6 96l86 21q82 18 82 88l4 231v508q0 39 -29 49l-125 43q-4 45 11 82h843v-268q-31 -10 -104 -4q-14 76 -39 106.5t-76 32.5l-311 8v-368l479 8v-144l-479 9v-64l6 -307 l305 4q141 2 195 160z" />
<glyph horiz-adv-x="1206" d="M1038 1350q-78 -82 -100 -101q-49 25 -131 90.5t-139 118.5l-56 53q-139 -160 -329 -262q-49 49 -78 84q82 61 188.5 162.5t171.5 171.5l66 72q292 -317 407 -389zM1063 279l-33 -279h-901q-10 51 -6 96l86 21q82 18 82 88l4 231v508q0 39 -29 49l-125 43q-4 45 11 82 h843v-268q-31 -10 -104 -4q-14 76 -39 106.5t-76 32.5l-311 8v-368l479 8v-144l-479 9v-64l6 -307l305 4q141 2 195 160z" />
<glyph horiz-adv-x="1206" d="M987 1468q0 -16 -53 -71.5t-76 -55.5q-20 0 -72.5 54.5t-52.5 72.5q0 20 53.5 73.5t71.5 53.5q20 0 74.5 -53.5t54.5 -73.5zM500 1468q0 -16 -53.5 -71.5t-75.5 -55.5q-20 0 -72.5 54.5t-52.5 72.5q0 20 53 73.5t72 53.5q20 0 74.5 -53.5t54.5 -73.5zM1063 279l-33 -279 h-901q-10 51 -6 96l86 21q82 18 82 88l4 231v508q0 39 -29 49l-125 43q-4 45 11 82h843v-268q-31 -10 -104 -4q-14 76 -39 106.5t-76 32.5l-311 8v-368l479 8v-144l-479 9v-64l6 -307l305 4q141 2 195 160z" />
<glyph horiz-adv-x="731" d="M741 1593q-203 -184 -497 -352l-68 96q274 211 447 408zM608 98q0 -66 -10 -98h-469q-6 49 -6 88l76 29q66 23 67 104l2 213v463q0 82 -47 100l-92 37q-10 47 4 84h432q8 -51 6 -92l-73 -16q-59 -12 -60 -107v-469l4 -264q0 -25 5.5 -33t25.5 -10z" />
<glyph horiz-adv-x="731" d="M535 1382l-52 -108q-276 117 -553 282l121 162q236 -197 484 -336zM608 98q0 -66 -10 -98h-469q-6 49 -6 88l76 29q66 23 67 104l2 213v463q0 82 -47 100l-92 37q-10 47 4 84h432q8 -51 6 -92l-73 -16q-59 -12 -60 -107v-469l4 -264q0 -25 5.5 -33t25.5 -10z" />
<glyph horiz-adv-x="731" d="M788 1350q-78 -82 -100 -101q-49 25 -131 90.5t-139 118.5l-56 53q-139 -160 -329 -262q-49 49 -78 84q82 61 188.5 162.5t171.5 171.5l66 72q292 -317 407 -389zM608 98q0 -66 -10 -98h-469q-6 49 -6 88l76 29q66 23 67 104l2 213v463q0 82 -47 100l-92 37q-10 47 4 84 h432q8 -51 6 -92l-73 -16q-59 -12 -60 -107v-469l4 -264q0 -25 5.5 -33t25.5 -10z" />
<glyph horiz-adv-x="731" d="M719 1468q0 -16 -53.5 -71.5t-74 -55.5t-73.5 54.5t-53 72.5q0 20 54 73.5t72.5 53.5t73 -53.5t54.5 -73.5zM231 1468q0 -16 -53 -71.5t-73.5 -55.5t-74 54.5t-53.5 72.5q0 20 54.5 73.5t73 53.5t72.5 -53.5t54 -73.5zM608 98q0 -66 -10 -98h-469q-6 49 -6 88l76 29 q66 23 67 104l2 213v463q0 82 -47 100l-92 37q-10 47 4 84h432q8 -51 6 -92l-73 -16q-59 -12 -60 -107v-469l4 -264q0 -25 5.5 -33t25.5 -10z" />
<glyph horiz-adv-x="1499" d="M1208 1473q-10 -14 -27.5 -35t-73.5 -54.5t-114 -33.5q-51 0 -203.5 44t-191.5 44q-106 0 -170 -56l-53 76q10 14 30.5 36t81 57.5t119.5 35.5q57 0 208 -44t187 -44q41 0 80 12.5t58 24.5l20 14zM1397 1036l-101 -28q-23 -6 -39 -35t-16 -62v-907l-131 -45l-690 938h-8 l16 -96v-367l4 -248q2 -18 3 -25t7.5 -12.5t20.5 -9.5l141 -47q0 -66 -10 -92h-465q-8 63 -6 88l100 31q29 8 47.5 44t18.5 75l4 196v496q0 61 -57 78l-84 26q0 68 6 84h334l620 -827h6l-12 137l-2 483q0 27 -14.5 53.5t-34.5 32.5l-109 37q0 51 10 84h435q8 -55 6 -82z" />
<glyph horiz-adv-x="1390" d="M1012 1593q-205 -186 -500 -352l-66 96q274 211 447 408zM1247 600q0 -258 -156.5 -438t-420.5 -180q-266 0 -409.5 138t-143.5 400q0 260 161.5 437.5t421.5 177.5q266 0 406.5 -144.5t140.5 -390.5zM1051 575q0 193 -88.5 311t-276.5 118q-193 0 -282 -131.5 t-89 -325.5q0 -184 86 -307t273 -123q199 0 288 128.5t89 329.5z" />
<glyph horiz-adv-x="1390" d="M897 1382l-49 -108q-283 119 -555 282l121 162q235 -197 483 -336zM1247 600q0 -258 -156.5 -438t-420.5 -180q-266 0 -409.5 138t-143.5 400q0 260 161.5 437.5t421.5 177.5q266 0 406.5 -144.5t140.5 -390.5zM1051 575q0 193 -88.5 311t-276.5 118q-193 0 -282 -131.5 t-89 -325.5q0 -184 86 -307t273 -123q199 0 288 128.5t89 329.5z" />
<glyph horiz-adv-x="1390" d="M1137 1350q-78 -82 -101 -101q-49 25 -131 90.5t-139 118.5l-55 53q-141 -160 -332 -262q-49 49 -78 84q186 135 428 406q293 -317 408 -389zM1247 600q0 -258 -156.5 -438t-420.5 -180q-266 0 -409.5 138t-143.5 400q0 260 161.5 437.5t421.5 177.5q266 0 406.5 -144.5 t140.5 -390.5zM1051 575q0 193 -88.5 311t-276.5 118q-193 0 -282 -131.5t-89 -325.5q0 -184 86 -307t273 -123q199 0 288 128.5t89 329.5z" />
<glyph horiz-adv-x="1390" d="M1059 1468q0 -16 -54.5 -71.5t-75 -55.5t-73.5 54.5t-53 72.5q0 20 54 73.5t72.5 53.5t74 -53.5t55.5 -73.5zM571 1468q0 -16 -54 -71.5t-74.5 -55.5t-74 54.5t-53.5 72.5q0 20 54.5 73.5t73 53.5t73.5 -53.5t55 -73.5zM1247 600q0 -258 -156.5 -438t-420.5 -180 q-266 0 -409.5 138t-143.5 400q0 260 161.5 437.5t421.5 177.5q266 0 406.5 -144.5t140.5 -390.5zM1051 575q0 193 -88.5 311t-276.5 118q-193 0 -282 -131.5t-89 -325.5q0 -184 86 -307t273 -123q199 0 288 128.5t89 329.5z" />
<glyph horiz-adv-x="1390" d="M1122 1473q-10 -14 -27.5 -35t-73.5 -54.5t-114 -33.5q-51 0 -203.5 44t-191.5 44q-106 0 -170 -56l-53 76q10 14 30.5 36t81 57.5t119.5 35.5q57 0 208 -44t187 -44q41 0 80 12.5t58 24.5l20 14zM1247 600q0 -258 -156.5 -438t-420.5 -180q-266 0 -409.5 138t-143.5 400 q0 260 161.5 437.5t421.5 177.5q266 0 406.5 -144.5t140.5 -390.5zM1051 575q0 193 -88.5 311t-276.5 118q-193 0 -282 -131.5t-89 -325.5q0 -184 86 -307t273 -123q199 0 288 128.5t89 329.5z" />
<glyph horiz-adv-x="1380" d="M1090 1593q-205 -186 -500 -352l-66 96q274 211 447 408zM1286 1030l-88 -29q-35 -8 -35 -49v-528q0 -127 -43 -219t-116.5 -138.5t-148.5 -66.5t-159 -20q-90 0 -168.5 18t-152.5 60t-117 125t-43 200v547q0 59 -53 76l-92 28q0 51 10 84h444q8 -43 4 -94l-100 -20 q-31 -4 -31 -37v-574q0 -145 90.5 -213.5t208.5 -68.5q137 0 219 75.5t82 243.5v488q0 70 -61 86l-94 30q0 72 4 84h434q6 -35 6 -88z" />
<glyph horiz-adv-x="1380" d="M897 1382l-49 -108q-283 119 -555 282l121 162q235 -197 483 -336zM1286 1030l-88 -29q-35 -8 -35 -49v-528q0 -127 -43 -219t-116.5 -138.5t-148.5 -66.5t-159 -20q-90 0 -168.5 18t-152.5 60t-117 125t-43 200v547q0 59 -53 76l-92 28q0 51 10 84h444q8 -43 4 -94 l-100 -20q-31 -4 -31 -37v-574q0 -145 90.5 -213.5t208.5 -68.5q137 0 219 75.5t82 243.5v488q0 70 -61 86l-94 30q0 72 4 84h434q6 -35 6 -88z" />
<glyph horiz-adv-x="1380" d="M1137 1350q-78 -82 -101 -101q-49 25 -131 90.5t-139 118.5l-55 53q-141 -160 -332 -262q-49 49 -78 84q186 135 428 406q293 -317 408 -389zM1286 1030l-88 -29q-35 -8 -35 -49v-528q0 -127 -43 -219t-116.5 -138.5t-148.5 -66.5t-159 -20q-90 0 -168.5 18t-152.5 60 t-117 125t-43 200v547q0 59 -53 76l-92 28q0 51 10 84h444q8 -43 4 -94l-100 -20q-31 -4 -31 -37v-574q0 -145 90.5 -213.5t208.5 -68.5q137 0 219 75.5t82 243.5v488q0 70 -61 86l-94 30q0 72 4 84h434q6 -35 6 -88z" />
<glyph horiz-adv-x="1380" d="M1079 1468q0 -16 -54 -71.5t-74.5 -55.5t-74 54.5t-53.5 72.5q0 20 54.5 73.5t73 53.5t73.5 -53.5t55 -73.5zM592 1468q0 -16 -54.5 -71.5t-75 -55.5t-73.5 54.5t-53 72.5q0 20 54 73.5t72.5 53.5t74 -53.5t55.5 -73.5zM1286 1030l-88 -29q-35 -8 -35 -49v-528 q0 -127 -43 -219t-116.5 -138.5t-148.5 -66.5t-159 -20q-90 0 -168.5 18t-152.5 60t-117 125t-43 200v547q0 59 -53 76l-92 28q0 51 10 84h444q8 -43 4 -94l-100 -20q-31 -4 -31 -37v-574q0 -145 90.5 -213.5t208.5 -68.5q137 0 219 75.5t82 243.5v488q0 70 -61 86l-94 30 q0 72 4 84h434q6 -35 6 -88z" />
<glyph horiz-adv-x="2060" d="M1946 303q0 -166 -132.5 -249t-314.5 -83q-188 0 -360 72l14 285h104q14 -109 98.5 -170.5t192.5 -61.5q98 0 156.5 46t58.5 141q0 63 -60.5 107t-145 75t-169.5 67.5t-145.5 108.5t-60.5 176q0 145 116.5 234.5t272.5 89.5q229 0 336 -54l2 -268h-92q-18 88 -86 139.5 t-156 51.5q-98 0 -160.5 -40t-62.5 -128q0 -51 61.5 -92t148.5 -74t174 -74t148.5 -118t61.5 -181zM922 303q0 -166 -132.5 -249t-314.5 -83q-188 0 -360 72l14 285h104q14 -109 98.5 -170.5t192.5 -61.5q98 0 156.5 46t58.5 141q0 63 -60.5 107t-145 75t-169.5 67.5 t-145.5 108.5t-60.5 176q0 145 116.5 234.5t272.5 89.5q229 0 336 -54l2 -268h-92q-18 88 -86 139.5t-156 51.5q-98 0 -160.5 -40t-62.5 -128q0 -51 61.5 -92t148.5 -74t174 -74t148.5 -118t61.5 -181z" />
<glyph horiz-adv-x="1638" d="M1563 1309q49 -121 49 -224.5t-32 -168t-85 -105.5q-63 -49 -172 -49q-115 0 -338 63l-86 23q-72 -248 -92 -615q219 0 237 119q2 37 -26.5 93.5t-73.5 103.5l186 166q20 -18 46 -50t60 -94.5t46 -126.5q20 -72 6 -135t-33.5 -106t-56.5 -79t-58.5 -52.5t-39.5 -26.5 q-119 -72 -299 -72v-290h-244q-4 55 0 350q-117 49 -244 163.5t-192 254.5q-94 195 -37 376q106 336 504 336q25 -2 141 -16q182 455 471 455q113 0 208.5 -77t154.5 -216zM1204 1339q-117 0 -229 -245q106 -37 155 -43q158 -39 201 -25q68 20 19 150q-58 161 -146 163z M317 629q33 -166 248 -310q10 240 60 447q18 92 30 133q-162 14 -263.5 -49t-74.5 -221z" />
</font>
</defs>
</svg>
